<?xml version="1.0" encoding="utf-8"?>
<svg xmlns="http://www.w3.org/2000/svg" xmlns:xlink="http://www.w3.org/1999/xlink" width="600" height="400" viewBox="0 0 2400 1600">
<defs>
  <clipPath id="clip210">
    <rect x="0" y="0" width="2400" height="1600"/>
  </clipPath>
</defs>
<path clip-path="url(#clip210)" d="M0 1600 L2400 1600 L2400 0 L0 0  Z" fill="#ffffff" fill-rule="evenodd" fill-opacity="1"/>
<defs>
  <clipPath id="clip211">
    <rect x="480" y="0" width="1681" height="1600"/>
  </clipPath>
</defs>
<path clip-path="url(#clip210)" d="M244.451 1410.9 L2352.76 1410.9 L2352.76 47.2441 L244.451 47.2441  Z" fill="#ffffff" fill-rule="evenodd" fill-opacity="1"/>
<defs>
  <clipPath id="clip212">
    <rect x="244" y="47" width="2109" height="1365"/>
  </clipPath>
</defs>
<polyline clip-path="url(#clip212)" style="stroke:#000000; stroke-linecap:round; stroke-linejoin:round; stroke-width:2; stroke-opacity:0.1; fill:none" points="632.779,1410.9 632.779,47.2441 "/>
<polyline clip-path="url(#clip212)" style="stroke:#000000; stroke-linecap:round; stroke-linejoin:round; stroke-width:2; stroke-opacity:0.1; fill:none" points="1045.73,1410.9 1045.73,47.2441 "/>
<polyline clip-path="url(#clip212)" style="stroke:#000000; stroke-linecap:round; stroke-linejoin:round; stroke-width:2; stroke-opacity:0.1; fill:none" points="1458.68,1410.9 1458.68,47.2441 "/>
<polyline clip-path="url(#clip212)" style="stroke:#000000; stroke-linecap:round; stroke-linejoin:round; stroke-width:2; stroke-opacity:0.1; fill:none" points="1871.63,1410.9 1871.63,47.2441 "/>
<polyline clip-path="url(#clip212)" style="stroke:#000000; stroke-linecap:round; stroke-linejoin:round; stroke-width:2; stroke-opacity:0.1; fill:none" points="2284.58,1410.9 2284.58,47.2441 "/>
<polyline clip-path="url(#clip210)" style="stroke:#000000; stroke-linecap:round; stroke-linejoin:round; stroke-width:4; stroke-opacity:1; fill:none" points="244.451,1410.9 2352.76,1410.9 "/>
<polyline clip-path="url(#clip210)" style="stroke:#000000; stroke-linecap:round; stroke-linejoin:round; stroke-width:4; stroke-opacity:1; fill:none" points="632.779,1410.9 632.779,1392 "/>
<polyline clip-path="url(#clip210)" style="stroke:#000000; stroke-linecap:round; stroke-linejoin:round; stroke-width:4; stroke-opacity:1; fill:none" points="1045.73,1410.9 1045.73,1392 "/>
<polyline clip-path="url(#clip210)" style="stroke:#000000; stroke-linecap:round; stroke-linejoin:round; stroke-width:4; stroke-opacity:1; fill:none" points="1458.68,1410.9 1458.68,1392 "/>
<polyline clip-path="url(#clip210)" style="stroke:#000000; stroke-linecap:round; stroke-linejoin:round; stroke-width:4; stroke-opacity:1; fill:none" points="1871.63,1410.9 1871.63,1392 "/>
<polyline clip-path="url(#clip210)" style="stroke:#000000; stroke-linecap:round; stroke-linejoin:round; stroke-width:4; stroke-opacity:1; fill:none" points="2284.58,1410.9 2284.58,1392 "/>
<path clip-path="url(#clip210)" d="M598.552 1485.02 L606.19 1485.02 L606.19 1458.66 L597.88 1460.32 L597.88 1456.06 L606.144 1454.4 L610.82 1454.4 L610.82 1485.02 L618.459 1485.02 L618.459 1488.96 L598.552 1488.96 L598.552 1485.02 Z" fill="#000000" fill-rule="nonzero" fill-opacity="1" /><path clip-path="url(#clip210)" d="M637.903 1457.48 Q634.292 1457.48 632.463 1461.04 Q630.658 1464.58 630.658 1471.71 Q630.658 1478.82 632.463 1482.38 Q634.292 1485.92 637.903 1485.92 Q641.537 1485.92 643.343 1482.38 Q645.172 1478.82 645.172 1471.71 Q645.172 1464.58 643.343 1461.04 Q641.537 1457.48 637.903 1457.48 M637.903 1453.77 Q643.713 1453.77 646.769 1458.38 Q649.848 1462.96 649.848 1471.71 Q649.848 1480.44 646.769 1485.04 Q643.713 1489.63 637.903 1489.63 Q632.093 1489.63 629.014 1485.04 Q625.959 1480.44 625.959 1471.71 Q625.959 1462.96 629.014 1458.38 Q632.093 1453.77 637.903 1453.77 Z" fill="#000000" fill-rule="nonzero" fill-opacity="1" /><path clip-path="url(#clip210)" d="M654.418 1458.35 L667.677 1458.35 L667.677 1461.55 L649.848 1461.55 L649.848 1458.35 Q652.011 1456.11 655.734 1452.35 Q659.477 1448.57 660.436 1447.48 Q662.261 1445.43 662.975 1444.02 Q663.709 1442.59 663.709 1441.22 Q663.709 1438.98 662.129 1437.57 Q660.568 1436.16 658.048 1436.16 Q656.261 1436.16 654.267 1436.78 Q652.293 1437.4 650.036 1438.66 L650.036 1434.82 Q652.33 1433.9 654.324 1433.43 Q656.317 1432.96 657.973 1432.96 Q662.336 1432.96 664.931 1435.14 Q667.527 1437.32 667.527 1440.97 Q667.527 1442.7 666.869 1444.26 Q666.229 1445.8 664.518 1447.91 Q664.047 1448.46 661.527 1451.07 Q659.007 1453.67 654.418 1458.35 Z" fill="#000000" fill-rule="nonzero" fill-opacity="1" /><path clip-path="url(#clip210)" d="M1011.17 1485.02 L1018.81 1485.02 L1018.81 1458.66 L1010.5 1460.32 L1010.5 1456.06 L1018.77 1454.4 L1023.44 1454.4 L1023.44 1485.02 L1031.08 1485.02 L1031.08 1488.96 L1011.17 1488.96 L1011.17 1485.02 Z" fill="#000000" fill-rule="nonzero" fill-opacity="1" /><path clip-path="url(#clip210)" d="M1050.52 1457.48 Q1046.91 1457.48 1045.08 1461.04 Q1043.28 1464.58 1043.28 1471.71 Q1043.28 1478.82 1045.08 1482.38 Q1046.91 1485.92 1050.52 1485.92 Q1054.16 1485.92 1055.96 1482.38 Q1057.79 1478.82 1057.79 1471.71 Q1057.79 1464.58 1055.96 1461.04 Q1054.16 1457.48 1050.52 1457.48 M1050.52 1453.77 Q1056.33 1453.77 1059.39 1458.38 Q1062.47 1462.96 1062.47 1471.71 Q1062.47 1480.44 1059.39 1485.04 Q1056.33 1489.63 1050.52 1489.63 Q1044.71 1489.63 1041.64 1485.04 Q1038.58 1480.44 1038.58 1471.71 Q1038.58 1462.96 1041.64 1458.38 Q1044.71 1453.77 1050.52 1453.77 Z" fill="#000000" fill-rule="nonzero" fill-opacity="1" /><path clip-path="url(#clip210)" d="M1075.16 1446.41 Q1077.89 1446.99 1079.41 1448.83 Q1080.96 1450.68 1080.96 1453.38 Q1080.96 1457.54 1078.1 1459.82 Q1075.24 1462.09 1069.97 1462.09 Q1068.21 1462.09 1066.32 1461.73 Q1064.46 1461.4 1062.47 1460.7 L1062.47 1457.03 Q1064.05 1457.95 1065.93 1458.42 Q1067.81 1458.89 1069.86 1458.89 Q1073.43 1458.89 1075.3 1457.48 Q1077.18 1456.07 1077.18 1453.38 Q1077.18 1450.9 1075.43 1449.51 Q1073.7 1448.1 1070.59 1448.1 L1067.32 1448.1 L1067.32 1444.98 L1070.74 1444.98 Q1073.55 1444.98 1075.03 1443.87 Q1076.52 1442.74 1076.52 1440.63 Q1076.52 1438.47 1074.98 1437.32 Q1073.45 1436.16 1070.59 1436.16 Q1069.03 1436.16 1067.25 1436.49 Q1065.46 1436.83 1063.32 1437.55 L1063.32 1434.16 Q1065.48 1433.56 1067.36 1433.26 Q1069.26 1432.96 1070.93 1432.96 Q1075.26 1432.96 1077.78 1434.93 Q1080.3 1436.89 1080.3 1440.24 Q1080.3 1442.57 1078.96 1444.19 Q1077.63 1445.79 1075.16 1446.41 Z" fill="#000000" fill-rule="nonzero" fill-opacity="1" /><path clip-path="url(#clip210)" d="M1423.14 1485.02 L1430.77 1485.02 L1430.77 1458.66 L1422.46 1460.32 L1422.46 1456.06 L1430.73 1454.4 L1435.4 1454.4 L1435.4 1485.02 L1443.04 1485.02 L1443.04 1488.96 L1423.14 1488.96 L1423.14 1485.02 Z" fill="#000000" fill-rule="nonzero" fill-opacity="1" /><path clip-path="url(#clip210)" d="M1462.49 1457.48 Q1458.88 1457.48 1457.05 1461.04 Q1455.24 1464.58 1455.24 1471.71 Q1455.24 1478.82 1457.05 1482.38 Q1458.88 1485.92 1462.49 1485.92 Q1466.12 1485.92 1467.93 1482.38 Q1469.76 1478.82 1469.76 1471.71 Q1469.76 1464.58 1467.93 1461.04 Q1466.12 1457.48 1462.49 1457.48 M1462.49 1453.77 Q1468.3 1453.77 1471.35 1458.38 Q1474.43 1462.96 1474.43 1471.71 Q1474.43 1480.44 1471.35 1485.04 Q1468.3 1489.63 1462.49 1489.63 Q1456.68 1489.63 1453.6 1485.04 Q1450.54 1480.44 1450.54 1471.71 Q1450.54 1462.96 1453.6 1458.38 Q1456.68 1453.77 1462.49 1453.77 Z" fill="#000000" fill-rule="nonzero" fill-opacity="1" /><path clip-path="url(#clip210)" d="M1487.11 1436.78 L1477.52 1451.77 L1487.11 1451.77 L1487.11 1436.78 M1486.11 1433.47 L1490.89 1433.47 L1490.89 1451.77 L1494.89 1451.77 L1494.89 1454.93 L1490.89 1454.93 L1490.89 1461.55 L1487.11 1461.55 L1487.11 1454.93 L1474.43 1454.93 L1474.43 1451.26 L1486.11 1433.47 Z" fill="#000000" fill-rule="nonzero" fill-opacity="1" /><path clip-path="url(#clip210)" d="M1837.23 1485.02 L1844.87 1485.02 L1844.87 1458.66 L1836.56 1460.32 L1836.56 1456.06 L1844.83 1454.4 L1849.5 1454.4 L1849.5 1485.02 L1857.14 1485.02 L1857.14 1488.96 L1837.23 1488.96 L1837.23 1485.02 Z" fill="#000000" fill-rule="nonzero" fill-opacity="1" /><path clip-path="url(#clip210)" d="M1876.58 1457.48 Q1872.97 1457.48 1871.15 1461.04 Q1869.34 1464.58 1869.34 1471.71 Q1869.34 1478.82 1871.15 1482.38 Q1872.97 1485.92 1876.58 1485.92 Q1880.22 1485.92 1882.02 1482.38 Q1883.85 1478.82 1883.85 1471.71 Q1883.85 1464.58 1882.02 1461.04 Q1880.22 1457.48 1876.58 1457.48 M1876.58 1453.77 Q1882.4 1453.77 1885.45 1458.38 Q1888.53 1462.96 1888.53 1471.71 Q1888.53 1480.44 1885.45 1485.04 Q1882.4 1489.63 1876.58 1489.63 Q1870.77 1489.63 1867.7 1485.04 Q1864.64 1480.44 1864.64 1471.71 Q1864.64 1462.96 1867.7 1458.38 Q1870.77 1453.77 1876.58 1453.77 Z" fill="#000000" fill-rule="nonzero" fill-opacity="1" /><path clip-path="url(#clip210)" d="M1889.71 1433.47 L1904.63 1433.47 L1904.63 1436.66 L1893.19 1436.66 L1893.19 1443.55 Q1894.02 1443.27 1894.85 1443.13 Q1895.68 1442.98 1896.5 1442.98 Q1901.21 1442.98 1903.95 1445.56 Q1906.7 1448.14 1906.7 1452.54 Q1906.7 1457.07 1903.88 1459.59 Q1901.06 1462.09 1895.92 1462.09 Q1894.15 1462.09 1892.31 1461.79 Q1890.49 1461.49 1888.53 1460.89 L1888.53 1457.07 Q1890.22 1457.99 1892.03 1458.44 Q1893.83 1458.89 1895.85 1458.89 Q1899.1 1458.89 1901 1457.18 Q1902.9 1455.47 1902.9 1452.54 Q1902.9 1449.6 1901 1447.89 Q1899.1 1446.18 1895.85 1446.18 Q1894.32 1446.18 1892.8 1446.52 Q1891.29 1446.86 1889.71 1447.57 L1889.71 1433.47 Z" fill="#000000" fill-rule="nonzero" fill-opacity="1" /><path clip-path="url(#clip210)" d="M2249.57 1485.02 L2257.21 1485.02 L2257.21 1458.66 L2248.9 1460.32 L2248.9 1456.06 L2257.16 1454.4 L2261.84 1454.4 L2261.84 1485.02 L2269.48 1485.02 L2269.48 1488.96 L2249.57 1488.96 L2249.57 1485.02 Z" fill="#000000" fill-rule="nonzero" fill-opacity="1" /><path clip-path="url(#clip210)" d="M2288.92 1457.48 Q2285.31 1457.48 2283.48 1461.04 Q2281.68 1464.58 2281.68 1471.71 Q2281.68 1478.82 2283.48 1482.38 Q2285.31 1485.92 2288.92 1485.92 Q2292.56 1485.92 2294.36 1482.38 Q2296.19 1478.82 2296.19 1471.71 Q2296.19 1464.58 2294.36 1461.04 Q2292.56 1457.48 2288.92 1457.48 M2288.92 1453.77 Q2294.73 1453.77 2297.79 1458.38 Q2300.87 1462.96 2300.87 1471.71 Q2300.87 1480.44 2297.79 1485.04 Q2294.73 1489.63 2288.92 1489.63 Q2283.11 1489.63 2280.04 1485.04 Q2276.98 1480.44 2276.98 1471.71 Q2276.98 1462.96 2280.04 1458.38 Q2283.11 1453.77 2288.92 1453.77 Z" fill="#000000" fill-rule="nonzero" fill-opacity="1" /><path clip-path="url(#clip210)" d="M2310.89 1445.99 Q2308.34 1445.99 2306.83 1447.74 Q2305.34 1449.49 2305.34 1452.54 Q2305.34 1455.57 2306.83 1457.33 Q2308.34 1459.08 2310.89 1459.08 Q2313.45 1459.08 2314.94 1457.33 Q2316.44 1455.57 2316.44 1452.54 Q2316.44 1449.49 2314.94 1447.74 Q2313.45 1445.99 2310.89 1445.99 M2318.43 1434.09 L2318.43 1437.55 Q2317.01 1436.87 2315.54 1436.51 Q2314.09 1436.16 2312.66 1436.16 Q2308.9 1436.16 2306.91 1438.69 Q2304.93 1441.23 2304.65 1446.37 Q2305.76 1444.73 2307.43 1443.87 Q2309.11 1442.98 2311.12 1442.98 Q2315.35 1442.98 2317.8 1445.56 Q2320.26 1448.12 2320.26 1452.54 Q2320.26 1456.86 2317.7 1459.48 Q2315.14 1462.09 2310.89 1462.09 Q2306.02 1462.09 2303.45 1458.37 Q2300.87 1454.62 2300.87 1447.53 Q2300.87 1440.88 2304.03 1436.93 Q2307.19 1432.96 2312.51 1432.96 Q2313.94 1432.96 2315.39 1433.24 Q2316.86 1433.52 2318.43 1434.09 Z" fill="#000000" fill-rule="nonzero" fill-opacity="1" /><path clip-path="url(#clip210)" d="M1153.27 1526.67 L1161.93 1526.67 L1183 1566.42 L1183 1526.67 L1189.24 1526.67 L1189.24 1574.19 L1180.58 1574.19 L1159.51 1534.43 L1159.51 1574.19 L1153.27 1574.19 L1153.27 1526.67 Z" fill="#000000" fill-rule="nonzero" fill-opacity="1" /><path clip-path="url(#clip210)" d="M1236.57 1524.72 Q1232.3 1532.04 1230.24 1539.21 Q1228.17 1546.37 1228.17 1553.72 Q1228.17 1561.07 1230.24 1568.3 Q1232.34 1575.49 1236.57 1582.78 L1231.48 1582.78 Q1226.7 1575.3 1224.32 1568.07 Q1221.96 1560.85 1221.96 1553.72 Q1221.96 1546.62 1224.32 1539.43 Q1226.67 1532.24 1231.48 1524.72 L1236.57 1524.72 Z" fill="#000000" fill-rule="nonzero" fill-opacity="1" /><path clip-path="url(#clip210)" d="M1247.93 1524.66 L1253.79 1524.66 L1253.79 1574.19 L1247.93 1574.19 L1247.93 1524.66 Z" fill="#000000" fill-rule="nonzero" fill-opacity="1" /><path clip-path="url(#clip210)" d="M1279.86 1542.64 Q1275.15 1542.64 1272.41 1546.34 Q1269.67 1550 1269.67 1556.39 Q1269.67 1562.79 1272.38 1566.48 Q1275.11 1570.14 1279.86 1570.14 Q1284.54 1570.14 1287.27 1566.45 Q1290.01 1562.76 1290.01 1556.39 Q1290.01 1550.06 1287.27 1546.37 Q1284.54 1542.64 1279.86 1542.64 M1279.86 1537.68 Q1287.5 1537.68 1291.86 1542.64 Q1296.22 1547.61 1296.22 1556.39 Q1296.22 1565.15 1291.86 1570.14 Q1287.5 1575.11 1279.86 1575.11 Q1272.19 1575.11 1267.83 1570.14 Q1263.5 1565.15 1263.5 1556.39 Q1263.5 1547.61 1267.83 1542.64 Q1272.19 1537.68 1279.86 1537.68 Z" fill="#000000" fill-rule="nonzero" fill-opacity="1" /><path clip-path="url(#clip210)" d="M1329.38 1555.95 Q1329.38 1549.58 1326.74 1546.08 Q1324.13 1542.58 1319.39 1542.58 Q1314.68 1542.58 1312.04 1546.08 Q1309.43 1549.58 1309.43 1555.95 Q1309.43 1562.28 1312.04 1565.78 Q1314.68 1569.28 1319.39 1569.28 Q1324.13 1569.28 1326.74 1565.78 Q1329.38 1562.28 1329.38 1555.95 M1335.24 1569.76 Q1335.24 1578.86 1331.2 1583.29 Q1327.15 1587.74 1318.81 1587.74 Q1315.73 1587.74 1312.99 1587.27 Q1310.25 1586.82 1307.67 1585.87 L1307.67 1580.17 Q1310.25 1581.57 1312.77 1582.24 Q1315.28 1582.91 1317.89 1582.91 Q1323.65 1582.91 1326.52 1579.88 Q1329.38 1576.89 1329.38 1570.81 L1329.38 1567.92 Q1327.57 1571.07 1324.73 1572.63 Q1321.9 1574.19 1317.96 1574.19 Q1311.4 1574.19 1307.39 1569.19 Q1303.38 1564.19 1303.38 1555.95 Q1303.38 1547.67 1307.39 1542.68 Q1311.4 1537.68 1317.96 1537.68 Q1321.9 1537.68 1324.73 1539.24 Q1327.57 1540.8 1329.38 1543.95 L1329.38 1538.54 L1335.24 1538.54 L1335.24 1569.76 Z" fill="#000000" fill-rule="nonzero" fill-opacity="1" /><path clip-path="url(#clip210)" d="M1349.24 1568.77 L1359.75 1568.77 L1359.75 1532.52 L1348.32 1534.81 L1348.32 1528.96 L1359.68 1526.67 L1366.11 1526.67 L1366.11 1568.77 L1376.62 1568.77 L1376.62 1574.19 L1349.24 1574.19 L1349.24 1568.77 Z" fill="#000000" fill-rule="nonzero" fill-opacity="1" /><path clip-path="url(#clip210)" d="M1403.35 1530.9 Q1398.39 1530.9 1395.87 1535.8 Q1393.39 1540.67 1393.39 1550.47 Q1393.39 1560.24 1395.87 1565.15 Q1398.39 1570.02 1403.35 1570.02 Q1408.35 1570.02 1410.83 1565.15 Q1413.35 1560.24 1413.35 1550.47 Q1413.35 1540.67 1410.83 1535.8 Q1408.35 1530.9 1403.35 1530.9 M1403.35 1525.81 Q1411.34 1525.81 1415.54 1532.14 Q1419.77 1538.44 1419.77 1550.47 Q1419.77 1562.47 1415.54 1568.81 Q1411.34 1575.11 1403.35 1575.11 Q1395.36 1575.11 1391.13 1568.81 Q1386.93 1562.47 1386.93 1550.47 Q1386.93 1538.44 1391.13 1532.14 Q1395.36 1525.81 1403.35 1525.81 Z" fill="#000000" fill-rule="nonzero" fill-opacity="1" /><path clip-path="url(#clip210)" d="M1429.32 1524.72 L1434.42 1524.72 Q1439.19 1532.24 1441.55 1539.43 Q1443.93 1546.62 1443.93 1553.72 Q1443.93 1560.85 1441.55 1568.07 Q1439.19 1575.3 1434.42 1582.78 L1429.32 1582.78 Q1433.56 1575.49 1435.63 1568.3 Q1437.73 1561.07 1437.73 1553.72 Q1437.73 1546.37 1435.63 1539.21 Q1433.56 1532.04 1429.32 1524.72 Z" fill="#000000" fill-rule="nonzero" fill-opacity="1" /><polyline clip-path="url(#clip212)" style="stroke:#000000; stroke-linecap:round; stroke-linejoin:round; stroke-width:2; stroke-opacity:0.1; fill:none" points="244.451,1216.39 2352.76,1216.39 "/>
<polyline clip-path="url(#clip212)" style="stroke:#000000; stroke-linecap:round; stroke-linejoin:round; stroke-width:2; stroke-opacity:0.1; fill:none" points="244.451,984.154 2352.76,984.154 "/>
<polyline clip-path="url(#clip212)" style="stroke:#000000; stroke-linecap:round; stroke-linejoin:round; stroke-width:2; stroke-opacity:0.1; fill:none" points="244.451,751.921 2352.76,751.921 "/>
<polyline clip-path="url(#clip212)" style="stroke:#000000; stroke-linecap:round; stroke-linejoin:round; stroke-width:2; stroke-opacity:0.1; fill:none" points="244.451,519.688 2352.76,519.688 "/>
<polyline clip-path="url(#clip212)" style="stroke:#000000; stroke-linecap:round; stroke-linejoin:round; stroke-width:2; stroke-opacity:0.1; fill:none" points="244.451,287.455 2352.76,287.455 "/>
<polyline clip-path="url(#clip212)" style="stroke:#000000; stroke-linecap:round; stroke-linejoin:round; stroke-width:2; stroke-opacity:0.1; fill:none" points="244.451,55.2225 2352.76,55.2225 "/>
<polyline clip-path="url(#clip210)" style="stroke:#000000; stroke-linecap:round; stroke-linejoin:round; stroke-width:4; stroke-opacity:1; fill:none" points="244.451,1410.9 244.451,47.2441 "/>
<polyline clip-path="url(#clip210)" style="stroke:#000000; stroke-linecap:round; stroke-linejoin:round; stroke-width:4; stroke-opacity:1; fill:none" points="244.451,1216.39 263.349,1216.39 "/>
<polyline clip-path="url(#clip210)" style="stroke:#000000; stroke-linecap:round; stroke-linejoin:round; stroke-width:4; stroke-opacity:1; fill:none" points="244.451,984.154 263.349,984.154 "/>
<polyline clip-path="url(#clip210)" style="stroke:#000000; stroke-linecap:round; stroke-linejoin:round; stroke-width:4; stroke-opacity:1; fill:none" points="244.451,751.921 263.349,751.921 "/>
<polyline clip-path="url(#clip210)" style="stroke:#000000; stroke-linecap:round; stroke-linejoin:round; stroke-width:4; stroke-opacity:1; fill:none" points="244.451,519.688 263.349,519.688 "/>
<polyline clip-path="url(#clip210)" style="stroke:#000000; stroke-linecap:round; stroke-linejoin:round; stroke-width:4; stroke-opacity:1; fill:none" points="244.451,287.455 263.349,287.455 "/>
<polyline clip-path="url(#clip210)" style="stroke:#000000; stroke-linecap:round; stroke-linejoin:round; stroke-width:4; stroke-opacity:1; fill:none" points="244.451,55.2225 263.349,55.2225 "/>
<path clip-path="url(#clip210)" d="M138.987 1236.18 L146.625 1236.18 L146.625 1209.81 L138.315 1211.48 L138.315 1207.22 L146.579 1205.55 L151.255 1205.55 L151.255 1236.18 L158.894 1236.18 L158.894 1240.11 L138.987 1240.11 L138.987 1236.18 Z" fill="#000000" fill-rule="nonzero" fill-opacity="1" /><path clip-path="url(#clip210)" d="M178.338 1208.63 Q174.727 1208.63 172.898 1212.2 Q171.093 1215.74 171.093 1222.87 Q171.093 1229.98 172.898 1233.54 Q174.727 1237.08 178.338 1237.08 Q181.972 1237.08 183.778 1233.54 Q185.607 1229.98 185.607 1222.87 Q185.607 1215.74 183.778 1212.2 Q181.972 1208.63 178.338 1208.63 M178.338 1204.93 Q184.148 1204.93 187.204 1209.54 Q190.283 1214.12 190.283 1222.87 Q190.283 1231.6 187.204 1236.2 Q184.148 1240.79 178.338 1240.79 Q172.528 1240.79 169.449 1236.2 Q166.394 1231.6 166.394 1222.87 Q166.394 1214.12 169.449 1209.54 Q172.528 1204.93 178.338 1204.93 Z" fill="#000000" fill-rule="nonzero" fill-opacity="1" /><path clip-path="url(#clip210)" d="M191.467 1184.62 L206.382 1184.62 L206.382 1187.82 L194.947 1187.82 L194.947 1194.71 Q195.774 1194.42 196.602 1194.29 Q197.43 1194.14 198.257 1194.14 Q202.959 1194.14 205.705 1196.72 Q208.451 1199.29 208.451 1203.7 Q208.451 1208.23 205.63 1210.75 Q202.809 1213.25 197.674 1213.25 Q195.906 1213.25 194.063 1212.95 Q192.239 1212.65 190.283 1212.05 L190.283 1208.23 Q191.975 1209.15 193.781 1209.6 Q195.586 1210.05 197.599 1210.05 Q200.853 1210.05 202.752 1208.34 Q204.652 1206.63 204.652 1203.7 Q204.652 1200.76 202.752 1199.05 Q200.853 1197.34 197.599 1197.34 Q196.075 1197.34 194.552 1197.68 Q193.047 1198.02 191.467 1198.73 L191.467 1184.62 Z" fill="#000000" fill-rule="nonzero" fill-opacity="1" /><path clip-path="url(#clip210)" d="M137.764 1003.95 L145.403 1003.95 L145.403 977.581 L137.093 979.248 L137.093 974.988 L145.357 973.322 L150.033 973.322 L150.033 1003.95 L157.671 1003.95 L157.671 1007.88 L137.764 1007.88 L137.764 1003.95 Z" fill="#000000" fill-rule="nonzero" fill-opacity="1" /><path clip-path="url(#clip210)" d="M177.116 976.4 Q173.505 976.4 171.676 979.965 Q169.87 983.507 169.87 990.637 Q169.87 997.743 171.676 1001.31 Q173.505 1004.85 177.116 1004.85 Q180.75 1004.85 182.556 1001.31 Q184.384 997.743 184.384 990.637 Q184.384 983.507 182.556 979.965 Q180.75 976.4 177.116 976.4 M177.116 972.697 Q182.926 972.697 185.981 977.303 Q189.06 981.887 189.06 990.637 Q189.06 999.363 185.981 1003.97 Q182.926 1008.55 177.116 1008.55 Q171.306 1008.55 168.227 1003.97 Q165.171 999.363 165.171 990.637 Q165.171 981.887 168.227 977.303 Q171.306 972.697 177.116 972.697 Z" fill="#000000" fill-rule="nonzero" fill-opacity="1" /><path clip-path="url(#clip210)" d="M199.085 964.917 Q196.527 964.917 195.022 966.667 Q193.536 968.416 193.536 971.462 Q193.536 974.491 195.022 976.258 Q196.527 978.008 199.085 978.008 Q201.643 978.008 203.128 976.258 Q204.633 974.491 204.633 971.462 Q204.633 968.416 203.128 966.667 Q201.643 964.917 199.085 964.917 M206.627 953.012 L206.627 956.473 Q205.197 955.796 203.73 955.438 Q202.282 955.081 200.853 955.081 Q197.091 955.081 195.097 957.62 Q193.123 960.159 192.84 965.294 Q193.95 963.657 195.624 962.792 Q197.298 961.908 199.31 961.908 Q203.542 961.908 205.987 964.485 Q208.451 967.043 208.451 971.462 Q208.451 975.788 205.893 978.403 Q203.335 981.017 199.085 981.017 Q194.213 981.017 191.637 977.293 Q189.06 973.55 189.06 966.46 Q189.06 959.802 192.22 955.852 Q195.38 951.884 200.702 951.884 Q202.132 951.884 203.58 952.166 Q205.047 952.448 206.627 953.012 Z" fill="#000000" fill-rule="nonzero" fill-opacity="1" /><path clip-path="url(#clip210)" d="M139.099 771.714 L146.738 771.714 L146.738 745.348 L138.428 747.015 L138.428 742.756 L146.692 741.089 L151.368 741.089 L151.368 771.714 L159.007 771.714 L159.007 775.649 L139.099 775.649 L139.099 771.714 Z" fill="#000000" fill-rule="nonzero" fill-opacity="1" /><path clip-path="url(#clip210)" d="M178.451 744.168 Q174.84 744.168 173.011 747.732 Q171.206 751.274 171.206 758.404 Q171.206 765.51 173.011 769.075 Q174.84 772.616 178.451 772.616 Q182.085 772.616 183.891 769.075 Q185.72 765.51 185.72 758.404 Q185.72 751.274 183.891 747.732 Q182.085 744.168 178.451 744.168 M178.451 740.464 Q184.261 740.464 187.317 745.07 Q190.395 749.654 190.395 758.404 Q190.395 767.13 187.317 771.737 Q184.261 776.32 178.451 776.32 Q172.641 776.32 169.562 771.737 Q166.507 767.13 166.507 758.404 Q166.507 749.654 169.562 745.07 Q172.641 740.464 178.451 740.464 Z" fill="#000000" fill-rule="nonzero" fill-opacity="1" /><path clip-path="url(#clip210)" d="M190.395 720.158 L208.451 720.158 L208.451 721.776 L198.257 748.238 L194.289 748.238 L203.881 723.356 L190.395 723.356 L190.395 720.158 Z" fill="#000000" fill-rule="nonzero" fill-opacity="1" /><path clip-path="url(#clip210)" d="M137.896 539.481 L145.535 539.481 L145.535 513.115 L137.224 514.782 L137.224 510.523 L145.488 508.856 L150.164 508.856 L150.164 539.481 L157.803 539.481 L157.803 543.416 L137.896 543.416 L137.896 539.481 Z" fill="#000000" fill-rule="nonzero" fill-opacity="1" /><path clip-path="url(#clip210)" d="M177.247 511.935 Q173.636 511.935 171.808 515.499 Q170.002 519.041 170.002 526.171 Q170.002 533.277 171.808 536.842 Q173.636 540.384 177.247 540.384 Q180.882 540.384 182.687 536.842 Q184.516 533.277 184.516 526.171 Q184.516 519.041 182.687 515.499 Q180.882 511.935 177.247 511.935 M177.247 508.231 Q183.058 508.231 186.113 512.837 Q189.192 517.421 189.192 526.171 Q189.192 534.897 186.113 539.504 Q183.058 544.087 177.247 544.087 Q171.437 544.087 168.359 539.504 Q165.303 534.897 165.303 526.171 Q165.303 517.421 168.359 512.837 Q171.437 508.231 177.247 508.231 Z" fill="#000000" fill-rule="nonzero" fill-opacity="1" /><path clip-path="url(#clip210)" d="M198.821 502.671 Q196.113 502.671 194.552 504.119 Q193.01 505.567 193.01 508.106 Q193.01 510.645 194.552 512.094 Q196.113 513.542 198.821 513.542 Q201.53 513.542 203.091 512.094 Q204.652 510.627 204.652 508.106 Q204.652 505.567 203.091 504.119 Q201.548 502.671 198.821 502.671 M195.022 501.053 Q192.577 500.452 191.204 498.778 Q189.85 497.104 189.85 494.696 Q189.85 491.33 192.239 489.374 Q194.646 487.418 198.821 487.418 Q203.015 487.418 205.404 489.374 Q207.793 491.33 207.793 494.696 Q207.793 497.104 206.42 498.778 Q205.066 500.452 202.639 501.053 Q205.385 501.693 206.909 503.555 Q208.451 505.417 208.451 508.106 Q208.451 512.188 205.949 514.369 Q203.467 516.551 198.821 516.551 Q194.176 516.551 191.674 514.369 Q189.192 512.188 189.192 508.106 Q189.192 505.417 190.734 503.555 Q192.276 501.693 195.022 501.053 M193.63 495.054 Q193.63 497.235 194.985 498.458 Q196.358 499.68 198.821 499.68 Q201.266 499.68 202.639 498.458 Q204.031 497.235 204.031 495.054 Q204.031 492.872 202.639 491.649 Q201.266 490.427 198.821 490.427 Q196.358 490.427 194.985 491.649 Q193.63 492.872 193.63 495.054 Z" fill="#000000" fill-rule="nonzero" fill-opacity="1" /><path clip-path="url(#clip210)" d="M137.783 307.248 L145.422 307.248 L145.422 280.882 L137.112 282.549 L137.112 278.29 L145.375 276.623 L150.051 276.623 L150.051 307.248 L157.69 307.248 L157.69 311.183 L137.783 311.183 L137.783 307.248 Z" fill="#000000" fill-rule="nonzero" fill-opacity="1" /><path clip-path="url(#clip210)" d="M177.135 279.702 Q173.523 279.702 171.695 283.266 Q169.889 286.808 169.889 293.938 Q169.889 301.044 171.695 304.609 Q173.523 308.151 177.135 308.151 Q180.769 308.151 182.574 304.609 Q184.403 301.044 184.403 293.938 Q184.403 286.808 182.574 283.266 Q180.769 279.702 177.135 279.702 M177.135 275.998 Q182.945 275.998 186 280.604 Q189.079 285.188 189.079 293.938 Q189.079 302.665 186 307.271 Q182.945 311.854 177.135 311.854 Q171.324 311.854 168.246 307.271 Q165.19 302.665 165.19 293.938 Q165.19 285.188 168.246 280.604 Q171.324 275.998 177.135 275.998 Z" fill="#000000" fill-rule="nonzero" fill-opacity="1" /><path clip-path="url(#clip210)" d="M190.884 283.19 L190.884 279.729 Q192.314 280.406 193.781 280.763 Q195.248 281.121 196.658 281.121 Q200.42 281.121 202.395 278.6 Q204.388 276.061 204.671 270.908 Q203.58 272.526 201.906 273.391 Q200.232 274.256 198.201 274.256 Q193.988 274.256 191.524 271.717 Q189.079 269.159 189.079 264.739 Q189.079 260.413 191.637 257.799 Q194.195 255.185 198.445 255.185 Q203.316 255.185 205.874 258.928 Q208.451 262.651 208.451 269.761 Q208.451 276.4 205.291 280.368 Q202.15 284.318 196.828 284.318 Q195.398 284.318 193.931 284.036 Q192.464 283.754 190.884 283.19 M198.445 271.284 Q201.003 271.284 202.489 269.535 Q203.993 267.786 203.993 264.739 Q203.993 261.711 202.489 259.962 Q201.003 258.194 198.445 258.194 Q195.887 258.194 194.383 259.962 Q192.897 261.711 192.897 264.739 Q192.897 267.786 194.383 269.535 Q195.887 271.284 198.445 271.284 Z" fill="#000000" fill-rule="nonzero" fill-opacity="1" /><path clip-path="url(#clip210)" d="M114.931 75.0149 L122.57 75.0149 L122.57 48.6493 L114.26 50.316 L114.26 46.0567 L122.524 44.3901 L127.2 44.3901 L127.2 75.0149 L134.839 75.0149 L134.839 78.9501 L114.931 78.9501 L114.931 75.0149 Z" fill="#000000" fill-rule="nonzero" fill-opacity="1" /><path clip-path="url(#clip210)" d="M154.283 47.4688 Q150.672 47.4688 148.843 51.0336 Q147.038 54.5752 147.038 61.7048 Q147.038 68.8112 148.843 72.376 Q150.672 75.9177 154.283 75.9177 Q157.917 75.9177 159.723 72.376 Q161.552 68.8112 161.552 61.7048 Q161.552 54.5752 159.723 51.0336 Q157.917 47.4688 154.283 47.4688 M154.283 43.7651 Q160.093 43.7651 163.149 48.3715 Q166.227 52.9549 166.227 61.7048 Q166.227 70.4316 163.149 75.0381 Q160.093 79.6214 154.283 79.6214 Q148.473 79.6214 145.394 75.0381 Q142.339 70.4316 142.339 61.7048 Q142.339 52.9549 145.394 48.3715 Q148.473 43.7651 154.283 43.7651 Z" fill="#000000" fill-rule="nonzero" fill-opacity="1" /><path clip-path="url(#clip210)" d="M166.773 48.3424 L172.979 48.3424 L172.979 26.9203 L166.227 28.2745 L166.227 24.8138 L172.942 23.4597 L176.741 23.4597 L176.741 48.3424 L182.948 48.3424 L182.948 51.5397 L166.773 51.5397 L166.773 48.3424 Z" fill="#000000" fill-rule="nonzero" fill-opacity="1" /><path clip-path="url(#clip210)" d="M198.746 25.9611 Q195.812 25.9611 194.326 28.8575 Q192.859 31.7351 192.859 37.5279 Q192.859 43.3019 194.326 46.1983 Q195.812 49.0759 198.746 49.0759 Q201.699 49.0759 203.166 46.1983 Q204.652 43.3019 204.652 37.5279 Q204.652 31.7351 203.166 28.8575 Q201.699 25.9611 198.746 25.9611 M198.746 22.9519 Q203.467 22.9519 205.949 26.6946 Q208.451 30.4186 208.451 37.5279 Q208.451 44.6184 205.949 48.3612 Q203.467 52.0851 198.746 52.0851 Q194.025 52.0851 191.524 48.3612 Q189.041 44.6184 189.041 37.5279 Q189.041 30.4186 191.524 26.6946 Q194.025 22.9519 198.746 22.9519 Z" fill="#000000" fill-rule="nonzero" fill-opacity="1" /><path clip-path="url(#clip210)" d="M35.1993 1084.04 Q31.2526 1081.84 29.3747 1078.79 Q27.4968 1075.73 27.4968 1071.59 Q27.4968 1066.02 31.4117 1063 Q35.2948 1059.98 42.4881 1059.98 L64.0042 1059.98 L64.0042 1065.86 L42.679 1065.86 Q37.5546 1065.86 35.072 1067.68 Q32.5894 1069.49 32.5894 1073.22 Q32.5894 1077.77 35.6131 1080.41 Q38.6368 1083.05 43.8567 1083.05 L64.0042 1083.05 L64.0042 1088.94 L42.679 1088.94 Q37.5228 1088.94 35.072 1090.75 Q32.5894 1092.57 32.5894 1096.36 Q32.5894 1100.84 35.6449 1103.49 Q38.6686 1106.13 43.8567 1106.13 L64.0042 1106.13 L64.0042 1112.02 L28.3562 1112.02 L28.3562 1106.13 L33.8944 1106.13 Q30.616 1104.12 29.0564 1101.32 Q27.4968 1098.52 27.4968 1094.67 Q27.4968 1090.79 29.4702 1088.08 Q31.4436 1085.34 35.1993 1084.04 Z" fill="#000000" fill-rule="nonzero" fill-opacity="1" /><path clip-path="url(#clip210)" d="M44.7161 1017.8 L47.5806 1017.8 L47.5806 1044.73 Q53.6281 1044.35 56.8109 1041.1 Q59.9619 1037.82 59.9619 1032 Q59.9619 1028.62 59.1344 1025.47 Q58.3069 1022.29 56.6518 1019.17 L62.1899 1019.17 Q63.5267 1022.32 64.227 1025.63 Q64.9272 1028.94 64.9272 1032.35 Q64.9272 1040.88 59.9619 1045.88 Q54.9967 1050.84 46.5303 1050.84 Q37.7774 1050.84 32.6531 1046.13 Q27.4968 1041.39 27.4968 1033.37 Q27.4968 1026.17 32.1438 1022 Q36.7589 1017.8 44.7161 1017.8 M42.9973 1023.66 Q38.1912 1023.72 35.3266 1026.36 Q32.4621 1028.97 32.4621 1033.3 Q32.4621 1038.2 35.2312 1041.17 Q38.0002 1044.09 43.0292 1044.54 L42.9973 1023.66 Z" fill="#000000" fill-rule="nonzero" fill-opacity="1" /><path clip-path="url(#clip210)" d="M35.1993 980.436 Q31.2526 978.24 29.3747 975.185 Q27.4968 972.129 27.4968 967.991 Q27.4968 962.421 31.4117 959.398 Q35.2948 956.374 42.4881 956.374 L64.0042 956.374 L64.0042 962.262 L42.679 962.262 Q37.5546 962.262 35.072 964.076 Q32.5894 965.891 32.5894 969.615 Q32.5894 974.166 35.6131 976.808 Q38.6368 979.45 43.8567 979.45 L64.0042 979.45 L64.0042 985.338 L42.679 985.338 Q37.5228 985.338 35.072 987.152 Q32.5894 988.966 32.5894 992.754 Q32.5894 997.242 35.6449 999.883 Q38.6686 1002.53 43.8567 1002.53 L64.0042 1002.53 L64.0042 1008.41 L28.3562 1008.41 L28.3562 1002.53 L33.8944 1002.53 Q30.616 1000.52 29.0564 997.719 Q27.4968 994.918 27.4968 991.067 Q27.4968 987.184 29.4702 984.478 Q31.4436 981.741 35.1993 980.436 Z" fill="#000000" fill-rule="nonzero" fill-opacity="1" /><path clip-path="url(#clip210)" d="M32.4621 930.879 Q32.4621 935.59 36.1542 938.327 Q39.8145 941.064 46.212 941.064 Q52.6095 941.064 56.3017 938.359 Q59.9619 935.622 59.9619 930.879 Q59.9619 926.2 56.2698 923.463 Q52.5777 920.726 46.212 920.726 Q39.8781 920.726 36.186 923.463 Q32.4621 926.2 32.4621 930.879 M27.4968 930.879 Q27.4968 923.24 32.4621 918.88 Q37.4273 914.519 46.212 914.519 Q54.9649 914.519 59.9619 918.88 Q64.9272 923.24 64.9272 930.879 Q64.9272 938.55 59.9619 942.91 Q54.9649 947.239 46.212 947.239 Q37.4273 947.239 32.4621 942.91 Q27.4968 938.55 27.4968 930.879 Z" fill="#000000" fill-rule="nonzero" fill-opacity="1" /><path clip-path="url(#clip210)" d="M33.8307 884.155 Q33.2578 885.142 33.0032 886.319 Q32.7167 887.465 32.7167 888.866 Q32.7167 893.831 35.9632 896.504 Q39.1779 899.146 45.2253 899.146 L64.0042 899.146 L64.0042 905.034 L28.3562 905.034 L28.3562 899.146 L33.8944 899.146 Q30.6479 897.3 29.0883 894.34 Q27.4968 891.38 27.4968 887.147 Q27.4968 886.542 27.5923 885.81 Q27.656 885.078 27.8151 884.187 L33.8307 884.155 Z" fill="#000000" fill-rule="nonzero" fill-opacity="1" /><path clip-path="url(#clip210)" d="M67.3143 863.18 Q73.68 865.663 75.6216 868.018 Q77.5631 870.373 77.5631 874.32 L77.5631 878.999 L72.6615 878.999 L72.6615 875.561 Q72.6615 873.142 71.5157 871.805 Q70.3699 870.469 66.1048 868.845 L63.4312 867.795 L28.3562 882.213 L28.3562 876.007 L56.238 864.867 L28.3562 853.727 L28.3562 847.52 L67.3143 863.18 Z" fill="#000000" fill-rule="nonzero" fill-opacity="1" /><path clip-path="url(#clip210)" d="M14.5426 804.647 Q21.8632 808.912 29.0246 810.981 Q36.186 813.05 43.5384 813.05 Q50.8908 813.05 58.1159 810.981 Q65.3091 808.88 72.5979 804.647 L72.5979 809.74 Q65.1182 814.514 57.8931 816.901 Q50.668 819.257 43.5384 819.257 Q36.4406 819.257 29.2474 816.901 Q22.0542 814.546 14.5426 809.74 L14.5426 804.647 Z" fill="#000000" fill-rule="nonzero" fill-opacity="1" /><path clip-path="url(#clip210)" d="M46.212 767.694 Q39.7508 767.694 36.0905 770.368 Q32.3984 773.01 32.3984 777.657 Q32.3984 782.304 36.0905 784.977 Q39.7508 787.619 46.212 787.619 Q52.6732 787.619 56.3653 784.977 Q60.0256 782.304 60.0256 777.657 Q60.0256 773.01 56.3653 770.368 Q52.6732 767.694 46.212 767.694 M33.7671 787.619 Q30.5842 785.773 29.0564 782.972 Q27.4968 780.139 27.4968 776.224 Q27.4968 769.731 32.6531 765.689 Q37.8093 761.615 46.212 761.615 Q54.6147 761.615 59.771 765.689 Q64.9272 769.731 64.9272 776.224 Q64.9272 780.139 63.3994 782.972 Q61.8398 785.773 58.657 787.619 L64.0042 787.619 L64.0042 793.507 L14.479 793.507 L14.479 787.619 L33.7671 787.619 Z" fill="#000000" fill-rule="nonzero" fill-opacity="1" /><path clip-path="url(#clip210)" d="M67.3143 737.075 Q73.68 739.558 75.6216 741.913 Q77.5631 744.268 77.5631 748.215 L77.5631 752.894 L72.6615 752.894 L72.6615 749.457 Q72.6615 747.038 71.5157 745.701 Q70.3699 744.364 66.1048 742.741 L63.4312 741.69 L28.3562 756.109 L28.3562 749.902 L56.238 738.762 L28.3562 727.622 L28.3562 721.416 L67.3143 737.075 Z" fill="#000000" fill-rule="nonzero" fill-opacity="1" /><path clip-path="url(#clip210)" d="M18.2347 707.538 L28.3562 707.538 L28.3562 695.475 L32.9077 695.475 L32.9077 707.538 L52.2594 707.538 Q56.6199 707.538 57.8613 706.361 Q59.1026 705.151 59.1026 701.491 L59.1026 695.475 L64.0042 695.475 L64.0042 701.491 Q64.0042 708.27 61.4897 710.849 Q58.9434 713.427 52.2594 713.427 L32.9077 713.427 L32.9077 717.723 L28.3562 717.723 L28.3562 713.427 L18.2347 713.427 L18.2347 707.538 Z" fill="#000000" fill-rule="nonzero" fill-opacity="1" /><path clip-path="url(#clip210)" d="M44.7161 657.281 L47.5806 657.281 L47.5806 684.208 Q53.6281 683.826 56.8109 680.58 Q59.9619 677.301 59.9619 671.477 Q59.9619 668.103 59.1344 664.952 Q58.3069 661.769 56.6518 658.65 L62.1899 658.65 Q63.5267 661.801 64.227 665.111 Q64.9272 668.421 64.9272 671.827 Q64.9272 680.357 59.9619 685.354 Q54.9967 690.319 46.5303 690.319 Q37.7774 690.319 32.6531 685.609 Q27.4968 680.866 27.4968 672.845 Q27.4968 665.652 32.1438 661.482 Q36.7589 657.281 44.7161 657.281 M42.9973 663.138 Q38.1912 663.201 35.3266 665.843 Q32.4621 668.453 32.4621 672.782 Q32.4621 677.683 35.2312 680.643 Q38.0002 683.571 43.0292 684.017 L42.9973 663.138 Z" fill="#000000" fill-rule="nonzero" fill-opacity="1" /><path clip-path="url(#clip210)" d="M29.4065 624.943 L34.9447 624.943 Q33.6716 627.426 33.035 630.1 Q32.3984 632.773 32.3984 635.638 Q32.3984 639.998 33.7352 642.194 Q35.072 644.359 37.7456 644.359 Q39.7826 644.359 40.9603 642.799 Q42.1061 641.24 43.1565 636.529 L43.6021 634.524 Q44.9389 628.285 47.3897 625.675 Q49.8086 623.034 54.1691 623.034 Q59.1344 623.034 62.0308 626.98 Q64.9272 630.895 64.9272 637.77 Q64.9272 640.635 64.3543 643.754 Q63.8132 646.841 62.6992 650.279 L56.6518 650.279 Q58.3387 647.032 59.198 643.881 Q60.0256 640.73 60.0256 637.643 Q60.0256 633.505 58.6251 631.277 Q57.1929 629.049 54.6147 629.049 Q52.2276 629.049 50.9545 630.672 Q49.6813 632.264 48.5037 637.707 L48.0262 639.744 Q46.8804 645.186 44.5251 647.605 Q42.138 650.024 38.0002 650.024 Q32.9713 650.024 30.2341 646.459 Q27.4968 642.895 27.4968 636.338 Q27.4968 633.091 27.9743 630.227 Q28.4517 627.362 29.4065 624.943 Z" fill="#000000" fill-rule="nonzero" fill-opacity="1" /><path clip-path="url(#clip210)" d="M14.5426 614.631 L14.5426 609.538 Q22.0542 604.764 29.2474 602.409 Q36.4406 600.022 43.5384 600.022 Q50.668 600.022 57.8931 602.409 Q65.1182 604.764 72.5979 609.538 L72.5979 614.631 Q65.3091 610.398 58.1159 608.329 Q50.8908 606.228 43.5384 606.228 Q36.186 606.228 29.0246 608.329 Q21.8632 610.398 14.5426 614.631 Z" fill="#000000" fill-rule="nonzero" fill-opacity="1" /><path clip-path="url(#clip210)" d="M14.5426 553.488 Q21.8632 557.753 29.0246 559.822 Q36.186 561.891 43.5384 561.891 Q50.8908 561.891 58.1159 559.822 Q65.3091 557.721 72.5979 553.488 L72.5979 558.581 Q65.1182 563.355 57.8931 565.742 Q50.668 568.098 43.5384 568.098 Q36.4406 568.098 29.2474 565.742 Q22.0542 563.387 14.5426 558.581 L14.5426 553.488 Z" fill="#000000" fill-rule="nonzero" fill-opacity="1" /><path clip-path="url(#clip210)" d="M14.479 542.125 L14.479 536.269 L64.0042 536.269 L64.0042 542.125 L14.479 542.125 Z" fill="#000000" fill-rule="nonzero" fill-opacity="1" /><path clip-path="url(#clip210)" d="M32.4621 510.201 Q32.4621 514.912 36.1542 517.649 Q39.8145 520.387 46.212 520.387 Q52.6095 520.387 56.3017 517.681 Q59.9619 514.944 59.9619 510.201 Q59.9619 505.523 56.2698 502.785 Q52.5777 500.048 46.212 500.048 Q39.8781 500.048 36.186 502.785 Q32.4621 505.523 32.4621 510.201 M27.4968 510.201 Q27.4968 502.563 32.4621 498.202 Q37.4273 493.842 46.212 493.842 Q54.9649 493.842 59.9619 498.202 Q64.9272 502.563 64.9272 510.201 Q64.9272 517.872 59.9619 522.233 Q54.9649 526.561 46.212 526.561 Q37.4273 526.561 32.4621 522.233 Q27.4968 517.872 27.4968 510.201 Z" fill="#000000" fill-rule="nonzero" fill-opacity="1" /><path clip-path="url(#clip210)" d="M45.7664 460.676 Q39.4007 460.676 35.8996 463.318 Q32.3984 465.928 32.3984 470.67 Q32.3984 475.381 35.8996 478.023 Q39.4007 480.633 45.7664 480.633 Q52.1003 480.633 55.6014 478.023 Q59.1026 475.381 59.1026 470.67 Q59.1026 465.928 55.6014 463.318 Q52.1003 460.676 45.7664 460.676 M59.58 454.82 Q68.683 454.82 73.1071 458.862 Q77.5631 462.904 77.5631 471.243 Q77.5631 474.331 77.0857 477.068 Q76.6401 479.805 75.6852 482.383 L69.9879 482.383 Q71.3884 479.805 72.0568 477.291 Q72.7252 474.776 72.7252 472.166 Q72.7252 466.405 69.7015 463.541 Q66.7096 460.676 60.6303 460.676 L57.7339 460.676 Q60.885 462.49 62.4446 465.323 Q64.0042 468.156 64.0042 472.103 Q64.0042 478.659 59.0071 482.67 Q54.01 486.68 45.7664 486.68 Q37.491 486.68 32.4939 482.67 Q27.4968 478.659 27.4968 472.103 Q27.4968 468.156 29.0564 465.323 Q30.616 462.49 33.7671 460.676 L28.3562 460.676 L28.3562 454.82 L59.58 454.82 Z" fill="#000000" fill-rule="nonzero" fill-opacity="1" /><path clip-path="url(#clip210)" d="M58.5933 440.815 L58.5933 430.312 L22.3406 430.312 L24.6323 441.738 L18.7758 441.738 L16.4842 430.375 L16.4842 423.946 L58.5933 423.946 L58.5933 413.443 L64.0042 413.443 L64.0042 440.815 L58.5933 440.815 Z" fill="#000000" fill-rule="nonzero" fill-opacity="1" /><path clip-path="url(#clip210)" d="M20.7174 386.707 Q20.7174 391.672 25.6189 394.186 Q30.4887 396.669 40.2919 396.669 Q50.0633 396.669 54.9649 394.186 Q59.8346 391.672 59.8346 386.707 Q59.8346 381.71 54.9649 379.227 Q50.0633 376.713 40.2919 376.713 Q30.4887 376.713 25.6189 379.227 Q20.7174 381.71 20.7174 386.707 M15.6248 386.707 Q15.6248 378.718 21.9587 374.516 Q28.2607 370.283 40.2919 370.283 Q52.2913 370.283 58.6251 374.516 Q64.9272 378.718 64.9272 386.707 Q64.9272 394.696 58.6251 398.929 Q52.2913 403.13 40.2919 403.13 Q28.2607 403.13 21.9587 398.929 Q15.6248 394.696 15.6248 386.707 Z" fill="#000000" fill-rule="nonzero" fill-opacity="1" /><path clip-path="url(#clip210)" d="M14.5426 360.735 L14.5426 355.642 Q22.0542 350.868 29.2474 348.513 Q36.4406 346.125 43.5384 346.125 Q50.668 346.125 57.8931 348.513 Q65.1182 350.868 72.5979 355.642 L72.5979 360.735 Q65.3091 356.501 58.1159 354.433 Q50.8908 352.332 43.5384 352.332 Q36.186 352.332 29.0246 354.433 Q21.8632 356.501 14.5426 360.735 Z" fill="#000000" fill-rule="nonzero" fill-opacity="1" /><polyline clip-path="url(#clip212)" style="stroke:#009af9; stroke-linecap:round; stroke-linejoin:round; stroke-width:4; stroke-opacity:1; fill:none" points="304.12,1301.79 552.741,1179.24 801.362,1034.92 1049.98,886.699 1298.6,757.047 1547.22,612.69 1795.85,470.897 2044.47,330.31 2293.09,190.208 "/>
<circle clip-path="url(#clip212)" cx="304.12" cy="1301.79" r="14.4" fill="#009af9" fill-rule="evenodd" fill-opacity="1" stroke="#000000" stroke-opacity="1" stroke-width="3.2"/>
<circle clip-path="url(#clip212)" cx="552.741" cy="1179.24" r="14.4" fill="#009af9" fill-rule="evenodd" fill-opacity="1" stroke="#000000" stroke-opacity="1" stroke-width="3.2"/>
<circle clip-path="url(#clip212)" cx="801.362" cy="1034.92" r="14.4" fill="#009af9" fill-rule="evenodd" fill-opacity="1" stroke="#000000" stroke-opacity="1" stroke-width="3.2"/>
<circle clip-path="url(#clip212)" cx="1049.98" cy="886.699" r="14.4" fill="#009af9" fill-rule="evenodd" fill-opacity="1" stroke="#000000" stroke-opacity="1" stroke-width="3.2"/>
<circle clip-path="url(#clip212)" cx="1298.6" cy="757.047" r="14.4" fill="#009af9" fill-rule="evenodd" fill-opacity="1" stroke="#000000" stroke-opacity="1" stroke-width="3.2"/>
<circle clip-path="url(#clip212)" cx="1547.22" cy="612.69" r="14.4" fill="#009af9" fill-rule="evenodd" fill-opacity="1" stroke="#000000" stroke-opacity="1" stroke-width="3.2"/>
<circle clip-path="url(#clip212)" cx="1795.85" cy="470.897" r="14.4" fill="#009af9" fill-rule="evenodd" fill-opacity="1" stroke="#000000" stroke-opacity="1" stroke-width="3.2"/>
<circle clip-path="url(#clip212)" cx="2044.47" cy="330.31" r="14.4" fill="#009af9" fill-rule="evenodd" fill-opacity="1" stroke="#000000" stroke-opacity="1" stroke-width="3.2"/>
<circle clip-path="url(#clip212)" cx="2293.09" cy="190.208" r="14.4" fill="#009af9" fill-rule="evenodd" fill-opacity="1" stroke="#000000" stroke-opacity="1" stroke-width="3.2"/>
<polyline clip-path="url(#clip212)" style="stroke:#e26f46; stroke-linecap:round; stroke-linejoin:round; stroke-width:4; stroke-opacity:1; fill:none" points="304.12,1372.3 552.741,1278.83 801.362,1129.22 1049.98,969.619 1298.6,854.745 1547.22,703.412 1795.85,558.813 2044.47,417.168 2293.09,276.681 "/>
<path clip-path="url(#clip212)" d="M288.12 1356.3 L288.12 1388.3 L320.12 1388.3 L320.12 1356.3 L288.12 1356.3 Z" fill="#e26f46" fill-rule="evenodd" fill-opacity="1" stroke="#000000" stroke-opacity="1" stroke-width="3.2"/>
<path clip-path="url(#clip212)" d="M536.741 1262.83 L536.741 1294.83 L568.741 1294.83 L568.741 1262.83 L536.741 1262.83 Z" fill="#e26f46" fill-rule="evenodd" fill-opacity="1" stroke="#000000" stroke-opacity="1" stroke-width="3.2"/>
<path clip-path="url(#clip212)" d="M785.362 1113.22 L785.362 1145.22 L817.362 1145.22 L817.362 1113.22 L785.362 1113.22 Z" fill="#e26f46" fill-rule="evenodd" fill-opacity="1" stroke="#000000" stroke-opacity="1" stroke-width="3.2"/>
<path clip-path="url(#clip212)" d="M1033.98 953.619 L1033.98 985.619 L1065.98 985.619 L1065.98 953.619 L1033.98 953.619 Z" fill="#e26f46" fill-rule="evenodd" fill-opacity="1" stroke="#000000" stroke-opacity="1" stroke-width="3.2"/>
<path clip-path="url(#clip212)" d="M1282.6 838.745 L1282.6 870.745 L1314.6 870.745 L1314.6 838.745 L1282.6 838.745 Z" fill="#e26f46" fill-rule="evenodd" fill-opacity="1" stroke="#000000" stroke-opacity="1" stroke-width="3.2"/>
<path clip-path="url(#clip212)" d="M1531.22 687.412 L1531.22 719.412 L1563.22 719.412 L1563.22 687.412 L1531.22 687.412 Z" fill="#e26f46" fill-rule="evenodd" fill-opacity="1" stroke="#000000" stroke-opacity="1" stroke-width="3.2"/>
<path clip-path="url(#clip212)" d="M1779.85 542.813 L1779.85 574.813 L1811.85 574.813 L1811.85 542.813 L1779.85 542.813 Z" fill="#e26f46" fill-rule="evenodd" fill-opacity="1" stroke="#000000" stroke-opacity="1" stroke-width="3.2"/>
<path clip-path="url(#clip212)" d="M2028.47 401.168 L2028.47 433.168 L2060.47 433.168 L2060.47 401.168 L2028.47 401.168 Z" fill="#e26f46" fill-rule="evenodd" fill-opacity="1" stroke="#000000" stroke-opacity="1" stroke-width="3.2"/>
<path clip-path="url(#clip212)" d="M2277.09 260.681 L2277.09 292.681 L2309.09 292.681 L2309.09 260.681 L2277.09 260.681 Z" fill="#e26f46" fill-rule="evenodd" fill-opacity="1" stroke="#000000" stroke-opacity="1" stroke-width="3.2"/>
<polyline clip-path="url(#clip212)" style="stroke:#3da44d; stroke-linecap:round; stroke-linejoin:round; stroke-width:4; stroke-opacity:1; fill:none" points="304.12,1293.66 552.741,1169.69 801.362,1025.78 1049.98,877.681 1298.6,746.648 1547.22,602.614 1795.85,460.98 2044.47,320.458 2293.09,180.381 "/>
<path clip-path="url(#clip212)" d="M304.12 1277.66 L288.12 1293.66 L304.12 1309.66 L320.12 1293.66 L304.12 1277.66 Z" fill="#3da44d" fill-rule="evenodd" fill-opacity="1" stroke="#000000" stroke-opacity="1" stroke-width="3.2"/>
<path clip-path="url(#clip212)" d="M552.741 1153.69 L536.741 1169.69 L552.741 1185.69 L568.741 1169.69 L552.741 1153.69 Z" fill="#3da44d" fill-rule="evenodd" fill-opacity="1" stroke="#000000" stroke-opacity="1" stroke-width="3.2"/>
<path clip-path="url(#clip212)" d="M801.362 1009.78 L785.362 1025.78 L801.362 1041.78 L817.362 1025.78 L801.362 1009.78 Z" fill="#3da44d" fill-rule="evenodd" fill-opacity="1" stroke="#000000" stroke-opacity="1" stroke-width="3.2"/>
<path clip-path="url(#clip212)" d="M1049.98 861.681 L1033.98 877.681 L1049.98 893.681 L1065.98 877.681 L1049.98 861.681 Z" fill="#3da44d" fill-rule="evenodd" fill-opacity="1" stroke="#000000" stroke-opacity="1" stroke-width="3.2"/>
<path clip-path="url(#clip212)" d="M1298.6 730.648 L1282.6 746.648 L1298.6 762.648 L1314.6 746.648 L1298.6 730.648 Z" fill="#3da44d" fill-rule="evenodd" fill-opacity="1" stroke="#000000" stroke-opacity="1" stroke-width="3.2"/>
<path clip-path="url(#clip212)" d="M1547.22 586.614 L1531.22 602.614 L1547.22 618.614 L1563.22 602.614 L1547.22 586.614 Z" fill="#3da44d" fill-rule="evenodd" fill-opacity="1" stroke="#000000" stroke-opacity="1" stroke-width="3.2"/>
<path clip-path="url(#clip212)" d="M1795.85 444.98 L1779.85 460.98 L1795.85 476.98 L1811.85 460.98 L1795.85 444.98 Z" fill="#3da44d" fill-rule="evenodd" fill-opacity="1" stroke="#000000" stroke-opacity="1" stroke-width="3.2"/>
<path clip-path="url(#clip212)" d="M2044.47 304.458 L2028.47 320.458 L2044.47 336.458 L2060.47 320.458 L2044.47 304.458 Z" fill="#3da44d" fill-rule="evenodd" fill-opacity="1" stroke="#000000" stroke-opacity="1" stroke-width="3.2"/>
<path clip-path="url(#clip212)" d="M2293.09 164.381 L2277.09 180.381 L2293.09 196.381 L2309.09 180.381 L2293.09 164.381 Z" fill="#3da44d" fill-rule="evenodd" fill-opacity="1" stroke="#000000" stroke-opacity="1" stroke-width="3.2"/>
<polyline clip-path="url(#clip212)" style="stroke:#c271d2; stroke-linecap:round; stroke-linejoin:round; stroke-width:4; stroke-opacity:1; fill:none" points="304.12,1265.25 552.741,1139.68 801.362,997.431 1049.98,843.342 1298.6,703.726 1547.22,559.734 1795.85,418.382 2044.47,278.017 2293.09,138.007 "/>
<path clip-path="url(#clip212)" d="M304.12 1249.25 L288.12 1281.25 L320.12 1281.25 L304.12 1249.25 Z" fill="#c271d2" fill-rule="evenodd" fill-opacity="1" stroke="#000000" stroke-opacity="1" stroke-width="3.2"/>
<path clip-path="url(#clip212)" d="M552.741 1123.68 L536.741 1155.68 L568.741 1155.68 L552.741 1123.68 Z" fill="#c271d2" fill-rule="evenodd" fill-opacity="1" stroke="#000000" stroke-opacity="1" stroke-width="3.2"/>
<path clip-path="url(#clip212)" d="M801.362 981.431 L785.362 1013.43 L817.362 1013.43 L801.362 981.431 Z" fill="#c271d2" fill-rule="evenodd" fill-opacity="1" stroke="#000000" stroke-opacity="1" stroke-width="3.2"/>
<path clip-path="url(#clip212)" d="M1049.98 827.342 L1033.98 859.342 L1065.98 859.342 L1049.98 827.342 Z" fill="#c271d2" fill-rule="evenodd" fill-opacity="1" stroke="#000000" stroke-opacity="1" stroke-width="3.2"/>
<path clip-path="url(#clip212)" d="M1298.6 687.726 L1282.6 719.726 L1314.6 719.726 L1298.6 687.726 Z" fill="#c271d2" fill-rule="evenodd" fill-opacity="1" stroke="#000000" stroke-opacity="1" stroke-width="3.2"/>
<path clip-path="url(#clip212)" d="M1547.22 543.734 L1531.22 575.734 L1563.22 575.734 L1547.22 543.734 Z" fill="#c271d2" fill-rule="evenodd" fill-opacity="1" stroke="#000000" stroke-opacity="1" stroke-width="3.2"/>
<path clip-path="url(#clip212)" d="M1795.85 402.382 L1779.85 434.382 L1811.85 434.382 L1795.85 402.382 Z" fill="#c271d2" fill-rule="evenodd" fill-opacity="1" stroke="#000000" stroke-opacity="1" stroke-width="3.2"/>
<path clip-path="url(#clip212)" d="M2044.47 262.017 L2028.47 294.017 L2060.47 294.017 L2044.47 262.017 Z" fill="#c271d2" fill-rule="evenodd" fill-opacity="1" stroke="#000000" stroke-opacity="1" stroke-width="3.2"/>
<path clip-path="url(#clip212)" d="M2293.09 122.007 L2277.09 154.007 L2309.09 154.007 L2293.09 122.007 Z" fill="#c271d2" fill-rule="evenodd" fill-opacity="1" stroke="#000000" stroke-opacity="1" stroke-width="3.2"/>
<polyline clip-path="url(#clip212)" style="stroke:#ac8d18; stroke-linecap:round; stroke-linejoin:round; stroke-width:4; stroke-opacity:1; fill:none" points="304.12,1203.95 552.741,1064.5 801.362,924.718 1049.98,784.943 1298.6,645.121 1547.22,505.298 1795.85,365.477 2044.47,225.657 2293.09,85.838 "/>
<path clip-path="url(#clip212)" d="M304.12 1187.95 L300.36 1198.77 L288.904 1199.01 L298.04 1205.94 L294.712 1216.9 L304.12 1210.35 L313.528 1216.9 L310.2 1205.94 L319.336 1199.01 L307.88 1198.77 L304.12 1187.95 Z" fill="#ac8d18" fill-rule="evenodd" fill-opacity="1" stroke="#000000" stroke-opacity="1" stroke-width="3.2"/>
<path clip-path="url(#clip212)" d="M552.741 1048.5 L548.981 1059.31 L537.525 1059.55 L546.661 1066.48 L543.333 1077.44 L552.741 1070.9 L562.149 1077.44 L558.821 1066.48 L567.957 1059.55 L556.501 1059.31 L552.741 1048.5 Z" fill="#ac8d18" fill-rule="evenodd" fill-opacity="1" stroke="#000000" stroke-opacity="1" stroke-width="3.2"/>
<path clip-path="url(#clip212)" d="M801.362 908.718 L797.602 919.534 L786.146 919.774 L795.282 926.702 L791.954 937.662 L801.362 931.118 L810.77 937.662 L807.442 926.702 L816.578 919.774 L805.122 919.534 L801.362 908.718 Z" fill="#ac8d18" fill-rule="evenodd" fill-opacity="1" stroke="#000000" stroke-opacity="1" stroke-width="3.2"/>
<path clip-path="url(#clip212)" d="M1049.98 768.943 L1046.22 779.759 L1034.77 779.999 L1043.9 786.927 L1040.57 797.887 L1049.98 791.343 L1059.39 797.887 L1056.06 786.927 L1065.2 779.999 L1053.74 779.759 L1049.98 768.943 Z" fill="#ac8d18" fill-rule="evenodd" fill-opacity="1" stroke="#000000" stroke-opacity="1" stroke-width="3.2"/>
<path clip-path="url(#clip212)" d="M1298.6 629.121 L1294.84 639.937 L1283.39 640.177 L1292.52 647.105 L1289.2 658.065 L1298.6 651.521 L1308.01 658.065 L1304.68 647.105 L1313.82 640.177 L1302.36 639.937 L1298.6 629.121 Z" fill="#ac8d18" fill-rule="evenodd" fill-opacity="1" stroke="#000000" stroke-opacity="1" stroke-width="3.2"/>
<path clip-path="url(#clip212)" d="M1547.22 489.298 L1543.46 500.114 L1532.01 500.354 L1541.14 507.282 L1537.82 518.242 L1547.22 511.698 L1556.63 518.242 L1553.3 507.282 L1562.44 500.354 L1550.98 500.114 L1547.22 489.298 Z" fill="#ac8d18" fill-rule="evenodd" fill-opacity="1" stroke="#000000" stroke-opacity="1" stroke-width="3.2"/>
<path clip-path="url(#clip212)" d="M1795.85 349.477 L1792.09 360.293 L1780.63 360.533 L1789.77 367.461 L1786.44 378.421 L1795.85 371.877 L1805.25 378.421 L1801.93 367.461 L1811.06 360.533 L1799.61 360.293 L1795.85 349.477 Z" fill="#ac8d18" fill-rule="evenodd" fill-opacity="1" stroke="#000000" stroke-opacity="1" stroke-width="3.2"/>
<path clip-path="url(#clip212)" d="M2044.47 209.657 L2040.71 220.473 L2029.25 220.713 L2038.39 227.641 L2035.06 238.601 L2044.47 232.057 L2053.87 238.601 L2050.55 227.641 L2059.68 220.713 L2048.23 220.473 L2044.47 209.657 Z" fill="#ac8d18" fill-rule="evenodd" fill-opacity="1" stroke="#000000" stroke-opacity="1" stroke-width="3.2"/>
<path clip-path="url(#clip212)" d="M2293.09 69.838 L2289.33 80.654 L2277.87 80.894 L2287.01 87.822 L2283.68 98.782 L2293.09 92.238 L2302.49 98.782 L2299.17 87.822 L2308.3 80.894 L2296.85 80.654 L2293.09 69.838 Z" fill="#ac8d18" fill-rule="evenodd" fill-opacity="1" stroke="#000000" stroke-opacity="1" stroke-width="3.2"/>
<path clip-path="url(#clip210)" d="M314.728 403.739 L830.487 403.739 L830.487 92.6992 L314.728 92.6992  Z" fill="#ffffff" fill-rule="evenodd" fill-opacity="1"/>
<polyline clip-path="url(#clip210)" style="stroke:#000000; stroke-linecap:round; stroke-linejoin:round; stroke-width:4; stroke-opacity:1; fill:none" points="314.728,403.739 830.487,403.739 830.487,92.6992 314.728,92.6992 314.728,403.739 "/>
<polyline clip-path="url(#clip210)" style="stroke:#009af9; stroke-linecap:round; stroke-linejoin:round; stroke-width:4; stroke-opacity:1; fill:none" points="338.153,144.539 478.707,144.539 "/>
<circle clip-path="url(#clip210)" cx="408.43" cy="144.539" r="19.5213" fill="#009af9" fill-rule="evenodd" fill-opacity="1" stroke="#000000" stroke-opacity="1" stroke-width="4.55111"/>
<path clip-path="url(#clip210)" d="M506.809 145.315 L506.809 157.977 L514.308 157.977 Q518.082 157.977 519.887 156.426 Q521.716 154.852 521.716 151.634 Q521.716 148.393 519.887 146.866 Q518.082 145.315 514.308 145.315 L506.809 145.315 M506.809 131.102 L506.809 141.518 L513.73 141.518 Q517.156 141.518 518.822 140.245 Q520.512 138.949 520.512 136.31 Q520.512 133.694 518.822 132.398 Q517.156 131.102 513.73 131.102 L506.809 131.102 M502.133 127.259 L514.077 127.259 Q519.424 127.259 522.318 129.481 Q525.211 131.704 525.211 135.801 Q525.211 138.972 523.73 140.847 Q522.248 142.722 519.378 143.185 Q522.827 143.926 524.725 146.287 Q526.646 148.625 526.646 152.143 Q526.646 156.773 523.498 159.296 Q520.35 161.819 514.54 161.819 L502.133 161.819 L502.133 127.259 Z" fill="#000000" fill-rule="nonzero" fill-opacity="1" /><path clip-path="url(#clip210)" d="M546.253 148.787 Q541.091 148.787 539.1 149.967 Q537.109 151.148 537.109 153.995 Q537.109 156.264 538.591 157.606 Q540.095 158.926 542.665 158.926 Q546.206 158.926 548.336 156.426 Q550.489 153.903 550.489 149.736 L550.489 148.787 L546.253 148.787 M554.748 147.028 L554.748 161.819 L550.489 161.819 L550.489 157.884 Q549.031 160.245 546.855 161.379 Q544.679 162.49 541.531 162.49 Q537.549 162.49 535.188 160.268 Q532.85 158.023 532.85 154.273 Q532.85 149.898 535.767 147.676 Q538.707 145.454 544.517 145.454 L550.489 145.454 L550.489 145.037 Q550.489 142.097 548.544 140.5 Q546.623 138.879 543.128 138.879 Q540.906 138.879 538.799 139.412 Q536.693 139.944 534.748 141.009 L534.748 137.074 Q537.086 136.171 539.285 135.731 Q541.484 135.268 543.568 135.268 Q549.193 135.268 551.97 138.185 Q554.748 141.102 554.748 147.028 Z" fill="#000000" fill-rule="nonzero" fill-opacity="1" /><path clip-path="url(#clip210)" d="M580.049 136.657 L580.049 140.685 Q578.243 139.759 576.299 139.296 Q574.354 138.833 572.271 138.833 Q569.1 138.833 567.503 139.805 Q565.929 140.778 565.929 142.722 Q565.929 144.204 567.063 145.06 Q568.197 145.893 571.623 146.657 L573.081 146.981 Q577.618 147.954 579.516 149.736 Q581.438 151.495 581.438 154.666 Q581.438 158.278 578.567 160.384 Q575.72 162.49 570.72 162.49 Q568.637 162.49 566.368 162.074 Q564.123 161.68 561.623 160.87 L561.623 156.472 Q563.984 157.699 566.276 158.324 Q568.567 158.926 570.813 158.926 Q573.822 158.926 575.442 157.907 Q577.063 156.866 577.063 154.991 Q577.063 153.254 575.882 152.328 Q574.725 151.403 570.767 150.546 L569.285 150.199 Q565.327 149.366 563.567 147.653 Q561.808 145.916 561.808 142.907 Q561.808 139.25 564.401 137.259 Q566.993 135.268 571.762 135.268 Q574.123 135.268 576.206 135.616 Q578.29 135.963 580.049 136.657 Z" fill="#000000" fill-rule="nonzero" fill-opacity="1" /><path clip-path="url(#clip210)" d="M610.396 147.791 L610.396 149.875 L590.813 149.875 Q591.09 154.273 593.452 156.588 Q595.836 158.879 600.072 158.879 Q602.526 158.879 604.817 158.278 Q607.132 157.676 609.401 156.472 L609.401 160.5 Q607.109 161.472 604.702 161.981 Q602.294 162.49 599.817 162.49 Q593.614 162.49 589.979 158.879 Q586.368 155.268 586.368 149.111 Q586.368 142.745 589.794 139.018 Q593.243 135.268 599.077 135.268 Q604.308 135.268 607.34 138.648 Q610.396 142.004 610.396 147.791 M606.137 146.541 Q606.09 143.046 604.169 140.963 Q602.271 138.879 599.123 138.879 Q595.558 138.879 593.405 140.893 Q591.276 142.907 590.952 146.565 L606.137 146.541 Z" fill="#000000" fill-rule="nonzero" fill-opacity="1" /><path clip-path="url(#clip210)" d="M617.387 125.801 L621.646 125.801 L621.646 161.819 L617.387 161.819 L617.387 125.801 Z" fill="#000000" fill-rule="nonzero" fill-opacity="1" /><path clip-path="url(#clip210)" d="M630.558 135.893 L634.817 135.893 L634.817 161.819 L630.558 161.819 L630.558 135.893 M630.558 125.801 L634.817 125.801 L634.817 131.194 L630.558 131.194 L630.558 125.801 Z" fill="#000000" fill-rule="nonzero" fill-opacity="1" /><path clip-path="url(#clip210)" d="M665.28 146.171 L665.28 161.819 L661.021 161.819 L661.021 146.31 Q661.021 142.629 659.585 140.801 Q658.15 138.972 655.28 138.972 Q651.831 138.972 649.84 141.171 Q647.849 143.37 647.849 147.166 L647.849 161.819 L643.567 161.819 L643.567 135.893 L647.849 135.893 L647.849 139.921 Q649.377 137.583 651.437 136.426 Q653.521 135.268 656.229 135.268 Q660.697 135.268 662.988 138.046 Q665.28 140.801 665.28 146.171 Z" fill="#000000" fill-rule="nonzero" fill-opacity="1" /><path clip-path="url(#clip210)" d="M695.951 147.791 L695.951 149.875 L676.368 149.875 Q676.646 154.273 679.007 156.588 Q681.391 158.879 685.627 158.879 Q688.081 158.879 690.372 158.278 Q692.687 157.676 694.956 156.472 L694.956 160.5 Q692.664 161.472 690.257 161.981 Q687.849 162.49 685.372 162.49 Q679.169 162.49 675.534 158.879 Q671.923 155.268 671.923 149.111 Q671.923 142.745 675.349 139.018 Q678.798 135.268 684.632 135.268 Q689.863 135.268 692.896 138.648 Q695.951 142.004 695.951 147.791 M691.692 146.541 Q691.646 143.046 689.724 140.963 Q687.826 138.879 684.678 138.879 Q681.113 138.879 678.96 140.893 Q676.831 142.907 676.507 146.565 L691.692 146.541 Z" fill="#000000" fill-rule="nonzero" fill-opacity="1" /><polyline clip-path="url(#clip210)" style="stroke:#e26f46; stroke-linecap:round; stroke-linejoin:round; stroke-width:4; stroke-opacity:1; fill:none" points="338.153,196.379 478.707,196.379 "/>
<path clip-path="url(#clip210)" d="M386.74 174.689 L386.74 218.07 L430.121 218.07 L430.121 174.689 L386.74 174.689 Z" fill="#e26f46" fill-rule="evenodd" fill-opacity="1" stroke="#000000" stroke-opacity="1" stroke-width="4.55111"/>
<path clip-path="url(#clip210)" d="M518.521 197.456 Q520.026 197.965 521.438 199.631 Q522.873 201.298 524.308 204.215 L529.054 213.659 L524.031 213.659 L519.609 204.793 Q517.896 201.321 516.276 200.187 Q514.679 199.053 511.901 199.053 L506.809 199.053 L506.809 213.659 L502.133 213.659 L502.133 179.099 L512.688 179.099 Q518.614 179.099 521.531 181.576 Q524.447 184.053 524.447 189.053 Q524.447 192.317 522.92 194.469 Q521.415 196.622 518.521 197.456 M506.809 182.942 L506.809 195.21 L512.688 195.21 Q516.068 195.21 517.781 193.659 Q519.517 192.085 519.517 189.053 Q519.517 186.02 517.781 184.493 Q516.068 182.942 512.688 182.942 L506.809 182.942 Z" fill="#000000" fill-rule="nonzero" fill-opacity="1" /><path clip-path="url(#clip210)" d="M554.933 199.631 L554.933 201.715 L535.35 201.715 Q535.628 206.113 537.989 208.428 Q540.373 210.719 544.609 210.719 Q547.063 210.719 549.355 210.118 Q551.669 209.516 553.938 208.312 L553.938 212.34 Q551.646 213.312 549.239 213.821 Q546.831 214.33 544.355 214.33 Q538.151 214.33 534.517 210.719 Q530.906 207.108 530.906 200.951 Q530.906 194.585 534.332 190.858 Q537.781 187.108 543.614 187.108 Q548.845 187.108 551.878 190.488 Q554.933 193.844 554.933 199.631 M550.674 198.381 Q550.628 194.886 548.706 192.803 Q546.808 190.719 543.66 190.719 Q540.095 190.719 537.943 192.733 Q535.813 194.747 535.489 198.405 L550.674 198.381 Z" fill="#000000" fill-rule="nonzero" fill-opacity="1" /><path clip-path="url(#clip210)" d="M575.049 177.641 L575.049 181.183 L570.975 181.183 Q568.683 181.183 567.78 182.108 Q566.901 183.034 566.901 185.442 L566.901 187.733 L573.915 187.733 L573.915 191.044 L566.901 191.044 L566.901 213.659 L562.618 213.659 L562.618 191.044 L558.544 191.044 L558.544 187.733 L562.618 187.733 L562.618 185.928 Q562.618 181.599 564.632 179.632 Q566.646 177.641 571.021 177.641 L575.049 177.641 Z" fill="#000000" fill-rule="nonzero" fill-opacity="1" /><polyline clip-path="url(#clip210)" style="stroke:#3da44d; stroke-linecap:round; stroke-linejoin:round; stroke-width:4; stroke-opacity:1; fill:none" points="338.153,248.219 478.707,248.219 "/>
<path clip-path="url(#clip210)" d="M408.43 226.529 L386.74 248.219 L408.43 269.91 L430.121 248.219 L408.43 226.529 Z" fill="#3da44d" fill-rule="evenodd" fill-opacity="1" stroke="#000000" stroke-opacity="1" stroke-width="4.55111"/>
<path clip-path="url(#clip210)" d="M502.133 230.939 L506.809 230.939 L506.809 265.499 L502.133 265.499 L502.133 230.939 Z" fill="#000000" fill-rule="nonzero" fill-opacity="1" /><path clip-path="url(#clip210)" d="M520.142 232.212 L520.142 239.573 L528.915 239.573 L528.915 242.884 L520.142 242.884 L520.142 256.958 Q520.142 260.129 520.998 261.032 Q521.878 261.934 524.54 261.934 L528.915 261.934 L528.915 265.499 L524.54 265.499 Q519.609 265.499 517.734 263.67 Q515.859 261.819 515.859 256.958 L515.859 242.884 L512.734 242.884 L512.734 239.573 L515.859 239.573 L515.859 232.212 L520.142 232.212 Z" fill="#000000" fill-rule="nonzero" fill-opacity="1" /><path clip-path="url(#clip210)" d="M556.693 251.471 L556.693 253.555 L537.109 253.555 Q537.387 257.953 539.748 260.268 Q542.132 262.559 546.369 262.559 Q548.822 262.559 551.114 261.958 Q553.429 261.356 555.697 260.152 L555.697 264.18 Q553.406 265.152 550.998 265.661 Q548.591 266.17 546.114 266.17 Q539.91 266.17 536.276 262.559 Q532.665 258.948 532.665 252.791 Q532.665 246.425 536.091 242.698 Q539.54 238.948 545.373 238.948 Q550.605 238.948 553.637 242.328 Q556.693 245.684 556.693 251.471 M552.433 250.221 Q552.387 246.726 550.466 244.643 Q548.568 242.559 545.419 242.559 Q541.855 242.559 539.702 244.573 Q537.572 246.587 537.248 250.245 L552.433 250.221 Z" fill="#000000" fill-rule="nonzero" fill-opacity="1" /><path clip-path="url(#clip210)" d="M578.706 243.555 Q577.989 243.138 577.132 242.953 Q576.299 242.745 575.28 242.745 Q571.669 242.745 569.725 245.106 Q567.804 247.444 567.804 251.842 L567.804 265.499 L563.521 265.499 L563.521 239.573 L567.804 239.573 L567.804 243.601 Q569.146 241.24 571.299 240.106 Q573.452 238.948 576.53 238.948 Q576.97 238.948 577.503 239.018 Q578.035 239.064 578.683 239.18 L578.706 243.555 Z" fill="#000000" fill-rule="nonzero" fill-opacity="1" /><polyline clip-path="url(#clip210)" style="stroke:#c271d2; stroke-linecap:round; stroke-linejoin:round; stroke-width:4; stroke-opacity:1; fill:none" points="338.153,300.059 478.707,300.059 "/>
<path clip-path="url(#clip210)" d="M408.43 278.369 L386.74 321.75 L430.121 321.75 L408.43 278.369 Z" fill="#c271d2" fill-rule="evenodd" fill-opacity="1" stroke="#000000" stroke-opacity="1" stroke-width="4.55111"/>
<path clip-path="url(#clip210)" d="M502.133 282.779 L506.809 282.779 L506.809 317.339 L502.133 317.339 L502.133 282.779 Z" fill="#000000" fill-rule="nonzero" fill-opacity="1" /><path clip-path="url(#clip210)" d="M520.142 284.052 L520.142 291.413 L528.915 291.413 L528.915 294.724 L520.142 294.724 L520.142 308.798 Q520.142 311.969 520.998 312.872 Q521.878 313.774 524.54 313.774 L528.915 313.774 L528.915 317.339 L524.54 317.339 Q519.609 317.339 517.734 315.51 Q515.859 313.659 515.859 308.798 L515.859 294.724 L512.734 294.724 L512.734 291.413 L515.859 291.413 L515.859 284.052 L520.142 284.052 Z" fill="#000000" fill-rule="nonzero" fill-opacity="1" /><path clip-path="url(#clip210)" d="M556.693 303.311 L556.693 305.395 L537.109 305.395 Q537.387 309.793 539.748 312.108 Q542.132 314.399 546.369 314.399 Q548.822 314.399 551.114 313.798 Q553.429 313.196 555.697 311.992 L555.697 316.02 Q553.406 316.992 550.998 317.501 Q548.591 318.01 546.114 318.01 Q539.91 318.01 536.276 314.399 Q532.665 310.788 532.665 304.631 Q532.665 298.265 536.091 294.538 Q539.54 290.788 545.373 290.788 Q550.605 290.788 553.637 294.168 Q556.693 297.524 556.693 303.311 M552.433 302.061 Q552.387 298.566 550.466 296.483 Q548.568 294.399 545.419 294.399 Q541.855 294.399 539.702 296.413 Q537.572 298.427 537.248 302.085 L552.433 302.061 Z" fill="#000000" fill-rule="nonzero" fill-opacity="1" /><path clip-path="url(#clip210)" d="M578.706 295.395 Q577.989 294.978 577.132 294.793 Q576.299 294.585 575.28 294.585 Q571.669 294.585 569.725 296.946 Q567.804 299.284 567.804 303.682 L567.804 317.339 L563.521 317.339 L563.521 291.413 L567.804 291.413 L567.804 295.441 Q569.146 293.08 571.299 291.946 Q573.452 290.788 576.53 290.788 Q576.97 290.788 577.503 290.858 Q578.035 290.904 578.683 291.02 L578.706 295.395 Z" fill="#000000" fill-rule="nonzero" fill-opacity="1" /><path clip-path="url(#clip210)" d="M610.026 304.307 Q604.864 304.307 602.873 305.487 Q600.882 306.668 600.882 309.515 Q600.882 311.784 602.364 313.126 Q603.868 314.446 606.438 314.446 Q609.979 314.446 612.109 311.946 Q614.262 309.423 614.262 305.256 L614.262 304.307 L610.026 304.307 M618.521 302.548 L618.521 317.339 L614.262 317.339 L614.262 313.404 Q612.803 315.765 610.627 316.899 Q608.452 318.01 605.303 318.01 Q601.322 318.01 598.961 315.788 Q596.623 313.543 596.623 309.793 Q596.623 305.418 599.54 303.196 Q602.479 300.974 608.289 300.974 L614.262 300.974 L614.262 300.557 Q614.262 297.617 612.317 296.02 Q610.396 294.399 606.901 294.399 Q604.678 294.399 602.572 294.932 Q600.465 295.464 598.521 296.529 L598.521 292.594 Q600.859 291.691 603.058 291.251 Q605.257 290.788 607.34 290.788 Q612.965 290.788 615.743 293.705 Q618.521 296.622 618.521 302.548 Z" fill="#000000" fill-rule="nonzero" fill-opacity="1" /><path clip-path="url(#clip210)" d="M648.845 301.691 L648.845 317.339 L644.586 317.339 L644.586 301.83 Q644.586 298.149 643.15 296.321 Q641.715 294.492 638.845 294.492 Q635.396 294.492 633.405 296.691 Q631.414 298.89 631.414 302.686 L631.414 317.339 L627.132 317.339 L627.132 291.413 L631.414 291.413 L631.414 295.441 Q632.942 293.103 635.002 291.946 Q637.086 290.788 639.794 290.788 Q644.262 290.788 646.553 293.566 Q648.845 296.321 648.845 301.691 Z" fill="#000000" fill-rule="nonzero" fill-opacity="1" /><path clip-path="url(#clip210)" d="M674.4 295.349 L674.4 281.321 L678.659 281.321 L678.659 317.339 L674.4 317.339 L674.4 313.45 Q673.058 315.765 670.997 316.899 Q668.96 318.01 666.09 318.01 Q661.391 318.01 658.428 314.26 Q655.488 310.511 655.488 304.399 Q655.488 298.288 658.428 294.538 Q661.391 290.788 666.09 290.788 Q668.96 290.788 670.997 291.923 Q673.058 293.034 674.4 295.349 M659.886 304.399 Q659.886 309.098 661.808 311.784 Q663.752 314.446 667.132 314.446 Q670.511 314.446 672.456 311.784 Q674.4 309.098 674.4 304.399 Q674.4 299.7 672.456 297.038 Q670.511 294.353 667.132 294.353 Q663.752 294.353 661.808 297.038 Q659.886 299.7 659.886 304.399 Z" fill="#000000" fill-rule="nonzero" fill-opacity="1" /><path clip-path="url(#clip210)" d="M719.076 301.136 Q720.581 301.645 721.993 303.311 Q723.428 304.978 724.863 307.895 L729.608 317.339 L724.585 317.339 L720.164 308.473 Q718.451 305.001 716.831 303.867 Q715.233 302.733 712.456 302.733 L707.363 302.733 L707.363 317.339 L702.687 317.339 L702.687 282.779 L713.243 282.779 Q719.169 282.779 722.085 285.256 Q725.002 287.733 725.002 292.733 Q725.002 295.997 723.474 298.149 Q721.969 300.302 719.076 301.136 M707.363 286.622 L707.363 298.89 L713.243 298.89 Q716.622 298.89 718.335 297.339 Q720.071 295.765 720.071 292.733 Q720.071 289.7 718.335 288.173 Q716.622 286.622 713.243 286.622 L707.363 286.622 Z" fill="#000000" fill-rule="nonzero" fill-opacity="1" /><path clip-path="url(#clip210)" d="M755.488 303.311 L755.488 305.395 L735.905 305.395 Q736.182 309.793 738.543 312.108 Q740.928 314.399 745.164 314.399 Q747.617 314.399 749.909 313.798 Q752.224 313.196 754.492 311.992 L754.492 316.02 Q752.201 316.992 749.793 317.501 Q747.386 318.01 744.909 318.01 Q738.705 318.01 735.071 314.399 Q731.46 310.788 731.46 304.631 Q731.46 298.265 734.886 294.538 Q738.335 290.788 744.168 290.788 Q749.4 290.788 752.432 294.168 Q755.488 297.524 755.488 303.311 M751.229 302.061 Q751.182 298.566 749.261 296.483 Q747.363 294.399 744.215 294.399 Q740.65 294.399 738.497 296.413 Q736.367 298.427 736.043 302.085 L751.229 302.061 Z" fill="#000000" fill-rule="nonzero" fill-opacity="1" /><path clip-path="url(#clip210)" d="M775.603 281.321 L775.603 284.863 L771.529 284.863 Q769.238 284.863 768.335 285.788 Q767.455 286.714 767.455 289.122 L767.455 291.413 L774.469 291.413 L774.469 294.724 L767.455 294.724 L767.455 317.339 L763.173 317.339 L763.173 294.724 L759.099 294.724 L759.099 291.413 L763.173 291.413 L763.173 289.608 Q763.173 285.279 765.187 283.312 Q767.201 281.321 771.576 281.321 L775.603 281.321 Z" fill="#000000" fill-rule="nonzero" fill-opacity="1" /><polyline clip-path="url(#clip210)" style="stroke:#ac8d18; stroke-linecap:round; stroke-linejoin:round; stroke-width:4; stroke-opacity:1; fill:none" points="338.153,351.899 478.707,351.899 "/>
<path clip-path="url(#clip210)" d="M408.43 330.209 L403.333 344.871 L387.803 345.197 L400.188 354.589 L395.676 369.447 L408.43 360.575 L421.184 369.447 L416.673 354.589 L429.058 345.197 L413.527 344.871 L408.43 330.209 Z" fill="#ac8d18" fill-rule="evenodd" fill-opacity="1" stroke="#000000" stroke-opacity="1" stroke-width="4.55111"/>
<path clip-path="url(#clip210)" d="M506.809 352.675 L506.809 365.337 L514.308 365.337 Q518.082 365.337 519.887 363.786 Q521.716 362.212 521.716 358.994 Q521.716 355.753 519.887 354.226 Q518.082 352.675 514.308 352.675 L506.809 352.675 M506.809 338.462 L506.809 348.878 L513.73 348.878 Q517.156 348.878 518.822 347.605 Q520.512 346.309 520.512 343.67 Q520.512 341.054 518.822 339.758 Q517.156 338.462 513.73 338.462 L506.809 338.462 M502.133 334.619 L514.077 334.619 Q519.424 334.619 522.318 336.841 Q525.211 339.064 525.211 343.161 Q525.211 346.332 523.73 348.207 Q522.248 350.082 519.378 350.545 Q522.827 351.286 524.725 353.647 Q526.646 355.985 526.646 359.503 Q526.646 364.133 523.498 366.656 Q520.35 369.179 514.54 369.179 L502.133 369.179 L502.133 334.619 Z" fill="#000000" fill-rule="nonzero" fill-opacity="1" /><path clip-path="url(#clip210)" d="M549.493 347.235 Q548.776 346.818 547.919 346.633 Q547.086 346.425 546.068 346.425 Q542.456 346.425 540.512 348.786 Q538.591 351.124 538.591 355.522 L538.591 369.179 L534.308 369.179 L534.308 343.253 L538.591 343.253 L538.591 347.281 Q539.933 344.92 542.086 343.786 Q544.239 342.628 547.318 342.628 Q547.757 342.628 548.29 342.698 Q548.822 342.744 549.47 342.86 L549.493 347.235 Z" fill="#000000" fill-rule="nonzero" fill-opacity="1" /><path clip-path="url(#clip210)" d="M553.521 358.948 L553.521 343.253 L557.78 343.253 L557.78 358.786 Q557.78 362.466 559.216 364.318 Q560.651 366.147 563.521 366.147 Q566.97 366.147 568.961 363.948 Q570.975 361.749 570.975 357.952 L570.975 343.253 L575.234 343.253 L575.234 369.179 L570.975 369.179 L570.975 365.198 Q569.424 367.559 567.364 368.716 Q565.327 369.85 562.618 369.85 Q558.151 369.85 555.836 367.073 Q553.521 364.295 553.521 358.948 M564.239 342.628 L564.239 342.628 Z" fill="#000000" fill-rule="nonzero" fill-opacity="1" /><path clip-path="url(#clip210)" d="M605.558 353.531 L605.558 369.179 L601.299 369.179 L601.299 353.67 Q601.299 349.989 599.864 348.161 Q598.428 346.332 595.558 346.332 Q592.109 346.332 590.118 348.531 Q588.128 350.73 588.128 354.526 L588.128 369.179 L583.845 369.179 L583.845 343.253 L588.128 343.253 L588.128 347.281 Q589.655 344.943 591.715 343.786 Q593.799 342.628 596.507 342.628 Q600.975 342.628 603.266 345.406 Q605.558 348.161 605.558 353.531 Z" fill="#000000" fill-rule="nonzero" fill-opacity="1" /><path clip-path="url(#clip210)" d="M624.1 346.239 Q620.674 346.239 618.683 348.925 Q616.692 351.587 616.692 356.239 Q616.692 360.892 618.66 363.577 Q620.651 366.239 624.1 366.239 Q627.502 366.239 629.493 363.554 Q631.484 360.869 631.484 356.239 Q631.484 351.633 629.493 348.948 Q627.502 346.239 624.1 346.239 M624.1 342.628 Q629.655 342.628 632.826 346.239 Q635.998 349.851 635.998 356.239 Q635.998 362.605 632.826 366.239 Q629.655 369.85 624.1 369.85 Q618.521 369.85 615.35 366.239 Q612.201 362.605 612.201 356.239 Q612.201 349.851 615.35 346.239 Q618.521 342.628 624.1 342.628 Z" fill="#000000" fill-rule="nonzero" fill-opacity="1" /><path clip-path="url(#clip210)" d="M684.192 337.281 L684.192 342.212 Q681.831 340.013 679.146 338.925 Q676.484 337.837 673.474 337.837 Q667.548 337.837 664.4 341.471 Q661.252 345.082 661.252 351.934 Q661.252 358.763 664.4 362.397 Q667.548 366.008 673.474 366.008 Q676.484 366.008 679.146 364.92 Q681.831 363.832 684.192 361.633 L684.192 366.517 Q681.738 368.184 678.984 369.017 Q676.252 369.85 673.197 369.85 Q665.349 369.85 660.835 365.059 Q656.322 360.244 656.322 351.934 Q656.322 343.601 660.835 338.809 Q665.349 333.994 673.197 333.994 Q676.298 333.994 679.03 334.828 Q681.784 335.638 684.192 337.281 Z" fill="#000000" fill-rule="nonzero" fill-opacity="1" /><path clip-path="url(#clip210)" d="M703.011 356.147 Q697.849 356.147 695.858 357.327 Q693.868 358.508 693.868 361.355 Q693.868 363.624 695.349 364.966 Q696.854 366.286 699.423 366.286 Q702.965 366.286 705.095 363.786 Q707.247 361.263 707.247 357.096 L707.247 356.147 L703.011 356.147 M711.507 354.388 L711.507 369.179 L707.247 369.179 L707.247 365.244 Q705.789 367.605 703.613 368.739 Q701.437 369.85 698.289 369.85 Q694.308 369.85 691.946 367.628 Q689.608 365.383 689.608 361.633 Q689.608 357.258 692.525 355.036 Q695.465 352.814 701.275 352.814 L707.247 352.814 L707.247 352.397 Q707.247 349.457 705.303 347.86 Q703.382 346.239 699.886 346.239 Q697.664 346.239 695.558 346.772 Q693.451 347.304 691.507 348.369 L691.507 344.434 Q693.845 343.531 696.044 343.091 Q698.243 342.628 700.326 342.628 Q705.951 342.628 708.729 345.545 Q711.507 348.462 711.507 354.388 Z" fill="#000000" fill-rule="nonzero" fill-opacity="1" /><path clip-path="url(#clip210)" d="M735.303 347.235 Q734.585 346.818 733.729 346.633 Q732.895 346.425 731.877 346.425 Q728.266 346.425 726.321 348.786 Q724.4 351.124 724.4 355.522 L724.4 369.179 L720.118 369.179 L720.118 343.253 L724.4 343.253 L724.4 347.281 Q725.743 344.92 727.895 343.786 Q730.048 342.628 733.127 342.628 Q733.567 342.628 734.099 342.698 Q734.631 342.744 735.28 342.86 L735.303 347.235 Z" fill="#000000" fill-rule="nonzero" fill-opacity="1" /><path clip-path="url(#clip210)" d="M759.122 348.23 Q760.719 345.36 762.941 343.994 Q765.164 342.628 768.173 342.628 Q772.224 342.628 774.423 345.476 Q776.622 348.3 776.622 353.531 L776.622 369.179 L772.34 369.179 L772.34 353.67 Q772.34 349.943 771.02 348.138 Q769.701 346.332 766.992 346.332 Q763.682 346.332 761.761 348.531 Q759.84 350.73 759.84 354.526 L759.84 369.179 L755.557 369.179 L755.557 353.67 Q755.557 349.92 754.238 348.138 Q752.918 346.332 750.164 346.332 Q746.9 346.332 744.979 348.554 Q743.057 350.753 743.057 354.526 L743.057 369.179 L738.775 369.179 L738.775 343.253 L743.057 343.253 L743.057 347.281 Q744.516 344.897 746.553 343.763 Q748.59 342.628 751.391 342.628 Q754.215 342.628 756.182 344.064 Q758.173 345.499 759.122 348.23 Z" fill="#000000" fill-rule="nonzero" fill-opacity="1" /><path clip-path="url(#clip210)" d="M795.163 346.239 Q791.738 346.239 789.747 348.925 Q787.756 351.587 787.756 356.239 Q787.756 360.892 789.724 363.577 Q791.714 366.239 795.163 366.239 Q798.566 366.239 800.557 363.554 Q802.548 360.869 802.548 356.239 Q802.548 351.633 800.557 348.948 Q798.566 346.239 795.163 346.239 M795.163 342.628 Q800.719 342.628 803.89 346.239 Q807.062 349.851 807.062 356.239 Q807.062 362.605 803.89 366.239 Q800.719 369.85 795.163 369.85 Q789.585 369.85 786.414 366.239 Q783.265 362.605 783.265 356.239 Q783.265 349.851 786.414 346.239 Q789.585 342.628 795.163 342.628 Z" fill="#000000" fill-rule="nonzero" fill-opacity="1" /></svg>
