<?xml version="1.0" encoding="utf-8"?>
<svg xmlns="http://www.w3.org/2000/svg" xmlns:xlink="http://www.w3.org/1999/xlink" width="600" height="400" viewBox="0 0 2400 1600">
<defs>
  <clipPath id="clip300">
    <rect x="0" y="0" width="2400" height="1600"/>
  </clipPath>
</defs>
<path clip-path="url(#clip300)" d="M0 1600 L2400 1600 L2400 0 L0 0  Z" fill="#ffffff" fill-rule="evenodd" fill-opacity="1"/>
<defs>
  <clipPath id="clip301">
    <rect x="480" y="0" width="1681" height="1600"/>
  </clipPath>
</defs>
<path clip-path="url(#clip300)" d="M221.618 1410.9 L2352.76 1410.9 L2352.76 47.2441 L221.618 47.2441  Z" fill="#ffffff" fill-rule="evenodd" fill-opacity="1"/>
<defs>
  <clipPath id="clip302">
    <rect x="221" y="47" width="2132" height="1365"/>
  </clipPath>
</defs>
<polyline clip-path="url(#clip302)" style="stroke:#000000; stroke-linecap:round; stroke-linejoin:round; stroke-width:2; stroke-opacity:0.1; fill:none" points="614.152,1410.9 614.152,47.2441 "/>
<polyline clip-path="url(#clip302)" style="stroke:#000000; stroke-linecap:round; stroke-linejoin:round; stroke-width:2; stroke-opacity:0.1; fill:none" points="1031.57,1410.9 1031.57,47.2441 "/>
<polyline clip-path="url(#clip302)" style="stroke:#000000; stroke-linecap:round; stroke-linejoin:round; stroke-width:2; stroke-opacity:0.1; fill:none" points="1449,1410.9 1449,47.2441 "/>
<polyline clip-path="url(#clip302)" style="stroke:#000000; stroke-linecap:round; stroke-linejoin:round; stroke-width:2; stroke-opacity:0.1; fill:none" points="1866.42,1410.9 1866.42,47.2441 "/>
<polyline clip-path="url(#clip302)" style="stroke:#000000; stroke-linecap:round; stroke-linejoin:round; stroke-width:2; stroke-opacity:0.1; fill:none" points="2283.84,1410.9 2283.84,47.2441 "/>
<polyline clip-path="url(#clip300)" style="stroke:#000000; stroke-linecap:round; stroke-linejoin:round; stroke-width:4; stroke-opacity:1; fill:none" points="221.618,1410.9 2352.76,1410.9 "/>
<polyline clip-path="url(#clip300)" style="stroke:#000000; stroke-linecap:round; stroke-linejoin:round; stroke-width:4; stroke-opacity:1; fill:none" points="614.152,1410.9 614.152,1392 "/>
<polyline clip-path="url(#clip300)" style="stroke:#000000; stroke-linecap:round; stroke-linejoin:round; stroke-width:4; stroke-opacity:1; fill:none" points="1031.57,1410.9 1031.57,1392 "/>
<polyline clip-path="url(#clip300)" style="stroke:#000000; stroke-linecap:round; stroke-linejoin:round; stroke-width:4; stroke-opacity:1; fill:none" points="1449,1410.9 1449,1392 "/>
<polyline clip-path="url(#clip300)" style="stroke:#000000; stroke-linecap:round; stroke-linejoin:round; stroke-width:4; stroke-opacity:1; fill:none" points="1866.42,1410.9 1866.42,1392 "/>
<polyline clip-path="url(#clip300)" style="stroke:#000000; stroke-linecap:round; stroke-linejoin:round; stroke-width:4; stroke-opacity:1; fill:none" points="2283.84,1410.9 2283.84,1392 "/>
<path clip-path="url(#clip300)" d="M579.924 1485.02 L587.563 1485.02 L587.563 1458.66 L579.253 1460.32 L579.253 1456.06 L587.517 1454.4 L592.193 1454.4 L592.193 1485.02 L599.832 1485.02 L599.832 1488.96 L579.924 1488.96 L579.924 1485.02 Z" fill="#000000" fill-rule="nonzero" fill-opacity="1" /><path clip-path="url(#clip300)" d="M619.276 1457.48 Q615.665 1457.48 613.836 1461.04 Q612.031 1464.58 612.031 1471.71 Q612.031 1478.82 613.836 1482.38 Q615.665 1485.92 619.276 1485.92 Q622.91 1485.92 624.716 1482.38 Q626.545 1478.82 626.545 1471.71 Q626.545 1464.58 624.716 1461.04 Q622.91 1457.48 619.276 1457.48 M619.276 1453.77 Q625.086 1453.77 628.142 1458.38 Q631.221 1462.96 631.221 1471.71 Q631.221 1480.44 628.142 1485.04 Q625.086 1489.63 619.276 1489.63 Q613.466 1489.63 610.387 1485.04 Q607.332 1480.44 607.332 1471.71 Q607.332 1462.96 610.387 1458.38 Q613.466 1453.77 619.276 1453.77 Z" fill="#000000" fill-rule="nonzero" fill-opacity="1" /><path clip-path="url(#clip300)" d="M635.791 1458.35 L649.05 1458.35 L649.05 1461.55 L631.221 1461.55 L631.221 1458.35 Q633.383 1456.11 637.107 1452.35 Q640.85 1448.57 641.809 1447.48 Q643.634 1445.43 644.348 1444.02 Q645.082 1442.59 645.082 1441.22 Q645.082 1438.98 643.502 1437.57 Q641.941 1436.16 639.421 1436.16 Q637.634 1436.16 635.64 1436.78 Q633.666 1437.4 631.409 1438.66 L631.409 1434.82 Q633.703 1433.9 635.697 1433.43 Q637.69 1432.96 639.345 1432.96 Q643.709 1432.96 646.304 1435.14 Q648.9 1437.32 648.9 1440.97 Q648.9 1442.7 648.242 1444.26 Q647.602 1445.8 645.891 1447.91 Q645.42 1448.46 642.9 1451.07 Q640.38 1453.67 635.791 1458.35 Z" fill="#000000" fill-rule="nonzero" fill-opacity="1" /><path clip-path="url(#clip300)" d="M997.018 1485.02 L1004.66 1485.02 L1004.66 1458.66 L996.347 1460.32 L996.347 1456.06 L1004.61 1454.4 L1009.29 1454.4 L1009.29 1485.02 L1016.93 1485.02 L1016.93 1488.96 L997.018 1488.96 L997.018 1485.02 Z" fill="#000000" fill-rule="nonzero" fill-opacity="1" /><path clip-path="url(#clip300)" d="M1036.37 1457.48 Q1032.76 1457.48 1030.93 1461.04 Q1029.12 1464.58 1029.12 1471.71 Q1029.12 1478.82 1030.93 1482.38 Q1032.76 1485.92 1036.37 1485.92 Q1040 1485.92 1041.81 1482.38 Q1043.64 1478.82 1043.64 1471.71 Q1043.64 1464.58 1041.81 1461.04 Q1040 1457.48 1036.37 1457.48 M1036.37 1453.77 Q1042.18 1453.77 1045.24 1458.38 Q1048.31 1462.96 1048.31 1471.71 Q1048.31 1480.44 1045.24 1485.04 Q1042.18 1489.63 1036.37 1489.63 Q1030.56 1489.63 1027.48 1485.04 Q1024.43 1480.44 1024.43 1471.71 Q1024.43 1462.96 1027.48 1458.38 Q1030.56 1453.77 1036.37 1453.77 Z" fill="#000000" fill-rule="nonzero" fill-opacity="1" /><path clip-path="url(#clip300)" d="M1061.01 1446.41 Q1063.74 1446.99 1065.26 1448.83 Q1066.8 1450.68 1066.8 1453.38 Q1066.8 1457.54 1063.94 1459.82 Q1061.08 1462.09 1055.82 1462.09 Q1054.05 1462.09 1052.17 1461.73 Q1050.31 1461.4 1048.31 1460.7 L1048.31 1457.03 Q1049.89 1457.95 1051.77 1458.42 Q1053.66 1458.89 1055.71 1458.89 Q1059.28 1458.89 1061.14 1457.48 Q1063.02 1456.07 1063.02 1453.38 Q1063.02 1450.9 1061.27 1449.51 Q1059.54 1448.1 1056.44 1448.1 L1053.17 1448.1 L1053.17 1444.98 L1056.59 1444.98 Q1059.39 1444.98 1060.88 1443.87 Q1062.36 1442.74 1062.36 1440.63 Q1062.36 1438.47 1060.82 1437.32 Q1059.3 1436.16 1056.44 1436.16 Q1054.88 1436.16 1053.09 1436.49 Q1051.3 1436.83 1049.16 1437.55 L1049.16 1434.16 Q1051.32 1433.56 1053.2 1433.26 Q1055.1 1432.96 1056.78 1432.96 Q1061.1 1432.96 1063.62 1434.93 Q1066.14 1436.89 1066.14 1440.24 Q1066.14 1442.57 1064.81 1444.19 Q1063.47 1445.79 1061.01 1446.41 Z" fill="#000000" fill-rule="nonzero" fill-opacity="1" /><path clip-path="url(#clip300)" d="M1413.45 1485.02 L1421.09 1485.02 L1421.09 1458.66 L1412.78 1460.32 L1412.78 1456.06 L1421.05 1454.4 L1425.72 1454.4 L1425.72 1485.02 L1433.36 1485.02 L1433.36 1488.96 L1413.45 1488.96 L1413.45 1485.02 Z" fill="#000000" fill-rule="nonzero" fill-opacity="1" /><path clip-path="url(#clip300)" d="M1452.8 1457.48 Q1449.19 1457.48 1447.36 1461.04 Q1445.56 1464.58 1445.56 1471.71 Q1445.56 1478.82 1447.36 1482.38 Q1449.19 1485.92 1452.8 1485.92 Q1456.44 1485.92 1458.24 1482.38 Q1460.07 1478.82 1460.07 1471.71 Q1460.07 1464.58 1458.24 1461.04 Q1456.44 1457.48 1452.8 1457.48 M1452.8 1453.77 Q1458.61 1453.77 1461.67 1458.38 Q1464.75 1462.96 1464.75 1471.71 Q1464.75 1480.44 1461.67 1485.04 Q1458.61 1489.63 1452.8 1489.63 Q1446.99 1489.63 1443.92 1485.04 Q1440.86 1480.44 1440.86 1471.71 Q1440.86 1462.96 1443.92 1458.38 Q1446.99 1453.77 1452.8 1453.77 Z" fill="#000000" fill-rule="nonzero" fill-opacity="1" /><path clip-path="url(#clip300)" d="M1477.43 1436.78 L1467.83 1451.77 L1477.43 1451.77 L1477.43 1436.78 M1476.43 1433.47 L1481.21 1433.47 L1481.21 1451.77 L1485.21 1451.77 L1485.21 1454.93 L1481.21 1454.93 L1481.21 1461.55 L1477.43 1461.55 L1477.43 1454.93 L1464.75 1454.93 L1464.75 1451.26 L1476.43 1433.47 Z" fill="#000000" fill-rule="nonzero" fill-opacity="1" /><path clip-path="url(#clip300)" d="M1832.02 1485.02 L1839.66 1485.02 L1839.66 1458.66 L1831.35 1460.32 L1831.35 1456.06 L1839.62 1454.4 L1844.29 1454.4 L1844.29 1485.02 L1851.93 1485.02 L1851.93 1488.96 L1832.02 1488.96 L1832.02 1485.02 Z" fill="#000000" fill-rule="nonzero" fill-opacity="1" /><path clip-path="url(#clip300)" d="M1871.37 1457.48 Q1867.76 1457.48 1865.93 1461.04 Q1864.13 1464.58 1864.13 1471.71 Q1864.13 1478.82 1865.93 1482.38 Q1867.76 1485.92 1871.37 1485.92 Q1875.01 1485.92 1876.81 1482.38 Q1878.64 1478.82 1878.64 1471.71 Q1878.64 1464.58 1876.81 1461.04 Q1875.01 1457.48 1871.37 1457.48 M1871.37 1453.77 Q1877.18 1453.77 1880.24 1458.38 Q1883.32 1462.96 1883.32 1471.71 Q1883.32 1480.44 1880.24 1485.04 Q1877.18 1489.63 1871.37 1489.63 Q1865.56 1489.63 1862.49 1485.04 Q1859.43 1480.44 1859.43 1471.71 Q1859.43 1462.96 1862.49 1458.38 Q1865.56 1453.77 1871.37 1453.77 Z" fill="#000000" fill-rule="nonzero" fill-opacity="1" /><path clip-path="url(#clip300)" d="M1884.5 1433.47 L1899.42 1433.47 L1899.42 1436.66 L1887.98 1436.66 L1887.98 1443.55 Q1888.81 1443.27 1889.64 1443.13 Q1890.47 1442.98 1891.29 1442.98 Q1896 1442.98 1898.74 1445.56 Q1901.49 1448.14 1901.49 1452.54 Q1901.49 1457.07 1898.67 1459.59 Q1895.84 1462.09 1890.71 1462.09 Q1888.94 1462.09 1887.1 1461.79 Q1885.27 1461.49 1883.32 1460.89 L1883.32 1457.07 Q1885.01 1457.99 1886.82 1458.44 Q1888.62 1458.89 1890.64 1458.89 Q1893.89 1458.89 1895.79 1457.18 Q1897.69 1455.47 1897.69 1452.54 Q1897.69 1449.6 1895.79 1447.89 Q1893.89 1446.18 1890.64 1446.18 Q1889.11 1446.18 1887.59 1446.52 Q1886.08 1446.86 1884.5 1447.57 L1884.5 1433.47 Z" fill="#000000" fill-rule="nonzero" fill-opacity="1" /><path clip-path="url(#clip300)" d="M2248.83 1485.02 L2256.47 1485.02 L2256.47 1458.66 L2248.16 1460.32 L2248.16 1456.06 L2256.43 1454.4 L2261.1 1454.4 L2261.1 1485.02 L2268.74 1485.02 L2268.74 1488.96 L2248.83 1488.96 L2248.83 1485.02 Z" fill="#000000" fill-rule="nonzero" fill-opacity="1" /><path clip-path="url(#clip300)" d="M2288.19 1457.48 Q2284.57 1457.48 2282.75 1461.04 Q2280.94 1464.58 2280.94 1471.71 Q2280.94 1478.82 2282.75 1482.38 Q2284.57 1485.92 2288.19 1485.92 Q2291.82 1485.92 2293.63 1482.38 Q2295.45 1478.82 2295.45 1471.71 Q2295.45 1464.58 2293.63 1461.04 Q2291.82 1457.48 2288.19 1457.48 M2288.19 1453.77 Q2294 1453.77 2297.05 1458.38 Q2300.13 1462.96 2300.13 1471.71 Q2300.13 1480.44 2297.05 1485.04 Q2294 1489.63 2288.19 1489.63 Q2282.38 1489.63 2279.3 1485.04 Q2276.24 1480.44 2276.24 1471.71 Q2276.24 1462.96 2279.3 1458.38 Q2282.38 1453.77 2288.19 1453.77 Z" fill="#000000" fill-rule="nonzero" fill-opacity="1" /><path clip-path="url(#clip300)" d="M2310.15 1445.99 Q2307.6 1445.99 2306.09 1447.74 Q2304.61 1449.49 2304.61 1452.54 Q2304.61 1455.57 2306.09 1457.33 Q2307.6 1459.08 2310.15 1459.08 Q2312.71 1459.08 2314.2 1457.33 Q2315.7 1455.57 2315.7 1452.54 Q2315.7 1449.49 2314.2 1447.74 Q2312.71 1445.99 2310.15 1445.99 M2317.7 1434.09 L2317.7 1437.55 Q2316.27 1436.87 2314.8 1436.51 Q2313.35 1436.16 2311.92 1436.16 Q2308.16 1436.16 2306.17 1438.69 Q2304.19 1441.23 2303.91 1446.37 Q2305.02 1444.73 2306.69 1443.87 Q2308.37 1442.98 2310.38 1442.98 Q2314.61 1442.98 2317.06 1445.56 Q2319.52 1448.12 2319.52 1452.54 Q2319.52 1456.86 2316.96 1459.48 Q2314.41 1462.09 2310.15 1462.09 Q2305.28 1462.09 2302.71 1458.37 Q2300.13 1454.62 2300.13 1447.53 Q2300.13 1440.88 2303.29 1436.93 Q2306.45 1432.96 2311.77 1432.96 Q2313.2 1432.96 2314.65 1433.24 Q2316.12 1433.52 2317.7 1434.09 Z" fill="#000000" fill-rule="nonzero" fill-opacity="1" /><path clip-path="url(#clip300)" d="M980.121 1526.67 L988.779 1526.67 L1009.85 1566.42 L1009.85 1526.67 L1016.09 1526.67 L1016.09 1574.19 L1007.43 1574.19 L986.36 1534.43 L986.36 1574.19 L980.121 1574.19 L980.121 1526.67 Z" fill="#000000" fill-rule="nonzero" fill-opacity="1" /><path clip-path="url(#clip300)" d="M1079.84 1554.9 L1079.84 1557.76 L1052.91 1557.76 Q1053.3 1563.81 1056.54 1566.99 Q1059.82 1570.14 1065.64 1570.14 Q1069.02 1570.14 1072.17 1569.32 Q1075.35 1568.49 1078.47 1566.83 L1078.47 1572.37 Q1075.32 1573.71 1072.01 1574.41 Q1068.7 1575.11 1065.29 1575.11 Q1056.76 1575.11 1051.77 1570.14 Q1046.8 1565.18 1046.8 1556.71 Q1046.8 1547.96 1051.51 1542.83 Q1056.26 1537.68 1064.28 1537.68 Q1071.47 1537.68 1075.64 1542.33 Q1079.84 1546.94 1079.84 1554.9 M1073.98 1553.18 Q1073.92 1548.37 1071.28 1545.51 Q1068.67 1542.64 1064.34 1542.64 Q1059.44 1542.64 1056.48 1545.41 Q1053.55 1548.18 1053.1 1553.21 L1073.98 1553.18 Z" fill="#000000" fill-rule="nonzero" fill-opacity="1" /><path clip-path="url(#clip300)" d="M1089.45 1524.66 L1095.31 1524.66 L1095.31 1574.19 L1089.45 1574.19 L1089.45 1524.66 Z" fill="#000000" fill-rule="nonzero" fill-opacity="1" /><path clip-path="url(#clip300)" d="M1138.05 1554.9 L1138.05 1557.76 L1111.13 1557.76 Q1111.51 1563.81 1114.76 1566.99 Q1118.03 1570.14 1123.86 1570.14 Q1127.23 1570.14 1130.38 1569.32 Q1133.57 1568.49 1136.69 1566.83 L1136.69 1572.37 Q1133.53 1573.71 1130.22 1574.41 Q1126.91 1575.11 1123.51 1575.11 Q1114.98 1575.11 1109.98 1570.14 Q1105.02 1565.18 1105.02 1556.71 Q1105.02 1547.96 1109.73 1542.83 Q1114.47 1537.68 1122.49 1537.68 Q1129.68 1537.68 1133.85 1542.33 Q1138.05 1546.94 1138.05 1554.9 M1132.2 1553.18 Q1132.13 1548.37 1129.49 1545.51 Q1126.88 1542.64 1122.55 1542.64 Q1117.65 1542.64 1114.69 1545.41 Q1111.76 1548.18 1111.32 1553.21 L1132.2 1553.18 Z" fill="#000000" fill-rule="nonzero" fill-opacity="1" /><path clip-path="url(#clip300)" d="M1175.42 1545.38 Q1177.62 1541.43 1180.67 1539.56 Q1183.73 1537.68 1187.87 1537.68 Q1193.44 1537.68 1196.46 1541.59 Q1199.48 1545.48 1199.48 1552.67 L1199.48 1574.19 L1193.6 1574.19 L1193.6 1552.86 Q1193.6 1547.74 1191.78 1545.25 Q1189.97 1542.77 1186.24 1542.77 Q1181.69 1542.77 1179.05 1545.79 Q1176.41 1548.82 1176.41 1554.04 L1176.41 1574.19 L1170.52 1574.19 L1170.52 1552.86 Q1170.52 1547.7 1168.71 1545.25 Q1166.89 1542.77 1163.1 1542.77 Q1158.62 1542.77 1155.97 1545.83 Q1153.33 1548.85 1153.33 1554.04 L1153.33 1574.19 L1147.44 1574.19 L1147.44 1538.54 L1153.33 1538.54 L1153.33 1544.08 Q1155.34 1540.8 1158.14 1539.24 Q1160.94 1537.68 1164.79 1537.68 Q1168.67 1537.68 1171.38 1539.65 Q1174.12 1541.62 1175.42 1545.38 Z" fill="#000000" fill-rule="nonzero" fill-opacity="1" /><path clip-path="url(#clip300)" d="M1241.66 1554.9 L1241.66 1557.76 L1214.73 1557.76 Q1215.11 1563.81 1218.36 1566.99 Q1221.64 1570.14 1227.46 1570.14 Q1230.83 1570.14 1233.99 1569.32 Q1237.17 1568.49 1240.29 1566.83 L1240.29 1572.37 Q1237.14 1573.71 1233.83 1574.41 Q1230.52 1575.11 1227.11 1575.11 Q1218.58 1575.11 1213.58 1570.14 Q1208.62 1565.18 1208.62 1556.71 Q1208.62 1547.96 1213.33 1542.83 Q1218.07 1537.68 1226.09 1537.68 Q1233.29 1537.68 1237.46 1542.33 Q1241.66 1546.94 1241.66 1554.9 M1235.8 1553.18 Q1235.74 1548.37 1233.09 1545.51 Q1230.48 1542.64 1226.16 1542.64 Q1221.25 1542.64 1218.29 1545.41 Q1215.37 1548.18 1214.92 1553.21 L1235.8 1553.18 Z" fill="#000000" fill-rule="nonzero" fill-opacity="1" /><path clip-path="url(#clip300)" d="M1280.9 1552.67 L1280.9 1574.19 L1275.04 1574.19 L1275.04 1552.86 Q1275.04 1547.8 1273.07 1545.29 Q1271.1 1542.77 1267.15 1542.77 Q1262.41 1542.77 1259.67 1545.79 Q1256.93 1548.82 1256.93 1554.04 L1256.93 1574.19 L1251.05 1574.19 L1251.05 1538.54 L1256.93 1538.54 L1256.93 1544.08 Q1259.03 1540.86 1261.87 1539.27 Q1264.73 1537.68 1268.46 1537.68 Q1274.6 1537.68 1277.75 1541.5 Q1280.9 1545.29 1280.9 1552.67 Z" fill="#000000" fill-rule="nonzero" fill-opacity="1" /><path clip-path="url(#clip300)" d="M1298.37 1528.42 L1298.37 1538.54 L1310.44 1538.54 L1310.44 1543.09 L1298.37 1543.09 L1298.37 1562.44 Q1298.37 1566.8 1299.55 1568.04 Q1300.76 1569.28 1304.42 1569.28 L1310.44 1569.28 L1310.44 1574.19 L1304.42 1574.19 Q1297.64 1574.19 1295.06 1571.67 Q1292.49 1569.12 1292.49 1562.44 L1292.49 1543.09 L1288.19 1543.09 L1288.19 1538.54 L1292.49 1538.54 L1292.49 1528.42 L1298.37 1528.42 Z" fill="#000000" fill-rule="nonzero" fill-opacity="1" /><path clip-path="url(#clip300)" d="M1340.87 1539.59 L1340.87 1545.13 Q1338.38 1543.85 1335.71 1543.22 Q1333.04 1542.58 1330.17 1542.58 Q1325.81 1542.58 1323.61 1543.92 Q1321.45 1545.25 1321.45 1547.93 Q1321.45 1549.96 1323.01 1551.14 Q1324.57 1552.29 1329.28 1553.34 L1331.29 1553.78 Q1337.52 1555.12 1340.13 1557.57 Q1342.78 1559.99 1342.78 1564.35 Q1342.78 1569.32 1338.83 1572.21 Q1334.91 1575.11 1328.04 1575.11 Q1325.17 1575.11 1322.06 1574.54 Q1318.97 1573.99 1315.53 1572.88 L1315.53 1566.83 Q1318.78 1568.52 1321.93 1569.38 Q1325.08 1570.21 1328.17 1570.21 Q1332.3 1570.21 1334.53 1568.81 Q1336.76 1567.37 1336.76 1564.8 Q1336.76 1562.41 1335.14 1561.14 Q1333.55 1559.86 1328.1 1558.68 L1326.07 1558.21 Q1320.62 1557.06 1318.2 1554.71 Q1315.79 1552.32 1315.79 1548.18 Q1315.79 1543.15 1319.35 1540.42 Q1322.91 1537.68 1329.47 1537.68 Q1332.72 1537.68 1335.58 1538.16 Q1338.45 1538.63 1340.87 1539.59 Z" fill="#000000" fill-rule="nonzero" fill-opacity="1" /><path clip-path="url(#clip300)" d="M1386.89 1524.72 Q1382.62 1532.04 1380.56 1539.21 Q1378.49 1546.37 1378.49 1553.72 Q1378.49 1561.07 1380.56 1568.3 Q1382.66 1575.49 1386.89 1582.78 L1381.8 1582.78 Q1377.02 1575.3 1374.64 1568.07 Q1372.28 1560.85 1372.28 1553.72 Q1372.28 1546.62 1374.64 1539.43 Q1376.99 1532.24 1381.8 1524.72 L1386.89 1524.72 Z" fill="#000000" fill-rule="nonzero" fill-opacity="1" /><path clip-path="url(#clip300)" d="M1398.25 1524.66 L1404.11 1524.66 L1404.11 1574.19 L1398.25 1574.19 L1398.25 1524.66 Z" fill="#000000" fill-rule="nonzero" fill-opacity="1" /><path clip-path="url(#clip300)" d="M1430.18 1542.64 Q1425.47 1542.64 1422.73 1546.34 Q1419.99 1550 1419.99 1556.39 Q1419.99 1562.79 1422.7 1566.48 Q1425.43 1570.14 1430.18 1570.14 Q1434.86 1570.14 1437.59 1566.45 Q1440.33 1562.76 1440.33 1556.39 Q1440.33 1550.06 1437.59 1546.37 Q1434.86 1542.64 1430.18 1542.64 M1430.18 1537.68 Q1437.82 1537.68 1442.18 1542.64 Q1446.54 1547.61 1446.54 1556.39 Q1446.54 1565.15 1442.18 1570.14 Q1437.82 1575.11 1430.18 1575.11 Q1422.51 1575.11 1418.15 1570.14 Q1413.82 1565.15 1413.82 1556.39 Q1413.82 1547.61 1418.15 1542.64 Q1422.51 1537.68 1430.18 1537.68 Z" fill="#000000" fill-rule="nonzero" fill-opacity="1" /><path clip-path="url(#clip300)" d="M1479.7 1555.95 Q1479.7 1549.58 1477.06 1546.08 Q1474.45 1542.58 1469.71 1542.58 Q1465 1542.58 1462.36 1546.08 Q1459.75 1549.58 1459.75 1555.95 Q1459.75 1562.28 1462.36 1565.78 Q1465 1569.28 1469.71 1569.28 Q1474.45 1569.28 1477.06 1565.78 Q1479.7 1562.28 1479.7 1555.95 M1485.56 1569.76 Q1485.56 1578.86 1481.52 1583.29 Q1477.47 1587.74 1469.13 1587.74 Q1466.05 1587.74 1463.31 1587.27 Q1460.57 1586.82 1457.99 1585.87 L1457.99 1580.17 Q1460.57 1581.57 1463.09 1582.24 Q1465.6 1582.91 1468.21 1582.91 Q1473.97 1582.91 1476.84 1579.88 Q1479.7 1576.89 1479.7 1570.81 L1479.7 1567.92 Q1477.89 1571.07 1475.06 1572.63 Q1472.22 1574.19 1468.28 1574.19 Q1461.72 1574.19 1457.71 1569.19 Q1453.7 1564.19 1453.7 1555.95 Q1453.7 1547.67 1457.71 1542.68 Q1461.72 1537.68 1468.28 1537.68 Q1472.22 1537.68 1475.06 1539.24 Q1477.89 1540.8 1479.7 1543.95 L1479.7 1538.54 L1485.56 1538.54 L1485.56 1569.76 Z" fill="#000000" fill-rule="nonzero" fill-opacity="1" /><path clip-path="url(#clip300)" d="M1499.56 1568.77 L1510.07 1568.77 L1510.07 1532.52 L1498.64 1534.81 L1498.64 1528.96 L1510 1526.67 L1516.43 1526.67 L1516.43 1568.77 L1526.94 1568.77 L1526.94 1574.19 L1499.56 1574.19 L1499.56 1568.77 Z" fill="#000000" fill-rule="nonzero" fill-opacity="1" /><path clip-path="url(#clip300)" d="M1553.67 1530.9 Q1548.71 1530.9 1546.19 1535.8 Q1543.71 1540.67 1543.71 1550.47 Q1543.71 1560.24 1546.19 1565.15 Q1548.71 1570.02 1553.67 1570.02 Q1558.67 1570.02 1561.15 1565.15 Q1563.67 1560.24 1563.67 1550.47 Q1563.67 1540.67 1561.15 1535.8 Q1558.67 1530.9 1553.67 1530.9 M1553.67 1525.81 Q1561.66 1525.81 1565.86 1532.14 Q1570.1 1538.44 1570.1 1550.47 Q1570.1 1562.47 1565.86 1568.81 Q1561.66 1575.11 1553.67 1575.11 Q1545.68 1575.11 1541.45 1568.81 Q1537.25 1562.47 1537.25 1550.47 Q1537.25 1538.44 1541.45 1532.14 Q1545.68 1525.81 1553.67 1525.81 Z" fill="#000000" fill-rule="nonzero" fill-opacity="1" /><path clip-path="url(#clip300)" d="M1579.64 1524.72 L1584.74 1524.72 Q1589.51 1532.24 1591.87 1539.43 Q1594.25 1546.62 1594.25 1553.72 Q1594.25 1560.85 1591.87 1568.07 Q1589.51 1575.3 1584.74 1582.78 L1579.64 1582.78 Q1583.88 1575.49 1585.95 1568.3 Q1588.05 1561.07 1588.05 1553.72 Q1588.05 1546.37 1585.95 1539.21 Q1583.88 1532.04 1579.64 1524.72 Z" fill="#000000" fill-rule="nonzero" fill-opacity="1" /><polyline clip-path="url(#clip302)" style="stroke:#000000; stroke-linecap:round; stroke-linejoin:round; stroke-width:2; stroke-opacity:0.1; fill:none" points="221.618,851.802 2352.76,851.802 "/>
<polyline clip-path="url(#clip302)" style="stroke:#000000; stroke-linecap:round; stroke-linejoin:round; stroke-width:2; stroke-opacity:0.1; fill:none" points="221.618,257.75 2352.76,257.75 "/>
<polyline clip-path="url(#clip300)" style="stroke:#000000; stroke-linecap:round; stroke-linejoin:round; stroke-width:4; stroke-opacity:1; fill:none" points="221.618,1410.9 221.618,47.2441 "/>
<polyline clip-path="url(#clip300)" style="stroke:#000000; stroke-linecap:round; stroke-linejoin:round; stroke-width:4; stroke-opacity:1; fill:none" points="221.618,851.802 240.516,851.802 "/>
<polyline clip-path="url(#clip300)" style="stroke:#000000; stroke-linecap:round; stroke-linejoin:round; stroke-width:4; stroke-opacity:1; fill:none" points="221.618,257.75 240.516,257.75 "/>
<path clip-path="url(#clip300)" d="M114.931 871.594 L122.57 871.594 L122.57 845.229 L114.26 846.896 L114.26 842.636 L122.524 840.97 L127.2 840.97 L127.2 871.594 L134.839 871.594 L134.839 875.53 L114.931 875.53 L114.931 871.594 Z" fill="#000000" fill-rule="nonzero" fill-opacity="1" /><path clip-path="url(#clip300)" d="M154.283 844.048 Q150.672 844.048 148.843 847.613 Q147.038 851.155 147.038 858.284 Q147.038 865.391 148.843 868.956 Q150.672 872.497 154.283 872.497 Q157.917 872.497 159.723 868.956 Q161.552 865.391 161.552 858.284 Q161.552 851.155 159.723 847.613 Q157.917 844.048 154.283 844.048 M154.283 840.345 Q160.093 840.345 163.149 844.951 Q166.227 849.534 166.227 858.284 Q166.227 867.011 163.149 871.618 Q160.093 876.201 154.283 876.201 Q148.473 876.201 145.394 871.618 Q142.339 867.011 142.339 858.284 Q142.339 849.534 145.394 844.951 Q148.473 840.345 154.283 840.345 Z" fill="#000000" fill-rule="nonzero" fill-opacity="1" /><path clip-path="url(#clip300)" d="M176.252 832.565 Q173.694 832.565 172.19 834.314 Q170.704 836.063 170.704 839.11 Q170.704 842.138 172.19 843.906 Q173.694 845.655 176.252 845.655 Q178.81 845.655 180.296 843.906 Q181.8 842.138 181.8 839.11 Q181.8 836.063 180.296 834.314 Q178.81 832.565 176.252 832.565 M183.794 820.66 L183.794 824.121 Q182.365 823.443 180.898 823.086 Q179.449 822.729 178.02 822.729 Q174.258 822.729 172.265 825.268 Q170.29 827.807 170.008 832.941 Q171.117 831.305 172.791 830.44 Q174.465 829.556 176.478 829.556 Q180.709 829.556 183.154 832.133 Q185.618 834.69 185.618 839.11 Q185.618 843.436 183.06 846.05 Q180.503 848.665 176.252 848.665 Q171.381 848.665 168.804 844.941 Q166.227 841.198 166.227 834.107 Q166.227 827.45 169.387 823.5 Q172.547 819.531 177.869 819.531 Q179.299 819.531 180.747 819.814 Q182.214 820.096 183.794 820.66 Z" fill="#000000" fill-rule="nonzero" fill-opacity="1" /><path clip-path="url(#clip300)" d="M114.95 277.543 L122.589 277.543 L122.589 251.177 L114.279 252.844 L114.279 248.585 L122.543 246.918 L127.219 246.918 L127.219 277.543 L134.858 277.543 L134.858 281.478 L114.95 281.478 L114.95 277.543 Z" fill="#000000" fill-rule="nonzero" fill-opacity="1" /><path clip-path="url(#clip300)" d="M154.302 249.997 Q150.691 249.997 148.862 253.561 Q147.057 257.103 147.057 264.233 Q147.057 271.339 148.862 274.904 Q150.691 278.446 154.302 278.446 Q157.936 278.446 159.742 274.904 Q161.57 271.339 161.57 264.233 Q161.57 257.103 159.742 253.561 Q157.936 249.997 154.302 249.997 M154.302 246.293 Q160.112 246.293 163.168 250.899 Q166.246 255.483 166.246 264.233 Q166.246 272.96 163.168 277.566 Q160.112 282.149 154.302 282.149 Q148.492 282.149 145.413 277.566 Q142.358 272.96 142.358 264.233 Q142.358 255.483 145.413 250.899 Q148.492 246.293 154.302 246.293 Z" fill="#000000" fill-rule="nonzero" fill-opacity="1" /><path clip-path="url(#clip300)" d="M168.052 253.485 L168.052 250.024 Q169.481 250.701 170.948 251.058 Q172.415 251.416 173.826 251.416 Q177.587 251.416 179.562 248.895 Q181.556 246.356 181.838 241.203 Q180.747 242.821 179.073 243.686 Q177.399 244.551 175.368 244.551 Q171.155 244.551 168.691 242.012 Q166.246 239.454 166.246 235.034 Q166.246 230.708 168.804 228.094 Q171.362 225.48 175.613 225.48 Q180.484 225.48 183.042 229.223 Q185.618 232.946 185.618 240.056 Q185.618 246.695 182.459 250.663 Q179.318 254.613 173.995 254.613 Q172.566 254.613 171.099 254.331 Q169.632 254.049 168.052 253.485 M175.613 241.579 Q178.17 241.579 179.656 239.83 Q181.161 238.081 181.161 235.034 Q181.161 232.006 179.656 230.257 Q178.17 228.489 175.613 228.489 Q173.055 228.489 171.55 230.257 Q170.064 232.006 170.064 235.034 Q170.064 238.081 171.55 239.83 Q173.055 241.579 175.613 241.579 Z" fill="#000000" fill-rule="nonzero" fill-opacity="1" /><path clip-path="url(#clip300)" d="M14.5426 825.447 Q21.8632 829.712 29.0246 831.781 Q36.186 833.85 43.5384 833.85 Q50.8908 833.85 58.1159 831.781 Q65.3091 829.68 72.5979 825.447 L72.5979 830.54 Q65.1182 835.314 57.8931 837.701 Q50.668 840.056 43.5384 840.056 Q36.4406 840.056 29.2474 837.701 Q22.0542 835.346 14.5426 830.54 L14.5426 825.447 Z" fill="#000000" fill-rule="nonzero" fill-opacity="1" /><path clip-path="url(#clip300)" d="M14.479 814.084 L14.479 808.228 L64.0042 808.228 L64.0042 814.084 L14.479 814.084 Z" fill="#000000" fill-rule="nonzero" fill-opacity="1" /><path clip-path="url(#clip300)" d="M32.4621 782.16 Q32.4621 786.871 36.1542 789.608 Q39.8145 792.345 46.212 792.345 Q52.6095 792.345 56.3017 789.64 Q59.9619 786.903 59.9619 782.16 Q59.9619 777.482 56.2698 774.744 Q52.5777 772.007 46.212 772.007 Q39.8781 772.007 36.186 774.744 Q32.4621 777.482 32.4621 782.16 M27.4968 782.16 Q27.4968 774.522 32.4621 770.161 Q37.4273 765.8 46.212 765.8 Q54.9649 765.8 59.9619 770.161 Q64.9272 774.522 64.9272 782.16 Q64.9272 789.831 59.9619 794.192 Q54.9649 798.52 46.212 798.52 Q37.4273 798.52 32.4621 794.192 Q27.4968 789.831 27.4968 782.16 Z" fill="#000000" fill-rule="nonzero" fill-opacity="1" /><path clip-path="url(#clip300)" d="M45.7664 732.635 Q39.4007 732.635 35.8996 735.277 Q32.3984 737.887 32.3984 742.629 Q32.3984 747.34 35.8996 749.982 Q39.4007 752.592 45.7664 752.592 Q52.1003 752.592 55.6014 749.982 Q59.1026 747.34 59.1026 742.629 Q59.1026 737.887 55.6014 735.277 Q52.1003 732.635 45.7664 732.635 M59.58 726.779 Q68.683 726.779 73.1071 730.821 Q77.5631 734.863 77.5631 743.202 Q77.5631 746.29 77.0857 749.027 Q76.6401 751.764 75.6852 754.342 L69.9879 754.342 Q71.3884 751.764 72.0568 749.25 Q72.7252 746.735 72.7252 744.125 Q72.7252 738.364 69.7015 735.5 Q66.7096 732.635 60.6303 732.635 L57.7339 732.635 Q60.885 734.449 62.4446 737.282 Q64.0042 740.115 64.0042 744.062 Q64.0042 750.618 59.0071 754.629 Q54.01 758.639 45.7664 758.639 Q37.491 758.639 32.4939 754.629 Q27.4968 750.618 27.4968 744.062 Q27.4968 740.115 29.0564 737.282 Q30.616 734.449 33.7671 732.635 L28.3562 732.635 L28.3562 726.779 L59.58 726.779 Z" fill="#000000" fill-rule="nonzero" fill-opacity="1" /><path clip-path="url(#clip300)" d="M58.5933 712.774 L58.5933 702.271 L22.3406 702.271 L24.6323 713.697 L18.7758 713.697 L16.4842 702.334 L16.4842 695.905 L58.5933 695.905 L58.5933 685.402 L64.0042 685.402 L64.0042 712.774 L58.5933 712.774 Z" fill="#000000" fill-rule="nonzero" fill-opacity="1" /><path clip-path="url(#clip300)" d="M20.7174 658.666 Q20.7174 663.631 25.6189 666.145 Q30.4887 668.628 40.2919 668.628 Q50.0633 668.628 54.9649 666.145 Q59.8346 663.631 59.8346 658.666 Q59.8346 653.669 54.9649 651.186 Q50.0633 648.671 40.2919 648.671 Q30.4887 648.671 25.6189 651.186 Q20.7174 653.669 20.7174 658.666 M15.6248 658.666 Q15.6248 650.677 21.9587 646.475 Q28.2607 642.242 40.2919 642.242 Q52.2913 642.242 58.6251 646.475 Q64.9272 650.677 64.9272 658.666 Q64.9272 666.655 58.6251 670.888 Q52.2913 675.089 40.2919 675.089 Q28.2607 675.089 21.9587 670.888 Q15.6248 666.655 15.6248 658.666 Z" fill="#000000" fill-rule="nonzero" fill-opacity="1" /><path clip-path="url(#clip300)" d="M14.5426 632.694 L14.5426 627.601 Q22.0542 622.827 29.2474 620.471 Q36.4406 618.084 43.5384 618.084 Q50.668 618.084 57.8931 620.471 Q65.1182 622.827 72.5979 627.601 L72.5979 632.694 Q65.3091 628.46 58.1159 626.392 Q50.8908 624.291 43.5384 624.291 Q36.186 624.291 29.0246 626.392 Q21.8632 628.46 14.5426 632.694 Z" fill="#000000" fill-rule="nonzero" fill-opacity="1" /><polyline clip-path="url(#clip302)" style="stroke:#009af9; stroke-linecap:round; stroke-linejoin:round; stroke-width:4; stroke-opacity:1; fill:none" points="281.933,1167.45 533.247,1048.83 784.56,929.842 1035.87,810.401 1287.19,690.818 1538.5,559.634 1789.81,437.289 2041.13,317.303 2292.44,197.866 "/>
<circle clip-path="url(#clip302)" cx="281.933" cy="1167.45" r="14.4" fill="#009af9" fill-rule="evenodd" fill-opacity="1" stroke="#000000" stroke-opacity="1" stroke-width="3.2"/>
<circle clip-path="url(#clip302)" cx="533.247" cy="1048.83" r="14.4" fill="#009af9" fill-rule="evenodd" fill-opacity="1" stroke="#000000" stroke-opacity="1" stroke-width="3.2"/>
<circle clip-path="url(#clip302)" cx="784.56" cy="929.842" r="14.4" fill="#009af9" fill-rule="evenodd" fill-opacity="1" stroke="#000000" stroke-opacity="1" stroke-width="3.2"/>
<circle clip-path="url(#clip302)" cx="1035.87" cy="810.401" r="14.4" fill="#009af9" fill-rule="evenodd" fill-opacity="1" stroke="#000000" stroke-opacity="1" stroke-width="3.2"/>
<circle clip-path="url(#clip302)" cx="1287.19" cy="690.818" r="14.4" fill="#009af9" fill-rule="evenodd" fill-opacity="1" stroke="#000000" stroke-opacity="1" stroke-width="3.2"/>
<circle clip-path="url(#clip302)" cx="1538.5" cy="559.634" r="14.4" fill="#009af9" fill-rule="evenodd" fill-opacity="1" stroke="#000000" stroke-opacity="1" stroke-width="3.2"/>
<circle clip-path="url(#clip302)" cx="1789.81" cy="437.289" r="14.4" fill="#009af9" fill-rule="evenodd" fill-opacity="1" stroke="#000000" stroke-opacity="1" stroke-width="3.2"/>
<circle clip-path="url(#clip302)" cx="2041.13" cy="317.303" r="14.4" fill="#009af9" fill-rule="evenodd" fill-opacity="1" stroke="#000000" stroke-opacity="1" stroke-width="3.2"/>
<circle clip-path="url(#clip302)" cx="2292.44" cy="197.866" r="14.4" fill="#009af9" fill-rule="evenodd" fill-opacity="1" stroke="#000000" stroke-opacity="1" stroke-width="3.2"/>
<polyline clip-path="url(#clip302)" style="stroke:#e26f46; stroke-linecap:round; stroke-linejoin:round; stroke-width:4; stroke-opacity:1; fill:none" points="281.933,1372.3 533.247,1253.52 784.56,1134.42 1035.87,1015.22 1287.19,896.014 1538.5,776.798 1789.81,657.58 2041.13,538.362 2292.44,419.144 "/>
<path clip-path="url(#clip302)" d="M265.933 1356.3 L265.933 1388.3 L297.933 1388.3 L297.933 1356.3 L265.933 1356.3 Z" fill="#e26f46" fill-rule="evenodd" fill-opacity="1" stroke="#000000" stroke-opacity="1" stroke-width="3.2"/>
<path clip-path="url(#clip302)" d="M517.247 1237.52 L517.247 1269.52 L549.247 1269.52 L549.247 1237.52 L517.247 1237.52 Z" fill="#e26f46" fill-rule="evenodd" fill-opacity="1" stroke="#000000" stroke-opacity="1" stroke-width="3.2"/>
<path clip-path="url(#clip302)" d="M768.56 1118.42 L768.56 1150.42 L800.56 1150.42 L800.56 1118.42 L768.56 1118.42 Z" fill="#e26f46" fill-rule="evenodd" fill-opacity="1" stroke="#000000" stroke-opacity="1" stroke-width="3.2"/>
<path clip-path="url(#clip302)" d="M1019.87 999.223 L1019.87 1031.22 L1051.87 1031.22 L1051.87 999.223 L1019.87 999.223 Z" fill="#e26f46" fill-rule="evenodd" fill-opacity="1" stroke="#000000" stroke-opacity="1" stroke-width="3.2"/>
<path clip-path="url(#clip302)" d="M1271.19 880.014 L1271.19 912.014 L1303.19 912.014 L1303.19 880.014 L1271.19 880.014 Z" fill="#e26f46" fill-rule="evenodd" fill-opacity="1" stroke="#000000" stroke-opacity="1" stroke-width="3.2"/>
<path clip-path="url(#clip302)" d="M1522.5 760.798 L1522.5 792.798 L1554.5 792.798 L1554.5 760.798 L1522.5 760.798 Z" fill="#e26f46" fill-rule="evenodd" fill-opacity="1" stroke="#000000" stroke-opacity="1" stroke-width="3.2"/>
<path clip-path="url(#clip302)" d="M1773.81 641.58 L1773.81 673.58 L1805.81 673.58 L1805.81 641.58 L1773.81 641.58 Z" fill="#e26f46" fill-rule="evenodd" fill-opacity="1" stroke="#000000" stroke-opacity="1" stroke-width="3.2"/>
<path clip-path="url(#clip302)" d="M2025.13 522.362 L2025.13 554.362 L2057.13 554.362 L2057.13 522.362 L2025.13 522.362 Z" fill="#e26f46" fill-rule="evenodd" fill-opacity="1" stroke="#000000" stroke-opacity="1" stroke-width="3.2"/>
<path clip-path="url(#clip302)" d="M2276.44 403.144 L2276.44 435.144 L2308.44 435.144 L2308.44 403.144 L2276.44 403.144 Z" fill="#e26f46" fill-rule="evenodd" fill-opacity="1" stroke="#000000" stroke-opacity="1" stroke-width="3.2"/>
<polyline clip-path="url(#clip302)" style="stroke:#3da44d; stroke-linecap:round; stroke-linejoin:round; stroke-width:4; stroke-opacity:1; fill:none" points="281.933,1039.22 533.247,920.307 784.56,801.123 1035.87,681.942 1287.19,562.72 1538.5,443.497 1789.81,324.277 2041.13,205.057 2292.44,85.838 "/>
<path clip-path="url(#clip302)" d="M281.933 1023.22 L265.933 1039.22 L281.933 1055.22 L297.933 1039.22 L281.933 1023.22 Z" fill="#3da44d" fill-rule="evenodd" fill-opacity="1" stroke="#000000" stroke-opacity="1" stroke-width="3.2"/>
<path clip-path="url(#clip302)" d="M533.247 904.307 L517.247 920.307 L533.247 936.307 L549.247 920.307 L533.247 904.307 Z" fill="#3da44d" fill-rule="evenodd" fill-opacity="1" stroke="#000000" stroke-opacity="1" stroke-width="3.2"/>
<path clip-path="url(#clip302)" d="M784.56 785.123 L768.56 801.123 L784.56 817.123 L800.56 801.123 L784.56 785.123 Z" fill="#3da44d" fill-rule="evenodd" fill-opacity="1" stroke="#000000" stroke-opacity="1" stroke-width="3.2"/>
<path clip-path="url(#clip302)" d="M1035.87 665.942 L1019.87 681.942 L1035.87 697.942 L1051.87 681.942 L1035.87 665.942 Z" fill="#3da44d" fill-rule="evenodd" fill-opacity="1" stroke="#000000" stroke-opacity="1" stroke-width="3.2"/>
<path clip-path="url(#clip302)" d="M1287.19 546.72 L1271.19 562.72 L1287.19 578.72 L1303.19 562.72 L1287.19 546.72 Z" fill="#3da44d" fill-rule="evenodd" fill-opacity="1" stroke="#000000" stroke-opacity="1" stroke-width="3.2"/>
<path clip-path="url(#clip302)" d="M1538.5 427.497 L1522.5 443.497 L1538.5 459.497 L1554.5 443.497 L1538.5 427.497 Z" fill="#3da44d" fill-rule="evenodd" fill-opacity="1" stroke="#000000" stroke-opacity="1" stroke-width="3.2"/>
<path clip-path="url(#clip302)" d="M1789.81 308.277 L1773.81 324.277 L1789.81 340.277 L1805.81 324.277 L1789.81 308.277 Z" fill="#3da44d" fill-rule="evenodd" fill-opacity="1" stroke="#000000" stroke-opacity="1" stroke-width="3.2"/>
<path clip-path="url(#clip302)" d="M2041.13 189.057 L2025.13 205.057 L2041.13 221.057 L2057.13 205.057 L2041.13 189.057 Z" fill="#3da44d" fill-rule="evenodd" fill-opacity="1" stroke="#000000" stroke-opacity="1" stroke-width="3.2"/>
<path clip-path="url(#clip302)" d="M2292.44 69.838 L2276.44 85.838 L2292.44 101.838 L2308.44 85.838 L2292.44 69.838 Z" fill="#3da44d" fill-rule="evenodd" fill-opacity="1" stroke="#000000" stroke-opacity="1" stroke-width="3.2"/>
<path clip-path="url(#clip300)" d="M292.656 300.059 L951.346 300.059 L951.346 92.6992 L292.656 92.6992  Z" fill="#ffffff" fill-rule="evenodd" fill-opacity="1"/>
<polyline clip-path="url(#clip300)" style="stroke:#000000; stroke-linecap:round; stroke-linejoin:round; stroke-width:4; stroke-opacity:1; fill:none" points="292.656,300.059 951.346,300.059 951.346,92.6992 292.656,92.6992 292.656,300.059 "/>
<polyline clip-path="url(#clip300)" style="stroke:#009af9; stroke-linecap:round; stroke-linejoin:round; stroke-width:4; stroke-opacity:1; fill:none" points="316.336,144.539 458.411,144.539 "/>
<circle clip-path="url(#clip300)" cx="387.373" cy="144.539" r="19.7328" fill="#009af9" fill-rule="evenodd" fill-opacity="1" stroke="#000000" stroke-opacity="1" stroke-width="4.55111"/>
<path clip-path="url(#clip300)" d="M502.438 140.87 Q504.035 138 506.257 136.634 Q508.479 135.268 511.489 135.268 Q515.54 135.268 517.739 138.116 Q519.938 140.94 519.938 146.171 L519.938 161.819 L515.655 161.819 L515.655 146.31 Q515.655 142.583 514.336 140.778 Q513.016 138.972 510.308 138.972 Q506.998 138.972 505.077 141.171 Q503.155 143.37 503.155 147.166 L503.155 161.819 L498.873 161.819 L498.873 146.31 Q498.873 142.56 497.554 140.778 Q496.234 138.972 493.479 138.972 Q490.216 138.972 488.294 141.194 Q486.373 143.393 486.373 147.166 L486.373 161.819 L482.091 161.819 L482.091 135.893 L486.373 135.893 L486.373 139.921 Q487.831 137.537 489.868 136.403 Q491.905 135.268 494.706 135.268 Q497.53 135.268 499.498 136.704 Q501.489 138.139 502.438 140.87 Z" fill="#000000" fill-rule="nonzero" fill-opacity="1" /><path clip-path="url(#clip300)" d="M528.433 135.893 L532.692 135.893 L532.692 161.819 L528.433 161.819 L528.433 135.893 M528.433 125.801 L532.692 125.801 L532.692 131.194 L528.433 131.194 L528.433 125.801 Z" fill="#000000" fill-rule="nonzero" fill-opacity="1" /><path clip-path="url(#clip300)" d="M563.155 146.171 L563.155 161.819 L558.896 161.819 L558.896 146.31 Q558.896 142.629 557.461 140.801 Q556.025 138.972 553.155 138.972 Q549.706 138.972 547.715 141.171 Q545.725 143.37 545.725 147.166 L545.725 161.819 L541.442 161.819 L541.442 135.893 L545.725 135.893 L545.725 139.921 Q547.252 137.583 549.313 136.426 Q551.396 135.268 554.104 135.268 Q558.572 135.268 560.863 138.046 Q563.155 140.801 563.155 146.171 Z" fill="#000000" fill-rule="nonzero" fill-opacity="1" /><path clip-path="url(#clip300)" d="M571.65 135.893 L575.91 135.893 L575.91 161.819 L571.65 161.819 L571.65 135.893 M571.65 125.801 L575.91 125.801 L575.91 131.194 L571.65 131.194 L571.65 125.801 Z" fill="#000000" fill-rule="nonzero" fill-opacity="1" /><path clip-path="url(#clip300)" d="M605.007 140.87 Q606.604 138 608.826 136.634 Q611.048 135.268 614.058 135.268 Q618.108 135.268 620.308 138.116 Q622.507 140.94 622.507 146.171 L622.507 161.819 L618.224 161.819 L618.224 146.31 Q618.224 142.583 616.905 140.778 Q615.585 138.972 612.877 138.972 Q609.567 138.972 607.646 141.171 Q605.724 143.37 605.724 147.166 L605.724 161.819 L601.442 161.819 L601.442 146.31 Q601.442 142.56 600.122 140.778 Q598.803 138.972 596.048 138.972 Q592.785 138.972 590.863 141.194 Q588.942 143.393 588.942 147.166 L588.942 161.819 L584.66 161.819 L584.66 135.893 L588.942 135.893 L588.942 139.921 Q590.4 137.537 592.437 136.403 Q594.474 135.268 597.275 135.268 Q600.099 135.268 602.067 136.704 Q604.058 138.139 605.007 140.87 Z" fill="#000000" fill-rule="nonzero" fill-opacity="1" /><path clip-path="url(#clip300)" d="M630.562 151.588 L630.562 135.893 L634.821 135.893 L634.821 151.426 Q634.821 155.106 636.256 156.958 Q637.692 158.787 640.562 158.787 Q644.011 158.787 646.002 156.588 Q648.016 154.389 648.016 150.592 L648.016 135.893 L652.275 135.893 L652.275 161.819 L648.016 161.819 L648.016 157.838 Q646.465 160.199 644.405 161.356 Q642.368 162.49 639.659 162.49 Q635.192 162.49 632.877 159.713 Q630.562 156.935 630.562 151.588 M641.28 135.268 L641.28 135.268 Z" fill="#000000" fill-rule="nonzero" fill-opacity="1" /><path clip-path="url(#clip300)" d="M681.233 140.87 Q682.83 138 685.053 136.634 Q687.275 135.268 690.284 135.268 Q694.335 135.268 696.534 138.116 Q698.733 140.94 698.733 146.171 L698.733 161.819 L694.451 161.819 L694.451 146.31 Q694.451 142.583 693.131 140.778 Q691.812 138.972 689.103 138.972 Q685.793 138.972 683.872 141.171 Q681.951 143.37 681.951 147.166 L681.951 161.819 L677.668 161.819 L677.668 146.31 Q677.668 142.56 676.349 140.778 Q675.029 138.972 672.275 138.972 Q669.011 138.972 667.09 141.194 Q665.168 143.393 665.168 147.166 L665.168 161.819 L660.886 161.819 L660.886 135.893 L665.168 135.893 L665.168 139.921 Q666.627 137.537 668.664 136.403 Q670.701 135.268 673.502 135.268 Q676.326 135.268 678.293 136.704 Q680.284 138.139 681.233 140.87 Z" fill="#000000" fill-rule="nonzero" fill-opacity="1" /><path clip-path="url(#clip300)" d="M726.511 128.532 L726.511 135.893 L735.284 135.893 L735.284 139.204 L726.511 139.204 L726.511 153.278 Q726.511 156.449 727.367 157.352 Q728.247 158.254 730.909 158.254 L735.284 158.254 L735.284 161.819 L730.909 161.819 Q725.978 161.819 724.103 159.99 Q722.228 158.139 722.228 153.278 L722.228 139.204 L719.103 139.204 L719.103 135.893 L722.228 135.893 L722.228 128.532 L726.511 128.532 Z" fill="#000000" fill-rule="nonzero" fill-opacity="1" /><path clip-path="url(#clip300)" d="M740.886 135.893 L745.145 135.893 L745.145 161.819 L740.886 161.819 L740.886 135.893 M740.886 125.801 L745.145 125.801 L745.145 131.194 L740.886 131.194 L740.886 125.801 Z" fill="#000000" fill-rule="nonzero" fill-opacity="1" /><path clip-path="url(#clip300)" d="M774.242 140.87 Q775.839 138 778.061 136.634 Q780.284 135.268 783.293 135.268 Q787.344 135.268 789.543 138.116 Q791.742 140.94 791.742 146.171 L791.742 161.819 L787.459 161.819 L787.459 146.31 Q787.459 142.583 786.14 140.778 Q784.821 138.972 782.112 138.972 Q778.802 138.972 776.881 141.171 Q774.959 143.37 774.959 147.166 L774.959 161.819 L770.677 161.819 L770.677 146.31 Q770.677 142.56 769.358 140.778 Q768.038 138.972 765.284 138.972 Q762.02 138.972 760.098 141.194 Q758.177 143.393 758.177 147.166 L758.177 161.819 L753.895 161.819 L753.895 135.893 L758.177 135.893 L758.177 139.921 Q759.635 137.537 761.672 136.403 Q763.71 135.268 766.51 135.268 Q769.334 135.268 771.302 136.704 Q773.293 138.139 774.242 140.87 Z" fill="#000000" fill-rule="nonzero" fill-opacity="1" /><path clip-path="url(#clip300)" d="M822.413 147.791 L822.413 149.875 L802.83 149.875 Q803.107 154.273 805.469 156.588 Q807.853 158.879 812.089 158.879 Q814.543 158.879 816.834 158.278 Q819.149 157.676 821.418 156.472 L821.418 160.5 Q819.126 161.472 816.718 161.981 Q814.311 162.49 811.834 162.49 Q805.631 162.49 801.996 158.879 Q798.385 155.268 798.385 149.111 Q798.385 142.745 801.811 139.018 Q805.26 135.268 811.094 135.268 Q816.325 135.268 819.357 138.648 Q822.413 142.004 822.413 147.791 M818.154 146.541 Q818.107 143.046 816.186 140.963 Q814.288 138.879 811.14 138.879 Q807.575 138.879 805.422 140.893 Q803.293 142.907 802.969 146.565 L818.154 146.541 Z" fill="#000000" fill-rule="nonzero" fill-opacity="1" /><path clip-path="url(#clip300)" d="M854.704 125.847 Q851.603 131.171 850.098 136.38 Q848.593 141.588 848.593 146.935 Q848.593 152.282 850.098 157.537 Q851.626 162.768 854.704 168.069 L851.001 168.069 Q847.529 162.629 845.792 157.375 Q844.079 152.12 844.079 146.935 Q844.079 141.773 845.792 136.542 Q847.505 131.31 851.001 125.847 L854.704 125.847 Z" fill="#000000" fill-rule="nonzero" fill-opacity="1" /><path clip-path="url(#clip300)" d="M884.519 146.171 L884.519 161.819 L880.26 161.819 L880.26 146.31 Q880.26 142.629 878.825 140.801 Q877.389 138.972 874.519 138.972 Q871.07 138.972 869.079 141.171 Q867.089 143.37 867.089 147.166 L867.089 161.819 L862.806 161.819 L862.806 135.893 L867.089 135.893 L867.089 139.921 Q868.616 137.583 870.677 136.426 Q872.76 135.268 875.468 135.268 Q879.936 135.268 882.227 138.046 Q884.519 140.801 884.519 146.171 Z" fill="#000000" fill-rule="nonzero" fill-opacity="1" /><path clip-path="url(#clip300)" d="M909.542 136.657 L909.542 140.685 Q907.737 139.759 905.792 139.296 Q903.848 138.833 901.764 138.833 Q898.593 138.833 896.996 139.805 Q895.422 140.778 895.422 142.722 Q895.422 144.204 896.556 145.06 Q897.69 145.893 901.116 146.657 L902.575 146.981 Q907.112 147.954 909.01 149.736 Q910.931 151.495 910.931 154.666 Q910.931 158.278 908.061 160.384 Q905.213 162.49 900.213 162.49 Q898.13 162.49 895.862 162.074 Q893.616 161.68 891.116 160.87 L891.116 156.472 Q893.477 157.699 895.769 158.324 Q898.061 158.926 900.306 158.926 Q903.315 158.926 904.936 157.907 Q906.556 156.866 906.556 154.991 Q906.556 153.254 905.375 152.328 Q904.218 151.403 900.26 150.546 L898.778 150.199 Q894.82 149.366 893.061 147.653 Q891.301 145.916 891.301 142.907 Q891.301 139.25 893.894 137.259 Q896.487 135.268 901.255 135.268 Q903.616 135.268 905.699 135.616 Q907.783 135.963 909.542 136.657 Z" fill="#000000" fill-rule="nonzero" fill-opacity="1" /><path clip-path="url(#clip300)" d="M917.042 125.847 L920.746 125.847 Q924.218 131.31 925.931 136.542 Q927.667 141.773 927.667 146.935 Q927.667 152.12 925.931 157.375 Q924.218 162.629 920.746 168.069 L917.042 168.069 Q920.121 162.768 921.625 157.537 Q923.153 152.282 923.153 146.935 Q923.153 141.588 921.625 136.38 Q920.121 131.171 917.042 125.847 Z" fill="#000000" fill-rule="nonzero" fill-opacity="1" /><polyline clip-path="url(#clip300)" style="stroke:#e26f46; stroke-linecap:round; stroke-linejoin:round; stroke-width:4; stroke-opacity:1; fill:none" points="316.336,196.379 458.411,196.379 "/>
<path clip-path="url(#clip300)" d="M365.448 174.454 L365.448 218.304 L409.299 218.304 L409.299 174.454 L365.448 174.454 Z" fill="#e26f46" fill-rule="evenodd" fill-opacity="1" stroke="#000000" stroke-opacity="1" stroke-width="4.55111"/>
<path clip-path="url(#clip300)" d="M495.493 200.627 Q490.331 200.627 488.341 201.807 Q486.35 202.988 486.35 205.835 Q486.35 208.104 487.831 209.446 Q489.336 210.766 491.905 210.766 Q495.447 210.766 497.577 208.266 Q499.729 205.743 499.729 201.576 L499.729 200.627 L495.493 200.627 M503.989 198.868 L503.989 213.659 L499.729 213.659 L499.729 209.724 Q498.271 212.085 496.095 213.219 Q493.919 214.33 490.771 214.33 Q486.79 214.33 484.429 212.108 Q482.091 209.863 482.091 206.113 Q482.091 201.738 485.007 199.516 Q487.947 197.294 493.757 197.294 L499.729 197.294 L499.729 196.877 Q499.729 193.937 497.785 192.34 Q495.864 190.719 492.368 190.719 Q490.146 190.719 488.04 191.252 Q485.933 191.784 483.989 192.849 L483.989 188.914 Q486.327 188.011 488.526 187.571 Q490.725 187.108 492.808 187.108 Q498.433 187.108 501.211 190.025 Q503.989 192.942 503.989 198.868 Z" fill="#000000" fill-rule="nonzero" fill-opacity="1" /><path clip-path="url(#clip300)" d="M512.762 177.641 L517.021 177.641 L517.021 213.659 L512.762 213.659 L512.762 177.641 Z" fill="#000000" fill-rule="nonzero" fill-opacity="1" /><path clip-path="url(#clip300)" d="M525.933 177.641 L530.192 177.641 L530.192 213.659 L525.933 213.659 L525.933 177.641 Z" fill="#000000" fill-rule="nonzero" fill-opacity="1" /><path clip-path="url(#clip300)" d="M549.15 190.719 Q545.725 190.719 543.734 193.405 Q541.743 196.067 541.743 200.719 Q541.743 205.372 543.711 208.057 Q545.701 210.719 549.15 210.719 Q552.553 210.719 554.544 208.034 Q556.535 205.349 556.535 200.719 Q556.535 196.113 554.544 193.428 Q552.553 190.719 549.15 190.719 M549.15 187.108 Q554.706 187.108 557.877 190.719 Q561.049 194.331 561.049 200.719 Q561.049 207.085 557.877 210.719 Q554.706 214.33 549.15 214.33 Q543.572 214.33 540.401 210.719 Q537.252 207.085 537.252 200.719 Q537.252 194.331 540.401 190.719 Q543.572 187.108 549.15 187.108 Z" fill="#000000" fill-rule="nonzero" fill-opacity="1" /><path clip-path="url(#clip300)" d="M586.766 188.729 L586.766 192.71 Q584.96 191.715 583.132 191.229 Q581.326 190.719 579.474 190.719 Q575.331 190.719 573.039 193.358 Q570.748 195.974 570.748 200.719 Q570.748 205.465 573.039 208.104 Q575.331 210.719 579.474 210.719 Q581.326 210.719 583.132 210.233 Q584.96 209.724 586.766 208.729 L586.766 212.664 Q584.984 213.497 583.062 213.914 Q581.164 214.33 579.011 214.33 Q573.155 214.33 569.706 210.65 Q566.257 206.969 566.257 200.719 Q566.257 194.377 569.729 190.743 Q573.224 187.108 579.289 187.108 Q581.257 187.108 583.132 187.525 Q585.007 187.919 586.766 188.729 Z" fill="#000000" fill-rule="nonzero" fill-opacity="1" /><path clip-path="url(#clip300)" d="M610.701 188.497 L610.701 192.525 Q608.896 191.599 606.951 191.136 Q605.007 190.673 602.923 190.673 Q599.752 190.673 598.155 191.645 Q596.581 192.618 596.581 194.562 Q596.581 196.044 597.715 196.9 Q598.849 197.733 602.275 198.497 L603.734 198.821 Q608.271 199.794 610.169 201.576 Q612.09 203.335 612.09 206.506 Q612.09 210.118 609.22 212.224 Q606.372 214.33 601.372 214.33 Q599.289 214.33 597.021 213.914 Q594.775 213.52 592.275 212.71 L592.275 208.312 Q594.636 209.539 596.928 210.164 Q599.22 210.766 601.465 210.766 Q604.474 210.766 606.095 209.747 Q607.715 208.706 607.715 206.831 Q607.715 205.094 606.534 204.168 Q605.377 203.243 601.419 202.386 L599.937 202.039 Q595.979 201.206 594.22 199.493 Q592.46 197.756 592.46 194.747 Q592.46 191.09 595.053 189.099 Q597.646 187.108 602.414 187.108 Q604.775 187.108 606.859 187.456 Q608.942 187.803 610.701 188.497 Z" fill="#000000" fill-rule="nonzero" fill-opacity="1" /><polyline clip-path="url(#clip300)" style="stroke:#3da44d; stroke-linecap:round; stroke-linejoin:round; stroke-width:4; stroke-opacity:1; fill:none" points="316.336,248.219 458.411,248.219 "/>
<path clip-path="url(#clip300)" d="M387.373 226.294 L365.448 248.219 L387.373 270.144 L409.299 248.219 L387.373 226.294 Z" fill="#3da44d" fill-rule="evenodd" fill-opacity="1" stroke="#000000" stroke-opacity="1" stroke-width="4.55111"/>
<path clip-path="url(#clip300)" d="M502.438 244.55 Q504.035 241.68 506.257 240.314 Q508.479 238.948 511.489 238.948 Q515.54 238.948 517.739 241.796 Q519.938 244.62 519.938 249.851 L519.938 265.499 L515.655 265.499 L515.655 249.99 Q515.655 246.263 514.336 244.458 Q513.016 242.652 510.308 242.652 Q506.998 242.652 505.077 244.851 Q503.155 247.05 503.155 250.846 L503.155 265.499 L498.873 265.499 L498.873 249.99 Q498.873 246.24 497.554 244.458 Q496.234 242.652 493.479 242.652 Q490.216 242.652 488.294 244.874 Q486.373 247.073 486.373 250.846 L486.373 265.499 L482.091 265.499 L482.091 239.573 L486.373 239.573 L486.373 243.601 Q487.831 241.217 489.868 240.083 Q491.905 238.948 494.706 238.948 Q497.53 238.948 499.498 240.384 Q501.489 241.819 502.438 244.55 Z" fill="#000000" fill-rule="nonzero" fill-opacity="1" /><path clip-path="url(#clip300)" d="M550.609 251.471 L550.609 253.555 L531.026 253.555 Q531.303 257.953 533.664 260.268 Q536.049 262.559 540.285 262.559 Q542.738 262.559 545.03 261.958 Q547.345 261.356 549.613 260.152 L549.613 264.18 Q547.322 265.152 544.914 265.661 Q542.507 266.17 540.03 266.17 Q533.826 266.17 530.192 262.559 Q526.581 258.948 526.581 252.791 Q526.581 246.425 530.007 242.698 Q533.456 238.948 539.289 238.948 Q544.521 238.948 547.553 242.328 Q550.609 245.684 550.609 251.471 M546.35 250.221 Q546.303 246.726 544.382 244.643 Q542.484 242.559 539.336 242.559 Q535.771 242.559 533.618 244.573 Q531.489 246.587 531.164 250.245 L546.35 250.221 Z" fill="#000000" fill-rule="nonzero" fill-opacity="1" /><path clip-path="url(#clip300)" d="M577.785 244.55 Q579.382 241.68 581.604 240.314 Q583.826 238.948 586.835 238.948 Q590.886 238.948 593.085 241.796 Q595.284 244.62 595.284 249.851 L595.284 265.499 L591.002 265.499 L591.002 249.99 Q591.002 246.263 589.683 244.458 Q588.363 242.652 585.655 242.652 Q582.345 242.652 580.423 244.851 Q578.502 247.05 578.502 250.846 L578.502 265.499 L574.22 265.499 L574.22 249.99 Q574.22 246.24 572.9 244.458 Q571.581 242.652 568.826 242.652 Q565.562 242.652 563.641 244.874 Q561.72 247.073 561.72 250.846 L561.72 265.499 L557.437 265.499 L557.437 239.573 L561.72 239.573 L561.72 243.601 Q563.178 241.217 565.215 240.083 Q567.252 238.948 570.053 238.948 Q572.877 238.948 574.845 240.384 Q576.836 241.819 577.785 244.55 Z" fill="#000000" fill-rule="nonzero" fill-opacity="1" /><path clip-path="url(#clip300)" d="M613.826 242.559 Q610.4 242.559 608.409 245.245 Q606.419 247.907 606.419 252.559 Q606.419 257.212 608.386 259.897 Q610.377 262.559 613.826 262.559 Q617.229 262.559 619.22 259.874 Q621.21 257.189 621.21 252.559 Q621.21 247.953 619.22 245.268 Q617.229 242.559 613.826 242.559 M613.826 238.948 Q619.382 238.948 622.553 242.559 Q625.724 246.171 625.724 252.559 Q625.724 258.925 622.553 262.559 Q619.382 266.17 613.826 266.17 Q608.247 266.17 605.076 262.559 Q601.928 258.925 601.928 252.559 Q601.928 246.171 605.076 242.559 Q608.247 238.948 613.826 238.948 Z" fill="#000000" fill-rule="nonzero" fill-opacity="1" /><path clip-path="url(#clip300)" d="M647.807 243.555 Q647.09 243.138 646.233 242.953 Q645.4 242.745 644.381 242.745 Q640.77 242.745 638.826 245.106 Q636.905 247.444 636.905 251.842 L636.905 265.499 L632.622 265.499 L632.622 239.573 L636.905 239.573 L636.905 243.601 Q638.247 241.24 640.4 240.106 Q642.553 238.948 645.631 238.948 Q646.071 238.948 646.604 239.018 Q647.136 239.064 647.784 239.18 L647.807 243.555 Z" fill="#000000" fill-rule="nonzero" fill-opacity="1" /><path clip-path="url(#clip300)" d="M663.062 267.907 Q661.256 272.536 659.543 273.948 Q657.83 275.36 654.96 275.36 L651.557 275.36 L651.557 271.795 L654.057 271.795 Q655.817 271.795 656.789 270.962 Q657.761 270.129 658.942 267.027 L659.705 265.083 L649.219 239.573 L653.733 239.573 L661.835 259.851 L669.937 239.573 L674.451 239.573 L663.062 267.907 Z" fill="#000000" fill-rule="nonzero" fill-opacity="1" /><path clip-path="url(#clip300)" d="M705.631 229.527 Q702.529 234.851 701.025 240.06 Q699.52 245.268 699.52 250.615 Q699.52 255.962 701.025 261.217 Q702.552 266.448 705.631 271.749 L701.927 271.749 Q698.455 266.309 696.719 261.055 Q695.006 255.8 695.006 250.615 Q695.006 245.453 696.719 240.222 Q698.432 234.99 701.927 229.527 L705.631 229.527 Z" fill="#000000" fill-rule="nonzero" fill-opacity="1" /><path clip-path="url(#clip300)" d="M732.506 252.559 Q732.506 247.86 730.562 245.198 Q728.64 242.513 725.261 242.513 Q721.881 242.513 719.937 245.198 Q718.015 247.86 718.015 252.559 Q718.015 257.258 719.937 259.944 Q721.881 262.606 725.261 262.606 Q728.64 262.606 730.562 259.944 Q732.506 257.258 732.506 252.559 M718.015 243.509 Q719.358 241.194 721.395 240.083 Q723.455 238.948 726.302 238.948 Q731.025 238.948 733.964 242.698 Q736.927 246.448 736.927 252.559 Q736.927 258.671 733.964 262.42 Q731.025 266.17 726.302 266.17 Q723.455 266.17 721.395 265.059 Q719.358 263.925 718.015 261.61 L718.015 265.499 L713.733 265.499 L713.733 229.481 L718.015 229.481 L718.015 243.509 Z" fill="#000000" fill-rule="nonzero" fill-opacity="1" /><path clip-path="url(#clip300)" d="M754.774 267.907 Q752.969 272.536 751.256 273.948 Q749.543 275.36 746.673 275.36 L743.27 275.36 L743.27 271.795 L745.77 271.795 Q747.529 271.795 748.501 270.962 Q749.473 270.129 750.654 267.027 L751.418 265.083 L740.932 239.573 L745.446 239.573 L753.548 259.851 L761.649 239.573 L766.163 239.573 L754.774 267.907 Z" fill="#000000" fill-rule="nonzero" fill-opacity="1" /><path clip-path="url(#clip300)" d="M776.256 232.212 L776.256 239.573 L785.029 239.573 L785.029 242.884 L776.256 242.884 L776.256 256.958 Q776.256 260.129 777.112 261.032 Q777.992 261.934 780.654 261.934 L785.029 261.934 L785.029 265.499 L780.654 265.499 Q775.723 265.499 773.848 263.67 Q771.973 261.819 771.973 256.958 L771.973 242.884 L768.848 242.884 L768.848 239.573 L771.973 239.573 L771.973 232.212 L776.256 232.212 Z" fill="#000000" fill-rule="nonzero" fill-opacity="1" /><path clip-path="url(#clip300)" d="M812.806 251.471 L812.806 253.555 L793.223 253.555 Q793.501 257.953 795.862 260.268 Q798.246 262.559 802.482 262.559 Q804.936 262.559 807.228 261.958 Q809.543 261.356 811.811 260.152 L811.811 264.18 Q809.519 265.152 807.112 265.661 Q804.705 266.17 802.228 266.17 Q796.024 266.17 792.39 262.559 Q788.779 258.948 788.779 252.791 Q788.779 246.425 792.205 242.698 Q795.654 238.948 801.487 238.948 Q806.719 238.948 809.751 242.328 Q812.806 245.684 812.806 251.471 M808.547 250.221 Q808.501 246.726 806.58 244.643 Q804.682 242.559 801.533 242.559 Q797.969 242.559 795.816 244.573 Q793.686 246.587 793.362 250.245 L808.547 250.221 Z" fill="#000000" fill-rule="nonzero" fill-opacity="1" /><path clip-path="url(#clip300)" d="M836.325 240.337 L836.325 244.365 Q834.519 243.439 832.575 242.976 Q830.63 242.513 828.547 242.513 Q825.376 242.513 823.779 243.485 Q822.205 244.458 822.205 246.402 Q822.205 247.884 823.339 248.74 Q824.473 249.573 827.899 250.337 L829.357 250.661 Q833.894 251.634 835.792 253.416 Q837.714 255.175 837.714 258.346 Q837.714 261.958 834.843 264.064 Q831.996 266.17 826.996 266.17 Q824.913 266.17 822.644 265.754 Q820.399 265.36 817.899 264.55 L817.899 260.152 Q820.26 261.379 822.552 262.004 Q824.843 262.606 827.089 262.606 Q830.098 262.606 831.718 261.587 Q833.339 260.546 833.339 258.671 Q833.339 256.934 832.158 256.008 Q831.001 255.083 827.043 254.226 L825.561 253.879 Q821.603 253.046 819.843 251.333 Q818.084 249.596 818.084 246.587 Q818.084 242.93 820.677 240.939 Q823.269 238.948 828.038 238.948 Q830.399 238.948 832.482 239.296 Q834.566 239.643 836.325 240.337 Z" fill="#000000" fill-rule="nonzero" fill-opacity="1" /><path clip-path="url(#clip300)" d="M843.825 229.527 L847.529 229.527 Q851.001 234.99 852.714 240.222 Q854.45 245.453 854.45 250.615 Q854.45 255.8 852.714 261.055 Q851.001 266.309 847.529 271.749 L843.825 271.749 Q846.904 266.448 848.408 261.217 Q849.936 255.962 849.936 250.615 Q849.936 245.268 848.408 240.06 Q846.904 234.851 843.825 229.527 Z" fill="#000000" fill-rule="nonzero" fill-opacity="1" /></svg>
