<?xml version="1.0" encoding="utf-8"?>
<svg xmlns="http://www.w3.org/2000/svg" xmlns:xlink="http://www.w3.org/1999/xlink" width="600" height="400" viewBox="0 0 2400 1600">
<defs>
  <clipPath id="clip730">
    <rect x="0" y="0" width="2400" height="1600"/>
  </clipPath>
</defs>
<path clip-path="url(#clip730)" d="M0 1600 L2400 1600 L2400 0 L0 0  Z" fill="#ffffff" fill-rule="evenodd" fill-opacity="1"/>
<defs>
  <clipPath id="clip731">
    <rect x="480" y="0" width="1681" height="1600"/>
  </clipPath>
</defs>
<path clip-path="url(#clip730)" d="M374.926 1416.92 L2352.76 1416.92 L2352.76 47.2441 L374.926 47.2441  Z" fill="#ffffff" fill-rule="evenodd" fill-opacity="1"/>
<defs>
  <clipPath id="clip732">
    <rect x="374" y="47" width="1979" height="1371"/>
  </clipPath>
</defs>
<polyline clip-path="url(#clip732)" style="stroke:#000000; stroke-linecap:round; stroke-linejoin:round; stroke-width:2; stroke-opacity:0.1; fill:none" points="1097.29,1416.92 1097.29,47.2441 "/>
<polyline clip-path="url(#clip732)" style="stroke:#000000; stroke-linecap:round; stroke-linejoin:round; stroke-width:2; stroke-opacity:0.1; fill:none" points="1896.95,1416.92 1896.95,47.2441 "/>
<polyline clip-path="url(#clip730)" style="stroke:#000000; stroke-linecap:round; stroke-linejoin:round; stroke-width:4; stroke-opacity:1; fill:none" points="374.926,1416.92 2352.76,1416.92 "/>
<polyline clip-path="url(#clip730)" style="stroke:#000000; stroke-linecap:round; stroke-linejoin:round; stroke-width:4; stroke-opacity:1; fill:none" points="1097.29,1416.92 1097.29,1398.02 "/>
<polyline clip-path="url(#clip730)" style="stroke:#000000; stroke-linecap:round; stroke-linejoin:round; stroke-width:4; stroke-opacity:1; fill:none" points="1896.95,1416.92 1896.95,1398.02 "/>
<path clip-path="url(#clip730)" d="M1007.57 1475.39 L1023.88 1475.39 L1023.88 1479.32 L1001.94 1479.32 L1001.94 1475.39 Q1004.6 1472.63 1009.19 1468 Q1013.79 1463.35 1014.97 1462.01 Q1017.22 1459.48 1018.1 1457.75 Q1019 1455.99 1019 1454.3 Q1019 1451.54 1017.06 1449.81 Q1015.13 1448.07 1012.03 1448.07 Q1009.83 1448.07 1007.38 1448.84 Q1004.95 1449.6 1002.17 1451.15 L1002.17 1446.43 Q1005 1445.29 1007.45 1444.72 Q1009.9 1444.14 1011.94 1444.14 Q1017.31 1444.14 1020.5 1446.82 Q1023.7 1449.51 1023.7 1454 Q1023.7 1456.13 1022.89 1458.05 Q1022.1 1459.95 1020 1462.54 Q1019.42 1463.21 1016.32 1466.43 Q1013.21 1469.62 1007.57 1475.39 Z" fill="#000000" fill-rule="nonzero" fill-opacity="1" /><path clip-path="url(#clip730)" d="M1050.76 1444.76 L1063.33 1457.66 L1058.68 1457.66 L1048.49 1448.51 L1038.31 1457.66 L1033.65 1457.66 L1046.22 1444.76 L1050.76 1444.76 Z" fill="#000000" fill-rule="nonzero" fill-opacity="1" /><path clip-path="url(#clip730)" d="M1092.59 1483.72 L1092.59 1487.05 L1091.15 1487.05 Q1085.39 1487.05 1083.42 1485.34 Q1081.48 1483.63 1081.48 1478.51 L1081.48 1472.98 Q1081.48 1469.48 1080.23 1468.14 Q1078.98 1466.8 1075.69 1466.8 L1074.28 1466.8 L1074.28 1463.49 L1075.69 1463.49 Q1079 1463.49 1080.23 1462.17 Q1081.48 1460.83 1081.48 1457.38 L1081.48 1451.82 Q1081.48 1446.71 1083.42 1445.02 Q1085.39 1443.3 1091.15 1443.3 L1092.59 1443.3 L1092.59 1446.61 L1091.01 1446.61 Q1087.75 1446.61 1086.75 1447.63 Q1085.76 1448.65 1085.76 1451.91 L1085.76 1457.66 Q1085.76 1461.29 1084.69 1462.93 Q1083.65 1464.58 1081.11 1465.16 Q1083.68 1465.78 1084.72 1467.42 Q1085.76 1469.07 1085.76 1472.68 L1085.76 1478.42 Q1085.76 1481.68 1086.75 1482.7 Q1087.75 1483.72 1091.01 1483.72 L1092.59 1483.72 Z" fill="#000000" fill-rule="nonzero" fill-opacity="1" /><path clip-path="url(#clip730)" d="M1103.54 1462.49 L1133.21 1462.49 L1133.21 1466.43 L1103.54 1466.43 L1103.54 1462.49 Z" fill="#000000" fill-rule="nonzero" fill-opacity="1" /><path clip-path="url(#clip730)" d="M1153.88 1460.18 Q1150.74 1460.18 1148.88 1462.33 Q1147.06 1464.48 1147.06 1468.23 Q1147.06 1471.96 1148.88 1474.14 Q1150.74 1476.29 1153.88 1476.29 Q1157.03 1476.29 1158.86 1474.14 Q1160.71 1471.96 1160.71 1468.23 Q1160.71 1464.48 1158.86 1462.33 Q1157.03 1460.18 1153.88 1460.18 M1163.17 1445.53 L1163.17 1449.78 Q1161.41 1448.95 1159.6 1448.51 Q1157.82 1448.07 1156.06 1448.07 Q1151.43 1448.07 1148.98 1451.2 Q1146.55 1454.32 1146.2 1460.64 Q1147.56 1458.63 1149.62 1457.56 Q1151.68 1456.47 1154.16 1456.47 Q1159.37 1456.47 1162.38 1459.65 Q1165.41 1462.79 1165.41 1468.23 Q1165.41 1473.56 1162.26 1476.78 Q1159.12 1479.99 1153.88 1479.99 Q1147.89 1479.99 1144.72 1475.41 Q1141.55 1470.8 1141.55 1462.08 Q1141.55 1453.88 1145.43 1449.02 Q1149.32 1444.14 1155.87 1444.14 Q1157.63 1444.14 1159.42 1444.48 Q1161.22 1444.83 1163.17 1445.53 Z" fill="#000000" fill-rule="nonzero" fill-opacity="1" /><path clip-path="url(#clip730)" d="M1174.32 1483.72 L1175.94 1483.72 Q1179.18 1483.72 1180.16 1482.72 Q1181.15 1481.73 1181.15 1478.42 L1181.15 1472.68 Q1181.15 1469.07 1182.19 1467.42 Q1183.24 1465.78 1185.8 1465.16 Q1183.24 1464.58 1182.19 1462.93 Q1181.15 1461.29 1181.15 1457.66 L1181.15 1451.91 Q1181.15 1448.63 1180.16 1447.63 Q1179.18 1446.61 1175.94 1446.61 L1174.32 1446.61 L1174.32 1443.3 L1175.78 1443.3 Q1181.55 1443.3 1183.47 1445.02 Q1185.41 1446.71 1185.41 1451.82 L1185.41 1457.38 Q1185.41 1460.83 1186.66 1462.17 Q1187.91 1463.49 1191.2 1463.49 L1192.63 1463.49 L1192.63 1466.8 L1191.2 1466.8 Q1187.91 1466.8 1186.66 1468.14 Q1185.41 1469.48 1185.41 1472.98 L1185.41 1478.51 Q1185.41 1483.63 1183.47 1485.34 Q1181.55 1487.05 1175.78 1487.05 L1174.32 1487.05 L1174.32 1483.72 Z" fill="#000000" fill-rule="nonzero" fill-opacity="1" /><path clip-path="url(#clip730)" d="M1807.23 1475.39 L1823.55 1475.39 L1823.55 1479.32 L1801.6 1479.32 L1801.6 1475.39 Q1804.26 1472.63 1808.85 1468 Q1813.45 1463.35 1814.63 1462.01 Q1816.88 1459.48 1817.76 1457.75 Q1818.66 1455.99 1818.66 1454.3 Q1818.66 1451.54 1816.72 1449.81 Q1814.8 1448.07 1811.69 1448.07 Q1809.5 1448.07 1807.04 1448.84 Q1804.61 1449.6 1801.83 1451.15 L1801.83 1446.43 Q1804.66 1445.29 1807.11 1444.72 Q1809.56 1444.14 1811.6 1444.14 Q1816.97 1444.14 1820.17 1446.82 Q1823.36 1449.51 1823.36 1454 Q1823.36 1456.13 1822.55 1458.05 Q1821.76 1459.95 1819.66 1462.54 Q1819.08 1463.21 1815.98 1466.43 Q1812.88 1469.62 1807.23 1475.39 Z" fill="#000000" fill-rule="nonzero" fill-opacity="1" /><path clip-path="url(#clip730)" d="M1850.42 1444.76 L1862.99 1457.66 L1858.34 1457.66 L1848.15 1448.51 L1837.97 1457.66 L1833.31 1457.66 L1845.88 1444.76 L1850.42 1444.76 Z" fill="#000000" fill-rule="nonzero" fill-opacity="1" /><path clip-path="url(#clip730)" d="M1892.25 1483.72 L1892.25 1487.05 L1890.81 1487.05 Q1885.05 1487.05 1883.08 1485.34 Q1881.14 1483.63 1881.14 1478.51 L1881.14 1472.98 Q1881.14 1469.48 1879.89 1468.14 Q1878.64 1466.8 1875.35 1466.8 L1873.94 1466.8 L1873.94 1463.49 L1875.35 1463.49 Q1878.66 1463.49 1879.89 1462.17 Q1881.14 1460.83 1881.14 1457.38 L1881.14 1451.82 Q1881.14 1446.71 1883.08 1445.02 Q1885.05 1443.3 1890.81 1443.3 L1892.25 1443.3 L1892.25 1446.61 L1890.68 1446.61 Q1887.41 1446.61 1886.42 1447.63 Q1885.42 1448.65 1885.42 1451.91 L1885.42 1457.66 Q1885.42 1461.29 1884.36 1462.93 Q1883.31 1464.58 1880.77 1465.16 Q1883.34 1465.78 1884.38 1467.42 Q1885.42 1469.07 1885.42 1472.68 L1885.42 1478.42 Q1885.42 1481.68 1886.42 1482.7 Q1887.41 1483.72 1890.68 1483.72 L1892.25 1483.72 Z" fill="#000000" fill-rule="nonzero" fill-opacity="1" /><path clip-path="url(#clip730)" d="M1903.2 1462.49 L1932.87 1462.49 L1932.87 1466.43 L1903.2 1466.43 L1903.2 1462.49 Z" fill="#000000" fill-rule="nonzero" fill-opacity="1" /><path clip-path="url(#clip730)" d="M1957.13 1460.69 Q1960.49 1461.41 1962.36 1463.67 Q1964.26 1465.94 1964.26 1469.28 Q1964.26 1474.39 1960.74 1477.19 Q1957.23 1479.99 1950.74 1479.99 Q1948.57 1479.99 1946.25 1479.55 Q1943.96 1479.14 1941.51 1478.28 L1941.51 1473.77 Q1943.45 1474.9 1945.77 1475.48 Q1948.08 1476.06 1950.61 1476.06 Q1955 1476.06 1957.3 1474.32 Q1959.61 1472.59 1959.61 1469.28 Q1959.61 1466.22 1957.46 1464.51 Q1955.33 1462.77 1951.51 1462.77 L1947.48 1462.77 L1947.48 1458.93 L1951.69 1458.93 Q1955.14 1458.93 1956.97 1457.56 Q1958.8 1456.17 1958.8 1453.58 Q1958.8 1450.92 1956.9 1449.51 Q1955.03 1448.07 1951.51 1448.07 Q1949.59 1448.07 1947.39 1448.49 Q1945.19 1448.91 1942.55 1449.78 L1942.55 1445.62 Q1945.21 1444.88 1947.53 1444.51 Q1949.87 1444.14 1951.93 1444.14 Q1957.25 1444.14 1960.35 1446.57 Q1963.45 1448.97 1963.45 1453.1 Q1963.45 1455.97 1961.81 1457.96 Q1960.17 1459.92 1957.13 1460.69 Z" fill="#000000" fill-rule="nonzero" fill-opacity="1" /><path clip-path="url(#clip730)" d="M1973.99 1483.72 L1975.61 1483.72 Q1978.85 1483.72 1979.82 1482.72 Q1980.81 1481.73 1980.81 1478.42 L1980.81 1472.68 Q1980.81 1469.07 1981.86 1467.42 Q1982.9 1465.78 1985.47 1465.16 Q1982.9 1464.58 1981.86 1462.93 Q1980.81 1461.29 1980.81 1457.66 L1980.81 1451.91 Q1980.81 1448.63 1979.82 1447.63 Q1978.85 1446.61 1975.61 1446.61 L1973.99 1446.61 L1973.99 1443.3 L1975.44 1443.3 Q1981.21 1443.3 1983.13 1445.02 Q1985.07 1446.71 1985.07 1451.82 L1985.07 1457.38 Q1985.07 1460.83 1986.32 1462.17 Q1987.57 1463.49 1990.86 1463.49 L1992.3 1463.49 L1992.3 1466.8 L1990.86 1466.8 Q1987.57 1466.8 1986.32 1468.14 Q1985.07 1469.48 1985.07 1472.98 L1985.07 1478.51 Q1985.07 1483.63 1983.13 1485.34 Q1981.21 1487.05 1975.44 1487.05 L1973.99 1487.05 L1973.99 1483.72 Z" fill="#000000" fill-rule="nonzero" fill-opacity="1" /><path clip-path="url(#clip730)" d="M1277.75 1500.64 L1268.25 1538.77 Q1267.86 1540.28 1267.86 1541.93 Q1267.86 1544.95 1269.86 1544.95 Q1270.79 1544.95 1271.57 1544.34 Q1272.34 1543.7 1272.92 1542.44 Q1273.53 1541.15 1273.92 1539.93 Q1274.34 1538.71 1274.85 1536.81 Q1275.01 1536.07 1275.17 1535.84 Q1275.33 1535.61 1275.78 1535.61 Q1276.59 1535.61 1276.59 1536.26 Q1275.78 1540.22 1274.59 1542.73 Q1272.85 1546.44 1269.63 1546.44 Q1267.22 1546.44 1265.41 1544.76 Q1263.64 1543.05 1263.64 1540.35 Q1263.64 1539.32 1263.97 1538.09 L1272.27 1505.12 L1272.5 1503.83 Q1272.5 1503.47 1272.37 1503.28 Q1272.24 1503.09 1271.47 1502.89 Q1270.73 1502.7 1269.25 1502.7 Q1268.63 1502.7 1268.35 1502.67 Q1268.09 1502.64 1267.83 1502.47 Q1267.6 1502.31 1267.6 1501.96 Q1267.6 1501.38 1267.83 1501.06 Q1268.09 1500.74 1268.28 1500.67 Q1268.47 1500.61 1268.86 1500.57 Q1269.41 1500.54 1271.24 1500.38 Q1273.08 1500.19 1274.66 1500.06 Q1276.24 1499.93 1276.91 1499.93 Q1277.3 1499.93 1277.49 1500.12 Q1277.72 1500.28 1277.75 1500.48 L1277.75 1500.64 Z" fill="#000000" fill-rule="nonzero" fill-opacity="1" /><path clip-path="url(#clip730)" d="M1313.46 1527.69 Q1313.46 1531.2 1311.91 1534.68 Q1310.37 1538.13 1307.89 1540.7 Q1305.44 1543.25 1302.22 1544.86 Q1299 1546.44 1295.78 1546.44 Q1291.17 1546.44 1288.18 1543.31 Q1285.21 1540.16 1285.21 1535.26 Q1285.21 1530.69 1287.76 1526.34 Q1290.33 1521.96 1294.46 1519.25 Q1298.58 1516.55 1302.89 1516.55 Q1307.44 1516.55 1310.43 1519.61 Q1313.46 1522.67 1313.46 1527.69 M1308.63 1525.12 Q1308.63 1521.99 1307.11 1519.99 Q1305.6 1518 1302.83 1518 Q1302.02 1518 1301.09 1518.26 Q1300.16 1518.48 1298.93 1519.09 Q1297.74 1519.7 1296.39 1520.99 Q1295.07 1522.25 1293.91 1524.05 Q1292.4 1526.44 1291.24 1530.82 Q1290.11 1535.16 1290.11 1537.77 Q1290.11 1541.38 1291.78 1543.18 Q1293.46 1544.95 1295.84 1544.95 Q1298.16 1544.95 1300.61 1543.34 Q1303.09 1541.7 1304.79 1538.9 Q1306.5 1536 1307.56 1531.75 Q1308.63 1527.47 1308.63 1525.12 Z" fill="#000000" fill-rule="nonzero" fill-opacity="1" /><path clip-path="url(#clip730)" d="M1347.16 1519.64 Q1347.16 1519.67 1346.97 1520.83 L1339.63 1550.11 Q1339.24 1551.65 1338.14 1553.2 Q1337.08 1554.78 1335.37 1556.13 Q1333.7 1557.51 1331.12 1558.35 Q1328.58 1559.22 1325.65 1559.22 Q1320.98 1559.22 1318.92 1558.22 Q1316.89 1557.26 1316.89 1555.2 Q1316.89 1553.39 1318.02 1552.36 Q1319.14 1551.36 1320.43 1551.36 Q1321.65 1551.36 1322.3 1552.07 Q1322.94 1552.78 1322.94 1553.68 Q1322.94 1554.68 1322.27 1555.68 Q1321.59 1556.71 1320.24 1557.1 Q1322.4 1557.77 1325.52 1557.77 Q1332.12 1557.77 1334.96 1550.78 Q1335.02 1550.69 1335.02 1550.65 L1337.21 1541.93 L1337.11 1541.86 Q1336.57 1542.51 1335.7 1543.25 Q1334.86 1543.96 1333.06 1544.83 Q1331.25 1545.69 1329.48 1545.69 Q1325.78 1545.69 1323.23 1542.86 Q1320.72 1539.99 1320.72 1535.26 Q1320.72 1531.81 1322.11 1528.37 Q1323.52 1524.89 1325.71 1522.35 Q1327.93 1519.77 1330.77 1518.16 Q1333.64 1516.55 1336.41 1516.55 Q1338.34 1516.55 1339.98 1517.71 Q1341.62 1518.84 1342.52 1520.7 Q1342.69 1519.16 1343.55 1518.51 Q1344.46 1517.87 1345.23 1517.87 Q1346.1 1517.87 1346.61 1518.35 Q1347.16 1518.8 1347.16 1519.64 M1341.75 1523.67 Q1341.75 1523.47 1341.62 1522.96 Q1341.49 1522.41 1341.11 1521.54 Q1340.75 1520.67 1340.21 1519.9 Q1339.66 1519.13 1338.66 1518.58 Q1337.69 1518 1336.47 1518 Q1334.47 1518 1332.48 1519.67 Q1330.48 1521.32 1329.09 1523.86 Q1327.81 1526.31 1326.58 1531.04 Q1325.39 1535.78 1325.39 1538.19 Q1325.39 1540.57 1326.42 1542.41 Q1327.45 1544.25 1329.67 1544.25 Q1332.25 1544.25 1335.02 1541.86 Q1337.89 1539.38 1338.37 1537.26 L1341.56 1524.66 Q1341.75 1523.89 1341.75 1523.67 Z" fill="#000000" fill-rule="nonzero" fill-opacity="1" /><path clip-path="url(#clip730)" d="M1353.91 1577.36 Q1353.91 1576.53 1353.98 1576.28 Q1354.07 1576.03 1354.43 1575.65 L1363.29 1565.77 Q1368.14 1560.32 1368.14 1555.56 Q1368.14 1552.47 1366.51 1550.26 Q1364.91 1548.05 1361.96 1548.05 Q1359.93 1548.05 1358.22 1549.29 Q1356.51 1550.53 1355.72 1552.74 Q1355.85 1552.7 1356.32 1552.7 Q1357.47 1552.7 1358.11 1553.42 Q1358.76 1554.14 1358.76 1555.11 Q1358.76 1556.35 1357.95 1556.96 Q1357.16 1557.55 1356.37 1557.55 Q1356.05 1557.55 1355.63 1557.48 Q1355.22 1557.41 1354.57 1556.78 Q1353.91 1556.13 1353.91 1554.98 Q1353.91 1551.75 1356.35 1549.18 Q1358.8 1546.61 1362.55 1546.61 Q1366.79 1546.61 1369.56 1549.14 Q1372.35 1551.64 1372.35 1555.56 Q1372.35 1556.94 1371.93 1558.2 Q1371.52 1559.44 1370.96 1560.41 Q1370.41 1561.38 1368.93 1562.93 Q1367.44 1564.49 1366.24 1565.59 Q1365.05 1566.7 1362.37 1569.04 L1357.47 1573.8 L1365.79 1573.8 Q1369.85 1573.8 1370.17 1573.44 Q1370.62 1572.79 1371.18 1569.34 L1372.35 1569.34 L1371.05 1577.36 L1353.91 1577.36 Z" fill="#000000" fill-rule="nonzero" fill-opacity="1" /><path clip-path="url(#clip730)" d="M1379.21 1529.21 Q1379.21 1518.06 1383.36 1509.08 Q1385.13 1505.31 1387.61 1502.15 Q1390.09 1499 1391.74 1497.61 Q1393.38 1496.23 1393.83 1496.23 Q1394.47 1496.23 1394.51 1496.87 Q1394.51 1497.19 1393.64 1498 Q1383.01 1508.82 1383.04 1529.21 Q1383.04 1549.66 1393.38 1560.06 Q1394.51 1561.19 1394.51 1561.54 Q1394.51 1562.18 1393.83 1562.18 Q1393.38 1562.18 1391.8 1560.86 Q1390.22 1559.54 1387.77 1556.52 Q1385.33 1553.49 1383.56 1549.79 Q1379.21 1540.8 1379.21 1529.21 Z" fill="#000000" fill-rule="nonzero" fill-opacity="1" /><path clip-path="url(#clip730)" d="M1433.21 1536.26 Q1433.21 1536.52 1432.92 1537.51 Q1432.63 1538.51 1431.92 1540.06 Q1431.24 1541.6 1430.31 1543.02 Q1429.37 1544.41 1427.83 1545.44 Q1426.31 1546.44 1424.57 1546.44 Q1422.26 1546.44 1420.71 1544.89 Q1419.16 1543.34 1419.16 1541.03 Q1419.16 1540.7 1419.2 1540.38 Q1419.23 1540.06 1419.26 1539.87 Q1419.29 1539.64 1419.39 1539.29 Q1419.52 1538.9 1419.55 1538.74 Q1419.61 1538.58 1419.78 1538.09 Q1419.97 1537.58 1420.03 1537.39 Q1424.12 1526.95 1424.12 1522.6 Q1424.12 1518 1420.55 1518 Q1417.36 1518 1414.2 1520.32 Q1412.75 1521.48 1411.37 1523.54 Q1409.99 1525.6 1409.73 1526.37 Q1409.44 1528.05 1409.02 1529.33 Q1408.83 1530.24 1407.89 1533.75 L1406.44 1539.7 L1405.19 1544.7 Q1404.93 1545.41 1404.22 1545.92 Q1403.51 1546.44 1402.74 1546.44 Q1402.09 1546.44 1401.45 1545.98 Q1400.84 1545.57 1400.84 1544.57 Q1400.84 1544.05 1401.1 1543.12 L1410.66 1505.12 L1410.85 1503.83 Q1410.85 1503.44 1410.69 1503.25 Q1410.56 1503.02 1409.79 1502.86 Q1409.05 1502.7 1407.57 1502.7 Q1406.96 1502.7 1406.67 1502.67 Q1406.41 1502.64 1406.18 1502.47 Q1405.96 1502.28 1405.96 1501.9 Q1405.96 1501.35 1406.18 1501.06 Q1406.44 1500.74 1406.64 1500.67 Q1406.83 1500.61 1407.22 1500.57 Q1407.76 1500.54 1409.6 1500.38 Q1411.43 1500.19 1413.01 1500.06 Q1414.59 1499.93 1415.27 1499.93 Q1415.65 1499.93 1415.85 1500.12 Q1416.07 1500.28 1416.1 1500.48 L1416.14 1500.64 L1410.98 1521.61 Q1415.07 1516.55 1420.74 1516.55 Q1424.41 1516.55 1426.38 1518.45 Q1428.34 1520.32 1428.34 1523.6 Q1428.34 1527.37 1424.32 1538.09 Q1423.13 1541.09 1423.13 1542.8 Q1423.13 1543.92 1423.48 1544.44 Q1423.87 1544.95 1424.7 1544.95 Q1425.99 1544.95 1427.12 1544.21 Q1428.28 1543.44 1429.08 1542.18 Q1429.89 1540.9 1430.44 1539.61 Q1431.02 1538.29 1431.43 1536.81 Q1431.69 1536 1431.82 1535.81 Q1431.98 1535.61 1432.43 1535.61 Q1433.21 1535.61 1433.21 1536.26 Z" fill="#000000" fill-rule="nonzero" fill-opacity="1" /><path clip-path="url(#clip730)" d="M1438.71 1561.54 Q1438.71 1561.22 1439.55 1560.41 Q1450.18 1549.59 1450.18 1529.21 Q1450.18 1508.75 1439.97 1498.42 Q1438.71 1497.23 1438.71 1496.87 Q1438.71 1496.23 1439.36 1496.23 Q1439.81 1496.23 1441.38 1497.55 Q1442.99 1498.87 1445.41 1501.9 Q1447.86 1504.92 1449.66 1508.63 Q1454.01 1517.61 1454.01 1529.21 Q1454.01 1540.35 1449.85 1549.33 Q1448.08 1553.1 1445.6 1556.26 Q1443.12 1559.41 1441.48 1560.8 Q1439.84 1562.18 1439.36 1562.18 Q1438.71 1562.18 1438.71 1561.54 Z" fill="#000000" fill-rule="nonzero" fill-opacity="1" /><polyline clip-path="url(#clip732)" style="stroke:#000000; stroke-linecap:round; stroke-linejoin:round; stroke-width:2; stroke-opacity:0.1; fill:none" points="374.926,1162.24 2352.76,1162.24 "/>
<polyline clip-path="url(#clip732)" style="stroke:#000000; stroke-linecap:round; stroke-linejoin:round; stroke-width:2; stroke-opacity:0.1; fill:none" points="374.926,499.943 2352.76,499.943 "/>
<polyline clip-path="url(#clip730)" style="stroke:#000000; stroke-linecap:round; stroke-linejoin:round; stroke-width:4; stroke-opacity:1; fill:none" points="374.926,1416.92 374.926,47.2441 "/>
<polyline clip-path="url(#clip730)" style="stroke:#000000; stroke-linecap:round; stroke-linejoin:round; stroke-width:4; stroke-opacity:1; fill:none" points="374.926,1162.24 393.823,1162.24 "/>
<polyline clip-path="url(#clip730)" style="stroke:#000000; stroke-linecap:round; stroke-linejoin:round; stroke-width:4; stroke-opacity:1; fill:none" points="374.926,499.943 393.823,499.943 "/>
<path clip-path="url(#clip730)" d="M123.695 1175.58 L140.015 1175.58 L140.015 1179.52 L118.07 1179.52 L118.07 1175.58 Q120.732 1172.83 125.316 1168.2 Q129.922 1163.55 131.103 1162.2 Q133.348 1159.68 134.228 1157.94 Q135.13 1156.18 135.13 1154.49 Q135.13 1151.74 133.186 1150 Q131.265 1148.27 128.163 1148.27 Q125.964 1148.27 123.51 1149.03 Q121.08 1149.8 118.302 1151.35 L118.302 1146.62 Q121.126 1145.49 123.58 1144.91 Q126.033 1144.33 128.07 1144.33 Q133.441 1144.33 136.635 1147.02 Q139.83 1149.7 139.83 1154.19 Q139.83 1156.32 139.019 1158.24 Q138.232 1160.14 136.126 1162.74 Q135.547 1163.41 132.445 1166.62 Q129.343 1169.82 123.695 1175.58 Z" fill="#000000" fill-rule="nonzero" fill-opacity="1" /><path clip-path="url(#clip730)" d="M166.89 1144.96 L179.459 1157.85 L174.806 1157.85 L164.621 1148.71 L154.436 1157.85 L149.783 1157.85 L162.353 1144.96 L166.89 1144.96 Z" fill="#000000" fill-rule="nonzero" fill-opacity="1" /><path clip-path="url(#clip730)" d="M208.718 1183.92 L208.718 1187.25 L207.283 1187.25 Q201.519 1187.25 199.551 1185.54 Q197.607 1183.82 197.607 1178.71 L197.607 1173.18 Q197.607 1169.68 196.357 1168.34 Q195.107 1166.99 191.82 1166.99 L190.408 1166.99 L190.408 1163.68 L191.82 1163.68 Q195.13 1163.68 196.357 1162.36 Q197.607 1161.02 197.607 1157.57 L197.607 1152.02 Q197.607 1146.9 199.551 1145.21 Q201.519 1143.5 207.283 1143.5 L208.718 1143.5 L208.718 1146.81 L207.144 1146.81 Q203.88 1146.81 202.885 1147.83 Q201.889 1148.85 201.889 1152.11 L201.889 1157.85 Q201.889 1161.49 200.825 1163.13 Q199.783 1164.77 197.237 1165.35 Q199.806 1165.98 200.848 1167.62 Q201.889 1169.26 201.889 1172.87 L201.889 1178.61 Q201.889 1181.88 202.885 1182.9 Q203.88 1183.92 207.144 1183.92 L208.718 1183.92 Z" fill="#000000" fill-rule="nonzero" fill-opacity="1" /><path clip-path="url(#clip730)" d="M219.667 1162.69 L249.343 1162.69 L249.343 1166.62 L219.667 1166.62 L219.667 1162.69 Z" fill="#000000" fill-rule="nonzero" fill-opacity="1" /><path clip-path="url(#clip730)" d="M260.246 1175.58 L267.884 1175.58 L267.884 1149.22 L259.574 1150.88 L259.574 1146.62 L267.838 1144.96 L272.514 1144.96 L272.514 1175.58 L280.153 1175.58 L280.153 1179.52 L260.246 1179.52 L260.246 1175.58 Z" fill="#000000" fill-rule="nonzero" fill-opacity="1" /><path clip-path="url(#clip730)" d="M300.176 1160.37 Q297.028 1160.37 295.176 1162.53 Q293.347 1164.68 293.347 1168.43 Q293.347 1172.16 295.176 1174.33 Q297.028 1176.49 300.176 1176.49 Q303.324 1176.49 305.153 1174.33 Q307.005 1172.16 307.005 1168.43 Q307.005 1164.68 305.153 1162.53 Q303.324 1160.37 300.176 1160.37 M309.458 1145.72 L309.458 1149.98 Q307.699 1149.15 305.893 1148.71 Q304.111 1148.27 302.352 1148.27 Q297.722 1148.27 295.268 1151.39 Q292.838 1154.52 292.491 1160.84 Q293.856 1158.82 295.917 1157.76 Q297.977 1156.67 300.454 1156.67 Q305.662 1156.67 308.671 1159.84 Q311.704 1162.99 311.704 1168.43 Q311.704 1173.75 308.555 1176.97 Q305.407 1180.19 300.176 1180.19 Q294.181 1180.19 291.009 1175.61 Q287.838 1171 287.838 1162.27 Q287.838 1154.08 291.727 1149.22 Q295.616 1144.33 302.167 1144.33 Q303.926 1144.33 305.708 1144.68 Q307.514 1145.03 309.458 1145.72 Z" fill="#000000" fill-rule="nonzero" fill-opacity="1" /><path clip-path="url(#clip730)" d="M320.616 1183.92 L322.236 1183.92 Q325.477 1183.92 326.449 1182.92 Q327.444 1181.93 327.444 1178.61 L327.444 1172.87 Q327.444 1169.26 328.486 1167.62 Q329.528 1165.98 332.097 1165.35 Q329.528 1164.77 328.486 1163.13 Q327.444 1161.49 327.444 1157.85 L327.444 1152.11 Q327.444 1148.82 326.449 1147.83 Q325.477 1146.81 322.236 1146.81 L320.616 1146.81 L320.616 1143.5 L322.074 1143.5 Q327.838 1143.5 329.759 1145.21 Q331.703 1146.9 331.703 1152.02 L331.703 1157.57 Q331.703 1161.02 332.953 1162.36 Q334.203 1163.68 337.49 1163.68 L338.926 1163.68 L338.926 1166.99 L337.49 1166.99 Q334.203 1166.99 332.953 1168.34 Q331.703 1169.68 331.703 1173.18 L331.703 1178.71 Q331.703 1183.82 329.759 1185.54 Q327.838 1187.25 322.074 1187.25 L320.616 1187.25 L320.616 1183.92 Z" fill="#000000" fill-rule="nonzero" fill-opacity="1" /><path clip-path="url(#clip730)" d="M153.857 513.288 L170.177 513.288 L170.177 517.223 L148.232 517.223 L148.232 513.288 Q150.894 510.533 155.478 505.903 Q160.084 501.251 161.265 499.908 Q163.51 497.385 164.39 495.649 Q165.292 493.89 165.292 492.2 Q165.292 489.445 163.348 487.709 Q161.427 485.973 158.325 485.973 Q156.126 485.973 153.672 486.737 Q151.241 487.501 148.464 489.052 L148.464 484.329 Q151.288 483.195 153.741 482.617 Q156.195 482.038 158.232 482.038 Q163.603 482.038 166.797 484.723 Q169.991 487.408 169.991 491.899 Q169.991 494.029 169.181 495.95 Q168.394 497.848 166.288 500.441 Q165.709 501.112 162.607 504.329 Q159.505 507.524 153.857 513.288 Z" fill="#000000" fill-rule="nonzero" fill-opacity="1" /><path clip-path="url(#clip730)" d="M197.051 482.663 L209.621 495.556 L204.968 495.556 L194.783 486.413 L184.598 495.556 L179.945 495.556 L192.514 482.663 L197.051 482.663 Z" fill="#000000" fill-rule="nonzero" fill-opacity="1" /><path clip-path="url(#clip730)" d="M238.88 521.621 L238.88 524.954 L237.445 524.954 Q231.681 524.954 229.713 523.241 Q227.769 521.528 227.769 516.413 L227.769 510.88 Q227.769 507.385 226.519 506.042 Q225.269 504.7 221.982 504.7 L220.57 504.7 L220.57 501.39 L221.982 501.39 Q225.292 501.39 226.519 500.07 Q227.769 498.728 227.769 495.278 L227.769 489.723 Q227.769 484.607 229.713 482.917 Q231.681 481.204 237.445 481.204 L238.88 481.204 L238.88 484.515 L237.306 484.515 Q234.042 484.515 233.047 485.533 Q232.051 486.552 232.051 489.816 L232.051 495.556 Q232.051 499.191 230.986 500.834 Q229.945 502.478 227.398 503.056 Q229.968 503.681 231.01 505.325 Q232.051 506.968 232.051 510.579 L232.051 516.32 Q232.051 519.584 233.047 520.602 Q234.042 521.621 237.306 521.621 L238.88 521.621 Z" fill="#000000" fill-rule="nonzero" fill-opacity="1" /><path clip-path="url(#clip730)" d="M249.829 500.394 L279.505 500.394 L279.505 504.329 L249.829 504.329 L249.829 500.394 Z" fill="#000000" fill-rule="nonzero" fill-opacity="1" /><path clip-path="url(#clip730)" d="M299.597 500.811 Q296.264 500.811 294.343 502.593 Q292.444 504.376 292.444 507.501 Q292.444 510.626 294.343 512.408 Q296.264 514.19 299.597 514.19 Q302.93 514.19 304.852 512.408 Q306.773 510.602 306.773 507.501 Q306.773 504.376 304.852 502.593 Q302.954 500.811 299.597 500.811 M294.921 498.82 Q291.912 498.079 290.222 496.019 Q288.556 493.959 288.556 490.996 Q288.556 486.853 291.495 484.445 Q294.458 482.038 299.597 482.038 Q304.759 482.038 307.699 484.445 Q310.639 486.853 310.639 490.996 Q310.639 493.959 308.949 496.019 Q307.282 498.079 304.296 498.82 Q307.676 499.607 309.551 501.899 Q311.449 504.19 311.449 507.501 Q311.449 512.524 308.37 515.209 Q305.315 517.894 299.597 517.894 Q293.88 517.894 290.801 515.209 Q287.745 512.524 287.745 507.501 Q287.745 504.19 289.644 501.899 Q291.542 499.607 294.921 498.82 M293.208 491.436 Q293.208 494.121 294.875 495.626 Q296.565 497.13 299.597 497.13 Q302.606 497.13 304.296 495.626 Q306.009 494.121 306.009 491.436 Q306.009 488.751 304.296 487.246 Q302.606 485.742 299.597 485.742 Q296.565 485.742 294.875 487.246 Q293.208 488.751 293.208 491.436 Z" fill="#000000" fill-rule="nonzero" fill-opacity="1" /><path clip-path="url(#clip730)" d="M320.616 521.621 L322.236 521.621 Q325.477 521.621 326.449 520.626 Q327.444 519.63 327.444 516.32 L327.444 510.579 Q327.444 506.968 328.486 505.325 Q329.528 503.681 332.097 503.056 Q329.528 502.478 328.486 500.834 Q327.444 499.191 327.444 495.556 L327.444 489.816 Q327.444 486.529 326.449 485.533 Q325.477 484.515 322.236 484.515 L320.616 484.515 L320.616 481.204 L322.074 481.204 Q327.838 481.204 329.759 482.917 Q331.703 484.607 331.703 489.723 L331.703 495.278 Q331.703 498.728 332.953 500.07 Q334.203 501.39 337.49 501.39 L338.926 501.39 L338.926 504.7 L337.49 504.7 Q334.203 504.7 332.953 506.042 Q331.703 507.385 331.703 510.88 L331.703 516.413 Q331.703 521.528 329.759 523.241 Q327.838 524.954 322.074 524.954 L320.616 524.954 L320.616 521.621 Z" fill="#000000" fill-rule="nonzero" fill-opacity="1" /><path clip-path="url(#clip730)" d="M13.0467 775.759 L51.1784 785.26 Q52.6921 785.646 54.3346 785.646 Q57.362 785.646 57.362 783.649 Q57.362 782.715 56.7501 781.942 Q56.1059 781.169 54.8499 780.59 Q53.5617 779.978 52.3379 779.591 Q51.114 779.173 49.2139 778.657 Q48.4732 778.496 48.2477 778.335 Q48.0223 778.174 48.0223 777.723 Q48.0223 776.918 48.6664 776.918 Q52.6277 777.723 55.1398 778.915 Q58.8434 780.654 58.8434 783.875 Q58.8434 786.29 57.1687 788.094 Q55.4618 789.865 52.7565 789.865 Q51.7259 789.865 50.5021 789.543 L17.5233 781.234 L16.2351 781.008 Q15.8808 781.008 15.6876 781.137 Q15.4944 781.266 15.3011 782.039 Q15.1079 782.78 15.1079 784.261 Q15.1079 784.873 15.0757 785.163 Q15.0435 785.421 14.8824 785.678 Q14.7214 785.904 14.3671 785.904 Q13.7874 785.904 13.4654 785.678 Q13.1433 785.421 13.0789 785.227 Q13.0145 785.034 12.9823 784.648 Q12.9501 784.1 12.7891 782.264 Q12.5958 780.429 12.467 778.851 Q12.3382 777.273 12.3382 776.596 Q12.3382 776.21 12.5314 776.017 Q12.6924 775.791 12.8857 775.759 L13.0467 775.759 Z" fill="#000000" fill-rule="nonzero" fill-opacity="1" /><path clip-path="url(#clip730)" d="M40.0996 740.05 Q43.6101 740.05 47.0883 741.596 Q50.5343 743.142 53.1108 745.622 Q55.6551 748.07 57.2654 751.29 Q58.8434 754.511 58.8434 757.731 Q58.8434 762.337 55.7195 765.332 Q52.5633 768.295 47.668 768.295 Q43.0948 768.295 38.747 765.751 Q34.367 763.174 31.6617 759.052 Q28.9564 754.93 28.9564 750.614 Q28.9564 746.073 32.016 743.078 Q35.0755 740.05 40.0996 740.05 M37.5232 744.881 Q34.3992 744.881 32.4024 746.395 Q30.4057 747.909 30.4057 750.678 Q30.4057 751.484 30.6633 752.418 Q30.8888 753.351 31.5007 754.575 Q32.1126 755.767 33.4008 757.12 Q34.6568 758.44 36.4604 759.599 Q38.8436 761.113 43.2236 762.272 Q47.5714 763.4 50.1801 763.4 Q53.7871 763.4 55.5907 761.725 Q57.362 760.05 57.362 757.667 Q57.362 755.348 55.7517 752.901 Q54.1092 750.421 51.3073 748.714 Q48.4087 747.007 44.1576 745.944 Q39.8742 744.881 37.5232 744.881 Z" fill="#000000" fill-rule="nonzero" fill-opacity="1" /><path clip-path="url(#clip730)" d="M32.0482 706.346 Q32.0804 706.346 33.2398 706.54 L62.5149 713.882 Q64.0608 714.269 65.6067 715.364 Q67.1848 716.427 68.5374 718.134 Q69.9223 719.808 70.7596 722.385 Q71.6292 724.929 71.6292 727.86 Q71.6292 732.53 70.6308 734.591 Q69.6646 736.62 67.6034 736.62 Q65.7999 736.62 64.7693 735.493 Q63.7709 734.365 63.7709 733.077 Q63.7709 731.853 64.4795 731.209 Q65.188 730.565 66.0898 730.565 Q67.0881 730.565 68.0865 731.241 Q69.1171 731.918 69.5036 733.27 Q70.1799 731.113 70.1799 727.989 Q70.1799 721.386 63.1912 718.552 Q63.0946 718.488 63.0624 718.488 L54.3346 716.298 L54.2702 716.395 Q54.9143 716.942 55.6551 717.812 Q56.3636 718.649 57.2332 720.452 Q58.1027 722.256 58.1027 724.027 Q58.1027 727.731 55.2686 730.275 Q52.4023 732.787 47.668 732.787 Q44.222 732.787 40.776 731.402 Q37.2977 729.985 34.7535 727.795 Q32.177 725.573 30.5667 722.739 Q28.9564 719.873 28.9564 717.103 Q28.9564 715.171 30.1158 713.528 Q31.243 711.886 33.111 710.984 Q31.5651 710.823 30.921 709.953 Q30.2768 709.052 30.2768 708.279 Q30.2768 707.409 30.7599 706.894 Q31.2108 706.346 32.0482 706.346 M36.0739 711.757 Q35.8807 711.757 35.3654 711.886 Q34.8179 712.015 33.9483 712.401 Q33.0788 712.755 32.3058 713.303 Q31.5329 713.85 30.9854 714.849 Q30.4057 715.815 30.4057 717.039 Q30.4057 719.035 32.0804 721.032 Q33.7229 723.029 36.2671 724.414 Q38.7148 725.702 43.449 726.926 Q48.1833 728.117 50.5987 728.117 Q52.982 728.117 54.8177 727.087 Q56.6534 726.056 56.6534 723.834 Q56.6534 721.258 54.2702 718.488 Q51.7904 715.622 49.6648 715.138 L37.0723 711.95 Q36.2993 711.757 36.0739 711.757 Z" fill="#000000" fill-rule="nonzero" fill-opacity="1" /><path clip-path="url(#clip730)" d="M89.7699 699.595 Q88.9358 699.595 88.6878 699.528 Q88.4398 699.438 88.0565 699.077 L78.1822 690.217 Q72.7266 685.37 67.9697 685.37 Q64.8812 685.37 62.6719 686.993 Q60.4626 688.594 60.4626 691.547 Q60.4626 693.576 61.7025 695.289 Q62.9424 697.003 65.1517 697.792 Q65.1066 697.657 65.1066 697.183 Q65.1066 696.033 65.8281 695.402 Q66.5495 694.748 67.5189 694.748 Q68.7588 694.748 69.3675 695.56 Q69.9536 696.349 69.9536 697.138 Q69.9536 697.454 69.886 697.882 Q69.8184 698.288 69.1871 698.942 Q68.5334 699.595 67.3836 699.595 Q64.1598 699.595 61.5898 697.161 Q59.0197 694.703 59.0197 690.961 Q59.0197 686.723 61.5447 683.95 Q64.0471 681.154 67.9697 681.154 Q69.3449 681.154 70.6074 681.583 Q71.8473 681.988 72.8167 682.552 Q73.7861 683.093 75.3417 684.581 Q76.8972 686.069 78.0019 687.264 Q79.1065 688.459 81.4511 691.141 L86.2079 696.033 L86.2079 687.715 Q86.2079 683.657 85.8472 683.341 Q85.1934 682.89 81.7442 682.327 L81.7442 681.154 L89.7699 682.462 L89.7699 699.595 Z" fill="#000000" fill-rule="nonzero" fill-opacity="1" /><polyline clip-path="url(#clip732)" style="stroke:#009af9; stroke-linecap:round; stroke-linejoin:round; stroke-width:4; stroke-opacity:1; fill:none" points="2296.78,86.0086 2030.23,251.582 1763.67,417.156 1497.12,582.73 1230.56,748.303 964.01,913.877 697.456,1079.45 430.902,1245.02 "/>
<polyline clip-path="url(#clip732)" style="stroke:#e26f46; stroke-linecap:round; stroke-linejoin:round; stroke-width:4; stroke-opacity:1; fill:none" points="2296.78,234.5 2030.23,389.707 1763.67,553.303 1497.12,715.353 1230.56,881.44 964.01,1047.23 697.456,1212.34 430.902,1378.16 "/>
<circle clip-path="url(#clip732)" cx="2296.78" cy="234.5" r="14.4" fill="#e26f46" fill-rule="evenodd" fill-opacity="1" stroke="#000000" stroke-opacity="1" stroke-width="3.2"/>
<circle clip-path="url(#clip732)" cx="2030.23" cy="389.707" r="14.4" fill="#e26f46" fill-rule="evenodd" fill-opacity="1" stroke="#000000" stroke-opacity="1" stroke-width="3.2"/>
<circle clip-path="url(#clip732)" cx="1763.67" cy="553.303" r="14.4" fill="#e26f46" fill-rule="evenodd" fill-opacity="1" stroke="#000000" stroke-opacity="1" stroke-width="3.2"/>
<circle clip-path="url(#clip732)" cx="1497.12" cy="715.353" r="14.4" fill="#e26f46" fill-rule="evenodd" fill-opacity="1" stroke="#000000" stroke-opacity="1" stroke-width="3.2"/>
<circle clip-path="url(#clip732)" cx="1230.56" cy="881.44" r="14.4" fill="#e26f46" fill-rule="evenodd" fill-opacity="1" stroke="#000000" stroke-opacity="1" stroke-width="3.2"/>
<circle clip-path="url(#clip732)" cx="964.01" cy="1047.23" r="14.4" fill="#e26f46" fill-rule="evenodd" fill-opacity="1" stroke="#000000" stroke-opacity="1" stroke-width="3.2"/>
<circle clip-path="url(#clip732)" cx="697.456" cy="1212.34" r="14.4" fill="#e26f46" fill-rule="evenodd" fill-opacity="1" stroke="#000000" stroke-opacity="1" stroke-width="3.2"/>
<circle clip-path="url(#clip732)" cx="430.902" cy="1378.16" r="14.4" fill="#e26f46" fill-rule="evenodd" fill-opacity="1" stroke="#000000" stroke-opacity="1" stroke-width="3.2"/>
<path clip-path="url(#clip730)" d="M440.853 273.896 L889.839 273.896 L889.839 92.9 L440.853 92.9  Z" fill="#ffffff" fill-rule="evenodd" fill-opacity="1"/>
<polyline clip-path="url(#clip730)" style="stroke:#000000; stroke-linecap:round; stroke-linejoin:round; stroke-width:4; stroke-opacity:1; fill:none" points="440.853,273.896 889.839,273.896 889.839,92.9 440.853,92.9 440.853,273.896 "/>
<polyline clip-path="url(#clip730)" style="stroke:#009af9; stroke-linecap:round; stroke-linejoin:round; stroke-width:4; stroke-opacity:1; fill:none" points="462.829,153.232 594.685,153.232 "/>
<path clip-path="url(#clip730)" d="M649.827 150.607 Q649.827 153.956 648.632 157.282 Q647.461 160.585 645.4 163.302 Q643.339 166.019 640.715 168.127 Q638.092 170.235 635.024 171.406 Q631.955 172.577 628.957 172.577 Q623.64 172.577 620.15 169.087 Q616.66 165.597 616.66 159.765 Q616.66 155.689 618.487 151.637 Q620.314 147.562 623.219 144.54 Q626.123 141.495 629.941 139.598 Q633.782 137.701 637.577 137.701 Q642.964 137.701 646.384 141.285 Q649.827 144.845 649.827 150.607 M645.54 148.733 Q645.54 146.157 644.814 144.212 Q644.088 142.245 642.87 141.121 Q641.676 139.996 640.247 139.458 Q638.842 138.896 637.296 138.896 Q634.298 138.896 631.089 140.84 Q627.88 142.784 625.491 146.391 Q624.202 148.358 623.266 150.724 Q622.329 153.066 621.907 155.151 Q621.485 157.212 621.298 158.664 Q621.134 160.116 621.134 161.123 Q621.134 165.808 623.383 168.572 Q625.631 171.336 629.238 171.336 Q632.072 171.336 634.836 169.673 Q637.6 167.986 639.497 165.574 Q641.184 163.489 642.425 160.983 Q643.69 158.477 644.322 156.181 Q644.955 153.886 645.236 152.036 Q645.54 150.185 645.54 148.733 Z" fill="#000000" fill-rule="nonzero" fill-opacity="1" /><path clip-path="url(#clip730)" d="M656.152 159.531 Q656.152 151.427 659.174 144.892 Q660.462 142.151 662.266 139.856 Q664.069 137.561 665.264 136.553 Q666.458 135.546 666.786 135.546 Q667.255 135.546 667.278 136.015 Q667.278 136.249 666.646 136.834 Q658.916 144.704 658.94 159.531 Q658.94 174.404 666.458 181.969 Q667.278 182.789 667.278 183.047 Q667.278 183.515 666.786 183.515 Q666.458 183.515 665.311 182.555 Q664.163 181.595 662.383 179.393 Q660.603 177.191 659.315 174.498 Q656.152 167.963 656.152 159.531 Z" fill="#000000" fill-rule="nonzero" fill-opacity="1" /><path clip-path="url(#clip730)" d="M698.108 164.66 Q698.108 164.848 697.897 165.574 Q697.686 166.3 697.171 167.424 Q696.679 168.548 696 169.579 Q695.32 170.586 694.196 171.336 Q693.095 172.062 691.83 172.062 Q690.144 172.062 689.02 170.938 Q687.895 169.813 687.895 168.127 Q687.895 167.893 687.919 167.658 Q687.942 167.424 687.966 167.284 Q687.989 167.12 688.059 166.862 Q688.153 166.581 688.176 166.464 Q688.223 166.347 688.34 165.995 Q688.481 165.621 688.528 165.48 Q691.502 157.891 691.502 154.729 Q691.502 151.38 688.903 151.38 Q686.584 151.38 684.288 153.066 Q683.234 153.909 682.227 155.408 Q681.22 156.907 681.033 157.47 Q680.822 158.688 680.517 159.624 Q680.377 160.28 679.698 162.833 L678.644 167.166 L677.73 170.797 Q677.543 171.312 677.027 171.687 Q676.512 172.062 675.95 172.062 Q675.482 172.062 675.013 171.734 Q674.568 171.429 674.568 170.703 Q674.568 170.329 674.755 169.649 L681.712 142.011 L681.852 141.074 Q681.852 140.793 681.735 140.652 Q681.642 140.488 681.079 140.371 Q680.541 140.254 679.463 140.254 Q679.018 140.254 678.807 140.231 Q678.62 140.207 678.456 140.09 Q678.292 139.95 678.292 139.669 Q678.292 139.27 678.456 139.06 Q678.644 138.825 678.784 138.778 Q678.925 138.732 679.206 138.708 Q679.604 138.685 680.939 138.568 Q682.274 138.427 683.422 138.333 Q684.569 138.24 685.061 138.24 Q685.342 138.24 685.483 138.38 Q685.647 138.497 685.67 138.638 L685.694 138.755 L681.946 154.003 Q684.921 150.326 689.043 150.326 Q691.713 150.326 693.142 151.708 Q694.571 153.066 694.571 155.455 Q694.571 158.196 691.643 165.995 Q690.776 168.174 690.776 169.415 Q690.776 170.235 691.034 170.61 Q691.315 170.984 691.924 170.984 Q692.861 170.984 693.681 170.446 Q694.524 169.883 695.11 168.97 Q695.695 168.033 696.093 167.096 Q696.515 166.136 696.819 165.058 Q697.007 164.473 697.1 164.332 Q697.218 164.192 697.545 164.192 Q698.108 164.192 698.108 164.66 Z" fill="#000000" fill-rule="nonzero" fill-opacity="1" /><path clip-path="url(#clip730)" d="M702.985 145.214 Q702.985 144.608 703.034 144.427 Q703.1 144.247 703.362 143.968 L709.806 136.787 Q713.331 132.819 713.331 129.36 Q713.331 127.114 712.15 125.507 Q710.986 123.9 708.838 123.9 Q707.363 123.9 706.116 124.802 Q704.87 125.704 704.297 127.31 Q704.395 127.278 704.739 127.278 Q705.575 127.278 706.035 127.802 Q706.51 128.327 706.51 129.032 Q706.51 129.934 705.92 130.376 Q705.346 130.803 704.772 130.803 Q704.542 130.803 704.231 130.753 Q703.936 130.704 703.46 130.245 Q702.985 129.77 702.985 128.934 Q702.985 126.589 704.756 124.72 Q706.543 122.851 709.264 122.851 Q712.347 122.851 714.364 124.687 Q716.397 126.507 716.397 129.36 Q716.397 130.36 716.085 131.278 Q715.79 132.18 715.38 132.885 Q714.987 133.59 713.904 134.721 Q712.822 135.853 711.953 136.656 Q711.084 137.459 709.133 139.164 L705.575 142.624 L711.625 142.624 Q714.577 142.624 714.806 142.362 Q715.134 141.886 715.544 139.378 L716.397 139.378 L715.446 145.214 L702.985 145.214 Z" fill="#000000" fill-rule="nonzero" fill-opacity="1" /><path clip-path="url(#clip730)" d="M721.383 183.047 Q721.383 182.813 721.992 182.227 Q729.721 174.357 729.721 159.531 Q729.721 144.658 722.297 137.139 Q721.383 136.272 721.383 136.015 Q721.383 135.546 721.851 135.546 Q722.179 135.546 723.327 136.507 Q724.498 137.467 726.255 139.669 Q728.035 141.87 729.347 144.564 Q732.509 151.099 732.509 159.531 Q732.509 167.635 729.487 174.17 Q728.199 176.91 726.395 179.206 Q724.592 181.501 723.397 182.508 Q722.203 183.515 721.851 183.515 Q721.383 183.515 721.383 183.047 Z" fill="#000000" fill-rule="nonzero" fill-opacity="1" /><polyline clip-path="url(#clip730)" style="stroke:#e26f46; stroke-linecap:round; stroke-linejoin:round; stroke-width:4; stroke-opacity:1; fill:none" points="462.829,213.564 594.685,213.564 "/>
<circle clip-path="url(#clip730)" cx="528.757" cy="213.564" r="15.7356" fill="#e26f46" fill-rule="evenodd" fill-opacity="1" stroke="#000000" stroke-opacity="1" stroke-width="4.55111"/>
<path clip-path="url(#clip730)" d="M637.008 209.895 Q638.605 207.025 640.827 205.659 Q643.049 204.293 646.058 204.293 Q650.109 204.293 652.308 207.141 Q654.507 209.965 654.507 215.196 L654.507 230.844 L650.225 230.844 L650.225 215.335 Q650.225 211.608 648.906 209.803 Q647.586 207.997 644.878 207.997 Q641.568 207.997 639.646 210.196 Q637.725 212.395 637.725 216.191 L637.725 230.844 L633.443 230.844 L633.443 215.335 Q633.443 211.585 632.123 209.803 Q630.804 207.997 628.049 207.997 Q624.785 207.997 622.864 210.219 Q620.943 212.418 620.943 216.191 L620.943 230.844 L616.66 230.844 L616.66 204.918 L620.943 204.918 L620.943 208.946 Q622.401 206.562 624.438 205.428 Q626.475 204.293 629.276 204.293 Q632.1 204.293 634.068 205.728 Q636.059 207.164 637.008 209.895 Z" fill="#000000" fill-rule="nonzero" fill-opacity="1" /><path clip-path="url(#clip730)" d="M674.785 217.812 Q669.623 217.812 667.632 218.992 Q665.642 220.173 665.642 223.02 Q665.642 225.289 667.123 226.631 Q668.628 227.951 671.197 227.951 Q674.739 227.951 676.868 225.451 Q679.021 222.927 679.021 218.761 L679.021 217.812 L674.785 217.812 M683.28 216.052 L683.28 230.844 L679.021 230.844 L679.021 226.909 Q677.563 229.27 675.387 230.404 Q673.211 231.515 670.063 231.515 Q666.082 231.515 663.72 229.293 Q661.382 227.048 661.382 223.298 Q661.382 218.923 664.299 216.701 Q667.239 214.478 673.049 214.478 L679.021 214.478 L679.021 214.062 Q679.021 211.122 677.077 209.525 Q675.156 207.904 671.66 207.904 Q669.438 207.904 667.331 208.437 Q665.225 208.969 663.281 210.034 L663.281 206.099 Q665.619 205.196 667.818 204.756 Q670.017 204.293 672.1 204.293 Q677.725 204.293 680.503 207.21 Q683.28 210.127 683.28 216.052 Z" fill="#000000" fill-rule="nonzero" fill-opacity="1" /><path clip-path="url(#clip730)" d="M713.604 204.918 L704.229 217.534 L714.091 230.844 L709.067 230.844 L701.521 220.659 L693.975 230.844 L688.952 230.844 L699.021 217.279 L689.808 204.918 L694.831 204.918 L701.706 214.154 L708.581 204.918 L713.604 204.918 Z" fill="#000000" fill-rule="nonzero" fill-opacity="1" /><path clip-path="url(#clip730)" d="M757.354 216.816 L757.354 218.9 L737.771 218.9 Q738.049 223.298 740.41 225.613 Q742.794 227.904 747.03 227.904 Q749.484 227.904 751.775 227.302 Q754.09 226.701 756.359 225.497 L756.359 229.525 Q754.067 230.497 751.66 231.006 Q749.252 231.515 746.776 231.515 Q740.572 231.515 736.938 227.904 Q733.327 224.293 733.327 218.136 Q733.327 211.77 736.752 208.043 Q740.201 204.293 746.035 204.293 Q751.266 204.293 754.299 207.673 Q757.354 211.029 757.354 216.816 M753.095 215.566 Q753.049 212.071 751.127 209.988 Q749.229 207.904 746.081 207.904 Q742.516 207.904 740.364 209.918 Q738.234 211.932 737.91 215.59 L753.095 215.566 Z" fill="#000000" fill-rule="nonzero" fill-opacity="1" /><path clip-path="url(#clip730)" d="M779.368 208.9 Q778.65 208.483 777.794 208.298 Q776.961 208.09 775.942 208.09 Q772.331 208.09 770.386 210.451 Q768.465 212.789 768.465 217.187 L768.465 230.844 L764.183 230.844 L764.183 204.918 L768.465 204.918 L768.465 208.946 Q769.808 206.585 771.961 205.451 Q774.113 204.293 777.192 204.293 Q777.632 204.293 778.164 204.363 Q778.697 204.409 779.345 204.525 L779.368 208.9 Z" fill="#000000" fill-rule="nonzero" fill-opacity="1" /><path clip-path="url(#clip730)" d="M798.025 208.9 Q797.308 208.483 796.451 208.298 Q795.618 208.09 794.599 208.09 Q790.988 208.09 789.044 210.451 Q787.123 212.789 787.123 217.187 L787.123 230.844 L782.84 230.844 L782.84 204.918 L787.123 204.918 L787.123 208.946 Q788.465 206.585 790.618 205.451 Q792.771 204.293 795.849 204.293 Q796.289 204.293 796.822 204.363 Q797.354 204.409 798.002 204.525 L798.025 208.9 Z" fill="#000000" fill-rule="nonzero" fill-opacity="1" /><path clip-path="url(#clip730)" d="M811.497 207.904 Q808.071 207.904 806.081 210.59 Q804.09 213.252 804.09 217.904 Q804.09 222.557 806.058 225.242 Q808.048 227.904 811.497 227.904 Q814.9 227.904 816.891 225.219 Q818.882 222.534 818.882 217.904 Q818.882 213.298 816.891 210.613 Q814.9 207.904 811.497 207.904 M811.497 204.293 Q817.053 204.293 820.224 207.904 Q823.395 211.515 823.395 217.904 Q823.395 224.27 820.224 227.904 Q817.053 231.515 811.497 231.515 Q805.919 231.515 802.747 227.904 Q799.599 224.27 799.599 217.904 Q799.599 211.515 802.747 207.904 Q805.919 204.293 811.497 204.293 Z" fill="#000000" fill-rule="nonzero" fill-opacity="1" /><path clip-path="url(#clip730)" d="M845.479 208.9 Q844.761 208.483 843.905 208.298 Q843.071 208.09 842.053 208.09 Q838.442 208.09 836.497 210.451 Q834.576 212.789 834.576 217.187 L834.576 230.844 L830.294 230.844 L830.294 204.918 L834.576 204.918 L834.576 208.946 Q835.919 206.585 838.071 205.451 Q840.224 204.293 843.303 204.293 Q843.743 204.293 844.275 204.363 Q844.807 204.409 845.456 204.525 L845.479 208.9 Z" fill="#000000" fill-rule="nonzero" fill-opacity="1" /><path clip-path="url(#clip730)" d="M866.474 205.682 L866.474 209.71 Q864.668 208.784 862.724 208.321 Q860.78 207.858 858.696 207.858 Q855.525 207.858 853.928 208.83 Q852.354 209.803 852.354 211.747 Q852.354 213.228 853.488 214.085 Q854.622 214.918 858.048 215.682 L859.506 216.006 Q864.043 216.978 865.942 218.761 Q867.863 220.52 867.863 223.691 Q867.863 227.302 864.992 229.409 Q862.145 231.515 857.145 231.515 Q855.062 231.515 852.793 231.099 Q850.548 230.705 848.048 229.895 L848.048 225.497 Q850.409 226.724 852.701 227.349 Q854.993 227.951 857.238 227.951 Q860.247 227.951 861.867 226.932 Q863.488 225.89 863.488 224.015 Q863.488 222.279 862.307 221.353 Q861.15 220.427 857.192 219.571 L855.71 219.224 Q851.752 218.39 849.993 216.677 Q848.233 214.941 848.233 211.932 Q848.233 208.275 850.826 206.284 Q853.418 204.293 858.187 204.293 Q860.548 204.293 862.631 204.641 Q864.715 204.988 866.474 205.682 Z" fill="#000000" fill-rule="nonzero" fill-opacity="1" /></svg>
