<?xml version="1.0" encoding="utf-8"?>
<svg xmlns="http://www.w3.org/2000/svg" xmlns:xlink="http://www.w3.org/1999/xlink" width="600" height="400" viewBox="0 0 2400 1600">
<defs>
  <clipPath id="clip940">
    <rect x="0" y="0" width="2400" height="1600"/>
  </clipPath>
</defs>
<path clip-path="url(#clip940)" d="M0 1600 L2400 1600 L2400 0 L0 0  Z" fill="#ffffff" fill-rule="evenodd" fill-opacity="1"/>
<defs>
  <clipPath id="clip941">
    <rect x="480" y="0" width="1681" height="1600"/>
  </clipPath>
</defs>
<path clip-path="url(#clip940)" d="M221.618 1410.9 L2352.76 1410.9 L2352.76 47.2441 L221.618 47.2441  Z" fill="#ffffff" fill-rule="evenodd" fill-opacity="1"/>
<defs>
  <clipPath id="clip942">
    <rect x="221" y="47" width="2132" height="1365"/>
  </clipPath>
</defs>
<polyline clip-path="url(#clip942)" style="stroke:#000000; stroke-linecap:round; stroke-linejoin:round; stroke-width:2; stroke-opacity:0.1; fill:none" points="614.152,1410.9 614.152,47.2441 "/>
<polyline clip-path="url(#clip942)" style="stroke:#000000; stroke-linecap:round; stroke-linejoin:round; stroke-width:2; stroke-opacity:0.1; fill:none" points="1031.57,1410.9 1031.57,47.2441 "/>
<polyline clip-path="url(#clip942)" style="stroke:#000000; stroke-linecap:round; stroke-linejoin:round; stroke-width:2; stroke-opacity:0.1; fill:none" points="1449,1410.9 1449,47.2441 "/>
<polyline clip-path="url(#clip942)" style="stroke:#000000; stroke-linecap:round; stroke-linejoin:round; stroke-width:2; stroke-opacity:0.1; fill:none" points="1866.42,1410.9 1866.42,47.2441 "/>
<polyline clip-path="url(#clip942)" style="stroke:#000000; stroke-linecap:round; stroke-linejoin:round; stroke-width:2; stroke-opacity:0.1; fill:none" points="2283.84,1410.9 2283.84,47.2441 "/>
<polyline clip-path="url(#clip940)" style="stroke:#000000; stroke-linecap:round; stroke-linejoin:round; stroke-width:4; stroke-opacity:1; fill:none" points="221.618,1410.9 2352.76,1410.9 "/>
<polyline clip-path="url(#clip940)" style="stroke:#000000; stroke-linecap:round; stroke-linejoin:round; stroke-width:4; stroke-opacity:1; fill:none" points="614.152,1410.9 614.152,1392 "/>
<polyline clip-path="url(#clip940)" style="stroke:#000000; stroke-linecap:round; stroke-linejoin:round; stroke-width:4; stroke-opacity:1; fill:none" points="1031.57,1410.9 1031.57,1392 "/>
<polyline clip-path="url(#clip940)" style="stroke:#000000; stroke-linecap:round; stroke-linejoin:round; stroke-width:4; stroke-opacity:1; fill:none" points="1449,1410.9 1449,1392 "/>
<polyline clip-path="url(#clip940)" style="stroke:#000000; stroke-linecap:round; stroke-linejoin:round; stroke-width:4; stroke-opacity:1; fill:none" points="1866.42,1410.9 1866.42,1392 "/>
<polyline clip-path="url(#clip940)" style="stroke:#000000; stroke-linecap:round; stroke-linejoin:round; stroke-width:4; stroke-opacity:1; fill:none" points="2283.84,1410.9 2283.84,1392 "/>
<path clip-path="url(#clip940)" d="M579.924 1485.02 L587.563 1485.02 L587.563 1458.66 L579.253 1460.32 L579.253 1456.06 L587.517 1454.4 L592.193 1454.4 L592.193 1485.02 L599.832 1485.02 L599.832 1488.96 L579.924 1488.96 L579.924 1485.02 Z" fill="#000000" fill-rule="nonzero" fill-opacity="1" /><path clip-path="url(#clip940)" d="M619.276 1457.48 Q615.665 1457.48 613.836 1461.04 Q612.031 1464.58 612.031 1471.71 Q612.031 1478.82 613.836 1482.38 Q615.665 1485.92 619.276 1485.92 Q622.91 1485.92 624.716 1482.38 Q626.545 1478.82 626.545 1471.71 Q626.545 1464.58 624.716 1461.04 Q622.91 1457.48 619.276 1457.48 M619.276 1453.77 Q625.086 1453.77 628.142 1458.38 Q631.221 1462.96 631.221 1471.71 Q631.221 1480.44 628.142 1485.04 Q625.086 1489.63 619.276 1489.63 Q613.466 1489.63 610.387 1485.04 Q607.332 1480.44 607.332 1471.71 Q607.332 1462.96 610.387 1458.38 Q613.466 1453.77 619.276 1453.77 Z" fill="#000000" fill-rule="nonzero" fill-opacity="1" /><path clip-path="url(#clip940)" d="M635.791 1458.35 L649.05 1458.35 L649.05 1461.55 L631.221 1461.55 L631.221 1458.35 Q633.383 1456.11 637.107 1452.35 Q640.85 1448.57 641.809 1447.48 Q643.634 1445.43 644.348 1444.02 Q645.082 1442.59 645.082 1441.22 Q645.082 1438.98 643.502 1437.57 Q641.941 1436.16 639.421 1436.16 Q637.634 1436.16 635.64 1436.78 Q633.666 1437.4 631.409 1438.66 L631.409 1434.82 Q633.703 1433.9 635.697 1433.43 Q637.69 1432.96 639.345 1432.96 Q643.709 1432.96 646.304 1435.14 Q648.9 1437.32 648.9 1440.97 Q648.9 1442.7 648.242 1444.26 Q647.602 1445.8 645.891 1447.91 Q645.42 1448.46 642.9 1451.07 Q640.38 1453.67 635.791 1458.35 Z" fill="#000000" fill-rule="nonzero" fill-opacity="1" /><path clip-path="url(#clip940)" d="M997.018 1485.02 L1004.66 1485.02 L1004.66 1458.66 L996.347 1460.32 L996.347 1456.06 L1004.61 1454.4 L1009.29 1454.4 L1009.29 1485.02 L1016.93 1485.02 L1016.93 1488.96 L997.018 1488.96 L997.018 1485.02 Z" fill="#000000" fill-rule="nonzero" fill-opacity="1" /><path clip-path="url(#clip940)" d="M1036.37 1457.48 Q1032.76 1457.48 1030.93 1461.04 Q1029.12 1464.58 1029.12 1471.71 Q1029.12 1478.82 1030.93 1482.38 Q1032.76 1485.92 1036.37 1485.92 Q1040 1485.92 1041.81 1482.38 Q1043.64 1478.82 1043.64 1471.71 Q1043.64 1464.58 1041.81 1461.04 Q1040 1457.48 1036.37 1457.48 M1036.37 1453.77 Q1042.18 1453.77 1045.24 1458.38 Q1048.31 1462.96 1048.31 1471.71 Q1048.31 1480.44 1045.24 1485.04 Q1042.18 1489.63 1036.37 1489.63 Q1030.56 1489.63 1027.48 1485.04 Q1024.43 1480.44 1024.43 1471.71 Q1024.43 1462.96 1027.48 1458.38 Q1030.56 1453.77 1036.37 1453.77 Z" fill="#000000" fill-rule="nonzero" fill-opacity="1" /><path clip-path="url(#clip940)" d="M1061.01 1446.41 Q1063.74 1446.99 1065.26 1448.83 Q1066.8 1450.68 1066.8 1453.38 Q1066.8 1457.54 1063.94 1459.82 Q1061.08 1462.09 1055.82 1462.09 Q1054.05 1462.09 1052.17 1461.73 Q1050.31 1461.4 1048.31 1460.7 L1048.31 1457.03 Q1049.89 1457.95 1051.77 1458.42 Q1053.66 1458.89 1055.71 1458.89 Q1059.28 1458.89 1061.14 1457.48 Q1063.02 1456.07 1063.02 1453.38 Q1063.02 1450.9 1061.27 1449.51 Q1059.54 1448.1 1056.44 1448.1 L1053.17 1448.1 L1053.17 1444.98 L1056.59 1444.98 Q1059.39 1444.98 1060.88 1443.87 Q1062.36 1442.74 1062.36 1440.63 Q1062.36 1438.47 1060.82 1437.32 Q1059.3 1436.16 1056.44 1436.16 Q1054.88 1436.16 1053.09 1436.49 Q1051.3 1436.83 1049.16 1437.55 L1049.16 1434.16 Q1051.32 1433.56 1053.2 1433.26 Q1055.1 1432.96 1056.78 1432.96 Q1061.1 1432.96 1063.62 1434.93 Q1066.14 1436.89 1066.14 1440.24 Q1066.14 1442.57 1064.81 1444.19 Q1063.47 1445.79 1061.01 1446.41 Z" fill="#000000" fill-rule="nonzero" fill-opacity="1" /><path clip-path="url(#clip940)" d="M1413.45 1485.02 L1421.09 1485.02 L1421.09 1458.66 L1412.78 1460.32 L1412.78 1456.06 L1421.05 1454.4 L1425.72 1454.4 L1425.72 1485.02 L1433.36 1485.02 L1433.36 1488.96 L1413.45 1488.96 L1413.45 1485.02 Z" fill="#000000" fill-rule="nonzero" fill-opacity="1" /><path clip-path="url(#clip940)" d="M1452.8 1457.48 Q1449.19 1457.48 1447.36 1461.04 Q1445.56 1464.58 1445.56 1471.71 Q1445.56 1478.82 1447.36 1482.38 Q1449.19 1485.92 1452.8 1485.92 Q1456.44 1485.92 1458.24 1482.38 Q1460.07 1478.82 1460.07 1471.71 Q1460.07 1464.58 1458.24 1461.04 Q1456.44 1457.48 1452.8 1457.48 M1452.8 1453.77 Q1458.61 1453.77 1461.67 1458.38 Q1464.75 1462.96 1464.75 1471.71 Q1464.75 1480.44 1461.67 1485.04 Q1458.61 1489.63 1452.8 1489.63 Q1446.99 1489.63 1443.92 1485.04 Q1440.86 1480.44 1440.86 1471.71 Q1440.86 1462.96 1443.92 1458.38 Q1446.99 1453.77 1452.8 1453.77 Z" fill="#000000" fill-rule="nonzero" fill-opacity="1" /><path clip-path="url(#clip940)" d="M1477.43 1436.78 L1467.83 1451.77 L1477.43 1451.77 L1477.43 1436.78 M1476.43 1433.47 L1481.21 1433.47 L1481.21 1451.77 L1485.21 1451.77 L1485.21 1454.93 L1481.21 1454.93 L1481.21 1461.55 L1477.43 1461.55 L1477.43 1454.93 L1464.75 1454.93 L1464.75 1451.26 L1476.43 1433.47 Z" fill="#000000" fill-rule="nonzero" fill-opacity="1" /><path clip-path="url(#clip940)" d="M1832.02 1485.02 L1839.66 1485.02 L1839.66 1458.66 L1831.35 1460.32 L1831.35 1456.06 L1839.62 1454.4 L1844.29 1454.4 L1844.29 1485.02 L1851.93 1485.02 L1851.93 1488.96 L1832.02 1488.96 L1832.02 1485.02 Z" fill="#000000" fill-rule="nonzero" fill-opacity="1" /><path clip-path="url(#clip940)" d="M1871.37 1457.48 Q1867.76 1457.48 1865.93 1461.04 Q1864.13 1464.58 1864.13 1471.71 Q1864.13 1478.82 1865.93 1482.38 Q1867.76 1485.92 1871.37 1485.92 Q1875.01 1485.92 1876.81 1482.38 Q1878.64 1478.82 1878.64 1471.71 Q1878.64 1464.58 1876.81 1461.04 Q1875.01 1457.48 1871.37 1457.48 M1871.37 1453.77 Q1877.18 1453.77 1880.24 1458.38 Q1883.32 1462.96 1883.32 1471.71 Q1883.32 1480.44 1880.24 1485.04 Q1877.18 1489.63 1871.37 1489.63 Q1865.56 1489.63 1862.49 1485.04 Q1859.43 1480.44 1859.43 1471.71 Q1859.43 1462.96 1862.49 1458.38 Q1865.56 1453.77 1871.37 1453.77 Z" fill="#000000" fill-rule="nonzero" fill-opacity="1" /><path clip-path="url(#clip940)" d="M1884.5 1433.47 L1899.42 1433.47 L1899.42 1436.66 L1887.98 1436.66 L1887.98 1443.55 Q1888.81 1443.27 1889.64 1443.13 Q1890.47 1442.98 1891.29 1442.98 Q1896 1442.98 1898.74 1445.56 Q1901.49 1448.14 1901.49 1452.54 Q1901.49 1457.07 1898.67 1459.59 Q1895.84 1462.09 1890.71 1462.09 Q1888.94 1462.09 1887.1 1461.79 Q1885.27 1461.49 1883.32 1460.89 L1883.32 1457.07 Q1885.01 1457.99 1886.82 1458.44 Q1888.62 1458.89 1890.64 1458.89 Q1893.89 1458.89 1895.79 1457.18 Q1897.69 1455.47 1897.69 1452.54 Q1897.69 1449.6 1895.79 1447.89 Q1893.89 1446.18 1890.64 1446.18 Q1889.11 1446.18 1887.59 1446.52 Q1886.08 1446.86 1884.5 1447.57 L1884.5 1433.47 Z" fill="#000000" fill-rule="nonzero" fill-opacity="1" /><path clip-path="url(#clip940)" d="M2248.83 1485.02 L2256.47 1485.02 L2256.47 1458.66 L2248.16 1460.32 L2248.16 1456.06 L2256.43 1454.4 L2261.1 1454.4 L2261.1 1485.02 L2268.74 1485.02 L2268.74 1488.96 L2248.83 1488.96 L2248.83 1485.02 Z" fill="#000000" fill-rule="nonzero" fill-opacity="1" /><path clip-path="url(#clip940)" d="M2288.19 1457.48 Q2284.57 1457.48 2282.75 1461.04 Q2280.94 1464.58 2280.94 1471.71 Q2280.94 1478.82 2282.75 1482.38 Q2284.57 1485.92 2288.19 1485.92 Q2291.82 1485.92 2293.63 1482.38 Q2295.45 1478.82 2295.45 1471.71 Q2295.45 1464.58 2293.63 1461.04 Q2291.82 1457.48 2288.19 1457.48 M2288.19 1453.77 Q2294 1453.77 2297.05 1458.38 Q2300.13 1462.96 2300.13 1471.71 Q2300.13 1480.44 2297.05 1485.04 Q2294 1489.63 2288.19 1489.63 Q2282.38 1489.63 2279.3 1485.04 Q2276.24 1480.44 2276.24 1471.71 Q2276.24 1462.96 2279.3 1458.38 Q2282.38 1453.77 2288.19 1453.77 Z" fill="#000000" fill-rule="nonzero" fill-opacity="1" /><path clip-path="url(#clip940)" d="M2310.15 1445.99 Q2307.6 1445.99 2306.09 1447.74 Q2304.61 1449.49 2304.61 1452.54 Q2304.61 1455.57 2306.09 1457.33 Q2307.6 1459.08 2310.15 1459.08 Q2312.71 1459.08 2314.2 1457.33 Q2315.7 1455.57 2315.7 1452.54 Q2315.7 1449.49 2314.2 1447.74 Q2312.71 1445.99 2310.15 1445.99 M2317.7 1434.09 L2317.7 1437.55 Q2316.27 1436.87 2314.8 1436.51 Q2313.35 1436.16 2311.92 1436.16 Q2308.16 1436.16 2306.17 1438.69 Q2304.19 1441.23 2303.91 1446.37 Q2305.02 1444.73 2306.69 1443.87 Q2308.37 1442.98 2310.38 1442.98 Q2314.61 1442.98 2317.06 1445.56 Q2319.52 1448.12 2319.52 1452.54 Q2319.52 1456.86 2316.96 1459.48 Q2314.41 1462.09 2310.15 1462.09 Q2305.28 1462.09 2302.71 1458.37 Q2300.13 1454.62 2300.13 1447.53 Q2300.13 1440.88 2303.29 1436.93 Q2306.45 1432.96 2311.77 1432.96 Q2313.2 1432.96 2314.65 1433.24 Q2316.12 1433.52 2317.7 1434.09 Z" fill="#000000" fill-rule="nonzero" fill-opacity="1" /><path clip-path="url(#clip940)" d="M1141.86 1526.67 L1150.52 1526.67 L1171.59 1566.42 L1171.59 1526.67 L1177.82 1526.67 L1177.82 1574.19 L1169.17 1574.19 L1148.1 1534.43 L1148.1 1574.19 L1141.86 1574.19 L1141.86 1526.67 Z" fill="#000000" fill-rule="nonzero" fill-opacity="1" /><path clip-path="url(#clip940)" d="M1225.15 1524.72 Q1220.89 1532.04 1218.82 1539.21 Q1216.75 1546.37 1216.75 1553.72 Q1216.75 1561.07 1218.82 1568.3 Q1220.92 1575.49 1225.15 1582.78 L1220.06 1582.78 Q1215.29 1575.3 1212.9 1568.07 Q1210.54 1560.85 1210.54 1553.72 Q1210.54 1546.62 1212.9 1539.43 Q1215.25 1532.24 1220.06 1524.72 L1225.15 1524.72 Z" fill="#000000" fill-rule="nonzero" fill-opacity="1" /><path clip-path="url(#clip940)" d="M1236.52 1524.66 L1242.37 1524.66 L1242.37 1574.19 L1236.52 1574.19 L1236.52 1524.66 Z" fill="#000000" fill-rule="nonzero" fill-opacity="1" /><path clip-path="url(#clip940)" d="M1268.44 1542.64 Q1263.73 1542.64 1260.99 1546.34 Q1258.25 1550 1258.25 1556.39 Q1258.25 1562.79 1260.96 1566.48 Q1263.7 1570.14 1268.44 1570.14 Q1273.12 1570.14 1275.86 1566.45 Q1278.59 1562.76 1278.59 1556.39 Q1278.59 1550.06 1275.86 1546.37 Q1273.12 1542.64 1268.44 1542.64 M1268.44 1537.68 Q1276.08 1537.68 1280.44 1542.64 Q1284.8 1547.61 1284.8 1556.39 Q1284.8 1565.15 1280.44 1570.14 Q1276.08 1575.11 1268.44 1575.11 Q1260.77 1575.11 1256.41 1570.14 Q1252.08 1565.15 1252.08 1556.39 Q1252.08 1547.61 1256.41 1542.64 Q1260.77 1537.68 1268.44 1537.68 Z" fill="#000000" fill-rule="nonzero" fill-opacity="1" /><path clip-path="url(#clip940)" d="M1317.97 1555.95 Q1317.97 1549.58 1315.32 1546.08 Q1312.71 1542.58 1307.97 1542.58 Q1303.26 1542.58 1300.62 1546.08 Q1298.01 1549.58 1298.01 1555.95 Q1298.01 1562.28 1300.62 1565.78 Q1303.26 1569.28 1307.97 1569.28 Q1312.71 1569.28 1315.32 1565.78 Q1317.97 1562.28 1317.97 1555.95 M1323.82 1569.76 Q1323.82 1578.86 1319.78 1583.29 Q1315.74 1587.74 1307.4 1587.74 Q1304.31 1587.74 1301.57 1587.27 Q1298.84 1586.82 1296.26 1585.87 L1296.26 1580.17 Q1298.84 1581.57 1301.35 1582.24 Q1303.87 1582.91 1306.48 1582.91 Q1312.24 1582.91 1315.1 1579.88 Q1317.97 1576.89 1317.97 1570.81 L1317.97 1567.92 Q1316.15 1571.07 1313.32 1572.63 Q1310.49 1574.19 1306.54 1574.19 Q1299.98 1574.19 1295.97 1569.19 Q1291.96 1564.19 1291.96 1555.95 Q1291.96 1547.67 1295.97 1542.68 Q1299.98 1537.68 1306.54 1537.68 Q1310.49 1537.68 1313.32 1539.24 Q1316.15 1540.8 1317.97 1543.95 L1317.97 1538.54 L1323.82 1538.54 L1323.82 1569.76 Z" fill="#000000" fill-rule="nonzero" fill-opacity="1" /><path clip-path="url(#clip940)" d="M1337.83 1568.77 L1348.33 1568.77 L1348.33 1532.52 L1336.9 1534.81 L1336.9 1528.96 L1348.27 1526.67 L1354.7 1526.67 L1354.7 1568.77 L1365.2 1568.77 L1365.2 1574.19 L1337.83 1574.19 L1337.83 1568.77 Z" fill="#000000" fill-rule="nonzero" fill-opacity="1" /><path clip-path="url(#clip940)" d="M1391.93 1530.9 Q1386.97 1530.9 1384.46 1535.8 Q1381.97 1540.67 1381.97 1550.47 Q1381.97 1560.24 1384.46 1565.15 Q1386.97 1570.02 1391.93 1570.02 Q1396.93 1570.02 1399.41 1565.15 Q1401.93 1560.24 1401.93 1550.47 Q1401.93 1540.67 1399.41 1535.8 Q1396.93 1530.9 1391.93 1530.9 M1391.93 1525.81 Q1399.92 1525.81 1404.13 1532.14 Q1408.36 1538.44 1408.36 1550.47 Q1408.36 1562.47 1404.13 1568.81 Q1399.92 1575.11 1391.93 1575.11 Q1383.95 1575.11 1379.71 1568.81 Q1375.51 1562.47 1375.51 1550.47 Q1375.51 1538.44 1379.71 1532.14 Q1383.95 1525.81 1391.93 1525.81 Z" fill="#000000" fill-rule="nonzero" fill-opacity="1" /><path clip-path="url(#clip940)" d="M1417.91 1524.72 L1423 1524.72 Q1427.77 1532.24 1430.13 1539.43 Q1432.52 1546.62 1432.52 1553.72 Q1432.52 1560.85 1430.13 1568.07 Q1427.77 1575.3 1423 1582.78 L1417.91 1582.78 Q1422.14 1575.49 1424.21 1568.3 Q1426.31 1561.07 1426.31 1553.72 Q1426.31 1546.37 1424.21 1539.21 Q1422.14 1532.04 1417.91 1524.72 Z" fill="#000000" fill-rule="nonzero" fill-opacity="1" /><polyline clip-path="url(#clip942)" style="stroke:#000000; stroke-linecap:round; stroke-linejoin:round; stroke-width:2; stroke-opacity:0.1; fill:none" points="221.618,1292.24 2352.76,1292.24 "/>
<polyline clip-path="url(#clip942)" style="stroke:#000000; stroke-linecap:round; stroke-linejoin:round; stroke-width:2; stroke-opacity:0.1; fill:none" points="221.618,584.044 2352.76,584.044 "/>
<polyline clip-path="url(#clip940)" style="stroke:#000000; stroke-linecap:round; stroke-linejoin:round; stroke-width:4; stroke-opacity:1; fill:none" points="221.618,1410.9 221.618,47.2441 "/>
<polyline clip-path="url(#clip940)" style="stroke:#000000; stroke-linecap:round; stroke-linejoin:round; stroke-width:4; stroke-opacity:1; fill:none" points="221.618,1292.24 240.516,1292.24 "/>
<polyline clip-path="url(#clip940)" style="stroke:#000000; stroke-linecap:round; stroke-linejoin:round; stroke-width:4; stroke-opacity:1; fill:none" points="221.618,584.044 240.516,584.044 "/>
<path clip-path="url(#clip940)" d="M115.834 1312.04 L123.473 1312.04 L123.473 1285.67 L115.163 1287.34 L115.163 1283.08 L123.427 1281.41 L128.103 1281.41 L128.103 1312.04 L135.742 1312.04 L135.742 1315.97 L115.834 1315.97 L115.834 1312.04 Z" fill="#000000" fill-rule="nonzero" fill-opacity="1" /><path clip-path="url(#clip940)" d="M155.186 1284.49 Q151.575 1284.49 149.746 1288.06 Q147.941 1291.6 147.941 1298.73 Q147.941 1305.83 149.746 1309.4 Q151.575 1312.94 155.186 1312.94 Q158.82 1312.94 160.626 1309.4 Q162.454 1305.83 162.454 1298.73 Q162.454 1291.6 160.626 1288.06 Q158.82 1284.49 155.186 1284.49 M155.186 1280.79 Q160.996 1280.79 164.052 1285.39 Q167.13 1289.98 167.13 1298.73 Q167.13 1307.45 164.052 1312.06 Q160.996 1316.64 155.186 1316.64 Q149.376 1316.64 146.297 1312.06 Q143.241 1307.45 143.241 1298.73 Q143.241 1289.98 146.297 1285.39 Q149.376 1280.79 155.186 1280.79 Z" fill="#000000" fill-rule="nonzero" fill-opacity="1" /><path clip-path="url(#clip940)" d="M179.825 1273.42 Q182.553 1274 184.076 1275.85 Q185.618 1277.69 185.618 1280.4 Q185.618 1284.56 182.76 1286.83 Q179.901 1289.11 174.635 1289.11 Q172.867 1289.11 170.986 1288.75 Q169.124 1288.41 167.13 1287.72 L167.13 1284.05 Q168.71 1284.97 170.591 1285.44 Q172.472 1285.91 174.522 1285.91 Q178.095 1285.91 179.957 1284.5 Q181.838 1283.09 181.838 1280.4 Q181.838 1277.92 180.089 1276.52 Q178.358 1275.11 175.255 1275.11 L171.983 1275.11 L171.983 1271.99 L175.406 1271.99 Q178.208 1271.99 179.694 1270.88 Q181.18 1269.75 181.18 1267.65 Q181.18 1265.48 179.637 1264.34 Q178.114 1263.17 175.255 1263.17 Q173.694 1263.17 171.907 1263.51 Q170.121 1263.85 167.977 1264.56 L167.977 1261.18 Q170.139 1260.58 172.02 1260.27 Q173.92 1259.97 175.594 1259.97 Q179.92 1259.97 182.44 1261.95 Q184.96 1263.9 184.96 1267.25 Q184.96 1269.58 183.625 1271.2 Q182.289 1272.8 179.825 1273.42 Z" fill="#000000" fill-rule="nonzero" fill-opacity="1" /><path clip-path="url(#clip940)" d="M114.931 603.836 L122.57 603.836 L122.57 577.471 L114.26 579.138 L114.26 574.878 L122.524 573.212 L127.2 573.212 L127.2 603.836 L134.839 603.836 L134.839 607.772 L114.931 607.772 L114.931 603.836 Z" fill="#000000" fill-rule="nonzero" fill-opacity="1" /><path clip-path="url(#clip940)" d="M154.283 576.29 Q150.672 576.29 148.843 579.855 Q147.038 583.397 147.038 590.526 Q147.038 597.633 148.843 601.198 Q150.672 604.739 154.283 604.739 Q157.917 604.739 159.723 601.198 Q161.552 597.633 161.552 590.526 Q161.552 583.397 159.723 579.855 Q157.917 576.29 154.283 576.29 M154.283 572.587 Q160.093 572.587 163.149 577.193 Q166.227 581.776 166.227 590.526 Q166.227 599.253 163.149 603.86 Q160.093 608.443 154.283 608.443 Q148.473 608.443 145.394 603.86 Q142.339 599.253 142.339 590.526 Q142.339 581.776 145.394 577.193 Q148.473 572.587 154.283 572.587 Z" fill="#000000" fill-rule="nonzero" fill-opacity="1" /><path clip-path="url(#clip940)" d="M176.252 564.807 Q173.694 564.807 172.19 566.556 Q170.704 568.305 170.704 571.352 Q170.704 574.38 172.19 576.148 Q173.694 577.897 176.252 577.897 Q178.81 577.897 180.296 576.148 Q181.8 574.38 181.8 571.352 Q181.8 568.305 180.296 566.556 Q178.81 564.807 176.252 564.807 M183.794 552.902 L183.794 556.362 Q182.365 555.685 180.898 555.328 Q179.449 554.971 178.02 554.971 Q174.258 554.971 172.265 557.51 Q170.29 560.049 170.008 565.183 Q171.117 563.547 172.791 562.682 Q174.465 561.798 176.478 561.798 Q180.709 561.798 183.154 564.375 Q185.618 566.932 185.618 571.352 Q185.618 575.678 183.06 578.292 Q180.503 580.907 176.252 580.907 Q171.381 580.907 168.804 577.183 Q166.227 573.44 166.227 566.349 Q166.227 559.691 169.387 555.742 Q172.547 551.773 177.869 551.773 Q179.299 551.773 180.747 552.056 Q182.214 552.338 183.794 552.902 Z" fill="#000000" fill-rule="nonzero" fill-opacity="1" /><path clip-path="url(#clip940)" d="M46.0847 925.755 Q46.0847 932.853 47.7079 935.59 Q49.3312 938.327 53.2461 938.327 Q56.3653 938.327 58.2114 936.29 Q60.0256 934.221 60.0256 930.688 Q60.0256 925.818 56.5881 922.89 Q53.1188 919.93 47.3897 919.93 L46.0847 919.93 L46.0847 925.755 M43.6657 914.074 L64.0042 914.074 L64.0042 919.93 L58.5933 919.93 Q61.8398 921.935 63.3994 924.927 Q64.9272 927.919 64.9272 932.248 Q64.9272 937.722 61.8716 940.969 Q58.7843 944.184 53.6281 944.184 Q47.6125 944.184 44.5569 940.173 Q41.5014 936.131 41.5014 928.142 L41.5014 919.93 L40.9285 919.93 Q36.8862 919.93 34.6901 922.604 Q32.4621 925.246 32.4621 930.052 Q32.4621 933.107 33.1941 936.004 Q33.9262 938.9 35.3903 941.574 L29.9795 941.574 Q28.7381 938.359 28.1334 935.335 Q27.4968 932.311 27.4968 929.447 Q27.4968 921.713 31.5072 917.893 Q35.5176 914.074 43.6657 914.074 Z" fill="#000000" fill-rule="nonzero" fill-opacity="1" /><path clip-path="url(#clip940)" d="M14.479 902.011 L14.479 896.154 L64.0042 896.154 L64.0042 902.011 L14.479 902.011 Z" fill="#000000" fill-rule="nonzero" fill-opacity="1" /><path clip-path="url(#clip940)" d="M14.479 883.9 L14.479 878.044 L64.0042 878.044 L64.0042 883.9 L14.479 883.9 Z" fill="#000000" fill-rule="nonzero" fill-opacity="1" /><path clip-path="url(#clip940)" d="M32.4621 851.976 Q32.4621 856.687 36.1542 859.424 Q39.8145 862.161 46.212 862.161 Q52.6095 862.161 56.3017 859.456 Q59.9619 856.719 59.9619 851.976 Q59.9619 847.297 56.2698 844.56 Q52.5777 841.823 46.212 841.823 Q39.8781 841.823 36.186 844.56 Q32.4621 847.297 32.4621 851.976 M27.4968 851.976 Q27.4968 844.337 32.4621 839.977 Q37.4273 835.616 46.212 835.616 Q54.9649 835.616 59.9619 839.977 Q64.9272 844.337 64.9272 851.976 Q64.9272 859.647 59.9619 864.007 Q54.9649 868.336 46.212 868.336 Q37.4273 868.336 32.4621 864.007 Q27.4968 859.647 27.4968 851.976 Z" fill="#000000" fill-rule="nonzero" fill-opacity="1" /><path clip-path="url(#clip940)" d="M29.7248 800.255 L35.1993 800.255 Q33.8307 802.738 33.1623 805.252 Q32.4621 807.735 32.4621 810.281 Q32.4621 815.978 36.0905 819.129 Q39.6872 822.28 46.212 822.28 Q52.7369 822.28 56.3653 819.129 Q59.9619 815.978 59.9619 810.281 Q59.9619 807.735 59.2935 805.252 Q58.5933 802.738 57.2247 800.255 L62.6355 800.255 Q63.7814 802.706 64.3543 805.347 Q64.9272 807.957 64.9272 810.917 Q64.9272 818.97 59.8664 823.713 Q54.8057 828.455 46.212 828.455 Q37.491 828.455 32.4939 823.681 Q27.4968 818.875 27.4968 810.535 Q27.4968 807.83 28.0697 805.252 Q28.6108 802.674 29.7248 800.255 Z" fill="#000000" fill-rule="nonzero" fill-opacity="1" /><path clip-path="url(#clip940)" d="M29.4065 767.344 L34.9447 767.344 Q33.6716 769.827 33.035 772.5 Q32.3984 775.174 32.3984 778.039 Q32.3984 782.399 33.7352 784.595 Q35.072 786.76 37.7456 786.76 Q39.7826 786.76 40.9603 785.2 Q42.1061 783.64 43.1565 778.93 L43.6021 776.925 Q44.9389 770.686 47.3897 768.076 Q49.8086 765.434 54.1691 765.434 Q59.1344 765.434 62.0308 769.381 Q64.9272 773.296 64.9272 780.171 Q64.9272 783.036 64.3543 786.155 Q63.8132 789.242 62.6992 792.68 L56.6518 792.68 Q58.3387 789.433 59.198 786.282 Q60.0256 783.131 60.0256 780.044 Q60.0256 775.906 58.6251 773.678 Q57.1929 771.45 54.6147 771.45 Q52.2276 771.45 50.9545 773.073 Q49.6813 774.665 48.5037 780.107 L48.0262 782.144 Q46.8804 787.587 44.5251 790.006 Q42.138 792.425 38.0002 792.425 Q32.9713 792.425 30.2341 788.86 Q27.4968 785.295 27.4968 778.739 Q27.4968 775.492 27.9743 772.628 Q28.4517 769.763 29.4065 767.344 Z" fill="#000000" fill-rule="nonzero" fill-opacity="1" /><path clip-path="url(#clip940)" d="M14.5426 721.32 Q21.8632 725.585 29.0246 727.654 Q36.186 729.723 43.5384 729.723 Q50.8908 729.723 58.1159 727.654 Q65.3091 725.553 72.5979 721.32 L72.5979 726.413 Q65.1182 731.187 57.8931 733.574 Q50.668 735.929 43.5384 735.929 Q36.4406 735.929 29.2474 733.574 Q22.0542 731.219 14.5426 726.413 L14.5426 721.32 Z" fill="#000000" fill-rule="nonzero" fill-opacity="1" /><path clip-path="url(#clip940)" d="M14.479 709.957 L14.479 704.101 L64.0042 704.101 L64.0042 709.957 L14.479 709.957 Z" fill="#000000" fill-rule="nonzero" fill-opacity="1" /><path clip-path="url(#clip940)" d="M32.4621 678.033 Q32.4621 682.744 36.1542 685.481 Q39.8145 688.218 46.212 688.218 Q52.6095 688.218 56.3017 685.513 Q59.9619 682.776 59.9619 678.033 Q59.9619 673.355 56.2698 670.617 Q52.5777 667.88 46.212 667.88 Q39.8781 667.88 36.186 670.617 Q32.4621 673.355 32.4621 678.033 M27.4968 678.033 Q27.4968 670.394 32.4621 666.034 Q37.4273 661.673 46.212 661.673 Q54.9649 661.673 59.9619 666.034 Q64.9272 670.394 64.9272 678.033 Q64.9272 685.704 59.9619 690.065 Q54.9649 694.393 46.212 694.393 Q37.4273 694.393 32.4621 690.065 Q27.4968 685.704 27.4968 678.033 Z" fill="#000000" fill-rule="nonzero" fill-opacity="1" /><path clip-path="url(#clip940)" d="M45.7664 628.508 Q39.4007 628.508 35.8996 631.15 Q32.3984 633.76 32.3984 638.502 Q32.3984 643.213 35.8996 645.855 Q39.4007 648.465 45.7664 648.465 Q52.1003 648.465 55.6014 645.855 Q59.1026 643.213 59.1026 638.502 Q59.1026 633.76 55.6014 631.15 Q52.1003 628.508 45.7664 628.508 M59.58 622.652 Q68.683 622.652 73.1071 626.694 Q77.5631 630.736 77.5631 639.075 Q77.5631 642.163 77.0857 644.9 Q76.6401 647.637 75.6852 650.215 L69.9879 650.215 Q71.3884 647.637 72.0568 645.123 Q72.7252 642.608 72.7252 639.998 Q72.7252 634.237 69.7015 631.373 Q66.7096 628.508 60.6303 628.508 L57.7339 628.508 Q60.885 630.322 62.4446 633.155 Q64.0042 635.988 64.0042 639.935 Q64.0042 646.491 59.0071 650.502 Q54.01 654.512 45.7664 654.512 Q37.491 654.512 32.4939 650.502 Q27.4968 646.491 27.4968 639.935 Q27.4968 635.988 29.0564 633.155 Q30.616 630.322 33.7671 628.508 L28.3562 628.508 L28.3562 622.652 L59.58 622.652 Z" fill="#000000" fill-rule="nonzero" fill-opacity="1" /><path clip-path="url(#clip940)" d="M58.5933 608.647 L58.5933 598.144 L22.3406 598.144 L24.6323 609.57 L18.7758 609.57 L16.4842 598.207 L16.4842 591.778 L58.5933 591.778 L58.5933 581.275 L64.0042 581.275 L64.0042 608.647 L58.5933 608.647 Z" fill="#000000" fill-rule="nonzero" fill-opacity="1" /><path clip-path="url(#clip940)" d="M20.7174 554.539 Q20.7174 559.504 25.6189 562.018 Q30.4887 564.501 40.2919 564.501 Q50.0633 564.501 54.9649 562.018 Q59.8346 559.504 59.8346 554.539 Q59.8346 549.542 54.9649 547.059 Q50.0633 544.544 40.2919 544.544 Q30.4887 544.544 25.6189 547.059 Q20.7174 549.542 20.7174 554.539 M15.6248 554.539 Q15.6248 546.55 21.9587 542.348 Q28.2607 538.115 40.2919 538.115 Q52.2913 538.115 58.6251 542.348 Q64.9272 546.55 64.9272 554.539 Q64.9272 562.528 58.6251 566.761 Q52.2913 570.962 40.2919 570.962 Q28.2607 570.962 21.9587 566.761 Q15.6248 562.528 15.6248 554.539 Z" fill="#000000" fill-rule="nonzero" fill-opacity="1" /><path clip-path="url(#clip940)" d="M14.5426 528.567 L14.5426 523.474 Q22.0542 518.7 29.2474 516.344 Q36.4406 513.957 43.5384 513.957 Q50.668 513.957 57.8931 516.344 Q65.1182 518.7 72.5979 523.474 L72.5979 528.567 Q65.3091 524.333 58.1159 522.264 Q50.8908 520.164 43.5384 520.164 Q36.186 520.164 29.0246 522.264 Q21.8632 524.333 14.5426 528.567 Z" fill="#000000" fill-rule="nonzero" fill-opacity="1" /><polyline clip-path="url(#clip942)" style="stroke:#009af9; stroke-linecap:round; stroke-linejoin:round; stroke-width:4; stroke-opacity:1; fill:none" points="281.933,1346.69 533.247,1316.67 784.56,1246.13 1035.87,1134.59 1287.19,1002.09 1538.5,862.537 1789.81,721.078 2041.13,579.122 2292.44,437.04 "/>
<circle clip-path="url(#clip942)" cx="281.933" cy="1346.69" r="14.4" fill="#009af9" fill-rule="evenodd" fill-opacity="1" stroke="#000000" stroke-opacity="1" stroke-width="3.2"/>
<circle clip-path="url(#clip942)" cx="533.247" cy="1316.67" r="14.4" fill="#009af9" fill-rule="evenodd" fill-opacity="1" stroke="#000000" stroke-opacity="1" stroke-width="3.2"/>
<circle clip-path="url(#clip942)" cx="784.56" cy="1246.13" r="14.4" fill="#009af9" fill-rule="evenodd" fill-opacity="1" stroke="#000000" stroke-opacity="1" stroke-width="3.2"/>
<circle clip-path="url(#clip942)" cx="1035.87" cy="1134.59" r="14.4" fill="#009af9" fill-rule="evenodd" fill-opacity="1" stroke="#000000" stroke-opacity="1" stroke-width="3.2"/>
<circle clip-path="url(#clip942)" cx="1287.19" cy="1002.09" r="14.4" fill="#009af9" fill-rule="evenodd" fill-opacity="1" stroke="#000000" stroke-opacity="1" stroke-width="3.2"/>
<circle clip-path="url(#clip942)" cx="1538.5" cy="862.537" r="14.4" fill="#009af9" fill-rule="evenodd" fill-opacity="1" stroke="#000000" stroke-opacity="1" stroke-width="3.2"/>
<circle clip-path="url(#clip942)" cx="1789.81" cy="721.078" r="14.4" fill="#009af9" fill-rule="evenodd" fill-opacity="1" stroke="#000000" stroke-opacity="1" stroke-width="3.2"/>
<circle clip-path="url(#clip942)" cx="2041.13" cy="579.122" r="14.4" fill="#009af9" fill-rule="evenodd" fill-opacity="1" stroke="#000000" stroke-opacity="1" stroke-width="3.2"/>
<circle clip-path="url(#clip942)" cx="2292.44" cy="437.04" r="14.4" fill="#009af9" fill-rule="evenodd" fill-opacity="1" stroke="#000000" stroke-opacity="1" stroke-width="3.2"/>
<polyline clip-path="url(#clip942)" style="stroke:#e26f46; stroke-linecap:round; stroke-linejoin:round; stroke-width:4; stroke-opacity:1; fill:none" points="281.933,1357.33 533.247,1355.8 784.56,1353.54 1035.87,1350.96 1287.19,1349.87 1538.5,1347.74 1789.81,1345.65 2041.13,1343.6 2292.44,1341.58 "/>
<path clip-path="url(#clip942)" d="M265.933 1341.33 L265.933 1373.33 L297.933 1373.33 L297.933 1341.33 L265.933 1341.33 Z" fill="#e26f46" fill-rule="evenodd" fill-opacity="1" stroke="#000000" stroke-opacity="1" stroke-width="3.2"/>
<path clip-path="url(#clip942)" d="M517.247 1339.8 L517.247 1371.8 L549.247 1371.8 L549.247 1339.8 L517.247 1339.8 Z" fill="#e26f46" fill-rule="evenodd" fill-opacity="1" stroke="#000000" stroke-opacity="1" stroke-width="3.2"/>
<path clip-path="url(#clip942)" d="M768.56 1337.54 L768.56 1369.54 L800.56 1369.54 L800.56 1337.54 L768.56 1337.54 Z" fill="#e26f46" fill-rule="evenodd" fill-opacity="1" stroke="#000000" stroke-opacity="1" stroke-width="3.2"/>
<path clip-path="url(#clip942)" d="M1019.87 1334.96 L1019.87 1366.96 L1051.87 1366.96 L1051.87 1334.96 L1019.87 1334.96 Z" fill="#e26f46" fill-rule="evenodd" fill-opacity="1" stroke="#000000" stroke-opacity="1" stroke-width="3.2"/>
<path clip-path="url(#clip942)" d="M1271.19 1333.87 L1271.19 1365.87 L1303.19 1365.87 L1303.19 1333.87 L1271.19 1333.87 Z" fill="#e26f46" fill-rule="evenodd" fill-opacity="1" stroke="#000000" stroke-opacity="1" stroke-width="3.2"/>
<path clip-path="url(#clip942)" d="M1522.5 1331.74 L1522.5 1363.74 L1554.5 1363.74 L1554.5 1331.74 L1522.5 1331.74 Z" fill="#e26f46" fill-rule="evenodd" fill-opacity="1" stroke="#000000" stroke-opacity="1" stroke-width="3.2"/>
<path clip-path="url(#clip942)" d="M1773.81 1329.65 L1773.81 1361.65 L1805.81 1361.65 L1805.81 1329.65 L1773.81 1329.65 Z" fill="#e26f46" fill-rule="evenodd" fill-opacity="1" stroke="#000000" stroke-opacity="1" stroke-width="3.2"/>
<path clip-path="url(#clip942)" d="M2025.13 1327.6 L2025.13 1359.6 L2057.13 1359.6 L2057.13 1327.6 L2025.13 1327.6 Z" fill="#e26f46" fill-rule="evenodd" fill-opacity="1" stroke="#000000" stroke-opacity="1" stroke-width="3.2"/>
<path clip-path="url(#clip942)" d="M2276.44 1325.58 L2276.44 1357.58 L2308.44 1357.58 L2308.44 1325.58 L2276.44 1325.58 Z" fill="#e26f46" fill-rule="evenodd" fill-opacity="1" stroke="#000000" stroke-opacity="1" stroke-width="3.2"/>
<polyline clip-path="url(#clip942)" style="stroke:#3da44d; stroke-linecap:round; stroke-linejoin:round; stroke-width:4; stroke-opacity:1; fill:none" points="281.933,1331.03 533.247,1275.89 784.56,1176.08 1035.87,1038.99 1287.19,893.885 1538.5,751.034 1789.81,608.731 2041.13,466.562 2292.44,324.426 "/>
<path clip-path="url(#clip942)" d="M281.933 1315.03 L265.933 1331.03 L281.933 1347.03 L297.933 1331.03 L281.933 1315.03 Z" fill="#3da44d" fill-rule="evenodd" fill-opacity="1" stroke="#000000" stroke-opacity="1" stroke-width="3.2"/>
<path clip-path="url(#clip942)" d="M533.247 1259.89 L517.247 1275.89 L533.247 1291.89 L549.247 1275.89 L533.247 1259.89 Z" fill="#3da44d" fill-rule="evenodd" fill-opacity="1" stroke="#000000" stroke-opacity="1" stroke-width="3.2"/>
<path clip-path="url(#clip942)" d="M784.56 1160.08 L768.56 1176.08 L784.56 1192.08 L800.56 1176.08 L784.56 1160.08 Z" fill="#3da44d" fill-rule="evenodd" fill-opacity="1" stroke="#000000" stroke-opacity="1" stroke-width="3.2"/>
<path clip-path="url(#clip942)" d="M1035.87 1022.99 L1019.87 1038.99 L1035.87 1054.99 L1051.87 1038.99 L1035.87 1022.99 Z" fill="#3da44d" fill-rule="evenodd" fill-opacity="1" stroke="#000000" stroke-opacity="1" stroke-width="3.2"/>
<path clip-path="url(#clip942)" d="M1287.19 877.885 L1271.19 893.885 L1287.19 909.885 L1303.19 893.885 L1287.19 877.885 Z" fill="#3da44d" fill-rule="evenodd" fill-opacity="1" stroke="#000000" stroke-opacity="1" stroke-width="3.2"/>
<path clip-path="url(#clip942)" d="M1538.5 735.034 L1522.5 751.034 L1538.5 767.034 L1554.5 751.034 L1538.5 735.034 Z" fill="#3da44d" fill-rule="evenodd" fill-opacity="1" stroke="#000000" stroke-opacity="1" stroke-width="3.2"/>
<path clip-path="url(#clip942)" d="M1789.81 592.731 L1773.81 608.731 L1789.81 624.731 L1805.81 608.731 L1789.81 592.731 Z" fill="#3da44d" fill-rule="evenodd" fill-opacity="1" stroke="#000000" stroke-opacity="1" stroke-width="3.2"/>
<path clip-path="url(#clip942)" d="M2041.13 450.562 L2025.13 466.562 L2041.13 482.562 L2057.13 466.562 L2041.13 450.562 Z" fill="#3da44d" fill-rule="evenodd" fill-opacity="1" stroke="#000000" stroke-opacity="1" stroke-width="3.2"/>
<path clip-path="url(#clip942)" d="M2292.44 308.426 L2276.44 324.426 L2292.44 340.426 L2308.44 324.426 L2292.44 308.426 Z" fill="#3da44d" fill-rule="evenodd" fill-opacity="1" stroke="#000000" stroke-opacity="1" stroke-width="3.2"/>
<polyline clip-path="url(#clip942)" style="stroke:#c271d2; stroke-linecap:round; stroke-linejoin:round; stroke-width:4; stroke-opacity:1; fill:none" points="281.933,1224.89 533.247,1106.64 784.56,971.551 1035.87,812.1 1287.19,658.021 1538.5,513.113 1789.81,370.303 2041.13,228.007 2292.44,85.838 "/>
<path clip-path="url(#clip942)" d="M281.933 1208.89 L265.933 1240.89 L297.933 1240.89 L281.933 1208.89 Z" fill="#c271d2" fill-rule="evenodd" fill-opacity="1" stroke="#000000" stroke-opacity="1" stroke-width="3.2"/>
<path clip-path="url(#clip942)" d="M533.247 1090.64 L517.247 1122.64 L549.247 1122.64 L533.247 1090.64 Z" fill="#c271d2" fill-rule="evenodd" fill-opacity="1" stroke="#000000" stroke-opacity="1" stroke-width="3.2"/>
<path clip-path="url(#clip942)" d="M784.56 955.551 L768.56 987.551 L800.56 987.551 L784.56 955.551 Z" fill="#c271d2" fill-rule="evenodd" fill-opacity="1" stroke="#000000" stroke-opacity="1" stroke-width="3.2"/>
<path clip-path="url(#clip942)" d="M1035.87 796.1 L1019.87 828.1 L1051.87 828.1 L1035.87 796.1 Z" fill="#c271d2" fill-rule="evenodd" fill-opacity="1" stroke="#000000" stroke-opacity="1" stroke-width="3.2"/>
<path clip-path="url(#clip942)" d="M1287.19 642.021 L1271.19 674.021 L1303.19 674.021 L1287.19 642.021 Z" fill="#c271d2" fill-rule="evenodd" fill-opacity="1" stroke="#000000" stroke-opacity="1" stroke-width="3.2"/>
<path clip-path="url(#clip942)" d="M1538.5 497.113 L1522.5 529.113 L1554.5 529.113 L1538.5 497.113 Z" fill="#c271d2" fill-rule="evenodd" fill-opacity="1" stroke="#000000" stroke-opacity="1" stroke-width="3.2"/>
<path clip-path="url(#clip942)" d="M1789.81 354.303 L1773.81 386.303 L1805.81 386.303 L1789.81 354.303 Z" fill="#c271d2" fill-rule="evenodd" fill-opacity="1" stroke="#000000" stroke-opacity="1" stroke-width="3.2"/>
<path clip-path="url(#clip942)" d="M2041.13 212.007 L2025.13 244.007 L2057.13 244.007 L2041.13 212.007 Z" fill="#c271d2" fill-rule="evenodd" fill-opacity="1" stroke="#000000" stroke-opacity="1" stroke-width="3.2"/>
<path clip-path="url(#clip942)" d="M2292.44 69.838 L2276.44 101.838 L2308.44 101.838 L2292.44 69.838 Z" fill="#c271d2" fill-rule="evenodd" fill-opacity="1" stroke="#000000" stroke-opacity="1" stroke-width="3.2"/>
<polyline clip-path="url(#clip942)" style="stroke:#ac8d18; stroke-linecap:round; stroke-linejoin:round; stroke-width:4; stroke-opacity:1; fill:none" points="281.933,1372.3 533.247,1231.87 784.56,1090.17 1035.87,948.144 1287.19,806.05 1538.5,663.932 1789.81,521.807 2041.13,379.681 2292.44,237.555 "/>
<path clip-path="url(#clip942)" d="M281.933 1356.3 L278.173 1367.12 L266.717 1367.36 L275.853 1374.29 L272.525 1385.25 L281.933 1378.7 L291.341 1385.25 L288.013 1374.29 L297.149 1367.36 L285.693 1367.12 L281.933 1356.3 Z" fill="#ac8d18" fill-rule="evenodd" fill-opacity="1" stroke="#000000" stroke-opacity="1" stroke-width="3.2"/>
<path clip-path="url(#clip942)" d="M533.247 1215.87 L529.487 1226.69 L518.031 1226.93 L527.167 1233.85 L523.839 1244.81 L533.247 1238.27 L542.655 1244.81 L539.327 1233.85 L548.463 1226.93 L537.007 1226.69 L533.247 1215.87 Z" fill="#ac8d18" fill-rule="evenodd" fill-opacity="1" stroke="#000000" stroke-opacity="1" stroke-width="3.2"/>
<path clip-path="url(#clip942)" d="M784.56 1074.17 L780.8 1084.99 L769.344 1085.23 L778.48 1092.15 L775.152 1103.11 L784.56 1096.57 L793.968 1103.11 L790.64 1092.15 L799.776 1085.23 L788.32 1084.99 L784.56 1074.17 Z" fill="#ac8d18" fill-rule="evenodd" fill-opacity="1" stroke="#000000" stroke-opacity="1" stroke-width="3.2"/>
<path clip-path="url(#clip942)" d="M1035.87 932.144 L1032.11 942.96 L1020.66 943.2 L1029.79 950.128 L1026.47 961.088 L1035.87 954.544 L1045.28 961.088 L1041.95 950.128 L1051.09 943.2 L1039.63 942.96 L1035.87 932.144 Z" fill="#ac8d18" fill-rule="evenodd" fill-opacity="1" stroke="#000000" stroke-opacity="1" stroke-width="3.2"/>
<path clip-path="url(#clip942)" d="M1287.19 790.05 L1283.43 800.866 L1271.97 801.106 L1281.11 808.034 L1277.78 818.994 L1287.19 812.45 L1296.6 818.994 L1293.27 808.034 L1302.4 801.106 L1290.95 800.866 L1287.19 790.05 Z" fill="#ac8d18" fill-rule="evenodd" fill-opacity="1" stroke="#000000" stroke-opacity="1" stroke-width="3.2"/>
<path clip-path="url(#clip942)" d="M1538.5 647.932 L1534.74 658.748 L1523.28 658.988 L1532.42 665.916 L1529.09 676.876 L1538.5 670.332 L1547.91 676.876 L1544.58 665.916 L1553.72 658.988 L1542.26 658.748 L1538.5 647.932 Z" fill="#ac8d18" fill-rule="evenodd" fill-opacity="1" stroke="#000000" stroke-opacity="1" stroke-width="3.2"/>
<path clip-path="url(#clip942)" d="M1789.81 505.807 L1786.05 516.623 L1774.6 516.863 L1783.73 523.791 L1780.41 534.751 L1789.81 528.207 L1799.22 534.751 L1795.89 523.791 L1805.03 516.863 L1793.57 516.623 L1789.81 505.807 Z" fill="#ac8d18" fill-rule="evenodd" fill-opacity="1" stroke="#000000" stroke-opacity="1" stroke-width="3.2"/>
<path clip-path="url(#clip942)" d="M2041.13 363.681 L2037.37 374.497 L2025.91 374.737 L2035.05 381.665 L2031.72 392.625 L2041.13 386.081 L2050.54 392.625 L2047.21 381.665 L2056.34 374.737 L2044.89 374.497 L2041.13 363.681 Z" fill="#ac8d18" fill-rule="evenodd" fill-opacity="1" stroke="#000000" stroke-opacity="1" stroke-width="3.2"/>
<path clip-path="url(#clip942)" d="M2292.44 221.555 L2288.68 232.371 L2277.22 232.611 L2286.36 239.539 L2283.03 250.499 L2292.44 243.955 L2301.85 250.499 L2298.52 239.539 L2307.66 232.611 L2296.2 232.371 L2292.44 221.555 Z" fill="#ac8d18" fill-rule="evenodd" fill-opacity="1" stroke="#000000" stroke-opacity="1" stroke-width="3.2"/>
<path clip-path="url(#clip940)" d="M292.656 403.739 L810.699 403.739 L810.699 92.6992 L292.656 92.6992  Z" fill="#ffffff" fill-rule="evenodd" fill-opacity="1"/>
<polyline clip-path="url(#clip940)" style="stroke:#000000; stroke-linecap:round; stroke-linejoin:round; stroke-width:4; stroke-opacity:1; fill:none" points="292.656,403.739 810.699,403.739 810.699,92.6992 292.656,92.6992 292.656,403.739 "/>
<polyline clip-path="url(#clip940)" style="stroke:#009af9; stroke-linecap:round; stroke-linejoin:round; stroke-width:4; stroke-opacity:1; fill:none" points="316.336,144.539 458.411,144.539 "/>
<circle clip-path="url(#clip940)" cx="387.373" cy="144.539" r="19.7328" fill="#009af9" fill-rule="evenodd" fill-opacity="1" stroke="#000000" stroke-opacity="1" stroke-width="4.55111"/>
<path clip-path="url(#clip940)" d="M486.767 145.315 L486.767 157.977 L494.267 157.977 Q498.04 157.977 499.845 156.426 Q501.674 154.852 501.674 151.634 Q501.674 148.393 499.845 146.866 Q498.04 145.315 494.267 145.315 L486.767 145.315 M486.767 131.102 L486.767 141.518 L493.688 141.518 Q497.114 141.518 498.78 140.245 Q500.47 138.949 500.47 136.31 Q500.47 133.694 498.78 132.398 Q497.114 131.102 493.688 131.102 L486.767 131.102 M482.091 127.259 L494.035 127.259 Q499.382 127.259 502.276 129.481 Q505.169 131.704 505.169 135.801 Q505.169 138.972 503.688 140.847 Q502.206 142.722 499.336 143.185 Q502.785 143.926 504.683 146.287 Q506.604 148.625 506.604 152.143 Q506.604 156.773 503.456 159.296 Q500.308 161.819 494.498 161.819 L482.091 161.819 L482.091 127.259 Z" fill="#000000" fill-rule="nonzero" fill-opacity="1" /><path clip-path="url(#clip940)" d="M526.211 148.787 Q521.049 148.787 519.058 149.967 Q517.067 151.148 517.067 153.995 Q517.067 156.264 518.549 157.606 Q520.053 158.926 522.623 158.926 Q526.164 158.926 528.294 156.426 Q530.447 153.903 530.447 149.736 L530.447 148.787 L526.211 148.787 M534.706 147.028 L534.706 161.819 L530.447 161.819 L530.447 157.884 Q528.989 160.245 526.813 161.379 Q524.637 162.49 521.489 162.49 Q517.507 162.49 515.146 160.268 Q512.808 158.023 512.808 154.273 Q512.808 149.898 515.725 147.676 Q518.665 145.454 524.475 145.454 L530.447 145.454 L530.447 145.037 Q530.447 142.097 528.502 140.5 Q526.581 138.879 523.086 138.879 Q520.864 138.879 518.757 139.412 Q516.651 139.944 514.706 141.009 L514.706 137.074 Q517.044 136.171 519.243 135.731 Q521.442 135.268 523.526 135.268 Q529.151 135.268 531.928 138.185 Q534.706 141.102 534.706 147.028 Z" fill="#000000" fill-rule="nonzero" fill-opacity="1" /><path clip-path="url(#clip940)" d="M560.007 136.657 L560.007 140.685 Q558.201 139.759 556.257 139.296 Q554.312 138.833 552.229 138.833 Q549.058 138.833 547.461 139.805 Q545.887 140.778 545.887 142.722 Q545.887 144.204 547.021 145.06 Q548.155 145.893 551.581 146.657 L553.039 146.981 Q557.576 147.954 559.475 149.736 Q561.396 151.495 561.396 154.666 Q561.396 158.278 558.525 160.384 Q555.678 162.49 550.678 162.49 Q548.595 162.49 546.326 162.074 Q544.081 161.68 541.581 160.87 L541.581 156.472 Q543.942 157.699 546.234 158.324 Q548.525 158.926 550.771 158.926 Q553.78 158.926 555.4 157.907 Q557.021 156.866 557.021 154.991 Q557.021 153.254 555.84 152.328 Q554.683 151.403 550.725 150.546 L549.243 150.199 Q545.285 149.366 543.526 147.653 Q541.766 145.916 541.766 142.907 Q541.766 139.25 544.359 137.259 Q546.951 135.268 551.72 135.268 Q554.081 135.268 556.164 135.616 Q558.248 135.963 560.007 136.657 Z" fill="#000000" fill-rule="nonzero" fill-opacity="1" /><path clip-path="url(#clip940)" d="M590.354 147.791 L590.354 149.875 L570.771 149.875 Q571.049 154.273 573.41 156.588 Q575.794 158.879 580.03 158.879 Q582.484 158.879 584.775 158.278 Q587.09 157.676 589.359 156.472 L589.359 160.5 Q587.067 161.472 584.66 161.981 Q582.252 162.49 579.775 162.49 Q573.572 162.49 569.937 158.879 Q566.326 155.268 566.326 149.111 Q566.326 142.745 569.752 139.018 Q573.201 135.268 579.035 135.268 Q584.266 135.268 587.298 138.648 Q590.354 142.004 590.354 147.791 M586.095 146.541 Q586.048 143.046 584.127 140.963 Q582.229 138.879 579.081 138.879 Q575.516 138.879 573.363 140.893 Q571.234 142.907 570.91 146.565 L586.095 146.541 Z" fill="#000000" fill-rule="nonzero" fill-opacity="1" /><path clip-path="url(#clip940)" d="M597.345 125.801 L601.604 125.801 L601.604 161.819 L597.345 161.819 L597.345 125.801 Z" fill="#000000" fill-rule="nonzero" fill-opacity="1" /><path clip-path="url(#clip940)" d="M610.516 135.893 L614.775 135.893 L614.775 161.819 L610.516 161.819 L610.516 135.893 M610.516 125.801 L614.775 125.801 L614.775 131.194 L610.516 131.194 L610.516 125.801 Z" fill="#000000" fill-rule="nonzero" fill-opacity="1" /><path clip-path="url(#clip940)" d="M645.238 146.171 L645.238 161.819 L640.979 161.819 L640.979 146.31 Q640.979 142.629 639.544 140.801 Q638.108 138.972 635.238 138.972 Q631.789 138.972 629.798 141.171 Q627.807 143.37 627.807 147.166 L627.807 161.819 L623.525 161.819 L623.525 135.893 L627.807 135.893 L627.807 139.921 Q629.335 137.583 631.395 136.426 Q633.479 135.268 636.187 135.268 Q640.655 135.268 642.946 138.046 Q645.238 140.801 645.238 146.171 Z" fill="#000000" fill-rule="nonzero" fill-opacity="1" /><path clip-path="url(#clip940)" d="M675.909 147.791 L675.909 149.875 L656.326 149.875 Q656.604 154.273 658.965 156.588 Q661.349 158.879 665.585 158.879 Q668.039 158.879 670.33 158.278 Q672.645 157.676 674.914 156.472 L674.914 160.5 Q672.622 161.472 670.215 161.981 Q667.807 162.49 665.33 162.49 Q659.127 162.49 655.493 158.879 Q651.881 155.268 651.881 149.111 Q651.881 142.745 655.307 139.018 Q658.756 135.268 664.59 135.268 Q669.821 135.268 672.854 138.648 Q675.909 142.004 675.909 147.791 M671.65 146.541 Q671.604 143.046 669.682 140.963 Q667.784 138.879 664.636 138.879 Q661.071 138.879 658.918 140.893 Q656.789 142.907 656.465 146.565 L671.65 146.541 Z" fill="#000000" fill-rule="nonzero" fill-opacity="1" /><polyline clip-path="url(#clip940)" style="stroke:#e26f46; stroke-linecap:round; stroke-linejoin:round; stroke-width:4; stroke-opacity:1; fill:none" points="316.336,196.379 458.411,196.379 "/>
<path clip-path="url(#clip940)" d="M365.448 174.454 L365.448 218.304 L409.299 218.304 L409.299 174.454 L365.448 174.454 Z" fill="#e26f46" fill-rule="evenodd" fill-opacity="1" stroke="#000000" stroke-opacity="1" stroke-width="4.55111"/>
<path clip-path="url(#clip940)" d="M498.479 197.456 Q499.984 197.965 501.396 199.631 Q502.831 201.298 504.266 204.215 L509.012 213.659 L503.989 213.659 L499.567 204.793 Q497.854 201.321 496.234 200.187 Q494.637 199.053 491.859 199.053 L486.767 199.053 L486.767 213.659 L482.091 213.659 L482.091 179.099 L492.646 179.099 Q498.572 179.099 501.489 181.576 Q504.405 184.053 504.405 189.053 Q504.405 192.317 502.878 194.469 Q501.373 196.622 498.479 197.456 M486.767 182.942 L486.767 195.21 L492.646 195.21 Q496.026 195.21 497.739 193.659 Q499.475 192.085 499.475 189.053 Q499.475 186.02 497.739 184.493 Q496.026 182.942 492.646 182.942 L486.767 182.942 Z" fill="#000000" fill-rule="nonzero" fill-opacity="1" /><path clip-path="url(#clip940)" d="M534.891 199.631 L534.891 201.715 L515.308 201.715 Q515.586 206.113 517.947 208.428 Q520.331 210.719 524.567 210.719 Q527.021 210.719 529.313 210.118 Q531.627 209.516 533.896 208.312 L533.896 212.34 Q531.604 213.312 529.197 213.821 Q526.789 214.33 524.313 214.33 Q518.109 214.33 514.475 210.719 Q510.864 207.108 510.864 200.951 Q510.864 194.585 514.29 190.858 Q517.739 187.108 523.572 187.108 Q528.803 187.108 531.836 190.488 Q534.891 193.844 534.891 199.631 M530.632 198.381 Q530.586 194.886 528.664 192.803 Q526.766 190.719 523.618 190.719 Q520.053 190.719 517.901 192.733 Q515.771 194.747 515.447 198.405 L530.632 198.381 Z" fill="#000000" fill-rule="nonzero" fill-opacity="1" /><path clip-path="url(#clip940)" d="M555.007 177.641 L555.007 181.183 L550.933 181.183 Q548.641 181.183 547.738 182.108 Q546.859 183.034 546.859 185.442 L546.859 187.733 L553.873 187.733 L553.873 191.044 L546.859 191.044 L546.859 213.659 L542.576 213.659 L542.576 191.044 L538.502 191.044 L538.502 187.733 L542.576 187.733 L542.576 185.928 Q542.576 181.599 544.59 179.632 Q546.604 177.641 550.979 177.641 L555.007 177.641 Z" fill="#000000" fill-rule="nonzero" fill-opacity="1" /><polyline clip-path="url(#clip940)" style="stroke:#3da44d; stroke-linecap:round; stroke-linejoin:round; stroke-width:4; stroke-opacity:1; fill:none" points="316.336,248.219 458.411,248.219 "/>
<path clip-path="url(#clip940)" d="M387.373 226.294 L365.448 248.219 L387.373 270.144 L409.299 248.219 L387.373 226.294 Z" fill="#3da44d" fill-rule="evenodd" fill-opacity="1" stroke="#000000" stroke-opacity="1" stroke-width="4.55111"/>
<path clip-path="url(#clip940)" d="M482.091 230.939 L486.767 230.939 L486.767 265.499 L482.091 265.499 L482.091 230.939 Z" fill="#000000" fill-rule="nonzero" fill-opacity="1" /><path clip-path="url(#clip940)" d="M500.1 232.212 L500.1 239.573 L508.873 239.573 L508.873 242.884 L500.1 242.884 L500.1 256.958 Q500.1 260.129 500.956 261.032 Q501.836 261.934 504.498 261.934 L508.873 261.934 L508.873 265.499 L504.498 265.499 Q499.567 265.499 497.692 263.67 Q495.817 261.819 495.817 256.958 L495.817 242.884 L492.692 242.884 L492.692 239.573 L495.817 239.573 L495.817 232.212 L500.1 232.212 Z" fill="#000000" fill-rule="nonzero" fill-opacity="1" /><path clip-path="url(#clip940)" d="M536.651 251.471 L536.651 253.555 L517.067 253.555 Q517.345 257.953 519.706 260.268 Q522.09 262.559 526.327 262.559 Q528.78 262.559 531.072 261.958 Q533.387 261.356 535.655 260.152 L535.655 264.18 Q533.364 265.152 530.956 265.661 Q528.549 266.17 526.072 266.17 Q519.868 266.17 516.234 262.559 Q512.623 258.948 512.623 252.791 Q512.623 246.425 516.049 242.698 Q519.498 238.948 525.331 238.948 Q530.563 238.948 533.595 242.328 Q536.651 245.684 536.651 251.471 M532.391 250.221 Q532.345 246.726 530.424 244.643 Q528.526 242.559 525.377 242.559 Q521.813 242.559 519.66 244.573 Q517.53 246.587 517.206 250.245 L532.391 250.221 Z" fill="#000000" fill-rule="nonzero" fill-opacity="1" /><path clip-path="url(#clip940)" d="M558.664 243.555 Q557.947 243.138 557.09 242.953 Q556.257 242.745 555.238 242.745 Q551.627 242.745 549.683 245.106 Q547.762 247.444 547.762 251.842 L547.762 265.499 L543.479 265.499 L543.479 239.573 L547.762 239.573 L547.762 243.601 Q549.104 241.24 551.257 240.106 Q553.41 238.948 556.488 238.948 Q556.928 238.948 557.461 239.018 Q557.993 239.064 558.641 239.18 L558.664 243.555 Z" fill="#000000" fill-rule="nonzero" fill-opacity="1" /><polyline clip-path="url(#clip940)" style="stroke:#c271d2; stroke-linecap:round; stroke-linejoin:round; stroke-width:4; stroke-opacity:1; fill:none" points="316.336,300.059 458.411,300.059 "/>
<path clip-path="url(#clip940)" d="M387.373 278.134 L365.448 321.984 L409.299 321.984 L387.373 278.134 Z" fill="#c271d2" fill-rule="evenodd" fill-opacity="1" stroke="#000000" stroke-opacity="1" stroke-width="4.55111"/>
<path clip-path="url(#clip940)" d="M482.091 282.779 L486.767 282.779 L486.767 317.339 L482.091 317.339 L482.091 282.779 Z" fill="#000000" fill-rule="nonzero" fill-opacity="1" /><path clip-path="url(#clip940)" d="M500.1 284.052 L500.1 291.413 L508.873 291.413 L508.873 294.724 L500.1 294.724 L500.1 308.798 Q500.1 311.969 500.956 312.872 Q501.836 313.774 504.498 313.774 L508.873 313.774 L508.873 317.339 L504.498 317.339 Q499.567 317.339 497.692 315.51 Q495.817 313.659 495.817 308.798 L495.817 294.724 L492.692 294.724 L492.692 291.413 L495.817 291.413 L495.817 284.052 L500.1 284.052 Z" fill="#000000" fill-rule="nonzero" fill-opacity="1" /><path clip-path="url(#clip940)" d="M536.651 303.311 L536.651 305.395 L517.067 305.395 Q517.345 309.793 519.706 312.108 Q522.09 314.399 526.327 314.399 Q528.78 314.399 531.072 313.798 Q533.387 313.196 535.655 311.992 L535.655 316.02 Q533.364 316.992 530.956 317.501 Q528.549 318.01 526.072 318.01 Q519.868 318.01 516.234 314.399 Q512.623 310.788 512.623 304.631 Q512.623 298.265 516.049 294.538 Q519.498 290.788 525.331 290.788 Q530.563 290.788 533.595 294.168 Q536.651 297.524 536.651 303.311 M532.391 302.061 Q532.345 298.566 530.424 296.483 Q528.526 294.399 525.377 294.399 Q521.813 294.399 519.66 296.413 Q517.53 298.427 517.206 302.085 L532.391 302.061 Z" fill="#000000" fill-rule="nonzero" fill-opacity="1" /><path clip-path="url(#clip940)" d="M558.664 295.395 Q557.947 294.978 557.09 294.793 Q556.257 294.585 555.238 294.585 Q551.627 294.585 549.683 296.946 Q547.762 299.284 547.762 303.682 L547.762 317.339 L543.479 317.339 L543.479 291.413 L547.762 291.413 L547.762 295.441 Q549.104 293.08 551.257 291.946 Q553.41 290.788 556.488 290.788 Q556.928 290.788 557.461 290.858 Q557.993 290.904 558.641 291.02 L558.664 295.395 Z" fill="#000000" fill-rule="nonzero" fill-opacity="1" /><path clip-path="url(#clip940)" d="M589.984 304.307 Q584.822 304.307 582.831 305.487 Q580.84 306.668 580.84 309.515 Q580.84 311.784 582.322 313.126 Q583.826 314.446 586.396 314.446 Q589.937 314.446 592.067 311.946 Q594.22 309.423 594.22 305.256 L594.22 304.307 L589.984 304.307 M598.479 302.548 L598.479 317.339 L594.22 317.339 L594.22 313.404 Q592.761 315.765 590.585 316.899 Q588.41 318.01 585.261 318.01 Q581.28 318.01 578.919 315.788 Q576.581 313.543 576.581 309.793 Q576.581 305.418 579.498 303.196 Q582.437 300.974 588.247 300.974 L594.22 300.974 L594.22 300.557 Q594.22 297.617 592.275 296.02 Q590.354 294.399 586.859 294.399 Q584.636 294.399 582.53 294.932 Q580.423 295.464 578.479 296.529 L578.479 292.594 Q580.817 291.691 583.016 291.251 Q585.215 290.788 587.298 290.788 Q592.923 290.788 595.701 293.705 Q598.479 296.622 598.479 302.548 Z" fill="#000000" fill-rule="nonzero" fill-opacity="1" /><path clip-path="url(#clip940)" d="M628.803 301.691 L628.803 317.339 L624.544 317.339 L624.544 301.83 Q624.544 298.149 623.108 296.321 Q621.673 294.492 618.803 294.492 Q615.354 294.492 613.363 296.691 Q611.372 298.89 611.372 302.686 L611.372 317.339 L607.09 317.339 L607.09 291.413 L611.372 291.413 L611.372 295.441 Q612.9 293.103 614.96 291.946 Q617.044 290.788 619.752 290.788 Q624.22 290.788 626.511 293.566 Q628.803 296.321 628.803 301.691 Z" fill="#000000" fill-rule="nonzero" fill-opacity="1" /><path clip-path="url(#clip940)" d="M654.358 295.349 L654.358 281.321 L658.617 281.321 L658.617 317.339 L654.358 317.339 L654.358 313.45 Q653.016 315.765 650.955 316.899 Q648.918 318.01 646.048 318.01 Q641.349 318.01 638.386 314.26 Q635.446 310.511 635.446 304.399 Q635.446 298.288 638.386 294.538 Q641.349 290.788 646.048 290.788 Q648.918 290.788 650.955 291.923 Q653.016 293.034 654.358 295.349 M639.844 304.399 Q639.844 309.098 641.766 311.784 Q643.71 314.446 647.09 314.446 Q650.469 314.446 652.414 311.784 Q654.358 309.098 654.358 304.399 Q654.358 299.7 652.414 297.038 Q650.469 294.353 647.09 294.353 Q643.71 294.353 641.766 297.038 Q639.844 299.7 639.844 304.399 Z" fill="#000000" fill-rule="nonzero" fill-opacity="1" /><path clip-path="url(#clip940)" d="M699.034 301.136 Q700.539 301.645 701.951 303.311 Q703.386 304.978 704.821 307.895 L709.566 317.339 L704.543 317.339 L700.122 308.473 Q698.409 305.001 696.789 303.867 Q695.191 302.733 692.414 302.733 L687.321 302.733 L687.321 317.339 L682.645 317.339 L682.645 282.779 L693.201 282.779 Q699.127 282.779 702.043 285.256 Q704.96 287.733 704.96 292.733 Q704.96 295.997 703.432 298.149 Q701.927 300.302 699.034 301.136 M687.321 286.622 L687.321 298.89 L693.201 298.89 Q696.58 298.89 698.293 297.339 Q700.029 295.765 700.029 292.733 Q700.029 289.7 698.293 288.173 Q696.58 286.622 693.201 286.622 L687.321 286.622 Z" fill="#000000" fill-rule="nonzero" fill-opacity="1" /><path clip-path="url(#clip940)" d="M735.446 303.311 L735.446 305.395 L715.863 305.395 Q716.14 309.793 718.501 312.108 Q720.886 314.399 725.122 314.399 Q727.575 314.399 729.867 313.798 Q732.182 313.196 734.45 311.992 L734.45 316.02 Q732.159 316.992 729.751 317.501 Q727.344 318.01 724.867 318.01 Q718.663 318.01 715.029 314.399 Q711.418 310.788 711.418 304.631 Q711.418 298.265 714.844 294.538 Q718.293 290.788 724.126 290.788 Q729.358 290.788 732.39 294.168 Q735.446 297.524 735.446 303.311 M731.187 302.061 Q731.14 298.566 729.219 296.483 Q727.321 294.399 724.173 294.399 Q720.608 294.399 718.455 296.413 Q716.326 298.427 716.001 302.085 L731.187 302.061 Z" fill="#000000" fill-rule="nonzero" fill-opacity="1" /><path clip-path="url(#clip940)" d="M755.561 281.321 L755.561 284.863 L751.487 284.863 Q749.196 284.863 748.293 285.788 Q747.413 286.714 747.413 289.122 L747.413 291.413 L754.427 291.413 L754.427 294.724 L747.413 294.724 L747.413 317.339 L743.131 317.339 L743.131 294.724 L739.057 294.724 L739.057 291.413 L743.131 291.413 L743.131 289.608 Q743.131 285.279 745.145 283.312 Q747.159 281.321 751.534 281.321 L755.561 281.321 Z" fill="#000000" fill-rule="nonzero" fill-opacity="1" /><polyline clip-path="url(#clip940)" style="stroke:#ac8d18; stroke-linecap:round; stroke-linejoin:round; stroke-width:4; stroke-opacity:1; fill:none" points="316.336,351.899 458.411,351.899 "/>
<path clip-path="url(#clip940)" d="M387.373 329.974 L382.221 344.795 L366.522 345.124 L379.042 354.618 L374.481 369.637 L387.373 360.669 L400.265 369.637 L395.705 354.618 L408.224 345.124 L392.526 344.795 L387.373 329.974 Z" fill="#ac8d18" fill-rule="evenodd" fill-opacity="1" stroke="#000000" stroke-opacity="1" stroke-width="4.55111"/>
<path clip-path="url(#clip940)" d="M486.767 352.675 L486.767 365.337 L494.267 365.337 Q498.04 365.337 499.845 363.786 Q501.674 362.212 501.674 358.994 Q501.674 355.753 499.845 354.226 Q498.04 352.675 494.267 352.675 L486.767 352.675 M486.767 338.462 L486.767 348.878 L493.688 348.878 Q497.114 348.878 498.78 347.605 Q500.47 346.309 500.47 343.67 Q500.47 341.054 498.78 339.758 Q497.114 338.462 493.688 338.462 L486.767 338.462 M482.091 334.619 L494.035 334.619 Q499.382 334.619 502.276 336.841 Q505.169 339.064 505.169 343.161 Q505.169 346.332 503.688 348.207 Q502.206 350.082 499.336 350.545 Q502.785 351.286 504.683 353.647 Q506.604 355.985 506.604 359.503 Q506.604 364.133 503.456 366.656 Q500.308 369.179 494.498 369.179 L482.091 369.179 L482.091 334.619 Z" fill="#000000" fill-rule="nonzero" fill-opacity="1" /><path clip-path="url(#clip940)" d="M529.452 347.235 Q528.734 346.818 527.877 346.633 Q527.044 346.425 526.026 346.425 Q522.415 346.425 520.47 348.786 Q518.549 351.124 518.549 355.522 L518.549 369.179 L514.266 369.179 L514.266 343.253 L518.549 343.253 L518.549 347.281 Q519.891 344.92 522.044 343.786 Q524.197 342.628 527.276 342.628 Q527.715 342.628 528.248 342.698 Q528.78 342.744 529.428 342.86 L529.452 347.235 Z" fill="#000000" fill-rule="nonzero" fill-opacity="1" /><path clip-path="url(#clip940)" d="M533.479 358.948 L533.479 343.253 L537.739 343.253 L537.739 358.786 Q537.739 362.466 539.174 364.318 Q540.609 366.147 543.479 366.147 Q546.928 366.147 548.919 363.948 Q550.933 361.749 550.933 357.952 L550.933 343.253 L555.192 343.253 L555.192 369.179 L550.933 369.179 L550.933 365.198 Q549.382 367.559 547.322 368.716 Q545.285 369.85 542.576 369.85 Q538.109 369.85 535.794 367.073 Q533.479 364.295 533.479 358.948 M544.197 342.628 L544.197 342.628 Z" fill="#000000" fill-rule="nonzero" fill-opacity="1" /><path clip-path="url(#clip940)" d="M585.516 353.531 L585.516 369.179 L581.257 369.179 L581.257 353.67 Q581.257 349.989 579.822 348.161 Q578.386 346.332 575.516 346.332 Q572.067 346.332 570.076 348.531 Q568.086 350.73 568.086 354.526 L568.086 369.179 L563.803 369.179 L563.803 343.253 L568.086 343.253 L568.086 347.281 Q569.613 344.943 571.674 343.786 Q573.757 342.628 576.465 342.628 Q580.933 342.628 583.224 345.406 Q585.516 348.161 585.516 353.531 Z" fill="#000000" fill-rule="nonzero" fill-opacity="1" /><path clip-path="url(#clip940)" d="M604.058 346.239 Q600.632 346.239 598.641 348.925 Q596.65 351.587 596.65 356.239 Q596.65 360.892 598.618 363.577 Q600.609 366.239 604.058 366.239 Q607.46 366.239 609.451 363.554 Q611.442 360.869 611.442 356.239 Q611.442 351.633 609.451 348.948 Q607.46 346.239 604.058 346.239 M604.058 342.628 Q609.613 342.628 612.784 346.239 Q615.956 349.851 615.956 356.239 Q615.956 362.605 612.784 366.239 Q609.613 369.85 604.058 369.85 Q598.479 369.85 595.308 366.239 Q592.16 362.605 592.16 356.239 Q592.16 349.851 595.308 346.239 Q598.479 342.628 604.058 342.628 Z" fill="#000000" fill-rule="nonzero" fill-opacity="1" /><path clip-path="url(#clip940)" d="M664.15 337.281 L664.15 342.212 Q661.789 340.013 659.104 338.925 Q656.442 337.837 653.432 337.837 Q647.506 337.837 644.358 341.471 Q641.21 345.082 641.21 351.934 Q641.21 358.763 644.358 362.397 Q647.506 366.008 653.432 366.008 Q656.442 366.008 659.104 364.92 Q661.789 363.832 664.15 361.633 L664.15 366.517 Q661.696 368.184 658.942 369.017 Q656.21 369.85 653.155 369.85 Q645.307 369.85 640.794 365.059 Q636.28 360.244 636.28 351.934 Q636.28 343.601 640.794 338.809 Q645.307 333.994 653.155 333.994 Q656.256 333.994 658.988 334.828 Q661.742 335.638 664.15 337.281 Z" fill="#000000" fill-rule="nonzero" fill-opacity="1" /><path clip-path="url(#clip940)" d="M682.969 356.147 Q677.807 356.147 675.816 357.327 Q673.826 358.508 673.826 361.355 Q673.826 363.624 675.307 364.966 Q676.812 366.286 679.381 366.286 Q682.923 366.286 685.053 363.786 Q687.205 361.263 687.205 357.096 L687.205 356.147 L682.969 356.147 M691.465 354.388 L691.465 369.179 L687.205 369.179 L687.205 365.244 Q685.747 367.605 683.571 368.739 Q681.395 369.85 678.247 369.85 Q674.266 369.85 671.904 367.628 Q669.567 365.383 669.567 361.633 Q669.567 357.258 672.483 355.036 Q675.423 352.814 681.233 352.814 L687.205 352.814 L687.205 352.397 Q687.205 349.457 685.261 347.86 Q683.34 346.239 679.844 346.239 Q677.622 346.239 675.516 346.772 Q673.409 347.304 671.465 348.369 L671.465 344.434 Q673.803 343.531 676.002 343.091 Q678.201 342.628 680.284 342.628 Q685.909 342.628 688.687 345.545 Q691.465 348.462 691.465 354.388 Z" fill="#000000" fill-rule="nonzero" fill-opacity="1" /><path clip-path="url(#clip940)" d="M715.261 347.235 Q714.543 346.818 713.687 346.633 Q712.853 346.425 711.835 346.425 Q708.224 346.425 706.279 348.786 Q704.358 351.124 704.358 355.522 L704.358 369.179 L700.076 369.179 L700.076 343.253 L704.358 343.253 L704.358 347.281 Q705.701 344.92 707.853 343.786 Q710.006 342.628 713.085 342.628 Q713.525 342.628 714.057 342.698 Q714.589 342.744 715.238 342.86 L715.261 347.235 Z" fill="#000000" fill-rule="nonzero" fill-opacity="1" /><path clip-path="url(#clip940)" d="M739.08 348.23 Q740.677 345.36 742.899 343.994 Q745.122 342.628 748.131 342.628 Q752.182 342.628 754.381 345.476 Q756.58 348.3 756.58 353.531 L756.58 369.179 L752.298 369.179 L752.298 353.67 Q752.298 349.943 750.978 348.138 Q749.659 346.332 746.95 346.332 Q743.64 346.332 741.719 348.531 Q739.798 350.73 739.798 354.526 L739.798 369.179 L735.515 369.179 L735.515 353.67 Q735.515 349.92 734.196 348.138 Q732.876 346.332 730.122 346.332 Q726.858 346.332 724.937 348.554 Q723.015 350.753 723.015 354.526 L723.015 369.179 L718.733 369.179 L718.733 343.253 L723.015 343.253 L723.015 347.281 Q724.474 344.897 726.511 343.763 Q728.548 342.628 731.349 342.628 Q734.173 342.628 736.14 344.064 Q738.131 345.499 739.08 348.23 Z" fill="#000000" fill-rule="nonzero" fill-opacity="1" /><path clip-path="url(#clip940)" d="M775.121 346.239 Q771.696 346.239 769.705 348.925 Q767.714 351.587 767.714 356.239 Q767.714 360.892 769.682 363.577 Q771.672 366.239 775.121 366.239 Q778.524 366.239 780.515 363.554 Q782.506 360.869 782.506 356.239 Q782.506 351.633 780.515 348.948 Q778.524 346.239 775.121 346.239 M775.121 342.628 Q780.677 342.628 783.848 346.239 Q787.02 349.851 787.02 356.239 Q787.02 362.605 783.848 366.239 Q780.677 369.85 775.121 369.85 Q769.543 369.85 766.372 366.239 Q763.223 362.605 763.223 356.239 Q763.223 349.851 766.372 346.239 Q769.543 342.628 775.121 342.628 Z" fill="#000000" fill-rule="nonzero" fill-opacity="1" /></svg>
