<?xml version="1.0" encoding="utf-8"?>
<svg xmlns="http://www.w3.org/2000/svg" xmlns:xlink="http://www.w3.org/1999/xlink" width="600" height="400" viewBox="0 0 2400 1600">
<defs>
  <clipPath id="clip000">
    <rect x="0" y="0" width="2400" height="1600"/>
  </clipPath>
</defs>
<path clip-path="url(#clip000)" d="M0 1600 L2400 1600 L2400 0 L0 0  Z" fill="#ffffff" fill-rule="evenodd" fill-opacity="1"/>
<defs>
  <clipPath id="clip001">
    <rect x="480" y="0" width="1681" height="1600"/>
  </clipPath>
</defs>
<path clip-path="url(#clip000)" d="M244.451 1410.9 L2352.76 1410.9 L2352.76 47.2441 L244.451 47.2441  Z" fill="#ffffff" fill-rule="evenodd" fill-opacity="1"/>
<defs>
  <clipPath id="clip002">
    <rect x="244" y="47" width="2109" height="1365"/>
  </clipPath>
</defs>
<polyline clip-path="url(#clip002)" style="stroke:#000000; stroke-linecap:round; stroke-linejoin:round; stroke-width:2; stroke-opacity:0.1; fill:none" points="632.779,1410.9 632.779,47.2441 "/>
<polyline clip-path="url(#clip002)" style="stroke:#000000; stroke-linecap:round; stroke-linejoin:round; stroke-width:2; stroke-opacity:0.1; fill:none" points="1045.73,1410.9 1045.73,47.2441 "/>
<polyline clip-path="url(#clip002)" style="stroke:#000000; stroke-linecap:round; stroke-linejoin:round; stroke-width:2; stroke-opacity:0.1; fill:none" points="1458.68,1410.9 1458.68,47.2441 "/>
<polyline clip-path="url(#clip002)" style="stroke:#000000; stroke-linecap:round; stroke-linejoin:round; stroke-width:2; stroke-opacity:0.1; fill:none" points="1871.63,1410.9 1871.63,47.2441 "/>
<polyline clip-path="url(#clip002)" style="stroke:#000000; stroke-linecap:round; stroke-linejoin:round; stroke-width:2; stroke-opacity:0.1; fill:none" points="2284.58,1410.9 2284.58,47.2441 "/>
<polyline clip-path="url(#clip000)" style="stroke:#000000; stroke-linecap:round; stroke-linejoin:round; stroke-width:4; stroke-opacity:1; fill:none" points="244.451,1410.9 2352.76,1410.9 "/>
<polyline clip-path="url(#clip000)" style="stroke:#000000; stroke-linecap:round; stroke-linejoin:round; stroke-width:4; stroke-opacity:1; fill:none" points="632.779,1410.9 632.779,1392 "/>
<polyline clip-path="url(#clip000)" style="stroke:#000000; stroke-linecap:round; stroke-linejoin:round; stroke-width:4; stroke-opacity:1; fill:none" points="1045.73,1410.9 1045.73,1392 "/>
<polyline clip-path="url(#clip000)" style="stroke:#000000; stroke-linecap:round; stroke-linejoin:round; stroke-width:4; stroke-opacity:1; fill:none" points="1458.68,1410.9 1458.68,1392 "/>
<polyline clip-path="url(#clip000)" style="stroke:#000000; stroke-linecap:round; stroke-linejoin:round; stroke-width:4; stroke-opacity:1; fill:none" points="1871.63,1410.9 1871.63,1392 "/>
<polyline clip-path="url(#clip000)" style="stroke:#000000; stroke-linecap:round; stroke-linejoin:round; stroke-width:4; stroke-opacity:1; fill:none" points="2284.58,1410.9 2284.58,1392 "/>
<path clip-path="url(#clip000)" d="M598.552 1485.02 L606.19 1485.02 L606.19 1458.66 L597.88 1460.32 L597.88 1456.06 L606.144 1454.4 L610.82 1454.4 L610.82 1485.02 L618.459 1485.02 L618.459 1488.96 L598.552 1488.96 L598.552 1485.02 Z" fill="#000000" fill-rule="nonzero" fill-opacity="1" /><path clip-path="url(#clip000)" d="M637.903 1457.48 Q634.292 1457.48 632.463 1461.04 Q630.658 1464.58 630.658 1471.71 Q630.658 1478.82 632.463 1482.38 Q634.292 1485.92 637.903 1485.92 Q641.537 1485.92 643.343 1482.38 Q645.172 1478.82 645.172 1471.71 Q645.172 1464.58 643.343 1461.04 Q641.537 1457.48 637.903 1457.48 M637.903 1453.77 Q643.713 1453.77 646.769 1458.38 Q649.848 1462.96 649.848 1471.71 Q649.848 1480.44 646.769 1485.04 Q643.713 1489.63 637.903 1489.63 Q632.093 1489.63 629.014 1485.04 Q625.959 1480.44 625.959 1471.71 Q625.959 1462.96 629.014 1458.38 Q632.093 1453.77 637.903 1453.77 Z" fill="#000000" fill-rule="nonzero" fill-opacity="1" /><path clip-path="url(#clip000)" d="M654.418 1458.35 L667.677 1458.35 L667.677 1461.55 L649.848 1461.55 L649.848 1458.35 Q652.011 1456.11 655.734 1452.35 Q659.477 1448.57 660.436 1447.48 Q662.261 1445.43 662.975 1444.02 Q663.709 1442.59 663.709 1441.22 Q663.709 1438.98 662.129 1437.57 Q660.568 1436.16 658.048 1436.16 Q656.261 1436.16 654.267 1436.78 Q652.293 1437.4 650.036 1438.66 L650.036 1434.82 Q652.33 1433.9 654.324 1433.43 Q656.317 1432.96 657.973 1432.96 Q662.336 1432.96 664.931 1435.14 Q667.527 1437.32 667.527 1440.97 Q667.527 1442.7 666.869 1444.26 Q666.229 1445.8 664.518 1447.91 Q664.047 1448.46 661.527 1451.07 Q659.007 1453.67 654.418 1458.35 Z" fill="#000000" fill-rule="nonzero" fill-opacity="1" /><path clip-path="url(#clip000)" d="M1011.17 1485.02 L1018.81 1485.02 L1018.81 1458.66 L1010.5 1460.32 L1010.5 1456.06 L1018.77 1454.4 L1023.44 1454.4 L1023.44 1485.02 L1031.08 1485.02 L1031.08 1488.96 L1011.17 1488.96 L1011.17 1485.02 Z" fill="#000000" fill-rule="nonzero" fill-opacity="1" /><path clip-path="url(#clip000)" d="M1050.52 1457.48 Q1046.91 1457.48 1045.08 1461.04 Q1043.28 1464.58 1043.28 1471.71 Q1043.28 1478.82 1045.08 1482.38 Q1046.91 1485.92 1050.52 1485.92 Q1054.16 1485.92 1055.96 1482.38 Q1057.79 1478.82 1057.79 1471.71 Q1057.79 1464.58 1055.96 1461.04 Q1054.16 1457.48 1050.52 1457.48 M1050.52 1453.77 Q1056.33 1453.77 1059.39 1458.38 Q1062.47 1462.96 1062.47 1471.71 Q1062.47 1480.44 1059.39 1485.04 Q1056.33 1489.63 1050.52 1489.63 Q1044.71 1489.63 1041.64 1485.04 Q1038.58 1480.44 1038.58 1471.71 Q1038.58 1462.96 1041.64 1458.38 Q1044.71 1453.77 1050.52 1453.77 Z" fill="#000000" fill-rule="nonzero" fill-opacity="1" /><path clip-path="url(#clip000)" d="M1075.16 1446.41 Q1077.89 1446.99 1079.41 1448.83 Q1080.96 1450.68 1080.96 1453.38 Q1080.96 1457.54 1078.1 1459.82 Q1075.24 1462.09 1069.97 1462.09 Q1068.21 1462.09 1066.32 1461.73 Q1064.46 1461.4 1062.47 1460.7 L1062.47 1457.03 Q1064.05 1457.95 1065.93 1458.42 Q1067.81 1458.89 1069.86 1458.89 Q1073.43 1458.89 1075.3 1457.48 Q1077.18 1456.07 1077.18 1453.38 Q1077.18 1450.9 1075.43 1449.51 Q1073.7 1448.1 1070.59 1448.1 L1067.32 1448.1 L1067.32 1444.98 L1070.74 1444.98 Q1073.55 1444.98 1075.03 1443.87 Q1076.52 1442.74 1076.52 1440.63 Q1076.52 1438.47 1074.98 1437.32 Q1073.45 1436.16 1070.59 1436.16 Q1069.03 1436.16 1067.25 1436.49 Q1065.46 1436.83 1063.32 1437.55 L1063.32 1434.16 Q1065.48 1433.56 1067.36 1433.26 Q1069.26 1432.96 1070.93 1432.96 Q1075.26 1432.96 1077.78 1434.93 Q1080.3 1436.89 1080.3 1440.24 Q1080.3 1442.57 1078.96 1444.19 Q1077.63 1445.79 1075.16 1446.41 Z" fill="#000000" fill-rule="nonzero" fill-opacity="1" /><path clip-path="url(#clip000)" d="M1423.14 1485.02 L1430.77 1485.02 L1430.77 1458.66 L1422.46 1460.32 L1422.46 1456.06 L1430.73 1454.4 L1435.4 1454.4 L1435.4 1485.02 L1443.04 1485.02 L1443.04 1488.96 L1423.14 1488.96 L1423.14 1485.02 Z" fill="#000000" fill-rule="nonzero" fill-opacity="1" /><path clip-path="url(#clip000)" d="M1462.49 1457.48 Q1458.88 1457.48 1457.05 1461.04 Q1455.24 1464.58 1455.24 1471.71 Q1455.24 1478.82 1457.05 1482.38 Q1458.88 1485.92 1462.49 1485.92 Q1466.12 1485.92 1467.93 1482.38 Q1469.76 1478.82 1469.76 1471.71 Q1469.76 1464.58 1467.93 1461.04 Q1466.12 1457.48 1462.49 1457.48 M1462.49 1453.77 Q1468.3 1453.77 1471.35 1458.38 Q1474.43 1462.96 1474.43 1471.71 Q1474.43 1480.44 1471.35 1485.04 Q1468.3 1489.63 1462.49 1489.63 Q1456.68 1489.63 1453.6 1485.04 Q1450.54 1480.44 1450.54 1471.71 Q1450.54 1462.96 1453.6 1458.38 Q1456.68 1453.77 1462.49 1453.77 Z" fill="#000000" fill-rule="nonzero" fill-opacity="1" /><path clip-path="url(#clip000)" d="M1487.11 1436.78 L1477.52 1451.77 L1487.11 1451.77 L1487.11 1436.78 M1486.11 1433.47 L1490.89 1433.47 L1490.89 1451.77 L1494.89 1451.77 L1494.89 1454.93 L1490.89 1454.93 L1490.89 1461.55 L1487.11 1461.55 L1487.11 1454.93 L1474.43 1454.93 L1474.43 1451.26 L1486.11 1433.47 Z" fill="#000000" fill-rule="nonzero" fill-opacity="1" /><path clip-path="url(#clip000)" d="M1837.23 1485.02 L1844.87 1485.02 L1844.87 1458.66 L1836.56 1460.32 L1836.56 1456.06 L1844.83 1454.4 L1849.5 1454.4 L1849.5 1485.02 L1857.14 1485.02 L1857.14 1488.96 L1837.23 1488.96 L1837.23 1485.02 Z" fill="#000000" fill-rule="nonzero" fill-opacity="1" /><path clip-path="url(#clip000)" d="M1876.58 1457.48 Q1872.97 1457.48 1871.15 1461.04 Q1869.34 1464.58 1869.34 1471.71 Q1869.34 1478.82 1871.15 1482.38 Q1872.97 1485.92 1876.58 1485.92 Q1880.22 1485.92 1882.02 1482.38 Q1883.85 1478.82 1883.85 1471.71 Q1883.85 1464.58 1882.02 1461.04 Q1880.22 1457.48 1876.58 1457.48 M1876.58 1453.77 Q1882.4 1453.77 1885.45 1458.38 Q1888.53 1462.96 1888.53 1471.71 Q1888.53 1480.44 1885.45 1485.04 Q1882.4 1489.63 1876.58 1489.63 Q1870.77 1489.63 1867.7 1485.04 Q1864.64 1480.44 1864.64 1471.71 Q1864.64 1462.96 1867.7 1458.38 Q1870.77 1453.77 1876.58 1453.77 Z" fill="#000000" fill-rule="nonzero" fill-opacity="1" /><path clip-path="url(#clip000)" d="M1889.71 1433.47 L1904.63 1433.47 L1904.63 1436.66 L1893.19 1436.66 L1893.19 1443.55 Q1894.02 1443.27 1894.85 1443.13 Q1895.68 1442.98 1896.5 1442.98 Q1901.21 1442.98 1903.95 1445.56 Q1906.7 1448.14 1906.7 1452.54 Q1906.7 1457.07 1903.88 1459.59 Q1901.06 1462.09 1895.92 1462.09 Q1894.15 1462.09 1892.31 1461.79 Q1890.49 1461.49 1888.53 1460.89 L1888.53 1457.07 Q1890.22 1457.99 1892.03 1458.44 Q1893.83 1458.89 1895.85 1458.89 Q1899.1 1458.89 1901 1457.18 Q1902.9 1455.47 1902.9 1452.54 Q1902.9 1449.6 1901 1447.89 Q1899.1 1446.18 1895.85 1446.18 Q1894.32 1446.18 1892.8 1446.52 Q1891.29 1446.86 1889.71 1447.57 L1889.71 1433.47 Z" fill="#000000" fill-rule="nonzero" fill-opacity="1" /><path clip-path="url(#clip000)" d="M2249.57 1485.02 L2257.21 1485.02 L2257.21 1458.66 L2248.9 1460.32 L2248.9 1456.06 L2257.16 1454.4 L2261.84 1454.4 L2261.84 1485.02 L2269.48 1485.02 L2269.48 1488.96 L2249.57 1488.96 L2249.57 1485.02 Z" fill="#000000" fill-rule="nonzero" fill-opacity="1" /><path clip-path="url(#clip000)" d="M2288.92 1457.48 Q2285.31 1457.48 2283.48 1461.04 Q2281.68 1464.58 2281.68 1471.71 Q2281.68 1478.82 2283.48 1482.38 Q2285.31 1485.92 2288.92 1485.92 Q2292.56 1485.92 2294.36 1482.38 Q2296.19 1478.82 2296.19 1471.71 Q2296.19 1464.58 2294.36 1461.04 Q2292.56 1457.48 2288.92 1457.48 M2288.92 1453.77 Q2294.73 1453.77 2297.79 1458.38 Q2300.87 1462.96 2300.87 1471.71 Q2300.87 1480.44 2297.79 1485.04 Q2294.73 1489.63 2288.92 1489.63 Q2283.11 1489.63 2280.04 1485.04 Q2276.98 1480.44 2276.98 1471.71 Q2276.98 1462.96 2280.04 1458.38 Q2283.11 1453.77 2288.92 1453.77 Z" fill="#000000" fill-rule="nonzero" fill-opacity="1" /><path clip-path="url(#clip000)" d="M2310.89 1445.99 Q2308.34 1445.99 2306.83 1447.74 Q2305.34 1449.49 2305.34 1452.54 Q2305.34 1455.57 2306.83 1457.33 Q2308.34 1459.08 2310.89 1459.08 Q2313.45 1459.08 2314.94 1457.33 Q2316.44 1455.57 2316.44 1452.54 Q2316.44 1449.49 2314.94 1447.74 Q2313.45 1445.99 2310.89 1445.99 M2318.43 1434.09 L2318.43 1437.55 Q2317.01 1436.87 2315.54 1436.51 Q2314.09 1436.16 2312.66 1436.16 Q2308.9 1436.16 2306.91 1438.69 Q2304.93 1441.23 2304.65 1446.37 Q2305.76 1444.73 2307.43 1443.87 Q2309.11 1442.98 2311.12 1442.98 Q2315.35 1442.98 2317.8 1445.56 Q2320.26 1448.12 2320.26 1452.54 Q2320.26 1456.86 2317.7 1459.48 Q2315.14 1462.09 2310.89 1462.09 Q2306.02 1462.09 2303.45 1458.37 Q2300.87 1454.62 2300.87 1447.53 Q2300.87 1440.88 2304.03 1436.93 Q2307.19 1432.96 2312.51 1432.96 Q2313.94 1432.96 2315.39 1433.24 Q2316.86 1433.52 2318.43 1434.09 Z" fill="#000000" fill-rule="nonzero" fill-opacity="1" /><path clip-path="url(#clip000)" d="M991.538 1526.67 L1000.19 1526.67 L1021.27 1566.42 L1021.27 1526.67 L1027.5 1526.67 L1027.5 1574.19 L1018.85 1574.19 L997.776 1534.43 L997.776 1574.19 L991.538 1574.19 L991.538 1526.67 Z" fill="#000000" fill-rule="nonzero" fill-opacity="1" /><path clip-path="url(#clip000)" d="M1091.26 1554.9 L1091.26 1557.76 L1064.33 1557.76 Q1064.71 1563.81 1067.96 1566.99 Q1071.24 1570.14 1077.06 1570.14 Q1080.43 1570.14 1083.59 1569.32 Q1086.77 1568.49 1089.89 1566.83 L1089.89 1572.37 Q1086.74 1573.71 1083.43 1574.41 Q1080.12 1575.11 1076.71 1575.11 Q1068.18 1575.11 1063.18 1570.14 Q1058.22 1565.18 1058.22 1556.71 Q1058.22 1547.96 1062.93 1542.83 Q1067.67 1537.68 1075.69 1537.68 Q1082.89 1537.68 1087.06 1542.33 Q1091.26 1546.94 1091.26 1554.9 M1085.4 1553.18 Q1085.34 1548.37 1082.69 1545.51 Q1080.08 1542.64 1075.76 1542.64 Q1070.85 1542.64 1067.89 1545.41 Q1064.97 1548.18 1064.52 1553.21 L1085.4 1553.18 Z" fill="#000000" fill-rule="nonzero" fill-opacity="1" /><path clip-path="url(#clip000)" d="M1100.87 1524.66 L1106.73 1524.66 L1106.73 1574.19 L1100.87 1574.19 L1100.87 1524.66 Z" fill="#000000" fill-rule="nonzero" fill-opacity="1" /><path clip-path="url(#clip000)" d="M1149.47 1554.9 L1149.47 1557.76 L1122.54 1557.76 Q1122.93 1563.81 1126.17 1566.99 Q1129.45 1570.14 1135.28 1570.14 Q1138.65 1570.14 1141.8 1569.32 Q1144.98 1568.49 1148.1 1566.83 L1148.1 1572.37 Q1144.95 1573.71 1141.64 1574.41 Q1138.33 1575.11 1134.93 1575.11 Q1126.4 1575.11 1121.4 1570.14 Q1116.43 1565.18 1116.43 1556.71 Q1116.43 1547.96 1121.14 1542.83 Q1125.89 1537.68 1133.91 1537.68 Q1141.1 1537.68 1145.27 1542.33 Q1149.47 1546.94 1149.47 1554.9 M1143.61 1553.18 Q1143.55 1548.37 1140.91 1545.51 Q1138.3 1542.64 1133.97 1542.64 Q1129.07 1542.64 1126.11 1545.41 Q1123.18 1548.18 1122.73 1553.21 L1143.61 1553.18 Z" fill="#000000" fill-rule="nonzero" fill-opacity="1" /><path clip-path="url(#clip000)" d="M1186.84 1545.38 Q1189.03 1541.43 1192.09 1539.56 Q1195.14 1537.68 1199.28 1537.68 Q1204.85 1537.68 1207.88 1541.59 Q1210.9 1545.48 1210.9 1552.67 L1210.9 1574.19 L1205.01 1574.19 L1205.01 1552.86 Q1205.01 1547.74 1203.2 1545.25 Q1201.38 1542.77 1197.66 1542.77 Q1193.11 1542.77 1190.47 1545.79 Q1187.82 1548.82 1187.82 1554.04 L1187.82 1574.19 L1181.94 1574.19 L1181.94 1552.86 Q1181.94 1547.7 1180.12 1545.25 Q1178.31 1542.77 1174.52 1542.77 Q1170.03 1542.77 1167.39 1545.83 Q1164.75 1548.85 1164.75 1554.04 L1164.75 1574.19 L1158.86 1574.19 L1158.86 1538.54 L1164.75 1538.54 L1164.75 1544.08 Q1166.75 1540.8 1169.55 1539.24 Q1172.36 1537.68 1176.21 1537.68 Q1180.09 1537.68 1182.8 1539.65 Q1185.53 1541.62 1186.84 1545.38 Z" fill="#000000" fill-rule="nonzero" fill-opacity="1" /><path clip-path="url(#clip000)" d="M1253.07 1554.9 L1253.07 1557.76 L1226.15 1557.76 Q1226.53 1563.81 1229.77 1566.99 Q1233.05 1570.14 1238.88 1570.14 Q1242.25 1570.14 1245.4 1569.32 Q1248.58 1568.49 1251.7 1566.83 L1251.7 1572.37 Q1248.55 1573.71 1245.24 1574.41 Q1241.93 1575.11 1238.53 1575.11 Q1230 1575.11 1225 1570.14 Q1220.03 1565.18 1220.03 1556.71 Q1220.03 1547.96 1224.75 1542.83 Q1229.49 1537.68 1237.51 1537.68 Q1244.7 1537.68 1248.87 1542.33 Q1253.07 1546.94 1253.07 1554.9 M1247.22 1553.18 Q1247.15 1548.37 1244.51 1545.51 Q1241.9 1542.64 1237.57 1542.64 Q1232.67 1542.64 1229.71 1545.41 Q1226.78 1548.18 1226.34 1553.21 L1247.22 1553.18 Z" fill="#000000" fill-rule="nonzero" fill-opacity="1" /><path clip-path="url(#clip000)" d="M1292.32 1552.67 L1292.32 1574.19 L1286.46 1574.19 L1286.46 1552.86 Q1286.46 1547.8 1284.49 1545.29 Q1282.51 1542.77 1278.57 1542.77 Q1273.82 1542.77 1271.09 1545.79 Q1268.35 1548.82 1268.35 1554.04 L1268.35 1574.19 L1262.46 1574.19 L1262.46 1538.54 L1268.35 1538.54 L1268.35 1544.08 Q1270.45 1540.86 1273.28 1539.27 Q1276.15 1537.68 1279.87 1537.68 Q1286.02 1537.68 1289.17 1541.5 Q1292.32 1545.29 1292.32 1552.67 Z" fill="#000000" fill-rule="nonzero" fill-opacity="1" /><path clip-path="url(#clip000)" d="M1309.79 1528.42 L1309.79 1538.54 L1321.85 1538.54 L1321.85 1543.09 L1309.79 1543.09 L1309.79 1562.44 Q1309.79 1566.8 1310.97 1568.04 Q1312.18 1569.28 1315.84 1569.28 L1321.85 1569.28 L1321.85 1574.19 L1315.84 1574.19 Q1309.06 1574.19 1306.48 1571.67 Q1303.9 1569.12 1303.9 1562.44 L1303.9 1543.09 L1299.61 1543.09 L1299.61 1538.54 L1303.9 1538.54 L1303.9 1528.42 L1309.79 1528.42 Z" fill="#000000" fill-rule="nonzero" fill-opacity="1" /><path clip-path="url(#clip000)" d="M1352.28 1539.59 L1352.28 1545.13 Q1349.8 1543.85 1347.13 1543.22 Q1344.45 1542.58 1341.59 1542.58 Q1337.23 1542.58 1335.03 1543.92 Q1332.87 1545.25 1332.87 1547.93 Q1332.87 1549.96 1334.43 1551.14 Q1335.99 1552.29 1340.7 1553.34 L1342.7 1553.78 Q1348.94 1555.12 1351.55 1557.57 Q1354.19 1559.99 1354.19 1564.35 Q1354.19 1569.32 1350.25 1572.21 Q1346.33 1575.11 1339.46 1575.11 Q1336.59 1575.11 1333.47 1574.54 Q1330.38 1573.99 1326.95 1572.88 L1326.95 1566.83 Q1330.19 1568.52 1333.34 1569.38 Q1336.5 1570.21 1339.58 1570.21 Q1343.72 1570.21 1345.95 1568.81 Q1348.18 1567.37 1348.18 1564.8 Q1348.18 1562.41 1346.55 1561.14 Q1344.96 1559.86 1339.52 1558.68 L1337.48 1558.21 Q1332.04 1557.06 1329.62 1554.71 Q1327.2 1552.32 1327.2 1548.18 Q1327.2 1543.15 1330.77 1540.42 Q1334.33 1537.68 1340.89 1537.68 Q1344.13 1537.68 1347 1538.16 Q1349.86 1538.63 1352.28 1539.59 Z" fill="#000000" fill-rule="nonzero" fill-opacity="1" /><path clip-path="url(#clip000)" d="M1398.31 1524.72 Q1394.04 1532.04 1391.97 1539.21 Q1389.9 1546.37 1389.9 1553.72 Q1389.9 1561.07 1391.97 1568.3 Q1394.07 1575.49 1398.31 1582.78 L1393.21 1582.78 Q1388.44 1575.3 1386.05 1568.07 Q1383.7 1560.85 1383.7 1553.72 Q1383.7 1546.62 1386.05 1539.43 Q1388.41 1532.24 1393.21 1524.72 L1398.31 1524.72 Z" fill="#000000" fill-rule="nonzero" fill-opacity="1" /><path clip-path="url(#clip000)" d="M1409.67 1524.66 L1415.53 1524.66 L1415.53 1574.19 L1409.67 1574.19 L1409.67 1524.66 Z" fill="#000000" fill-rule="nonzero" fill-opacity="1" /><path clip-path="url(#clip000)" d="M1441.59 1542.64 Q1436.88 1542.64 1434.15 1546.34 Q1431.41 1550 1431.41 1556.39 Q1431.41 1562.79 1434.11 1566.48 Q1436.85 1570.14 1441.59 1570.14 Q1446.27 1570.14 1449.01 1566.45 Q1451.75 1562.76 1451.75 1556.39 Q1451.75 1550.06 1449.01 1546.37 Q1446.27 1542.64 1441.59 1542.64 M1441.59 1537.68 Q1449.23 1537.68 1453.59 1542.64 Q1457.95 1547.61 1457.95 1556.39 Q1457.95 1565.15 1453.59 1570.14 Q1449.23 1575.11 1441.59 1575.11 Q1433.92 1575.11 1429.56 1570.14 Q1425.23 1565.15 1425.23 1556.39 Q1425.23 1547.61 1429.56 1542.64 Q1433.92 1537.68 1441.59 1537.68 Z" fill="#000000" fill-rule="nonzero" fill-opacity="1" /><path clip-path="url(#clip000)" d="M1491.12 1555.95 Q1491.12 1549.58 1488.48 1546.08 Q1485.87 1542.58 1481.12 1542.58 Q1476.41 1542.58 1473.77 1546.08 Q1471.16 1549.58 1471.16 1555.95 Q1471.16 1562.28 1473.77 1565.78 Q1476.41 1569.28 1481.12 1569.28 Q1485.87 1569.28 1488.48 1565.78 Q1491.12 1562.28 1491.12 1555.95 M1496.97 1569.76 Q1496.97 1578.86 1492.93 1583.29 Q1488.89 1587.74 1480.55 1587.74 Q1477.46 1587.74 1474.73 1587.27 Q1471.99 1586.82 1469.41 1585.87 L1469.41 1580.17 Q1471.99 1581.57 1474.5 1582.24 Q1477.02 1582.91 1479.63 1582.91 Q1485.39 1582.91 1488.25 1579.88 Q1491.12 1576.89 1491.12 1570.81 L1491.12 1567.92 Q1489.3 1571.07 1486.47 1572.63 Q1483.64 1574.19 1479.69 1574.19 Q1473.14 1574.19 1469.12 1569.19 Q1465.11 1564.19 1465.11 1555.95 Q1465.11 1547.67 1469.12 1542.68 Q1473.14 1537.68 1479.69 1537.68 Q1483.64 1537.68 1486.47 1539.24 Q1489.3 1540.8 1491.12 1543.95 L1491.12 1538.54 L1496.97 1538.54 L1496.97 1569.76 Z" fill="#000000" fill-rule="nonzero" fill-opacity="1" /><path clip-path="url(#clip000)" d="M1510.98 1568.77 L1521.48 1568.77 L1521.48 1532.52 L1510.06 1534.81 L1510.06 1528.96 L1521.42 1526.67 L1527.85 1526.67 L1527.85 1568.77 L1538.35 1568.77 L1538.35 1574.19 L1510.98 1574.19 L1510.98 1568.77 Z" fill="#000000" fill-rule="nonzero" fill-opacity="1" /><path clip-path="url(#clip000)" d="M1565.09 1530.9 Q1560.12 1530.9 1557.61 1535.8 Q1555.13 1540.67 1555.13 1550.47 Q1555.13 1560.24 1557.61 1565.15 Q1560.12 1570.02 1565.09 1570.02 Q1570.08 1570.02 1572.57 1565.15 Q1575.08 1560.24 1575.08 1550.47 Q1575.08 1540.67 1572.57 1535.8 Q1570.08 1530.9 1565.09 1530.9 M1565.09 1525.81 Q1573.08 1525.81 1577.28 1532.14 Q1581.51 1538.44 1581.51 1550.47 Q1581.51 1562.47 1577.28 1568.81 Q1573.08 1575.11 1565.09 1575.11 Q1557.1 1575.11 1552.87 1568.81 Q1548.66 1562.47 1548.66 1550.47 Q1548.66 1538.44 1552.87 1532.14 Q1557.1 1525.81 1565.09 1525.81 Z" fill="#000000" fill-rule="nonzero" fill-opacity="1" /><path clip-path="url(#clip000)" d="M1591.06 1524.72 L1596.15 1524.72 Q1600.93 1532.24 1603.28 1539.43 Q1605.67 1546.62 1605.67 1553.72 Q1605.67 1560.85 1603.28 1568.07 Q1600.93 1575.3 1596.15 1582.78 L1591.06 1582.78 Q1595.29 1575.49 1597.36 1568.3 Q1599.46 1561.07 1599.46 1553.72 Q1599.46 1546.37 1597.36 1539.21 Q1595.29 1532.04 1591.06 1524.72 Z" fill="#000000" fill-rule="nonzero" fill-opacity="1" /><polyline clip-path="url(#clip002)" style="stroke:#000000; stroke-linecap:round; stroke-linejoin:round; stroke-width:2; stroke-opacity:0.1; fill:none" points="244.451,1052.18 2352.76,1052.18 "/>
<polyline clip-path="url(#clip002)" style="stroke:#000000; stroke-linecap:round; stroke-linejoin:round; stroke-width:2; stroke-opacity:0.1; fill:none" points="244.451,348.839 2352.76,348.839 "/>
<polyline clip-path="url(#clip000)" style="stroke:#000000; stroke-linecap:round; stroke-linejoin:round; stroke-width:4; stroke-opacity:1; fill:none" points="244.451,1410.9 244.451,47.2441 "/>
<polyline clip-path="url(#clip000)" style="stroke:#000000; stroke-linecap:round; stroke-linejoin:round; stroke-width:4; stroke-opacity:1; fill:none" points="244.451,1052.18 263.349,1052.18 "/>
<polyline clip-path="url(#clip000)" style="stroke:#000000; stroke-linecap:round; stroke-linejoin:round; stroke-width:4; stroke-opacity:1; fill:none" points="244.451,348.839 263.349,348.839 "/>
<path clip-path="url(#clip000)" d="M138.987 1071.97 L146.625 1071.97 L146.625 1045.61 L138.315 1047.27 L138.315 1043.01 L146.579 1041.35 L151.255 1041.35 L151.255 1071.97 L158.894 1071.97 L158.894 1075.91 L138.987 1075.91 L138.987 1071.97 Z" fill="#000000" fill-rule="nonzero" fill-opacity="1" /><path clip-path="url(#clip000)" d="M178.338 1044.43 Q174.727 1044.43 172.898 1047.99 Q171.093 1051.53 171.093 1058.66 Q171.093 1065.77 172.898 1069.33 Q174.727 1072.88 178.338 1072.88 Q181.972 1072.88 183.778 1069.33 Q185.607 1065.77 185.607 1058.66 Q185.607 1051.53 183.778 1047.99 Q181.972 1044.43 178.338 1044.43 M178.338 1040.72 Q184.148 1040.72 187.204 1045.33 Q190.283 1049.91 190.283 1058.66 Q190.283 1067.39 187.204 1072 Q184.148 1076.58 178.338 1076.58 Q172.528 1076.58 169.449 1072 Q166.394 1067.39 166.394 1058.66 Q166.394 1049.91 169.449 1045.33 Q172.528 1040.72 178.338 1040.72 Z" fill="#000000" fill-rule="nonzero" fill-opacity="1" /><path clip-path="url(#clip000)" d="M191.467 1020.42 L206.382 1020.42 L206.382 1023.62 L194.947 1023.62 L194.947 1030.5 Q195.774 1030.22 196.602 1030.08 Q197.43 1029.93 198.257 1029.93 Q202.959 1029.93 205.705 1032.51 Q208.451 1035.09 208.451 1039.49 Q208.451 1044.02 205.63 1046.54 Q202.809 1049.04 197.674 1049.04 Q195.906 1049.04 194.063 1048.74 Q192.239 1048.44 190.283 1047.84 L190.283 1044.02 Q191.975 1044.94 193.781 1045.39 Q195.586 1045.85 197.599 1045.85 Q200.853 1045.85 202.752 1044.13 Q204.652 1042.42 204.652 1039.49 Q204.652 1036.55 202.752 1034.84 Q200.853 1033.13 197.599 1033.13 Q196.075 1033.13 194.552 1033.47 Q193.047 1033.81 191.467 1034.52 L191.467 1020.42 Z" fill="#000000" fill-rule="nonzero" fill-opacity="1" /><path clip-path="url(#clip000)" d="M114.931 368.632 L122.57 368.632 L122.57 342.266 L114.26 343.933 L114.26 339.674 L122.524 338.007 L127.2 338.007 L127.2 368.632 L134.839 368.632 L134.839 372.567 L114.931 372.567 L114.931 368.632 Z" fill="#000000" fill-rule="nonzero" fill-opacity="1" /><path clip-path="url(#clip000)" d="M154.283 341.086 Q150.672 341.086 148.843 344.65 Q147.038 348.192 147.038 355.322 Q147.038 362.428 148.843 365.993 Q150.672 369.534 154.283 369.534 Q157.917 369.534 159.723 365.993 Q161.552 362.428 161.552 355.322 Q161.552 348.192 159.723 344.65 Q157.917 341.086 154.283 341.086 M154.283 337.382 Q160.093 337.382 163.149 341.988 Q166.227 346.572 166.227 355.322 Q166.227 364.048 163.149 368.655 Q160.093 373.238 154.283 373.238 Q148.473 373.238 145.394 368.655 Q142.339 364.048 142.339 355.322 Q142.339 346.572 145.394 341.988 Q148.473 337.382 154.283 337.382 Z" fill="#000000" fill-rule="nonzero" fill-opacity="1" /><path clip-path="url(#clip000)" d="M166.773 341.959 L172.979 341.959 L172.979 320.537 L166.227 321.891 L166.227 318.431 L172.942 317.076 L176.741 317.076 L176.741 341.959 L182.948 341.959 L182.948 345.156 L166.773 345.156 L166.773 341.959 Z" fill="#000000" fill-rule="nonzero" fill-opacity="1" /><path clip-path="url(#clip000)" d="M198.746 319.578 Q195.812 319.578 194.326 322.474 Q192.859 325.352 192.859 331.145 Q192.859 336.919 194.326 339.815 Q195.812 342.693 198.746 342.693 Q201.699 342.693 203.166 339.815 Q204.652 336.919 204.652 331.145 Q204.652 325.352 203.166 322.474 Q201.699 319.578 198.746 319.578 M198.746 316.569 Q203.467 316.569 205.949 320.311 Q208.451 324.035 208.451 331.145 Q208.451 338.235 205.949 341.978 Q203.467 345.702 198.746 345.702 Q194.025 345.702 191.524 341.978 Q189.041 338.235 189.041 331.145 Q189.041 324.035 191.524 320.311 Q194.025 316.569 198.746 316.569 Z" fill="#000000" fill-rule="nonzero" fill-opacity="1" /><path clip-path="url(#clip000)" d="M14.5426 825.447 Q21.8632 829.712 29.0246 831.781 Q36.186 833.85 43.5384 833.85 Q50.8908 833.85 58.1159 831.781 Q65.3091 829.68 72.5979 825.447 L72.5979 830.54 Q65.1182 835.314 57.8931 837.701 Q50.668 840.056 43.5384 840.056 Q36.4406 840.056 29.2474 837.701 Q22.0542 835.346 14.5426 830.54 L14.5426 825.447 Z" fill="#000000" fill-rule="nonzero" fill-opacity="1" /><path clip-path="url(#clip000)" d="M14.479 814.084 L14.479 808.228 L64.0042 808.228 L64.0042 814.084 L14.479 814.084 Z" fill="#000000" fill-rule="nonzero" fill-opacity="1" /><path clip-path="url(#clip000)" d="M32.4621 782.16 Q32.4621 786.871 36.1542 789.608 Q39.8145 792.345 46.212 792.345 Q52.6095 792.345 56.3017 789.64 Q59.9619 786.903 59.9619 782.16 Q59.9619 777.482 56.2698 774.744 Q52.5777 772.007 46.212 772.007 Q39.8781 772.007 36.186 774.744 Q32.4621 777.482 32.4621 782.16 M27.4968 782.16 Q27.4968 774.522 32.4621 770.161 Q37.4273 765.8 46.212 765.8 Q54.9649 765.8 59.9619 770.161 Q64.9272 774.522 64.9272 782.16 Q64.9272 789.831 59.9619 794.192 Q54.9649 798.52 46.212 798.52 Q37.4273 798.52 32.4621 794.192 Q27.4968 789.831 27.4968 782.16 Z" fill="#000000" fill-rule="nonzero" fill-opacity="1" /><path clip-path="url(#clip000)" d="M45.7664 732.635 Q39.4007 732.635 35.8996 735.277 Q32.3984 737.887 32.3984 742.629 Q32.3984 747.34 35.8996 749.982 Q39.4007 752.592 45.7664 752.592 Q52.1003 752.592 55.6014 749.982 Q59.1026 747.34 59.1026 742.629 Q59.1026 737.887 55.6014 735.277 Q52.1003 732.635 45.7664 732.635 M59.58 726.779 Q68.683 726.779 73.1071 730.821 Q77.5631 734.863 77.5631 743.202 Q77.5631 746.29 77.0857 749.027 Q76.6401 751.764 75.6852 754.342 L69.9879 754.342 Q71.3884 751.764 72.0568 749.25 Q72.7252 746.735 72.7252 744.125 Q72.7252 738.364 69.7015 735.5 Q66.7096 732.635 60.6303 732.635 L57.7339 732.635 Q60.885 734.449 62.4446 737.282 Q64.0042 740.115 64.0042 744.062 Q64.0042 750.618 59.0071 754.629 Q54.01 758.639 45.7664 758.639 Q37.491 758.639 32.4939 754.629 Q27.4968 750.618 27.4968 744.062 Q27.4968 740.115 29.0564 737.282 Q30.616 734.449 33.7671 732.635 L28.3562 732.635 L28.3562 726.779 L59.58 726.779 Z" fill="#000000" fill-rule="nonzero" fill-opacity="1" /><path clip-path="url(#clip000)" d="M58.5933 712.774 L58.5933 702.271 L22.3406 702.271 L24.6323 713.697 L18.7758 713.697 L16.4842 702.334 L16.4842 695.905 L58.5933 695.905 L58.5933 685.402 L64.0042 685.402 L64.0042 712.774 L58.5933 712.774 Z" fill="#000000" fill-rule="nonzero" fill-opacity="1" /><path clip-path="url(#clip000)" d="M20.7174 658.666 Q20.7174 663.631 25.6189 666.145 Q30.4887 668.628 40.2919 668.628 Q50.0633 668.628 54.9649 666.145 Q59.8346 663.631 59.8346 658.666 Q59.8346 653.669 54.9649 651.186 Q50.0633 648.671 40.2919 648.671 Q30.4887 648.671 25.6189 651.186 Q20.7174 653.669 20.7174 658.666 M15.6248 658.666 Q15.6248 650.677 21.9587 646.475 Q28.2607 642.242 40.2919 642.242 Q52.2913 642.242 58.6251 646.475 Q64.9272 650.677 64.9272 658.666 Q64.9272 666.655 58.6251 670.888 Q52.2913 675.089 40.2919 675.089 Q28.2607 675.089 21.9587 670.888 Q15.6248 666.655 15.6248 658.666 Z" fill="#000000" fill-rule="nonzero" fill-opacity="1" /><path clip-path="url(#clip000)" d="M14.5426 632.694 L14.5426 627.601 Q22.0542 622.827 29.2474 620.471 Q36.4406 618.084 43.5384 618.084 Q50.668 618.084 57.8931 620.471 Q65.1182 622.827 72.5979 627.601 L72.5979 632.694 Q65.3091 628.46 58.1159 626.392 Q50.8908 624.291 43.5384 624.291 Q36.186 624.291 29.0246 626.392 Q21.8632 628.46 14.5426 632.694 Z" fill="#000000" fill-rule="nonzero" fill-opacity="1" /><polyline clip-path="url(#clip002)" style="stroke:#009af9; stroke-linecap:round; stroke-linejoin:round; stroke-width:4; stroke-opacity:1; fill:none" points="304.12,1143.94 552.741,1067.65 801.362,977.734 1049.98,882.828 1298.6,768.975 1547.22,608.869 1795.85,445.87 2044.47,275.854 2293.09,85.838 "/>
<circle clip-path="url(#clip002)" cx="304.12" cy="1143.94" r="14.4" fill="#009af9" fill-rule="evenodd" fill-opacity="1" stroke="#000000" stroke-opacity="1" stroke-width="3.2"/>
<circle clip-path="url(#clip002)" cx="552.741" cy="1067.65" r="14.4" fill="#009af9" fill-rule="evenodd" fill-opacity="1" stroke="#000000" stroke-opacity="1" stroke-width="3.2"/>
<circle clip-path="url(#clip002)" cx="801.362" cy="977.734" r="14.4" fill="#009af9" fill-rule="evenodd" fill-opacity="1" stroke="#000000" stroke-opacity="1" stroke-width="3.2"/>
<circle clip-path="url(#clip002)" cx="1049.98" cy="882.828" r="14.4" fill="#009af9" fill-rule="evenodd" fill-opacity="1" stroke="#000000" stroke-opacity="1" stroke-width="3.2"/>
<circle clip-path="url(#clip002)" cx="1298.6" cy="768.975" r="14.4" fill="#009af9" fill-rule="evenodd" fill-opacity="1" stroke="#000000" stroke-opacity="1" stroke-width="3.2"/>
<circle clip-path="url(#clip002)" cx="1547.22" cy="608.869" r="14.4" fill="#009af9" fill-rule="evenodd" fill-opacity="1" stroke="#000000" stroke-opacity="1" stroke-width="3.2"/>
<circle clip-path="url(#clip002)" cx="1795.85" cy="445.87" r="14.4" fill="#009af9" fill-rule="evenodd" fill-opacity="1" stroke="#000000" stroke-opacity="1" stroke-width="3.2"/>
<circle clip-path="url(#clip002)" cx="2044.47" cy="275.854" r="14.4" fill="#009af9" fill-rule="evenodd" fill-opacity="1" stroke="#000000" stroke-opacity="1" stroke-width="3.2"/>
<circle clip-path="url(#clip002)" cx="2293.09" cy="85.838" r="14.4" fill="#009af9" fill-rule="evenodd" fill-opacity="1" stroke="#000000" stroke-opacity="1" stroke-width="3.2"/>
<polyline clip-path="url(#clip002)" style="stroke:#e26f46; stroke-linecap:round; stroke-linejoin:round; stroke-width:4; stroke-opacity:1; fill:none" points="304.12,1372.3 552.741,1371.39 801.362,1370.04 1049.98,1368.5 1298.6,1367.86 1547.22,1366.58 1795.85,1365.34 2044.47,1364.12 2293.09,1362.92 "/>
<path clip-path="url(#clip002)" d="M288.12 1356.3 L288.12 1388.3 L320.12 1388.3 L320.12 1356.3 L288.12 1356.3 Z" fill="#e26f46" fill-rule="evenodd" fill-opacity="1" stroke="#000000" stroke-opacity="1" stroke-width="3.2"/>
<path clip-path="url(#clip002)" d="M536.741 1355.39 L536.741 1387.39 L568.741 1387.39 L568.741 1355.39 L536.741 1355.39 Z" fill="#e26f46" fill-rule="evenodd" fill-opacity="1" stroke="#000000" stroke-opacity="1" stroke-width="3.2"/>
<path clip-path="url(#clip002)" d="M785.362 1354.04 L785.362 1386.04 L817.362 1386.04 L817.362 1354.04 L785.362 1354.04 Z" fill="#e26f46" fill-rule="evenodd" fill-opacity="1" stroke="#000000" stroke-opacity="1" stroke-width="3.2"/>
<path clip-path="url(#clip002)" d="M1033.98 1352.5 L1033.98 1384.5 L1065.98 1384.5 L1065.98 1352.5 L1033.98 1352.5 Z" fill="#e26f46" fill-rule="evenodd" fill-opacity="1" stroke="#000000" stroke-opacity="1" stroke-width="3.2"/>
<path clip-path="url(#clip002)" d="M1282.6 1351.86 L1282.6 1383.86 L1314.6 1383.86 L1314.6 1351.86 L1282.6 1351.86 Z" fill="#e26f46" fill-rule="evenodd" fill-opacity="1" stroke="#000000" stroke-opacity="1" stroke-width="3.2"/>
<path clip-path="url(#clip002)" d="M1531.22 1350.58 L1531.22 1382.58 L1563.22 1382.58 L1563.22 1350.58 L1531.22 1350.58 Z" fill="#e26f46" fill-rule="evenodd" fill-opacity="1" stroke="#000000" stroke-opacity="1" stroke-width="3.2"/>
<path clip-path="url(#clip002)" d="M1779.85 1349.34 L1779.85 1381.34 L1811.85 1381.34 L1811.85 1349.34 L1779.85 1349.34 Z" fill="#e26f46" fill-rule="evenodd" fill-opacity="1" stroke="#000000" stroke-opacity="1" stroke-width="3.2"/>
<path clip-path="url(#clip002)" d="M2028.47 1348.12 L2028.47 1380.12 L2060.47 1380.12 L2060.47 1348.12 L2028.47 1348.12 Z" fill="#e26f46" fill-rule="evenodd" fill-opacity="1" stroke="#000000" stroke-opacity="1" stroke-width="3.2"/>
<path clip-path="url(#clip002)" d="M2277.09 1346.92 L2277.09 1378.92 L2309.09 1378.92 L2309.09 1346.92 L2277.09 1346.92 Z" fill="#e26f46" fill-rule="evenodd" fill-opacity="1" stroke="#000000" stroke-opacity="1" stroke-width="3.2"/>
<polyline clip-path="url(#clip002)" style="stroke:#3da44d; stroke-linecap:round; stroke-linejoin:round; stroke-width:4; stroke-opacity:1; fill:none" points="304.12,1164.56 552.741,1119.66 801.362,1025.37 1049.98,923.056 1298.6,860.667 1547.22,765.372 1795.85,676.454 2044.47,590.173 2293.09,504.903 "/>
<path clip-path="url(#clip002)" d="M304.12 1148.56 L288.12 1164.56 L304.12 1180.56 L320.12 1164.56 L304.12 1148.56 Z" fill="#3da44d" fill-rule="evenodd" fill-opacity="1" stroke="#000000" stroke-opacity="1" stroke-width="3.2"/>
<path clip-path="url(#clip002)" d="M552.741 1103.66 L536.741 1119.66 L552.741 1135.66 L568.741 1119.66 L552.741 1103.66 Z" fill="#3da44d" fill-rule="evenodd" fill-opacity="1" stroke="#000000" stroke-opacity="1" stroke-width="3.2"/>
<path clip-path="url(#clip002)" d="M801.362 1009.37 L785.362 1025.37 L801.362 1041.37 L817.362 1025.37 L801.362 1009.37 Z" fill="#3da44d" fill-rule="evenodd" fill-opacity="1" stroke="#000000" stroke-opacity="1" stroke-width="3.2"/>
<path clip-path="url(#clip002)" d="M1049.98 907.056 L1033.98 923.056 L1049.98 939.056 L1065.98 923.056 L1049.98 907.056 Z" fill="#3da44d" fill-rule="evenodd" fill-opacity="1" stroke="#000000" stroke-opacity="1" stroke-width="3.2"/>
<path clip-path="url(#clip002)" d="M1298.6 844.667 L1282.6 860.667 L1298.6 876.667 L1314.6 860.667 L1298.6 844.667 Z" fill="#3da44d" fill-rule="evenodd" fill-opacity="1" stroke="#000000" stroke-opacity="1" stroke-width="3.2"/>
<path clip-path="url(#clip002)" d="M1547.22 749.372 L1531.22 765.372 L1547.22 781.372 L1563.22 765.372 L1547.22 749.372 Z" fill="#3da44d" fill-rule="evenodd" fill-opacity="1" stroke="#000000" stroke-opacity="1" stroke-width="3.2"/>
<path clip-path="url(#clip002)" d="M1795.85 660.454 L1779.85 676.454 L1795.85 692.454 L1811.85 676.454 L1795.85 660.454 Z" fill="#3da44d" fill-rule="evenodd" fill-opacity="1" stroke="#000000" stroke-opacity="1" stroke-width="3.2"/>
<path clip-path="url(#clip002)" d="M2044.47 574.173 L2028.47 590.173 L2044.47 606.173 L2060.47 590.173 L2044.47 574.173 Z" fill="#3da44d" fill-rule="evenodd" fill-opacity="1" stroke="#000000" stroke-opacity="1" stroke-width="3.2"/>
<path clip-path="url(#clip002)" d="M2293.09 488.903 L2277.09 504.903 L2293.09 520.903 L2309.09 504.903 L2293.09 488.903 Z" fill="#3da44d" fill-rule="evenodd" fill-opacity="1" stroke="#000000" stroke-opacity="1" stroke-width="3.2"/>
<path clip-path="url(#clip000)" d="M314.728 300.059 L971.135 300.059 L971.135 92.6992 L314.728 92.6992  Z" fill="#ffffff" fill-rule="evenodd" fill-opacity="1"/>
<polyline clip-path="url(#clip000)" style="stroke:#000000; stroke-linecap:round; stroke-linejoin:round; stroke-width:4; stroke-opacity:1; fill:none" points="314.728,300.059 971.135,300.059 971.135,92.6992 314.728,92.6992 314.728,300.059 "/>
<polyline clip-path="url(#clip000)" style="stroke:#009af9; stroke-linecap:round; stroke-linejoin:round; stroke-width:4; stroke-opacity:1; fill:none" points="338.153,144.539 478.707,144.539 "/>
<circle clip-path="url(#clip000)" cx="408.43" cy="144.539" r="19.5213" fill="#009af9" fill-rule="evenodd" fill-opacity="1" stroke="#000000" stroke-opacity="1" stroke-width="4.55111"/>
<path clip-path="url(#clip000)" d="M522.48 140.87 Q524.077 138 526.299 136.634 Q528.521 135.268 531.531 135.268 Q535.582 135.268 537.781 138.116 Q539.98 140.94 539.98 146.171 L539.98 161.819 L535.697 161.819 L535.697 146.31 Q535.697 142.583 534.378 140.778 Q533.058 138.972 530.35 138.972 Q527.04 138.972 525.119 141.171 Q523.197 143.37 523.197 147.166 L523.197 161.819 L518.915 161.819 L518.915 146.31 Q518.915 142.56 517.596 140.778 Q516.276 138.972 513.521 138.972 Q510.258 138.972 508.336 141.194 Q506.415 143.393 506.415 147.166 L506.415 161.819 L502.133 161.819 L502.133 135.893 L506.415 135.893 L506.415 139.921 Q507.873 137.537 509.91 136.403 Q511.947 135.268 514.748 135.268 Q517.572 135.268 519.54 136.704 Q521.531 138.139 522.48 140.87 Z" fill="#000000" fill-rule="nonzero" fill-opacity="1" /><path clip-path="url(#clip000)" d="M548.475 135.893 L552.734 135.893 L552.734 161.819 L548.475 161.819 L548.475 135.893 M548.475 125.801 L552.734 125.801 L552.734 131.194 L548.475 131.194 L548.475 125.801 Z" fill="#000000" fill-rule="nonzero" fill-opacity="1" /><path clip-path="url(#clip000)" d="M583.197 146.171 L583.197 161.819 L578.938 161.819 L578.938 146.31 Q578.938 142.629 577.503 140.801 Q576.067 138.972 573.197 138.972 Q569.748 138.972 567.757 141.171 Q565.767 143.37 565.767 147.166 L565.767 161.819 L561.484 161.819 L561.484 135.893 L565.767 135.893 L565.767 139.921 Q567.294 137.583 569.354 136.426 Q571.438 135.268 574.146 135.268 Q578.614 135.268 580.905 138.046 Q583.197 140.801 583.197 146.171 Z" fill="#000000" fill-rule="nonzero" fill-opacity="1" /><path clip-path="url(#clip000)" d="M591.692 135.893 L595.952 135.893 L595.952 161.819 L591.692 161.819 L591.692 135.893 M591.692 125.801 L595.952 125.801 L595.952 131.194 L591.692 131.194 L591.692 125.801 Z" fill="#000000" fill-rule="nonzero" fill-opacity="1" /><path clip-path="url(#clip000)" d="M625.049 140.87 Q626.646 138 628.868 136.634 Q631.09 135.268 634.1 135.268 Q638.15 135.268 640.349 138.116 Q642.549 140.94 642.549 146.171 L642.549 161.819 L638.266 161.819 L638.266 146.31 Q638.266 142.583 636.947 140.778 Q635.627 138.972 632.919 138.972 Q629.609 138.972 627.688 141.171 Q625.766 143.37 625.766 147.166 L625.766 161.819 L621.484 161.819 L621.484 146.31 Q621.484 142.56 620.164 140.778 Q618.845 138.972 616.09 138.972 Q612.826 138.972 610.905 141.194 Q608.984 143.393 608.984 147.166 L608.984 161.819 L604.702 161.819 L604.702 135.893 L608.984 135.893 L608.984 139.921 Q610.442 137.537 612.479 136.403 Q614.516 135.268 617.317 135.268 Q620.141 135.268 622.109 136.704 Q624.1 138.139 625.049 140.87 Z" fill="#000000" fill-rule="nonzero" fill-opacity="1" /><path clip-path="url(#clip000)" d="M650.604 151.588 L650.604 135.893 L654.863 135.893 L654.863 151.426 Q654.863 155.106 656.298 156.958 Q657.734 158.787 660.604 158.787 Q664.053 158.787 666.044 156.588 Q668.058 154.389 668.058 150.592 L668.058 135.893 L672.317 135.893 L672.317 161.819 L668.058 161.819 L668.058 157.838 Q666.507 160.199 664.447 161.356 Q662.41 162.49 659.701 162.49 Q655.234 162.49 652.919 159.713 Q650.604 156.935 650.604 151.588 M661.322 135.268 L661.322 135.268 Z" fill="#000000" fill-rule="nonzero" fill-opacity="1" /><path clip-path="url(#clip000)" d="M701.275 140.87 Q702.872 138 705.095 136.634 Q707.317 135.268 710.326 135.268 Q714.377 135.268 716.576 138.116 Q718.775 140.94 718.775 146.171 L718.775 161.819 L714.493 161.819 L714.493 146.31 Q714.493 142.583 713.173 140.778 Q711.854 138.972 709.145 138.972 Q705.835 138.972 703.914 141.171 Q701.993 143.37 701.993 147.166 L701.993 161.819 L697.71 161.819 L697.71 146.31 Q697.71 142.56 696.391 140.778 Q695.071 138.972 692.317 138.972 Q689.053 138.972 687.132 141.194 Q685.21 143.393 685.21 147.166 L685.21 161.819 L680.928 161.819 L680.928 135.893 L685.21 135.893 L685.21 139.921 Q686.669 137.537 688.706 136.403 Q690.743 135.268 693.544 135.268 Q696.368 135.268 698.335 136.704 Q700.326 138.139 701.275 140.87 Z" fill="#000000" fill-rule="nonzero" fill-opacity="1" /><path clip-path="url(#clip000)" d="M746.553 128.532 L746.553 135.893 L755.326 135.893 L755.326 139.204 L746.553 139.204 L746.553 153.278 Q746.553 156.449 747.409 157.352 Q748.289 158.254 750.951 158.254 L755.326 158.254 L755.326 161.819 L750.951 161.819 Q746.02 161.819 744.145 159.99 Q742.27 158.139 742.27 153.278 L742.27 139.204 L739.145 139.204 L739.145 135.893 L742.27 135.893 L742.27 128.532 L746.553 128.532 Z" fill="#000000" fill-rule="nonzero" fill-opacity="1" /><path clip-path="url(#clip000)" d="M760.928 135.893 L765.187 135.893 L765.187 161.819 L760.928 161.819 L760.928 135.893 M760.928 125.801 L765.187 125.801 L765.187 131.194 L760.928 131.194 L760.928 125.801 Z" fill="#000000" fill-rule="nonzero" fill-opacity="1" /><path clip-path="url(#clip000)" d="M794.284 140.87 Q795.881 138 798.103 136.634 Q800.325 135.268 803.335 135.268 Q807.386 135.268 809.585 138.116 Q811.784 140.94 811.784 146.171 L811.784 161.819 L807.501 161.819 L807.501 146.31 Q807.501 142.583 806.182 140.778 Q804.862 138.972 802.154 138.972 Q798.844 138.972 796.923 141.171 Q795.001 143.37 795.001 147.166 L795.001 161.819 L790.719 161.819 L790.719 146.31 Q790.719 142.56 789.4 140.778 Q788.08 138.972 785.326 138.972 Q782.062 138.972 780.14 141.194 Q778.219 143.393 778.219 147.166 L778.219 161.819 L773.937 161.819 L773.937 135.893 L778.219 135.893 L778.219 139.921 Q779.677 137.537 781.714 136.403 Q783.751 135.268 786.552 135.268 Q789.376 135.268 791.344 136.704 Q793.335 138.139 794.284 140.87 Z" fill="#000000" fill-rule="nonzero" fill-opacity="1" /><path clip-path="url(#clip000)" d="M842.455 147.791 L842.455 149.875 L822.872 149.875 Q823.149 154.273 825.511 156.588 Q827.895 158.879 832.131 158.879 Q834.585 158.879 836.876 158.278 Q839.191 157.676 841.46 156.472 L841.46 160.5 Q839.168 161.472 836.76 161.981 Q834.353 162.49 831.876 162.49 Q825.673 162.49 822.038 158.879 Q818.427 155.268 818.427 149.111 Q818.427 142.745 821.853 139.018 Q825.302 135.268 831.136 135.268 Q836.367 135.268 839.399 138.648 Q842.455 142.004 842.455 147.791 M838.196 146.541 Q838.149 143.046 836.228 140.963 Q834.33 138.879 831.182 138.879 Q827.617 138.879 825.464 140.893 Q823.335 142.907 823.011 146.565 L838.196 146.541 Z" fill="#000000" fill-rule="nonzero" fill-opacity="1" /><path clip-path="url(#clip000)" d="M874.746 125.847 Q871.645 131.171 870.14 136.38 Q868.635 141.588 868.635 146.935 Q868.635 152.282 870.14 157.537 Q871.668 162.768 874.746 168.069 L871.043 168.069 Q867.57 162.629 865.834 157.375 Q864.121 152.12 864.121 146.935 Q864.121 141.773 865.834 136.542 Q867.547 131.31 871.043 125.847 L874.746 125.847 Z" fill="#000000" fill-rule="nonzero" fill-opacity="1" /><path clip-path="url(#clip000)" d="M904.561 146.171 L904.561 161.819 L900.302 161.819 L900.302 146.31 Q900.302 142.629 898.867 140.801 Q897.431 138.972 894.561 138.972 Q891.112 138.972 889.121 141.171 Q887.131 143.37 887.131 147.166 L887.131 161.819 L882.848 161.819 L882.848 135.893 L887.131 135.893 L887.131 139.921 Q888.658 137.583 890.719 136.426 Q892.802 135.268 895.51 135.268 Q899.978 135.268 902.269 138.046 Q904.561 140.801 904.561 146.171 Z" fill="#000000" fill-rule="nonzero" fill-opacity="1" /><path clip-path="url(#clip000)" d="M929.584 136.657 L929.584 140.685 Q927.779 139.759 925.834 139.296 Q923.89 138.833 921.806 138.833 Q918.635 138.833 917.038 139.805 Q915.464 140.778 915.464 142.722 Q915.464 144.204 916.598 145.06 Q917.732 145.893 921.158 146.657 L922.616 146.981 Q927.154 147.954 929.052 149.736 Q930.973 151.495 930.973 154.666 Q930.973 158.278 928.103 160.384 Q925.255 162.49 920.255 162.49 Q918.172 162.49 915.904 162.074 Q913.658 161.68 911.158 160.87 L911.158 156.472 Q913.519 157.699 915.811 158.324 Q918.103 158.926 920.348 158.926 Q923.357 158.926 924.978 157.907 Q926.598 156.866 926.598 154.991 Q926.598 153.254 925.417 152.328 Q924.26 151.403 920.302 150.546 L918.82 150.199 Q914.862 149.366 913.103 147.653 Q911.343 145.916 911.343 142.907 Q911.343 139.25 913.936 137.259 Q916.529 135.268 921.297 135.268 Q923.658 135.268 925.741 135.616 Q927.825 135.963 929.584 136.657 Z" fill="#000000" fill-rule="nonzero" fill-opacity="1" /><path clip-path="url(#clip000)" d="M937.084 125.847 L940.788 125.847 Q944.26 131.31 945.973 136.542 Q947.709 141.773 947.709 146.935 Q947.709 152.12 945.973 157.375 Q944.26 162.629 940.788 168.069 L937.084 168.069 Q940.163 162.768 941.667 157.537 Q943.195 152.282 943.195 146.935 Q943.195 141.588 941.667 136.38 Q940.163 131.171 937.084 125.847 Z" fill="#000000" fill-rule="nonzero" fill-opacity="1" /><polyline clip-path="url(#clip000)" style="stroke:#e26f46; stroke-linecap:round; stroke-linejoin:round; stroke-width:4; stroke-opacity:1; fill:none" points="338.153,196.379 478.707,196.379 "/>
<path clip-path="url(#clip000)" d="M386.74 174.689 L386.74 218.07 L430.121 218.07 L430.121 174.689 L386.74 174.689 Z" fill="#e26f46" fill-rule="evenodd" fill-opacity="1" stroke="#000000" stroke-opacity="1" stroke-width="4.55111"/>
<path clip-path="url(#clip000)" d="M515.535 200.627 Q510.373 200.627 508.383 201.807 Q506.392 202.988 506.392 205.835 Q506.392 208.104 507.873 209.446 Q509.378 210.766 511.947 210.766 Q515.489 210.766 517.619 208.266 Q519.771 205.743 519.771 201.576 L519.771 200.627 L515.535 200.627 M524.031 198.868 L524.031 213.659 L519.771 213.659 L519.771 209.724 Q518.313 212.085 516.137 213.219 Q513.961 214.33 510.813 214.33 Q506.832 214.33 504.471 212.108 Q502.133 209.863 502.133 206.113 Q502.133 201.738 505.049 199.516 Q507.989 197.294 513.799 197.294 L519.771 197.294 L519.771 196.877 Q519.771 193.937 517.827 192.34 Q515.906 190.719 512.41 190.719 Q510.188 190.719 508.082 191.252 Q505.975 191.784 504.031 192.849 L504.031 188.914 Q506.369 188.011 508.568 187.571 Q510.767 187.108 512.85 187.108 Q518.475 187.108 521.253 190.025 Q524.031 192.942 524.031 198.868 Z" fill="#000000" fill-rule="nonzero" fill-opacity="1" /><path clip-path="url(#clip000)" d="M532.804 177.641 L537.063 177.641 L537.063 213.659 L532.804 213.659 L532.804 177.641 Z" fill="#000000" fill-rule="nonzero" fill-opacity="1" /><path clip-path="url(#clip000)" d="M545.975 177.641 L550.234 177.641 L550.234 213.659 L545.975 213.659 L545.975 177.641 Z" fill="#000000" fill-rule="nonzero" fill-opacity="1" /><path clip-path="url(#clip000)" d="M569.192 190.719 Q565.767 190.719 563.776 193.405 Q561.785 196.067 561.785 200.719 Q561.785 205.372 563.753 208.057 Q565.743 210.719 569.192 210.719 Q572.595 210.719 574.586 208.034 Q576.577 205.349 576.577 200.719 Q576.577 196.113 574.586 193.428 Q572.595 190.719 569.192 190.719 M569.192 187.108 Q574.748 187.108 577.919 190.719 Q581.091 194.331 581.091 200.719 Q581.091 207.085 577.919 210.719 Q574.748 214.33 569.192 214.33 Q563.614 214.33 560.443 210.719 Q557.294 207.085 557.294 200.719 Q557.294 194.331 560.443 190.719 Q563.614 187.108 569.192 187.108 Z" fill="#000000" fill-rule="nonzero" fill-opacity="1" /><path clip-path="url(#clip000)" d="M606.808 188.729 L606.808 192.71 Q605.002 191.715 603.174 191.229 Q601.368 190.719 599.516 190.719 Q595.373 190.719 593.081 193.358 Q590.79 195.974 590.79 200.719 Q590.79 205.465 593.081 208.104 Q595.373 210.719 599.516 210.719 Q601.368 210.719 603.174 210.233 Q605.002 209.724 606.808 208.729 L606.808 212.664 Q605.026 213.497 603.104 213.914 Q601.206 214.33 599.053 214.33 Q593.197 214.33 589.748 210.65 Q586.299 206.969 586.299 200.719 Q586.299 194.377 589.771 190.743 Q593.266 187.108 599.331 187.108 Q601.299 187.108 603.174 187.525 Q605.049 187.919 606.808 188.729 Z" fill="#000000" fill-rule="nonzero" fill-opacity="1" /><path clip-path="url(#clip000)" d="M630.743 188.497 L630.743 192.525 Q628.938 191.599 626.993 191.136 Q625.049 190.673 622.965 190.673 Q619.794 190.673 618.197 191.645 Q616.623 192.618 616.623 194.562 Q616.623 196.044 617.757 196.9 Q618.891 197.733 622.317 198.497 L623.776 198.821 Q628.313 199.794 630.211 201.576 Q632.132 203.335 632.132 206.506 Q632.132 210.118 629.262 212.224 Q626.414 214.33 621.414 214.33 Q619.331 214.33 617.063 213.914 Q614.817 213.52 612.317 212.71 L612.317 208.312 Q614.678 209.539 616.97 210.164 Q619.262 210.766 621.507 210.766 Q624.516 210.766 626.137 209.747 Q627.757 208.706 627.757 206.831 Q627.757 205.094 626.576 204.168 Q625.419 203.243 621.461 202.386 L619.979 202.039 Q616.021 201.206 614.262 199.493 Q612.502 197.756 612.502 194.747 Q612.502 191.09 615.095 189.099 Q617.688 187.108 622.456 187.108 Q624.817 187.108 626.9 187.456 Q628.984 187.803 630.743 188.497 Z" fill="#000000" fill-rule="nonzero" fill-opacity="1" /><polyline clip-path="url(#clip000)" style="stroke:#3da44d; stroke-linecap:round; stroke-linejoin:round; stroke-width:4; stroke-opacity:1; fill:none" points="338.153,248.219 478.707,248.219 "/>
<path clip-path="url(#clip000)" d="M408.43 226.529 L386.74 248.219 L408.43 269.91 L430.121 248.219 L408.43 226.529 Z" fill="#3da44d" fill-rule="evenodd" fill-opacity="1" stroke="#000000" stroke-opacity="1" stroke-width="4.55111"/>
<path clip-path="url(#clip000)" d="M522.48 244.55 Q524.077 241.68 526.299 240.314 Q528.521 238.948 531.531 238.948 Q535.582 238.948 537.781 241.796 Q539.98 244.62 539.98 249.851 L539.98 265.499 L535.697 265.499 L535.697 249.99 Q535.697 246.263 534.378 244.458 Q533.058 242.652 530.35 242.652 Q527.04 242.652 525.119 244.851 Q523.197 247.05 523.197 250.846 L523.197 265.499 L518.915 265.499 L518.915 249.99 Q518.915 246.24 517.596 244.458 Q516.276 242.652 513.521 242.652 Q510.258 242.652 508.336 244.874 Q506.415 247.073 506.415 250.846 L506.415 265.499 L502.133 265.499 L502.133 239.573 L506.415 239.573 L506.415 243.601 Q507.873 241.217 509.91 240.083 Q511.947 238.948 514.748 238.948 Q517.572 238.948 519.54 240.384 Q521.531 241.819 522.48 244.55 Z" fill="#000000" fill-rule="nonzero" fill-opacity="1" /><path clip-path="url(#clip000)" d="M570.651 251.471 L570.651 253.555 L551.068 253.555 Q551.345 257.953 553.706 260.268 Q556.091 262.559 560.327 262.559 Q562.78 262.559 565.072 261.958 Q567.387 261.356 569.655 260.152 L569.655 264.18 Q567.364 265.152 564.956 265.661 Q562.549 266.17 560.072 266.17 Q553.868 266.17 550.234 262.559 Q546.623 258.948 546.623 252.791 Q546.623 246.425 550.049 242.698 Q553.498 238.948 559.331 238.948 Q564.563 238.948 567.595 242.328 Q570.651 245.684 570.651 251.471 M566.392 250.221 Q566.345 246.726 564.424 244.643 Q562.526 242.559 559.378 242.559 Q555.813 242.559 553.66 244.573 Q551.531 246.587 551.206 250.245 L566.392 250.221 Z" fill="#000000" fill-rule="nonzero" fill-opacity="1" /><path clip-path="url(#clip000)" d="M597.827 244.55 Q599.424 241.68 601.646 240.314 Q603.868 238.948 606.877 238.948 Q610.928 238.948 613.127 241.796 Q615.326 244.62 615.326 249.851 L615.326 265.499 L611.044 265.499 L611.044 249.99 Q611.044 246.263 609.725 244.458 Q608.405 242.652 605.697 242.652 Q602.387 242.652 600.465 244.851 Q598.544 247.05 598.544 250.846 L598.544 265.499 L594.262 265.499 L594.262 249.99 Q594.262 246.24 592.942 244.458 Q591.623 242.652 588.868 242.652 Q585.604 242.652 583.683 244.874 Q581.762 247.073 581.762 250.846 L581.762 265.499 L577.479 265.499 L577.479 239.573 L581.762 239.573 L581.762 243.601 Q583.22 241.217 585.257 240.083 Q587.294 238.948 590.095 238.948 Q592.919 238.948 594.887 240.384 Q596.877 241.819 597.827 244.55 Z" fill="#000000" fill-rule="nonzero" fill-opacity="1" /><path clip-path="url(#clip000)" d="M633.868 242.559 Q630.442 242.559 628.451 245.245 Q626.461 247.907 626.461 252.559 Q626.461 257.212 628.428 259.897 Q630.419 262.559 633.868 262.559 Q637.271 262.559 639.262 259.874 Q641.252 257.189 641.252 252.559 Q641.252 247.953 639.262 245.268 Q637.271 242.559 633.868 242.559 M633.868 238.948 Q639.424 238.948 642.595 242.559 Q645.766 246.171 645.766 252.559 Q645.766 258.925 642.595 262.559 Q639.424 266.17 633.868 266.17 Q628.289 266.17 625.118 262.559 Q621.97 258.925 621.97 252.559 Q621.97 246.171 625.118 242.559 Q628.289 238.948 633.868 238.948 Z" fill="#000000" fill-rule="nonzero" fill-opacity="1" /><path clip-path="url(#clip000)" d="M667.849 243.555 Q667.132 243.138 666.275 242.953 Q665.442 242.745 664.423 242.745 Q660.812 242.745 658.868 245.106 Q656.947 247.444 656.947 251.842 L656.947 265.499 L652.664 265.499 L652.664 239.573 L656.947 239.573 L656.947 243.601 Q658.289 241.24 660.442 240.106 Q662.595 238.948 665.673 238.948 Q666.113 238.948 666.646 239.018 Q667.178 239.064 667.826 239.18 L667.849 243.555 Z" fill="#000000" fill-rule="nonzero" fill-opacity="1" /><path clip-path="url(#clip000)" d="M683.104 267.907 Q681.298 272.536 679.585 273.948 Q677.872 275.36 675.002 275.36 L671.599 275.36 L671.599 271.795 L674.099 271.795 Q675.859 271.795 676.831 270.962 Q677.803 270.129 678.984 267.027 L679.747 265.083 L669.261 239.573 L673.775 239.573 L681.877 259.851 L689.979 239.573 L694.493 239.573 L683.104 267.907 Z" fill="#000000" fill-rule="nonzero" fill-opacity="1" /><path clip-path="url(#clip000)" d="M725.673 229.527 Q722.571 234.851 721.067 240.06 Q719.562 245.268 719.562 250.615 Q719.562 255.962 721.067 261.217 Q722.594 266.448 725.673 271.749 L721.969 271.749 Q718.497 266.309 716.761 261.055 Q715.048 255.8 715.048 250.615 Q715.048 245.453 716.761 240.222 Q718.474 234.99 721.969 229.527 L725.673 229.527 Z" fill="#000000" fill-rule="nonzero" fill-opacity="1" /><path clip-path="url(#clip000)" d="M752.548 252.559 Q752.548 247.86 750.604 245.198 Q748.682 242.513 745.303 242.513 Q741.923 242.513 739.979 245.198 Q738.057 247.86 738.057 252.559 Q738.057 257.258 739.979 259.944 Q741.923 262.606 745.303 262.606 Q748.682 262.606 750.604 259.944 Q752.548 257.258 752.548 252.559 M738.057 243.509 Q739.4 241.194 741.437 240.083 Q743.497 238.948 746.344 238.948 Q751.066 238.948 754.006 242.698 Q756.969 246.448 756.969 252.559 Q756.969 258.671 754.006 262.42 Q751.066 266.17 746.344 266.17 Q743.497 266.17 741.437 265.059 Q739.4 263.925 738.057 261.61 L738.057 265.499 L733.775 265.499 L733.775 229.481 L738.057 229.481 L738.057 243.509 Z" fill="#000000" fill-rule="nonzero" fill-opacity="1" /><path clip-path="url(#clip000)" d="M774.816 267.907 Q773.011 272.536 771.298 273.948 Q769.585 275.36 766.715 275.36 L763.312 275.36 L763.312 271.795 L765.812 271.795 Q767.571 271.795 768.543 270.962 Q769.515 270.129 770.696 267.027 L771.46 265.083 L760.974 239.573 L765.488 239.573 L773.59 259.851 L781.691 239.573 L786.205 239.573 L774.816 267.907 Z" fill="#000000" fill-rule="nonzero" fill-opacity="1" /><path clip-path="url(#clip000)" d="M796.298 232.212 L796.298 239.573 L805.071 239.573 L805.071 242.884 L796.298 242.884 L796.298 256.958 Q796.298 260.129 797.154 261.032 Q798.034 261.934 800.696 261.934 L805.071 261.934 L805.071 265.499 L800.696 265.499 Q795.765 265.499 793.89 263.67 Q792.015 261.819 792.015 256.958 L792.015 242.884 L788.89 242.884 L788.89 239.573 L792.015 239.573 L792.015 232.212 L796.298 232.212 Z" fill="#000000" fill-rule="nonzero" fill-opacity="1" /><path clip-path="url(#clip000)" d="M832.848 251.471 L832.848 253.555 L813.265 253.555 Q813.543 257.953 815.904 260.268 Q818.288 262.559 822.524 262.559 Q824.978 262.559 827.27 261.958 Q829.585 261.356 831.853 260.152 L831.853 264.18 Q829.561 265.152 827.154 265.661 Q824.747 266.17 822.27 266.17 Q816.066 266.17 812.432 262.559 Q808.821 258.948 808.821 252.791 Q808.821 246.425 812.247 242.698 Q815.696 238.948 821.529 238.948 Q826.761 238.948 829.793 242.328 Q832.848 245.684 832.848 251.471 M828.589 250.221 Q828.543 246.726 826.622 244.643 Q824.723 242.559 821.575 242.559 Q818.011 242.559 815.858 244.573 Q813.728 246.587 813.404 250.245 L828.589 250.221 Z" fill="#000000" fill-rule="nonzero" fill-opacity="1" /><path clip-path="url(#clip000)" d="M856.367 240.337 L856.367 244.365 Q854.561 243.439 852.617 242.976 Q850.672 242.513 848.589 242.513 Q845.418 242.513 843.821 243.485 Q842.247 244.458 842.247 246.402 Q842.247 247.884 843.381 248.74 Q844.515 249.573 847.941 250.337 L849.399 250.661 Q853.936 251.634 855.834 253.416 Q857.756 255.175 857.756 258.346 Q857.756 261.958 854.885 264.064 Q852.038 266.17 847.038 266.17 Q844.955 266.17 842.686 265.754 Q840.441 265.36 837.941 264.55 L837.941 260.152 Q840.302 261.379 842.594 262.004 Q844.885 262.606 847.131 262.606 Q850.14 262.606 851.76 261.587 Q853.381 260.546 853.381 258.671 Q853.381 256.934 852.2 256.008 Q851.043 255.083 847.084 254.226 L845.603 253.879 Q841.645 253.046 839.885 251.333 Q838.126 249.596 838.126 246.587 Q838.126 242.93 840.719 240.939 Q843.311 238.948 848.08 238.948 Q850.441 238.948 852.524 239.296 Q854.608 239.643 856.367 240.337 Z" fill="#000000" fill-rule="nonzero" fill-opacity="1" /><path clip-path="url(#clip000)" d="M863.867 229.527 L867.57 229.527 Q871.043 234.99 872.756 240.222 Q874.492 245.453 874.492 250.615 Q874.492 255.8 872.756 261.055 Q871.043 266.309 867.57 271.749 L863.867 271.749 Q866.945 266.448 868.45 261.217 Q869.978 255.962 869.978 250.615 Q869.978 245.268 868.45 240.06 Q866.945 234.851 863.867 229.527 Z" fill="#000000" fill-rule="nonzero" fill-opacity="1" /></svg>
