<?xml version="1.0" encoding="utf-8"?>
<svg xmlns="http://www.w3.org/2000/svg" xmlns:xlink="http://www.w3.org/1999/xlink" width="600" height="400" viewBox="0 0 2400 1600">
<defs>
  <clipPath id="clip060">
    <rect x="0" y="0" width="2400" height="1600"/>
  </clipPath>
</defs>
<path clip-path="url(#clip060)" d="M0 1600 L2400 1600 L2400 0 L0 0  Z" fill="#ffffff" fill-rule="evenodd" fill-opacity="1"/>
<defs>
  <clipPath id="clip061">
    <rect x="480" y="0" width="1681" height="1600"/>
  </clipPath>
</defs>
<path clip-path="url(#clip060)" d="M222.69 1410.9 L2352.76 1410.9 L2352.76 47.2441 L222.69 47.2441  Z" fill="#ffffff" fill-rule="evenodd" fill-opacity="1"/>
<defs>
  <clipPath id="clip062">
    <rect x="222" y="47" width="2131" height="1365"/>
  </clipPath>
</defs>
<polyline clip-path="url(#clip062)" style="stroke:#000000; stroke-linecap:round; stroke-linejoin:round; stroke-width:2; stroke-opacity:0.1; fill:none" points="615.026,1410.9 615.026,47.2441 "/>
<polyline clip-path="url(#clip062)" style="stroke:#000000; stroke-linecap:round; stroke-linejoin:round; stroke-width:2; stroke-opacity:0.1; fill:none" points="1032.24,1410.9 1032.24,47.2441 "/>
<polyline clip-path="url(#clip062)" style="stroke:#000000; stroke-linecap:round; stroke-linejoin:round; stroke-width:2; stroke-opacity:0.1; fill:none" points="1449.45,1410.9 1449.45,47.2441 "/>
<polyline clip-path="url(#clip062)" style="stroke:#000000; stroke-linecap:round; stroke-linejoin:round; stroke-width:2; stroke-opacity:0.1; fill:none" points="1866.66,1410.9 1866.66,47.2441 "/>
<polyline clip-path="url(#clip062)" style="stroke:#000000; stroke-linecap:round; stroke-linejoin:round; stroke-width:2; stroke-opacity:0.1; fill:none" points="2283.88,1410.9 2283.88,47.2441 "/>
<polyline clip-path="url(#clip060)" style="stroke:#000000; stroke-linecap:round; stroke-linejoin:round; stroke-width:4; stroke-opacity:1; fill:none" points="222.69,1410.9 2352.76,1410.9 "/>
<polyline clip-path="url(#clip060)" style="stroke:#000000; stroke-linecap:round; stroke-linejoin:round; stroke-width:4; stroke-opacity:1; fill:none" points="615.026,1410.9 615.026,1392 "/>
<polyline clip-path="url(#clip060)" style="stroke:#000000; stroke-linecap:round; stroke-linejoin:round; stroke-width:4; stroke-opacity:1; fill:none" points="1032.24,1410.9 1032.24,1392 "/>
<polyline clip-path="url(#clip060)" style="stroke:#000000; stroke-linecap:round; stroke-linejoin:round; stroke-width:4; stroke-opacity:1; fill:none" points="1449.45,1410.9 1449.45,1392 "/>
<polyline clip-path="url(#clip060)" style="stroke:#000000; stroke-linecap:round; stroke-linejoin:round; stroke-width:4; stroke-opacity:1; fill:none" points="1866.66,1410.9 1866.66,1392 "/>
<polyline clip-path="url(#clip060)" style="stroke:#000000; stroke-linecap:round; stroke-linejoin:round; stroke-width:4; stroke-opacity:1; fill:none" points="2283.88,1410.9 2283.88,1392 "/>
<path clip-path="url(#clip060)" d="M580.799 1485.02 L588.438 1485.02 L588.438 1458.66 L580.128 1460.32 L580.128 1456.06 L588.392 1454.4 L593.068 1454.4 L593.068 1485.02 L600.706 1485.02 L600.706 1488.96 L580.799 1488.96 L580.799 1485.02 Z" fill="#000000" fill-rule="nonzero" fill-opacity="1" /><path clip-path="url(#clip060)" d="M620.151 1457.48 Q616.54 1457.48 614.711 1461.04 Q612.905 1464.58 612.905 1471.71 Q612.905 1478.82 614.711 1482.38 Q616.54 1485.92 620.151 1485.92 Q623.785 1485.92 625.591 1482.38 Q627.419 1478.82 627.419 1471.71 Q627.419 1464.58 625.591 1461.04 Q623.785 1457.48 620.151 1457.48 M620.151 1453.77 Q625.961 1453.77 629.016 1458.38 Q632.095 1462.96 632.095 1471.71 Q632.095 1480.44 629.016 1485.04 Q625.961 1489.63 620.151 1489.63 Q614.341 1489.63 611.262 1485.04 Q608.206 1480.44 608.206 1471.71 Q608.206 1462.96 611.262 1458.38 Q614.341 1453.77 620.151 1453.77 Z" fill="#000000" fill-rule="nonzero" fill-opacity="1" /><path clip-path="url(#clip060)" d="M636.665 1458.35 L649.925 1458.35 L649.925 1461.55 L632.095 1461.55 L632.095 1458.35 Q634.258 1456.11 637.982 1452.35 Q641.725 1448.57 642.684 1447.48 Q644.508 1445.43 645.223 1444.02 Q645.956 1442.59 645.956 1441.22 Q645.956 1438.98 644.377 1437.57 Q642.816 1436.16 640.295 1436.16 Q638.509 1436.16 636.515 1436.78 Q634.54 1437.4 632.283 1438.66 L632.283 1434.82 Q634.578 1433.9 636.571 1433.43 Q638.565 1432.96 640.22 1432.96 Q644.583 1432.96 647.179 1435.14 Q649.774 1437.32 649.774 1440.97 Q649.774 1442.7 649.116 1444.26 Q648.477 1445.8 646.765 1447.91 Q646.295 1448.46 643.775 1451.07 Q641.254 1453.67 636.665 1458.35 Z" fill="#000000" fill-rule="nonzero" fill-opacity="1" /><path clip-path="url(#clip060)" d="M997.682 1485.02 L1005.32 1485.02 L1005.32 1458.66 L997.011 1460.32 L997.011 1456.06 L1005.28 1454.4 L1009.95 1454.4 L1009.95 1485.02 L1017.59 1485.02 L1017.59 1488.96 L997.682 1488.96 L997.682 1485.02 Z" fill="#000000" fill-rule="nonzero" fill-opacity="1" /><path clip-path="url(#clip060)" d="M1037.03 1457.48 Q1033.42 1457.48 1031.59 1461.04 Q1029.79 1464.58 1029.79 1471.71 Q1029.79 1478.82 1031.59 1482.38 Q1033.42 1485.92 1037.03 1485.92 Q1040.67 1485.92 1042.47 1482.38 Q1044.3 1478.82 1044.3 1471.71 Q1044.3 1464.58 1042.47 1461.04 Q1040.67 1457.48 1037.03 1457.48 M1037.03 1453.77 Q1042.84 1453.77 1045.9 1458.38 Q1048.98 1462.96 1048.98 1471.71 Q1048.98 1480.44 1045.9 1485.04 Q1042.84 1489.63 1037.03 1489.63 Q1031.22 1489.63 1028.15 1485.04 Q1025.09 1480.44 1025.09 1471.71 Q1025.09 1462.96 1028.15 1458.38 Q1031.22 1453.77 1037.03 1453.77 Z" fill="#000000" fill-rule="nonzero" fill-opacity="1" /><path clip-path="url(#clip060)" d="M1061.67 1446.41 Q1064.4 1446.99 1065.92 1448.83 Q1067.47 1450.68 1067.47 1453.38 Q1067.47 1457.54 1064.61 1459.82 Q1061.75 1462.09 1056.48 1462.09 Q1054.71 1462.09 1052.83 1461.73 Q1050.97 1461.4 1048.98 1460.7 L1048.98 1457.03 Q1050.56 1457.95 1052.44 1458.42 Q1054.32 1458.89 1056.37 1458.89 Q1059.94 1458.89 1061.81 1457.48 Q1063.69 1456.07 1063.69 1453.38 Q1063.69 1450.9 1061.94 1449.51 Q1060.21 1448.1 1057.1 1448.1 L1053.83 1448.1 L1053.83 1444.98 L1057.25 1444.98 Q1060.06 1444.98 1061.54 1443.87 Q1063.03 1442.74 1063.03 1440.63 Q1063.03 1438.47 1061.49 1437.32 Q1059.96 1436.16 1057.1 1436.16 Q1055.54 1436.16 1053.76 1436.49 Q1051.97 1436.83 1049.82 1437.55 L1049.82 1434.16 Q1051.99 1433.56 1053.87 1433.26 Q1055.77 1432.96 1057.44 1432.96 Q1061.77 1432.96 1064.29 1434.93 Q1066.81 1436.89 1066.81 1440.24 Q1066.81 1442.57 1065.47 1444.19 Q1064.14 1445.79 1061.67 1446.41 Z" fill="#000000" fill-rule="nonzero" fill-opacity="1" /><path clip-path="url(#clip060)" d="M1413.91 1485.02 L1421.55 1485.02 L1421.55 1458.66 L1413.24 1460.32 L1413.24 1456.06 L1421.5 1454.4 L1426.18 1454.4 L1426.18 1485.02 L1433.81 1485.02 L1433.81 1488.96 L1413.91 1488.96 L1413.91 1485.02 Z" fill="#000000" fill-rule="nonzero" fill-opacity="1" /><path clip-path="url(#clip060)" d="M1453.26 1457.48 Q1449.65 1457.48 1447.82 1461.04 Q1446.01 1464.58 1446.01 1471.71 Q1446.01 1478.82 1447.82 1482.38 Q1449.65 1485.92 1453.26 1485.92 Q1456.89 1485.92 1458.7 1482.38 Q1460.53 1478.82 1460.53 1471.71 Q1460.53 1464.58 1458.7 1461.04 Q1456.89 1457.48 1453.26 1457.48 M1453.26 1453.77 Q1459.07 1453.77 1462.12 1458.38 Q1465.2 1462.96 1465.2 1471.71 Q1465.2 1480.44 1462.12 1485.04 Q1459.07 1489.63 1453.26 1489.63 Q1447.45 1489.63 1444.37 1485.04 Q1441.31 1480.44 1441.31 1471.71 Q1441.31 1462.96 1444.37 1458.38 Q1447.45 1453.77 1453.26 1453.77 Z" fill="#000000" fill-rule="nonzero" fill-opacity="1" /><path clip-path="url(#clip060)" d="M1477.88 1436.78 L1468.29 1451.77 L1477.88 1451.77 L1477.88 1436.78 M1476.88 1433.47 L1481.66 1433.47 L1481.66 1451.77 L1485.67 1451.77 L1485.67 1454.93 L1481.66 1454.93 L1481.66 1461.55 L1477.88 1461.55 L1477.88 1454.93 L1465.2 1454.93 L1465.2 1451.26 L1476.88 1433.47 Z" fill="#000000" fill-rule="nonzero" fill-opacity="1" /><path clip-path="url(#clip060)" d="M1832.27 1485.02 L1839.91 1485.02 L1839.91 1458.66 L1831.6 1460.32 L1831.6 1456.06 L1839.86 1454.4 L1844.54 1454.4 L1844.54 1485.02 L1852.17 1485.02 L1852.17 1488.96 L1832.27 1488.96 L1832.27 1485.02 Z" fill="#000000" fill-rule="nonzero" fill-opacity="1" /><path clip-path="url(#clip060)" d="M1871.62 1457.48 Q1868.01 1457.48 1866.18 1461.04 Q1864.37 1464.58 1864.37 1471.71 Q1864.37 1478.82 1866.18 1482.38 Q1868.01 1485.92 1871.62 1485.92 Q1875.25 1485.92 1877.06 1482.38 Q1878.89 1478.82 1878.89 1471.71 Q1878.89 1464.58 1877.06 1461.04 Q1875.25 1457.48 1871.62 1457.48 M1871.62 1453.77 Q1877.43 1453.77 1880.48 1458.38 Q1883.56 1462.96 1883.56 1471.71 Q1883.56 1480.44 1880.48 1485.04 Q1877.43 1489.63 1871.62 1489.63 Q1865.81 1489.63 1862.73 1485.04 Q1859.67 1480.44 1859.67 1471.71 Q1859.67 1462.96 1862.73 1458.38 Q1865.81 1453.77 1871.62 1453.77 Z" fill="#000000" fill-rule="nonzero" fill-opacity="1" /><path clip-path="url(#clip060)" d="M1884.75 1433.47 L1899.66 1433.47 L1899.66 1436.66 L1888.23 1436.66 L1888.23 1443.55 Q1889.06 1443.27 1889.88 1443.13 Q1890.71 1442.98 1891.54 1442.98 Q1896.24 1442.98 1898.99 1445.56 Q1901.73 1448.14 1901.73 1452.54 Q1901.73 1457.07 1898.91 1459.59 Q1896.09 1462.09 1890.95 1462.09 Q1889.19 1462.09 1887.34 1461.79 Q1885.52 1461.49 1883.56 1460.89 L1883.56 1457.07 Q1885.26 1457.99 1887.06 1458.44 Q1888.87 1458.89 1890.88 1458.89 Q1894.13 1458.89 1896.03 1457.18 Q1897.93 1455.47 1897.93 1452.54 Q1897.93 1449.6 1896.03 1447.89 Q1894.13 1446.18 1890.88 1446.18 Q1889.36 1446.18 1887.83 1446.52 Q1886.33 1446.86 1884.75 1447.57 L1884.75 1433.47 Z" fill="#000000" fill-rule="nonzero" fill-opacity="1" /><path clip-path="url(#clip060)" d="M2248.87 1485.02 L2256.51 1485.02 L2256.51 1458.66 L2248.2 1460.32 L2248.2 1456.06 L2256.46 1454.4 L2261.14 1454.4 L2261.14 1485.02 L2268.78 1485.02 L2268.78 1488.96 L2248.87 1488.96 L2248.87 1485.02 Z" fill="#000000" fill-rule="nonzero" fill-opacity="1" /><path clip-path="url(#clip060)" d="M2288.22 1457.48 Q2284.61 1457.48 2282.78 1461.04 Q2280.98 1464.58 2280.98 1471.71 Q2280.98 1478.82 2282.78 1482.38 Q2284.61 1485.92 2288.22 1485.92 Q2291.85 1485.92 2293.66 1482.38 Q2295.49 1478.82 2295.49 1471.71 Q2295.49 1464.58 2293.66 1461.04 Q2291.85 1457.48 2288.22 1457.48 M2288.22 1453.77 Q2294.03 1453.77 2297.09 1458.38 Q2300.16 1462.96 2300.16 1471.71 Q2300.16 1480.44 2297.09 1485.04 Q2294.03 1489.63 2288.22 1489.63 Q2282.41 1489.63 2279.33 1485.04 Q2276.28 1480.44 2276.28 1471.71 Q2276.28 1462.96 2279.33 1458.38 Q2282.41 1453.77 2288.22 1453.77 Z" fill="#000000" fill-rule="nonzero" fill-opacity="1" /><path clip-path="url(#clip060)" d="M2310.19 1445.99 Q2307.63 1445.99 2306.13 1447.74 Q2304.64 1449.49 2304.64 1452.54 Q2304.64 1455.57 2306.13 1457.33 Q2307.63 1459.08 2310.19 1459.08 Q2312.75 1459.08 2314.23 1457.33 Q2315.74 1455.57 2315.74 1452.54 Q2315.74 1449.49 2314.23 1447.74 Q2312.75 1445.99 2310.19 1445.99 M2317.73 1434.09 L2317.73 1437.55 Q2316.3 1436.87 2314.83 1436.51 Q2313.39 1436.16 2311.96 1436.16 Q2308.2 1436.16 2306.2 1438.69 Q2304.23 1441.23 2303.95 1446.37 Q2305.05 1444.73 2306.73 1443.87 Q2308.4 1442.98 2310.41 1442.98 Q2314.65 1442.98 2317.09 1445.56 Q2319.56 1448.12 2319.56 1452.54 Q2319.56 1456.86 2317 1459.48 Q2314.44 1462.09 2310.19 1462.09 Q2305.32 1462.09 2302.74 1458.37 Q2300.16 1454.62 2300.16 1447.53 Q2300.16 1440.88 2303.32 1436.93 Q2306.48 1432.96 2311.81 1432.96 Q2313.24 1432.96 2314.68 1433.24 Q2316.15 1433.52 2317.73 1434.09 Z" fill="#000000" fill-rule="nonzero" fill-opacity="1" /><path clip-path="url(#clip060)" d="M980.657 1526.67 L989.315 1526.67 L1010.39 1566.42 L1010.39 1526.67 L1016.62 1526.67 L1016.62 1574.19 L1007.97 1574.19 L986.896 1534.43 L986.896 1574.19 L980.657 1574.19 L980.657 1526.67 Z" fill="#000000" fill-rule="nonzero" fill-opacity="1" /><path clip-path="url(#clip060)" d="M1080.38 1554.9 L1080.38 1557.76 L1053.45 1557.76 Q1053.83 1563.81 1057.08 1566.99 Q1060.36 1570.14 1066.18 1570.14 Q1069.55 1570.14 1072.71 1569.32 Q1075.89 1568.49 1079.01 1566.83 L1079.01 1572.37 Q1075.86 1573.71 1072.55 1574.41 Q1069.24 1575.11 1065.83 1575.11 Q1057.3 1575.11 1052.3 1570.14 Q1047.34 1565.18 1047.34 1556.71 Q1047.34 1547.96 1052.05 1542.83 Q1056.79 1537.68 1064.81 1537.68 Q1072.01 1537.68 1076.17 1542.33 Q1080.38 1546.94 1080.38 1554.9 M1074.52 1553.18 Q1074.46 1548.37 1071.81 1545.51 Q1069.2 1542.64 1064.88 1542.64 Q1059.97 1542.64 1057.01 1545.41 Q1054.09 1548.18 1053.64 1553.21 L1074.52 1553.18 Z" fill="#000000" fill-rule="nonzero" fill-opacity="1" /><path clip-path="url(#clip060)" d="M1089.99 1524.66 L1095.84 1524.66 L1095.84 1574.19 L1089.99 1574.19 L1089.99 1524.66 Z" fill="#000000" fill-rule="nonzero" fill-opacity="1" /><path clip-path="url(#clip060)" d="M1138.59 1554.9 L1138.59 1557.76 L1111.66 1557.76 Q1112.05 1563.81 1115.29 1566.99 Q1118.57 1570.14 1124.39 1570.14 Q1127.77 1570.14 1130.92 1569.32 Q1134.1 1568.49 1137.22 1566.83 L1137.22 1572.37 Q1134.07 1573.71 1130.76 1574.41 Q1127.45 1575.11 1124.04 1575.11 Q1115.51 1575.11 1110.52 1570.14 Q1105.55 1565.18 1105.55 1556.71 Q1105.55 1547.96 1110.26 1542.83 Q1115.01 1537.68 1123.03 1537.68 Q1130.22 1537.68 1134.39 1542.33 Q1138.59 1546.94 1138.59 1554.9 M1132.73 1553.18 Q1132.67 1548.37 1130.03 1545.51 Q1127.42 1542.64 1123.09 1542.64 Q1118.19 1542.64 1115.23 1545.41 Q1112.3 1548.18 1111.85 1553.21 L1132.73 1553.18 Z" fill="#000000" fill-rule="nonzero" fill-opacity="1" /><path clip-path="url(#clip060)" d="M1175.96 1545.38 Q1178.15 1541.43 1181.21 1539.56 Q1184.26 1537.68 1188.4 1537.68 Q1193.97 1537.68 1197 1541.59 Q1200.02 1545.48 1200.02 1552.67 L1200.02 1574.19 L1194.13 1574.19 L1194.13 1552.86 Q1194.13 1547.74 1192.32 1545.25 Q1190.5 1542.77 1186.78 1542.77 Q1182.23 1542.77 1179.59 1545.79 Q1176.94 1548.82 1176.94 1554.04 L1176.94 1574.19 L1171.06 1574.19 L1171.06 1552.86 Q1171.06 1547.7 1169.24 1545.25 Q1167.43 1542.77 1163.64 1542.77 Q1159.15 1542.77 1156.51 1545.83 Q1153.87 1548.85 1153.87 1554.04 L1153.87 1574.19 L1147.98 1574.19 L1147.98 1538.54 L1153.87 1538.54 L1153.87 1544.08 Q1155.87 1540.8 1158.67 1539.24 Q1161.48 1537.68 1165.33 1537.68 Q1169.21 1537.68 1171.91 1539.65 Q1174.65 1541.62 1175.96 1545.38 Z" fill="#000000" fill-rule="nonzero" fill-opacity="1" /><path clip-path="url(#clip060)" d="M1242.19 1554.9 L1242.19 1557.76 L1215.27 1557.76 Q1215.65 1563.81 1218.89 1566.99 Q1222.17 1570.14 1228 1570.14 Q1231.37 1570.14 1234.52 1569.32 Q1237.7 1568.49 1240.82 1566.83 L1240.82 1572.37 Q1237.67 1573.71 1234.36 1574.41 Q1231.05 1575.11 1227.65 1575.11 Q1219.12 1575.11 1214.12 1570.14 Q1209.15 1565.18 1209.15 1556.71 Q1209.15 1547.96 1213.87 1542.83 Q1218.61 1537.68 1226.63 1537.68 Q1233.82 1537.68 1237.99 1542.33 Q1242.19 1546.94 1242.19 1554.9 M1236.34 1553.18 Q1236.27 1548.37 1233.63 1545.51 Q1231.02 1542.64 1226.69 1542.64 Q1221.79 1542.64 1218.83 1545.41 Q1215.9 1548.18 1215.46 1553.21 L1236.34 1553.18 Z" fill="#000000" fill-rule="nonzero" fill-opacity="1" /><path clip-path="url(#clip060)" d="M1281.44 1552.67 L1281.44 1574.19 L1275.58 1574.19 L1275.58 1552.86 Q1275.58 1547.8 1273.61 1545.29 Q1271.63 1542.77 1267.69 1542.77 Q1262.94 1542.77 1260.21 1545.79 Q1257.47 1548.82 1257.47 1554.04 L1257.47 1574.19 L1251.58 1574.19 L1251.58 1538.54 L1257.47 1538.54 L1257.47 1544.08 Q1259.57 1540.86 1262.4 1539.27 Q1265.27 1537.68 1268.99 1537.68 Q1275.13 1537.68 1278.29 1541.5 Q1281.44 1545.29 1281.44 1552.67 Z" fill="#000000" fill-rule="nonzero" fill-opacity="1" /><path clip-path="url(#clip060)" d="M1298.91 1528.42 L1298.91 1538.54 L1310.97 1538.54 L1310.97 1543.09 L1298.91 1543.09 L1298.91 1562.44 Q1298.91 1566.8 1300.09 1568.04 Q1301.3 1569.28 1304.96 1569.28 L1310.97 1569.28 L1310.97 1574.19 L1304.96 1574.19 Q1298.18 1574.19 1295.6 1571.67 Q1293.02 1569.12 1293.02 1562.44 L1293.02 1543.09 L1288.73 1543.09 L1288.73 1538.54 L1293.02 1538.54 L1293.02 1528.42 L1298.91 1528.42 Z" fill="#000000" fill-rule="nonzero" fill-opacity="1" /><path clip-path="url(#clip060)" d="M1341.4 1539.59 L1341.4 1545.13 Q1338.92 1543.85 1336.25 1543.22 Q1333.57 1542.58 1330.71 1542.58 Q1326.35 1542.58 1324.15 1543.92 Q1321.99 1545.25 1321.99 1547.93 Q1321.99 1549.96 1323.55 1551.14 Q1325.11 1552.29 1329.82 1553.34 L1331.82 1553.78 Q1338.06 1555.12 1340.67 1557.57 Q1343.31 1559.99 1343.31 1564.35 Q1343.31 1569.32 1339.36 1572.21 Q1335.45 1575.11 1328.58 1575.11 Q1325.71 1575.11 1322.59 1574.54 Q1319.5 1573.99 1316.07 1572.88 L1316.07 1566.83 Q1319.31 1568.52 1322.46 1569.38 Q1325.61 1570.21 1328.7 1570.21 Q1332.84 1570.21 1335.07 1568.81 Q1337.3 1567.37 1337.3 1564.8 Q1337.3 1562.41 1335.67 1561.14 Q1334.08 1559.86 1328.64 1558.68 L1326.6 1558.21 Q1321.16 1557.06 1318.74 1554.71 Q1316.32 1552.32 1316.32 1548.18 Q1316.32 1543.15 1319.89 1540.42 Q1323.45 1537.68 1330.01 1537.68 Q1333.25 1537.68 1336.12 1538.16 Q1338.98 1538.63 1341.4 1539.59 Z" fill="#000000" fill-rule="nonzero" fill-opacity="1" /><path clip-path="url(#clip060)" d="M1387.43 1524.72 Q1383.16 1532.04 1381.09 1539.21 Q1379.02 1546.37 1379.02 1553.72 Q1379.02 1561.07 1381.09 1568.3 Q1383.19 1575.49 1387.43 1582.78 L1382.33 1582.78 Q1377.56 1575.3 1375.17 1568.07 Q1372.82 1560.85 1372.82 1553.72 Q1372.82 1546.62 1375.17 1539.43 Q1377.53 1532.24 1382.33 1524.72 L1387.43 1524.72 Z" fill="#000000" fill-rule="nonzero" fill-opacity="1" /><path clip-path="url(#clip060)" d="M1398.79 1524.66 L1404.65 1524.66 L1404.65 1574.19 L1398.79 1574.19 L1398.79 1524.66 Z" fill="#000000" fill-rule="nonzero" fill-opacity="1" /><path clip-path="url(#clip060)" d="M1430.71 1542.64 Q1426 1542.64 1423.26 1546.34 Q1420.53 1550 1420.53 1556.39 Q1420.53 1562.79 1423.23 1566.48 Q1425.97 1570.14 1430.71 1570.14 Q1435.39 1570.14 1438.13 1566.45 Q1440.87 1562.76 1440.87 1556.39 Q1440.87 1550.06 1438.13 1546.37 Q1435.39 1542.64 1430.71 1542.64 M1430.71 1537.68 Q1438.35 1537.68 1442.71 1542.64 Q1447.07 1547.61 1447.07 1556.39 Q1447.07 1565.15 1442.71 1570.14 Q1438.35 1575.11 1430.71 1575.11 Q1423.04 1575.11 1418.68 1570.14 Q1414.35 1565.15 1414.35 1556.39 Q1414.35 1547.61 1418.68 1542.64 Q1423.04 1537.68 1430.71 1537.68 Z" fill="#000000" fill-rule="nonzero" fill-opacity="1" /><path clip-path="url(#clip060)" d="M1480.24 1555.95 Q1480.24 1549.58 1477.6 1546.08 Q1474.99 1542.58 1470.24 1542.58 Q1465.53 1542.58 1462.89 1546.08 Q1460.28 1549.58 1460.28 1555.95 Q1460.28 1562.28 1462.89 1565.78 Q1465.53 1569.28 1470.24 1569.28 Q1474.99 1569.28 1477.6 1565.78 Q1480.24 1562.28 1480.24 1555.95 M1486.09 1569.76 Q1486.09 1578.86 1482.05 1583.29 Q1478.01 1587.74 1469.67 1587.74 Q1466.58 1587.74 1463.85 1587.27 Q1461.11 1586.82 1458.53 1585.87 L1458.53 1580.17 Q1461.11 1581.57 1463.62 1582.24 Q1466.14 1582.91 1468.75 1582.91 Q1474.51 1582.91 1477.37 1579.88 Q1480.24 1576.89 1480.24 1570.81 L1480.24 1567.92 Q1478.42 1571.07 1475.59 1572.63 Q1472.76 1574.19 1468.81 1574.19 Q1462.25 1574.19 1458.24 1569.19 Q1454.23 1564.19 1454.23 1555.95 Q1454.23 1547.67 1458.24 1542.68 Q1462.25 1537.68 1468.81 1537.68 Q1472.76 1537.68 1475.59 1539.24 Q1478.42 1540.8 1480.24 1543.95 L1480.24 1538.54 L1486.09 1538.54 L1486.09 1569.76 Z" fill="#000000" fill-rule="nonzero" fill-opacity="1" /><path clip-path="url(#clip060)" d="M1500.1 1568.77 L1510.6 1568.77 L1510.6 1532.52 L1499.18 1534.81 L1499.18 1528.96 L1510.54 1526.67 L1516.97 1526.67 L1516.97 1568.77 L1527.47 1568.77 L1527.47 1574.19 L1500.1 1574.19 L1500.1 1568.77 Z" fill="#000000" fill-rule="nonzero" fill-opacity="1" /><path clip-path="url(#clip060)" d="M1554.21 1530.9 Q1549.24 1530.9 1546.73 1535.8 Q1544.25 1540.67 1544.25 1550.47 Q1544.25 1560.24 1546.73 1565.15 Q1549.24 1570.02 1554.21 1570.02 Q1559.2 1570.02 1561.69 1565.15 Q1564.2 1560.24 1564.2 1550.47 Q1564.2 1540.67 1561.69 1535.8 Q1559.2 1530.9 1554.21 1530.9 M1554.21 1525.81 Q1562.2 1525.81 1566.4 1532.14 Q1570.63 1538.44 1570.63 1550.47 Q1570.63 1562.47 1566.4 1568.81 Q1562.2 1575.11 1554.21 1575.11 Q1546.22 1575.11 1541.99 1568.81 Q1537.78 1562.47 1537.78 1550.47 Q1537.78 1538.44 1541.99 1532.14 Q1546.22 1525.81 1554.21 1525.81 Z" fill="#000000" fill-rule="nonzero" fill-opacity="1" /><path clip-path="url(#clip060)" d="M1580.18 1524.72 L1585.27 1524.72 Q1590.05 1532.24 1592.4 1539.43 Q1594.79 1546.62 1594.79 1553.72 Q1594.79 1560.85 1592.4 1568.07 Q1590.05 1575.3 1585.27 1582.78 L1580.18 1582.78 Q1584.41 1575.49 1586.48 1568.3 Q1588.58 1561.07 1588.58 1553.72 Q1588.58 1546.37 1586.48 1539.21 Q1584.41 1532.04 1580.18 1524.72 Z" fill="#000000" fill-rule="nonzero" fill-opacity="1" /><polyline clip-path="url(#clip062)" style="stroke:#000000; stroke-linecap:round; stroke-linejoin:round; stroke-width:2; stroke-opacity:0.1; fill:none" points="222.69,1106.99 2352.76,1106.99 "/>
<polyline clip-path="url(#clip062)" style="stroke:#000000; stroke-linecap:round; stroke-linejoin:round; stroke-width:2; stroke-opacity:0.1; fill:none" points="222.69,710.743 2352.76,710.743 "/>
<polyline clip-path="url(#clip062)" style="stroke:#000000; stroke-linecap:round; stroke-linejoin:round; stroke-width:2; stroke-opacity:0.1; fill:none" points="222.69,314.498 2352.76,314.498 "/>
<polyline clip-path="url(#clip060)" style="stroke:#000000; stroke-linecap:round; stroke-linejoin:round; stroke-width:4; stroke-opacity:1; fill:none" points="222.69,1410.9 222.69,47.2441 "/>
<polyline clip-path="url(#clip060)" style="stroke:#000000; stroke-linecap:round; stroke-linejoin:round; stroke-width:4; stroke-opacity:1; fill:none" points="222.69,1106.99 241.588,1106.99 "/>
<polyline clip-path="url(#clip060)" style="stroke:#000000; stroke-linecap:round; stroke-linejoin:round; stroke-width:4; stroke-opacity:1; fill:none" points="222.69,710.743 241.588,710.743 "/>
<polyline clip-path="url(#clip060)" style="stroke:#000000; stroke-linecap:round; stroke-linejoin:round; stroke-width:4; stroke-opacity:1; fill:none" points="222.69,314.498 241.588,314.498 "/>
<path clip-path="url(#clip060)" d="M114.931 1126.78 L122.57 1126.78 L122.57 1100.42 L114.26 1102.08 L114.26 1097.82 L122.524 1096.16 L127.2 1096.16 L127.2 1126.78 L134.839 1126.78 L134.839 1130.72 L114.931 1130.72 L114.931 1126.78 Z" fill="#000000" fill-rule="nonzero" fill-opacity="1" /><path clip-path="url(#clip060)" d="M154.283 1099.24 Q150.672 1099.24 148.843 1102.8 Q147.038 1106.34 147.038 1113.47 Q147.038 1120.58 148.843 1124.14 Q150.672 1127.68 154.283 1127.68 Q157.917 1127.68 159.723 1124.14 Q161.552 1120.58 161.552 1113.47 Q161.552 1106.34 159.723 1102.8 Q157.917 1099.24 154.283 1099.24 M154.283 1095.53 Q160.093 1095.53 163.149 1100.14 Q166.227 1104.72 166.227 1113.47 Q166.227 1122.2 163.149 1126.8 Q160.093 1131.39 154.283 1131.39 Q148.473 1131.39 145.394 1126.8 Q142.339 1122.2 142.339 1113.47 Q142.339 1104.72 145.394 1100.14 Q148.473 1095.53 154.283 1095.53 Z" fill="#000000" fill-rule="nonzero" fill-opacity="1" /><path clip-path="url(#clip060)" d="M178.904 1078.54 L169.312 1093.53 L178.904 1093.53 L178.904 1078.54 M177.907 1075.23 L182.684 1075.23 L182.684 1093.53 L186.69 1093.53 L186.69 1096.69 L182.684 1096.69 L182.684 1103.31 L178.904 1103.31 L178.904 1096.69 L166.227 1096.69 L166.227 1093.02 L177.907 1075.23 Z" fill="#000000" fill-rule="nonzero" fill-opacity="1" /><path clip-path="url(#clip060)" d="M116.003 730.536 L123.642 730.536 L123.642 704.17 L115.332 705.837 L115.332 701.578 L123.596 699.911 L128.272 699.911 L128.272 730.536 L135.911 730.536 L135.911 734.471 L116.003 734.471 L116.003 730.536 Z" fill="#000000" fill-rule="nonzero" fill-opacity="1" /><path clip-path="url(#clip060)" d="M155.355 702.99 Q151.744 702.99 149.915 706.555 Q148.11 710.096 148.11 717.226 Q148.11 724.332 149.915 727.897 Q151.744 731.439 155.355 731.439 Q158.989 731.439 160.795 727.897 Q162.624 724.332 162.624 717.226 Q162.624 710.096 160.795 706.555 Q158.989 702.99 155.355 702.99 M155.355 699.286 Q161.165 699.286 164.221 703.893 Q167.3 708.476 167.3 717.226 Q167.3 725.953 164.221 730.559 Q161.165 735.142 155.355 735.142 Q149.545 735.142 146.466 730.559 Q143.411 725.953 143.411 717.226 Q143.411 708.476 146.466 703.893 Q149.545 699.286 155.355 699.286 Z" fill="#000000" fill-rule="nonzero" fill-opacity="1" /><path clip-path="url(#clip060)" d="M177.324 691.507 Q174.766 691.507 173.262 693.256 Q171.776 695.005 171.776 698.052 Q171.776 701.08 173.262 702.848 Q174.766 704.597 177.324 704.597 Q179.882 704.597 181.368 702.848 Q182.872 701.08 182.872 698.052 Q182.872 695.005 181.368 693.256 Q179.882 691.507 177.324 691.507 M184.866 679.601 L184.866 683.062 Q183.437 682.385 181.97 682.028 Q180.521 681.67 179.092 681.67 Q175.33 681.67 173.337 684.209 Q171.362 686.748 171.08 691.883 Q172.19 690.247 173.863 689.381 Q175.537 688.497 177.55 688.497 Q181.781 688.497 184.227 691.074 Q186.69 693.632 186.69 698.052 Q186.69 702.378 184.132 704.992 Q181.575 707.606 177.324 707.606 Q172.453 707.606 169.876 703.882 Q167.3 700.139 167.3 693.049 Q167.3 686.391 170.459 682.441 Q173.619 678.473 178.942 678.473 Q180.371 678.473 181.819 678.755 Q183.286 679.037 184.866 679.601 Z" fill="#000000" fill-rule="nonzero" fill-opacity="1" /><path clip-path="url(#clip060)" d="M116.135 334.29 L123.774 334.29 L123.774 307.924 L115.464 309.591 L115.464 305.332 L123.728 303.665 L128.404 303.665 L128.404 334.29 L136.042 334.29 L136.042 338.225 L116.135 338.225 L116.135 334.29 Z" fill="#000000" fill-rule="nonzero" fill-opacity="1" /><path clip-path="url(#clip060)" d="M155.487 306.744 Q151.876 306.744 150.047 310.309 Q148.241 313.85 148.241 320.98 Q148.241 328.086 150.047 331.651 Q151.876 335.193 155.487 335.193 Q159.121 335.193 160.927 331.651 Q162.755 328.086 162.755 320.98 Q162.755 313.85 160.927 310.309 Q159.121 306.744 155.487 306.744 M155.487 303.04 Q161.297 303.04 164.352 307.647 Q167.431 312.23 167.431 320.98 Q167.431 329.707 164.352 334.313 Q161.297 338.896 155.487 338.896 Q149.677 338.896 146.598 334.313 Q143.542 329.707 143.542 320.98 Q143.542 312.23 146.598 307.647 Q149.677 303.04 155.487 303.04 Z" fill="#000000" fill-rule="nonzero" fill-opacity="1" /><path clip-path="url(#clip060)" d="M177.061 297.48 Q174.352 297.48 172.791 298.928 Q171.249 300.376 171.249 302.915 Q171.249 305.454 172.791 306.903 Q174.352 308.351 177.061 308.351 Q179.769 308.351 181.33 306.903 Q182.891 305.436 182.891 302.915 Q182.891 300.376 181.33 298.928 Q179.788 297.48 177.061 297.48 M173.262 295.863 Q170.817 295.261 169.444 293.587 Q168.089 291.913 168.089 289.506 Q168.089 286.139 170.478 284.183 Q172.885 282.227 177.061 282.227 Q181.255 282.227 183.643 284.183 Q186.032 286.139 186.032 289.506 Q186.032 291.913 184.659 293.587 Q183.305 295.261 180.879 295.863 Q183.625 296.502 185.148 298.364 Q186.69 300.226 186.69 302.915 Q186.69 306.997 184.189 309.178 Q181.706 311.36 177.061 311.36 Q172.415 311.36 169.914 309.178 Q167.431 306.997 167.431 302.915 Q167.431 300.226 168.973 298.364 Q170.516 296.502 173.262 295.863 M171.87 289.863 Q171.87 292.045 173.224 293.267 Q174.597 294.49 177.061 294.49 Q179.506 294.49 180.879 293.267 Q182.27 292.045 182.27 289.863 Q182.27 287.681 180.879 286.459 Q179.506 285.236 177.061 285.236 Q174.597 285.236 173.224 286.459 Q171.87 287.681 171.87 289.863 Z" fill="#000000" fill-rule="nonzero" fill-opacity="1" /><path clip-path="url(#clip060)" d="M14.5426 825.447 Q21.8632 829.712 29.0246 831.781 Q36.186 833.85 43.5384 833.85 Q50.8908 833.85 58.1159 831.781 Q65.3091 829.68 72.5979 825.447 L72.5979 830.54 Q65.1182 835.314 57.8931 837.701 Q50.668 840.056 43.5384 840.056 Q36.4406 840.056 29.2474 837.701 Q22.0542 835.346 14.5426 830.54 L14.5426 825.447 Z" fill="#000000" fill-rule="nonzero" fill-opacity="1" /><path clip-path="url(#clip060)" d="M14.479 814.084 L14.479 808.228 L64.0042 808.228 L64.0042 814.084 L14.479 814.084 Z" fill="#000000" fill-rule="nonzero" fill-opacity="1" /><path clip-path="url(#clip060)" d="M32.4621 782.16 Q32.4621 786.871 36.1542 789.608 Q39.8145 792.345 46.212 792.345 Q52.6095 792.345 56.3017 789.64 Q59.9619 786.903 59.9619 782.16 Q59.9619 777.482 56.2698 774.744 Q52.5777 772.007 46.212 772.007 Q39.8781 772.007 36.186 774.744 Q32.4621 777.482 32.4621 782.16 M27.4968 782.16 Q27.4968 774.522 32.4621 770.161 Q37.4273 765.8 46.212 765.8 Q54.9649 765.8 59.9619 770.161 Q64.9272 774.522 64.9272 782.16 Q64.9272 789.831 59.9619 794.192 Q54.9649 798.52 46.212 798.52 Q37.4273 798.52 32.4621 794.192 Q27.4968 789.831 27.4968 782.16 Z" fill="#000000" fill-rule="nonzero" fill-opacity="1" /><path clip-path="url(#clip060)" d="M45.7664 732.635 Q39.4007 732.635 35.8996 735.277 Q32.3984 737.887 32.3984 742.629 Q32.3984 747.34 35.8996 749.982 Q39.4007 752.592 45.7664 752.592 Q52.1003 752.592 55.6014 749.982 Q59.1026 747.34 59.1026 742.629 Q59.1026 737.887 55.6014 735.277 Q52.1003 732.635 45.7664 732.635 M59.58 726.779 Q68.683 726.779 73.1071 730.821 Q77.5631 734.863 77.5631 743.202 Q77.5631 746.29 77.0857 749.027 Q76.6401 751.764 75.6852 754.342 L69.9879 754.342 Q71.3884 751.764 72.0568 749.25 Q72.7252 746.735 72.7252 744.125 Q72.7252 738.364 69.7015 735.5 Q66.7096 732.635 60.6303 732.635 L57.7339 732.635 Q60.885 734.449 62.4446 737.282 Q64.0042 740.115 64.0042 744.062 Q64.0042 750.618 59.0071 754.629 Q54.01 758.639 45.7664 758.639 Q37.491 758.639 32.4939 754.629 Q27.4968 750.618 27.4968 744.062 Q27.4968 740.115 29.0564 737.282 Q30.616 734.449 33.7671 732.635 L28.3562 732.635 L28.3562 726.779 L59.58 726.779 Z" fill="#000000" fill-rule="nonzero" fill-opacity="1" /><path clip-path="url(#clip060)" d="M58.5933 712.774 L58.5933 702.271 L22.3406 702.271 L24.6323 713.697 L18.7758 713.697 L16.4842 702.334 L16.4842 695.905 L58.5933 695.905 L58.5933 685.402 L64.0042 685.402 L64.0042 712.774 L58.5933 712.774 Z" fill="#000000" fill-rule="nonzero" fill-opacity="1" /><path clip-path="url(#clip060)" d="M20.7174 658.666 Q20.7174 663.631 25.6189 666.145 Q30.4887 668.628 40.2919 668.628 Q50.0633 668.628 54.9649 666.145 Q59.8346 663.631 59.8346 658.666 Q59.8346 653.669 54.9649 651.186 Q50.0633 648.671 40.2919 648.671 Q30.4887 648.671 25.6189 651.186 Q20.7174 653.669 20.7174 658.666 M15.6248 658.666 Q15.6248 650.677 21.9587 646.475 Q28.2607 642.242 40.2919 642.242 Q52.2913 642.242 58.6251 646.475 Q64.9272 650.677 64.9272 658.666 Q64.9272 666.655 58.6251 670.888 Q52.2913 675.089 40.2919 675.089 Q28.2607 675.089 21.9587 670.888 Q15.6248 666.655 15.6248 658.666 Z" fill="#000000" fill-rule="nonzero" fill-opacity="1" /><path clip-path="url(#clip060)" d="M14.5426 632.694 L14.5426 627.601 Q22.0542 622.827 29.2474 620.471 Q36.4406 618.084 43.5384 618.084 Q50.668 618.084 57.8931 620.471 Q65.1182 622.827 72.5979 627.601 L72.5979 632.694 Q65.3091 628.46 58.1159 626.392 Q50.8908 624.291 43.5384 624.291 Q36.186 624.291 29.0246 626.392 Q21.8632 628.46 14.5426 632.694 Z" fill="#000000" fill-rule="nonzero" fill-opacity="1" /><polyline clip-path="url(#clip062)" style="stroke:#009af9; stroke-linecap:round; stroke-linejoin:round; stroke-width:4; stroke-opacity:1; fill:none" points="282.975,1150.1 534.162,1032.13 785.349,912.767 1036.54,793.426 1287.72,673.843 1538.91,554.057 1790.1,426.84 2041.28,302.884 2292.47,182.581 "/>
<circle clip-path="url(#clip062)" cx="282.975" cy="1150.1" r="14.4" fill="#009af9" fill-rule="evenodd" fill-opacity="1" stroke="#000000" stroke-opacity="1" stroke-width="3.2"/>
<circle clip-path="url(#clip062)" cx="534.162" cy="1032.13" r="14.4" fill="#009af9" fill-rule="evenodd" fill-opacity="1" stroke="#000000" stroke-opacity="1" stroke-width="3.2"/>
<circle clip-path="url(#clip062)" cx="785.349" cy="912.767" r="14.4" fill="#009af9" fill-rule="evenodd" fill-opacity="1" stroke="#000000" stroke-opacity="1" stroke-width="3.2"/>
<circle clip-path="url(#clip062)" cx="1036.54" cy="793.426" r="14.4" fill="#009af9" fill-rule="evenodd" fill-opacity="1" stroke="#000000" stroke-opacity="1" stroke-width="3.2"/>
<circle clip-path="url(#clip062)" cx="1287.72" cy="673.843" r="14.4" fill="#009af9" fill-rule="evenodd" fill-opacity="1" stroke="#000000" stroke-opacity="1" stroke-width="3.2"/>
<circle clip-path="url(#clip062)" cx="1538.91" cy="554.057" r="14.4" fill="#009af9" fill-rule="evenodd" fill-opacity="1" stroke="#000000" stroke-opacity="1" stroke-width="3.2"/>
<circle clip-path="url(#clip062)" cx="1790.1" cy="426.84" r="14.4" fill="#009af9" fill-rule="evenodd" fill-opacity="1" stroke="#000000" stroke-opacity="1" stroke-width="3.2"/>
<circle clip-path="url(#clip062)" cx="2041.28" cy="302.884" r="14.4" fill="#009af9" fill-rule="evenodd" fill-opacity="1" stroke="#000000" stroke-opacity="1" stroke-width="3.2"/>
<circle clip-path="url(#clip062)" cx="2292.47" cy="182.581" r="14.4" fill="#009af9" fill-rule="evenodd" fill-opacity="1" stroke="#000000" stroke-opacity="1" stroke-width="3.2"/>
<polyline clip-path="url(#clip062)" style="stroke:#e26f46; stroke-linecap:round; stroke-linejoin:round; stroke-width:4; stroke-opacity:1; fill:none" points="282.975,1372.3 534.162,1254.44 785.349,1135.52 1036.54,1016.32 1287.72,897.066 1538.91,777.79 1790.1,658.51 2041.28,539.229 2292.47,419.947 "/>
<path clip-path="url(#clip062)" d="M266.975 1356.3 L266.975 1388.3 L298.975 1388.3 L298.975 1356.3 L266.975 1356.3 Z" fill="#e26f46" fill-rule="evenodd" fill-opacity="1" stroke="#000000" stroke-opacity="1" stroke-width="3.2"/>
<path clip-path="url(#clip062)" d="M518.162 1238.44 L518.162 1270.44 L550.162 1270.44 L550.162 1238.44 L518.162 1238.44 Z" fill="#e26f46" fill-rule="evenodd" fill-opacity="1" stroke="#000000" stroke-opacity="1" stroke-width="3.2"/>
<path clip-path="url(#clip062)" d="M769.349 1119.52 L769.349 1151.52 L801.349 1151.52 L801.349 1119.52 L769.349 1119.52 Z" fill="#e26f46" fill-rule="evenodd" fill-opacity="1" stroke="#000000" stroke-opacity="1" stroke-width="3.2"/>
<path clip-path="url(#clip062)" d="M1020.54 1000.32 L1020.54 1032.32 L1052.54 1032.32 L1052.54 1000.32 L1020.54 1000.32 Z" fill="#e26f46" fill-rule="evenodd" fill-opacity="1" stroke="#000000" stroke-opacity="1" stroke-width="3.2"/>
<path clip-path="url(#clip062)" d="M1271.72 881.066 L1271.72 913.066 L1303.72 913.066 L1303.72 881.066 L1271.72 881.066 Z" fill="#e26f46" fill-rule="evenodd" fill-opacity="1" stroke="#000000" stroke-opacity="1" stroke-width="3.2"/>
<path clip-path="url(#clip062)" d="M1522.91 761.79 L1522.91 793.79 L1554.91 793.79 L1554.91 761.79 L1522.91 761.79 Z" fill="#e26f46" fill-rule="evenodd" fill-opacity="1" stroke="#000000" stroke-opacity="1" stroke-width="3.2"/>
<path clip-path="url(#clip062)" d="M1774.1 642.51 L1774.1 674.51 L1806.1 674.51 L1806.1 642.51 L1774.1 642.51 Z" fill="#e26f46" fill-rule="evenodd" fill-opacity="1" stroke="#000000" stroke-opacity="1" stroke-width="3.2"/>
<path clip-path="url(#clip062)" d="M2025.28 523.229 L2025.28 555.229 L2057.28 555.229 L2057.28 523.229 L2025.28 523.229 Z" fill="#e26f46" fill-rule="evenodd" fill-opacity="1" stroke="#000000" stroke-opacity="1" stroke-width="3.2"/>
<path clip-path="url(#clip062)" d="M2276.47 403.947 L2276.47 435.947 L2308.47 435.947 L2308.47 403.947 L2276.47 403.947 Z" fill="#e26f46" fill-rule="evenodd" fill-opacity="1" stroke="#000000" stroke-opacity="1" stroke-width="3.2"/>
<polyline clip-path="url(#clip062)" style="stroke:#3da44d; stroke-linecap:round; stroke-linejoin:round; stroke-width:4; stroke-opacity:1; fill:none" points="282.975,1038.65 534.162,920.541 785.349,801.437 1036.54,682.272 1287.72,562.986 1538.91,443.695 1790.1,324.407 2041.28,205.122 2292.47,85.838 "/>
<path clip-path="url(#clip062)" d="M282.975 1022.65 L266.975 1038.65 L282.975 1054.65 L298.975 1038.65 L282.975 1022.65 Z" fill="#3da44d" fill-rule="evenodd" fill-opacity="1" stroke="#000000" stroke-opacity="1" stroke-width="3.2"/>
<path clip-path="url(#clip062)" d="M534.162 904.541 L518.162 920.541 L534.162 936.541 L550.162 920.541 L534.162 904.541 Z" fill="#3da44d" fill-rule="evenodd" fill-opacity="1" stroke="#000000" stroke-opacity="1" stroke-width="3.2"/>
<path clip-path="url(#clip062)" d="M785.349 785.437 L769.349 801.437 L785.349 817.437 L801.349 801.437 L785.349 785.437 Z" fill="#3da44d" fill-rule="evenodd" fill-opacity="1" stroke="#000000" stroke-opacity="1" stroke-width="3.2"/>
<path clip-path="url(#clip062)" d="M1036.54 666.272 L1020.54 682.272 L1036.54 698.272 L1052.54 682.272 L1036.54 666.272 Z" fill="#3da44d" fill-rule="evenodd" fill-opacity="1" stroke="#000000" stroke-opacity="1" stroke-width="3.2"/>
<path clip-path="url(#clip062)" d="M1287.72 546.986 L1271.72 562.986 L1287.72 578.986 L1303.72 562.986 L1287.72 546.986 Z" fill="#3da44d" fill-rule="evenodd" fill-opacity="1" stroke="#000000" stroke-opacity="1" stroke-width="3.2"/>
<path clip-path="url(#clip062)" d="M1538.91 427.695 L1522.91 443.695 L1538.91 459.695 L1554.91 443.695 L1538.91 427.695 Z" fill="#3da44d" fill-rule="evenodd" fill-opacity="1" stroke="#000000" stroke-opacity="1" stroke-width="3.2"/>
<path clip-path="url(#clip062)" d="M1790.1 308.407 L1774.1 324.407 L1790.1 340.407 L1806.1 324.407 L1790.1 308.407 Z" fill="#3da44d" fill-rule="evenodd" fill-opacity="1" stroke="#000000" stroke-opacity="1" stroke-width="3.2"/>
<path clip-path="url(#clip062)" d="M2041.28 189.122 L2025.28 205.122 L2041.28 221.122 L2057.28 205.122 L2041.28 189.122 Z" fill="#3da44d" fill-rule="evenodd" fill-opacity="1" stroke="#000000" stroke-opacity="1" stroke-width="3.2"/>
<path clip-path="url(#clip062)" d="M2292.47 69.838 L2276.47 85.838 L2292.47 101.838 L2308.47 85.838 L2292.47 69.838 Z" fill="#3da44d" fill-rule="evenodd" fill-opacity="1" stroke="#000000" stroke-opacity="1" stroke-width="3.2"/>
<path clip-path="url(#clip060)" d="M293.693 300.059 L952.275 300.059 L952.275 92.6992 L293.693 92.6992  Z" fill="#ffffff" fill-rule="evenodd" fill-opacity="1"/>
<polyline clip-path="url(#clip060)" style="stroke:#000000; stroke-linecap:round; stroke-linejoin:round; stroke-width:4; stroke-opacity:1; fill:none" points="293.693,300.059 952.275,300.059 952.275,92.6992 293.693,92.6992 293.693,300.059 "/>
<polyline clip-path="url(#clip060)" style="stroke:#009af9; stroke-linecap:round; stroke-linejoin:round; stroke-width:4; stroke-opacity:1; fill:none" points="317.36,144.539 459.364,144.539 "/>
<circle clip-path="url(#clip060)" cx="388.362" cy="144.539" r="19.7228" fill="#009af9" fill-rule="evenodd" fill-opacity="1" stroke="#000000" stroke-opacity="1" stroke-width="4.55111"/>
<path clip-path="url(#clip060)" d="M503.379 140.87 Q504.976 138 507.198 136.634 Q509.42 135.268 512.43 135.268 Q516.481 135.268 518.68 138.116 Q520.879 140.94 520.879 146.171 L520.879 161.819 L516.596 161.819 L516.596 146.31 Q516.596 142.583 515.277 140.778 Q513.957 138.972 511.249 138.972 Q507.939 138.972 506.018 141.171 Q504.096 143.37 504.096 147.166 L504.096 161.819 L499.814 161.819 L499.814 146.31 Q499.814 142.56 498.495 140.778 Q497.175 138.972 494.421 138.972 Q491.157 138.972 489.235 141.194 Q487.314 143.393 487.314 147.166 L487.314 161.819 L483.032 161.819 L483.032 135.893 L487.314 135.893 L487.314 139.921 Q488.772 137.537 490.809 136.403 Q492.846 135.268 495.647 135.268 Q498.471 135.268 500.439 136.704 Q502.43 138.139 503.379 140.87 Z" fill="#000000" fill-rule="nonzero" fill-opacity="1" /><path clip-path="url(#clip060)" d="M529.374 135.893 L533.633 135.893 L533.633 161.819 L529.374 161.819 L529.374 135.893 M529.374 125.801 L533.633 125.801 L533.633 131.194 L529.374 131.194 L529.374 125.801 Z" fill="#000000" fill-rule="nonzero" fill-opacity="1" /><path clip-path="url(#clip060)" d="M564.096 146.171 L564.096 161.819 L559.837 161.819 L559.837 146.31 Q559.837 142.629 558.402 140.801 Q556.966 138.972 554.096 138.972 Q550.647 138.972 548.656 141.171 Q546.666 143.37 546.666 147.166 L546.666 161.819 L542.383 161.819 L542.383 135.893 L546.666 135.893 L546.666 139.921 Q548.193 137.583 550.254 136.426 Q552.337 135.268 555.045 135.268 Q559.513 135.268 561.804 138.046 Q564.096 140.801 564.096 146.171 Z" fill="#000000" fill-rule="nonzero" fill-opacity="1" /><path clip-path="url(#clip060)" d="M572.591 135.893 L576.851 135.893 L576.851 161.819 L572.591 161.819 L572.591 135.893 M572.591 125.801 L576.851 125.801 L576.851 131.194 L572.591 131.194 L572.591 125.801 Z" fill="#000000" fill-rule="nonzero" fill-opacity="1" /><path clip-path="url(#clip060)" d="M605.948 140.87 Q607.545 138 609.767 136.634 Q611.989 135.268 614.999 135.268 Q619.049 135.268 621.249 138.116 Q623.448 140.94 623.448 146.171 L623.448 161.819 L619.165 161.819 L619.165 146.31 Q619.165 142.583 617.846 140.778 Q616.526 138.972 613.818 138.972 Q610.508 138.972 608.587 141.171 Q606.665 143.37 606.665 147.166 L606.665 161.819 L602.383 161.819 L602.383 146.31 Q602.383 142.56 601.063 140.778 Q599.744 138.972 596.989 138.972 Q593.726 138.972 591.804 141.194 Q589.883 143.393 589.883 147.166 L589.883 161.819 L585.601 161.819 L585.601 135.893 L589.883 135.893 L589.883 139.921 Q591.341 137.537 593.378 136.403 Q595.415 135.268 598.216 135.268 Q601.04 135.268 603.008 136.704 Q604.999 138.139 605.948 140.87 Z" fill="#000000" fill-rule="nonzero" fill-opacity="1" /><path clip-path="url(#clip060)" d="M631.503 151.588 L631.503 135.893 L635.762 135.893 L635.762 151.426 Q635.762 155.106 637.198 156.958 Q638.633 158.787 641.503 158.787 Q644.952 158.787 646.943 156.588 Q648.957 154.389 648.957 150.592 L648.957 135.893 L653.216 135.893 L653.216 161.819 L648.957 161.819 L648.957 157.838 Q647.406 160.199 645.346 161.356 Q643.309 162.49 640.6 162.49 Q636.133 162.49 633.818 159.713 Q631.503 156.935 631.503 151.588 M642.221 135.268 L642.221 135.268 Z" fill="#000000" fill-rule="nonzero" fill-opacity="1" /><path clip-path="url(#clip060)" d="M682.174 140.87 Q683.771 138 685.994 136.634 Q688.216 135.268 691.225 135.268 Q695.276 135.268 697.475 138.116 Q699.674 140.94 699.674 146.171 L699.674 161.819 L695.392 161.819 L695.392 146.31 Q695.392 142.583 694.072 140.778 Q692.753 138.972 690.044 138.972 Q686.734 138.972 684.813 141.171 Q682.892 143.37 682.892 147.166 L682.892 161.819 L678.609 161.819 L678.609 146.31 Q678.609 142.56 677.29 140.778 Q675.97 138.972 673.216 138.972 Q669.952 138.972 668.031 141.194 Q666.109 143.393 666.109 147.166 L666.109 161.819 L661.827 161.819 L661.827 135.893 L666.109 135.893 L666.109 139.921 Q667.568 137.537 669.605 136.403 Q671.642 135.268 674.443 135.268 Q677.267 135.268 679.234 136.704 Q681.225 138.139 682.174 140.87 Z" fill="#000000" fill-rule="nonzero" fill-opacity="1" /><path clip-path="url(#clip060)" d="M727.452 128.532 L727.452 135.893 L736.225 135.893 L736.225 139.204 L727.452 139.204 L727.452 153.278 Q727.452 156.449 728.308 157.352 Q729.188 158.254 731.85 158.254 L736.225 158.254 L736.225 161.819 L731.85 161.819 Q726.919 161.819 725.044 159.99 Q723.169 158.139 723.169 153.278 L723.169 139.204 L720.044 139.204 L720.044 135.893 L723.169 135.893 L723.169 128.532 L727.452 128.532 Z" fill="#000000" fill-rule="nonzero" fill-opacity="1" /><path clip-path="url(#clip060)" d="M741.827 135.893 L746.086 135.893 L746.086 161.819 L741.827 161.819 L741.827 135.893 M741.827 125.801 L746.086 125.801 L746.086 131.194 L741.827 131.194 L741.827 125.801 Z" fill="#000000" fill-rule="nonzero" fill-opacity="1" /><path clip-path="url(#clip060)" d="M775.183 140.87 Q776.78 138 779.002 136.634 Q781.225 135.268 784.234 135.268 Q788.285 135.268 790.484 138.116 Q792.683 140.94 792.683 146.171 L792.683 161.819 L788.4 161.819 L788.4 146.31 Q788.4 142.583 787.081 140.778 Q785.762 138.972 783.053 138.972 Q779.743 138.972 777.822 141.171 Q775.9 143.37 775.9 147.166 L775.9 161.819 L771.618 161.819 L771.618 146.31 Q771.618 142.56 770.299 140.778 Q768.979 138.972 766.225 138.972 Q762.961 138.972 761.039 141.194 Q759.118 143.393 759.118 147.166 L759.118 161.819 L754.836 161.819 L754.836 135.893 L759.118 135.893 L759.118 139.921 Q760.576 137.537 762.614 136.403 Q764.651 135.268 767.451 135.268 Q770.276 135.268 772.243 136.704 Q774.234 138.139 775.183 140.87 Z" fill="#000000" fill-rule="nonzero" fill-opacity="1" /><path clip-path="url(#clip060)" d="M823.354 147.791 L823.354 149.875 L803.771 149.875 Q804.048 154.273 806.41 156.588 Q808.794 158.879 813.03 158.879 Q815.484 158.879 817.775 158.278 Q820.09 157.676 822.359 156.472 L822.359 160.5 Q820.067 161.472 817.66 161.981 Q815.252 162.49 812.775 162.49 Q806.572 162.49 802.937 158.879 Q799.326 155.268 799.326 149.111 Q799.326 142.745 802.752 139.018 Q806.201 135.268 812.035 135.268 Q817.266 135.268 820.298 138.648 Q823.354 142.004 823.354 147.791 M819.095 146.541 Q819.048 143.046 817.127 140.963 Q815.229 138.879 812.081 138.879 Q808.516 138.879 806.363 140.893 Q804.234 142.907 803.91 146.565 L819.095 146.541 Z" fill="#000000" fill-rule="nonzero" fill-opacity="1" /><path clip-path="url(#clip060)" d="M855.645 125.847 Q852.544 131.171 851.039 136.38 Q849.534 141.588 849.534 146.935 Q849.534 152.282 851.039 157.537 Q852.567 162.768 855.645 168.069 L851.942 168.069 Q848.47 162.629 846.733 157.375 Q845.02 152.12 845.02 146.935 Q845.02 141.773 846.733 136.542 Q848.446 131.31 851.942 125.847 L855.645 125.847 Z" fill="#000000" fill-rule="nonzero" fill-opacity="1" /><path clip-path="url(#clip060)" d="M885.46 146.171 L885.46 161.819 L881.201 161.819 L881.201 146.31 Q881.201 142.629 879.766 140.801 Q878.33 138.972 875.46 138.972 Q872.011 138.972 870.02 141.171 Q868.03 143.37 868.03 147.166 L868.03 161.819 L863.747 161.819 L863.747 135.893 L868.03 135.893 L868.03 139.921 Q869.557 137.583 871.618 136.426 Q873.701 135.268 876.409 135.268 Q880.877 135.268 883.168 138.046 Q885.46 140.801 885.46 146.171 Z" fill="#000000" fill-rule="nonzero" fill-opacity="1" /><path clip-path="url(#clip060)" d="M910.483 136.657 L910.483 140.685 Q908.678 139.759 906.733 139.296 Q904.789 138.833 902.705 138.833 Q899.534 138.833 897.937 139.805 Q896.363 140.778 896.363 142.722 Q896.363 144.204 897.497 145.06 Q898.631 145.893 902.057 146.657 L903.516 146.981 Q908.053 147.954 909.951 149.736 Q911.872 151.495 911.872 154.666 Q911.872 158.278 909.002 160.384 Q906.154 162.49 901.154 162.49 Q899.071 162.49 896.803 162.074 Q894.557 161.68 892.057 160.87 L892.057 156.472 Q894.418 157.699 896.71 158.324 Q899.002 158.926 901.247 158.926 Q904.256 158.926 905.877 157.907 Q907.497 156.866 907.497 154.991 Q907.497 153.254 906.316 152.328 Q905.159 151.403 901.201 150.546 L899.719 150.199 Q895.761 149.366 894.002 147.653 Q892.242 145.916 892.242 142.907 Q892.242 139.25 894.835 137.259 Q897.428 135.268 902.196 135.268 Q904.557 135.268 906.641 135.616 Q908.724 135.963 910.483 136.657 Z" fill="#000000" fill-rule="nonzero" fill-opacity="1" /><path clip-path="url(#clip060)" d="M917.983 125.847 L921.687 125.847 Q925.159 131.31 926.872 136.542 Q928.608 141.773 928.608 146.935 Q928.608 152.12 926.872 157.375 Q925.159 162.629 921.687 168.069 L917.983 168.069 Q921.062 162.768 922.566 157.537 Q924.094 152.282 924.094 146.935 Q924.094 141.588 922.566 136.38 Q921.062 131.171 917.983 125.847 Z" fill="#000000" fill-rule="nonzero" fill-opacity="1" /><polyline clip-path="url(#clip060)" style="stroke:#e26f46; stroke-linecap:round; stroke-linejoin:round; stroke-width:4; stroke-opacity:1; fill:none" points="317.36,196.379 459.364,196.379 "/>
<path clip-path="url(#clip060)" d="M366.448 174.465 L366.448 218.293 L410.276 218.293 L410.276 174.465 L366.448 174.465 Z" fill="#e26f46" fill-rule="evenodd" fill-opacity="1" stroke="#000000" stroke-opacity="1" stroke-width="4.55111"/>
<path clip-path="url(#clip060)" d="M496.434 200.627 Q491.272 200.627 489.282 201.807 Q487.291 202.988 487.291 205.835 Q487.291 208.104 488.772 209.446 Q490.277 210.766 492.846 210.766 Q496.388 210.766 498.518 208.266 Q500.67 205.743 500.67 201.576 L500.67 200.627 L496.434 200.627 M504.93 198.868 L504.93 213.659 L500.67 213.659 L500.67 209.724 Q499.212 212.085 497.036 213.219 Q494.86 214.33 491.712 214.33 Q487.731 214.33 485.37 212.108 Q483.032 209.863 483.032 206.113 Q483.032 201.738 485.948 199.516 Q488.888 197.294 494.698 197.294 L500.67 197.294 L500.67 196.877 Q500.67 193.937 498.726 192.34 Q496.805 190.719 493.309 190.719 Q491.087 190.719 488.981 191.252 Q486.874 191.784 484.93 192.849 L484.93 188.914 Q487.268 188.011 489.467 187.571 Q491.666 187.108 493.749 187.108 Q499.374 187.108 502.152 190.025 Q504.93 192.942 504.93 198.868 Z" fill="#000000" fill-rule="nonzero" fill-opacity="1" /><path clip-path="url(#clip060)" d="M513.703 177.641 L517.962 177.641 L517.962 213.659 L513.703 213.659 L513.703 177.641 Z" fill="#000000" fill-rule="nonzero" fill-opacity="1" /><path clip-path="url(#clip060)" d="M526.874 177.641 L531.133 177.641 L531.133 213.659 L526.874 213.659 L526.874 177.641 Z" fill="#000000" fill-rule="nonzero" fill-opacity="1" /><path clip-path="url(#clip060)" d="M550.091 190.719 Q546.666 190.719 544.675 193.405 Q542.684 196.067 542.684 200.719 Q542.684 205.372 544.652 208.057 Q546.642 210.719 550.091 210.719 Q553.494 210.719 555.485 208.034 Q557.476 205.349 557.476 200.719 Q557.476 196.113 555.485 193.428 Q553.494 190.719 550.091 190.719 M550.091 187.108 Q555.647 187.108 558.818 190.719 Q561.99 194.331 561.99 200.719 Q561.99 207.085 558.818 210.719 Q555.647 214.33 550.091 214.33 Q544.513 214.33 541.342 210.719 Q538.193 207.085 538.193 200.719 Q538.193 194.331 541.342 190.719 Q544.513 187.108 550.091 187.108 Z" fill="#000000" fill-rule="nonzero" fill-opacity="1" /><path clip-path="url(#clip060)" d="M587.707 188.729 L587.707 192.71 Q585.901 191.715 584.073 191.229 Q582.267 190.719 580.415 190.719 Q576.272 190.719 573.98 193.358 Q571.689 195.974 571.689 200.719 Q571.689 205.465 573.98 208.104 Q576.272 210.719 580.415 210.719 Q582.267 210.719 584.073 210.233 Q585.901 209.724 587.707 208.729 L587.707 212.664 Q585.925 213.497 584.003 213.914 Q582.105 214.33 579.952 214.33 Q574.096 214.33 570.647 210.65 Q567.198 206.969 567.198 200.719 Q567.198 194.377 570.67 190.743 Q574.165 187.108 580.23 187.108 Q582.198 187.108 584.073 187.525 Q585.948 187.919 587.707 188.729 Z" fill="#000000" fill-rule="nonzero" fill-opacity="1" /><path clip-path="url(#clip060)" d="M611.642 188.497 L611.642 192.525 Q609.837 191.599 607.892 191.136 Q605.948 190.673 603.864 190.673 Q600.693 190.673 599.096 191.645 Q597.522 192.618 597.522 194.562 Q597.522 196.044 598.656 196.9 Q599.79 197.733 603.216 198.497 L604.675 198.821 Q609.212 199.794 611.11 201.576 Q613.031 203.335 613.031 206.506 Q613.031 210.118 610.161 212.224 Q607.313 214.33 602.313 214.33 Q600.23 214.33 597.962 213.914 Q595.716 213.52 593.216 212.71 L593.216 208.312 Q595.577 209.539 597.869 210.164 Q600.161 210.766 602.406 210.766 Q605.415 210.766 607.036 209.747 Q608.656 208.706 608.656 206.831 Q608.656 205.094 607.475 204.168 Q606.318 203.243 602.36 202.386 L600.878 202.039 Q596.92 201.206 595.161 199.493 Q593.401 197.756 593.401 194.747 Q593.401 191.09 595.994 189.099 Q598.587 187.108 603.355 187.108 Q605.716 187.108 607.8 187.456 Q609.883 187.803 611.642 188.497 Z" fill="#000000" fill-rule="nonzero" fill-opacity="1" /><polyline clip-path="url(#clip060)" style="stroke:#3da44d; stroke-linecap:round; stroke-linejoin:round; stroke-width:4; stroke-opacity:1; fill:none" points="317.36,248.219 459.364,248.219 "/>
<path clip-path="url(#clip060)" d="M388.362 226.305 L366.448 248.219 L388.362 270.133 L410.276 248.219 L388.362 226.305 Z" fill="#3da44d" fill-rule="evenodd" fill-opacity="1" stroke="#000000" stroke-opacity="1" stroke-width="4.55111"/>
<path clip-path="url(#clip060)" d="M503.379 244.55 Q504.976 241.68 507.198 240.314 Q509.42 238.948 512.43 238.948 Q516.481 238.948 518.68 241.796 Q520.879 244.62 520.879 249.851 L520.879 265.499 L516.596 265.499 L516.596 249.99 Q516.596 246.263 515.277 244.458 Q513.957 242.652 511.249 242.652 Q507.939 242.652 506.018 244.851 Q504.096 247.05 504.096 250.846 L504.096 265.499 L499.814 265.499 L499.814 249.99 Q499.814 246.24 498.495 244.458 Q497.175 242.652 494.421 242.652 Q491.157 242.652 489.235 244.874 Q487.314 247.073 487.314 250.846 L487.314 265.499 L483.032 265.499 L483.032 239.573 L487.314 239.573 L487.314 243.601 Q488.772 241.217 490.809 240.083 Q492.846 238.948 495.647 238.948 Q498.471 238.948 500.439 240.384 Q502.43 241.819 503.379 244.55 Z" fill="#000000" fill-rule="nonzero" fill-opacity="1" /><path clip-path="url(#clip060)" d="M551.55 251.471 L551.55 253.555 L531.967 253.555 Q532.244 257.953 534.605 260.268 Q536.99 262.559 541.226 262.559 Q543.679 262.559 545.971 261.958 Q548.286 261.356 550.554 260.152 L550.554 264.18 Q548.263 265.152 545.855 265.661 Q543.448 266.17 540.971 266.17 Q534.768 266.17 531.133 262.559 Q527.522 258.948 527.522 252.791 Q527.522 246.425 530.948 242.698 Q534.397 238.948 540.23 238.948 Q545.462 238.948 548.494 242.328 Q551.55 245.684 551.55 251.471 M547.291 250.221 Q547.244 246.726 545.323 244.643 Q543.425 242.559 540.277 242.559 Q536.712 242.559 534.559 244.573 Q532.43 246.587 532.105 250.245 L547.291 250.221 Z" fill="#000000" fill-rule="nonzero" fill-opacity="1" /><path clip-path="url(#clip060)" d="M578.726 244.55 Q580.323 241.68 582.545 240.314 Q584.767 238.948 587.776 238.948 Q591.827 238.948 594.026 241.796 Q596.226 244.62 596.226 249.851 L596.226 265.499 L591.943 265.499 L591.943 249.99 Q591.943 246.263 590.624 244.458 Q589.304 242.652 586.596 242.652 Q583.286 242.652 581.364 244.851 Q579.443 247.05 579.443 250.846 L579.443 265.499 L575.161 265.499 L575.161 249.99 Q575.161 246.24 573.841 244.458 Q572.522 242.652 569.767 242.652 Q566.503 242.652 564.582 244.874 Q562.661 247.073 562.661 250.846 L562.661 265.499 L558.378 265.499 L558.378 239.573 L562.661 239.573 L562.661 243.601 Q564.119 241.217 566.156 240.083 Q568.193 238.948 570.994 238.948 Q573.818 238.948 575.786 240.384 Q577.777 241.819 578.726 244.55 Z" fill="#000000" fill-rule="nonzero" fill-opacity="1" /><path clip-path="url(#clip060)" d="M614.767 242.559 Q611.341 242.559 609.35 245.245 Q607.36 247.907 607.36 252.559 Q607.36 257.212 609.327 259.897 Q611.318 262.559 614.767 262.559 Q618.17 262.559 620.161 259.874 Q622.151 257.189 622.151 252.559 Q622.151 247.953 620.161 245.268 Q618.17 242.559 614.767 242.559 M614.767 238.948 Q620.323 238.948 623.494 242.559 Q626.665 246.171 626.665 252.559 Q626.665 258.925 623.494 262.559 Q620.323 266.17 614.767 266.17 Q609.188 266.17 606.017 262.559 Q602.869 258.925 602.869 252.559 Q602.869 246.171 606.017 242.559 Q609.188 238.948 614.767 238.948 Z" fill="#000000" fill-rule="nonzero" fill-opacity="1" /><path clip-path="url(#clip060)" d="M648.748 243.555 Q648.031 243.138 647.174 242.953 Q646.341 242.745 645.322 242.745 Q641.711 242.745 639.767 245.106 Q637.846 247.444 637.846 251.842 L637.846 265.499 L633.563 265.499 L633.563 239.573 L637.846 239.573 L637.846 243.601 Q639.188 241.24 641.341 240.106 Q643.494 238.948 646.572 238.948 Q647.012 238.948 647.545 239.018 Q648.077 239.064 648.725 239.18 L648.748 243.555 Z" fill="#000000" fill-rule="nonzero" fill-opacity="1" /><path clip-path="url(#clip060)" d="M664.003 267.907 Q662.197 272.536 660.484 273.948 Q658.771 275.36 655.901 275.36 L652.498 275.36 L652.498 271.795 L654.998 271.795 Q656.758 271.795 657.73 270.962 Q658.702 270.129 659.883 267.027 L660.646 265.083 L650.16 239.573 L654.674 239.573 L662.776 259.851 L670.878 239.573 L675.392 239.573 L664.003 267.907 Z" fill="#000000" fill-rule="nonzero" fill-opacity="1" /><path clip-path="url(#clip060)" d="M706.572 229.527 Q703.47 234.851 701.966 240.06 Q700.461 245.268 700.461 250.615 Q700.461 255.962 701.966 261.217 Q703.493 266.448 706.572 271.749 L702.868 271.749 Q699.396 266.309 697.66 261.055 Q695.947 255.8 695.947 250.615 Q695.947 245.453 697.66 240.222 Q699.373 234.99 702.868 229.527 L706.572 229.527 Z" fill="#000000" fill-rule="nonzero" fill-opacity="1" /><path clip-path="url(#clip060)" d="M733.447 252.559 Q733.447 247.86 731.503 245.198 Q729.581 242.513 726.202 242.513 Q722.822 242.513 720.878 245.198 Q718.956 247.86 718.956 252.559 Q718.956 257.258 720.878 259.944 Q722.822 262.606 726.202 262.606 Q729.581 262.606 731.503 259.944 Q733.447 257.258 733.447 252.559 M718.956 243.509 Q720.299 241.194 722.336 240.083 Q724.396 238.948 727.243 238.948 Q731.966 238.948 734.905 242.698 Q737.868 246.448 737.868 252.559 Q737.868 258.671 734.905 262.42 Q731.966 266.17 727.243 266.17 Q724.396 266.17 722.336 265.059 Q720.299 263.925 718.956 261.61 L718.956 265.499 L714.674 265.499 L714.674 229.481 L718.956 229.481 L718.956 243.509 Z" fill="#000000" fill-rule="nonzero" fill-opacity="1" /><path clip-path="url(#clip060)" d="M755.715 267.907 Q753.91 272.536 752.197 273.948 Q750.484 275.36 747.614 275.36 L744.211 275.36 L744.211 271.795 L746.711 271.795 Q748.47 271.795 749.442 270.962 Q750.415 270.129 751.595 267.027 L752.359 265.083 L741.873 239.573 L746.387 239.573 L754.489 259.851 L762.59 239.573 L767.104 239.573 L755.715 267.907 Z" fill="#000000" fill-rule="nonzero" fill-opacity="1" /><path clip-path="url(#clip060)" d="M777.197 232.212 L777.197 239.573 L785.97 239.573 L785.97 242.884 L777.197 242.884 L777.197 256.958 Q777.197 260.129 778.053 261.032 Q778.933 261.934 781.595 261.934 L785.97 261.934 L785.97 265.499 L781.595 265.499 Q776.664 265.499 774.789 263.67 Q772.914 261.819 772.914 256.958 L772.914 242.884 L769.789 242.884 L769.789 239.573 L772.914 239.573 L772.914 232.212 L777.197 232.212 Z" fill="#000000" fill-rule="nonzero" fill-opacity="1" /><path clip-path="url(#clip060)" d="M813.747 251.471 L813.747 253.555 L794.164 253.555 Q794.442 257.953 796.803 260.268 Q799.187 262.559 803.423 262.559 Q805.877 262.559 808.169 261.958 Q810.484 261.356 812.752 260.152 L812.752 264.18 Q810.46 265.152 808.053 265.661 Q805.646 266.17 803.169 266.17 Q796.965 266.17 793.331 262.559 Q789.72 258.948 789.72 252.791 Q789.72 246.425 793.146 242.698 Q796.595 238.948 802.428 238.948 Q807.66 238.948 810.692 242.328 Q813.747 245.684 813.747 251.471 M809.488 250.221 Q809.442 246.726 807.521 244.643 Q805.623 242.559 802.474 242.559 Q798.91 242.559 796.757 244.573 Q794.627 246.587 794.303 250.245 L809.488 250.221 Z" fill="#000000" fill-rule="nonzero" fill-opacity="1" /><path clip-path="url(#clip060)" d="M837.266 240.337 L837.266 244.365 Q835.46 243.439 833.516 242.976 Q831.571 242.513 829.488 242.513 Q826.317 242.513 824.72 243.485 Q823.146 244.458 823.146 246.402 Q823.146 247.884 824.28 248.74 Q825.414 249.573 828.84 250.337 L830.298 250.661 Q834.835 251.634 836.733 253.416 Q838.655 255.175 838.655 258.346 Q838.655 261.958 835.784 264.064 Q832.937 266.17 827.937 266.17 Q825.854 266.17 823.585 265.754 Q821.34 265.36 818.84 264.55 L818.84 260.152 Q821.201 261.379 823.493 262.004 Q825.784 262.606 828.03 262.606 Q831.039 262.606 832.659 261.587 Q834.28 260.546 834.28 258.671 Q834.28 256.934 833.099 256.008 Q831.942 255.083 827.984 254.226 L826.502 253.879 Q822.544 253.046 820.784 251.333 Q819.025 249.596 819.025 246.587 Q819.025 242.93 821.618 240.939 Q824.21 238.948 828.979 238.948 Q831.34 238.948 833.423 239.296 Q835.507 239.643 837.266 240.337 Z" fill="#000000" fill-rule="nonzero" fill-opacity="1" /><path clip-path="url(#clip060)" d="M844.766 229.527 L848.47 229.527 Q851.942 234.99 853.655 240.222 Q855.391 245.453 855.391 250.615 Q855.391 255.8 853.655 261.055 Q851.942 266.309 848.47 271.749 L844.766 271.749 Q847.845 266.448 849.349 261.217 Q850.877 255.962 850.877 250.615 Q850.877 245.268 849.349 240.06 Q847.845 234.851 844.766 229.527 Z" fill="#000000" fill-rule="nonzero" fill-opacity="1" /></svg>
