<?xml version="1.0" encoding="utf-8"?>
<svg xmlns="http://www.w3.org/2000/svg" xmlns:xlink="http://www.w3.org/1999/xlink" width="600" height="400" viewBox="0 0 2400 1600">
<defs>
  <clipPath id="clip970">
    <rect x="0" y="0" width="2400" height="1600"/>
  </clipPath>
</defs>
<path clip-path="url(#clip970)" d="M0 1600 L2400 1600 L2400 0 L0 0  Z" fill="#ffffff" fill-rule="evenodd" fill-opacity="1"/>
<defs>
  <clipPath id="clip971">
    <rect x="480" y="0" width="1681" height="1600"/>
  </clipPath>
</defs>
<path clip-path="url(#clip970)" d="M221.618 1410.9 L2352.76 1410.9 L2352.76 47.2441 L221.618 47.2441  Z" fill="#ffffff" fill-rule="evenodd" fill-opacity="1"/>
<defs>
  <clipPath id="clip972">
    <rect x="221" y="47" width="2132" height="1365"/>
  </clipPath>
</defs>
<polyline clip-path="url(#clip972)" style="stroke:#000000; stroke-linecap:round; stroke-linejoin:round; stroke-width:2; stroke-opacity:0.1; fill:none" points="614.152,1410.9 614.152,47.2441 "/>
<polyline clip-path="url(#clip972)" style="stroke:#000000; stroke-linecap:round; stroke-linejoin:round; stroke-width:2; stroke-opacity:0.1; fill:none" points="1031.57,1410.9 1031.57,47.2441 "/>
<polyline clip-path="url(#clip972)" style="stroke:#000000; stroke-linecap:round; stroke-linejoin:round; stroke-width:2; stroke-opacity:0.1; fill:none" points="1449,1410.9 1449,47.2441 "/>
<polyline clip-path="url(#clip972)" style="stroke:#000000; stroke-linecap:round; stroke-linejoin:round; stroke-width:2; stroke-opacity:0.1; fill:none" points="1866.42,1410.9 1866.42,47.2441 "/>
<polyline clip-path="url(#clip972)" style="stroke:#000000; stroke-linecap:round; stroke-linejoin:round; stroke-width:2; stroke-opacity:0.1; fill:none" points="2283.84,1410.9 2283.84,47.2441 "/>
<polyline clip-path="url(#clip970)" style="stroke:#000000; stroke-linecap:round; stroke-linejoin:round; stroke-width:4; stroke-opacity:1; fill:none" points="221.618,1410.9 2352.76,1410.9 "/>
<polyline clip-path="url(#clip970)" style="stroke:#000000; stroke-linecap:round; stroke-linejoin:round; stroke-width:4; stroke-opacity:1; fill:none" points="614.152,1410.9 614.152,1392 "/>
<polyline clip-path="url(#clip970)" style="stroke:#000000; stroke-linecap:round; stroke-linejoin:round; stroke-width:4; stroke-opacity:1; fill:none" points="1031.57,1410.9 1031.57,1392 "/>
<polyline clip-path="url(#clip970)" style="stroke:#000000; stroke-linecap:round; stroke-linejoin:round; stroke-width:4; stroke-opacity:1; fill:none" points="1449,1410.9 1449,1392 "/>
<polyline clip-path="url(#clip970)" style="stroke:#000000; stroke-linecap:round; stroke-linejoin:round; stroke-width:4; stroke-opacity:1; fill:none" points="1866.42,1410.9 1866.42,1392 "/>
<polyline clip-path="url(#clip970)" style="stroke:#000000; stroke-linecap:round; stroke-linejoin:round; stroke-width:4; stroke-opacity:1; fill:none" points="2283.84,1410.9 2283.84,1392 "/>
<path clip-path="url(#clip970)" d="M579.924 1485.02 L587.563 1485.02 L587.563 1458.66 L579.253 1460.32 L579.253 1456.06 L587.517 1454.4 L592.193 1454.4 L592.193 1485.02 L599.832 1485.02 L599.832 1488.96 L579.924 1488.96 L579.924 1485.02 Z" fill="#000000" fill-rule="nonzero" fill-opacity="1" /><path clip-path="url(#clip970)" d="M619.276 1457.48 Q615.665 1457.48 613.836 1461.04 Q612.031 1464.58 612.031 1471.71 Q612.031 1478.82 613.836 1482.38 Q615.665 1485.92 619.276 1485.92 Q622.91 1485.92 624.716 1482.38 Q626.545 1478.82 626.545 1471.71 Q626.545 1464.58 624.716 1461.04 Q622.91 1457.48 619.276 1457.48 M619.276 1453.77 Q625.086 1453.77 628.142 1458.38 Q631.221 1462.96 631.221 1471.71 Q631.221 1480.44 628.142 1485.04 Q625.086 1489.63 619.276 1489.63 Q613.466 1489.63 610.387 1485.04 Q607.332 1480.44 607.332 1471.71 Q607.332 1462.96 610.387 1458.38 Q613.466 1453.77 619.276 1453.77 Z" fill="#000000" fill-rule="nonzero" fill-opacity="1" /><path clip-path="url(#clip970)" d="M635.791 1458.35 L649.05 1458.35 L649.05 1461.55 L631.221 1461.55 L631.221 1458.35 Q633.383 1456.11 637.107 1452.35 Q640.85 1448.57 641.809 1447.48 Q643.634 1445.43 644.348 1444.02 Q645.082 1442.59 645.082 1441.22 Q645.082 1438.98 643.502 1437.57 Q641.941 1436.16 639.421 1436.16 Q637.634 1436.16 635.64 1436.78 Q633.666 1437.4 631.409 1438.66 L631.409 1434.82 Q633.703 1433.9 635.697 1433.43 Q637.69 1432.96 639.345 1432.96 Q643.709 1432.96 646.304 1435.14 Q648.9 1437.32 648.9 1440.97 Q648.9 1442.7 648.242 1444.26 Q647.602 1445.8 645.891 1447.91 Q645.42 1448.46 642.9 1451.07 Q640.38 1453.67 635.791 1458.35 Z" fill="#000000" fill-rule="nonzero" fill-opacity="1" /><path clip-path="url(#clip970)" d="M997.018 1485.02 L1004.66 1485.02 L1004.66 1458.66 L996.347 1460.32 L996.347 1456.06 L1004.61 1454.4 L1009.29 1454.4 L1009.29 1485.02 L1016.93 1485.02 L1016.93 1488.96 L997.018 1488.96 L997.018 1485.02 Z" fill="#000000" fill-rule="nonzero" fill-opacity="1" /><path clip-path="url(#clip970)" d="M1036.37 1457.48 Q1032.76 1457.48 1030.93 1461.04 Q1029.12 1464.58 1029.12 1471.71 Q1029.12 1478.82 1030.93 1482.38 Q1032.76 1485.92 1036.37 1485.92 Q1040 1485.92 1041.81 1482.38 Q1043.64 1478.82 1043.64 1471.71 Q1043.64 1464.58 1041.81 1461.04 Q1040 1457.48 1036.37 1457.48 M1036.37 1453.77 Q1042.18 1453.77 1045.24 1458.38 Q1048.31 1462.96 1048.31 1471.71 Q1048.31 1480.44 1045.24 1485.04 Q1042.18 1489.63 1036.37 1489.63 Q1030.56 1489.63 1027.48 1485.04 Q1024.43 1480.44 1024.43 1471.71 Q1024.43 1462.96 1027.48 1458.38 Q1030.56 1453.77 1036.37 1453.77 Z" fill="#000000" fill-rule="nonzero" fill-opacity="1" /><path clip-path="url(#clip970)" d="M1061.01 1446.41 Q1063.74 1446.99 1065.26 1448.83 Q1066.8 1450.68 1066.8 1453.38 Q1066.8 1457.54 1063.94 1459.82 Q1061.08 1462.09 1055.82 1462.09 Q1054.05 1462.09 1052.17 1461.73 Q1050.31 1461.4 1048.31 1460.7 L1048.31 1457.03 Q1049.89 1457.95 1051.77 1458.42 Q1053.66 1458.89 1055.71 1458.89 Q1059.28 1458.89 1061.14 1457.48 Q1063.02 1456.07 1063.02 1453.38 Q1063.02 1450.9 1061.27 1449.51 Q1059.54 1448.1 1056.44 1448.1 L1053.17 1448.1 L1053.17 1444.98 L1056.59 1444.98 Q1059.39 1444.98 1060.88 1443.87 Q1062.36 1442.74 1062.36 1440.63 Q1062.36 1438.47 1060.82 1437.32 Q1059.3 1436.16 1056.44 1436.16 Q1054.88 1436.16 1053.09 1436.49 Q1051.3 1436.83 1049.16 1437.55 L1049.16 1434.16 Q1051.32 1433.56 1053.2 1433.26 Q1055.1 1432.96 1056.78 1432.96 Q1061.1 1432.96 1063.62 1434.93 Q1066.14 1436.89 1066.14 1440.24 Q1066.14 1442.57 1064.81 1444.19 Q1063.47 1445.79 1061.01 1446.41 Z" fill="#000000" fill-rule="nonzero" fill-opacity="1" /><path clip-path="url(#clip970)" d="M1413.45 1485.02 L1421.09 1485.02 L1421.09 1458.66 L1412.78 1460.32 L1412.78 1456.06 L1421.05 1454.4 L1425.72 1454.4 L1425.72 1485.02 L1433.36 1485.02 L1433.36 1488.96 L1413.45 1488.96 L1413.45 1485.02 Z" fill="#000000" fill-rule="nonzero" fill-opacity="1" /><path clip-path="url(#clip970)" d="M1452.8 1457.48 Q1449.19 1457.48 1447.36 1461.04 Q1445.56 1464.58 1445.56 1471.71 Q1445.56 1478.82 1447.36 1482.38 Q1449.19 1485.92 1452.8 1485.92 Q1456.44 1485.92 1458.24 1482.38 Q1460.07 1478.82 1460.07 1471.71 Q1460.07 1464.58 1458.24 1461.04 Q1456.44 1457.48 1452.8 1457.48 M1452.8 1453.77 Q1458.61 1453.77 1461.67 1458.38 Q1464.75 1462.96 1464.75 1471.71 Q1464.75 1480.44 1461.67 1485.04 Q1458.61 1489.63 1452.8 1489.63 Q1446.99 1489.63 1443.92 1485.04 Q1440.86 1480.44 1440.86 1471.71 Q1440.86 1462.96 1443.92 1458.38 Q1446.99 1453.77 1452.8 1453.77 Z" fill="#000000" fill-rule="nonzero" fill-opacity="1" /><path clip-path="url(#clip970)" d="M1477.43 1436.78 L1467.83 1451.77 L1477.43 1451.77 L1477.43 1436.78 M1476.43 1433.47 L1481.21 1433.47 L1481.21 1451.77 L1485.21 1451.77 L1485.21 1454.93 L1481.21 1454.93 L1481.21 1461.55 L1477.43 1461.55 L1477.43 1454.93 L1464.75 1454.93 L1464.75 1451.26 L1476.43 1433.47 Z" fill="#000000" fill-rule="nonzero" fill-opacity="1" /><path clip-path="url(#clip970)" d="M1832.02 1485.02 L1839.66 1485.02 L1839.66 1458.66 L1831.35 1460.32 L1831.35 1456.06 L1839.62 1454.4 L1844.29 1454.4 L1844.29 1485.02 L1851.93 1485.02 L1851.93 1488.96 L1832.02 1488.96 L1832.02 1485.02 Z" fill="#000000" fill-rule="nonzero" fill-opacity="1" /><path clip-path="url(#clip970)" d="M1871.37 1457.48 Q1867.76 1457.48 1865.93 1461.04 Q1864.13 1464.58 1864.13 1471.71 Q1864.13 1478.82 1865.93 1482.38 Q1867.76 1485.92 1871.37 1485.92 Q1875.01 1485.92 1876.81 1482.38 Q1878.64 1478.82 1878.64 1471.71 Q1878.64 1464.58 1876.81 1461.04 Q1875.01 1457.48 1871.37 1457.48 M1871.37 1453.77 Q1877.18 1453.77 1880.24 1458.38 Q1883.32 1462.96 1883.32 1471.71 Q1883.32 1480.44 1880.24 1485.04 Q1877.18 1489.63 1871.37 1489.63 Q1865.56 1489.63 1862.49 1485.04 Q1859.43 1480.44 1859.43 1471.71 Q1859.43 1462.96 1862.49 1458.38 Q1865.56 1453.77 1871.37 1453.77 Z" fill="#000000" fill-rule="nonzero" fill-opacity="1" /><path clip-path="url(#clip970)" d="M1884.5 1433.47 L1899.42 1433.47 L1899.42 1436.66 L1887.98 1436.66 L1887.98 1443.55 Q1888.81 1443.27 1889.64 1443.13 Q1890.47 1442.98 1891.29 1442.98 Q1896 1442.98 1898.74 1445.56 Q1901.49 1448.14 1901.49 1452.54 Q1901.49 1457.07 1898.67 1459.59 Q1895.84 1462.09 1890.71 1462.09 Q1888.94 1462.09 1887.1 1461.79 Q1885.27 1461.49 1883.32 1460.89 L1883.32 1457.07 Q1885.01 1457.99 1886.82 1458.44 Q1888.62 1458.89 1890.64 1458.89 Q1893.89 1458.89 1895.79 1457.18 Q1897.69 1455.47 1897.69 1452.54 Q1897.69 1449.6 1895.79 1447.89 Q1893.89 1446.18 1890.64 1446.18 Q1889.11 1446.18 1887.59 1446.52 Q1886.08 1446.86 1884.5 1447.57 L1884.5 1433.47 Z" fill="#000000" fill-rule="nonzero" fill-opacity="1" /><path clip-path="url(#clip970)" d="M2248.83 1485.02 L2256.47 1485.02 L2256.47 1458.66 L2248.16 1460.32 L2248.16 1456.06 L2256.43 1454.4 L2261.1 1454.4 L2261.1 1485.02 L2268.74 1485.02 L2268.74 1488.96 L2248.83 1488.96 L2248.83 1485.02 Z" fill="#000000" fill-rule="nonzero" fill-opacity="1" /><path clip-path="url(#clip970)" d="M2288.19 1457.48 Q2284.57 1457.48 2282.75 1461.04 Q2280.94 1464.58 2280.94 1471.71 Q2280.94 1478.82 2282.75 1482.38 Q2284.57 1485.92 2288.19 1485.92 Q2291.82 1485.92 2293.63 1482.38 Q2295.45 1478.82 2295.45 1471.71 Q2295.45 1464.58 2293.63 1461.04 Q2291.82 1457.48 2288.19 1457.48 M2288.19 1453.77 Q2294 1453.77 2297.05 1458.38 Q2300.13 1462.96 2300.13 1471.71 Q2300.13 1480.44 2297.05 1485.04 Q2294 1489.63 2288.19 1489.63 Q2282.38 1489.63 2279.3 1485.04 Q2276.24 1480.44 2276.24 1471.71 Q2276.24 1462.96 2279.3 1458.38 Q2282.38 1453.77 2288.19 1453.77 Z" fill="#000000" fill-rule="nonzero" fill-opacity="1" /><path clip-path="url(#clip970)" d="M2310.15 1445.99 Q2307.6 1445.99 2306.09 1447.74 Q2304.61 1449.49 2304.61 1452.54 Q2304.61 1455.57 2306.09 1457.33 Q2307.6 1459.08 2310.15 1459.08 Q2312.71 1459.08 2314.2 1457.33 Q2315.7 1455.57 2315.7 1452.54 Q2315.7 1449.49 2314.2 1447.74 Q2312.71 1445.99 2310.15 1445.99 M2317.7 1434.09 L2317.7 1437.55 Q2316.27 1436.87 2314.8 1436.51 Q2313.35 1436.16 2311.92 1436.16 Q2308.16 1436.16 2306.17 1438.69 Q2304.19 1441.23 2303.91 1446.37 Q2305.02 1444.73 2306.69 1443.87 Q2308.37 1442.98 2310.38 1442.98 Q2314.61 1442.98 2317.06 1445.56 Q2319.52 1448.12 2319.52 1452.54 Q2319.52 1456.86 2316.96 1459.48 Q2314.41 1462.09 2310.15 1462.09 Q2305.28 1462.09 2302.71 1458.37 Q2300.13 1454.62 2300.13 1447.53 Q2300.13 1440.88 2303.29 1436.93 Q2306.45 1432.96 2311.77 1432.96 Q2313.2 1432.96 2314.65 1433.24 Q2316.12 1433.52 2317.7 1434.09 Z" fill="#000000" fill-rule="nonzero" fill-opacity="1" /><path clip-path="url(#clip970)" d="M1141.86 1526.67 L1150.52 1526.67 L1171.59 1566.42 L1171.59 1526.67 L1177.82 1526.67 L1177.82 1574.19 L1169.17 1574.19 L1148.1 1534.43 L1148.1 1574.19 L1141.86 1574.19 L1141.86 1526.67 Z" fill="#000000" fill-rule="nonzero" fill-opacity="1" /><path clip-path="url(#clip970)" d="M1225.15 1524.72 Q1220.89 1532.04 1218.82 1539.21 Q1216.75 1546.37 1216.75 1553.72 Q1216.75 1561.07 1218.82 1568.3 Q1220.92 1575.49 1225.15 1582.78 L1220.06 1582.78 Q1215.29 1575.3 1212.9 1568.07 Q1210.54 1560.85 1210.54 1553.72 Q1210.54 1546.62 1212.9 1539.43 Q1215.25 1532.24 1220.06 1524.72 L1225.15 1524.72 Z" fill="#000000" fill-rule="nonzero" fill-opacity="1" /><path clip-path="url(#clip970)" d="M1236.52 1524.66 L1242.37 1524.66 L1242.37 1574.19 L1236.52 1574.19 L1236.52 1524.66 Z" fill="#000000" fill-rule="nonzero" fill-opacity="1" /><path clip-path="url(#clip970)" d="M1268.44 1542.64 Q1263.73 1542.64 1260.99 1546.34 Q1258.25 1550 1258.25 1556.39 Q1258.25 1562.79 1260.96 1566.48 Q1263.7 1570.14 1268.44 1570.14 Q1273.12 1570.14 1275.86 1566.45 Q1278.59 1562.76 1278.59 1556.39 Q1278.59 1550.06 1275.86 1546.37 Q1273.12 1542.64 1268.44 1542.64 M1268.44 1537.68 Q1276.08 1537.68 1280.44 1542.64 Q1284.8 1547.61 1284.8 1556.39 Q1284.8 1565.15 1280.44 1570.14 Q1276.08 1575.11 1268.44 1575.11 Q1260.77 1575.11 1256.41 1570.14 Q1252.08 1565.15 1252.08 1556.39 Q1252.08 1547.61 1256.41 1542.64 Q1260.77 1537.68 1268.44 1537.68 Z" fill="#000000" fill-rule="nonzero" fill-opacity="1" /><path clip-path="url(#clip970)" d="M1317.97 1555.95 Q1317.97 1549.58 1315.32 1546.08 Q1312.71 1542.58 1307.97 1542.58 Q1303.26 1542.58 1300.62 1546.08 Q1298.01 1549.58 1298.01 1555.95 Q1298.01 1562.28 1300.62 1565.78 Q1303.26 1569.28 1307.97 1569.28 Q1312.71 1569.28 1315.32 1565.78 Q1317.97 1562.28 1317.97 1555.95 M1323.82 1569.76 Q1323.82 1578.86 1319.78 1583.29 Q1315.74 1587.74 1307.4 1587.74 Q1304.31 1587.74 1301.57 1587.27 Q1298.84 1586.82 1296.26 1585.87 L1296.26 1580.17 Q1298.84 1581.57 1301.35 1582.24 Q1303.87 1582.91 1306.48 1582.91 Q1312.24 1582.91 1315.1 1579.88 Q1317.97 1576.89 1317.97 1570.81 L1317.97 1567.92 Q1316.15 1571.07 1313.32 1572.63 Q1310.49 1574.19 1306.54 1574.19 Q1299.98 1574.19 1295.97 1569.19 Q1291.96 1564.19 1291.96 1555.95 Q1291.96 1547.67 1295.97 1542.68 Q1299.98 1537.68 1306.54 1537.68 Q1310.49 1537.68 1313.32 1539.24 Q1316.15 1540.8 1317.97 1543.95 L1317.97 1538.54 L1323.82 1538.54 L1323.82 1569.76 Z" fill="#000000" fill-rule="nonzero" fill-opacity="1" /><path clip-path="url(#clip970)" d="M1337.83 1568.77 L1348.33 1568.77 L1348.33 1532.52 L1336.9 1534.81 L1336.9 1528.96 L1348.27 1526.67 L1354.7 1526.67 L1354.7 1568.77 L1365.2 1568.77 L1365.2 1574.19 L1337.83 1574.19 L1337.83 1568.77 Z" fill="#000000" fill-rule="nonzero" fill-opacity="1" /><path clip-path="url(#clip970)" d="M1391.93 1530.9 Q1386.97 1530.9 1384.46 1535.8 Q1381.97 1540.67 1381.97 1550.47 Q1381.97 1560.24 1384.46 1565.15 Q1386.97 1570.02 1391.93 1570.02 Q1396.93 1570.02 1399.41 1565.15 Q1401.93 1560.24 1401.93 1550.47 Q1401.93 1540.67 1399.41 1535.8 Q1396.93 1530.9 1391.93 1530.9 M1391.93 1525.81 Q1399.92 1525.81 1404.13 1532.14 Q1408.36 1538.44 1408.36 1550.47 Q1408.36 1562.47 1404.13 1568.81 Q1399.92 1575.11 1391.93 1575.11 Q1383.95 1575.11 1379.71 1568.81 Q1375.51 1562.47 1375.51 1550.47 Q1375.51 1538.44 1379.71 1532.14 Q1383.95 1525.81 1391.93 1525.81 Z" fill="#000000" fill-rule="nonzero" fill-opacity="1" /><path clip-path="url(#clip970)" d="M1417.91 1524.72 L1423 1524.72 Q1427.77 1532.24 1430.13 1539.43 Q1432.52 1546.62 1432.52 1553.72 Q1432.52 1560.85 1430.13 1568.07 Q1427.77 1575.3 1423 1582.78 L1417.91 1582.78 Q1422.14 1575.49 1424.21 1568.3 Q1426.31 1561.07 1426.31 1553.72 Q1426.31 1546.37 1424.21 1539.21 Q1422.14 1532.04 1417.91 1524.72 Z" fill="#000000" fill-rule="nonzero" fill-opacity="1" /><polyline clip-path="url(#clip972)" style="stroke:#000000; stroke-linecap:round; stroke-linejoin:round; stroke-width:2; stroke-opacity:0.1; fill:none" points="221.618,944.794 2352.76,944.794 "/>
<polyline clip-path="url(#clip972)" style="stroke:#000000; stroke-linecap:round; stroke-linejoin:round; stroke-width:2; stroke-opacity:0.1; fill:none" points="221.618,469.502 2352.76,469.502 "/>
<polyline clip-path="url(#clip970)" style="stroke:#000000; stroke-linecap:round; stroke-linejoin:round; stroke-width:4; stroke-opacity:1; fill:none" points="221.618,1410.9 221.618,47.2441 "/>
<polyline clip-path="url(#clip970)" style="stroke:#000000; stroke-linecap:round; stroke-linejoin:round; stroke-width:4; stroke-opacity:1; fill:none" points="221.618,944.794 240.516,944.794 "/>
<polyline clip-path="url(#clip970)" style="stroke:#000000; stroke-linecap:round; stroke-linejoin:round; stroke-width:4; stroke-opacity:1; fill:none" points="221.618,469.502 240.516,469.502 "/>
<path clip-path="url(#clip970)" d="M114.931 964.586 L122.57 964.586 L122.57 938.221 L114.26 939.887 L114.26 935.628 L122.524 933.962 L127.2 933.962 L127.2 964.586 L134.839 964.586 L134.839 968.522 L114.931 968.522 L114.931 964.586 Z" fill="#000000" fill-rule="nonzero" fill-opacity="1" /><path clip-path="url(#clip970)" d="M154.283 937.04 Q150.672 937.04 148.843 940.605 Q147.038 944.147 147.038 951.276 Q147.038 958.383 148.843 961.947 Q150.672 965.489 154.283 965.489 Q157.917 965.489 159.723 961.947 Q161.552 958.383 161.552 951.276 Q161.552 944.147 159.723 940.605 Q157.917 937.04 154.283 937.04 M154.283 933.337 Q160.093 933.337 163.149 937.943 Q166.227 942.526 166.227 951.276 Q166.227 960.003 163.149 964.61 Q160.093 969.193 154.283 969.193 Q148.473 969.193 145.394 964.61 Q142.339 960.003 142.339 951.276 Q142.339 942.526 145.394 937.943 Q148.473 933.337 154.283 933.337 Z" fill="#000000" fill-rule="nonzero" fill-opacity="1" /><path clip-path="url(#clip970)" d="M176.252 925.557 Q173.694 925.557 172.19 927.306 Q170.704 929.055 170.704 932.102 Q170.704 935.13 172.19 936.898 Q173.694 938.647 176.252 938.647 Q178.81 938.647 180.296 936.898 Q181.8 935.13 181.8 932.102 Q181.8 929.055 180.296 927.306 Q178.81 925.557 176.252 925.557 M183.794 913.652 L183.794 917.112 Q182.365 916.435 180.898 916.078 Q179.449 915.721 178.02 915.721 Q174.258 915.721 172.265 918.26 Q170.29 920.799 170.008 925.933 Q171.117 924.297 172.791 923.432 Q174.465 922.548 176.478 922.548 Q180.709 922.548 183.154 925.125 Q185.618 927.682 185.618 932.102 Q185.618 936.428 183.06 939.042 Q180.503 941.657 176.252 941.657 Q171.381 941.657 168.804 937.933 Q166.227 934.19 166.227 927.099 Q166.227 920.441 169.387 916.492 Q172.547 912.523 177.869 912.523 Q179.299 912.523 180.747 912.805 Q182.214 913.088 183.794 913.652 Z" fill="#000000" fill-rule="nonzero" fill-opacity="1" /><path clip-path="url(#clip970)" d="M115.063 489.294 L122.702 489.294 L122.702 462.929 L114.392 464.595 L114.392 460.336 L122.656 458.669 L127.332 458.669 L127.332 489.294 L134.97 489.294 L134.97 493.229 L115.063 493.229 L115.063 489.294 Z" fill="#000000" fill-rule="nonzero" fill-opacity="1" /><path clip-path="url(#clip970)" d="M154.415 461.748 Q150.804 461.748 148.975 465.313 Q147.169 468.855 147.169 475.984 Q147.169 483.091 148.975 486.655 Q150.804 490.197 154.415 490.197 Q158.049 490.197 159.855 486.655 Q161.683 483.091 161.683 475.984 Q161.683 468.855 159.855 465.313 Q158.049 461.748 154.415 461.748 M154.415 458.044 Q160.225 458.044 163.28 462.651 Q166.359 467.234 166.359 475.984 Q166.359 484.711 163.28 489.317 Q160.225 493.901 154.415 493.901 Q148.605 493.901 145.526 489.317 Q142.47 484.711 142.47 475.984 Q142.47 467.234 145.526 462.651 Q148.605 458.044 154.415 458.044 Z" fill="#000000" fill-rule="nonzero" fill-opacity="1" /><path clip-path="url(#clip970)" d="M175.989 452.484 Q173.28 452.484 171.719 453.933 Q170.177 455.381 170.177 457.92 Q170.177 460.459 171.719 461.907 Q173.28 463.355 175.989 463.355 Q178.697 463.355 180.258 461.907 Q181.819 460.44 181.819 457.92 Q181.819 455.381 180.258 453.933 Q178.716 452.484 175.989 452.484 M172.19 450.867 Q169.745 450.265 168.372 448.591 Q167.017 446.917 167.017 444.51 Q167.017 441.143 169.406 439.187 Q171.813 437.231 175.989 437.231 Q180.183 437.231 182.571 439.187 Q184.96 441.143 184.96 444.51 Q184.96 446.917 183.587 448.591 Q182.233 450.265 179.807 450.867 Q182.553 451.506 184.076 453.368 Q185.618 455.23 185.618 457.92 Q185.618 462.001 183.117 464.183 Q180.634 466.364 175.989 466.364 Q171.343 466.364 168.842 464.183 Q166.359 462.001 166.359 457.92 Q166.359 455.23 167.901 453.368 Q169.444 451.506 172.19 450.867 M170.798 444.867 Q170.798 447.049 172.152 448.271 Q173.525 449.494 175.989 449.494 Q178.434 449.494 179.807 448.271 Q181.198 447.049 181.198 444.867 Q181.198 442.685 179.807 441.463 Q178.434 440.24 175.989 440.24 Q173.525 440.24 172.152 441.463 Q170.798 442.685 170.798 444.867 Z" fill="#000000" fill-rule="nonzero" fill-opacity="1" /><path clip-path="url(#clip970)" d="M35.1993 1084.04 Q31.2526 1081.84 29.3747 1078.79 Q27.4968 1075.73 27.4968 1071.59 Q27.4968 1066.02 31.4117 1063 Q35.2948 1059.98 42.4881 1059.98 L64.0042 1059.98 L64.0042 1065.86 L42.679 1065.86 Q37.5546 1065.86 35.072 1067.68 Q32.5894 1069.49 32.5894 1073.22 Q32.5894 1077.77 35.6131 1080.41 Q38.6368 1083.05 43.8567 1083.05 L64.0042 1083.05 L64.0042 1088.94 L42.679 1088.94 Q37.5228 1088.94 35.072 1090.75 Q32.5894 1092.57 32.5894 1096.36 Q32.5894 1100.84 35.6449 1103.49 Q38.6686 1106.13 43.8567 1106.13 L64.0042 1106.13 L64.0042 1112.02 L28.3562 1112.02 L28.3562 1106.13 L33.8944 1106.13 Q30.616 1104.12 29.0564 1101.32 Q27.4968 1098.52 27.4968 1094.67 Q27.4968 1090.79 29.4702 1088.08 Q31.4436 1085.34 35.1993 1084.04 Z" fill="#000000" fill-rule="nonzero" fill-opacity="1" /><path clip-path="url(#clip970)" d="M44.7161 1017.8 L47.5806 1017.8 L47.5806 1044.73 Q53.6281 1044.35 56.8109 1041.1 Q59.9619 1037.82 59.9619 1032 Q59.9619 1028.62 59.1344 1025.47 Q58.3069 1022.29 56.6518 1019.17 L62.1899 1019.17 Q63.5267 1022.32 64.227 1025.63 Q64.9272 1028.94 64.9272 1032.35 Q64.9272 1040.88 59.9619 1045.88 Q54.9967 1050.84 46.5303 1050.84 Q37.7774 1050.84 32.6531 1046.13 Q27.4968 1041.39 27.4968 1033.37 Q27.4968 1026.17 32.1438 1022 Q36.7589 1017.8 44.7161 1017.8 M42.9973 1023.66 Q38.1912 1023.72 35.3266 1026.36 Q32.4621 1028.97 32.4621 1033.3 Q32.4621 1038.2 35.2312 1041.17 Q38.0002 1044.09 43.0292 1044.54 L42.9973 1023.66 Z" fill="#000000" fill-rule="nonzero" fill-opacity="1" /><path clip-path="url(#clip970)" d="M35.1993 980.436 Q31.2526 978.24 29.3747 975.185 Q27.4968 972.129 27.4968 967.991 Q27.4968 962.421 31.4117 959.398 Q35.2948 956.374 42.4881 956.374 L64.0042 956.374 L64.0042 962.262 L42.679 962.262 Q37.5546 962.262 35.072 964.076 Q32.5894 965.891 32.5894 969.615 Q32.5894 974.166 35.6131 976.808 Q38.6368 979.45 43.8567 979.45 L64.0042 979.45 L64.0042 985.338 L42.679 985.338 Q37.5228 985.338 35.072 987.152 Q32.5894 988.966 32.5894 992.754 Q32.5894 997.242 35.6449 999.883 Q38.6686 1002.53 43.8567 1002.53 L64.0042 1002.53 L64.0042 1008.41 L28.3562 1008.41 L28.3562 1002.53 L33.8944 1002.53 Q30.616 1000.52 29.0564 997.719 Q27.4968 994.918 27.4968 991.067 Q27.4968 987.184 29.4702 984.478 Q31.4436 981.741 35.1993 980.436 Z" fill="#000000" fill-rule="nonzero" fill-opacity="1" /><path clip-path="url(#clip970)" d="M32.4621 930.879 Q32.4621 935.59 36.1542 938.327 Q39.8145 941.064 46.212 941.064 Q52.6095 941.064 56.3017 938.359 Q59.9619 935.622 59.9619 930.879 Q59.9619 926.2 56.2698 923.463 Q52.5777 920.726 46.212 920.726 Q39.8781 920.726 36.186 923.463 Q32.4621 926.2 32.4621 930.879 M27.4968 930.879 Q27.4968 923.24 32.4621 918.88 Q37.4273 914.519 46.212 914.519 Q54.9649 914.519 59.9619 918.88 Q64.9272 923.24 64.9272 930.879 Q64.9272 938.55 59.9619 942.91 Q54.9649 947.239 46.212 947.239 Q37.4273 947.239 32.4621 942.91 Q27.4968 938.55 27.4968 930.879 Z" fill="#000000" fill-rule="nonzero" fill-opacity="1" /><path clip-path="url(#clip970)" d="M33.8307 884.155 Q33.2578 885.142 33.0032 886.319 Q32.7167 887.465 32.7167 888.866 Q32.7167 893.831 35.9632 896.504 Q39.1779 899.146 45.2253 899.146 L64.0042 899.146 L64.0042 905.034 L28.3562 905.034 L28.3562 899.146 L33.8944 899.146 Q30.6479 897.3 29.0883 894.34 Q27.4968 891.38 27.4968 887.147 Q27.4968 886.542 27.5923 885.81 Q27.656 885.078 27.8151 884.187 L33.8307 884.155 Z" fill="#000000" fill-rule="nonzero" fill-opacity="1" /><path clip-path="url(#clip970)" d="M67.3143 863.18 Q73.68 865.663 75.6216 868.018 Q77.5631 870.373 77.5631 874.32 L77.5631 878.999 L72.6615 878.999 L72.6615 875.561 Q72.6615 873.142 71.5157 871.805 Q70.3699 870.469 66.1048 868.845 L63.4312 867.795 L28.3562 882.213 L28.3562 876.007 L56.238 864.867 L28.3562 853.727 L28.3562 847.52 L67.3143 863.18 Z" fill="#000000" fill-rule="nonzero" fill-opacity="1" /><path clip-path="url(#clip970)" d="M14.5426 804.647 Q21.8632 808.912 29.0246 810.981 Q36.186 813.05 43.5384 813.05 Q50.8908 813.05 58.1159 810.981 Q65.3091 808.88 72.5979 804.647 L72.5979 809.74 Q65.1182 814.514 57.8931 816.901 Q50.668 819.257 43.5384 819.257 Q36.4406 819.257 29.2474 816.901 Q22.0542 814.546 14.5426 809.74 L14.5426 804.647 Z" fill="#000000" fill-rule="nonzero" fill-opacity="1" /><path clip-path="url(#clip970)" d="M46.212 767.694 Q39.7508 767.694 36.0905 770.368 Q32.3984 773.01 32.3984 777.657 Q32.3984 782.304 36.0905 784.977 Q39.7508 787.619 46.212 787.619 Q52.6732 787.619 56.3653 784.977 Q60.0256 782.304 60.0256 777.657 Q60.0256 773.01 56.3653 770.368 Q52.6732 767.694 46.212 767.694 M33.7671 787.619 Q30.5842 785.773 29.0564 782.972 Q27.4968 780.139 27.4968 776.224 Q27.4968 769.731 32.6531 765.689 Q37.8093 761.615 46.212 761.615 Q54.6147 761.615 59.771 765.689 Q64.9272 769.731 64.9272 776.224 Q64.9272 780.139 63.3994 782.972 Q61.8398 785.773 58.657 787.619 L64.0042 787.619 L64.0042 793.507 L14.479 793.507 L14.479 787.619 L33.7671 787.619 Z" fill="#000000" fill-rule="nonzero" fill-opacity="1" /><path clip-path="url(#clip970)" d="M67.3143 737.075 Q73.68 739.558 75.6216 741.913 Q77.5631 744.268 77.5631 748.215 L77.5631 752.894 L72.6615 752.894 L72.6615 749.457 Q72.6615 747.038 71.5157 745.701 Q70.3699 744.364 66.1048 742.741 L63.4312 741.69 L28.3562 756.109 L28.3562 749.902 L56.238 738.762 L28.3562 727.622 L28.3562 721.416 L67.3143 737.075 Z" fill="#000000" fill-rule="nonzero" fill-opacity="1" /><path clip-path="url(#clip970)" d="M18.2347 707.538 L28.3562 707.538 L28.3562 695.475 L32.9077 695.475 L32.9077 707.538 L52.2594 707.538 Q56.6199 707.538 57.8613 706.361 Q59.1026 705.151 59.1026 701.491 L59.1026 695.475 L64.0042 695.475 L64.0042 701.491 Q64.0042 708.27 61.4897 710.849 Q58.9434 713.427 52.2594 713.427 L32.9077 713.427 L32.9077 717.723 L28.3562 717.723 L28.3562 713.427 L18.2347 713.427 L18.2347 707.538 Z" fill="#000000" fill-rule="nonzero" fill-opacity="1" /><path clip-path="url(#clip970)" d="M44.7161 657.281 L47.5806 657.281 L47.5806 684.208 Q53.6281 683.826 56.8109 680.58 Q59.9619 677.301 59.9619 671.477 Q59.9619 668.103 59.1344 664.952 Q58.3069 661.769 56.6518 658.65 L62.1899 658.65 Q63.5267 661.801 64.227 665.111 Q64.9272 668.421 64.9272 671.827 Q64.9272 680.357 59.9619 685.354 Q54.9967 690.319 46.5303 690.319 Q37.7774 690.319 32.6531 685.609 Q27.4968 680.866 27.4968 672.845 Q27.4968 665.652 32.1438 661.482 Q36.7589 657.281 44.7161 657.281 M42.9973 663.138 Q38.1912 663.201 35.3266 665.843 Q32.4621 668.453 32.4621 672.782 Q32.4621 677.683 35.2312 680.643 Q38.0002 683.571 43.0292 684.017 L42.9973 663.138 Z" fill="#000000" fill-rule="nonzero" fill-opacity="1" /><path clip-path="url(#clip970)" d="M29.4065 624.943 L34.9447 624.943 Q33.6716 627.426 33.035 630.1 Q32.3984 632.773 32.3984 635.638 Q32.3984 639.998 33.7352 642.194 Q35.072 644.359 37.7456 644.359 Q39.7826 644.359 40.9603 642.799 Q42.1061 641.24 43.1565 636.529 L43.6021 634.524 Q44.9389 628.285 47.3897 625.675 Q49.8086 623.034 54.1691 623.034 Q59.1344 623.034 62.0308 626.98 Q64.9272 630.895 64.9272 637.77 Q64.9272 640.635 64.3543 643.754 Q63.8132 646.841 62.6992 650.279 L56.6518 650.279 Q58.3387 647.032 59.198 643.881 Q60.0256 640.73 60.0256 637.643 Q60.0256 633.505 58.6251 631.277 Q57.1929 629.049 54.6147 629.049 Q52.2276 629.049 50.9545 630.672 Q49.6813 632.264 48.5037 637.707 L48.0262 639.744 Q46.8804 645.186 44.5251 647.605 Q42.138 650.024 38.0002 650.024 Q32.9713 650.024 30.2341 646.459 Q27.4968 642.895 27.4968 636.338 Q27.4968 633.091 27.9743 630.227 Q28.4517 627.362 29.4065 624.943 Z" fill="#000000" fill-rule="nonzero" fill-opacity="1" /><path clip-path="url(#clip970)" d="M14.5426 614.631 L14.5426 609.538 Q22.0542 604.764 29.2474 602.409 Q36.4406 600.022 43.5384 600.022 Q50.668 600.022 57.8931 602.409 Q65.1182 604.764 72.5979 609.538 L72.5979 614.631 Q65.3091 610.398 58.1159 608.329 Q50.8908 606.228 43.5384 606.228 Q36.186 606.228 29.0246 608.329 Q21.8632 610.398 14.5426 614.631 Z" fill="#000000" fill-rule="nonzero" fill-opacity="1" /><path clip-path="url(#clip970)" d="M14.5426 553.488 Q21.8632 557.753 29.0246 559.822 Q36.186 561.891 43.5384 561.891 Q50.8908 561.891 58.1159 559.822 Q65.3091 557.721 72.5979 553.488 L72.5979 558.581 Q65.1182 563.355 57.8931 565.742 Q50.668 568.098 43.5384 568.098 Q36.4406 568.098 29.2474 565.742 Q22.0542 563.387 14.5426 558.581 L14.5426 553.488 Z" fill="#000000" fill-rule="nonzero" fill-opacity="1" /><path clip-path="url(#clip970)" d="M14.479 542.125 L14.479 536.269 L64.0042 536.269 L64.0042 542.125 L14.479 542.125 Z" fill="#000000" fill-rule="nonzero" fill-opacity="1" /><path clip-path="url(#clip970)" d="M32.4621 510.201 Q32.4621 514.912 36.1542 517.649 Q39.8145 520.387 46.212 520.387 Q52.6095 520.387 56.3017 517.681 Q59.9619 514.944 59.9619 510.201 Q59.9619 505.523 56.2698 502.785 Q52.5777 500.048 46.212 500.048 Q39.8781 500.048 36.186 502.785 Q32.4621 505.523 32.4621 510.201 M27.4968 510.201 Q27.4968 502.563 32.4621 498.202 Q37.4273 493.842 46.212 493.842 Q54.9649 493.842 59.9619 498.202 Q64.9272 502.563 64.9272 510.201 Q64.9272 517.872 59.9619 522.233 Q54.9649 526.561 46.212 526.561 Q37.4273 526.561 32.4621 522.233 Q27.4968 517.872 27.4968 510.201 Z" fill="#000000" fill-rule="nonzero" fill-opacity="1" /><path clip-path="url(#clip970)" d="M45.7664 460.676 Q39.4007 460.676 35.8996 463.318 Q32.3984 465.928 32.3984 470.67 Q32.3984 475.381 35.8996 478.023 Q39.4007 480.633 45.7664 480.633 Q52.1003 480.633 55.6014 478.023 Q59.1026 475.381 59.1026 470.67 Q59.1026 465.928 55.6014 463.318 Q52.1003 460.676 45.7664 460.676 M59.58 454.82 Q68.683 454.82 73.1071 458.862 Q77.5631 462.904 77.5631 471.243 Q77.5631 474.331 77.0857 477.068 Q76.6401 479.805 75.6852 482.383 L69.9879 482.383 Q71.3884 479.805 72.0568 477.291 Q72.7252 474.776 72.7252 472.166 Q72.7252 466.405 69.7015 463.541 Q66.7096 460.676 60.6303 460.676 L57.7339 460.676 Q60.885 462.49 62.4446 465.323 Q64.0042 468.156 64.0042 472.103 Q64.0042 478.659 59.0071 482.67 Q54.01 486.68 45.7664 486.68 Q37.491 486.68 32.4939 482.67 Q27.4968 478.659 27.4968 472.103 Q27.4968 468.156 29.0564 465.323 Q30.616 462.49 33.7671 460.676 L28.3562 460.676 L28.3562 454.82 L59.58 454.82 Z" fill="#000000" fill-rule="nonzero" fill-opacity="1" /><path clip-path="url(#clip970)" d="M58.5933 440.815 L58.5933 430.312 L22.3406 430.312 L24.6323 441.738 L18.7758 441.738 L16.4842 430.375 L16.4842 423.946 L58.5933 423.946 L58.5933 413.443 L64.0042 413.443 L64.0042 440.815 L58.5933 440.815 Z" fill="#000000" fill-rule="nonzero" fill-opacity="1" /><path clip-path="url(#clip970)" d="M20.7174 386.707 Q20.7174 391.672 25.6189 394.186 Q30.4887 396.669 40.2919 396.669 Q50.0633 396.669 54.9649 394.186 Q59.8346 391.672 59.8346 386.707 Q59.8346 381.71 54.9649 379.227 Q50.0633 376.713 40.2919 376.713 Q30.4887 376.713 25.6189 379.227 Q20.7174 381.71 20.7174 386.707 M15.6248 386.707 Q15.6248 378.718 21.9587 374.516 Q28.2607 370.283 40.2919 370.283 Q52.2913 370.283 58.6251 374.516 Q64.9272 378.718 64.9272 386.707 Q64.9272 394.696 58.6251 398.929 Q52.2913 403.13 40.2919 403.13 Q28.2607 403.13 21.9587 398.929 Q15.6248 394.696 15.6248 386.707 Z" fill="#000000" fill-rule="nonzero" fill-opacity="1" /><path clip-path="url(#clip970)" d="M14.5426 360.735 L14.5426 355.642 Q22.0542 350.868 29.2474 348.513 Q36.4406 346.125 43.5384 346.125 Q50.668 346.125 57.8931 348.513 Q65.1182 350.868 72.5979 355.642 L72.5979 360.735 Q65.3091 356.501 58.1159 354.433 Q50.8908 352.332 43.5384 352.332 Q36.186 352.332 29.0246 354.433 Q21.8632 356.501 14.5426 360.735 Z" fill="#000000" fill-rule="nonzero" fill-opacity="1" /><polyline clip-path="url(#clip972)" style="stroke:#009af9; stroke-linecap:round; stroke-linejoin:round; stroke-width:4; stroke-opacity:1; fill:none" points="281.933,1296.44 533.247,1176.74 784.56,1027.48 1035.87,872.931 1287.19,743.725 1538.5,594.417 1789.81,448.659 2041.13,304.543 2292.44,161.084 "/>
<circle clip-path="url(#clip972)" cx="281.933" cy="1296.44" r="14.4" fill="#009af9" fill-rule="evenodd" fill-opacity="1" stroke="#000000" stroke-opacity="1" stroke-width="3.2"/>
<circle clip-path="url(#clip972)" cx="533.247" cy="1176.74" r="14.4" fill="#009af9" fill-rule="evenodd" fill-opacity="1" stroke="#000000" stroke-opacity="1" stroke-width="3.2"/>
<circle clip-path="url(#clip972)" cx="784.56" cy="1027.48" r="14.4" fill="#009af9" fill-rule="evenodd" fill-opacity="1" stroke="#000000" stroke-opacity="1" stroke-width="3.2"/>
<circle clip-path="url(#clip972)" cx="1035.87" cy="872.931" r="14.4" fill="#009af9" fill-rule="evenodd" fill-opacity="1" stroke="#000000" stroke-opacity="1" stroke-width="3.2"/>
<circle clip-path="url(#clip972)" cx="1287.19" cy="743.725" r="14.4" fill="#009af9" fill-rule="evenodd" fill-opacity="1" stroke="#000000" stroke-opacity="1" stroke-width="3.2"/>
<circle clip-path="url(#clip972)" cx="1538.5" cy="594.417" r="14.4" fill="#009af9" fill-rule="evenodd" fill-opacity="1" stroke="#000000" stroke-opacity="1" stroke-width="3.2"/>
<circle clip-path="url(#clip972)" cx="1789.81" cy="448.659" r="14.4" fill="#009af9" fill-rule="evenodd" fill-opacity="1" stroke="#000000" stroke-opacity="1" stroke-width="3.2"/>
<circle clip-path="url(#clip972)" cx="2041.13" cy="304.543" r="14.4" fill="#009af9" fill-rule="evenodd" fill-opacity="1" stroke="#000000" stroke-opacity="1" stroke-width="3.2"/>
<circle clip-path="url(#clip972)" cx="2292.44" cy="161.084" r="14.4" fill="#009af9" fill-rule="evenodd" fill-opacity="1" stroke="#000000" stroke-opacity="1" stroke-width="3.2"/>
<polyline clip-path="url(#clip972)" style="stroke:#e26f46; stroke-linecap:round; stroke-linejoin:round; stroke-width:4; stroke-opacity:1; fill:none" points="281.933,1372.3 533.247,1296.44 784.56,1137.15 1035.87,964.296 1287.19,858.896 1538.5,697.903 1789.81,547.684 2041.13,401.921 2292.44,257.866 "/>
<path clip-path="url(#clip972)" d="M265.933 1356.3 L265.933 1388.3 L297.933 1388.3 L297.933 1356.3 L265.933 1356.3 Z" fill="#e26f46" fill-rule="evenodd" fill-opacity="1" stroke="#000000" stroke-opacity="1" stroke-width="3.2"/>
<path clip-path="url(#clip972)" d="M517.247 1280.44 L517.247 1312.44 L549.247 1312.44 L549.247 1280.44 L517.247 1280.44 Z" fill="#e26f46" fill-rule="evenodd" fill-opacity="1" stroke="#000000" stroke-opacity="1" stroke-width="3.2"/>
<path clip-path="url(#clip972)" d="M768.56 1121.15 L768.56 1153.15 L800.56 1153.15 L800.56 1121.15 L768.56 1121.15 Z" fill="#e26f46" fill-rule="evenodd" fill-opacity="1" stroke="#000000" stroke-opacity="1" stroke-width="3.2"/>
<path clip-path="url(#clip972)" d="M1019.87 948.296 L1019.87 980.296 L1051.87 980.296 L1051.87 948.296 L1019.87 948.296 Z" fill="#e26f46" fill-rule="evenodd" fill-opacity="1" stroke="#000000" stroke-opacity="1" stroke-width="3.2"/>
<path clip-path="url(#clip972)" d="M1271.19 842.896 L1271.19 874.896 L1303.19 874.896 L1303.19 842.896 L1271.19 842.896 Z" fill="#e26f46" fill-rule="evenodd" fill-opacity="1" stroke="#000000" stroke-opacity="1" stroke-width="3.2"/>
<path clip-path="url(#clip972)" d="M1522.5 681.903 L1522.5 713.903 L1554.5 713.903 L1554.5 681.903 L1522.5 681.903 Z" fill="#e26f46" fill-rule="evenodd" fill-opacity="1" stroke="#000000" stroke-opacity="1" stroke-width="3.2"/>
<path clip-path="url(#clip972)" d="M1773.81 531.684 L1773.81 563.684 L1805.81 563.684 L1805.81 531.684 L1773.81 531.684 Z" fill="#e26f46" fill-rule="evenodd" fill-opacity="1" stroke="#000000" stroke-opacity="1" stroke-width="3.2"/>
<path clip-path="url(#clip972)" d="M2025.13 385.921 L2025.13 417.921 L2057.13 417.921 L2057.13 385.921 L2025.13 385.921 Z" fill="#e26f46" fill-rule="evenodd" fill-opacity="1" stroke="#000000" stroke-opacity="1" stroke-width="3.2"/>
<path clip-path="url(#clip972)" d="M2276.44 241.866 L2276.44 273.866 L2308.44 273.866 L2308.44 241.866 L2276.44 241.866 Z" fill="#e26f46" fill-rule="evenodd" fill-opacity="1" stroke="#000000" stroke-opacity="1" stroke-width="3.2"/>
<polyline clip-path="url(#clip972)" style="stroke:#3da44d; stroke-linecap:round; stroke-linejoin:round; stroke-width:4; stroke-opacity:1; fill:none" points="281.933,1265.61 533.247,1139.38 784.56,991.965 1035.87,840.014 1287.19,706.327 1538.5,558.754 1789.81,413.742 2041.13,269.917 2292.44,126.564 "/>
<path clip-path="url(#clip972)" d="M281.933 1249.61 L265.933 1265.61 L281.933 1281.61 L297.933 1265.61 L281.933 1249.61 Z" fill="#3da44d" fill-rule="evenodd" fill-opacity="1" stroke="#000000" stroke-opacity="1" stroke-width="3.2"/>
<path clip-path="url(#clip972)" d="M533.247 1123.38 L517.247 1139.38 L533.247 1155.38 L549.247 1139.38 L533.247 1123.38 Z" fill="#3da44d" fill-rule="evenodd" fill-opacity="1" stroke="#000000" stroke-opacity="1" stroke-width="3.2"/>
<path clip-path="url(#clip972)" d="M784.56 975.965 L768.56 991.965 L784.56 1007.96 L800.56 991.965 L784.56 975.965 Z" fill="#3da44d" fill-rule="evenodd" fill-opacity="1" stroke="#000000" stroke-opacity="1" stroke-width="3.2"/>
<path clip-path="url(#clip972)" d="M1035.87 824.014 L1019.87 840.014 L1035.87 856.014 L1051.87 840.014 L1035.87 824.014 Z" fill="#3da44d" fill-rule="evenodd" fill-opacity="1" stroke="#000000" stroke-opacity="1" stroke-width="3.2"/>
<path clip-path="url(#clip972)" d="M1287.19 690.327 L1271.19 706.327 L1287.19 722.327 L1303.19 706.327 L1287.19 690.327 Z" fill="#3da44d" fill-rule="evenodd" fill-opacity="1" stroke="#000000" stroke-opacity="1" stroke-width="3.2"/>
<path clip-path="url(#clip972)" d="M1538.5 542.754 L1522.5 558.754 L1538.5 574.754 L1554.5 558.754 L1538.5 542.754 Z" fill="#3da44d" fill-rule="evenodd" fill-opacity="1" stroke="#000000" stroke-opacity="1" stroke-width="3.2"/>
<path clip-path="url(#clip972)" d="M1789.81 397.742 L1773.81 413.742 L1789.81 429.742 L1805.81 413.742 L1789.81 397.742 Z" fill="#3da44d" fill-rule="evenodd" fill-opacity="1" stroke="#000000" stroke-opacity="1" stroke-width="3.2"/>
<path clip-path="url(#clip972)" d="M2041.13 253.917 L2025.13 269.917 L2041.13 285.917 L2057.13 269.917 L2041.13 253.917 Z" fill="#3da44d" fill-rule="evenodd" fill-opacity="1" stroke="#000000" stroke-opacity="1" stroke-width="3.2"/>
<path clip-path="url(#clip972)" d="M2292.44 110.564 L2276.44 126.564 L2292.44 142.564 L2308.44 126.564 L2292.44 110.564 Z" fill="#3da44d" fill-rule="evenodd" fill-opacity="1" stroke="#000000" stroke-opacity="1" stroke-width="3.2"/>
<polyline clip-path="url(#clip972)" style="stroke:#c271d2; stroke-linecap:round; stroke-linejoin:round; stroke-width:4; stroke-opacity:1; fill:none" points="281.933,1238.21 533.247,1110.55 784.56,964.852 1035.87,807.159 1287.19,664.981 1538.5,517.499 1789.81,372.786 2041.13,229.121 2292.44,85.838 "/>
<path clip-path="url(#clip972)" d="M281.933 1222.21 L265.933 1254.21 L297.933 1254.21 L281.933 1222.21 Z" fill="#c271d2" fill-rule="evenodd" fill-opacity="1" stroke="#000000" stroke-opacity="1" stroke-width="3.2"/>
<path clip-path="url(#clip972)" d="M533.247 1094.55 L517.247 1126.55 L549.247 1126.55 L533.247 1094.55 Z" fill="#c271d2" fill-rule="evenodd" fill-opacity="1" stroke="#000000" stroke-opacity="1" stroke-width="3.2"/>
<path clip-path="url(#clip972)" d="M784.56 948.852 L768.56 980.852 L800.56 980.852 L784.56 948.852 Z" fill="#c271d2" fill-rule="evenodd" fill-opacity="1" stroke="#000000" stroke-opacity="1" stroke-width="3.2"/>
<path clip-path="url(#clip972)" d="M1035.87 791.159 L1019.87 823.159 L1051.87 823.159 L1035.87 791.159 Z" fill="#c271d2" fill-rule="evenodd" fill-opacity="1" stroke="#000000" stroke-opacity="1" stroke-width="3.2"/>
<path clip-path="url(#clip972)" d="M1287.19 648.981 L1271.19 680.981 L1303.19 680.981 L1287.19 648.981 Z" fill="#c271d2" fill-rule="evenodd" fill-opacity="1" stroke="#000000" stroke-opacity="1" stroke-width="3.2"/>
<path clip-path="url(#clip972)" d="M1538.5 501.499 L1522.5 533.499 L1554.5 533.499 L1538.5 501.499 Z" fill="#c271d2" fill-rule="evenodd" fill-opacity="1" stroke="#000000" stroke-opacity="1" stroke-width="3.2"/>
<path clip-path="url(#clip972)" d="M1789.81 356.786 L1773.81 388.786 L1805.81 388.786 L1789.81 356.786 Z" fill="#c271d2" fill-rule="evenodd" fill-opacity="1" stroke="#000000" stroke-opacity="1" stroke-width="3.2"/>
<path clip-path="url(#clip972)" d="M2041.13 213.121 L2025.13 245.121 L2057.13 245.121 L2041.13 213.121 Z" fill="#c271d2" fill-rule="evenodd" fill-opacity="1" stroke="#000000" stroke-opacity="1" stroke-width="3.2"/>
<path clip-path="url(#clip972)" d="M2292.44 69.838 L2276.44 101.838 L2308.44 101.838 L2292.44 69.838 Z" fill="#c271d2" fill-rule="evenodd" fill-opacity="1" stroke="#000000" stroke-opacity="1" stroke-width="3.2"/>
<polyline clip-path="url(#clip972)" style="stroke:#ac8d18; stroke-linecap:round; stroke-linejoin:round; stroke-width:4; stroke-opacity:1; fill:none" points="281.933,1338.11 533.247,1196.44 784.56,1053.58 1035.87,910.643 1287.19,767.561 1538.5,624.473 1789.81,481.388 2041.13,338.307 2292.44,195.228 "/>
<path clip-path="url(#clip972)" d="M281.933 1322.11 L278.173 1332.93 L266.717 1333.17 L275.853 1340.1 L272.525 1351.06 L281.933 1344.51 L291.341 1351.06 L288.013 1340.1 L297.149 1333.17 L285.693 1332.93 L281.933 1322.11 Z" fill="#ac8d18" fill-rule="evenodd" fill-opacity="1" stroke="#000000" stroke-opacity="1" stroke-width="3.2"/>
<path clip-path="url(#clip972)" d="M533.247 1180.44 L529.487 1191.26 L518.031 1191.5 L527.167 1198.43 L523.839 1209.39 L533.247 1202.84 L542.655 1209.39 L539.327 1198.43 L548.463 1191.5 L537.007 1191.26 L533.247 1180.44 Z" fill="#ac8d18" fill-rule="evenodd" fill-opacity="1" stroke="#000000" stroke-opacity="1" stroke-width="3.2"/>
<path clip-path="url(#clip972)" d="M784.56 1037.58 L780.8 1048.4 L769.344 1048.64 L778.48 1055.56 L775.152 1066.52 L784.56 1059.98 L793.968 1066.52 L790.64 1055.56 L799.776 1048.64 L788.32 1048.4 L784.56 1037.58 Z" fill="#ac8d18" fill-rule="evenodd" fill-opacity="1" stroke="#000000" stroke-opacity="1" stroke-width="3.2"/>
<path clip-path="url(#clip972)" d="M1035.87 894.643 L1032.11 905.459 L1020.66 905.699 L1029.79 912.627 L1026.47 923.587 L1035.87 917.043 L1045.28 923.587 L1041.95 912.627 L1051.09 905.699 L1039.63 905.459 L1035.87 894.643 Z" fill="#ac8d18" fill-rule="evenodd" fill-opacity="1" stroke="#000000" stroke-opacity="1" stroke-width="3.2"/>
<path clip-path="url(#clip972)" d="M1287.19 751.561 L1283.43 762.377 L1271.97 762.617 L1281.11 769.545 L1277.78 780.505 L1287.19 773.961 L1296.6 780.505 L1293.27 769.545 L1302.4 762.617 L1290.95 762.377 L1287.19 751.561 Z" fill="#ac8d18" fill-rule="evenodd" fill-opacity="1" stroke="#000000" stroke-opacity="1" stroke-width="3.2"/>
<path clip-path="url(#clip972)" d="M1538.5 608.473 L1534.74 619.289 L1523.28 619.529 L1532.42 626.457 L1529.09 637.417 L1538.5 630.873 L1547.91 637.417 L1544.58 626.457 L1553.72 619.529 L1542.26 619.289 L1538.5 608.473 Z" fill="#ac8d18" fill-rule="evenodd" fill-opacity="1" stroke="#000000" stroke-opacity="1" stroke-width="3.2"/>
<path clip-path="url(#clip972)" d="M1789.81 465.388 L1786.05 476.204 L1774.6 476.444 L1783.73 483.372 L1780.41 494.332 L1789.81 487.788 L1799.22 494.332 L1795.89 483.372 L1805.03 476.444 L1793.57 476.204 L1789.81 465.388 Z" fill="#ac8d18" fill-rule="evenodd" fill-opacity="1" stroke="#000000" stroke-opacity="1" stroke-width="3.2"/>
<path clip-path="url(#clip972)" d="M2041.13 322.307 L2037.37 333.123 L2025.91 333.363 L2035.05 340.291 L2031.72 351.251 L2041.13 344.707 L2050.54 351.251 L2047.21 340.291 L2056.34 333.363 L2044.89 333.123 L2041.13 322.307 Z" fill="#ac8d18" fill-rule="evenodd" fill-opacity="1" stroke="#000000" stroke-opacity="1" stroke-width="3.2"/>
<path clip-path="url(#clip972)" d="M2292.44 179.228 L2288.68 190.044 L2277.22 190.284 L2286.36 197.212 L2283.03 208.172 L2292.44 201.628 L2301.85 208.172 L2298.52 197.212 L2307.66 190.284 L2296.2 190.044 L2292.44 179.228 Z" fill="#ac8d18" fill-rule="evenodd" fill-opacity="1" stroke="#000000" stroke-opacity="1" stroke-width="3.2"/>
<path clip-path="url(#clip970)" d="M292.656 403.739 L810.699 403.739 L810.699 92.6992 L292.656 92.6992  Z" fill="#ffffff" fill-rule="evenodd" fill-opacity="1"/>
<polyline clip-path="url(#clip970)" style="stroke:#000000; stroke-linecap:round; stroke-linejoin:round; stroke-width:4; stroke-opacity:1; fill:none" points="292.656,403.739 810.699,403.739 810.699,92.6992 292.656,92.6992 292.656,403.739 "/>
<polyline clip-path="url(#clip970)" style="stroke:#009af9; stroke-linecap:round; stroke-linejoin:round; stroke-width:4; stroke-opacity:1; fill:none" points="316.336,144.539 458.411,144.539 "/>
<circle clip-path="url(#clip970)" cx="387.373" cy="144.539" r="19.7328" fill="#009af9" fill-rule="evenodd" fill-opacity="1" stroke="#000000" stroke-opacity="1" stroke-width="4.55111"/>
<path clip-path="url(#clip970)" d="M486.767 145.315 L486.767 157.977 L494.267 157.977 Q498.04 157.977 499.845 156.426 Q501.674 154.852 501.674 151.634 Q501.674 148.393 499.845 146.866 Q498.04 145.315 494.267 145.315 L486.767 145.315 M486.767 131.102 L486.767 141.518 L493.688 141.518 Q497.114 141.518 498.78 140.245 Q500.47 138.949 500.47 136.31 Q500.47 133.694 498.78 132.398 Q497.114 131.102 493.688 131.102 L486.767 131.102 M482.091 127.259 L494.035 127.259 Q499.382 127.259 502.276 129.481 Q505.169 131.704 505.169 135.801 Q505.169 138.972 503.688 140.847 Q502.206 142.722 499.336 143.185 Q502.785 143.926 504.683 146.287 Q506.604 148.625 506.604 152.143 Q506.604 156.773 503.456 159.296 Q500.308 161.819 494.498 161.819 L482.091 161.819 L482.091 127.259 Z" fill="#000000" fill-rule="nonzero" fill-opacity="1" /><path clip-path="url(#clip970)" d="M526.211 148.787 Q521.049 148.787 519.058 149.967 Q517.067 151.148 517.067 153.995 Q517.067 156.264 518.549 157.606 Q520.053 158.926 522.623 158.926 Q526.164 158.926 528.294 156.426 Q530.447 153.903 530.447 149.736 L530.447 148.787 L526.211 148.787 M534.706 147.028 L534.706 161.819 L530.447 161.819 L530.447 157.884 Q528.989 160.245 526.813 161.379 Q524.637 162.49 521.489 162.49 Q517.507 162.49 515.146 160.268 Q512.808 158.023 512.808 154.273 Q512.808 149.898 515.725 147.676 Q518.665 145.454 524.475 145.454 L530.447 145.454 L530.447 145.037 Q530.447 142.097 528.502 140.5 Q526.581 138.879 523.086 138.879 Q520.864 138.879 518.757 139.412 Q516.651 139.944 514.706 141.009 L514.706 137.074 Q517.044 136.171 519.243 135.731 Q521.442 135.268 523.526 135.268 Q529.151 135.268 531.928 138.185 Q534.706 141.102 534.706 147.028 Z" fill="#000000" fill-rule="nonzero" fill-opacity="1" /><path clip-path="url(#clip970)" d="M560.007 136.657 L560.007 140.685 Q558.201 139.759 556.257 139.296 Q554.312 138.833 552.229 138.833 Q549.058 138.833 547.461 139.805 Q545.887 140.778 545.887 142.722 Q545.887 144.204 547.021 145.06 Q548.155 145.893 551.581 146.657 L553.039 146.981 Q557.576 147.954 559.475 149.736 Q561.396 151.495 561.396 154.666 Q561.396 158.278 558.525 160.384 Q555.678 162.49 550.678 162.49 Q548.595 162.49 546.326 162.074 Q544.081 161.68 541.581 160.87 L541.581 156.472 Q543.942 157.699 546.234 158.324 Q548.525 158.926 550.771 158.926 Q553.78 158.926 555.4 157.907 Q557.021 156.866 557.021 154.991 Q557.021 153.254 555.84 152.328 Q554.683 151.403 550.725 150.546 L549.243 150.199 Q545.285 149.366 543.526 147.653 Q541.766 145.916 541.766 142.907 Q541.766 139.25 544.359 137.259 Q546.951 135.268 551.72 135.268 Q554.081 135.268 556.164 135.616 Q558.248 135.963 560.007 136.657 Z" fill="#000000" fill-rule="nonzero" fill-opacity="1" /><path clip-path="url(#clip970)" d="M590.354 147.791 L590.354 149.875 L570.771 149.875 Q571.049 154.273 573.41 156.588 Q575.794 158.879 580.03 158.879 Q582.484 158.879 584.775 158.278 Q587.09 157.676 589.359 156.472 L589.359 160.5 Q587.067 161.472 584.66 161.981 Q582.252 162.49 579.775 162.49 Q573.572 162.49 569.937 158.879 Q566.326 155.268 566.326 149.111 Q566.326 142.745 569.752 139.018 Q573.201 135.268 579.035 135.268 Q584.266 135.268 587.298 138.648 Q590.354 142.004 590.354 147.791 M586.095 146.541 Q586.048 143.046 584.127 140.963 Q582.229 138.879 579.081 138.879 Q575.516 138.879 573.363 140.893 Q571.234 142.907 570.91 146.565 L586.095 146.541 Z" fill="#000000" fill-rule="nonzero" fill-opacity="1" /><path clip-path="url(#clip970)" d="M597.345 125.801 L601.604 125.801 L601.604 161.819 L597.345 161.819 L597.345 125.801 Z" fill="#000000" fill-rule="nonzero" fill-opacity="1" /><path clip-path="url(#clip970)" d="M610.516 135.893 L614.775 135.893 L614.775 161.819 L610.516 161.819 L610.516 135.893 M610.516 125.801 L614.775 125.801 L614.775 131.194 L610.516 131.194 L610.516 125.801 Z" fill="#000000" fill-rule="nonzero" fill-opacity="1" /><path clip-path="url(#clip970)" d="M645.238 146.171 L645.238 161.819 L640.979 161.819 L640.979 146.31 Q640.979 142.629 639.544 140.801 Q638.108 138.972 635.238 138.972 Q631.789 138.972 629.798 141.171 Q627.807 143.37 627.807 147.166 L627.807 161.819 L623.525 161.819 L623.525 135.893 L627.807 135.893 L627.807 139.921 Q629.335 137.583 631.395 136.426 Q633.479 135.268 636.187 135.268 Q640.655 135.268 642.946 138.046 Q645.238 140.801 645.238 146.171 Z" fill="#000000" fill-rule="nonzero" fill-opacity="1" /><path clip-path="url(#clip970)" d="M675.909 147.791 L675.909 149.875 L656.326 149.875 Q656.604 154.273 658.965 156.588 Q661.349 158.879 665.585 158.879 Q668.039 158.879 670.33 158.278 Q672.645 157.676 674.914 156.472 L674.914 160.5 Q672.622 161.472 670.215 161.981 Q667.807 162.49 665.33 162.49 Q659.127 162.49 655.493 158.879 Q651.881 155.268 651.881 149.111 Q651.881 142.745 655.307 139.018 Q658.756 135.268 664.59 135.268 Q669.821 135.268 672.854 138.648 Q675.909 142.004 675.909 147.791 M671.65 146.541 Q671.604 143.046 669.682 140.963 Q667.784 138.879 664.636 138.879 Q661.071 138.879 658.918 140.893 Q656.789 142.907 656.465 146.565 L671.65 146.541 Z" fill="#000000" fill-rule="nonzero" fill-opacity="1" /><polyline clip-path="url(#clip970)" style="stroke:#e26f46; stroke-linecap:round; stroke-linejoin:round; stroke-width:4; stroke-opacity:1; fill:none" points="316.336,196.379 458.411,196.379 "/>
<path clip-path="url(#clip970)" d="M365.448 174.454 L365.448 218.304 L409.299 218.304 L409.299 174.454 L365.448 174.454 Z" fill="#e26f46" fill-rule="evenodd" fill-opacity="1" stroke="#000000" stroke-opacity="1" stroke-width="4.55111"/>
<path clip-path="url(#clip970)" d="M498.479 197.456 Q499.984 197.965 501.396 199.631 Q502.831 201.298 504.266 204.215 L509.012 213.659 L503.989 213.659 L499.567 204.793 Q497.854 201.321 496.234 200.187 Q494.637 199.053 491.859 199.053 L486.767 199.053 L486.767 213.659 L482.091 213.659 L482.091 179.099 L492.646 179.099 Q498.572 179.099 501.489 181.576 Q504.405 184.053 504.405 189.053 Q504.405 192.317 502.878 194.469 Q501.373 196.622 498.479 197.456 M486.767 182.942 L486.767 195.21 L492.646 195.21 Q496.026 195.21 497.739 193.659 Q499.475 192.085 499.475 189.053 Q499.475 186.02 497.739 184.493 Q496.026 182.942 492.646 182.942 L486.767 182.942 Z" fill="#000000" fill-rule="nonzero" fill-opacity="1" /><path clip-path="url(#clip970)" d="M534.891 199.631 L534.891 201.715 L515.308 201.715 Q515.586 206.113 517.947 208.428 Q520.331 210.719 524.567 210.719 Q527.021 210.719 529.313 210.118 Q531.627 209.516 533.896 208.312 L533.896 212.34 Q531.604 213.312 529.197 213.821 Q526.789 214.33 524.313 214.33 Q518.109 214.33 514.475 210.719 Q510.864 207.108 510.864 200.951 Q510.864 194.585 514.29 190.858 Q517.739 187.108 523.572 187.108 Q528.803 187.108 531.836 190.488 Q534.891 193.844 534.891 199.631 M530.632 198.381 Q530.586 194.886 528.664 192.803 Q526.766 190.719 523.618 190.719 Q520.053 190.719 517.901 192.733 Q515.771 194.747 515.447 198.405 L530.632 198.381 Z" fill="#000000" fill-rule="nonzero" fill-opacity="1" /><path clip-path="url(#clip970)" d="M555.007 177.641 L555.007 181.183 L550.933 181.183 Q548.641 181.183 547.738 182.108 Q546.859 183.034 546.859 185.442 L546.859 187.733 L553.873 187.733 L553.873 191.044 L546.859 191.044 L546.859 213.659 L542.576 213.659 L542.576 191.044 L538.502 191.044 L538.502 187.733 L542.576 187.733 L542.576 185.928 Q542.576 181.599 544.59 179.632 Q546.604 177.641 550.979 177.641 L555.007 177.641 Z" fill="#000000" fill-rule="nonzero" fill-opacity="1" /><polyline clip-path="url(#clip970)" style="stroke:#3da44d; stroke-linecap:round; stroke-linejoin:round; stroke-width:4; stroke-opacity:1; fill:none" points="316.336,248.219 458.411,248.219 "/>
<path clip-path="url(#clip970)" d="M387.373 226.294 L365.448 248.219 L387.373 270.144 L409.299 248.219 L387.373 226.294 Z" fill="#3da44d" fill-rule="evenodd" fill-opacity="1" stroke="#000000" stroke-opacity="1" stroke-width="4.55111"/>
<path clip-path="url(#clip970)" d="M482.091 230.939 L486.767 230.939 L486.767 265.499 L482.091 265.499 L482.091 230.939 Z" fill="#000000" fill-rule="nonzero" fill-opacity="1" /><path clip-path="url(#clip970)" d="M500.1 232.212 L500.1 239.573 L508.873 239.573 L508.873 242.884 L500.1 242.884 L500.1 256.958 Q500.1 260.129 500.956 261.032 Q501.836 261.934 504.498 261.934 L508.873 261.934 L508.873 265.499 L504.498 265.499 Q499.567 265.499 497.692 263.67 Q495.817 261.819 495.817 256.958 L495.817 242.884 L492.692 242.884 L492.692 239.573 L495.817 239.573 L495.817 232.212 L500.1 232.212 Z" fill="#000000" fill-rule="nonzero" fill-opacity="1" /><path clip-path="url(#clip970)" d="M536.651 251.471 L536.651 253.555 L517.067 253.555 Q517.345 257.953 519.706 260.268 Q522.09 262.559 526.327 262.559 Q528.78 262.559 531.072 261.958 Q533.387 261.356 535.655 260.152 L535.655 264.18 Q533.364 265.152 530.956 265.661 Q528.549 266.17 526.072 266.17 Q519.868 266.17 516.234 262.559 Q512.623 258.948 512.623 252.791 Q512.623 246.425 516.049 242.698 Q519.498 238.948 525.331 238.948 Q530.563 238.948 533.595 242.328 Q536.651 245.684 536.651 251.471 M532.391 250.221 Q532.345 246.726 530.424 244.643 Q528.526 242.559 525.377 242.559 Q521.813 242.559 519.66 244.573 Q517.53 246.587 517.206 250.245 L532.391 250.221 Z" fill="#000000" fill-rule="nonzero" fill-opacity="1" /><path clip-path="url(#clip970)" d="M558.664 243.555 Q557.947 243.138 557.09 242.953 Q556.257 242.745 555.238 242.745 Q551.627 242.745 549.683 245.106 Q547.762 247.444 547.762 251.842 L547.762 265.499 L543.479 265.499 L543.479 239.573 L547.762 239.573 L547.762 243.601 Q549.104 241.24 551.257 240.106 Q553.41 238.948 556.488 238.948 Q556.928 238.948 557.461 239.018 Q557.993 239.064 558.641 239.18 L558.664 243.555 Z" fill="#000000" fill-rule="nonzero" fill-opacity="1" /><polyline clip-path="url(#clip970)" style="stroke:#c271d2; stroke-linecap:round; stroke-linejoin:round; stroke-width:4; stroke-opacity:1; fill:none" points="316.336,300.059 458.411,300.059 "/>
<path clip-path="url(#clip970)" d="M387.373 278.134 L365.448 321.984 L409.299 321.984 L387.373 278.134 Z" fill="#c271d2" fill-rule="evenodd" fill-opacity="1" stroke="#000000" stroke-opacity="1" stroke-width="4.55111"/>
<path clip-path="url(#clip970)" d="M482.091 282.779 L486.767 282.779 L486.767 317.339 L482.091 317.339 L482.091 282.779 Z" fill="#000000" fill-rule="nonzero" fill-opacity="1" /><path clip-path="url(#clip970)" d="M500.1 284.052 L500.1 291.413 L508.873 291.413 L508.873 294.724 L500.1 294.724 L500.1 308.798 Q500.1 311.969 500.956 312.872 Q501.836 313.774 504.498 313.774 L508.873 313.774 L508.873 317.339 L504.498 317.339 Q499.567 317.339 497.692 315.51 Q495.817 313.659 495.817 308.798 L495.817 294.724 L492.692 294.724 L492.692 291.413 L495.817 291.413 L495.817 284.052 L500.1 284.052 Z" fill="#000000" fill-rule="nonzero" fill-opacity="1" /><path clip-path="url(#clip970)" d="M536.651 303.311 L536.651 305.395 L517.067 305.395 Q517.345 309.793 519.706 312.108 Q522.09 314.399 526.327 314.399 Q528.78 314.399 531.072 313.798 Q533.387 313.196 535.655 311.992 L535.655 316.02 Q533.364 316.992 530.956 317.501 Q528.549 318.01 526.072 318.01 Q519.868 318.01 516.234 314.399 Q512.623 310.788 512.623 304.631 Q512.623 298.265 516.049 294.538 Q519.498 290.788 525.331 290.788 Q530.563 290.788 533.595 294.168 Q536.651 297.524 536.651 303.311 M532.391 302.061 Q532.345 298.566 530.424 296.483 Q528.526 294.399 525.377 294.399 Q521.813 294.399 519.66 296.413 Q517.53 298.427 517.206 302.085 L532.391 302.061 Z" fill="#000000" fill-rule="nonzero" fill-opacity="1" /><path clip-path="url(#clip970)" d="M558.664 295.395 Q557.947 294.978 557.09 294.793 Q556.257 294.585 555.238 294.585 Q551.627 294.585 549.683 296.946 Q547.762 299.284 547.762 303.682 L547.762 317.339 L543.479 317.339 L543.479 291.413 L547.762 291.413 L547.762 295.441 Q549.104 293.08 551.257 291.946 Q553.41 290.788 556.488 290.788 Q556.928 290.788 557.461 290.858 Q557.993 290.904 558.641 291.02 L558.664 295.395 Z" fill="#000000" fill-rule="nonzero" fill-opacity="1" /><path clip-path="url(#clip970)" d="M589.984 304.307 Q584.822 304.307 582.831 305.487 Q580.84 306.668 580.84 309.515 Q580.84 311.784 582.322 313.126 Q583.826 314.446 586.396 314.446 Q589.937 314.446 592.067 311.946 Q594.22 309.423 594.22 305.256 L594.22 304.307 L589.984 304.307 M598.479 302.548 L598.479 317.339 L594.22 317.339 L594.22 313.404 Q592.761 315.765 590.585 316.899 Q588.41 318.01 585.261 318.01 Q581.28 318.01 578.919 315.788 Q576.581 313.543 576.581 309.793 Q576.581 305.418 579.498 303.196 Q582.437 300.974 588.247 300.974 L594.22 300.974 L594.22 300.557 Q594.22 297.617 592.275 296.02 Q590.354 294.399 586.859 294.399 Q584.636 294.399 582.53 294.932 Q580.423 295.464 578.479 296.529 L578.479 292.594 Q580.817 291.691 583.016 291.251 Q585.215 290.788 587.298 290.788 Q592.923 290.788 595.701 293.705 Q598.479 296.622 598.479 302.548 Z" fill="#000000" fill-rule="nonzero" fill-opacity="1" /><path clip-path="url(#clip970)" d="M628.803 301.691 L628.803 317.339 L624.544 317.339 L624.544 301.83 Q624.544 298.149 623.108 296.321 Q621.673 294.492 618.803 294.492 Q615.354 294.492 613.363 296.691 Q611.372 298.89 611.372 302.686 L611.372 317.339 L607.09 317.339 L607.09 291.413 L611.372 291.413 L611.372 295.441 Q612.9 293.103 614.96 291.946 Q617.044 290.788 619.752 290.788 Q624.22 290.788 626.511 293.566 Q628.803 296.321 628.803 301.691 Z" fill="#000000" fill-rule="nonzero" fill-opacity="1" /><path clip-path="url(#clip970)" d="M654.358 295.349 L654.358 281.321 L658.617 281.321 L658.617 317.339 L654.358 317.339 L654.358 313.45 Q653.016 315.765 650.955 316.899 Q648.918 318.01 646.048 318.01 Q641.349 318.01 638.386 314.26 Q635.446 310.511 635.446 304.399 Q635.446 298.288 638.386 294.538 Q641.349 290.788 646.048 290.788 Q648.918 290.788 650.955 291.923 Q653.016 293.034 654.358 295.349 M639.844 304.399 Q639.844 309.098 641.766 311.784 Q643.71 314.446 647.09 314.446 Q650.469 314.446 652.414 311.784 Q654.358 309.098 654.358 304.399 Q654.358 299.7 652.414 297.038 Q650.469 294.353 647.09 294.353 Q643.71 294.353 641.766 297.038 Q639.844 299.7 639.844 304.399 Z" fill="#000000" fill-rule="nonzero" fill-opacity="1" /><path clip-path="url(#clip970)" d="M699.034 301.136 Q700.539 301.645 701.951 303.311 Q703.386 304.978 704.821 307.895 L709.566 317.339 L704.543 317.339 L700.122 308.473 Q698.409 305.001 696.789 303.867 Q695.191 302.733 692.414 302.733 L687.321 302.733 L687.321 317.339 L682.645 317.339 L682.645 282.779 L693.201 282.779 Q699.127 282.779 702.043 285.256 Q704.96 287.733 704.96 292.733 Q704.96 295.997 703.432 298.149 Q701.927 300.302 699.034 301.136 M687.321 286.622 L687.321 298.89 L693.201 298.89 Q696.58 298.89 698.293 297.339 Q700.029 295.765 700.029 292.733 Q700.029 289.7 698.293 288.173 Q696.58 286.622 693.201 286.622 L687.321 286.622 Z" fill="#000000" fill-rule="nonzero" fill-opacity="1" /><path clip-path="url(#clip970)" d="M735.446 303.311 L735.446 305.395 L715.863 305.395 Q716.14 309.793 718.501 312.108 Q720.886 314.399 725.122 314.399 Q727.575 314.399 729.867 313.798 Q732.182 313.196 734.45 311.992 L734.45 316.02 Q732.159 316.992 729.751 317.501 Q727.344 318.01 724.867 318.01 Q718.663 318.01 715.029 314.399 Q711.418 310.788 711.418 304.631 Q711.418 298.265 714.844 294.538 Q718.293 290.788 724.126 290.788 Q729.358 290.788 732.39 294.168 Q735.446 297.524 735.446 303.311 M731.187 302.061 Q731.14 298.566 729.219 296.483 Q727.321 294.399 724.173 294.399 Q720.608 294.399 718.455 296.413 Q716.326 298.427 716.001 302.085 L731.187 302.061 Z" fill="#000000" fill-rule="nonzero" fill-opacity="1" /><path clip-path="url(#clip970)" d="M755.561 281.321 L755.561 284.863 L751.487 284.863 Q749.196 284.863 748.293 285.788 Q747.413 286.714 747.413 289.122 L747.413 291.413 L754.427 291.413 L754.427 294.724 L747.413 294.724 L747.413 317.339 L743.131 317.339 L743.131 294.724 L739.057 294.724 L739.057 291.413 L743.131 291.413 L743.131 289.608 Q743.131 285.279 745.145 283.312 Q747.159 281.321 751.534 281.321 L755.561 281.321 Z" fill="#000000" fill-rule="nonzero" fill-opacity="1" /><polyline clip-path="url(#clip970)" style="stroke:#ac8d18; stroke-linecap:round; stroke-linejoin:round; stroke-width:4; stroke-opacity:1; fill:none" points="316.336,351.899 458.411,351.899 "/>
<path clip-path="url(#clip970)" d="M387.373 329.974 L382.221 344.795 L366.522 345.124 L379.042 354.618 L374.481 369.637 L387.373 360.669 L400.265 369.637 L395.705 354.618 L408.224 345.124 L392.526 344.795 L387.373 329.974 Z" fill="#ac8d18" fill-rule="evenodd" fill-opacity="1" stroke="#000000" stroke-opacity="1" stroke-width="4.55111"/>
<path clip-path="url(#clip970)" d="M486.767 352.675 L486.767 365.337 L494.267 365.337 Q498.04 365.337 499.845 363.786 Q501.674 362.212 501.674 358.994 Q501.674 355.753 499.845 354.226 Q498.04 352.675 494.267 352.675 L486.767 352.675 M486.767 338.462 L486.767 348.878 L493.688 348.878 Q497.114 348.878 498.78 347.605 Q500.47 346.309 500.47 343.67 Q500.47 341.054 498.78 339.758 Q497.114 338.462 493.688 338.462 L486.767 338.462 M482.091 334.619 L494.035 334.619 Q499.382 334.619 502.276 336.841 Q505.169 339.064 505.169 343.161 Q505.169 346.332 503.688 348.207 Q502.206 350.082 499.336 350.545 Q502.785 351.286 504.683 353.647 Q506.604 355.985 506.604 359.503 Q506.604 364.133 503.456 366.656 Q500.308 369.179 494.498 369.179 L482.091 369.179 L482.091 334.619 Z" fill="#000000" fill-rule="nonzero" fill-opacity="1" /><path clip-path="url(#clip970)" d="M529.452 347.235 Q528.734 346.818 527.877 346.633 Q527.044 346.425 526.026 346.425 Q522.415 346.425 520.47 348.786 Q518.549 351.124 518.549 355.522 L518.549 369.179 L514.266 369.179 L514.266 343.253 L518.549 343.253 L518.549 347.281 Q519.891 344.92 522.044 343.786 Q524.197 342.628 527.276 342.628 Q527.715 342.628 528.248 342.698 Q528.78 342.744 529.428 342.86 L529.452 347.235 Z" fill="#000000" fill-rule="nonzero" fill-opacity="1" /><path clip-path="url(#clip970)" d="M533.479 358.948 L533.479 343.253 L537.739 343.253 L537.739 358.786 Q537.739 362.466 539.174 364.318 Q540.609 366.147 543.479 366.147 Q546.928 366.147 548.919 363.948 Q550.933 361.749 550.933 357.952 L550.933 343.253 L555.192 343.253 L555.192 369.179 L550.933 369.179 L550.933 365.198 Q549.382 367.559 547.322 368.716 Q545.285 369.85 542.576 369.85 Q538.109 369.85 535.794 367.073 Q533.479 364.295 533.479 358.948 M544.197 342.628 L544.197 342.628 Z" fill="#000000" fill-rule="nonzero" fill-opacity="1" /><path clip-path="url(#clip970)" d="M585.516 353.531 L585.516 369.179 L581.257 369.179 L581.257 353.67 Q581.257 349.989 579.822 348.161 Q578.386 346.332 575.516 346.332 Q572.067 346.332 570.076 348.531 Q568.086 350.73 568.086 354.526 L568.086 369.179 L563.803 369.179 L563.803 343.253 L568.086 343.253 L568.086 347.281 Q569.613 344.943 571.674 343.786 Q573.757 342.628 576.465 342.628 Q580.933 342.628 583.224 345.406 Q585.516 348.161 585.516 353.531 Z" fill="#000000" fill-rule="nonzero" fill-opacity="1" /><path clip-path="url(#clip970)" d="M604.058 346.239 Q600.632 346.239 598.641 348.925 Q596.65 351.587 596.65 356.239 Q596.65 360.892 598.618 363.577 Q600.609 366.239 604.058 366.239 Q607.46 366.239 609.451 363.554 Q611.442 360.869 611.442 356.239 Q611.442 351.633 609.451 348.948 Q607.46 346.239 604.058 346.239 M604.058 342.628 Q609.613 342.628 612.784 346.239 Q615.956 349.851 615.956 356.239 Q615.956 362.605 612.784 366.239 Q609.613 369.85 604.058 369.85 Q598.479 369.85 595.308 366.239 Q592.16 362.605 592.16 356.239 Q592.16 349.851 595.308 346.239 Q598.479 342.628 604.058 342.628 Z" fill="#000000" fill-rule="nonzero" fill-opacity="1" /><path clip-path="url(#clip970)" d="M664.15 337.281 L664.15 342.212 Q661.789 340.013 659.104 338.925 Q656.442 337.837 653.432 337.837 Q647.506 337.837 644.358 341.471 Q641.21 345.082 641.21 351.934 Q641.21 358.763 644.358 362.397 Q647.506 366.008 653.432 366.008 Q656.442 366.008 659.104 364.92 Q661.789 363.832 664.15 361.633 L664.15 366.517 Q661.696 368.184 658.942 369.017 Q656.21 369.85 653.155 369.85 Q645.307 369.85 640.794 365.059 Q636.28 360.244 636.28 351.934 Q636.28 343.601 640.794 338.809 Q645.307 333.994 653.155 333.994 Q656.256 333.994 658.988 334.828 Q661.742 335.638 664.15 337.281 Z" fill="#000000" fill-rule="nonzero" fill-opacity="1" /><path clip-path="url(#clip970)" d="M682.969 356.147 Q677.807 356.147 675.816 357.327 Q673.826 358.508 673.826 361.355 Q673.826 363.624 675.307 364.966 Q676.812 366.286 679.381 366.286 Q682.923 366.286 685.053 363.786 Q687.205 361.263 687.205 357.096 L687.205 356.147 L682.969 356.147 M691.465 354.388 L691.465 369.179 L687.205 369.179 L687.205 365.244 Q685.747 367.605 683.571 368.739 Q681.395 369.85 678.247 369.85 Q674.266 369.85 671.904 367.628 Q669.567 365.383 669.567 361.633 Q669.567 357.258 672.483 355.036 Q675.423 352.814 681.233 352.814 L687.205 352.814 L687.205 352.397 Q687.205 349.457 685.261 347.86 Q683.34 346.239 679.844 346.239 Q677.622 346.239 675.516 346.772 Q673.409 347.304 671.465 348.369 L671.465 344.434 Q673.803 343.531 676.002 343.091 Q678.201 342.628 680.284 342.628 Q685.909 342.628 688.687 345.545 Q691.465 348.462 691.465 354.388 Z" fill="#000000" fill-rule="nonzero" fill-opacity="1" /><path clip-path="url(#clip970)" d="M715.261 347.235 Q714.543 346.818 713.687 346.633 Q712.853 346.425 711.835 346.425 Q708.224 346.425 706.279 348.786 Q704.358 351.124 704.358 355.522 L704.358 369.179 L700.076 369.179 L700.076 343.253 L704.358 343.253 L704.358 347.281 Q705.701 344.92 707.853 343.786 Q710.006 342.628 713.085 342.628 Q713.525 342.628 714.057 342.698 Q714.589 342.744 715.238 342.86 L715.261 347.235 Z" fill="#000000" fill-rule="nonzero" fill-opacity="1" /><path clip-path="url(#clip970)" d="M739.08 348.23 Q740.677 345.36 742.899 343.994 Q745.122 342.628 748.131 342.628 Q752.182 342.628 754.381 345.476 Q756.58 348.3 756.58 353.531 L756.58 369.179 L752.298 369.179 L752.298 353.67 Q752.298 349.943 750.978 348.138 Q749.659 346.332 746.95 346.332 Q743.64 346.332 741.719 348.531 Q739.798 350.73 739.798 354.526 L739.798 369.179 L735.515 369.179 L735.515 353.67 Q735.515 349.92 734.196 348.138 Q732.876 346.332 730.122 346.332 Q726.858 346.332 724.937 348.554 Q723.015 350.753 723.015 354.526 L723.015 369.179 L718.733 369.179 L718.733 343.253 L723.015 343.253 L723.015 347.281 Q724.474 344.897 726.511 343.763 Q728.548 342.628 731.349 342.628 Q734.173 342.628 736.14 344.064 Q738.131 345.499 739.08 348.23 Z" fill="#000000" fill-rule="nonzero" fill-opacity="1" /><path clip-path="url(#clip970)" d="M775.121 346.239 Q771.696 346.239 769.705 348.925 Q767.714 351.587 767.714 356.239 Q767.714 360.892 769.682 363.577 Q771.672 366.239 775.121 366.239 Q778.524 366.239 780.515 363.554 Q782.506 360.869 782.506 356.239 Q782.506 351.633 780.515 348.948 Q778.524 346.239 775.121 346.239 M775.121 342.628 Q780.677 342.628 783.848 346.239 Q787.02 349.851 787.02 356.239 Q787.02 362.605 783.848 366.239 Q780.677 369.85 775.121 369.85 Q769.543 369.85 766.372 366.239 Q763.223 362.605 763.223 356.239 Q763.223 349.851 766.372 346.239 Q769.543 342.628 775.121 342.628 Z" fill="#000000" fill-rule="nonzero" fill-opacity="1" /></svg>
