<?xml version="1.0" encoding="utf-8"?>
<svg xmlns="http://www.w3.org/2000/svg" xmlns:xlink="http://www.w3.org/1999/xlink" width="600" height="400" viewBox="0 0 2400 1600">
<defs>
  <clipPath id="clip910">
    <rect x="0" y="0" width="2400" height="1600"/>
  </clipPath>
</defs>
<path clip-path="url(#clip910)" d="M0 1600 L2400 1600 L2400 0 L0 0  Z" fill="#ffffff" fill-rule="evenodd" fill-opacity="1"/>
<defs>
  <clipPath id="clip911">
    <rect x="480" y="0" width="1681" height="1600"/>
  </clipPath>
</defs>
<path clip-path="url(#clip910)" d="M244.451 1410.9 L2352.76 1410.9 L2352.76 47.2441 L244.451 47.2441  Z" fill="#ffffff" fill-rule="evenodd" fill-opacity="1"/>
<defs>
  <clipPath id="clip912">
    <rect x="244" y="47" width="2109" height="1365"/>
  </clipPath>
</defs>
<polyline clip-path="url(#clip912)" style="stroke:#000000; stroke-linecap:round; stroke-linejoin:round; stroke-width:2; stroke-opacity:0.1; fill:none" points="632.779,1410.9 632.779,47.2441 "/>
<polyline clip-path="url(#clip912)" style="stroke:#000000; stroke-linecap:round; stroke-linejoin:round; stroke-width:2; stroke-opacity:0.1; fill:none" points="1045.73,1410.9 1045.73,47.2441 "/>
<polyline clip-path="url(#clip912)" style="stroke:#000000; stroke-linecap:round; stroke-linejoin:round; stroke-width:2; stroke-opacity:0.1; fill:none" points="1458.68,1410.9 1458.68,47.2441 "/>
<polyline clip-path="url(#clip912)" style="stroke:#000000; stroke-linecap:round; stroke-linejoin:round; stroke-width:2; stroke-opacity:0.1; fill:none" points="1871.63,1410.9 1871.63,47.2441 "/>
<polyline clip-path="url(#clip912)" style="stroke:#000000; stroke-linecap:round; stroke-linejoin:round; stroke-width:2; stroke-opacity:0.1; fill:none" points="2284.58,1410.9 2284.58,47.2441 "/>
<polyline clip-path="url(#clip910)" style="stroke:#000000; stroke-linecap:round; stroke-linejoin:round; stroke-width:4; stroke-opacity:1; fill:none" points="244.451,1410.9 2352.76,1410.9 "/>
<polyline clip-path="url(#clip910)" style="stroke:#000000; stroke-linecap:round; stroke-linejoin:round; stroke-width:4; stroke-opacity:1; fill:none" points="632.779,1410.9 632.779,1392 "/>
<polyline clip-path="url(#clip910)" style="stroke:#000000; stroke-linecap:round; stroke-linejoin:round; stroke-width:4; stroke-opacity:1; fill:none" points="1045.73,1410.9 1045.73,1392 "/>
<polyline clip-path="url(#clip910)" style="stroke:#000000; stroke-linecap:round; stroke-linejoin:round; stroke-width:4; stroke-opacity:1; fill:none" points="1458.68,1410.9 1458.68,1392 "/>
<polyline clip-path="url(#clip910)" style="stroke:#000000; stroke-linecap:round; stroke-linejoin:round; stroke-width:4; stroke-opacity:1; fill:none" points="1871.63,1410.9 1871.63,1392 "/>
<polyline clip-path="url(#clip910)" style="stroke:#000000; stroke-linecap:round; stroke-linejoin:round; stroke-width:4; stroke-opacity:1; fill:none" points="2284.58,1410.9 2284.58,1392 "/>
<path clip-path="url(#clip910)" d="M598.552 1485.02 L606.19 1485.02 L606.19 1458.66 L597.88 1460.32 L597.88 1456.06 L606.144 1454.4 L610.82 1454.4 L610.82 1485.02 L618.459 1485.02 L618.459 1488.96 L598.552 1488.96 L598.552 1485.02 Z" fill="#000000" fill-rule="nonzero" fill-opacity="1" /><path clip-path="url(#clip910)" d="M637.903 1457.48 Q634.292 1457.48 632.463 1461.04 Q630.658 1464.58 630.658 1471.71 Q630.658 1478.82 632.463 1482.38 Q634.292 1485.92 637.903 1485.92 Q641.537 1485.92 643.343 1482.38 Q645.172 1478.82 645.172 1471.71 Q645.172 1464.58 643.343 1461.04 Q641.537 1457.48 637.903 1457.48 M637.903 1453.77 Q643.713 1453.77 646.769 1458.38 Q649.848 1462.96 649.848 1471.71 Q649.848 1480.44 646.769 1485.04 Q643.713 1489.63 637.903 1489.63 Q632.093 1489.63 629.014 1485.04 Q625.959 1480.44 625.959 1471.71 Q625.959 1462.96 629.014 1458.38 Q632.093 1453.77 637.903 1453.77 Z" fill="#000000" fill-rule="nonzero" fill-opacity="1" /><path clip-path="url(#clip910)" d="M654.418 1458.35 L667.677 1458.35 L667.677 1461.55 L649.848 1461.55 L649.848 1458.35 Q652.011 1456.11 655.734 1452.35 Q659.477 1448.57 660.436 1447.48 Q662.261 1445.43 662.975 1444.02 Q663.709 1442.59 663.709 1441.22 Q663.709 1438.98 662.129 1437.57 Q660.568 1436.16 658.048 1436.16 Q656.261 1436.16 654.267 1436.78 Q652.293 1437.4 650.036 1438.66 L650.036 1434.82 Q652.33 1433.9 654.324 1433.43 Q656.317 1432.96 657.973 1432.96 Q662.336 1432.96 664.931 1435.14 Q667.527 1437.32 667.527 1440.97 Q667.527 1442.7 666.869 1444.26 Q666.229 1445.8 664.518 1447.91 Q664.047 1448.46 661.527 1451.07 Q659.007 1453.67 654.418 1458.35 Z" fill="#000000" fill-rule="nonzero" fill-opacity="1" /><path clip-path="url(#clip910)" d="M1011.17 1485.02 L1018.81 1485.02 L1018.81 1458.66 L1010.5 1460.32 L1010.5 1456.06 L1018.77 1454.4 L1023.44 1454.4 L1023.44 1485.02 L1031.08 1485.02 L1031.08 1488.96 L1011.17 1488.96 L1011.17 1485.02 Z" fill="#000000" fill-rule="nonzero" fill-opacity="1" /><path clip-path="url(#clip910)" d="M1050.52 1457.48 Q1046.91 1457.48 1045.08 1461.04 Q1043.28 1464.58 1043.28 1471.71 Q1043.28 1478.82 1045.08 1482.38 Q1046.91 1485.92 1050.52 1485.92 Q1054.16 1485.92 1055.96 1482.38 Q1057.79 1478.82 1057.79 1471.71 Q1057.79 1464.58 1055.96 1461.04 Q1054.16 1457.48 1050.52 1457.48 M1050.52 1453.77 Q1056.33 1453.77 1059.39 1458.38 Q1062.47 1462.96 1062.47 1471.71 Q1062.47 1480.44 1059.39 1485.04 Q1056.33 1489.63 1050.52 1489.63 Q1044.71 1489.63 1041.64 1485.04 Q1038.58 1480.44 1038.58 1471.71 Q1038.58 1462.96 1041.64 1458.38 Q1044.71 1453.77 1050.52 1453.77 Z" fill="#000000" fill-rule="nonzero" fill-opacity="1" /><path clip-path="url(#clip910)" d="M1075.16 1446.41 Q1077.89 1446.99 1079.41 1448.83 Q1080.96 1450.68 1080.96 1453.38 Q1080.96 1457.54 1078.1 1459.82 Q1075.24 1462.09 1069.97 1462.09 Q1068.21 1462.09 1066.32 1461.73 Q1064.46 1461.4 1062.47 1460.7 L1062.47 1457.03 Q1064.05 1457.95 1065.93 1458.42 Q1067.81 1458.89 1069.86 1458.89 Q1073.43 1458.89 1075.3 1457.48 Q1077.18 1456.07 1077.18 1453.38 Q1077.18 1450.9 1075.43 1449.51 Q1073.7 1448.1 1070.59 1448.1 L1067.32 1448.1 L1067.32 1444.98 L1070.74 1444.98 Q1073.55 1444.98 1075.03 1443.87 Q1076.52 1442.74 1076.52 1440.63 Q1076.52 1438.47 1074.98 1437.32 Q1073.45 1436.16 1070.59 1436.16 Q1069.03 1436.16 1067.25 1436.49 Q1065.46 1436.83 1063.32 1437.55 L1063.32 1434.16 Q1065.48 1433.56 1067.36 1433.26 Q1069.26 1432.96 1070.93 1432.96 Q1075.26 1432.96 1077.78 1434.93 Q1080.3 1436.89 1080.3 1440.24 Q1080.3 1442.57 1078.96 1444.19 Q1077.63 1445.79 1075.16 1446.41 Z" fill="#000000" fill-rule="nonzero" fill-opacity="1" /><path clip-path="url(#clip910)" d="M1423.14 1485.02 L1430.77 1485.02 L1430.77 1458.66 L1422.46 1460.32 L1422.46 1456.06 L1430.73 1454.4 L1435.4 1454.4 L1435.4 1485.02 L1443.04 1485.02 L1443.04 1488.96 L1423.14 1488.96 L1423.14 1485.02 Z" fill="#000000" fill-rule="nonzero" fill-opacity="1" /><path clip-path="url(#clip910)" d="M1462.49 1457.48 Q1458.88 1457.48 1457.05 1461.04 Q1455.24 1464.58 1455.24 1471.71 Q1455.24 1478.82 1457.05 1482.38 Q1458.88 1485.92 1462.49 1485.92 Q1466.12 1485.92 1467.93 1482.38 Q1469.76 1478.82 1469.76 1471.71 Q1469.76 1464.58 1467.93 1461.04 Q1466.12 1457.48 1462.49 1457.48 M1462.49 1453.77 Q1468.3 1453.77 1471.35 1458.38 Q1474.43 1462.96 1474.43 1471.71 Q1474.43 1480.44 1471.35 1485.04 Q1468.3 1489.63 1462.49 1489.63 Q1456.68 1489.63 1453.6 1485.04 Q1450.54 1480.44 1450.54 1471.71 Q1450.54 1462.96 1453.6 1458.38 Q1456.68 1453.77 1462.49 1453.77 Z" fill="#000000" fill-rule="nonzero" fill-opacity="1" /><path clip-path="url(#clip910)" d="M1487.11 1436.78 L1477.52 1451.77 L1487.11 1451.77 L1487.11 1436.78 M1486.11 1433.47 L1490.89 1433.47 L1490.89 1451.77 L1494.89 1451.77 L1494.89 1454.93 L1490.89 1454.93 L1490.89 1461.55 L1487.11 1461.55 L1487.11 1454.93 L1474.43 1454.93 L1474.43 1451.26 L1486.11 1433.47 Z" fill="#000000" fill-rule="nonzero" fill-opacity="1" /><path clip-path="url(#clip910)" d="M1837.23 1485.02 L1844.87 1485.02 L1844.87 1458.66 L1836.56 1460.32 L1836.56 1456.06 L1844.83 1454.4 L1849.5 1454.4 L1849.5 1485.02 L1857.14 1485.02 L1857.14 1488.96 L1837.23 1488.96 L1837.23 1485.02 Z" fill="#000000" fill-rule="nonzero" fill-opacity="1" /><path clip-path="url(#clip910)" d="M1876.58 1457.48 Q1872.97 1457.48 1871.15 1461.04 Q1869.34 1464.58 1869.34 1471.71 Q1869.34 1478.82 1871.15 1482.38 Q1872.97 1485.92 1876.58 1485.92 Q1880.22 1485.92 1882.02 1482.38 Q1883.85 1478.82 1883.85 1471.71 Q1883.85 1464.58 1882.02 1461.04 Q1880.22 1457.48 1876.58 1457.48 M1876.58 1453.77 Q1882.4 1453.77 1885.45 1458.38 Q1888.53 1462.96 1888.53 1471.71 Q1888.53 1480.44 1885.45 1485.04 Q1882.4 1489.63 1876.58 1489.63 Q1870.77 1489.63 1867.7 1485.04 Q1864.64 1480.44 1864.64 1471.71 Q1864.64 1462.96 1867.7 1458.38 Q1870.77 1453.77 1876.58 1453.77 Z" fill="#000000" fill-rule="nonzero" fill-opacity="1" /><path clip-path="url(#clip910)" d="M1889.71 1433.47 L1904.63 1433.47 L1904.63 1436.66 L1893.19 1436.66 L1893.19 1443.55 Q1894.02 1443.27 1894.85 1443.13 Q1895.68 1442.98 1896.5 1442.98 Q1901.21 1442.98 1903.95 1445.56 Q1906.7 1448.14 1906.7 1452.54 Q1906.7 1457.07 1903.88 1459.59 Q1901.06 1462.09 1895.92 1462.09 Q1894.15 1462.09 1892.31 1461.79 Q1890.49 1461.49 1888.53 1460.89 L1888.53 1457.07 Q1890.22 1457.99 1892.03 1458.44 Q1893.83 1458.89 1895.85 1458.89 Q1899.1 1458.89 1901 1457.18 Q1902.9 1455.47 1902.9 1452.54 Q1902.9 1449.6 1901 1447.89 Q1899.1 1446.18 1895.85 1446.18 Q1894.32 1446.18 1892.8 1446.52 Q1891.29 1446.86 1889.71 1447.57 L1889.71 1433.47 Z" fill="#000000" fill-rule="nonzero" fill-opacity="1" /><path clip-path="url(#clip910)" d="M2249.57 1485.02 L2257.21 1485.02 L2257.21 1458.66 L2248.9 1460.32 L2248.9 1456.06 L2257.16 1454.4 L2261.84 1454.4 L2261.84 1485.02 L2269.48 1485.02 L2269.48 1488.96 L2249.57 1488.96 L2249.57 1485.02 Z" fill="#000000" fill-rule="nonzero" fill-opacity="1" /><path clip-path="url(#clip910)" d="M2288.92 1457.48 Q2285.31 1457.48 2283.48 1461.04 Q2281.68 1464.58 2281.68 1471.71 Q2281.68 1478.82 2283.48 1482.38 Q2285.31 1485.92 2288.92 1485.92 Q2292.56 1485.92 2294.36 1482.38 Q2296.19 1478.82 2296.19 1471.71 Q2296.19 1464.58 2294.36 1461.04 Q2292.56 1457.48 2288.92 1457.48 M2288.92 1453.77 Q2294.73 1453.77 2297.79 1458.38 Q2300.87 1462.96 2300.87 1471.71 Q2300.87 1480.44 2297.79 1485.04 Q2294.73 1489.63 2288.92 1489.63 Q2283.11 1489.63 2280.04 1485.04 Q2276.98 1480.44 2276.98 1471.71 Q2276.98 1462.96 2280.04 1458.38 Q2283.11 1453.77 2288.92 1453.77 Z" fill="#000000" fill-rule="nonzero" fill-opacity="1" /><path clip-path="url(#clip910)" d="M2310.89 1445.99 Q2308.34 1445.99 2306.83 1447.74 Q2305.34 1449.49 2305.34 1452.54 Q2305.34 1455.57 2306.83 1457.33 Q2308.34 1459.08 2310.89 1459.08 Q2313.45 1459.08 2314.94 1457.33 Q2316.44 1455.57 2316.44 1452.54 Q2316.44 1449.49 2314.94 1447.74 Q2313.45 1445.99 2310.89 1445.99 M2318.43 1434.09 L2318.43 1437.55 Q2317.01 1436.87 2315.54 1436.51 Q2314.09 1436.16 2312.66 1436.16 Q2308.9 1436.16 2306.91 1438.69 Q2304.93 1441.23 2304.65 1446.37 Q2305.76 1444.73 2307.43 1443.87 Q2309.11 1442.98 2311.12 1442.98 Q2315.35 1442.98 2317.8 1445.56 Q2320.26 1448.12 2320.26 1452.54 Q2320.26 1456.86 2317.7 1459.48 Q2315.14 1462.09 2310.89 1462.09 Q2306.02 1462.09 2303.45 1458.37 Q2300.87 1454.62 2300.87 1447.53 Q2300.87 1440.88 2304.03 1436.93 Q2307.19 1432.96 2312.51 1432.96 Q2313.94 1432.96 2315.39 1433.24 Q2316.86 1433.52 2318.43 1434.09 Z" fill="#000000" fill-rule="nonzero" fill-opacity="1" /><path clip-path="url(#clip910)" d="M1153.27 1526.67 L1161.93 1526.67 L1183 1566.42 L1183 1526.67 L1189.24 1526.67 L1189.24 1574.19 L1180.58 1574.19 L1159.51 1534.43 L1159.51 1574.19 L1153.27 1574.19 L1153.27 1526.67 Z" fill="#000000" fill-rule="nonzero" fill-opacity="1" /><path clip-path="url(#clip910)" d="M1236.57 1524.72 Q1232.3 1532.04 1230.24 1539.21 Q1228.17 1546.37 1228.17 1553.72 Q1228.17 1561.07 1230.24 1568.3 Q1232.34 1575.49 1236.57 1582.78 L1231.48 1582.78 Q1226.7 1575.3 1224.32 1568.07 Q1221.96 1560.85 1221.96 1553.72 Q1221.96 1546.62 1224.32 1539.43 Q1226.67 1532.24 1231.48 1524.72 L1236.57 1524.72 Z" fill="#000000" fill-rule="nonzero" fill-opacity="1" /><path clip-path="url(#clip910)" d="M1247.93 1524.66 L1253.79 1524.66 L1253.79 1574.19 L1247.93 1574.19 L1247.93 1524.66 Z" fill="#000000" fill-rule="nonzero" fill-opacity="1" /><path clip-path="url(#clip910)" d="M1279.86 1542.64 Q1275.15 1542.64 1272.41 1546.34 Q1269.67 1550 1269.67 1556.39 Q1269.67 1562.79 1272.38 1566.48 Q1275.11 1570.14 1279.86 1570.14 Q1284.54 1570.14 1287.27 1566.45 Q1290.01 1562.76 1290.01 1556.39 Q1290.01 1550.06 1287.27 1546.37 Q1284.54 1542.64 1279.86 1542.64 M1279.86 1537.68 Q1287.5 1537.68 1291.86 1542.64 Q1296.22 1547.61 1296.22 1556.39 Q1296.22 1565.15 1291.86 1570.14 Q1287.5 1575.11 1279.86 1575.11 Q1272.19 1575.11 1267.83 1570.14 Q1263.5 1565.15 1263.5 1556.39 Q1263.5 1547.61 1267.83 1542.64 Q1272.19 1537.68 1279.86 1537.68 Z" fill="#000000" fill-rule="nonzero" fill-opacity="1" /><path clip-path="url(#clip910)" d="M1329.38 1555.95 Q1329.38 1549.58 1326.74 1546.08 Q1324.13 1542.58 1319.39 1542.58 Q1314.68 1542.58 1312.04 1546.08 Q1309.43 1549.58 1309.43 1555.95 Q1309.43 1562.28 1312.04 1565.78 Q1314.68 1569.28 1319.39 1569.28 Q1324.13 1569.28 1326.74 1565.78 Q1329.38 1562.28 1329.38 1555.95 M1335.24 1569.76 Q1335.24 1578.86 1331.2 1583.29 Q1327.15 1587.74 1318.81 1587.74 Q1315.73 1587.74 1312.99 1587.27 Q1310.25 1586.82 1307.67 1585.87 L1307.67 1580.17 Q1310.25 1581.57 1312.77 1582.24 Q1315.28 1582.91 1317.89 1582.91 Q1323.65 1582.91 1326.52 1579.88 Q1329.38 1576.89 1329.38 1570.81 L1329.38 1567.92 Q1327.57 1571.07 1324.73 1572.63 Q1321.9 1574.19 1317.96 1574.19 Q1311.4 1574.19 1307.39 1569.19 Q1303.38 1564.19 1303.38 1555.95 Q1303.38 1547.67 1307.39 1542.68 Q1311.4 1537.68 1317.96 1537.68 Q1321.9 1537.68 1324.73 1539.24 Q1327.57 1540.8 1329.38 1543.95 L1329.38 1538.54 L1335.24 1538.54 L1335.24 1569.76 Z" fill="#000000" fill-rule="nonzero" fill-opacity="1" /><path clip-path="url(#clip910)" d="M1349.24 1568.77 L1359.75 1568.77 L1359.75 1532.52 L1348.32 1534.81 L1348.32 1528.96 L1359.68 1526.67 L1366.11 1526.67 L1366.11 1568.77 L1376.62 1568.77 L1376.62 1574.19 L1349.24 1574.19 L1349.24 1568.77 Z" fill="#000000" fill-rule="nonzero" fill-opacity="1" /><path clip-path="url(#clip910)" d="M1403.35 1530.9 Q1398.39 1530.9 1395.87 1535.8 Q1393.39 1540.67 1393.39 1550.47 Q1393.39 1560.24 1395.87 1565.15 Q1398.39 1570.02 1403.35 1570.02 Q1408.35 1570.02 1410.83 1565.15 Q1413.35 1560.24 1413.35 1550.47 Q1413.35 1540.67 1410.83 1535.8 Q1408.35 1530.9 1403.35 1530.9 M1403.35 1525.81 Q1411.34 1525.81 1415.54 1532.14 Q1419.77 1538.44 1419.77 1550.47 Q1419.77 1562.47 1415.54 1568.81 Q1411.34 1575.11 1403.35 1575.11 Q1395.36 1575.11 1391.13 1568.81 Q1386.93 1562.47 1386.93 1550.47 Q1386.93 1538.44 1391.13 1532.14 Q1395.36 1525.81 1403.35 1525.81 Z" fill="#000000" fill-rule="nonzero" fill-opacity="1" /><path clip-path="url(#clip910)" d="M1429.32 1524.72 L1434.42 1524.72 Q1439.19 1532.24 1441.55 1539.43 Q1443.93 1546.62 1443.93 1553.72 Q1443.93 1560.85 1441.55 1568.07 Q1439.19 1575.3 1434.42 1582.78 L1429.32 1582.78 Q1433.56 1575.49 1435.63 1568.3 Q1437.73 1561.07 1437.73 1553.72 Q1437.73 1546.37 1435.63 1539.21 Q1433.56 1532.04 1429.32 1524.72 Z" fill="#000000" fill-rule="nonzero" fill-opacity="1" /><polyline clip-path="url(#clip912)" style="stroke:#000000; stroke-linecap:round; stroke-linejoin:round; stroke-width:2; stroke-opacity:0.1; fill:none" points="244.451,1178.69 2352.76,1178.69 "/>
<polyline clip-path="url(#clip912)" style="stroke:#000000; stroke-linecap:round; stroke-linejoin:round; stroke-width:2; stroke-opacity:0.1; fill:none" points="244.451,383.636 2352.76,383.636 "/>
<polyline clip-path="url(#clip910)" style="stroke:#000000; stroke-linecap:round; stroke-linejoin:round; stroke-width:4; stroke-opacity:1; fill:none" points="244.451,1410.9 244.451,47.2441 "/>
<polyline clip-path="url(#clip910)" style="stroke:#000000; stroke-linecap:round; stroke-linejoin:round; stroke-width:4; stroke-opacity:1; fill:none" points="244.451,1178.69 263.349,1178.69 "/>
<polyline clip-path="url(#clip910)" style="stroke:#000000; stroke-linecap:round; stroke-linejoin:round; stroke-width:4; stroke-opacity:1; fill:none" points="244.451,383.636 263.349,383.636 "/>
<path clip-path="url(#clip910)" d="M138.987 1198.48 L146.625 1198.48 L146.625 1172.12 L138.315 1173.78 L138.315 1169.53 L146.579 1167.86 L151.255 1167.86 L151.255 1198.48 L158.894 1198.48 L158.894 1202.42 L138.987 1202.42 L138.987 1198.48 Z" fill="#000000" fill-rule="nonzero" fill-opacity="1" /><path clip-path="url(#clip910)" d="M178.338 1170.94 Q174.727 1170.94 172.898 1174.5 Q171.093 1178.04 171.093 1185.17 Q171.093 1192.28 172.898 1195.84 Q174.727 1199.39 178.338 1199.39 Q181.972 1199.39 183.778 1195.84 Q185.607 1192.28 185.607 1185.17 Q185.607 1178.04 183.778 1174.5 Q181.972 1170.94 178.338 1170.94 M178.338 1167.23 Q184.148 1167.23 187.204 1171.84 Q190.283 1176.42 190.283 1185.17 Q190.283 1193.9 187.204 1198.51 Q184.148 1203.09 178.338 1203.09 Q172.528 1203.09 169.449 1198.51 Q166.394 1193.9 166.394 1185.17 Q166.394 1176.42 169.449 1171.84 Q172.528 1167.23 178.338 1167.23 Z" fill="#000000" fill-rule="nonzero" fill-opacity="1" /><path clip-path="url(#clip910)" d="M191.467 1146.93 L206.382 1146.93 L206.382 1150.13 L194.947 1150.13 L194.947 1157.01 Q195.774 1156.73 196.602 1156.6 Q197.43 1156.44 198.257 1156.44 Q202.959 1156.44 205.705 1159.02 Q208.451 1161.6 208.451 1166 Q208.451 1170.53 205.63 1173.05 Q202.809 1175.55 197.674 1175.55 Q195.906 1175.55 194.063 1175.25 Q192.239 1174.95 190.283 1174.35 L190.283 1170.53 Q191.975 1171.45 193.781 1171.9 Q195.586 1172.36 197.599 1172.36 Q200.853 1172.36 202.752 1170.64 Q204.652 1168.93 204.652 1166 Q204.652 1163.07 202.752 1161.35 Q200.853 1159.64 197.599 1159.64 Q196.075 1159.64 194.552 1159.98 Q193.047 1160.32 191.467 1161.03 L191.467 1146.93 Z" fill="#000000" fill-rule="nonzero" fill-opacity="1" /><path clip-path="url(#clip910)" d="M114.931 403.428 L122.57 403.428 L122.57 377.062 L114.26 378.729 L114.26 374.47 L122.524 372.803 L127.2 372.803 L127.2 403.428 L134.839 403.428 L134.839 407.363 L114.931 407.363 L114.931 403.428 Z" fill="#000000" fill-rule="nonzero" fill-opacity="1" /><path clip-path="url(#clip910)" d="M154.283 375.882 Q150.672 375.882 148.843 379.447 Q147.038 382.988 147.038 390.118 Q147.038 397.224 148.843 400.789 Q150.672 404.331 154.283 404.331 Q157.917 404.331 159.723 400.789 Q161.552 397.224 161.552 390.118 Q161.552 382.988 159.723 379.447 Q157.917 375.882 154.283 375.882 M154.283 372.178 Q160.093 372.178 163.149 376.785 Q166.227 381.368 166.227 390.118 Q166.227 398.845 163.149 403.451 Q160.093 408.035 154.283 408.035 Q148.473 408.035 145.394 403.451 Q142.339 398.845 142.339 390.118 Q142.339 381.368 145.394 376.785 Q148.473 372.178 154.283 372.178 Z" fill="#000000" fill-rule="nonzero" fill-opacity="1" /><path clip-path="url(#clip910)" d="M166.773 376.756 L172.979 376.756 L172.979 355.333 L166.227 356.688 L166.227 353.227 L172.942 351.873 L176.741 351.873 L176.741 376.756 L182.948 376.756 L182.948 379.953 L166.773 379.953 L166.773 376.756 Z" fill="#000000" fill-rule="nonzero" fill-opacity="1" /><path clip-path="url(#clip910)" d="M198.746 354.374 Q195.812 354.374 194.326 357.271 Q192.859 360.148 192.859 365.941 Q192.859 371.715 194.326 374.611 Q195.812 377.489 198.746 377.489 Q201.699 377.489 203.166 374.611 Q204.652 371.715 204.652 365.941 Q204.652 360.148 203.166 357.271 Q201.699 354.374 198.746 354.374 M198.746 351.365 Q203.467 351.365 205.949 355.108 Q208.451 358.832 208.451 365.941 Q208.451 373.032 205.949 376.774 Q203.467 380.498 198.746 380.498 Q194.025 380.498 191.524 376.774 Q189.041 373.032 189.041 365.941 Q189.041 358.832 191.524 355.108 Q194.025 351.365 198.746 351.365 Z" fill="#000000" fill-rule="nonzero" fill-opacity="1" /><path clip-path="url(#clip910)" d="M35.1993 1134.37 Q31.2526 1132.18 29.3747 1129.12 Q27.4968 1126.07 27.4968 1121.93 Q27.4968 1116.36 31.4117 1113.34 Q35.2948 1110.31 42.4881 1110.31 L64.0042 1110.31 L64.0042 1116.2 L42.679 1116.2 Q37.5546 1116.2 35.072 1118.02 Q32.5894 1119.83 32.5894 1123.55 Q32.5894 1128.1 35.6131 1130.75 Q38.6368 1133.39 43.8567 1133.39 L64.0042 1133.39 L64.0042 1139.28 L42.679 1139.28 Q37.5228 1139.28 35.072 1141.09 Q32.5894 1142.9 32.5894 1146.69 Q32.5894 1151.18 35.6449 1153.82 Q38.6686 1156.46 43.8567 1156.46 L64.0042 1156.46 L64.0042 1162.35 L28.3562 1162.35 L28.3562 1156.46 L33.8944 1156.46 Q30.616 1154.46 29.0564 1151.66 Q27.4968 1148.86 27.4968 1145.01 Q27.4968 1141.12 29.4702 1138.42 Q31.4436 1135.68 35.1993 1134.37 Z" fill="#000000" fill-rule="nonzero" fill-opacity="1" /><path clip-path="url(#clip910)" d="M28.3562 1098.63 L28.3562 1092.78 L64.0042 1092.78 L64.0042 1098.63 L28.3562 1098.63 M14.479 1098.63 L14.479 1092.78 L21.895 1092.78 L21.895 1098.63 L14.479 1098.63 Z" fill="#000000" fill-rule="nonzero" fill-opacity="1" /><path clip-path="url(#clip910)" d="M42.4881 1050.89 L64.0042 1050.89 L64.0042 1056.75 L42.679 1056.75 Q37.6183 1056.75 35.1038 1058.72 Q32.5894 1060.69 32.5894 1064.64 Q32.5894 1069.38 35.6131 1072.12 Q38.6368 1074.86 43.8567 1074.86 L64.0042 1074.86 L64.0042 1080.74 L28.3562 1080.74 L28.3562 1074.86 L33.8944 1074.86 Q30.6797 1072.75 29.0883 1069.92 Q27.4968 1067.06 27.4968 1063.33 Q27.4968 1057.19 31.3163 1054.04 Q35.1038 1050.89 42.4881 1050.89 Z" fill="#000000" fill-rule="nonzero" fill-opacity="1" /><path clip-path="url(#clip910)" d="M28.3562 1039.21 L28.3562 1033.35 L64.0042 1033.35 L64.0042 1039.21 L28.3562 1039.21 M14.479 1039.21 L14.479 1033.35 L21.895 1033.35 L21.895 1039.21 L14.479 1039.21 Z" fill="#000000" fill-rule="nonzero" fill-opacity="1" /><path clip-path="url(#clip910)" d="M35.1993 993.343 Q31.2526 991.147 29.3747 988.091 Q27.4968 985.035 27.4968 980.898 Q27.4968 975.328 31.4117 972.304 Q35.2948 969.28 42.4881 969.28 L64.0042 969.28 L64.0042 975.169 L42.679 975.169 Q37.5546 975.169 35.072 976.983 Q32.5894 978.797 32.5894 982.521 Q32.5894 987.072 35.6131 989.714 Q38.6368 992.356 43.8567 992.356 L64.0042 992.356 L64.0042 998.244 L42.679 998.244 Q37.5228 998.244 35.072 1000.06 Q32.5894 1001.87 32.5894 1005.66 Q32.5894 1010.15 35.6449 1012.79 Q38.6686 1015.43 43.8567 1015.43 L64.0042 1015.43 L64.0042 1021.32 L28.3562 1021.32 L28.3562 1015.43 L33.8944 1015.43 Q30.616 1013.43 29.0564 1010.63 Q27.4968 1007.82 27.4968 1003.97 Q27.4968 1000.09 29.4702 997.385 Q31.4436 994.648 35.1993 993.343 Z" fill="#000000" fill-rule="nonzero" fill-opacity="1" /><path clip-path="url(#clip910)" d="M49.9359 958.204 L28.3562 958.204 L28.3562 952.348 L49.7131 952.348 Q54.7739 952.348 57.3202 950.374 Q59.8346 948.401 59.8346 944.454 Q59.8346 939.712 56.8109 936.974 Q53.7872 934.205 48.5673 934.205 L28.3562 934.205 L28.3562 928.349 L64.0042 928.349 L64.0042 934.205 L58.5296 934.205 Q61.7762 936.338 63.3676 939.171 Q64.9272 941.971 64.9272 945.695 Q64.9272 951.838 61.1078 955.021 Q57.2883 958.204 49.9359 958.204 M27.4968 943.467 L27.4968 943.467 Z" fill="#000000" fill-rule="nonzero" fill-opacity="1" /><path clip-path="url(#clip910)" d="M35.1993 888.531 Q31.2526 886.335 29.3747 883.28 Q27.4968 880.224 27.4968 876.086 Q27.4968 870.516 31.4117 867.493 Q35.2948 864.469 42.4881 864.469 L64.0042 864.469 L64.0042 870.357 L42.679 870.357 Q37.5546 870.357 35.072 872.171 Q32.5894 873.986 32.5894 877.71 Q32.5894 882.261 35.6131 884.903 Q38.6368 887.545 43.8567 887.545 L64.0042 887.545 L64.0042 893.433 L42.679 893.433 Q37.5228 893.433 35.072 895.247 Q32.5894 897.061 32.5894 900.849 Q32.5894 905.337 35.6449 907.979 Q38.6686 910.62 43.8567 910.62 L64.0042 910.62 L64.0042 916.509 L28.3562 916.509 L28.3562 910.62 L33.8944 910.62 Q30.616 908.615 29.0564 905.814 Q27.4968 903.013 27.4968 899.162 Q27.4968 895.279 29.4702 892.574 Q31.4436 889.836 35.1993 888.531 Z" fill="#000000" fill-rule="nonzero" fill-opacity="1" /><path clip-path="url(#clip910)" d="M18.2347 826.275 L28.3562 826.275 L28.3562 814.212 L32.9077 814.212 L32.9077 826.275 L52.2594 826.275 Q56.6199 826.275 57.8613 825.097 Q59.1026 823.888 59.1026 820.227 L59.1026 814.212 L64.0042 814.212 L64.0042 820.227 Q64.0042 827.007 61.4897 829.585 Q58.9434 832.163 52.2594 832.163 L32.9077 832.163 L32.9077 836.46 L28.3562 836.46 L28.3562 832.163 L18.2347 832.163 L18.2347 826.275 Z" fill="#000000" fill-rule="nonzero" fill-opacity="1" /><path clip-path="url(#clip910)" d="M28.3562 806.509 L28.3562 800.653 L64.0042 800.653 L64.0042 806.509 L28.3562 806.509 M14.479 806.509 L14.479 800.653 L21.895 800.653 L21.895 806.509 L14.479 806.509 Z" fill="#000000" fill-rule="nonzero" fill-opacity="1" /><path clip-path="url(#clip910)" d="M35.1993 760.644 Q31.2526 758.448 29.3747 755.393 Q27.4968 752.337 27.4968 748.199 Q27.4968 742.629 31.4117 739.606 Q35.2948 736.582 42.4881 736.582 L64.0042 736.582 L64.0042 742.47 L42.679 742.47 Q37.5546 742.47 35.072 744.284 Q32.5894 746.099 32.5894 749.823 Q32.5894 754.374 35.6131 757.016 Q38.6368 759.658 43.8567 759.658 L64.0042 759.658 L64.0042 765.546 L42.679 765.546 Q37.5228 765.546 35.072 767.36 Q32.5894 769.174 32.5894 772.962 Q32.5894 777.45 35.6449 780.092 Q38.6686 782.733 43.8567 782.733 L64.0042 782.733 L64.0042 788.622 L28.3562 788.622 L28.3562 782.733 L33.8944 782.733 Q30.616 780.728 29.0564 777.927 Q27.4968 775.126 27.4968 771.275 Q27.4968 767.392 29.4702 764.686 Q31.4436 761.949 35.1993 760.644 Z" fill="#000000" fill-rule="nonzero" fill-opacity="1" /><path clip-path="url(#clip910)" d="M44.7161 694.409 L47.5806 694.409 L47.5806 721.336 Q53.6281 720.954 56.8109 717.708 Q59.9619 714.429 59.9619 708.605 Q59.9619 705.231 59.1344 702.08 Q58.3069 698.897 56.6518 695.778 L62.1899 695.778 Q63.5267 698.929 64.227 702.239 Q64.9272 705.549 64.9272 708.955 Q64.9272 717.485 59.9619 722.482 Q54.9967 727.447 46.5303 727.447 Q37.7774 727.447 32.6531 722.736 Q27.4968 717.994 27.4968 709.973 Q27.4968 702.78 32.1438 698.61 Q36.7589 694.409 44.7161 694.409 M42.9973 700.266 Q38.1912 700.329 35.3266 702.971 Q32.4621 705.581 32.4621 709.91 Q32.4621 714.811 35.2312 717.771 Q38.0002 720.699 43.0292 721.145 L42.9973 700.266 Z" fill="#000000" fill-rule="nonzero" fill-opacity="1" /><path clip-path="url(#clip910)" d="M14.5426 650.008 Q21.8632 654.273 29.0246 656.342 Q36.186 658.411 43.5384 658.411 Q50.8908 658.411 58.1159 656.342 Q65.3091 654.241 72.5979 650.008 L72.5979 655.101 Q65.1182 659.875 57.8931 662.262 Q50.668 664.618 43.5384 664.618 Q36.4406 664.618 29.2474 662.262 Q22.0542 659.907 14.5426 655.101 L14.5426 650.008 Z" fill="#000000" fill-rule="nonzero" fill-opacity="1" /><path clip-path="url(#clip910)" d="M42.4881 609.013 L64.0042 609.013 L64.0042 614.87 L42.679 614.87 Q37.6183 614.87 35.1038 616.843 Q32.5894 618.816 32.5894 622.763 Q32.5894 627.506 35.6131 630.243 Q38.6368 632.98 43.8567 632.98 L64.0042 632.98 L64.0042 638.868 L28.3562 638.868 L28.3562 632.98 L33.8944 632.98 Q30.6797 630.879 29.0883 628.047 Q27.4968 625.182 27.4968 621.458 Q27.4968 615.315 31.3163 612.164 Q35.1038 609.013 42.4881 609.013 Z" fill="#000000" fill-rule="nonzero" fill-opacity="1" /><path clip-path="url(#clip910)" d="M29.4065 574.606 L34.9447 574.606 Q33.6716 577.089 33.035 579.763 Q32.3984 582.436 32.3984 585.301 Q32.3984 589.661 33.7352 591.858 Q35.072 594.022 37.7456 594.022 Q39.7826 594.022 40.9603 592.462 Q42.1061 590.903 43.1565 586.192 L43.6021 584.187 Q44.9389 577.948 47.3897 575.339 Q49.8086 572.697 54.1691 572.697 Q59.1344 572.697 62.0308 576.644 Q64.9272 580.558 64.9272 587.433 Q64.9272 590.298 64.3543 593.417 Q63.8132 596.505 62.6992 599.942 L56.6518 599.942 Q58.3387 596.695 59.198 593.544 Q60.0256 590.393 60.0256 587.306 Q60.0256 583.168 58.6251 580.94 Q57.1929 578.712 54.6147 578.712 Q52.2276 578.712 50.9545 580.336 Q49.6813 581.927 48.5037 587.37 L48.0262 589.407 Q46.8804 594.849 44.5251 597.268 Q42.138 599.687 38.0002 599.687 Q32.9713 599.687 30.2341 596.123 Q27.4968 592.558 27.4968 586.001 Q27.4968 582.755 27.9743 579.89 Q28.4517 577.025 29.4065 574.606 Z" fill="#000000" fill-rule="nonzero" fill-opacity="1" /><path clip-path="url(#clip910)" d="M14.5426 564.294 L14.5426 559.201 Q22.0542 554.427 29.2474 552.072 Q36.4406 549.685 43.5384 549.685 Q50.668 549.685 57.8931 552.072 Q65.1182 554.427 72.5979 559.201 L72.5979 564.294 Q65.3091 560.061 58.1159 557.992 Q50.8908 555.891 43.5384 555.891 Q36.186 555.891 29.0246 557.992 Q21.8632 560.061 14.5426 564.294 Z" fill="#000000" fill-rule="nonzero" fill-opacity="1" /><path clip-path="url(#clip910)" d="M14.5426 503.151 Q21.8632 507.416 29.0246 509.485 Q36.186 511.554 43.5384 511.554 Q50.8908 511.554 58.1159 509.485 Q65.3091 507.385 72.5979 503.151 L72.5979 508.244 Q65.1182 513.018 57.8931 515.405 Q50.668 517.761 43.5384 517.761 Q36.4406 517.761 29.2474 515.405 Q22.0542 513.05 14.5426 508.244 L14.5426 503.151 Z" fill="#000000" fill-rule="nonzero" fill-opacity="1" /><path clip-path="url(#clip910)" d="M14.479 491.789 L14.479 485.932 L64.0042 485.932 L64.0042 491.789 L14.479 491.789 Z" fill="#000000" fill-rule="nonzero" fill-opacity="1" /><path clip-path="url(#clip910)" d="M32.4621 459.865 Q32.4621 464.575 36.1542 467.313 Q39.8145 470.05 46.212 470.05 Q52.6095 470.05 56.3017 467.344 Q59.9619 464.607 59.9619 459.865 Q59.9619 455.186 56.2698 452.449 Q52.5777 449.711 46.212 449.711 Q39.8781 449.711 36.186 452.449 Q32.4621 455.186 32.4621 459.865 M27.4968 459.865 Q27.4968 452.226 32.4621 447.865 Q37.4273 443.505 46.212 443.505 Q54.9649 443.505 59.9619 447.865 Q64.9272 452.226 64.9272 459.865 Q64.9272 467.535 59.9619 471.896 Q54.9649 476.225 46.212 476.225 Q37.4273 476.225 32.4621 471.896 Q27.4968 467.535 27.4968 459.865 Z" fill="#000000" fill-rule="nonzero" fill-opacity="1" /><path clip-path="url(#clip910)" d="M45.7664 410.339 Q39.4007 410.339 35.8996 412.981 Q32.3984 415.591 32.3984 420.334 Q32.3984 425.044 35.8996 427.686 Q39.4007 430.296 45.7664 430.296 Q52.1003 430.296 55.6014 427.686 Q59.1026 425.044 59.1026 420.334 Q59.1026 415.591 55.6014 412.981 Q52.1003 410.339 45.7664 410.339 M59.58 404.483 Q68.683 404.483 73.1071 408.525 Q77.5631 412.567 77.5631 420.907 Q77.5631 423.994 77.0857 426.731 Q76.6401 429.468 75.6852 432.046 L69.9879 432.046 Q71.3884 429.468 72.0568 426.954 Q72.7252 424.439 72.7252 421.83 Q72.7252 416.069 69.7015 413.204 Q66.7096 410.339 60.6303 410.339 L57.7339 410.339 Q60.885 412.154 62.4446 414.986 Q64.0042 417.819 64.0042 421.766 Q64.0042 428.323 59.0071 432.333 Q54.01 436.343 45.7664 436.343 Q37.491 436.343 32.4939 432.333 Q27.4968 428.323 27.4968 421.766 Q27.4968 417.819 29.0564 414.986 Q30.616 412.154 33.7671 410.339 L28.3562 410.339 L28.3562 404.483 L59.58 404.483 Z" fill="#000000" fill-rule="nonzero" fill-opacity="1" /><path clip-path="url(#clip910)" d="M58.5933 390.478 L58.5933 379.975 L22.3406 379.975 L24.6323 391.401 L18.7758 391.401 L16.4842 380.039 L16.4842 373.609 L58.5933 373.609 L58.5933 363.106 L64.0042 363.106 L64.0042 390.478 L58.5933 390.478 Z" fill="#000000" fill-rule="nonzero" fill-opacity="1" /><path clip-path="url(#clip910)" d="M20.7174 336.37 Q20.7174 341.335 25.6189 343.85 Q30.4887 346.332 40.2919 346.332 Q50.0633 346.332 54.9649 343.85 Q59.8346 341.335 59.8346 336.37 Q59.8346 331.373 54.9649 328.89 Q50.0633 326.376 40.2919 326.376 Q30.4887 326.376 25.6189 328.89 Q20.7174 331.373 20.7174 336.37 M15.6248 336.37 Q15.6248 328.381 21.9587 324.18 Q28.2607 319.946 40.2919 319.946 Q52.2913 319.946 58.6251 324.18 Q64.9272 328.381 64.9272 336.37 Q64.9272 344.359 58.6251 348.592 Q52.2913 352.793 40.2919 352.793 Q28.2607 352.793 21.9587 348.592 Q15.6248 344.359 15.6248 336.37 Z" fill="#000000" fill-rule="nonzero" fill-opacity="1" /><path clip-path="url(#clip910)" d="M14.5426 310.398 L14.5426 305.305 Q22.0542 300.531 29.2474 298.176 Q36.4406 295.789 43.5384 295.789 Q50.668 295.789 57.8931 298.176 Q65.1182 300.531 72.5979 305.305 L72.5979 310.398 Q65.3091 306.165 58.1159 304.096 Q50.8908 301.995 43.5384 301.995 Q36.186 301.995 29.0246 304.096 Q21.8632 306.165 14.5426 310.398 Z" fill="#000000" fill-rule="nonzero" fill-opacity="1" /><polyline clip-path="url(#clip912)" style="stroke:#009af9; stroke-linecap:round; stroke-linejoin:round; stroke-width:4; stroke-opacity:1; fill:none" points="304.12,1279.32 552.741,1192.77 801.362,1092.1 1049.98,984.314 1298.6,856.797 1547.22,677.201 1795.85,493.284 2044.47,301.282 2293.09,86.3091 "/>
<circle clip-path="url(#clip912)" cx="304.12" cy="1279.32" r="14.4" fill="#009af9" fill-rule="evenodd" fill-opacity="1" stroke="#000000" stroke-opacity="1" stroke-width="3.2"/>
<circle clip-path="url(#clip912)" cx="552.741" cy="1192.77" r="14.4" fill="#009af9" fill-rule="evenodd" fill-opacity="1" stroke="#000000" stroke-opacity="1" stroke-width="3.2"/>
<circle clip-path="url(#clip912)" cx="801.362" cy="1092.1" r="14.4" fill="#009af9" fill-rule="evenodd" fill-opacity="1" stroke="#000000" stroke-opacity="1" stroke-width="3.2"/>
<circle clip-path="url(#clip912)" cx="1049.98" cy="984.314" r="14.4" fill="#009af9" fill-rule="evenodd" fill-opacity="1" stroke="#000000" stroke-opacity="1" stroke-width="3.2"/>
<circle clip-path="url(#clip912)" cx="1298.6" cy="856.797" r="14.4" fill="#009af9" fill-rule="evenodd" fill-opacity="1" stroke="#000000" stroke-opacity="1" stroke-width="3.2"/>
<circle clip-path="url(#clip912)" cx="1547.22" cy="677.201" r="14.4" fill="#009af9" fill-rule="evenodd" fill-opacity="1" stroke="#000000" stroke-opacity="1" stroke-width="3.2"/>
<circle clip-path="url(#clip912)" cx="1795.85" cy="493.284" r="14.4" fill="#009af9" fill-rule="evenodd" fill-opacity="1" stroke="#000000" stroke-opacity="1" stroke-width="3.2"/>
<circle clip-path="url(#clip912)" cx="2044.47" cy="301.282" r="14.4" fill="#009af9" fill-rule="evenodd" fill-opacity="1" stroke="#000000" stroke-opacity="1" stroke-width="3.2"/>
<circle clip-path="url(#clip912)" cx="2293.09" cy="86.3091" r="14.4" fill="#009af9" fill-rule="evenodd" fill-opacity="1" stroke="#000000" stroke-opacity="1" stroke-width="3.2"/>
<polyline clip-path="url(#clip912)" style="stroke:#e26f46; stroke-linecap:round; stroke-linejoin:round; stroke-width:4; stroke-opacity:1; fill:none" points="304.12,1282.41 552.741,1196.18 801.362,1094.54 1049.98,987.255 1298.6,858.556 1547.22,677.572 1795.85,493.318 2044.47,301.133 2293.09,86.3397 "/>
<path clip-path="url(#clip912)" d="M288.12 1266.41 L288.12 1298.41 L320.12 1298.41 L320.12 1266.41 L288.12 1266.41 Z" fill="#e26f46" fill-rule="evenodd" fill-opacity="1" stroke="#000000" stroke-opacity="1" stroke-width="3.2"/>
<path clip-path="url(#clip912)" d="M536.741 1180.18 L536.741 1212.18 L568.741 1212.18 L568.741 1180.18 L536.741 1180.18 Z" fill="#e26f46" fill-rule="evenodd" fill-opacity="1" stroke="#000000" stroke-opacity="1" stroke-width="3.2"/>
<path clip-path="url(#clip912)" d="M785.362 1078.54 L785.362 1110.54 L817.362 1110.54 L817.362 1078.54 L785.362 1078.54 Z" fill="#e26f46" fill-rule="evenodd" fill-opacity="1" stroke="#000000" stroke-opacity="1" stroke-width="3.2"/>
<path clip-path="url(#clip912)" d="M1033.98 971.255 L1033.98 1003.26 L1065.98 1003.26 L1065.98 971.255 L1033.98 971.255 Z" fill="#e26f46" fill-rule="evenodd" fill-opacity="1" stroke="#000000" stroke-opacity="1" stroke-width="3.2"/>
<path clip-path="url(#clip912)" d="M1282.6 842.556 L1282.6 874.556 L1314.6 874.556 L1314.6 842.556 L1282.6 842.556 Z" fill="#e26f46" fill-rule="evenodd" fill-opacity="1" stroke="#000000" stroke-opacity="1" stroke-width="3.2"/>
<path clip-path="url(#clip912)" d="M1531.22 661.572 L1531.22 693.572 L1563.22 693.572 L1563.22 661.572 L1531.22 661.572 Z" fill="#e26f46" fill-rule="evenodd" fill-opacity="1" stroke="#000000" stroke-opacity="1" stroke-width="3.2"/>
<path clip-path="url(#clip912)" d="M1779.85 477.318 L1779.85 509.318 L1811.85 509.318 L1811.85 477.318 L1779.85 477.318 Z" fill="#e26f46" fill-rule="evenodd" fill-opacity="1" stroke="#000000" stroke-opacity="1" stroke-width="3.2"/>
<path clip-path="url(#clip912)" d="M2028.47 285.133 L2028.47 317.133 L2060.47 317.133 L2060.47 285.133 L2028.47 285.133 Z" fill="#e26f46" fill-rule="evenodd" fill-opacity="1" stroke="#000000" stroke-opacity="1" stroke-width="3.2"/>
<path clip-path="url(#clip912)" d="M2277.09 70.3397 L2277.09 102.34 L2309.09 102.34 L2309.09 70.3397 L2277.09 70.3397 Z" fill="#e26f46" fill-rule="evenodd" fill-opacity="1" stroke="#000000" stroke-opacity="1" stroke-width="3.2"/>
<polyline clip-path="url(#clip912)" style="stroke:#3da44d; stroke-linecap:round; stroke-linejoin:round; stroke-width:4; stroke-opacity:1; fill:none" points="304.12,1267.25 552.741,1178.32 801.362,1078.74 1049.98,973.283 1298.6,849.52 1547.22,674.693 1795.85,492.449 2044.47,301.07 2293.09,86.0996 "/>
<path clip-path="url(#clip912)" d="M304.12 1251.25 L288.12 1267.25 L304.12 1283.25 L320.12 1267.25 L304.12 1251.25 Z" fill="#3da44d" fill-rule="evenodd" fill-opacity="1" stroke="#000000" stroke-opacity="1" stroke-width="3.2"/>
<path clip-path="url(#clip912)" d="M552.741 1162.32 L536.741 1178.32 L552.741 1194.32 L568.741 1178.32 L552.741 1162.32 Z" fill="#3da44d" fill-rule="evenodd" fill-opacity="1" stroke="#000000" stroke-opacity="1" stroke-width="3.2"/>
<path clip-path="url(#clip912)" d="M801.362 1062.74 L785.362 1078.74 L801.362 1094.74 L817.362 1078.74 L801.362 1062.74 Z" fill="#3da44d" fill-rule="evenodd" fill-opacity="1" stroke="#000000" stroke-opacity="1" stroke-width="3.2"/>
<path clip-path="url(#clip912)" d="M1049.98 957.283 L1033.98 973.283 L1049.98 989.283 L1065.98 973.283 L1049.98 957.283 Z" fill="#3da44d" fill-rule="evenodd" fill-opacity="1" stroke="#000000" stroke-opacity="1" stroke-width="3.2"/>
<path clip-path="url(#clip912)" d="M1298.6 833.52 L1282.6 849.52 L1298.6 865.52 L1314.6 849.52 L1298.6 833.52 Z" fill="#3da44d" fill-rule="evenodd" fill-opacity="1" stroke="#000000" stroke-opacity="1" stroke-width="3.2"/>
<path clip-path="url(#clip912)" d="M1547.22 658.693 L1531.22 674.693 L1547.22 690.693 L1563.22 674.693 L1547.22 658.693 Z" fill="#3da44d" fill-rule="evenodd" fill-opacity="1" stroke="#000000" stroke-opacity="1" stroke-width="3.2"/>
<path clip-path="url(#clip912)" d="M1795.85 476.449 L1779.85 492.449 L1795.85 508.449 L1811.85 492.449 L1795.85 476.449 Z" fill="#3da44d" fill-rule="evenodd" fill-opacity="1" stroke="#000000" stroke-opacity="1" stroke-width="3.2"/>
<path clip-path="url(#clip912)" d="M2044.47 285.07 L2028.47 301.07 L2044.47 317.07 L2060.47 301.07 L2044.47 285.07 Z" fill="#3da44d" fill-rule="evenodd" fill-opacity="1" stroke="#000000" stroke-opacity="1" stroke-width="3.2"/>
<path clip-path="url(#clip912)" d="M2293.09 70.0996 L2277.09 86.0996 L2293.09 102.1 L2309.09 86.0996 L2293.09 70.0996 Z" fill="#3da44d" fill-rule="evenodd" fill-opacity="1" stroke="#000000" stroke-opacity="1" stroke-width="3.2"/>
<polyline clip-path="url(#clip912)" style="stroke:#c271d2; stroke-linecap:round; stroke-linejoin:round; stroke-width:4; stroke-opacity:1; fill:none" points="304.12,1241.36 552.741,1147.44 801.362,1048.65 1049.98,946.206 1298.6,828.888 1547.22,667.04 1795.85,490.226 2044.47,300.365 2293.09,85.838 "/>
<path clip-path="url(#clip912)" d="M304.12 1225.36 L288.12 1257.36 L320.12 1257.36 L304.12 1225.36 Z" fill="#c271d2" fill-rule="evenodd" fill-opacity="1" stroke="#000000" stroke-opacity="1" stroke-width="3.2"/>
<path clip-path="url(#clip912)" d="M552.741 1131.44 L536.741 1163.44 L568.741 1163.44 L552.741 1131.44 Z" fill="#c271d2" fill-rule="evenodd" fill-opacity="1" stroke="#000000" stroke-opacity="1" stroke-width="3.2"/>
<path clip-path="url(#clip912)" d="M801.362 1032.65 L785.362 1064.65 L817.362 1064.65 L801.362 1032.65 Z" fill="#c271d2" fill-rule="evenodd" fill-opacity="1" stroke="#000000" stroke-opacity="1" stroke-width="3.2"/>
<path clip-path="url(#clip912)" d="M1049.98 930.206 L1033.98 962.206 L1065.98 962.206 L1049.98 930.206 Z" fill="#c271d2" fill-rule="evenodd" fill-opacity="1" stroke="#000000" stroke-opacity="1" stroke-width="3.2"/>
<path clip-path="url(#clip912)" d="M1298.6 812.888 L1282.6 844.888 L1314.6 844.888 L1298.6 812.888 Z" fill="#c271d2" fill-rule="evenodd" fill-opacity="1" stroke="#000000" stroke-opacity="1" stroke-width="3.2"/>
<path clip-path="url(#clip912)" d="M1547.22 651.04 L1531.22 683.04 L1563.22 683.04 L1547.22 651.04 Z" fill="#c271d2" fill-rule="evenodd" fill-opacity="1" stroke="#000000" stroke-opacity="1" stroke-width="3.2"/>
<path clip-path="url(#clip912)" d="M1795.85 474.226 L1779.85 506.226 L1811.85 506.226 L1795.85 474.226 Z" fill="#c271d2" fill-rule="evenodd" fill-opacity="1" stroke="#000000" stroke-opacity="1" stroke-width="3.2"/>
<path clip-path="url(#clip912)" d="M2044.47 284.365 L2028.47 316.365 L2060.47 316.365 L2044.47 284.365 Z" fill="#c271d2" fill-rule="evenodd" fill-opacity="1" stroke="#000000" stroke-opacity="1" stroke-width="3.2"/>
<path clip-path="url(#clip912)" d="M2293.09 69.838 L2277.09 101.838 L2309.09 101.838 L2293.09 69.838 Z" fill="#c271d2" fill-rule="evenodd" fill-opacity="1" stroke="#000000" stroke-opacity="1" stroke-width="3.2"/>
<polyline clip-path="url(#clip912)" style="stroke:#ac8d18; stroke-linecap:round; stroke-linejoin:round; stroke-width:4; stroke-opacity:1; fill:none" points="304.12,1372.3 552.741,1277.62 801.362,1181.82 1049.98,1086.04 1298.6,990.064 1547.22,893.925 1795.85,791.823 2044.47,692.337 2293.09,595.783 "/>
<path clip-path="url(#clip912)" d="M304.12 1356.3 L300.36 1367.12 L288.904 1367.36 L298.04 1374.29 L294.712 1385.25 L304.12 1378.7 L313.528 1385.25 L310.2 1374.29 L319.336 1367.36 L307.88 1367.12 L304.12 1356.3 Z" fill="#ac8d18" fill-rule="evenodd" fill-opacity="1" stroke="#000000" stroke-opacity="1" stroke-width="3.2"/>
<path clip-path="url(#clip912)" d="M552.741 1261.62 L548.981 1272.44 L537.525 1272.68 L546.661 1279.61 L543.333 1290.57 L552.741 1284.02 L562.149 1290.57 L558.821 1279.61 L567.957 1272.68 L556.501 1272.44 L552.741 1261.62 Z" fill="#ac8d18" fill-rule="evenodd" fill-opacity="1" stroke="#000000" stroke-opacity="1" stroke-width="3.2"/>
<path clip-path="url(#clip912)" d="M801.362 1165.82 L797.602 1176.64 L786.146 1176.88 L795.282 1183.81 L791.954 1194.77 L801.362 1188.22 L810.77 1194.77 L807.442 1183.81 L816.578 1176.88 L805.122 1176.64 L801.362 1165.82 Z" fill="#ac8d18" fill-rule="evenodd" fill-opacity="1" stroke="#000000" stroke-opacity="1" stroke-width="3.2"/>
<path clip-path="url(#clip912)" d="M1049.98 1070.04 L1046.22 1080.86 L1034.77 1081.1 L1043.9 1088.02 L1040.57 1098.98 L1049.98 1092.44 L1059.39 1098.98 L1056.06 1088.02 L1065.2 1081.1 L1053.74 1080.86 L1049.98 1070.04 Z" fill="#ac8d18" fill-rule="evenodd" fill-opacity="1" stroke="#000000" stroke-opacity="1" stroke-width="3.2"/>
<path clip-path="url(#clip912)" d="M1298.6 974.064 L1294.84 984.88 L1283.39 985.12 L1292.52 992.048 L1289.2 1003.01 L1298.6 996.464 L1308.01 1003.01 L1304.68 992.048 L1313.82 985.12 L1302.36 984.88 L1298.6 974.064 Z" fill="#ac8d18" fill-rule="evenodd" fill-opacity="1" stroke="#000000" stroke-opacity="1" stroke-width="3.2"/>
<path clip-path="url(#clip912)" d="M1547.22 877.925 L1543.46 888.741 L1532.01 888.981 L1541.14 895.909 L1537.82 906.869 L1547.22 900.325 L1556.63 906.869 L1553.3 895.909 L1562.44 888.981 L1550.98 888.741 L1547.22 877.925 Z" fill="#ac8d18" fill-rule="evenodd" fill-opacity="1" stroke="#000000" stroke-opacity="1" stroke-width="3.2"/>
<path clip-path="url(#clip912)" d="M1795.85 775.823 L1792.09 786.639 L1780.63 786.879 L1789.77 793.807 L1786.44 804.767 L1795.85 798.223 L1805.25 804.767 L1801.93 793.807 L1811.06 786.879 L1799.61 786.639 L1795.85 775.823 Z" fill="#ac8d18" fill-rule="evenodd" fill-opacity="1" stroke="#000000" stroke-opacity="1" stroke-width="3.2"/>
<path clip-path="url(#clip912)" d="M2044.47 676.337 L2040.71 687.153 L2029.25 687.393 L2038.39 694.321 L2035.06 705.281 L2044.47 698.737 L2053.87 705.281 L2050.55 694.321 L2059.68 687.393 L2048.23 687.153 L2044.47 676.337 Z" fill="#ac8d18" fill-rule="evenodd" fill-opacity="1" stroke="#000000" stroke-opacity="1" stroke-width="3.2"/>
<path clip-path="url(#clip912)" d="M2293.09 579.783 L2289.33 590.599 L2277.87 590.839 L2287.01 597.767 L2283.68 608.727 L2293.09 602.183 L2302.49 608.727 L2299.17 597.767 L2308.3 590.839 L2296.85 590.599 L2293.09 579.783 Z" fill="#ac8d18" fill-rule="evenodd" fill-opacity="1" stroke="#000000" stroke-opacity="1" stroke-width="3.2"/>
<path clip-path="url(#clip910)" d="M314.728 403.739 L830.487 403.739 L830.487 92.6992 L314.728 92.6992  Z" fill="#ffffff" fill-rule="evenodd" fill-opacity="1"/>
<polyline clip-path="url(#clip910)" style="stroke:#000000; stroke-linecap:round; stroke-linejoin:round; stroke-width:4; stroke-opacity:1; fill:none" points="314.728,403.739 830.487,403.739 830.487,92.6992 314.728,92.6992 314.728,403.739 "/>
<polyline clip-path="url(#clip910)" style="stroke:#009af9; stroke-linecap:round; stroke-linejoin:round; stroke-width:4; stroke-opacity:1; fill:none" points="338.153,144.539 478.707,144.539 "/>
<circle clip-path="url(#clip910)" cx="408.43" cy="144.539" r="19.5213" fill="#009af9" fill-rule="evenodd" fill-opacity="1" stroke="#000000" stroke-opacity="1" stroke-width="4.55111"/>
<path clip-path="url(#clip910)" d="M506.809 145.315 L506.809 157.977 L514.308 157.977 Q518.082 157.977 519.887 156.426 Q521.716 154.852 521.716 151.634 Q521.716 148.393 519.887 146.866 Q518.082 145.315 514.308 145.315 L506.809 145.315 M506.809 131.102 L506.809 141.518 L513.73 141.518 Q517.156 141.518 518.822 140.245 Q520.512 138.949 520.512 136.31 Q520.512 133.694 518.822 132.398 Q517.156 131.102 513.73 131.102 L506.809 131.102 M502.133 127.259 L514.077 127.259 Q519.424 127.259 522.318 129.481 Q525.211 131.704 525.211 135.801 Q525.211 138.972 523.73 140.847 Q522.248 142.722 519.378 143.185 Q522.827 143.926 524.725 146.287 Q526.646 148.625 526.646 152.143 Q526.646 156.773 523.498 159.296 Q520.35 161.819 514.54 161.819 L502.133 161.819 L502.133 127.259 Z" fill="#000000" fill-rule="nonzero" fill-opacity="1" /><path clip-path="url(#clip910)" d="M546.253 148.787 Q541.091 148.787 539.1 149.967 Q537.109 151.148 537.109 153.995 Q537.109 156.264 538.591 157.606 Q540.095 158.926 542.665 158.926 Q546.206 158.926 548.336 156.426 Q550.489 153.903 550.489 149.736 L550.489 148.787 L546.253 148.787 M554.748 147.028 L554.748 161.819 L550.489 161.819 L550.489 157.884 Q549.031 160.245 546.855 161.379 Q544.679 162.49 541.531 162.49 Q537.549 162.49 535.188 160.268 Q532.85 158.023 532.85 154.273 Q532.85 149.898 535.767 147.676 Q538.707 145.454 544.517 145.454 L550.489 145.454 L550.489 145.037 Q550.489 142.097 548.544 140.5 Q546.623 138.879 543.128 138.879 Q540.906 138.879 538.799 139.412 Q536.693 139.944 534.748 141.009 L534.748 137.074 Q537.086 136.171 539.285 135.731 Q541.484 135.268 543.568 135.268 Q549.193 135.268 551.97 138.185 Q554.748 141.102 554.748 147.028 Z" fill="#000000" fill-rule="nonzero" fill-opacity="1" /><path clip-path="url(#clip910)" d="M580.049 136.657 L580.049 140.685 Q578.243 139.759 576.299 139.296 Q574.354 138.833 572.271 138.833 Q569.1 138.833 567.503 139.805 Q565.929 140.778 565.929 142.722 Q565.929 144.204 567.063 145.06 Q568.197 145.893 571.623 146.657 L573.081 146.981 Q577.618 147.954 579.516 149.736 Q581.438 151.495 581.438 154.666 Q581.438 158.278 578.567 160.384 Q575.72 162.49 570.72 162.49 Q568.637 162.49 566.368 162.074 Q564.123 161.68 561.623 160.87 L561.623 156.472 Q563.984 157.699 566.276 158.324 Q568.567 158.926 570.813 158.926 Q573.822 158.926 575.442 157.907 Q577.063 156.866 577.063 154.991 Q577.063 153.254 575.882 152.328 Q574.725 151.403 570.767 150.546 L569.285 150.199 Q565.327 149.366 563.567 147.653 Q561.808 145.916 561.808 142.907 Q561.808 139.25 564.401 137.259 Q566.993 135.268 571.762 135.268 Q574.123 135.268 576.206 135.616 Q578.29 135.963 580.049 136.657 Z" fill="#000000" fill-rule="nonzero" fill-opacity="1" /><path clip-path="url(#clip910)" d="M610.396 147.791 L610.396 149.875 L590.813 149.875 Q591.09 154.273 593.452 156.588 Q595.836 158.879 600.072 158.879 Q602.526 158.879 604.817 158.278 Q607.132 157.676 609.401 156.472 L609.401 160.5 Q607.109 161.472 604.702 161.981 Q602.294 162.49 599.817 162.49 Q593.614 162.49 589.979 158.879 Q586.368 155.268 586.368 149.111 Q586.368 142.745 589.794 139.018 Q593.243 135.268 599.077 135.268 Q604.308 135.268 607.34 138.648 Q610.396 142.004 610.396 147.791 M606.137 146.541 Q606.09 143.046 604.169 140.963 Q602.271 138.879 599.123 138.879 Q595.558 138.879 593.405 140.893 Q591.276 142.907 590.952 146.565 L606.137 146.541 Z" fill="#000000" fill-rule="nonzero" fill-opacity="1" /><path clip-path="url(#clip910)" d="M617.387 125.801 L621.646 125.801 L621.646 161.819 L617.387 161.819 L617.387 125.801 Z" fill="#000000" fill-rule="nonzero" fill-opacity="1" /><path clip-path="url(#clip910)" d="M630.558 135.893 L634.817 135.893 L634.817 161.819 L630.558 161.819 L630.558 135.893 M630.558 125.801 L634.817 125.801 L634.817 131.194 L630.558 131.194 L630.558 125.801 Z" fill="#000000" fill-rule="nonzero" fill-opacity="1" /><path clip-path="url(#clip910)" d="M665.28 146.171 L665.28 161.819 L661.021 161.819 L661.021 146.31 Q661.021 142.629 659.585 140.801 Q658.15 138.972 655.28 138.972 Q651.831 138.972 649.84 141.171 Q647.849 143.37 647.849 147.166 L647.849 161.819 L643.567 161.819 L643.567 135.893 L647.849 135.893 L647.849 139.921 Q649.377 137.583 651.437 136.426 Q653.521 135.268 656.229 135.268 Q660.697 135.268 662.988 138.046 Q665.28 140.801 665.28 146.171 Z" fill="#000000" fill-rule="nonzero" fill-opacity="1" /><path clip-path="url(#clip910)" d="M695.951 147.791 L695.951 149.875 L676.368 149.875 Q676.646 154.273 679.007 156.588 Q681.391 158.879 685.627 158.879 Q688.081 158.879 690.372 158.278 Q692.687 157.676 694.956 156.472 L694.956 160.5 Q692.664 161.472 690.257 161.981 Q687.849 162.49 685.372 162.49 Q679.169 162.49 675.534 158.879 Q671.923 155.268 671.923 149.111 Q671.923 142.745 675.349 139.018 Q678.798 135.268 684.632 135.268 Q689.863 135.268 692.896 138.648 Q695.951 142.004 695.951 147.791 M691.692 146.541 Q691.646 143.046 689.724 140.963 Q687.826 138.879 684.678 138.879 Q681.113 138.879 678.96 140.893 Q676.831 142.907 676.507 146.565 L691.692 146.541 Z" fill="#000000" fill-rule="nonzero" fill-opacity="1" /><polyline clip-path="url(#clip910)" style="stroke:#e26f46; stroke-linecap:round; stroke-linejoin:round; stroke-width:4; stroke-opacity:1; fill:none" points="338.153,196.379 478.707,196.379 "/>
<path clip-path="url(#clip910)" d="M386.74 174.689 L386.74 218.07 L430.121 218.07 L430.121 174.689 L386.74 174.689 Z" fill="#e26f46" fill-rule="evenodd" fill-opacity="1" stroke="#000000" stroke-opacity="1" stroke-width="4.55111"/>
<path clip-path="url(#clip910)" d="M518.521 197.456 Q520.026 197.965 521.438 199.631 Q522.873 201.298 524.308 204.215 L529.054 213.659 L524.031 213.659 L519.609 204.793 Q517.896 201.321 516.276 200.187 Q514.679 199.053 511.901 199.053 L506.809 199.053 L506.809 213.659 L502.133 213.659 L502.133 179.099 L512.688 179.099 Q518.614 179.099 521.531 181.576 Q524.447 184.053 524.447 189.053 Q524.447 192.317 522.92 194.469 Q521.415 196.622 518.521 197.456 M506.809 182.942 L506.809 195.21 L512.688 195.21 Q516.068 195.21 517.781 193.659 Q519.517 192.085 519.517 189.053 Q519.517 186.02 517.781 184.493 Q516.068 182.942 512.688 182.942 L506.809 182.942 Z" fill="#000000" fill-rule="nonzero" fill-opacity="1" /><path clip-path="url(#clip910)" d="M554.933 199.631 L554.933 201.715 L535.35 201.715 Q535.628 206.113 537.989 208.428 Q540.373 210.719 544.609 210.719 Q547.063 210.719 549.355 210.118 Q551.669 209.516 553.938 208.312 L553.938 212.34 Q551.646 213.312 549.239 213.821 Q546.831 214.33 544.355 214.33 Q538.151 214.33 534.517 210.719 Q530.906 207.108 530.906 200.951 Q530.906 194.585 534.332 190.858 Q537.781 187.108 543.614 187.108 Q548.845 187.108 551.878 190.488 Q554.933 193.844 554.933 199.631 M550.674 198.381 Q550.628 194.886 548.706 192.803 Q546.808 190.719 543.66 190.719 Q540.095 190.719 537.943 192.733 Q535.813 194.747 535.489 198.405 L550.674 198.381 Z" fill="#000000" fill-rule="nonzero" fill-opacity="1" /><path clip-path="url(#clip910)" d="M575.049 177.641 L575.049 181.183 L570.975 181.183 Q568.683 181.183 567.78 182.108 Q566.901 183.034 566.901 185.442 L566.901 187.733 L573.915 187.733 L573.915 191.044 L566.901 191.044 L566.901 213.659 L562.618 213.659 L562.618 191.044 L558.544 191.044 L558.544 187.733 L562.618 187.733 L562.618 185.928 Q562.618 181.599 564.632 179.632 Q566.646 177.641 571.021 177.641 L575.049 177.641 Z" fill="#000000" fill-rule="nonzero" fill-opacity="1" /><polyline clip-path="url(#clip910)" style="stroke:#3da44d; stroke-linecap:round; stroke-linejoin:round; stroke-width:4; stroke-opacity:1; fill:none" points="338.153,248.219 478.707,248.219 "/>
<path clip-path="url(#clip910)" d="M408.43 226.529 L386.74 248.219 L408.43 269.91 L430.121 248.219 L408.43 226.529 Z" fill="#3da44d" fill-rule="evenodd" fill-opacity="1" stroke="#000000" stroke-opacity="1" stroke-width="4.55111"/>
<path clip-path="url(#clip910)" d="M502.133 230.939 L506.809 230.939 L506.809 265.499 L502.133 265.499 L502.133 230.939 Z" fill="#000000" fill-rule="nonzero" fill-opacity="1" /><path clip-path="url(#clip910)" d="M520.142 232.212 L520.142 239.573 L528.915 239.573 L528.915 242.884 L520.142 242.884 L520.142 256.958 Q520.142 260.129 520.998 261.032 Q521.878 261.934 524.54 261.934 L528.915 261.934 L528.915 265.499 L524.54 265.499 Q519.609 265.499 517.734 263.67 Q515.859 261.819 515.859 256.958 L515.859 242.884 L512.734 242.884 L512.734 239.573 L515.859 239.573 L515.859 232.212 L520.142 232.212 Z" fill="#000000" fill-rule="nonzero" fill-opacity="1" /><path clip-path="url(#clip910)" d="M556.693 251.471 L556.693 253.555 L537.109 253.555 Q537.387 257.953 539.748 260.268 Q542.132 262.559 546.369 262.559 Q548.822 262.559 551.114 261.958 Q553.429 261.356 555.697 260.152 L555.697 264.18 Q553.406 265.152 550.998 265.661 Q548.591 266.17 546.114 266.17 Q539.91 266.17 536.276 262.559 Q532.665 258.948 532.665 252.791 Q532.665 246.425 536.091 242.698 Q539.54 238.948 545.373 238.948 Q550.605 238.948 553.637 242.328 Q556.693 245.684 556.693 251.471 M552.433 250.221 Q552.387 246.726 550.466 244.643 Q548.568 242.559 545.419 242.559 Q541.855 242.559 539.702 244.573 Q537.572 246.587 537.248 250.245 L552.433 250.221 Z" fill="#000000" fill-rule="nonzero" fill-opacity="1" /><path clip-path="url(#clip910)" d="M578.706 243.555 Q577.989 243.138 577.132 242.953 Q576.299 242.745 575.28 242.745 Q571.669 242.745 569.725 245.106 Q567.804 247.444 567.804 251.842 L567.804 265.499 L563.521 265.499 L563.521 239.573 L567.804 239.573 L567.804 243.601 Q569.146 241.24 571.299 240.106 Q573.452 238.948 576.53 238.948 Q576.97 238.948 577.503 239.018 Q578.035 239.064 578.683 239.18 L578.706 243.555 Z" fill="#000000" fill-rule="nonzero" fill-opacity="1" /><polyline clip-path="url(#clip910)" style="stroke:#c271d2; stroke-linecap:round; stroke-linejoin:round; stroke-width:4; stroke-opacity:1; fill:none" points="338.153,300.059 478.707,300.059 "/>
<path clip-path="url(#clip910)" d="M408.43 278.369 L386.74 321.75 L430.121 321.75 L408.43 278.369 Z" fill="#c271d2" fill-rule="evenodd" fill-opacity="1" stroke="#000000" stroke-opacity="1" stroke-width="4.55111"/>
<path clip-path="url(#clip910)" d="M502.133 282.779 L506.809 282.779 L506.809 317.339 L502.133 317.339 L502.133 282.779 Z" fill="#000000" fill-rule="nonzero" fill-opacity="1" /><path clip-path="url(#clip910)" d="M520.142 284.052 L520.142 291.413 L528.915 291.413 L528.915 294.724 L520.142 294.724 L520.142 308.798 Q520.142 311.969 520.998 312.872 Q521.878 313.774 524.54 313.774 L528.915 313.774 L528.915 317.339 L524.54 317.339 Q519.609 317.339 517.734 315.51 Q515.859 313.659 515.859 308.798 L515.859 294.724 L512.734 294.724 L512.734 291.413 L515.859 291.413 L515.859 284.052 L520.142 284.052 Z" fill="#000000" fill-rule="nonzero" fill-opacity="1" /><path clip-path="url(#clip910)" d="M556.693 303.311 L556.693 305.395 L537.109 305.395 Q537.387 309.793 539.748 312.108 Q542.132 314.399 546.369 314.399 Q548.822 314.399 551.114 313.798 Q553.429 313.196 555.697 311.992 L555.697 316.02 Q553.406 316.992 550.998 317.501 Q548.591 318.01 546.114 318.01 Q539.91 318.01 536.276 314.399 Q532.665 310.788 532.665 304.631 Q532.665 298.265 536.091 294.538 Q539.54 290.788 545.373 290.788 Q550.605 290.788 553.637 294.168 Q556.693 297.524 556.693 303.311 M552.433 302.061 Q552.387 298.566 550.466 296.483 Q548.568 294.399 545.419 294.399 Q541.855 294.399 539.702 296.413 Q537.572 298.427 537.248 302.085 L552.433 302.061 Z" fill="#000000" fill-rule="nonzero" fill-opacity="1" /><path clip-path="url(#clip910)" d="M578.706 295.395 Q577.989 294.978 577.132 294.793 Q576.299 294.585 575.28 294.585 Q571.669 294.585 569.725 296.946 Q567.804 299.284 567.804 303.682 L567.804 317.339 L563.521 317.339 L563.521 291.413 L567.804 291.413 L567.804 295.441 Q569.146 293.08 571.299 291.946 Q573.452 290.788 576.53 290.788 Q576.97 290.788 577.503 290.858 Q578.035 290.904 578.683 291.02 L578.706 295.395 Z" fill="#000000" fill-rule="nonzero" fill-opacity="1" /><path clip-path="url(#clip910)" d="M610.026 304.307 Q604.864 304.307 602.873 305.487 Q600.882 306.668 600.882 309.515 Q600.882 311.784 602.364 313.126 Q603.868 314.446 606.438 314.446 Q609.979 314.446 612.109 311.946 Q614.262 309.423 614.262 305.256 L614.262 304.307 L610.026 304.307 M618.521 302.548 L618.521 317.339 L614.262 317.339 L614.262 313.404 Q612.803 315.765 610.627 316.899 Q608.452 318.01 605.303 318.01 Q601.322 318.01 598.961 315.788 Q596.623 313.543 596.623 309.793 Q596.623 305.418 599.54 303.196 Q602.479 300.974 608.289 300.974 L614.262 300.974 L614.262 300.557 Q614.262 297.617 612.317 296.02 Q610.396 294.399 606.901 294.399 Q604.678 294.399 602.572 294.932 Q600.465 295.464 598.521 296.529 L598.521 292.594 Q600.859 291.691 603.058 291.251 Q605.257 290.788 607.34 290.788 Q612.965 290.788 615.743 293.705 Q618.521 296.622 618.521 302.548 Z" fill="#000000" fill-rule="nonzero" fill-opacity="1" /><path clip-path="url(#clip910)" d="M648.845 301.691 L648.845 317.339 L644.586 317.339 L644.586 301.83 Q644.586 298.149 643.15 296.321 Q641.715 294.492 638.845 294.492 Q635.396 294.492 633.405 296.691 Q631.414 298.89 631.414 302.686 L631.414 317.339 L627.132 317.339 L627.132 291.413 L631.414 291.413 L631.414 295.441 Q632.942 293.103 635.002 291.946 Q637.086 290.788 639.794 290.788 Q644.262 290.788 646.553 293.566 Q648.845 296.321 648.845 301.691 Z" fill="#000000" fill-rule="nonzero" fill-opacity="1" /><path clip-path="url(#clip910)" d="M674.4 295.349 L674.4 281.321 L678.659 281.321 L678.659 317.339 L674.4 317.339 L674.4 313.45 Q673.058 315.765 670.997 316.899 Q668.96 318.01 666.09 318.01 Q661.391 318.01 658.428 314.26 Q655.488 310.511 655.488 304.399 Q655.488 298.288 658.428 294.538 Q661.391 290.788 666.09 290.788 Q668.96 290.788 670.997 291.923 Q673.058 293.034 674.4 295.349 M659.886 304.399 Q659.886 309.098 661.808 311.784 Q663.752 314.446 667.132 314.446 Q670.511 314.446 672.456 311.784 Q674.4 309.098 674.4 304.399 Q674.4 299.7 672.456 297.038 Q670.511 294.353 667.132 294.353 Q663.752 294.353 661.808 297.038 Q659.886 299.7 659.886 304.399 Z" fill="#000000" fill-rule="nonzero" fill-opacity="1" /><path clip-path="url(#clip910)" d="M719.076 301.136 Q720.581 301.645 721.993 303.311 Q723.428 304.978 724.863 307.895 L729.608 317.339 L724.585 317.339 L720.164 308.473 Q718.451 305.001 716.831 303.867 Q715.233 302.733 712.456 302.733 L707.363 302.733 L707.363 317.339 L702.687 317.339 L702.687 282.779 L713.243 282.779 Q719.169 282.779 722.085 285.256 Q725.002 287.733 725.002 292.733 Q725.002 295.997 723.474 298.149 Q721.969 300.302 719.076 301.136 M707.363 286.622 L707.363 298.89 L713.243 298.89 Q716.622 298.89 718.335 297.339 Q720.071 295.765 720.071 292.733 Q720.071 289.7 718.335 288.173 Q716.622 286.622 713.243 286.622 L707.363 286.622 Z" fill="#000000" fill-rule="nonzero" fill-opacity="1" /><path clip-path="url(#clip910)" d="M755.488 303.311 L755.488 305.395 L735.905 305.395 Q736.182 309.793 738.543 312.108 Q740.928 314.399 745.164 314.399 Q747.617 314.399 749.909 313.798 Q752.224 313.196 754.492 311.992 L754.492 316.02 Q752.201 316.992 749.793 317.501 Q747.386 318.01 744.909 318.01 Q738.705 318.01 735.071 314.399 Q731.46 310.788 731.46 304.631 Q731.46 298.265 734.886 294.538 Q738.335 290.788 744.168 290.788 Q749.4 290.788 752.432 294.168 Q755.488 297.524 755.488 303.311 M751.229 302.061 Q751.182 298.566 749.261 296.483 Q747.363 294.399 744.215 294.399 Q740.65 294.399 738.497 296.413 Q736.367 298.427 736.043 302.085 L751.229 302.061 Z" fill="#000000" fill-rule="nonzero" fill-opacity="1" /><path clip-path="url(#clip910)" d="M775.603 281.321 L775.603 284.863 L771.529 284.863 Q769.238 284.863 768.335 285.788 Q767.455 286.714 767.455 289.122 L767.455 291.413 L774.469 291.413 L774.469 294.724 L767.455 294.724 L767.455 317.339 L763.173 317.339 L763.173 294.724 L759.099 294.724 L759.099 291.413 L763.173 291.413 L763.173 289.608 Q763.173 285.279 765.187 283.312 Q767.201 281.321 771.576 281.321 L775.603 281.321 Z" fill="#000000" fill-rule="nonzero" fill-opacity="1" /><polyline clip-path="url(#clip910)" style="stroke:#ac8d18; stroke-linecap:round; stroke-linejoin:round; stroke-width:4; stroke-opacity:1; fill:none" points="338.153,351.899 478.707,351.899 "/>
<path clip-path="url(#clip910)" d="M408.43 330.209 L403.333 344.871 L387.803 345.197 L400.188 354.589 L395.676 369.447 L408.43 360.575 L421.184 369.447 L416.673 354.589 L429.058 345.197 L413.527 344.871 L408.43 330.209 Z" fill="#ac8d18" fill-rule="evenodd" fill-opacity="1" stroke="#000000" stroke-opacity="1" stroke-width="4.55111"/>
<path clip-path="url(#clip910)" d="M506.809 352.675 L506.809 365.337 L514.308 365.337 Q518.082 365.337 519.887 363.786 Q521.716 362.212 521.716 358.994 Q521.716 355.753 519.887 354.226 Q518.082 352.675 514.308 352.675 L506.809 352.675 M506.809 338.462 L506.809 348.878 L513.73 348.878 Q517.156 348.878 518.822 347.605 Q520.512 346.309 520.512 343.67 Q520.512 341.054 518.822 339.758 Q517.156 338.462 513.73 338.462 L506.809 338.462 M502.133 334.619 L514.077 334.619 Q519.424 334.619 522.318 336.841 Q525.211 339.064 525.211 343.161 Q525.211 346.332 523.73 348.207 Q522.248 350.082 519.378 350.545 Q522.827 351.286 524.725 353.647 Q526.646 355.985 526.646 359.503 Q526.646 364.133 523.498 366.656 Q520.35 369.179 514.54 369.179 L502.133 369.179 L502.133 334.619 Z" fill="#000000" fill-rule="nonzero" fill-opacity="1" /><path clip-path="url(#clip910)" d="M549.493 347.235 Q548.776 346.818 547.919 346.633 Q547.086 346.425 546.068 346.425 Q542.456 346.425 540.512 348.786 Q538.591 351.124 538.591 355.522 L538.591 369.179 L534.308 369.179 L534.308 343.253 L538.591 343.253 L538.591 347.281 Q539.933 344.92 542.086 343.786 Q544.239 342.628 547.318 342.628 Q547.757 342.628 548.29 342.698 Q548.822 342.744 549.47 342.86 L549.493 347.235 Z" fill="#000000" fill-rule="nonzero" fill-opacity="1" /><path clip-path="url(#clip910)" d="M553.521 358.948 L553.521 343.253 L557.78 343.253 L557.78 358.786 Q557.78 362.466 559.216 364.318 Q560.651 366.147 563.521 366.147 Q566.97 366.147 568.961 363.948 Q570.975 361.749 570.975 357.952 L570.975 343.253 L575.234 343.253 L575.234 369.179 L570.975 369.179 L570.975 365.198 Q569.424 367.559 567.364 368.716 Q565.327 369.85 562.618 369.85 Q558.151 369.85 555.836 367.073 Q553.521 364.295 553.521 358.948 M564.239 342.628 L564.239 342.628 Z" fill="#000000" fill-rule="nonzero" fill-opacity="1" /><path clip-path="url(#clip910)" d="M605.558 353.531 L605.558 369.179 L601.299 369.179 L601.299 353.67 Q601.299 349.989 599.864 348.161 Q598.428 346.332 595.558 346.332 Q592.109 346.332 590.118 348.531 Q588.128 350.73 588.128 354.526 L588.128 369.179 L583.845 369.179 L583.845 343.253 L588.128 343.253 L588.128 347.281 Q589.655 344.943 591.715 343.786 Q593.799 342.628 596.507 342.628 Q600.975 342.628 603.266 345.406 Q605.558 348.161 605.558 353.531 Z" fill="#000000" fill-rule="nonzero" fill-opacity="1" /><path clip-path="url(#clip910)" d="M624.1 346.239 Q620.674 346.239 618.683 348.925 Q616.692 351.587 616.692 356.239 Q616.692 360.892 618.66 363.577 Q620.651 366.239 624.1 366.239 Q627.502 366.239 629.493 363.554 Q631.484 360.869 631.484 356.239 Q631.484 351.633 629.493 348.948 Q627.502 346.239 624.1 346.239 M624.1 342.628 Q629.655 342.628 632.826 346.239 Q635.998 349.851 635.998 356.239 Q635.998 362.605 632.826 366.239 Q629.655 369.85 624.1 369.85 Q618.521 369.85 615.35 366.239 Q612.201 362.605 612.201 356.239 Q612.201 349.851 615.35 346.239 Q618.521 342.628 624.1 342.628 Z" fill="#000000" fill-rule="nonzero" fill-opacity="1" /><path clip-path="url(#clip910)" d="M684.192 337.281 L684.192 342.212 Q681.831 340.013 679.146 338.925 Q676.484 337.837 673.474 337.837 Q667.548 337.837 664.4 341.471 Q661.252 345.082 661.252 351.934 Q661.252 358.763 664.4 362.397 Q667.548 366.008 673.474 366.008 Q676.484 366.008 679.146 364.92 Q681.831 363.832 684.192 361.633 L684.192 366.517 Q681.738 368.184 678.984 369.017 Q676.252 369.85 673.197 369.85 Q665.349 369.85 660.835 365.059 Q656.322 360.244 656.322 351.934 Q656.322 343.601 660.835 338.809 Q665.349 333.994 673.197 333.994 Q676.298 333.994 679.03 334.828 Q681.784 335.638 684.192 337.281 Z" fill="#000000" fill-rule="nonzero" fill-opacity="1" /><path clip-path="url(#clip910)" d="M703.011 356.147 Q697.849 356.147 695.858 357.327 Q693.868 358.508 693.868 361.355 Q693.868 363.624 695.349 364.966 Q696.854 366.286 699.423 366.286 Q702.965 366.286 705.095 363.786 Q707.247 361.263 707.247 357.096 L707.247 356.147 L703.011 356.147 M711.507 354.388 L711.507 369.179 L707.247 369.179 L707.247 365.244 Q705.789 367.605 703.613 368.739 Q701.437 369.85 698.289 369.85 Q694.308 369.85 691.946 367.628 Q689.608 365.383 689.608 361.633 Q689.608 357.258 692.525 355.036 Q695.465 352.814 701.275 352.814 L707.247 352.814 L707.247 352.397 Q707.247 349.457 705.303 347.86 Q703.382 346.239 699.886 346.239 Q697.664 346.239 695.558 346.772 Q693.451 347.304 691.507 348.369 L691.507 344.434 Q693.845 343.531 696.044 343.091 Q698.243 342.628 700.326 342.628 Q705.951 342.628 708.729 345.545 Q711.507 348.462 711.507 354.388 Z" fill="#000000" fill-rule="nonzero" fill-opacity="1" /><path clip-path="url(#clip910)" d="M735.303 347.235 Q734.585 346.818 733.729 346.633 Q732.895 346.425 731.877 346.425 Q728.266 346.425 726.321 348.786 Q724.4 351.124 724.4 355.522 L724.4 369.179 L720.118 369.179 L720.118 343.253 L724.4 343.253 L724.4 347.281 Q725.743 344.92 727.895 343.786 Q730.048 342.628 733.127 342.628 Q733.567 342.628 734.099 342.698 Q734.631 342.744 735.28 342.86 L735.303 347.235 Z" fill="#000000" fill-rule="nonzero" fill-opacity="1" /><path clip-path="url(#clip910)" d="M759.122 348.23 Q760.719 345.36 762.941 343.994 Q765.164 342.628 768.173 342.628 Q772.224 342.628 774.423 345.476 Q776.622 348.3 776.622 353.531 L776.622 369.179 L772.34 369.179 L772.34 353.67 Q772.34 349.943 771.02 348.138 Q769.701 346.332 766.992 346.332 Q763.682 346.332 761.761 348.531 Q759.84 350.73 759.84 354.526 L759.84 369.179 L755.557 369.179 L755.557 353.67 Q755.557 349.92 754.238 348.138 Q752.918 346.332 750.164 346.332 Q746.9 346.332 744.979 348.554 Q743.057 350.753 743.057 354.526 L743.057 369.179 L738.775 369.179 L738.775 343.253 L743.057 343.253 L743.057 347.281 Q744.516 344.897 746.553 343.763 Q748.59 342.628 751.391 342.628 Q754.215 342.628 756.182 344.064 Q758.173 345.499 759.122 348.23 Z" fill="#000000" fill-rule="nonzero" fill-opacity="1" /><path clip-path="url(#clip910)" d="M795.163 346.239 Q791.738 346.239 789.747 348.925 Q787.756 351.587 787.756 356.239 Q787.756 360.892 789.724 363.577 Q791.714 366.239 795.163 366.239 Q798.566 366.239 800.557 363.554 Q802.548 360.869 802.548 356.239 Q802.548 351.633 800.557 348.948 Q798.566 346.239 795.163 346.239 M795.163 342.628 Q800.719 342.628 803.89 346.239 Q807.062 349.851 807.062 356.239 Q807.062 362.605 803.89 366.239 Q800.719 369.85 795.163 369.85 Q789.585 369.85 786.414 366.239 Q783.265 362.605 783.265 356.239 Q783.265 349.851 786.414 346.239 Q789.585 342.628 795.163 342.628 Z" fill="#000000" fill-rule="nonzero" fill-opacity="1" /></svg>
