<?xml version="1.0" encoding="utf-8"?>
<svg xmlns="http://www.w3.org/2000/svg" xmlns:xlink="http://www.w3.org/1999/xlink" width="600" height="400" viewBox="0 0 2400 1600">
<defs>
  <clipPath id="clip670">
    <rect x="0" y="0" width="2400" height="1600"/>
  </clipPath>
</defs>
<path clip-path="url(#clip670)" d="M0 1600 L2400 1600 L2400 0 L0 0  Z" fill="#ffffff" fill-rule="evenodd" fill-opacity="1"/>
<defs>
  <clipPath id="clip671">
    <rect x="480" y="0" width="1681" height="1600"/>
  </clipPath>
</defs>
<path clip-path="url(#clip670)" d="M257.955 1410.9 L2352.76 1410.9 L2352.76 47.2441 L257.955 47.2441  Z" fill="#ffffff" fill-rule="evenodd" fill-opacity="1"/>
<defs>
  <clipPath id="clip672">
    <rect x="257" y="47" width="2096" height="1365"/>
  </clipPath>
</defs>
<polyline clip-path="url(#clip672)" style="stroke:#000000; stroke-linecap:round; stroke-linejoin:round; stroke-width:2; stroke-opacity:0.1; fill:none" points="643.796,1410.9 643.796,47.2441 "/>
<polyline clip-path="url(#clip672)" style="stroke:#000000; stroke-linecap:round; stroke-linejoin:round; stroke-width:2; stroke-opacity:0.1; fill:none" points="1054.1,1410.9 1054.1,47.2441 "/>
<polyline clip-path="url(#clip672)" style="stroke:#000000; stroke-linecap:round; stroke-linejoin:round; stroke-width:2; stroke-opacity:0.1; fill:none" points="1464.41,1410.9 1464.41,47.2441 "/>
<polyline clip-path="url(#clip672)" style="stroke:#000000; stroke-linecap:round; stroke-linejoin:round; stroke-width:2; stroke-opacity:0.1; fill:none" points="1874.71,1410.9 1874.71,47.2441 "/>
<polyline clip-path="url(#clip672)" style="stroke:#000000; stroke-linecap:round; stroke-linejoin:round; stroke-width:2; stroke-opacity:0.1; fill:none" points="2285.02,1410.9 2285.02,47.2441 "/>
<polyline clip-path="url(#clip670)" style="stroke:#000000; stroke-linecap:round; stroke-linejoin:round; stroke-width:4; stroke-opacity:1; fill:none" points="257.955,1410.9 2352.76,1410.9 "/>
<polyline clip-path="url(#clip670)" style="stroke:#000000; stroke-linecap:round; stroke-linejoin:round; stroke-width:4; stroke-opacity:1; fill:none" points="643.796,1410.9 643.796,1392 "/>
<polyline clip-path="url(#clip670)" style="stroke:#000000; stroke-linecap:round; stroke-linejoin:round; stroke-width:4; stroke-opacity:1; fill:none" points="1054.1,1410.9 1054.1,1392 "/>
<polyline clip-path="url(#clip670)" style="stroke:#000000; stroke-linecap:round; stroke-linejoin:round; stroke-width:4; stroke-opacity:1; fill:none" points="1464.41,1410.9 1464.41,1392 "/>
<polyline clip-path="url(#clip670)" style="stroke:#000000; stroke-linecap:round; stroke-linejoin:round; stroke-width:4; stroke-opacity:1; fill:none" points="1874.71,1410.9 1874.71,1392 "/>
<polyline clip-path="url(#clip670)" style="stroke:#000000; stroke-linecap:round; stroke-linejoin:round; stroke-width:4; stroke-opacity:1; fill:none" points="2285.02,1410.9 2285.02,1392 "/>
<path clip-path="url(#clip670)" d="M609.568 1485.02 L617.207 1485.02 L617.207 1458.66 L608.897 1460.32 L608.897 1456.06 L617.161 1454.4 L621.837 1454.4 L621.837 1485.02 L629.476 1485.02 L629.476 1488.96 L609.568 1488.96 L609.568 1485.02 Z" fill="#000000" fill-rule="nonzero" fill-opacity="1" /><path clip-path="url(#clip670)" d="M648.92 1457.48 Q645.309 1457.48 643.48 1461.04 Q641.675 1464.58 641.675 1471.71 Q641.675 1478.82 643.48 1482.38 Q645.309 1485.92 648.92 1485.92 Q652.554 1485.92 654.36 1482.38 Q656.188 1478.82 656.188 1471.71 Q656.188 1464.58 654.36 1461.04 Q652.554 1457.48 648.92 1457.48 M648.92 1453.77 Q654.73 1453.77 657.786 1458.38 Q660.864 1462.96 660.864 1471.71 Q660.864 1480.44 657.786 1485.04 Q654.73 1489.63 648.92 1489.63 Q643.11 1489.63 640.031 1485.04 Q636.976 1480.44 636.976 1471.71 Q636.976 1462.96 640.031 1458.38 Q643.11 1453.77 648.92 1453.77 Z" fill="#000000" fill-rule="nonzero" fill-opacity="1" /><path clip-path="url(#clip670)" d="M665.435 1458.35 L678.694 1458.35 L678.694 1461.55 L660.864 1461.55 L660.864 1458.35 Q663.027 1456.11 666.751 1452.35 Q670.494 1448.57 671.453 1447.48 Q673.277 1445.43 673.992 1444.02 Q674.726 1442.59 674.726 1441.22 Q674.726 1438.98 673.146 1437.57 Q671.585 1436.16 669.064 1436.16 Q667.278 1436.16 665.284 1436.78 Q663.309 1437.4 661.052 1438.66 L661.052 1434.82 Q663.347 1433.9 665.341 1433.43 Q667.334 1432.96 668.989 1432.96 Q673.353 1432.96 675.948 1435.14 Q678.544 1437.32 678.544 1440.97 Q678.544 1442.7 677.885 1444.26 Q677.246 1445.8 675.534 1447.91 Q675.064 1448.46 672.544 1451.07 Q670.024 1453.67 665.435 1458.35 Z" fill="#000000" fill-rule="nonzero" fill-opacity="1" /><path clip-path="url(#clip670)" d="M1019.54 1485.02 L1027.18 1485.02 L1027.18 1458.66 L1018.87 1460.32 L1018.87 1456.06 L1027.14 1454.4 L1031.81 1454.4 L1031.81 1485.02 L1039.45 1485.02 L1039.45 1488.96 L1019.54 1488.96 L1019.54 1485.02 Z" fill="#000000" fill-rule="nonzero" fill-opacity="1" /><path clip-path="url(#clip670)" d="M1058.9 1457.48 Q1055.29 1457.48 1053.46 1461.04 Q1051.65 1464.58 1051.65 1471.71 Q1051.65 1478.82 1053.46 1482.38 Q1055.29 1485.92 1058.9 1485.92 Q1062.53 1485.92 1064.34 1482.38 Q1066.16 1478.82 1066.16 1471.71 Q1066.16 1464.58 1064.34 1461.04 Q1062.53 1457.48 1058.9 1457.48 M1058.9 1453.77 Q1064.71 1453.77 1067.76 1458.38 Q1070.84 1462.96 1070.84 1471.71 Q1070.84 1480.44 1067.76 1485.04 Q1064.71 1489.63 1058.9 1489.63 Q1053.09 1489.63 1050.01 1485.04 Q1046.95 1480.44 1046.95 1471.71 Q1046.95 1462.96 1050.01 1458.38 Q1053.09 1453.77 1058.9 1453.77 Z" fill="#000000" fill-rule="nonzero" fill-opacity="1" /><path clip-path="url(#clip670)" d="M1083.54 1446.41 Q1086.26 1446.99 1087.79 1448.83 Q1089.33 1450.68 1089.33 1453.38 Q1089.33 1457.54 1086.47 1459.82 Q1083.61 1462.09 1078.34 1462.09 Q1076.58 1462.09 1074.7 1461.73 Q1072.83 1461.4 1070.84 1460.7 L1070.84 1457.03 Q1072.42 1457.95 1074.3 1458.42 Q1076.18 1458.89 1078.23 1458.89 Q1081.81 1458.89 1083.67 1457.48 Q1085.55 1456.07 1085.55 1453.38 Q1085.55 1450.9 1083.8 1449.51 Q1082.07 1448.1 1078.97 1448.1 L1075.69 1448.1 L1075.69 1444.98 L1079.12 1444.98 Q1081.92 1444.98 1083.4 1443.87 Q1084.89 1442.74 1084.89 1440.63 Q1084.89 1438.47 1083.35 1437.32 Q1081.82 1436.16 1078.97 1436.16 Q1077.4 1436.16 1075.62 1436.49 Q1073.83 1436.83 1071.69 1437.55 L1071.69 1434.16 Q1073.85 1433.56 1075.73 1433.26 Q1077.63 1432.96 1079.3 1432.96 Q1083.63 1432.96 1086.15 1434.93 Q1088.67 1436.89 1088.67 1440.24 Q1088.67 1442.57 1087.33 1444.19 Q1086 1445.79 1083.54 1446.41 Z" fill="#000000" fill-rule="nonzero" fill-opacity="1" /><path clip-path="url(#clip670)" d="M1428.86 1485.02 L1436.5 1485.02 L1436.5 1458.66 L1428.19 1460.32 L1428.19 1456.06 L1436.45 1454.4 L1441.13 1454.4 L1441.13 1485.02 L1448.77 1485.02 L1448.77 1488.96 L1428.86 1488.96 L1428.86 1485.02 Z" fill="#000000" fill-rule="nonzero" fill-opacity="1" /><path clip-path="url(#clip670)" d="M1468.21 1457.48 Q1464.6 1457.48 1462.77 1461.04 Q1460.97 1464.58 1460.97 1471.71 Q1460.97 1478.82 1462.77 1482.38 Q1464.6 1485.92 1468.21 1485.92 Q1471.85 1485.92 1473.65 1482.38 Q1475.48 1478.82 1475.48 1471.71 Q1475.48 1464.58 1473.65 1461.04 Q1471.85 1457.48 1468.21 1457.48 M1468.21 1453.77 Q1474.02 1453.77 1477.08 1458.38 Q1480.16 1462.96 1480.16 1471.71 Q1480.16 1480.44 1477.08 1485.04 Q1474.02 1489.63 1468.21 1489.63 Q1462.4 1489.63 1459.33 1485.04 Q1456.27 1480.44 1456.27 1471.71 Q1456.27 1462.96 1459.33 1458.38 Q1462.4 1453.77 1468.21 1453.77 Z" fill="#000000" fill-rule="nonzero" fill-opacity="1" /><path clip-path="url(#clip670)" d="M1492.83 1436.78 L1483.24 1451.77 L1492.83 1451.77 L1492.83 1436.78 M1491.84 1433.47 L1496.62 1433.47 L1496.62 1451.77 L1500.62 1451.77 L1500.62 1454.93 L1496.62 1454.93 L1496.62 1461.55 L1492.83 1461.55 L1492.83 1454.93 L1480.16 1454.93 L1480.16 1451.26 L1491.84 1433.47 Z" fill="#000000" fill-rule="nonzero" fill-opacity="1" /><path clip-path="url(#clip670)" d="M1840.31 1485.02 L1847.95 1485.02 L1847.95 1458.66 L1839.64 1460.32 L1839.64 1456.06 L1847.91 1454.4 L1852.58 1454.4 L1852.58 1485.02 L1860.22 1485.02 L1860.22 1488.96 L1840.31 1488.96 L1840.31 1485.02 Z" fill="#000000" fill-rule="nonzero" fill-opacity="1" /><path clip-path="url(#clip670)" d="M1879.67 1457.48 Q1876.06 1457.48 1874.23 1461.04 Q1872.42 1464.58 1872.42 1471.71 Q1872.42 1478.82 1874.23 1482.38 Q1876.06 1485.92 1879.67 1485.92 Q1883.3 1485.92 1885.11 1482.38 Q1886.94 1478.82 1886.94 1471.71 Q1886.94 1464.58 1885.11 1461.04 Q1883.3 1457.48 1879.67 1457.48 M1879.67 1453.77 Q1885.48 1453.77 1888.53 1458.38 Q1891.61 1462.96 1891.61 1471.71 Q1891.61 1480.44 1888.53 1485.04 Q1885.48 1489.63 1879.67 1489.63 Q1873.86 1489.63 1870.78 1485.04 Q1867.72 1480.44 1867.72 1471.71 Q1867.72 1462.96 1870.78 1458.38 Q1873.86 1453.77 1879.67 1453.77 Z" fill="#000000" fill-rule="nonzero" fill-opacity="1" /><path clip-path="url(#clip670)" d="M1892.8 1433.47 L1907.71 1433.47 L1907.71 1436.66 L1896.28 1436.66 L1896.28 1443.55 Q1897.1 1443.27 1897.93 1443.13 Q1898.76 1442.98 1899.59 1442.98 Q1904.29 1442.98 1907.03 1445.56 Q1909.78 1448.14 1909.78 1452.54 Q1909.78 1457.07 1906.96 1459.59 Q1904.14 1462.09 1899 1462.09 Q1897.23 1462.09 1895.39 1461.79 Q1893.57 1461.49 1891.61 1460.89 L1891.61 1457.07 Q1893.3 1457.99 1895.11 1458.44 Q1896.91 1458.89 1898.93 1458.89 Q1902.18 1458.89 1904.08 1457.18 Q1905.98 1455.47 1905.98 1452.54 Q1905.98 1449.6 1904.08 1447.89 Q1902.18 1446.18 1898.93 1446.18 Q1897.4 1446.18 1895.88 1446.52 Q1894.38 1446.86 1892.8 1447.57 L1892.8 1433.47 Z" fill="#000000" fill-rule="nonzero" fill-opacity="1" /><path clip-path="url(#clip670)" d="M2250.01 1485.02 L2257.65 1485.02 L2257.65 1458.66 L2249.34 1460.32 L2249.34 1456.06 L2257.6 1454.4 L2262.28 1454.4 L2262.28 1485.02 L2269.92 1485.02 L2269.92 1488.96 L2250.01 1488.96 L2250.01 1485.02 Z" fill="#000000" fill-rule="nonzero" fill-opacity="1" /><path clip-path="url(#clip670)" d="M2289.36 1457.48 Q2285.75 1457.48 2283.92 1461.04 Q2282.12 1464.58 2282.12 1471.71 Q2282.12 1478.82 2283.92 1482.38 Q2285.75 1485.92 2289.36 1485.92 Q2292.99 1485.92 2294.8 1482.38 Q2296.63 1478.82 2296.63 1471.71 Q2296.63 1464.58 2294.8 1461.04 Q2292.99 1457.48 2289.36 1457.48 M2289.36 1453.77 Q2295.17 1453.77 2298.23 1458.38 Q2301.31 1462.96 2301.31 1471.71 Q2301.31 1480.44 2298.23 1485.04 Q2295.17 1489.63 2289.36 1489.63 Q2283.55 1489.63 2280.47 1485.04 Q2277.42 1480.44 2277.42 1471.71 Q2277.42 1462.96 2280.47 1458.38 Q2283.55 1453.77 2289.36 1453.77 Z" fill="#000000" fill-rule="nonzero" fill-opacity="1" /><path clip-path="url(#clip670)" d="M2311.33 1445.99 Q2308.77 1445.99 2307.27 1447.74 Q2305.78 1449.49 2305.78 1452.54 Q2305.78 1455.57 2307.27 1457.33 Q2308.77 1459.08 2311.33 1459.08 Q2313.89 1459.08 2315.37 1457.33 Q2316.88 1455.57 2316.88 1452.54 Q2316.88 1449.49 2315.37 1447.74 Q2313.89 1445.99 2311.33 1445.99 M2318.87 1434.09 L2318.87 1437.55 Q2317.44 1436.87 2315.98 1436.51 Q2314.53 1436.16 2313.1 1436.16 Q2309.34 1436.16 2307.34 1438.69 Q2305.37 1441.23 2305.09 1446.37 Q2306.2 1444.73 2307.87 1443.87 Q2309.54 1442.98 2311.56 1442.98 Q2315.79 1442.98 2318.23 1445.56 Q2320.7 1448.12 2320.7 1452.54 Q2320.7 1456.86 2318.14 1459.48 Q2315.58 1462.09 2311.33 1462.09 Q2306.46 1462.09 2303.88 1458.37 Q2301.31 1454.62 2301.31 1447.53 Q2301.31 1440.88 2304.46 1436.93 Q2307.62 1432.96 2312.95 1432.96 Q2314.38 1432.96 2315.82 1433.24 Q2317.29 1433.52 2318.87 1434.09 Z" fill="#000000" fill-rule="nonzero" fill-opacity="1" /><path clip-path="url(#clip670)" d="M1160.03 1526.67 L1168.68 1526.67 L1189.75 1566.42 L1189.75 1526.67 L1195.99 1526.67 L1195.99 1574.19 L1187.34 1574.19 L1166.26 1534.43 L1166.26 1574.19 L1160.03 1574.19 L1160.03 1526.67 Z" fill="#000000" fill-rule="nonzero" fill-opacity="1" /><path clip-path="url(#clip670)" d="M1243.32 1524.72 Q1239.06 1532.04 1236.99 1539.21 Q1234.92 1546.37 1234.92 1553.72 Q1234.92 1561.07 1236.99 1568.3 Q1239.09 1575.49 1243.32 1582.78 L1238.23 1582.78 Q1233.45 1575.3 1231.07 1568.07 Q1228.71 1560.85 1228.71 1553.72 Q1228.71 1546.62 1231.07 1539.43 Q1233.42 1532.24 1238.23 1524.72 L1243.32 1524.72 Z" fill="#000000" fill-rule="nonzero" fill-opacity="1" /><path clip-path="url(#clip670)" d="M1254.68 1524.66 L1260.54 1524.66 L1260.54 1574.19 L1254.68 1574.19 L1254.68 1524.66 Z" fill="#000000" fill-rule="nonzero" fill-opacity="1" /><path clip-path="url(#clip670)" d="M1286.61 1542.64 Q1281.9 1542.64 1279.16 1546.34 Q1276.42 1550 1276.42 1556.39 Q1276.42 1562.79 1279.13 1566.48 Q1281.87 1570.14 1286.61 1570.14 Q1291.29 1570.14 1294.02 1566.45 Q1296.76 1562.76 1296.76 1556.39 Q1296.76 1550.06 1294.02 1546.37 Q1291.29 1542.64 1286.61 1542.64 M1286.61 1537.68 Q1294.25 1537.68 1298.61 1542.64 Q1302.97 1547.61 1302.97 1556.39 Q1302.97 1565.15 1298.61 1570.14 Q1294.25 1575.11 1286.61 1575.11 Q1278.94 1575.11 1274.58 1570.14 Q1270.25 1565.15 1270.25 1556.39 Q1270.25 1547.61 1274.58 1542.64 Q1278.94 1537.68 1286.61 1537.68 Z" fill="#000000" fill-rule="nonzero" fill-opacity="1" /><path clip-path="url(#clip670)" d="M1336.13 1555.95 Q1336.13 1549.58 1333.49 1546.08 Q1330.88 1542.58 1326.14 1542.58 Q1321.43 1542.58 1318.79 1546.08 Q1316.18 1549.58 1316.18 1555.95 Q1316.18 1562.28 1318.79 1565.78 Q1321.43 1569.28 1326.14 1569.28 Q1330.88 1569.28 1333.49 1565.78 Q1336.13 1562.28 1336.13 1555.95 M1341.99 1569.76 Q1341.99 1578.86 1337.95 1583.29 Q1333.91 1587.74 1325.57 1587.74 Q1322.48 1587.74 1319.74 1587.27 Q1317 1586.82 1314.43 1585.87 L1314.43 1580.17 Q1317 1581.57 1319.52 1582.24 Q1322.03 1582.91 1324.64 1582.91 Q1330.4 1582.91 1333.27 1579.88 Q1336.13 1576.89 1336.13 1570.81 L1336.13 1567.92 Q1334.32 1571.07 1331.49 1572.63 Q1328.65 1574.19 1324.71 1574.19 Q1318.15 1574.19 1314.14 1569.19 Q1310.13 1564.19 1310.13 1555.95 Q1310.13 1547.67 1314.14 1542.68 Q1318.15 1537.68 1324.71 1537.68 Q1328.65 1537.68 1331.49 1539.24 Q1334.32 1540.8 1336.13 1543.95 L1336.13 1538.54 L1341.99 1538.54 L1341.99 1569.76 Z" fill="#000000" fill-rule="nonzero" fill-opacity="1" /><path clip-path="url(#clip670)" d="M1355.99 1568.77 L1366.5 1568.77 L1366.5 1532.52 L1355.07 1534.81 L1355.07 1528.96 L1366.43 1526.67 L1372.86 1526.67 L1372.86 1568.77 L1383.37 1568.77 L1383.37 1574.19 L1355.99 1574.19 L1355.99 1568.77 Z" fill="#000000" fill-rule="nonzero" fill-opacity="1" /><path clip-path="url(#clip670)" d="M1410.1 1530.9 Q1405.14 1530.9 1402.62 1535.8 Q1400.14 1540.67 1400.14 1550.47 Q1400.14 1560.24 1402.62 1565.15 Q1405.14 1570.02 1410.1 1570.02 Q1415.1 1570.02 1417.58 1565.15 Q1420.1 1560.24 1420.1 1550.47 Q1420.1 1540.67 1417.58 1535.8 Q1415.1 1530.9 1410.1 1530.9 M1410.1 1525.81 Q1418.09 1525.81 1422.29 1532.14 Q1426.53 1538.44 1426.53 1550.47 Q1426.53 1562.47 1422.29 1568.81 Q1418.09 1575.11 1410.1 1575.11 Q1402.11 1575.11 1397.88 1568.81 Q1393.68 1562.47 1393.68 1550.47 Q1393.68 1538.44 1397.88 1532.14 Q1402.11 1525.81 1410.1 1525.81 Z" fill="#000000" fill-rule="nonzero" fill-opacity="1" /><path clip-path="url(#clip670)" d="M1436.08 1524.72 L1441.17 1524.72 Q1445.94 1532.24 1448.3 1539.43 Q1450.68 1546.62 1450.68 1553.72 Q1450.68 1560.85 1448.3 1568.07 Q1445.94 1575.3 1441.17 1582.78 L1436.08 1582.78 Q1440.31 1575.49 1442.38 1568.3 Q1444.48 1561.07 1444.48 1553.72 Q1444.48 1546.37 1442.38 1539.21 Q1440.31 1532.04 1436.08 1524.72 Z" fill="#000000" fill-rule="nonzero" fill-opacity="1" /><polyline clip-path="url(#clip672)" style="stroke:#000000; stroke-linecap:round; stroke-linejoin:round; stroke-width:2; stroke-opacity:0.1; fill:none" points="257.955,1143.46 2352.76,1143.46 "/>
<polyline clip-path="url(#clip672)" style="stroke:#000000; stroke-linecap:round; stroke-linejoin:round; stroke-width:2; stroke-opacity:0.1; fill:none" points="257.955,511.613 2352.76,511.613 "/>
<polyline clip-path="url(#clip670)" style="stroke:#000000; stroke-linecap:round; stroke-linejoin:round; stroke-width:4; stroke-opacity:1; fill:none" points="257.955,1410.9 257.955,47.2441 "/>
<polyline clip-path="url(#clip670)" style="stroke:#000000; stroke-linecap:round; stroke-linejoin:round; stroke-width:4; stroke-opacity:1; fill:none" points="257.955,1143.46 276.853,1143.46 "/>
<polyline clip-path="url(#clip670)" style="stroke:#000000; stroke-linecap:round; stroke-linejoin:round; stroke-width:4; stroke-opacity:1; fill:none" points="257.955,511.613 276.853,511.613 "/>
<path clip-path="url(#clip670)" d="M114.931 1163.25 L122.57 1163.25 L122.57 1136.89 L114.26 1138.55 L114.26 1134.29 L122.524 1132.63 L127.2 1132.63 L127.2 1163.25 L134.839 1163.25 L134.839 1167.19 L114.931 1167.19 L114.931 1163.25 Z" fill="#000000" fill-rule="nonzero" fill-opacity="1" /><path clip-path="url(#clip670)" d="M154.283 1135.7 Q150.672 1135.7 148.843 1139.27 Q147.038 1142.81 147.038 1149.94 Q147.038 1157.05 148.843 1160.61 Q150.672 1164.15 154.283 1164.15 Q157.917 1164.15 159.723 1160.61 Q161.552 1157.05 161.552 1149.94 Q161.552 1142.81 159.723 1139.27 Q157.917 1135.7 154.283 1135.7 M154.283 1132 Q160.093 1132 163.149 1136.61 Q166.227 1141.19 166.227 1149.94 Q166.227 1158.67 163.149 1163.27 Q160.093 1167.86 154.283 1167.86 Q148.473 1167.86 145.394 1163.27 Q142.339 1158.67 142.339 1149.94 Q142.339 1141.19 145.394 1136.61 Q148.473 1132 154.283 1132 Z" fill="#000000" fill-rule="nonzero" fill-opacity="1" /><path clip-path="url(#clip670)" d="M167.412 1111.7 L182.327 1111.7 L182.327 1114.89 L170.892 1114.89 L170.892 1121.78 Q171.719 1121.49 172.547 1121.36 Q173.374 1121.21 174.202 1121.21 Q178.904 1121.21 181.65 1123.79 Q184.396 1126.37 184.396 1130.77 Q184.396 1135.3 181.575 1137.82 Q178.753 1140.32 173.619 1140.32 Q171.851 1140.32 170.008 1140.02 Q168.183 1139.72 166.227 1139.12 L166.227 1135.3 Q167.92 1136.22 169.726 1136.67 Q171.531 1137.12 173.544 1137.12 Q176.797 1137.12 178.697 1135.41 Q180.597 1133.7 180.597 1130.77 Q180.597 1127.83 178.697 1126.12 Q176.797 1124.41 173.544 1124.41 Q172.02 1124.41 170.497 1124.75 Q168.992 1125.09 167.412 1125.8 L167.412 1111.7 Z" fill="#000000" fill-rule="nonzero" fill-opacity="1" /><path clip-path="url(#clip670)" d="M191.881 1135 L195.85 1135 L195.85 1139.78 L191.881 1139.78 L191.881 1135 Z" fill="#000000" fill-rule="nonzero" fill-opacity="1" /><path clip-path="url(#clip670)" d="M212.25 1114.2 Q209.316 1114.2 207.83 1117.09 Q206.363 1119.97 206.363 1125.76 Q206.363 1131.54 207.83 1134.43 Q209.316 1137.31 212.25 1137.31 Q215.203 1137.31 216.67 1134.43 Q218.156 1131.54 218.156 1125.76 Q218.156 1119.97 216.67 1117.09 Q215.203 1114.2 212.25 1114.2 M212.25 1111.19 Q216.971 1111.19 219.453 1114.93 Q221.955 1118.65 221.955 1125.76 Q221.955 1132.85 219.453 1136.6 Q216.971 1140.32 212.25 1140.32 Q207.529 1140.32 205.028 1136.6 Q202.545 1132.85 202.545 1125.76 Q202.545 1118.65 205.028 1114.93 Q207.529 1111.19 212.25 1111.19 Z" fill="#000000" fill-rule="nonzero" fill-opacity="1" /><path clip-path="url(#clip670)" d="M115.928 531.405 L123.567 531.405 L123.567 505.04 L115.257 506.706 L115.257 502.447 L123.521 500.78 L128.197 500.78 L128.197 531.405 L135.836 531.405 L135.836 535.34 L115.928 535.34 L115.928 531.405 Z" fill="#000000" fill-rule="nonzero" fill-opacity="1" /><path clip-path="url(#clip670)" d="M155.28 503.859 Q151.669 503.859 149.84 507.424 Q148.035 510.966 148.035 518.095 Q148.035 525.202 149.84 528.766 Q151.669 532.308 155.28 532.308 Q158.914 532.308 160.72 528.766 Q162.548 525.202 162.548 518.095 Q162.548 510.966 160.72 507.424 Q158.914 503.859 155.28 503.859 M155.28 500.155 Q161.09 500.155 164.146 504.762 Q167.224 509.345 167.224 518.095 Q167.224 526.822 164.146 531.428 Q161.09 536.012 155.28 536.012 Q149.47 536.012 146.391 531.428 Q143.336 526.822 143.336 518.095 Q143.336 509.345 146.391 504.762 Q149.47 500.155 155.28 500.155 Z" fill="#000000" fill-rule="nonzero" fill-opacity="1" /><path clip-path="url(#clip670)" d="M167.224 479.85 L185.28 479.85 L185.28 481.468 L175.086 507.93 L171.117 507.93 L180.709 483.047 L167.224 483.047 L167.224 479.85 Z" fill="#000000" fill-rule="nonzero" fill-opacity="1" /><path clip-path="url(#clip670)" d="M192.69 503.153 L196.658 503.153 L196.658 507.93 L192.69 507.93 L192.69 503.153 Z" fill="#000000" fill-rule="nonzero" fill-opacity="1" /><path clip-path="url(#clip670)" d="M204.971 479.85 L219.886 479.85 L219.886 483.047 L208.451 483.047 L208.451 489.931 Q209.278 489.649 210.106 489.517 Q210.934 489.367 211.761 489.367 Q216.463 489.367 219.209 491.943 Q221.955 494.52 221.955 498.921 Q221.955 503.454 219.134 505.974 Q216.313 508.475 211.178 508.475 Q209.41 508.475 207.567 508.175 Q205.743 507.874 203.787 507.272 L203.787 503.454 Q205.479 504.375 207.285 504.827 Q209.09 505.278 211.103 505.278 Q214.357 505.278 216.256 503.567 Q218.156 501.855 218.156 498.921 Q218.156 495.987 216.256 494.276 Q214.357 492.564 211.103 492.564 Q209.579 492.564 208.056 492.903 Q206.551 493.241 204.971 493.956 L204.971 479.85 Z" fill="#000000" fill-rule="nonzero" fill-opacity="1" /><path clip-path="url(#clip670)" d="M35.1993 1134.37 Q31.2526 1132.18 29.3747 1129.12 Q27.4968 1126.07 27.4968 1121.93 Q27.4968 1116.36 31.4117 1113.34 Q35.2948 1110.31 42.4881 1110.31 L64.0042 1110.31 L64.0042 1116.2 L42.679 1116.2 Q37.5546 1116.2 35.072 1118.02 Q32.5894 1119.83 32.5894 1123.55 Q32.5894 1128.1 35.6131 1130.75 Q38.6368 1133.39 43.8567 1133.39 L64.0042 1133.39 L64.0042 1139.28 L42.679 1139.28 Q37.5228 1139.28 35.072 1141.09 Q32.5894 1142.9 32.5894 1146.69 Q32.5894 1151.18 35.6449 1153.82 Q38.6686 1156.46 43.8567 1156.46 L64.0042 1156.46 L64.0042 1162.35 L28.3562 1162.35 L28.3562 1156.46 L33.8944 1156.46 Q30.616 1154.46 29.0564 1151.66 Q27.4968 1148.86 27.4968 1145.01 Q27.4968 1141.12 29.4702 1138.42 Q31.4436 1135.68 35.1993 1134.37 Z" fill="#000000" fill-rule="nonzero" fill-opacity="1" /><path clip-path="url(#clip670)" d="M28.3562 1098.63 L28.3562 1092.78 L64.0042 1092.78 L64.0042 1098.63 L28.3562 1098.63 M14.479 1098.63 L14.479 1092.78 L21.895 1092.78 L21.895 1098.63 L14.479 1098.63 Z" fill="#000000" fill-rule="nonzero" fill-opacity="1" /><path clip-path="url(#clip670)" d="M42.4881 1050.89 L64.0042 1050.89 L64.0042 1056.75 L42.679 1056.75 Q37.6183 1056.75 35.1038 1058.72 Q32.5894 1060.69 32.5894 1064.64 Q32.5894 1069.38 35.6131 1072.12 Q38.6368 1074.86 43.8567 1074.86 L64.0042 1074.86 L64.0042 1080.74 L28.3562 1080.74 L28.3562 1074.86 L33.8944 1074.86 Q30.6797 1072.75 29.0883 1069.92 Q27.4968 1067.06 27.4968 1063.33 Q27.4968 1057.19 31.3163 1054.04 Q35.1038 1050.89 42.4881 1050.89 Z" fill="#000000" fill-rule="nonzero" fill-opacity="1" /><path clip-path="url(#clip670)" d="M28.3562 1039.21 L28.3562 1033.35 L64.0042 1033.35 L64.0042 1039.21 L28.3562 1039.21 M14.479 1039.21 L14.479 1033.35 L21.895 1033.35 L21.895 1039.21 L14.479 1039.21 Z" fill="#000000" fill-rule="nonzero" fill-opacity="1" /><path clip-path="url(#clip670)" d="M35.1993 993.343 Q31.2526 991.147 29.3747 988.091 Q27.4968 985.035 27.4968 980.898 Q27.4968 975.328 31.4117 972.304 Q35.2948 969.28 42.4881 969.28 L64.0042 969.28 L64.0042 975.169 L42.679 975.169 Q37.5546 975.169 35.072 976.983 Q32.5894 978.797 32.5894 982.521 Q32.5894 987.072 35.6131 989.714 Q38.6368 992.356 43.8567 992.356 L64.0042 992.356 L64.0042 998.244 L42.679 998.244 Q37.5228 998.244 35.072 1000.06 Q32.5894 1001.87 32.5894 1005.66 Q32.5894 1010.15 35.6449 1012.79 Q38.6686 1015.43 43.8567 1015.43 L64.0042 1015.43 L64.0042 1021.32 L28.3562 1021.32 L28.3562 1015.43 L33.8944 1015.43 Q30.616 1013.43 29.0564 1010.63 Q27.4968 1007.82 27.4968 1003.97 Q27.4968 1000.09 29.4702 997.385 Q31.4436 994.648 35.1993 993.343 Z" fill="#000000" fill-rule="nonzero" fill-opacity="1" /><path clip-path="url(#clip670)" d="M49.9359 958.204 L28.3562 958.204 L28.3562 952.348 L49.7131 952.348 Q54.7739 952.348 57.3202 950.374 Q59.8346 948.401 59.8346 944.454 Q59.8346 939.712 56.8109 936.974 Q53.7872 934.205 48.5673 934.205 L28.3562 934.205 L28.3562 928.349 L64.0042 928.349 L64.0042 934.205 L58.5296 934.205 Q61.7762 936.338 63.3676 939.171 Q64.9272 941.971 64.9272 945.695 Q64.9272 951.838 61.1078 955.021 Q57.2883 958.204 49.9359 958.204 M27.4968 943.467 L27.4968 943.467 Z" fill="#000000" fill-rule="nonzero" fill-opacity="1" /><path clip-path="url(#clip670)" d="M35.1993 888.531 Q31.2526 886.335 29.3747 883.28 Q27.4968 880.224 27.4968 876.086 Q27.4968 870.516 31.4117 867.493 Q35.2948 864.469 42.4881 864.469 L64.0042 864.469 L64.0042 870.357 L42.679 870.357 Q37.5546 870.357 35.072 872.171 Q32.5894 873.986 32.5894 877.71 Q32.5894 882.261 35.6131 884.903 Q38.6368 887.545 43.8567 887.545 L64.0042 887.545 L64.0042 893.433 L42.679 893.433 Q37.5228 893.433 35.072 895.247 Q32.5894 897.061 32.5894 900.849 Q32.5894 905.337 35.6449 907.979 Q38.6686 910.62 43.8567 910.62 L64.0042 910.62 L64.0042 916.509 L28.3562 916.509 L28.3562 910.62 L33.8944 910.62 Q30.616 908.615 29.0564 905.814 Q27.4968 903.013 27.4968 899.162 Q27.4968 895.279 29.4702 892.574 Q31.4436 889.836 35.1993 888.531 Z" fill="#000000" fill-rule="nonzero" fill-opacity="1" /><path clip-path="url(#clip670)" d="M18.2347 826.275 L28.3562 826.275 L28.3562 814.212 L32.9077 814.212 L32.9077 826.275 L52.2594 826.275 Q56.6199 826.275 57.8613 825.097 Q59.1026 823.888 59.1026 820.227 L59.1026 814.212 L64.0042 814.212 L64.0042 820.227 Q64.0042 827.007 61.4897 829.585 Q58.9434 832.163 52.2594 832.163 L32.9077 832.163 L32.9077 836.46 L28.3562 836.46 L28.3562 832.163 L18.2347 832.163 L18.2347 826.275 Z" fill="#000000" fill-rule="nonzero" fill-opacity="1" /><path clip-path="url(#clip670)" d="M28.3562 806.509 L28.3562 800.653 L64.0042 800.653 L64.0042 806.509 L28.3562 806.509 M14.479 806.509 L14.479 800.653 L21.895 800.653 L21.895 806.509 L14.479 806.509 Z" fill="#000000" fill-rule="nonzero" fill-opacity="1" /><path clip-path="url(#clip670)" d="M35.1993 760.644 Q31.2526 758.448 29.3747 755.393 Q27.4968 752.337 27.4968 748.199 Q27.4968 742.629 31.4117 739.606 Q35.2948 736.582 42.4881 736.582 L64.0042 736.582 L64.0042 742.47 L42.679 742.47 Q37.5546 742.47 35.072 744.284 Q32.5894 746.099 32.5894 749.823 Q32.5894 754.374 35.6131 757.016 Q38.6368 759.658 43.8567 759.658 L64.0042 759.658 L64.0042 765.546 L42.679 765.546 Q37.5228 765.546 35.072 767.36 Q32.5894 769.174 32.5894 772.962 Q32.5894 777.45 35.6449 780.092 Q38.6686 782.733 43.8567 782.733 L64.0042 782.733 L64.0042 788.622 L28.3562 788.622 L28.3562 782.733 L33.8944 782.733 Q30.616 780.728 29.0564 777.927 Q27.4968 775.126 27.4968 771.275 Q27.4968 767.392 29.4702 764.686 Q31.4436 761.949 35.1993 760.644 Z" fill="#000000" fill-rule="nonzero" fill-opacity="1" /><path clip-path="url(#clip670)" d="M44.7161 694.409 L47.5806 694.409 L47.5806 721.336 Q53.6281 720.954 56.8109 717.708 Q59.9619 714.429 59.9619 708.605 Q59.9619 705.231 59.1344 702.08 Q58.3069 698.897 56.6518 695.778 L62.1899 695.778 Q63.5267 698.929 64.227 702.239 Q64.9272 705.549 64.9272 708.955 Q64.9272 717.485 59.9619 722.482 Q54.9967 727.447 46.5303 727.447 Q37.7774 727.447 32.6531 722.736 Q27.4968 717.994 27.4968 709.973 Q27.4968 702.78 32.1438 698.61 Q36.7589 694.409 44.7161 694.409 M42.9973 700.266 Q38.1912 700.329 35.3266 702.971 Q32.4621 705.581 32.4621 709.91 Q32.4621 714.811 35.2312 717.771 Q38.0002 720.699 43.0292 721.145 L42.9973 700.266 Z" fill="#000000" fill-rule="nonzero" fill-opacity="1" /><path clip-path="url(#clip670)" d="M14.5426 650.008 Q21.8632 654.273 29.0246 656.342 Q36.186 658.411 43.5384 658.411 Q50.8908 658.411 58.1159 656.342 Q65.3091 654.241 72.5979 650.008 L72.5979 655.101 Q65.1182 659.875 57.8931 662.262 Q50.668 664.618 43.5384 664.618 Q36.4406 664.618 29.2474 662.262 Q22.0542 659.907 14.5426 655.101 L14.5426 650.008 Z" fill="#000000" fill-rule="nonzero" fill-opacity="1" /><path clip-path="url(#clip670)" d="M42.4881 609.013 L64.0042 609.013 L64.0042 614.87 L42.679 614.87 Q37.6183 614.87 35.1038 616.843 Q32.5894 618.816 32.5894 622.763 Q32.5894 627.506 35.6131 630.243 Q38.6368 632.98 43.8567 632.98 L64.0042 632.98 L64.0042 638.868 L28.3562 638.868 L28.3562 632.98 L33.8944 632.98 Q30.6797 630.879 29.0883 628.047 Q27.4968 625.182 27.4968 621.458 Q27.4968 615.315 31.3163 612.164 Q35.1038 609.013 42.4881 609.013 Z" fill="#000000" fill-rule="nonzero" fill-opacity="1" /><path clip-path="url(#clip670)" d="M29.4065 574.606 L34.9447 574.606 Q33.6716 577.089 33.035 579.763 Q32.3984 582.436 32.3984 585.301 Q32.3984 589.661 33.7352 591.858 Q35.072 594.022 37.7456 594.022 Q39.7826 594.022 40.9603 592.462 Q42.1061 590.903 43.1565 586.192 L43.6021 584.187 Q44.9389 577.948 47.3897 575.339 Q49.8086 572.697 54.1691 572.697 Q59.1344 572.697 62.0308 576.644 Q64.9272 580.558 64.9272 587.433 Q64.9272 590.298 64.3543 593.417 Q63.8132 596.505 62.6992 599.942 L56.6518 599.942 Q58.3387 596.695 59.198 593.544 Q60.0256 590.393 60.0256 587.306 Q60.0256 583.168 58.6251 580.94 Q57.1929 578.712 54.6147 578.712 Q52.2276 578.712 50.9545 580.336 Q49.6813 581.927 48.5037 587.37 L48.0262 589.407 Q46.8804 594.849 44.5251 597.268 Q42.138 599.687 38.0002 599.687 Q32.9713 599.687 30.2341 596.123 Q27.4968 592.558 27.4968 586.001 Q27.4968 582.755 27.9743 579.89 Q28.4517 577.025 29.4065 574.606 Z" fill="#000000" fill-rule="nonzero" fill-opacity="1" /><path clip-path="url(#clip670)" d="M14.5426 564.294 L14.5426 559.201 Q22.0542 554.427 29.2474 552.072 Q36.4406 549.685 43.5384 549.685 Q50.668 549.685 57.8931 552.072 Q65.1182 554.427 72.5979 559.201 L72.5979 564.294 Q65.3091 560.061 58.1159 557.992 Q50.8908 555.891 43.5384 555.891 Q36.186 555.891 29.0246 557.992 Q21.8632 560.061 14.5426 564.294 Z" fill="#000000" fill-rule="nonzero" fill-opacity="1" /><path clip-path="url(#clip670)" d="M14.5426 503.151 Q21.8632 507.416 29.0246 509.485 Q36.186 511.554 43.5384 511.554 Q50.8908 511.554 58.1159 509.485 Q65.3091 507.385 72.5979 503.151 L72.5979 508.244 Q65.1182 513.018 57.8931 515.405 Q50.668 517.761 43.5384 517.761 Q36.4406 517.761 29.2474 515.405 Q22.0542 513.05 14.5426 508.244 L14.5426 503.151 Z" fill="#000000" fill-rule="nonzero" fill-opacity="1" /><path clip-path="url(#clip670)" d="M14.479 491.789 L14.479 485.932 L64.0042 485.932 L64.0042 491.789 L14.479 491.789 Z" fill="#000000" fill-rule="nonzero" fill-opacity="1" /><path clip-path="url(#clip670)" d="M32.4621 459.865 Q32.4621 464.575 36.1542 467.313 Q39.8145 470.05 46.212 470.05 Q52.6095 470.05 56.3017 467.344 Q59.9619 464.607 59.9619 459.865 Q59.9619 455.186 56.2698 452.449 Q52.5777 449.711 46.212 449.711 Q39.8781 449.711 36.186 452.449 Q32.4621 455.186 32.4621 459.865 M27.4968 459.865 Q27.4968 452.226 32.4621 447.865 Q37.4273 443.505 46.212 443.505 Q54.9649 443.505 59.9619 447.865 Q64.9272 452.226 64.9272 459.865 Q64.9272 467.535 59.9619 471.896 Q54.9649 476.225 46.212 476.225 Q37.4273 476.225 32.4621 471.896 Q27.4968 467.535 27.4968 459.865 Z" fill="#000000" fill-rule="nonzero" fill-opacity="1" /><path clip-path="url(#clip670)" d="M45.7664 410.339 Q39.4007 410.339 35.8996 412.981 Q32.3984 415.591 32.3984 420.334 Q32.3984 425.044 35.8996 427.686 Q39.4007 430.296 45.7664 430.296 Q52.1003 430.296 55.6014 427.686 Q59.1026 425.044 59.1026 420.334 Q59.1026 415.591 55.6014 412.981 Q52.1003 410.339 45.7664 410.339 M59.58 404.483 Q68.683 404.483 73.1071 408.525 Q77.5631 412.567 77.5631 420.907 Q77.5631 423.994 77.0857 426.731 Q76.6401 429.468 75.6852 432.046 L69.9879 432.046 Q71.3884 429.468 72.0568 426.954 Q72.7252 424.439 72.7252 421.83 Q72.7252 416.069 69.7015 413.204 Q66.7096 410.339 60.6303 410.339 L57.7339 410.339 Q60.885 412.154 62.4446 414.986 Q64.0042 417.819 64.0042 421.766 Q64.0042 428.323 59.0071 432.333 Q54.01 436.343 45.7664 436.343 Q37.491 436.343 32.4939 432.333 Q27.4968 428.323 27.4968 421.766 Q27.4968 417.819 29.0564 414.986 Q30.616 412.154 33.7671 410.339 L28.3562 410.339 L28.3562 404.483 L59.58 404.483 Z" fill="#000000" fill-rule="nonzero" fill-opacity="1" /><path clip-path="url(#clip670)" d="M58.5933 390.478 L58.5933 379.975 L22.3406 379.975 L24.6323 391.401 L18.7758 391.401 L16.4842 380.039 L16.4842 373.609 L58.5933 373.609 L58.5933 363.106 L64.0042 363.106 L64.0042 390.478 L58.5933 390.478 Z" fill="#000000" fill-rule="nonzero" fill-opacity="1" /><path clip-path="url(#clip670)" d="M20.7174 336.37 Q20.7174 341.335 25.6189 343.85 Q30.4887 346.332 40.2919 346.332 Q50.0633 346.332 54.9649 343.85 Q59.8346 341.335 59.8346 336.37 Q59.8346 331.373 54.9649 328.89 Q50.0633 326.376 40.2919 326.376 Q30.4887 326.376 25.6189 328.89 Q20.7174 331.373 20.7174 336.37 M15.6248 336.37 Q15.6248 328.381 21.9587 324.18 Q28.2607 319.946 40.2919 319.946 Q52.2913 319.946 58.6251 324.18 Q64.9272 328.381 64.9272 336.37 Q64.9272 344.359 58.6251 348.592 Q52.2913 352.793 40.2919 352.793 Q28.2607 352.793 21.9587 348.592 Q15.6248 344.359 15.6248 336.37 Z" fill="#000000" fill-rule="nonzero" fill-opacity="1" /><path clip-path="url(#clip670)" d="M14.5426 310.398 L14.5426 305.305 Q22.0542 300.531 29.2474 298.176 Q36.4406 295.789 43.5384 295.789 Q50.668 295.789 57.8931 298.176 Q65.1182 300.531 72.5979 305.305 L72.5979 310.398 Q65.3091 306.165 58.1159 304.096 Q50.8908 301.995 43.5384 301.995 Q36.186 301.995 29.0246 304.096 Q21.8632 306.165 14.5426 310.398 Z" fill="#000000" fill-rule="nonzero" fill-opacity="1" /><polyline clip-path="url(#clip672)" style="stroke:#009af9; stroke-linecap:round; stroke-linejoin:round; stroke-width:4; stroke-opacity:1; fill:none" points="317.242,1367.81 564.27,1251.07 811.299,1110.13 1058.33,960.494 1305.36,809.463 1552.38,655.047 1799.41,496.829 2046.44,343.209 2293.47,190.568 "/>
<circle clip-path="url(#clip672)" cx="317.242" cy="1367.81" r="14.4" fill="#009af9" fill-rule="evenodd" fill-opacity="1" stroke="#000000" stroke-opacity="1" stroke-width="3.2"/>
<circle clip-path="url(#clip672)" cx="564.27" cy="1251.07" r="14.4" fill="#009af9" fill-rule="evenodd" fill-opacity="1" stroke="#000000" stroke-opacity="1" stroke-width="3.2"/>
<circle clip-path="url(#clip672)" cx="811.299" cy="1110.13" r="14.4" fill="#009af9" fill-rule="evenodd" fill-opacity="1" stroke="#000000" stroke-opacity="1" stroke-width="3.2"/>
<circle clip-path="url(#clip672)" cx="1058.33" cy="960.494" r="14.4" fill="#009af9" fill-rule="evenodd" fill-opacity="1" stroke="#000000" stroke-opacity="1" stroke-width="3.2"/>
<circle clip-path="url(#clip672)" cx="1305.36" cy="809.463" r="14.4" fill="#009af9" fill-rule="evenodd" fill-opacity="1" stroke="#000000" stroke-opacity="1" stroke-width="3.2"/>
<circle clip-path="url(#clip672)" cx="1552.38" cy="655.047" r="14.4" fill="#009af9" fill-rule="evenodd" fill-opacity="1" stroke="#000000" stroke-opacity="1" stroke-width="3.2"/>
<circle clip-path="url(#clip672)" cx="1799.41" cy="496.829" r="14.4" fill="#009af9" fill-rule="evenodd" fill-opacity="1" stroke="#000000" stroke-opacity="1" stroke-width="3.2"/>
<circle clip-path="url(#clip672)" cx="2046.44" cy="343.209" r="14.4" fill="#009af9" fill-rule="evenodd" fill-opacity="1" stroke="#000000" stroke-opacity="1" stroke-width="3.2"/>
<circle clip-path="url(#clip672)" cx="2293.47" cy="190.568" r="14.4" fill="#009af9" fill-rule="evenodd" fill-opacity="1" stroke="#000000" stroke-opacity="1" stroke-width="3.2"/>
<polyline clip-path="url(#clip672)" style="stroke:#e26f46; stroke-linecap:round; stroke-linejoin:round; stroke-width:4; stroke-opacity:1; fill:none" points="317.242,1372.3 564.27,1258.9 811.299,1118.32 1058.33,970.93 1305.36,819.431 1552.38,667.178 1799.41,514.08 2046.44,361.128 2293.47,208.623 "/>
<path clip-path="url(#clip672)" d="M301.242 1356.3 L301.242 1388.3 L333.242 1388.3 L333.242 1356.3 L301.242 1356.3 Z" fill="#e26f46" fill-rule="evenodd" fill-opacity="1" stroke="#000000" stroke-opacity="1" stroke-width="3.2"/>
<path clip-path="url(#clip672)" d="M548.27 1242.9 L548.27 1274.9 L580.27 1274.9 L580.27 1242.9 L548.27 1242.9 Z" fill="#e26f46" fill-rule="evenodd" fill-opacity="1" stroke="#000000" stroke-opacity="1" stroke-width="3.2"/>
<path clip-path="url(#clip672)" d="M795.299 1102.32 L795.299 1134.32 L827.299 1134.32 L827.299 1102.32 L795.299 1102.32 Z" fill="#e26f46" fill-rule="evenodd" fill-opacity="1" stroke="#000000" stroke-opacity="1" stroke-width="3.2"/>
<path clip-path="url(#clip672)" d="M1042.33 954.93 L1042.33 986.93 L1074.33 986.93 L1074.33 954.93 L1042.33 954.93 Z" fill="#e26f46" fill-rule="evenodd" fill-opacity="1" stroke="#000000" stroke-opacity="1" stroke-width="3.2"/>
<path clip-path="url(#clip672)" d="M1289.36 803.431 L1289.36 835.431 L1321.36 835.431 L1321.36 803.431 L1289.36 803.431 Z" fill="#e26f46" fill-rule="evenodd" fill-opacity="1" stroke="#000000" stroke-opacity="1" stroke-width="3.2"/>
<path clip-path="url(#clip672)" d="M1536.38 651.178 L1536.38 683.178 L1568.38 683.178 L1568.38 651.178 L1536.38 651.178 Z" fill="#e26f46" fill-rule="evenodd" fill-opacity="1" stroke="#000000" stroke-opacity="1" stroke-width="3.2"/>
<path clip-path="url(#clip672)" d="M1783.41 498.08 L1783.41 530.08 L1815.41 530.08 L1815.41 498.08 L1783.41 498.08 Z" fill="#e26f46" fill-rule="evenodd" fill-opacity="1" stroke="#000000" stroke-opacity="1" stroke-width="3.2"/>
<path clip-path="url(#clip672)" d="M2030.44 345.128 L2030.44 377.128 L2062.44 377.128 L2062.44 345.128 L2030.44 345.128 Z" fill="#e26f46" fill-rule="evenodd" fill-opacity="1" stroke="#000000" stroke-opacity="1" stroke-width="3.2"/>
<path clip-path="url(#clip672)" d="M2277.47 192.623 L2277.47 224.623 L2309.47 224.623 L2309.47 192.623 L2277.47 192.623 Z" fill="#e26f46" fill-rule="evenodd" fill-opacity="1" stroke="#000000" stroke-opacity="1" stroke-width="3.2"/>
<polyline clip-path="url(#clip672)" style="stroke:#3da44d; stroke-linecap:round; stroke-linejoin:round; stroke-width:4; stroke-opacity:1; fill:none" points="317.242,1351.65 564.27,1231.48 811.299,1088.38 1058.33,937.378 1305.36,785.367 1552.38,630.444 1799.41,470.602 2046.44,317.197 2293.47,164.603 "/>
<path clip-path="url(#clip672)" d="M317.242 1335.65 L301.242 1351.65 L317.242 1367.65 L333.242 1351.65 L317.242 1335.65 Z" fill="#3da44d" fill-rule="evenodd" fill-opacity="1" stroke="#000000" stroke-opacity="1" stroke-width="3.2"/>
<path clip-path="url(#clip672)" d="M564.27 1215.48 L548.27 1231.48 L564.27 1247.48 L580.27 1231.48 L564.27 1215.48 Z" fill="#3da44d" fill-rule="evenodd" fill-opacity="1" stroke="#000000" stroke-opacity="1" stroke-width="3.2"/>
<path clip-path="url(#clip672)" d="M811.299 1072.38 L795.299 1088.38 L811.299 1104.38 L827.299 1088.38 L811.299 1072.38 Z" fill="#3da44d" fill-rule="evenodd" fill-opacity="1" stroke="#000000" stroke-opacity="1" stroke-width="3.2"/>
<path clip-path="url(#clip672)" d="M1058.33 921.378 L1042.33 937.378 L1058.33 953.378 L1074.33 937.378 L1058.33 921.378 Z" fill="#3da44d" fill-rule="evenodd" fill-opacity="1" stroke="#000000" stroke-opacity="1" stroke-width="3.2"/>
<path clip-path="url(#clip672)" d="M1305.36 769.367 L1289.36 785.367 L1305.36 801.367 L1321.36 785.367 L1305.36 769.367 Z" fill="#3da44d" fill-rule="evenodd" fill-opacity="1" stroke="#000000" stroke-opacity="1" stroke-width="3.2"/>
<path clip-path="url(#clip672)" d="M1552.38 614.444 L1536.38 630.444 L1552.38 646.444 L1568.38 630.444 L1552.38 614.444 Z" fill="#3da44d" fill-rule="evenodd" fill-opacity="1" stroke="#000000" stroke-opacity="1" stroke-width="3.2"/>
<path clip-path="url(#clip672)" d="M1799.41 454.602 L1783.41 470.602 L1799.41 486.602 L1815.41 470.602 L1799.41 454.602 Z" fill="#3da44d" fill-rule="evenodd" fill-opacity="1" stroke="#000000" stroke-opacity="1" stroke-width="3.2"/>
<path clip-path="url(#clip672)" d="M2046.44 301.197 L2030.44 317.197 L2046.44 333.197 L2062.44 317.197 L2046.44 301.197 Z" fill="#3da44d" fill-rule="evenodd" fill-opacity="1" stroke="#000000" stroke-opacity="1" stroke-width="3.2"/>
<path clip-path="url(#clip672)" d="M2293.47 148.603 L2277.47 164.603 L2293.47 180.603 L2309.47 164.603 L2293.47 148.603 Z" fill="#3da44d" fill-rule="evenodd" fill-opacity="1" stroke="#000000" stroke-opacity="1" stroke-width="3.2"/>
<polyline clip-path="url(#clip672)" style="stroke:#c271d2; stroke-linecap:round; stroke-linejoin:round; stroke-width:4; stroke-opacity:1; fill:none" points="317.242,1333.47 564.27,1207.73 811.299,1064.27 1058.33,911.256 1305.36,757.688 1552.38,604.442 1799.41,450.821 2046.44,296.829 2293.47,144.508 "/>
<path clip-path="url(#clip672)" d="M317.242 1317.47 L301.242 1349.47 L333.242 1349.47 L317.242 1317.47 Z" fill="#c271d2" fill-rule="evenodd" fill-opacity="1" stroke="#000000" stroke-opacity="1" stroke-width="3.2"/>
<path clip-path="url(#clip672)" d="M564.27 1191.73 L548.27 1223.73 L580.27 1223.73 L564.27 1191.73 Z" fill="#c271d2" fill-rule="evenodd" fill-opacity="1" stroke="#000000" stroke-opacity="1" stroke-width="3.2"/>
<path clip-path="url(#clip672)" d="M811.299 1048.27 L795.299 1080.27 L827.299 1080.27 L811.299 1048.27 Z" fill="#c271d2" fill-rule="evenodd" fill-opacity="1" stroke="#000000" stroke-opacity="1" stroke-width="3.2"/>
<path clip-path="url(#clip672)" d="M1058.33 895.256 L1042.33 927.256 L1074.33 927.256 L1058.33 895.256 Z" fill="#c271d2" fill-rule="evenodd" fill-opacity="1" stroke="#000000" stroke-opacity="1" stroke-width="3.2"/>
<path clip-path="url(#clip672)" d="M1305.36 741.688 L1289.36 773.688 L1321.36 773.688 L1305.36 741.688 Z" fill="#c271d2" fill-rule="evenodd" fill-opacity="1" stroke="#000000" stroke-opacity="1" stroke-width="3.2"/>
<path clip-path="url(#clip672)" d="M1552.38 588.442 L1536.38 620.442 L1568.38 620.442 L1552.38 588.442 Z" fill="#c271d2" fill-rule="evenodd" fill-opacity="1" stroke="#000000" stroke-opacity="1" stroke-width="3.2"/>
<path clip-path="url(#clip672)" d="M1799.41 434.821 L1783.41 466.821 L1815.41 466.821 L1799.41 434.821 Z" fill="#c271d2" fill-rule="evenodd" fill-opacity="1" stroke="#000000" stroke-opacity="1" stroke-width="3.2"/>
<path clip-path="url(#clip672)" d="M2046.44 280.829 L2030.44 312.829 L2062.44 312.829 L2046.44 280.829 Z" fill="#c271d2" fill-rule="evenodd" fill-opacity="1" stroke="#000000" stroke-opacity="1" stroke-width="3.2"/>
<path clip-path="url(#clip672)" d="M2293.47 128.508 L2277.47 160.508 L2309.47 160.508 L2293.47 128.508 Z" fill="#c271d2" fill-rule="evenodd" fill-opacity="1" stroke="#000000" stroke-opacity="1" stroke-width="3.2"/>
<polyline clip-path="url(#clip672)" style="stroke:#ac8d18; stroke-linecap:round; stroke-linejoin:round; stroke-width:4; stroke-opacity:1; fill:none" points="317.242,1325.45 564.27,1174.09 811.299,1021.51 1058.33,869.593 1305.36,716.611 1552.38,550.51 1799.41,391.534 2046.44,237.773 2293.47,85.838 "/>
<path clip-path="url(#clip672)" d="M317.242 1309.45 L313.482 1320.26 L302.026 1320.5 L311.162 1327.43 L307.834 1338.39 L317.242 1331.85 L326.65 1338.39 L323.322 1327.43 L332.458 1320.5 L321.002 1320.26 L317.242 1309.45 Z" fill="#ac8d18" fill-rule="evenodd" fill-opacity="1" stroke="#000000" stroke-opacity="1" stroke-width="3.2"/>
<path clip-path="url(#clip672)" d="M564.27 1158.09 L560.51 1168.9 L549.054 1169.14 L558.19 1176.07 L554.862 1187.03 L564.27 1180.49 L573.678 1187.03 L570.35 1176.07 L579.486 1169.14 L568.03 1168.9 L564.27 1158.09 Z" fill="#ac8d18" fill-rule="evenodd" fill-opacity="1" stroke="#000000" stroke-opacity="1" stroke-width="3.2"/>
<path clip-path="url(#clip672)" d="M811.299 1005.51 L807.539 1016.32 L796.083 1016.56 L805.219 1023.49 L801.891 1034.45 L811.299 1027.91 L820.707 1034.45 L817.379 1023.49 L826.515 1016.56 L815.059 1016.32 L811.299 1005.51 Z" fill="#ac8d18" fill-rule="evenodd" fill-opacity="1" stroke="#000000" stroke-opacity="1" stroke-width="3.2"/>
<path clip-path="url(#clip672)" d="M1058.33 853.593 L1054.57 864.409 L1043.11 864.649 L1052.25 871.577 L1048.92 882.537 L1058.33 875.993 L1067.73 882.537 L1064.41 871.577 L1073.54 864.649 L1062.09 864.409 L1058.33 853.593 Z" fill="#ac8d18" fill-rule="evenodd" fill-opacity="1" stroke="#000000" stroke-opacity="1" stroke-width="3.2"/>
<path clip-path="url(#clip672)" d="M1305.36 700.611 L1301.6 711.427 L1290.14 711.667 L1299.28 718.595 L1295.95 729.555 L1305.36 723.011 L1314.76 729.555 L1311.44 718.595 L1320.57 711.667 L1309.12 711.427 L1305.36 700.611 Z" fill="#ac8d18" fill-rule="evenodd" fill-opacity="1" stroke="#000000" stroke-opacity="1" stroke-width="3.2"/>
<path clip-path="url(#clip672)" d="M1552.38 534.51 L1548.62 545.326 L1537.17 545.566 L1546.3 552.494 L1542.98 563.454 L1552.38 556.91 L1561.79 563.454 L1558.46 552.494 L1567.6 545.566 L1556.14 545.326 L1552.38 534.51 Z" fill="#ac8d18" fill-rule="evenodd" fill-opacity="1" stroke="#000000" stroke-opacity="1" stroke-width="3.2"/>
<path clip-path="url(#clip672)" d="M1799.41 375.534 L1795.65 386.35 L1784.2 386.59 L1793.33 393.518 L1790 404.478 L1799.41 397.934 L1808.82 404.478 L1805.49 393.518 L1814.63 386.59 L1803.17 386.35 L1799.41 375.534 Z" fill="#ac8d18" fill-rule="evenodd" fill-opacity="1" stroke="#000000" stroke-opacity="1" stroke-width="3.2"/>
<path clip-path="url(#clip672)" d="M2046.44 221.773 L2042.68 232.589 L2031.22 232.829 L2040.36 239.757 L2037.03 250.717 L2046.44 244.173 L2055.85 250.717 L2052.52 239.757 L2061.66 232.829 L2050.2 232.589 L2046.44 221.773 Z" fill="#ac8d18" fill-rule="evenodd" fill-opacity="1" stroke="#000000" stroke-opacity="1" stroke-width="3.2"/>
<path clip-path="url(#clip672)" d="M2293.47 69.838 L2289.71 80.654 L2278.25 80.894 L2287.39 87.822 L2284.06 98.782 L2293.47 92.238 L2302.88 98.782 L2299.55 87.822 L2308.69 80.894 L2297.23 80.654 L2293.47 69.838 Z" fill="#ac8d18" fill-rule="evenodd" fill-opacity="1" stroke="#000000" stroke-opacity="1" stroke-width="3.2"/>
<path clip-path="url(#clip670)" d="M327.782 403.739 L842.191 403.739 L842.191 92.6992 L327.782 92.6992  Z" fill="#ffffff" fill-rule="evenodd" fill-opacity="1"/>
<polyline clip-path="url(#clip670)" style="stroke:#000000; stroke-linecap:round; stroke-linejoin:round; stroke-width:4; stroke-opacity:1; fill:none" points="327.782,403.739 842.191,403.739 842.191,92.6992 327.782,92.6992 327.782,403.739 "/>
<polyline clip-path="url(#clip670)" style="stroke:#009af9; stroke-linecap:round; stroke-linejoin:round; stroke-width:4; stroke-opacity:1; fill:none" points="351.057,144.539 490.711,144.539 "/>
<circle clip-path="url(#clip670)" cx="420.884" cy="144.539" r="19.3963" fill="#009af9" fill-rule="evenodd" fill-opacity="1" stroke="#000000" stroke-opacity="1" stroke-width="4.55111"/>
<path clip-path="url(#clip670)" d="M518.662 145.315 L518.662 157.977 L526.162 157.977 Q529.935 157.977 531.741 156.426 Q533.569 154.852 533.569 151.634 Q533.569 148.393 531.741 146.866 Q529.935 145.315 526.162 145.315 L518.662 145.315 M518.662 131.102 L518.662 141.518 L525.583 141.518 Q529.009 141.518 530.676 140.245 Q532.366 138.949 532.366 136.31 Q532.366 133.694 530.676 132.398 Q529.009 131.102 525.583 131.102 L518.662 131.102 M513.986 127.259 L525.931 127.259 Q531.278 127.259 534.171 129.481 Q537.065 131.704 537.065 135.801 Q537.065 138.972 535.583 140.847 Q534.102 142.722 531.231 143.185 Q534.68 143.926 536.579 146.287 Q538.5 148.625 538.5 152.143 Q538.5 156.773 535.352 159.296 Q532.204 161.819 526.393 161.819 L513.986 161.819 L513.986 127.259 Z" fill="#000000" fill-rule="nonzero" fill-opacity="1" /><path clip-path="url(#clip670)" d="M558.106 148.787 Q552.944 148.787 550.954 149.967 Q548.963 151.148 548.963 153.995 Q548.963 156.264 550.444 157.606 Q551.949 158.926 554.518 158.926 Q558.06 158.926 560.19 156.426 Q562.342 153.903 562.342 149.736 L562.342 148.787 L558.106 148.787 M566.602 147.028 L566.602 161.819 L562.342 161.819 L562.342 157.884 Q560.884 160.245 558.708 161.379 Q556.532 162.49 553.384 162.49 Q549.403 162.49 547.042 160.268 Q544.704 158.023 544.704 154.273 Q544.704 149.898 547.62 147.676 Q550.56 145.454 556.37 145.454 L562.342 145.454 L562.342 145.037 Q562.342 142.097 560.398 140.5 Q558.477 138.879 554.981 138.879 Q552.759 138.879 550.653 139.412 Q548.546 139.944 546.602 141.009 L546.602 137.074 Q548.94 136.171 551.139 135.731 Q553.338 135.268 555.421 135.268 Q561.046 135.268 563.824 138.185 Q566.602 141.102 566.602 147.028 Z" fill="#000000" fill-rule="nonzero" fill-opacity="1" /><path clip-path="url(#clip670)" d="M591.902 136.657 L591.902 140.685 Q590.097 139.759 588.152 139.296 Q586.208 138.833 584.125 138.833 Q580.953 138.833 579.356 139.805 Q577.782 140.778 577.782 142.722 Q577.782 144.204 578.916 145.06 Q580.051 145.893 583.476 146.657 L584.935 146.981 Q589.472 147.954 591.37 149.736 Q593.291 151.495 593.291 154.666 Q593.291 158.278 590.421 160.384 Q587.574 162.49 582.574 162.49 Q580.49 162.49 578.222 162.074 Q575.977 161.68 573.477 160.87 L573.477 156.472 Q575.838 157.699 578.129 158.324 Q580.421 158.926 582.666 158.926 Q585.676 158.926 587.296 157.907 Q588.916 156.866 588.916 154.991 Q588.916 153.254 587.736 152.328 Q586.578 151.403 582.62 150.546 L581.139 150.199 Q577.18 149.366 575.421 147.653 Q573.662 145.916 573.662 142.907 Q573.662 139.25 576.254 137.259 Q578.847 135.268 583.615 135.268 Q585.976 135.268 588.06 135.616 Q590.143 135.963 591.902 136.657 Z" fill="#000000" fill-rule="nonzero" fill-opacity="1" /><path clip-path="url(#clip670)" d="M622.249 147.791 L622.249 149.875 L602.666 149.875 Q602.944 154.273 605.305 156.588 Q607.689 158.879 611.925 158.879 Q614.379 158.879 616.671 158.278 Q618.986 157.676 621.254 156.472 L621.254 160.5 Q618.962 161.472 616.555 161.981 Q614.148 162.49 611.671 162.49 Q605.467 162.49 601.833 158.879 Q598.222 155.268 598.222 149.111 Q598.222 142.745 601.648 139.018 Q605.097 135.268 610.93 135.268 Q616.162 135.268 619.194 138.648 Q622.249 142.004 622.249 147.791 M617.99 146.541 Q617.944 143.046 616.023 140.963 Q614.124 138.879 610.976 138.879 Q607.412 138.879 605.259 140.893 Q603.129 142.907 602.805 146.565 L617.99 146.541 Z" fill="#000000" fill-rule="nonzero" fill-opacity="1" /><path clip-path="url(#clip670)" d="M629.24 125.801 L633.499 125.801 L633.499 161.819 L629.24 161.819 L629.24 125.801 Z" fill="#000000" fill-rule="nonzero" fill-opacity="1" /><path clip-path="url(#clip670)" d="M642.411 135.893 L646.671 135.893 L646.671 161.819 L642.411 161.819 L642.411 135.893 M642.411 125.801 L646.671 125.801 L646.671 131.194 L642.411 131.194 L642.411 125.801 Z" fill="#000000" fill-rule="nonzero" fill-opacity="1" /><path clip-path="url(#clip670)" d="M677.133 146.171 L677.133 161.819 L672.874 161.819 L672.874 146.31 Q672.874 142.629 671.439 140.801 Q670.004 138.972 667.133 138.972 Q663.684 138.972 661.694 141.171 Q659.703 143.37 659.703 147.166 L659.703 161.819 L655.421 161.819 L655.421 135.893 L659.703 135.893 L659.703 139.921 Q661.231 137.583 663.291 136.426 Q665.374 135.268 668.083 135.268 Q672.55 135.268 674.842 138.046 Q677.133 140.801 677.133 146.171 Z" fill="#000000" fill-rule="nonzero" fill-opacity="1" /><path clip-path="url(#clip670)" d="M707.805 147.791 L707.805 149.875 L688.221 149.875 Q688.499 154.273 690.86 156.588 Q693.244 158.879 697.481 158.879 Q699.934 158.879 702.226 158.278 Q704.541 157.676 706.809 156.472 L706.809 160.5 Q704.518 161.472 702.11 161.981 Q699.703 162.49 697.226 162.49 Q691.022 162.49 687.388 158.879 Q683.777 155.268 683.777 149.111 Q683.777 142.745 687.203 139.018 Q690.652 135.268 696.485 135.268 Q701.717 135.268 704.749 138.648 Q707.805 142.004 707.805 147.791 M703.545 146.541 Q703.499 143.046 701.578 140.963 Q699.68 138.879 696.531 138.879 Q692.967 138.879 690.814 140.893 Q688.684 142.907 688.36 146.565 L703.545 146.541 Z" fill="#000000" fill-rule="nonzero" fill-opacity="1" /><polyline clip-path="url(#clip670)" style="stroke:#e26f46; stroke-linecap:round; stroke-linejoin:round; stroke-width:4; stroke-opacity:1; fill:none" points="351.057,196.379 490.711,196.379 "/>
<path clip-path="url(#clip670)" d="M399.332 174.828 L399.332 217.931 L442.435 217.931 L442.435 174.828 L399.332 174.828 Z" fill="#e26f46" fill-rule="evenodd" fill-opacity="1" stroke="#000000" stroke-opacity="1" stroke-width="4.55111"/>
<path clip-path="url(#clip670)" d="M530.375 197.456 Q531.88 197.965 533.292 199.631 Q534.727 201.298 536.162 204.215 L540.907 213.659 L535.884 213.659 L531.463 204.793 Q529.75 201.321 528.13 200.187 Q526.532 199.053 523.755 199.053 L518.662 199.053 L518.662 213.659 L513.986 213.659 L513.986 179.099 L524.542 179.099 Q530.468 179.099 533.384 181.576 Q536.301 184.053 536.301 189.053 Q536.301 192.317 534.773 194.469 Q533.268 196.622 530.375 197.456 M518.662 182.942 L518.662 195.21 L524.542 195.21 Q527.921 195.21 529.634 193.659 Q531.37 192.085 531.37 189.053 Q531.37 186.02 529.634 184.493 Q527.921 182.942 524.542 182.942 L518.662 182.942 Z" fill="#000000" fill-rule="nonzero" fill-opacity="1" /><path clip-path="url(#clip670)" d="M566.787 199.631 L566.787 201.715 L547.204 201.715 Q547.481 206.113 549.842 208.428 Q552.227 210.719 556.463 210.719 Q558.916 210.719 561.208 210.118 Q563.523 209.516 565.791 208.312 L565.791 212.34 Q563.5 213.312 561.092 213.821 Q558.685 214.33 556.208 214.33 Q550.004 214.33 546.37 210.719 Q542.759 207.108 542.759 200.951 Q542.759 194.585 546.185 190.858 Q549.634 187.108 555.467 187.108 Q560.699 187.108 563.731 190.488 Q566.787 193.844 566.787 199.631 M562.528 198.381 Q562.481 194.886 560.56 192.803 Q558.662 190.719 555.514 190.719 Q551.949 190.719 549.796 192.733 Q547.667 194.747 547.342 198.405 L562.528 198.381 Z" fill="#000000" fill-rule="nonzero" fill-opacity="1" /><path clip-path="url(#clip670)" d="M586.902 177.641 L586.902 181.183 L582.828 181.183 Q580.537 181.183 579.634 182.108 Q578.754 183.034 578.754 185.442 L578.754 187.733 L585.768 187.733 L585.768 191.044 L578.754 191.044 L578.754 213.659 L574.472 213.659 L574.472 191.044 L570.398 191.044 L570.398 187.733 L574.472 187.733 L574.472 185.928 Q574.472 181.599 576.486 179.632 Q578.5 177.641 582.875 177.641 L586.902 177.641 Z" fill="#000000" fill-rule="nonzero" fill-opacity="1" /><polyline clip-path="url(#clip670)" style="stroke:#3da44d; stroke-linecap:round; stroke-linejoin:round; stroke-width:4; stroke-opacity:1; fill:none" points="351.057,248.219 490.711,248.219 "/>
<path clip-path="url(#clip670)" d="M420.884 226.668 L399.332 248.219 L420.884 269.771 L442.435 248.219 L420.884 226.668 Z" fill="#3da44d" fill-rule="evenodd" fill-opacity="1" stroke="#000000" stroke-opacity="1" stroke-width="4.55111"/>
<path clip-path="url(#clip670)" d="M513.986 230.939 L518.662 230.939 L518.662 265.499 L513.986 265.499 L513.986 230.939 Z" fill="#000000" fill-rule="nonzero" fill-opacity="1" /><path clip-path="url(#clip670)" d="M531.995 232.212 L531.995 239.573 L540.768 239.573 L540.768 242.884 L531.995 242.884 L531.995 256.958 Q531.995 260.129 532.852 261.032 Q533.731 261.934 536.393 261.934 L540.768 261.934 L540.768 265.499 L536.393 265.499 Q531.463 265.499 529.588 263.67 Q527.713 261.819 527.713 256.958 L527.713 242.884 L524.588 242.884 L524.588 239.573 L527.713 239.573 L527.713 232.212 L531.995 232.212 Z" fill="#000000" fill-rule="nonzero" fill-opacity="1" /><path clip-path="url(#clip670)" d="M568.546 251.471 L568.546 253.555 L548.963 253.555 Q549.241 257.953 551.602 260.268 Q553.986 262.559 558.222 262.559 Q560.676 262.559 562.967 261.958 Q565.282 261.356 567.551 260.152 L567.551 264.18 Q565.259 265.152 562.852 265.661 Q560.444 266.17 557.967 266.17 Q551.764 266.17 548.129 262.559 Q544.518 258.948 544.518 252.791 Q544.518 246.425 547.944 242.698 Q551.393 238.948 557.227 238.948 Q562.458 238.948 565.49 242.328 Q568.546 245.684 568.546 251.471 M564.287 250.221 Q564.24 246.726 562.319 244.643 Q560.421 242.559 557.273 242.559 Q553.708 242.559 551.555 244.573 Q549.426 246.587 549.102 250.245 L564.287 250.221 Z" fill="#000000" fill-rule="nonzero" fill-opacity="1" /><path clip-path="url(#clip670)" d="M590.56 243.555 Q589.842 243.138 588.986 242.953 Q588.152 242.745 587.134 242.745 Q583.523 242.745 581.578 245.106 Q579.657 247.444 579.657 251.842 L579.657 265.499 L575.375 265.499 L575.375 239.573 L579.657 239.573 L579.657 243.601 Q581 241.24 583.152 240.106 Q585.305 238.948 588.384 238.948 Q588.824 238.948 589.356 239.018 Q589.888 239.064 590.537 239.18 L590.56 243.555 Z" fill="#000000" fill-rule="nonzero" fill-opacity="1" /><polyline clip-path="url(#clip670)" style="stroke:#c271d2; stroke-linecap:round; stroke-linejoin:round; stroke-width:4; stroke-opacity:1; fill:none" points="351.057,300.059 490.711,300.059 "/>
<path clip-path="url(#clip670)" d="M420.884 278.508 L399.332 321.611 L442.435 321.611 L420.884 278.508 Z" fill="#c271d2" fill-rule="evenodd" fill-opacity="1" stroke="#000000" stroke-opacity="1" stroke-width="4.55111"/>
<path clip-path="url(#clip670)" d="M513.986 282.779 L518.662 282.779 L518.662 317.339 L513.986 317.339 L513.986 282.779 Z" fill="#000000" fill-rule="nonzero" fill-opacity="1" /><path clip-path="url(#clip670)" d="M531.995 284.052 L531.995 291.413 L540.768 291.413 L540.768 294.724 L531.995 294.724 L531.995 308.798 Q531.995 311.969 532.852 312.872 Q533.731 313.774 536.393 313.774 L540.768 313.774 L540.768 317.339 L536.393 317.339 Q531.463 317.339 529.588 315.51 Q527.713 313.659 527.713 308.798 L527.713 294.724 L524.588 294.724 L524.588 291.413 L527.713 291.413 L527.713 284.052 L531.995 284.052 Z" fill="#000000" fill-rule="nonzero" fill-opacity="1" /><path clip-path="url(#clip670)" d="M568.546 303.311 L568.546 305.395 L548.963 305.395 Q549.241 309.793 551.602 312.108 Q553.986 314.399 558.222 314.399 Q560.676 314.399 562.967 313.798 Q565.282 313.196 567.551 311.992 L567.551 316.02 Q565.259 316.992 562.852 317.501 Q560.444 318.01 557.967 318.01 Q551.764 318.01 548.129 314.399 Q544.518 310.788 544.518 304.631 Q544.518 298.265 547.944 294.538 Q551.393 290.788 557.227 290.788 Q562.458 290.788 565.49 294.168 Q568.546 297.524 568.546 303.311 M564.287 302.061 Q564.24 298.566 562.319 296.483 Q560.421 294.399 557.273 294.399 Q553.708 294.399 551.555 296.413 Q549.426 298.427 549.102 302.085 L564.287 302.061 Z" fill="#000000" fill-rule="nonzero" fill-opacity="1" /><path clip-path="url(#clip670)" d="M590.56 295.395 Q589.842 294.978 588.986 294.793 Q588.152 294.585 587.134 294.585 Q583.523 294.585 581.578 296.946 Q579.657 299.284 579.657 303.682 L579.657 317.339 L575.375 317.339 L575.375 291.413 L579.657 291.413 L579.657 295.441 Q581 293.08 583.152 291.946 Q585.305 290.788 588.384 290.788 Q588.824 290.788 589.356 290.858 Q589.888 290.904 590.537 291.02 L590.56 295.395 Z" fill="#000000" fill-rule="nonzero" fill-opacity="1" /><path clip-path="url(#clip670)" d="M621.879 304.307 Q616.717 304.307 614.726 305.487 Q612.736 306.668 612.736 309.515 Q612.736 311.784 614.217 313.126 Q615.722 314.446 618.291 314.446 Q621.833 314.446 623.962 311.946 Q626.115 309.423 626.115 305.256 L626.115 304.307 L621.879 304.307 M630.374 302.548 L630.374 317.339 L626.115 317.339 L626.115 313.404 Q624.657 315.765 622.481 316.899 Q620.305 318.01 617.157 318.01 Q613.175 318.01 610.814 315.788 Q608.476 313.543 608.476 309.793 Q608.476 305.418 611.393 303.196 Q614.333 300.974 620.143 300.974 L626.115 300.974 L626.115 300.557 Q626.115 297.617 624.171 296.02 Q622.249 294.399 618.754 294.399 Q616.532 294.399 614.425 294.932 Q612.319 295.464 610.375 296.529 L610.375 292.594 Q612.712 291.691 614.912 291.251 Q617.111 290.788 619.194 290.788 Q624.819 290.788 627.597 293.705 Q630.374 296.622 630.374 302.548 Z" fill="#000000" fill-rule="nonzero" fill-opacity="1" /><path clip-path="url(#clip670)" d="M660.698 301.691 L660.698 317.339 L656.439 317.339 L656.439 301.83 Q656.439 298.149 655.004 296.321 Q653.569 294.492 650.698 294.492 Q647.249 294.492 645.259 296.691 Q643.268 298.89 643.268 302.686 L643.268 317.339 L638.985 317.339 L638.985 291.413 L643.268 291.413 L643.268 295.441 Q644.796 293.103 646.856 291.946 Q648.939 290.788 651.647 290.788 Q656.115 290.788 658.407 293.566 Q660.698 296.321 660.698 301.691 Z" fill="#000000" fill-rule="nonzero" fill-opacity="1" /><path clip-path="url(#clip670)" d="M686.254 295.349 L686.254 281.321 L690.513 281.321 L690.513 317.339 L686.254 317.339 L686.254 313.45 Q684.911 315.765 682.851 316.899 Q680.814 318.01 677.944 318.01 Q673.245 318.01 670.282 314.26 Q667.342 310.511 667.342 304.399 Q667.342 298.288 670.282 294.538 Q673.245 290.788 677.944 290.788 Q680.814 290.788 682.851 291.923 Q684.911 293.034 686.254 295.349 M671.74 304.399 Q671.74 309.098 673.661 311.784 Q675.606 314.446 678.985 314.446 Q682.365 314.446 684.309 311.784 Q686.254 309.098 686.254 304.399 Q686.254 299.7 684.309 297.038 Q682.365 294.353 678.985 294.353 Q675.606 294.353 673.661 297.038 Q671.74 299.7 671.74 304.399 Z" fill="#000000" fill-rule="nonzero" fill-opacity="1" /><path clip-path="url(#clip670)" d="M730.929 301.136 Q732.434 301.645 733.846 303.311 Q735.281 304.978 736.716 307.895 L741.462 317.339 L736.439 317.339 L732.017 308.473 Q730.304 305.001 728.684 303.867 Q727.087 302.733 724.309 302.733 L719.217 302.733 L719.217 317.339 L714.541 317.339 L714.541 282.779 L725.096 282.779 Q731.022 282.779 733.939 285.256 Q736.855 287.733 736.855 292.733 Q736.855 295.997 735.328 298.149 Q733.823 300.302 730.929 301.136 M719.217 286.622 L719.217 298.89 L725.096 298.89 Q728.476 298.89 730.189 297.339 Q731.925 295.765 731.925 292.733 Q731.925 289.7 730.189 288.173 Q728.476 286.622 725.096 286.622 L719.217 286.622 Z" fill="#000000" fill-rule="nonzero" fill-opacity="1" /><path clip-path="url(#clip670)" d="M767.341 303.311 L767.341 305.395 L747.758 305.395 Q748.036 309.793 750.397 312.108 Q752.781 314.399 757.017 314.399 Q759.471 314.399 761.763 313.798 Q764.077 313.196 766.346 311.992 L766.346 316.02 Q764.054 316.992 761.647 317.501 Q759.239 318.01 756.763 318.01 Q750.559 318.01 746.925 314.399 Q743.314 310.788 743.314 304.631 Q743.314 298.265 746.74 294.538 Q750.189 290.788 756.022 290.788 Q761.253 290.788 764.286 294.168 Q767.341 297.524 767.341 303.311 M763.082 302.061 Q763.036 298.566 761.114 296.483 Q759.216 294.399 756.068 294.399 Q752.503 294.399 750.351 296.413 Q748.221 298.427 747.897 302.085 L763.082 302.061 Z" fill="#000000" fill-rule="nonzero" fill-opacity="1" /><path clip-path="url(#clip670)" d="M787.457 281.321 L787.457 284.863 L783.383 284.863 Q781.091 284.863 780.188 285.788 Q779.309 286.714 779.309 289.122 L779.309 291.413 L786.323 291.413 L786.323 294.724 L779.309 294.724 L779.309 317.339 L775.026 317.339 L775.026 294.724 L770.952 294.724 L770.952 291.413 L775.026 291.413 L775.026 289.608 Q775.026 285.279 777.04 283.312 Q779.054 281.321 783.429 281.321 L787.457 281.321 Z" fill="#000000" fill-rule="nonzero" fill-opacity="1" /><polyline clip-path="url(#clip670)" style="stroke:#ac8d18; stroke-linecap:round; stroke-linejoin:round; stroke-width:4; stroke-opacity:1; fill:none" points="351.057,351.899 490.711,351.899 "/>
<path clip-path="url(#clip670)" d="M420.884 330.348 L415.819 344.917 L400.388 345.24 L412.694 354.572 L408.212 369.334 L420.884 360.52 L433.556 369.334 L429.073 354.572 L441.379 345.24 L425.948 344.917 L420.884 330.348 Z" fill="#ac8d18" fill-rule="evenodd" fill-opacity="1" stroke="#000000" stroke-opacity="1" stroke-width="4.55111"/>
<path clip-path="url(#clip670)" d="M518.662 352.675 L518.662 365.337 L526.162 365.337 Q529.935 365.337 531.741 363.786 Q533.569 362.212 533.569 358.994 Q533.569 355.753 531.741 354.226 Q529.935 352.675 526.162 352.675 L518.662 352.675 M518.662 338.462 L518.662 348.878 L525.583 348.878 Q529.009 348.878 530.676 347.605 Q532.366 346.309 532.366 343.67 Q532.366 341.054 530.676 339.758 Q529.009 338.462 525.583 338.462 L518.662 338.462 M513.986 334.619 L525.931 334.619 Q531.278 334.619 534.171 336.841 Q537.065 339.064 537.065 343.161 Q537.065 346.332 535.583 348.207 Q534.102 350.082 531.231 350.545 Q534.68 351.286 536.579 353.647 Q538.5 355.985 538.5 359.503 Q538.5 364.133 535.352 366.656 Q532.204 369.179 526.393 369.179 L513.986 369.179 L513.986 334.619 Z" fill="#000000" fill-rule="nonzero" fill-opacity="1" /><path clip-path="url(#clip670)" d="M561.347 347.235 Q560.629 346.818 559.773 346.633 Q558.94 346.425 557.921 346.425 Q554.31 346.425 552.366 348.786 Q550.444 351.124 550.444 355.522 L550.444 369.179 L546.162 369.179 L546.162 343.253 L550.444 343.253 L550.444 347.281 Q551.787 344.92 553.94 343.786 Q556.092 342.628 559.171 342.628 Q559.611 342.628 560.143 342.698 Q560.676 342.744 561.324 342.86 L561.347 347.235 Z" fill="#000000" fill-rule="nonzero" fill-opacity="1" /><path clip-path="url(#clip670)" d="M565.375 358.948 L565.375 343.253 L569.634 343.253 L569.634 358.786 Q569.634 362.466 571.069 364.318 Q572.504 366.147 575.375 366.147 Q578.824 366.147 580.814 363.948 Q582.828 361.749 582.828 357.952 L582.828 343.253 L587.088 343.253 L587.088 369.179 L582.828 369.179 L582.828 365.198 Q581.277 367.559 579.217 368.716 Q577.18 369.85 574.472 369.85 Q570.004 369.85 567.69 367.073 Q565.375 364.295 565.375 358.948 M576.092 342.628 L576.092 342.628 Z" fill="#000000" fill-rule="nonzero" fill-opacity="1" /><path clip-path="url(#clip670)" d="M617.411 353.531 L617.411 369.179 L613.152 369.179 L613.152 353.67 Q613.152 349.989 611.717 348.161 Q610.282 346.332 607.412 346.332 Q603.962 346.332 601.972 348.531 Q599.981 350.73 599.981 354.526 L599.981 369.179 L595.699 369.179 L595.699 343.253 L599.981 343.253 L599.981 347.281 Q601.509 344.943 603.569 343.786 Q605.652 342.628 608.361 342.628 Q612.828 342.628 615.12 345.406 Q617.411 348.161 617.411 353.531 Z" fill="#000000" fill-rule="nonzero" fill-opacity="1" /><path clip-path="url(#clip670)" d="M635.953 346.239 Q632.527 346.239 630.536 348.925 Q628.546 351.587 628.546 356.239 Q628.546 360.892 630.513 363.577 Q632.504 366.239 635.953 366.239 Q639.356 366.239 641.347 363.554 Q643.337 360.869 643.337 356.239 Q643.337 351.633 641.347 348.948 Q639.356 346.239 635.953 346.239 M635.953 342.628 Q641.509 342.628 644.68 346.239 Q647.851 349.851 647.851 356.239 Q647.851 362.605 644.68 366.239 Q641.509 369.85 635.953 369.85 Q630.374 369.85 627.203 366.239 Q624.055 362.605 624.055 356.239 Q624.055 349.851 627.203 346.239 Q630.374 342.628 635.953 342.628 Z" fill="#000000" fill-rule="nonzero" fill-opacity="1" /><path clip-path="url(#clip670)" d="M696.045 337.281 L696.045 342.212 Q693.684 340.013 690.999 338.925 Q688.337 337.837 685.328 337.837 Q679.402 337.837 676.254 341.471 Q673.106 345.082 673.106 351.934 Q673.106 358.763 676.254 362.397 Q679.402 366.008 685.328 366.008 Q688.337 366.008 690.999 364.92 Q693.684 363.832 696.045 361.633 L696.045 366.517 Q693.592 368.184 690.837 369.017 Q688.106 369.85 685.05 369.85 Q677.203 369.85 672.689 365.059 Q668.175 360.244 668.175 351.934 Q668.175 343.601 672.689 338.809 Q677.203 333.994 685.05 333.994 Q688.152 333.994 690.883 334.828 Q693.638 335.638 696.045 337.281 Z" fill="#000000" fill-rule="nonzero" fill-opacity="1" /><path clip-path="url(#clip670)" d="M714.865 356.147 Q709.703 356.147 707.712 357.327 Q705.721 358.508 705.721 361.355 Q705.721 363.624 707.203 364.966 Q708.707 366.286 711.277 366.286 Q714.818 366.286 716.948 363.786 Q719.101 361.263 719.101 357.096 L719.101 356.147 L714.865 356.147 M723.36 354.388 L723.36 369.179 L719.101 369.179 L719.101 365.244 Q717.642 367.605 715.467 368.739 Q713.291 369.85 710.142 369.85 Q706.161 369.85 703.8 367.628 Q701.462 365.383 701.462 361.633 Q701.462 357.258 704.379 355.036 Q707.318 352.814 713.129 352.814 L719.101 352.814 L719.101 352.397 Q719.101 349.457 717.156 347.86 Q715.235 346.239 711.74 346.239 Q709.517 346.239 707.411 346.772 Q705.305 347.304 703.36 348.369 L703.36 344.434 Q705.698 343.531 707.897 343.091 Q710.096 342.628 712.18 342.628 Q717.804 342.628 720.582 345.545 Q723.36 348.462 723.36 354.388 Z" fill="#000000" fill-rule="nonzero" fill-opacity="1" /><path clip-path="url(#clip670)" d="M747.156 347.235 Q746.439 346.818 745.582 346.633 Q744.749 346.425 743.73 346.425 Q740.119 346.425 738.175 348.786 Q736.253 351.124 736.253 355.522 L736.253 369.179 L731.971 369.179 L731.971 343.253 L736.253 343.253 L736.253 347.281 Q737.596 344.92 739.749 343.786 Q741.902 342.628 744.98 342.628 Q745.42 342.628 745.952 342.698 Q746.485 342.744 747.133 342.86 L747.156 347.235 Z" fill="#000000" fill-rule="nonzero" fill-opacity="1" /><path clip-path="url(#clip670)" d="M770.975 348.23 Q772.573 345.36 774.795 343.994 Q777.017 342.628 780.026 342.628 Q784.077 342.628 786.276 345.476 Q788.475 348.3 788.475 353.531 L788.475 369.179 L784.193 369.179 L784.193 353.67 Q784.193 349.943 782.874 348.138 Q781.554 346.332 778.846 346.332 Q775.536 346.332 773.614 348.531 Q771.693 350.73 771.693 354.526 L771.693 369.179 L767.411 369.179 L767.411 353.67 Q767.411 349.92 766.091 348.138 Q764.772 346.332 762.017 346.332 Q758.753 346.332 756.832 348.554 Q754.911 350.753 754.911 354.526 L754.911 369.179 L750.628 369.179 L750.628 343.253 L754.911 343.253 L754.911 347.281 Q756.369 344.897 758.406 343.763 Q760.443 342.628 763.244 342.628 Q766.068 342.628 768.036 344.064 Q770.026 345.499 770.975 348.23 Z" fill="#000000" fill-rule="nonzero" fill-opacity="1" /><path clip-path="url(#clip670)" d="M807.017 346.239 Q803.591 346.239 801.6 348.925 Q799.61 351.587 799.61 356.239 Q799.61 360.892 801.577 363.577 Q803.568 366.239 807.017 366.239 Q810.42 366.239 812.41 363.554 Q814.401 360.869 814.401 356.239 Q814.401 351.633 812.41 348.948 Q810.42 346.239 807.017 346.239 M807.017 342.628 Q812.572 342.628 815.744 346.239 Q818.915 349.851 818.915 356.239 Q818.915 362.605 815.744 366.239 Q812.572 369.85 807.017 369.85 Q801.438 369.85 798.267 366.239 Q795.119 362.605 795.119 356.239 Q795.119 349.851 798.267 346.239 Q801.438 342.628 807.017 342.628 Z" fill="#000000" fill-rule="nonzero" fill-opacity="1" /></svg>
