<?xml version="1.0" encoding="utf-8"?>
<svg xmlns="http://www.w3.org/2000/svg" xmlns:xlink="http://www.w3.org/1999/xlink" width="600" height="400" viewBox="0 0 2400 1600">
<defs>
  <clipPath id="clip880">
    <rect x="0" y="0" width="2400" height="1600"/>
  </clipPath>
</defs>
<path clip-path="url(#clip880)" d="M0 1600 L2400 1600 L2400 0 L0 0  Z" fill="#ffffff" fill-rule="evenodd" fill-opacity="1"/>
<defs>
  <clipPath id="clip881">
    <rect x="480" y="0" width="1681" height="1600"/>
  </clipPath>
</defs>
<path clip-path="url(#clip880)" d="M257.955 1410.9 L2352.76 1410.9 L2352.76 47.2441 L257.955 47.2441  Z" fill="#ffffff" fill-rule="evenodd" fill-opacity="1"/>
<defs>
  <clipPath id="clip882">
    <rect x="257" y="47" width="2096" height="1365"/>
  </clipPath>
</defs>
<polyline clip-path="url(#clip882)" style="stroke:#000000; stroke-linecap:round; stroke-linejoin:round; stroke-width:2; stroke-opacity:0.1; fill:none" points="643.796,1410.9 643.796,47.2441 "/>
<polyline clip-path="url(#clip882)" style="stroke:#000000; stroke-linecap:round; stroke-linejoin:round; stroke-width:2; stroke-opacity:0.1; fill:none" points="1054.1,1410.9 1054.1,47.2441 "/>
<polyline clip-path="url(#clip882)" style="stroke:#000000; stroke-linecap:round; stroke-linejoin:round; stroke-width:2; stroke-opacity:0.1; fill:none" points="1464.41,1410.9 1464.41,47.2441 "/>
<polyline clip-path="url(#clip882)" style="stroke:#000000; stroke-linecap:round; stroke-linejoin:round; stroke-width:2; stroke-opacity:0.1; fill:none" points="1874.71,1410.9 1874.71,47.2441 "/>
<polyline clip-path="url(#clip882)" style="stroke:#000000; stroke-linecap:round; stroke-linejoin:round; stroke-width:2; stroke-opacity:0.1; fill:none" points="2285.02,1410.9 2285.02,47.2441 "/>
<polyline clip-path="url(#clip880)" style="stroke:#000000; stroke-linecap:round; stroke-linejoin:round; stroke-width:4; stroke-opacity:1; fill:none" points="257.955,1410.9 2352.76,1410.9 "/>
<polyline clip-path="url(#clip880)" style="stroke:#000000; stroke-linecap:round; stroke-linejoin:round; stroke-width:4; stroke-opacity:1; fill:none" points="643.796,1410.9 643.796,1392 "/>
<polyline clip-path="url(#clip880)" style="stroke:#000000; stroke-linecap:round; stroke-linejoin:round; stroke-width:4; stroke-opacity:1; fill:none" points="1054.1,1410.9 1054.1,1392 "/>
<polyline clip-path="url(#clip880)" style="stroke:#000000; stroke-linecap:round; stroke-linejoin:round; stroke-width:4; stroke-opacity:1; fill:none" points="1464.41,1410.9 1464.41,1392 "/>
<polyline clip-path="url(#clip880)" style="stroke:#000000; stroke-linecap:round; stroke-linejoin:round; stroke-width:4; stroke-opacity:1; fill:none" points="1874.71,1410.9 1874.71,1392 "/>
<polyline clip-path="url(#clip880)" style="stroke:#000000; stroke-linecap:round; stroke-linejoin:round; stroke-width:4; stroke-opacity:1; fill:none" points="2285.02,1410.9 2285.02,1392 "/>
<path clip-path="url(#clip880)" d="M609.568 1485.02 L617.207 1485.02 L617.207 1458.66 L608.897 1460.32 L608.897 1456.06 L617.161 1454.4 L621.837 1454.4 L621.837 1485.02 L629.476 1485.02 L629.476 1488.96 L609.568 1488.96 L609.568 1485.02 Z" fill="#000000" fill-rule="nonzero" fill-opacity="1" /><path clip-path="url(#clip880)" d="M648.92 1457.48 Q645.309 1457.48 643.48 1461.04 Q641.675 1464.58 641.675 1471.71 Q641.675 1478.82 643.48 1482.38 Q645.309 1485.92 648.92 1485.92 Q652.554 1485.92 654.36 1482.38 Q656.188 1478.82 656.188 1471.71 Q656.188 1464.58 654.36 1461.04 Q652.554 1457.48 648.92 1457.48 M648.92 1453.77 Q654.73 1453.77 657.786 1458.38 Q660.864 1462.96 660.864 1471.71 Q660.864 1480.44 657.786 1485.04 Q654.73 1489.63 648.92 1489.63 Q643.11 1489.63 640.031 1485.04 Q636.976 1480.44 636.976 1471.71 Q636.976 1462.96 640.031 1458.38 Q643.11 1453.77 648.92 1453.77 Z" fill="#000000" fill-rule="nonzero" fill-opacity="1" /><path clip-path="url(#clip880)" d="M665.435 1458.35 L678.694 1458.35 L678.694 1461.55 L660.864 1461.55 L660.864 1458.35 Q663.027 1456.11 666.751 1452.35 Q670.494 1448.57 671.453 1447.48 Q673.277 1445.43 673.992 1444.02 Q674.726 1442.59 674.726 1441.22 Q674.726 1438.98 673.146 1437.57 Q671.585 1436.16 669.064 1436.16 Q667.278 1436.16 665.284 1436.78 Q663.309 1437.4 661.052 1438.66 L661.052 1434.82 Q663.347 1433.9 665.341 1433.43 Q667.334 1432.96 668.989 1432.96 Q673.353 1432.96 675.948 1435.14 Q678.544 1437.32 678.544 1440.97 Q678.544 1442.7 677.885 1444.26 Q677.246 1445.8 675.534 1447.91 Q675.064 1448.46 672.544 1451.07 Q670.024 1453.67 665.435 1458.35 Z" fill="#000000" fill-rule="nonzero" fill-opacity="1" /><path clip-path="url(#clip880)" d="M1019.54 1485.02 L1027.18 1485.02 L1027.18 1458.66 L1018.87 1460.32 L1018.87 1456.06 L1027.14 1454.4 L1031.81 1454.4 L1031.81 1485.02 L1039.45 1485.02 L1039.45 1488.96 L1019.54 1488.96 L1019.54 1485.02 Z" fill="#000000" fill-rule="nonzero" fill-opacity="1" /><path clip-path="url(#clip880)" d="M1058.9 1457.48 Q1055.29 1457.48 1053.46 1461.04 Q1051.65 1464.58 1051.65 1471.71 Q1051.65 1478.82 1053.46 1482.38 Q1055.29 1485.92 1058.9 1485.92 Q1062.53 1485.92 1064.34 1482.38 Q1066.16 1478.82 1066.16 1471.71 Q1066.16 1464.58 1064.34 1461.04 Q1062.53 1457.48 1058.9 1457.48 M1058.9 1453.77 Q1064.71 1453.77 1067.76 1458.38 Q1070.84 1462.96 1070.84 1471.71 Q1070.84 1480.44 1067.76 1485.04 Q1064.71 1489.63 1058.9 1489.63 Q1053.09 1489.63 1050.01 1485.04 Q1046.95 1480.44 1046.95 1471.71 Q1046.95 1462.96 1050.01 1458.38 Q1053.09 1453.77 1058.9 1453.77 Z" fill="#000000" fill-rule="nonzero" fill-opacity="1" /><path clip-path="url(#clip880)" d="M1083.54 1446.41 Q1086.26 1446.99 1087.79 1448.83 Q1089.33 1450.68 1089.33 1453.38 Q1089.33 1457.54 1086.47 1459.82 Q1083.61 1462.09 1078.34 1462.09 Q1076.58 1462.09 1074.7 1461.73 Q1072.83 1461.4 1070.84 1460.7 L1070.84 1457.03 Q1072.42 1457.95 1074.3 1458.42 Q1076.18 1458.89 1078.23 1458.89 Q1081.81 1458.89 1083.67 1457.48 Q1085.55 1456.07 1085.55 1453.38 Q1085.55 1450.9 1083.8 1449.51 Q1082.07 1448.1 1078.97 1448.1 L1075.69 1448.1 L1075.69 1444.98 L1079.12 1444.98 Q1081.92 1444.98 1083.4 1443.87 Q1084.89 1442.74 1084.89 1440.63 Q1084.89 1438.47 1083.35 1437.32 Q1081.82 1436.16 1078.97 1436.16 Q1077.4 1436.16 1075.62 1436.49 Q1073.83 1436.83 1071.69 1437.55 L1071.69 1434.16 Q1073.85 1433.56 1075.73 1433.26 Q1077.63 1432.96 1079.3 1432.96 Q1083.63 1432.96 1086.15 1434.93 Q1088.67 1436.89 1088.67 1440.24 Q1088.67 1442.57 1087.33 1444.19 Q1086 1445.79 1083.54 1446.41 Z" fill="#000000" fill-rule="nonzero" fill-opacity="1" /><path clip-path="url(#clip880)" d="M1428.86 1485.02 L1436.5 1485.02 L1436.5 1458.66 L1428.19 1460.32 L1428.19 1456.06 L1436.45 1454.4 L1441.13 1454.4 L1441.13 1485.02 L1448.77 1485.02 L1448.77 1488.96 L1428.86 1488.96 L1428.86 1485.02 Z" fill="#000000" fill-rule="nonzero" fill-opacity="1" /><path clip-path="url(#clip880)" d="M1468.21 1457.48 Q1464.6 1457.48 1462.77 1461.04 Q1460.97 1464.58 1460.97 1471.71 Q1460.97 1478.82 1462.77 1482.38 Q1464.6 1485.92 1468.21 1485.92 Q1471.85 1485.92 1473.65 1482.38 Q1475.48 1478.82 1475.48 1471.71 Q1475.48 1464.58 1473.65 1461.04 Q1471.85 1457.48 1468.21 1457.48 M1468.21 1453.77 Q1474.02 1453.77 1477.08 1458.38 Q1480.16 1462.96 1480.16 1471.71 Q1480.16 1480.44 1477.08 1485.04 Q1474.02 1489.63 1468.21 1489.63 Q1462.4 1489.63 1459.33 1485.04 Q1456.27 1480.44 1456.27 1471.71 Q1456.27 1462.96 1459.33 1458.38 Q1462.4 1453.77 1468.21 1453.77 Z" fill="#000000" fill-rule="nonzero" fill-opacity="1" /><path clip-path="url(#clip880)" d="M1492.83 1436.78 L1483.24 1451.77 L1492.83 1451.77 L1492.83 1436.78 M1491.84 1433.47 L1496.62 1433.47 L1496.62 1451.77 L1500.62 1451.77 L1500.62 1454.93 L1496.62 1454.93 L1496.62 1461.55 L1492.83 1461.55 L1492.83 1454.93 L1480.16 1454.93 L1480.16 1451.26 L1491.84 1433.47 Z" fill="#000000" fill-rule="nonzero" fill-opacity="1" /><path clip-path="url(#clip880)" d="M1840.31 1485.02 L1847.95 1485.02 L1847.95 1458.66 L1839.64 1460.32 L1839.64 1456.06 L1847.91 1454.4 L1852.58 1454.4 L1852.58 1485.02 L1860.22 1485.02 L1860.22 1488.96 L1840.31 1488.96 L1840.31 1485.02 Z" fill="#000000" fill-rule="nonzero" fill-opacity="1" /><path clip-path="url(#clip880)" d="M1879.67 1457.48 Q1876.06 1457.48 1874.23 1461.04 Q1872.42 1464.58 1872.42 1471.71 Q1872.42 1478.82 1874.23 1482.38 Q1876.06 1485.92 1879.67 1485.92 Q1883.3 1485.92 1885.11 1482.38 Q1886.94 1478.82 1886.94 1471.71 Q1886.94 1464.58 1885.11 1461.04 Q1883.3 1457.48 1879.67 1457.48 M1879.67 1453.77 Q1885.48 1453.77 1888.53 1458.38 Q1891.61 1462.96 1891.61 1471.71 Q1891.61 1480.44 1888.53 1485.04 Q1885.48 1489.63 1879.67 1489.63 Q1873.86 1489.63 1870.78 1485.04 Q1867.72 1480.44 1867.72 1471.71 Q1867.72 1462.96 1870.78 1458.38 Q1873.86 1453.77 1879.67 1453.77 Z" fill="#000000" fill-rule="nonzero" fill-opacity="1" /><path clip-path="url(#clip880)" d="M1892.8 1433.47 L1907.71 1433.47 L1907.71 1436.66 L1896.28 1436.66 L1896.28 1443.55 Q1897.1 1443.27 1897.93 1443.13 Q1898.76 1442.98 1899.59 1442.98 Q1904.29 1442.98 1907.03 1445.56 Q1909.78 1448.14 1909.78 1452.54 Q1909.78 1457.07 1906.96 1459.59 Q1904.14 1462.09 1899 1462.09 Q1897.23 1462.09 1895.39 1461.79 Q1893.57 1461.49 1891.61 1460.89 L1891.61 1457.07 Q1893.3 1457.99 1895.11 1458.44 Q1896.91 1458.89 1898.93 1458.89 Q1902.18 1458.89 1904.08 1457.18 Q1905.98 1455.47 1905.98 1452.54 Q1905.98 1449.6 1904.08 1447.89 Q1902.18 1446.18 1898.93 1446.18 Q1897.4 1446.18 1895.88 1446.52 Q1894.38 1446.86 1892.8 1447.57 L1892.8 1433.47 Z" fill="#000000" fill-rule="nonzero" fill-opacity="1" /><path clip-path="url(#clip880)" d="M2250.01 1485.02 L2257.65 1485.02 L2257.65 1458.66 L2249.34 1460.32 L2249.34 1456.06 L2257.6 1454.4 L2262.28 1454.4 L2262.28 1485.02 L2269.92 1485.02 L2269.92 1488.96 L2250.01 1488.96 L2250.01 1485.02 Z" fill="#000000" fill-rule="nonzero" fill-opacity="1" /><path clip-path="url(#clip880)" d="M2289.36 1457.48 Q2285.75 1457.48 2283.92 1461.04 Q2282.12 1464.58 2282.12 1471.71 Q2282.12 1478.82 2283.92 1482.38 Q2285.75 1485.92 2289.36 1485.92 Q2292.99 1485.92 2294.8 1482.38 Q2296.63 1478.82 2296.63 1471.71 Q2296.63 1464.58 2294.8 1461.04 Q2292.99 1457.48 2289.36 1457.48 M2289.36 1453.77 Q2295.17 1453.77 2298.23 1458.38 Q2301.31 1462.96 2301.31 1471.71 Q2301.31 1480.44 2298.23 1485.04 Q2295.17 1489.63 2289.36 1489.63 Q2283.55 1489.63 2280.47 1485.04 Q2277.42 1480.44 2277.42 1471.71 Q2277.42 1462.96 2280.47 1458.38 Q2283.55 1453.77 2289.36 1453.77 Z" fill="#000000" fill-rule="nonzero" fill-opacity="1" /><path clip-path="url(#clip880)" d="M2311.33 1445.99 Q2308.77 1445.99 2307.27 1447.74 Q2305.78 1449.49 2305.78 1452.54 Q2305.78 1455.57 2307.27 1457.33 Q2308.77 1459.08 2311.33 1459.08 Q2313.89 1459.08 2315.37 1457.33 Q2316.88 1455.57 2316.88 1452.54 Q2316.88 1449.49 2315.37 1447.74 Q2313.89 1445.99 2311.33 1445.99 M2318.87 1434.09 L2318.87 1437.55 Q2317.44 1436.87 2315.98 1436.51 Q2314.53 1436.16 2313.1 1436.16 Q2309.34 1436.16 2307.34 1438.69 Q2305.37 1441.23 2305.09 1446.37 Q2306.2 1444.73 2307.87 1443.87 Q2309.54 1442.98 2311.56 1442.98 Q2315.79 1442.98 2318.23 1445.56 Q2320.7 1448.12 2320.7 1452.54 Q2320.7 1456.86 2318.14 1459.48 Q2315.58 1462.09 2311.33 1462.09 Q2306.46 1462.09 2303.88 1458.37 Q2301.31 1454.62 2301.31 1447.53 Q2301.31 1440.88 2304.46 1436.93 Q2307.62 1432.96 2312.95 1432.96 Q2314.38 1432.96 2315.82 1433.24 Q2317.29 1433.52 2318.87 1434.09 Z" fill="#000000" fill-rule="nonzero" fill-opacity="1" /><path clip-path="url(#clip880)" d="M998.29 1526.67 L1006.95 1526.67 L1028.02 1566.42 L1028.02 1526.67 L1034.26 1526.67 L1034.26 1574.19 L1025.6 1574.19 L1004.53 1534.43 L1004.53 1574.19 L998.29 1574.19 L998.29 1526.67 Z" fill="#000000" fill-rule="nonzero" fill-opacity="1" /><path clip-path="url(#clip880)" d="M1098.01 1554.9 L1098.01 1557.76 L1071.08 1557.76 Q1071.46 1563.81 1074.71 1566.99 Q1077.99 1570.14 1083.81 1570.14 Q1087.19 1570.14 1090.34 1569.32 Q1093.52 1568.49 1096.64 1566.83 L1096.64 1572.37 Q1093.49 1573.71 1090.18 1574.41 Q1086.87 1575.11 1083.46 1575.11 Q1074.93 1575.11 1069.94 1570.14 Q1064.97 1565.18 1064.97 1556.71 Q1064.97 1547.96 1069.68 1542.83 Q1074.42 1537.68 1082.44 1537.68 Q1089.64 1537.68 1093.81 1542.33 Q1098.01 1546.94 1098.01 1554.9 M1092.15 1553.18 Q1092.09 1548.37 1089.45 1545.51 Q1086.84 1542.64 1082.51 1542.64 Q1077.61 1542.64 1074.65 1545.41 Q1071.72 1548.18 1071.27 1553.21 L1092.15 1553.18 Z" fill="#000000" fill-rule="nonzero" fill-opacity="1" /><path clip-path="url(#clip880)" d="M1107.62 1524.66 L1113.48 1524.66 L1113.48 1574.19 L1107.62 1574.19 L1107.62 1524.66 Z" fill="#000000" fill-rule="nonzero" fill-opacity="1" /><path clip-path="url(#clip880)" d="M1156.22 1554.9 L1156.22 1557.76 L1129.3 1557.76 Q1129.68 1563.81 1132.92 1566.99 Q1136.2 1570.14 1142.03 1570.14 Q1145.4 1570.14 1148.55 1569.32 Q1151.73 1568.49 1154.85 1566.83 L1154.85 1572.37 Q1151.7 1573.71 1148.39 1574.41 Q1145.08 1575.11 1141.68 1575.11 Q1133.15 1575.11 1128.15 1570.14 Q1123.18 1565.18 1123.18 1556.71 Q1123.18 1547.96 1127.9 1542.83 Q1132.64 1537.68 1140.66 1537.68 Q1147.85 1537.68 1152.02 1542.33 Q1156.22 1546.94 1156.22 1554.9 M1150.37 1553.18 Q1150.3 1548.37 1147.66 1545.51 Q1145.05 1542.64 1140.72 1542.64 Q1135.82 1542.64 1132.86 1545.41 Q1129.93 1548.18 1129.49 1553.21 L1150.37 1553.18 Z" fill="#000000" fill-rule="nonzero" fill-opacity="1" /><path clip-path="url(#clip880)" d="M1193.59 1545.38 Q1195.79 1541.43 1198.84 1539.56 Q1201.9 1537.68 1206.03 1537.68 Q1211.6 1537.68 1214.63 1541.59 Q1217.65 1545.48 1217.65 1552.67 L1217.65 1574.19 L1211.76 1574.19 L1211.76 1552.86 Q1211.76 1547.74 1209.95 1545.25 Q1208.14 1542.77 1204.41 1542.77 Q1199.86 1542.77 1197.22 1545.79 Q1194.58 1548.82 1194.58 1554.04 L1194.58 1574.19 L1188.69 1574.19 L1188.69 1552.86 Q1188.69 1547.7 1186.87 1545.25 Q1185.06 1542.77 1181.27 1542.77 Q1176.78 1542.77 1174.14 1545.83 Q1171.5 1548.85 1171.5 1554.04 L1171.5 1574.19 L1165.61 1574.19 L1165.61 1538.54 L1171.5 1538.54 L1171.5 1544.08 Q1173.51 1540.8 1176.31 1539.24 Q1179.11 1537.68 1182.96 1537.68 Q1186.84 1537.68 1189.55 1539.65 Q1192.28 1541.62 1193.59 1545.38 Z" fill="#000000" fill-rule="nonzero" fill-opacity="1" /><path clip-path="url(#clip880)" d="M1259.82 1554.9 L1259.82 1557.76 L1232.9 1557.76 Q1233.28 1563.81 1236.53 1566.99 Q1239.8 1570.14 1245.63 1570.14 Q1249 1570.14 1252.15 1569.32 Q1255.34 1568.49 1258.46 1566.83 L1258.46 1572.37 Q1255.31 1573.71 1251.99 1574.41 Q1248.68 1575.11 1245.28 1575.11 Q1236.75 1575.11 1231.75 1570.14 Q1226.79 1565.18 1226.79 1556.71 Q1226.79 1547.96 1231.5 1542.83 Q1236.24 1537.68 1244.26 1537.68 Q1251.45 1537.68 1255.62 1542.33 Q1259.82 1546.94 1259.82 1554.9 M1253.97 1553.18 Q1253.9 1548.37 1251.26 1545.51 Q1248.65 1542.64 1244.32 1542.64 Q1239.42 1542.64 1236.46 1545.41 Q1233.53 1548.18 1233.09 1553.21 L1253.97 1553.18 Z" fill="#000000" fill-rule="nonzero" fill-opacity="1" /><path clip-path="url(#clip880)" d="M1299.07 1552.67 L1299.07 1574.19 L1293.21 1574.19 L1293.21 1552.86 Q1293.21 1547.8 1291.24 1545.29 Q1289.27 1542.77 1285.32 1542.77 Q1280.58 1542.77 1277.84 1545.79 Q1275.1 1548.82 1275.1 1554.04 L1275.1 1574.19 L1269.21 1574.19 L1269.21 1538.54 L1275.1 1538.54 L1275.1 1544.08 Q1277.2 1540.86 1280.04 1539.27 Q1282.9 1537.68 1286.62 1537.68 Q1292.77 1537.68 1295.92 1541.5 Q1299.07 1545.29 1299.07 1552.67 Z" fill="#000000" fill-rule="nonzero" fill-opacity="1" /><path clip-path="url(#clip880)" d="M1316.54 1528.42 L1316.54 1538.54 L1328.61 1538.54 L1328.61 1543.09 L1316.54 1543.09 L1316.54 1562.44 Q1316.54 1566.8 1317.72 1568.04 Q1318.93 1569.28 1322.59 1569.28 L1328.61 1569.28 L1328.61 1574.19 L1322.59 1574.19 Q1315.81 1574.19 1313.23 1571.67 Q1310.65 1569.12 1310.65 1562.44 L1310.65 1543.09 L1306.36 1543.09 L1306.36 1538.54 L1310.65 1538.54 L1310.65 1528.42 L1316.54 1528.42 Z" fill="#000000" fill-rule="nonzero" fill-opacity="1" /><path clip-path="url(#clip880)" d="M1359.03 1539.59 L1359.03 1545.13 Q1356.55 1543.85 1353.88 1543.22 Q1351.2 1542.58 1348.34 1542.58 Q1343.98 1542.58 1341.78 1543.92 Q1339.62 1545.25 1339.62 1547.93 Q1339.62 1549.96 1341.18 1551.14 Q1342.74 1552.29 1347.45 1553.34 L1349.45 1553.78 Q1355.69 1555.12 1358.3 1557.57 Q1360.94 1559.99 1360.94 1564.35 Q1360.94 1569.32 1357 1572.21 Q1353.08 1575.11 1346.21 1575.11 Q1343.34 1575.11 1340.22 1574.54 Q1337.14 1573.99 1333.7 1572.88 L1333.7 1566.83 Q1336.95 1568.52 1340.1 1569.38 Q1343.25 1570.21 1346.33 1570.21 Q1350.47 1570.21 1352.7 1568.81 Q1354.93 1567.37 1354.93 1564.8 Q1354.93 1562.41 1353.31 1561.14 Q1351.71 1559.86 1346.27 1558.68 L1344.23 1558.21 Q1338.79 1557.06 1336.37 1554.71 Q1333.95 1552.32 1333.95 1548.18 Q1333.95 1543.15 1337.52 1540.42 Q1341.08 1537.68 1347.64 1537.68 Q1350.89 1537.68 1353.75 1538.16 Q1356.62 1538.63 1359.03 1539.59 Z" fill="#000000" fill-rule="nonzero" fill-opacity="1" /><path clip-path="url(#clip880)" d="M1405.06 1524.72 Q1400.79 1532.04 1398.72 1539.21 Q1396.66 1546.37 1396.66 1553.72 Q1396.66 1561.07 1398.72 1568.3 Q1400.83 1575.49 1405.06 1582.78 L1399.97 1582.78 Q1395.19 1575.3 1392.8 1568.07 Q1390.45 1560.85 1390.45 1553.72 Q1390.45 1546.62 1392.8 1539.43 Q1395.16 1532.24 1399.97 1524.72 L1405.06 1524.72 Z" fill="#000000" fill-rule="nonzero" fill-opacity="1" /><path clip-path="url(#clip880)" d="M1416.42 1524.66 L1422.28 1524.66 L1422.28 1574.19 L1416.42 1574.19 L1416.42 1524.66 Z" fill="#000000" fill-rule="nonzero" fill-opacity="1" /><path clip-path="url(#clip880)" d="M1448.35 1542.64 Q1443.63 1542.64 1440.9 1546.34 Q1438.16 1550 1438.16 1556.39 Q1438.16 1562.79 1440.87 1566.48 Q1443.6 1570.14 1448.35 1570.14 Q1453.02 1570.14 1455.76 1566.45 Q1458.5 1562.76 1458.5 1556.39 Q1458.5 1550.06 1455.76 1546.37 Q1453.02 1542.64 1448.35 1542.64 M1448.35 1537.68 Q1455.98 1537.68 1460.34 1542.64 Q1464.7 1547.61 1464.7 1556.39 Q1464.7 1565.15 1460.34 1570.14 Q1455.98 1575.11 1448.35 1575.11 Q1440.67 1575.11 1436.31 1570.14 Q1431.99 1565.15 1431.99 1556.39 Q1431.99 1547.61 1436.31 1542.64 Q1440.67 1537.68 1448.35 1537.68 Z" fill="#000000" fill-rule="nonzero" fill-opacity="1" /><path clip-path="url(#clip880)" d="M1497.87 1555.95 Q1497.87 1549.58 1495.23 1546.08 Q1492.62 1542.58 1487.88 1542.58 Q1483.17 1542.58 1480.52 1546.08 Q1477.91 1549.58 1477.91 1555.95 Q1477.91 1562.28 1480.52 1565.78 Q1483.17 1569.28 1487.88 1569.28 Q1492.62 1569.28 1495.23 1565.78 Q1497.87 1562.28 1497.87 1555.95 M1503.73 1569.76 Q1503.73 1578.86 1499.68 1583.29 Q1495.64 1587.74 1487.3 1587.74 Q1484.22 1587.74 1481.48 1587.27 Q1478.74 1586.82 1476.16 1585.87 L1476.16 1580.17 Q1478.74 1581.57 1481.26 1582.24 Q1483.77 1582.91 1486.38 1582.91 Q1492.14 1582.91 1495.01 1579.88 Q1497.87 1576.89 1497.87 1570.81 L1497.87 1567.92 Q1496.06 1571.07 1493.22 1572.63 Q1490.39 1574.19 1486.44 1574.19 Q1479.89 1574.19 1475.88 1569.19 Q1471.87 1564.19 1471.87 1555.95 Q1471.87 1547.67 1475.88 1542.68 Q1479.89 1537.68 1486.44 1537.68 Q1490.39 1537.68 1493.22 1539.24 Q1496.06 1540.8 1497.87 1543.95 L1497.87 1538.54 L1503.73 1538.54 L1503.73 1569.76 Z" fill="#000000" fill-rule="nonzero" fill-opacity="1" /><path clip-path="url(#clip880)" d="M1517.73 1568.77 L1528.23 1568.77 L1528.23 1532.52 L1516.81 1534.81 L1516.81 1528.96 L1528.17 1526.67 L1534.6 1526.67 L1534.6 1568.77 L1545.1 1568.77 L1545.1 1574.19 L1517.73 1574.19 L1517.73 1568.77 Z" fill="#000000" fill-rule="nonzero" fill-opacity="1" /><path clip-path="url(#clip880)" d="M1571.84 1530.9 Q1566.87 1530.9 1564.36 1535.8 Q1561.88 1540.67 1561.88 1550.47 Q1561.88 1560.24 1564.36 1565.15 Q1566.87 1570.02 1571.84 1570.02 Q1576.84 1570.02 1579.32 1565.15 Q1581.83 1560.24 1581.83 1550.47 Q1581.83 1540.67 1579.32 1535.8 Q1576.84 1530.9 1571.84 1530.9 M1571.84 1525.81 Q1579.83 1525.81 1584.03 1532.14 Q1588.26 1538.44 1588.26 1550.47 Q1588.26 1562.47 1584.03 1568.81 Q1579.83 1575.11 1571.84 1575.11 Q1563.85 1575.11 1559.62 1568.81 Q1555.42 1562.47 1555.42 1550.47 Q1555.42 1538.44 1559.62 1532.14 Q1563.85 1525.81 1571.84 1525.81 Z" fill="#000000" fill-rule="nonzero" fill-opacity="1" /><path clip-path="url(#clip880)" d="M1597.81 1524.72 L1602.9 1524.72 Q1607.68 1532.24 1610.03 1539.43 Q1612.42 1546.62 1612.42 1553.72 Q1612.42 1560.85 1610.03 1568.07 Q1607.68 1575.3 1602.9 1582.78 L1597.81 1582.78 Q1602.05 1575.49 1604.11 1568.3 Q1606.21 1561.07 1606.21 1553.72 Q1606.21 1546.37 1604.11 1539.21 Q1602.05 1532.04 1597.81 1524.72 Z" fill="#000000" fill-rule="nonzero" fill-opacity="1" /><polyline clip-path="url(#clip882)" style="stroke:#000000; stroke-linecap:round; stroke-linejoin:round; stroke-width:2; stroke-opacity:0.1; fill:none" points="257.955,925.845 2352.76,925.845 "/>
<polyline clip-path="url(#clip882)" style="stroke:#000000; stroke-linecap:round; stroke-linejoin:round; stroke-width:2; stroke-opacity:0.1; fill:none" points="257.955,394.533 2352.76,394.533 "/>
<polyline clip-path="url(#clip880)" style="stroke:#000000; stroke-linecap:round; stroke-linejoin:round; stroke-width:4; stroke-opacity:1; fill:none" points="257.955,1410.9 257.955,47.2441 "/>
<polyline clip-path="url(#clip880)" style="stroke:#000000; stroke-linecap:round; stroke-linejoin:round; stroke-width:4; stroke-opacity:1; fill:none" points="257.955,925.845 276.853,925.845 "/>
<polyline clip-path="url(#clip880)" style="stroke:#000000; stroke-linecap:round; stroke-linejoin:round; stroke-width:4; stroke-opacity:1; fill:none" points="257.955,394.533 276.853,394.533 "/>
<path clip-path="url(#clip880)" d="M114.931 945.638 L122.57 945.638 L122.57 919.272 L114.26 920.939 L114.26 916.68 L122.524 915.013 L127.2 915.013 L127.2 945.638 L134.839 945.638 L134.839 949.573 L114.931 949.573 L114.931 945.638 Z" fill="#000000" fill-rule="nonzero" fill-opacity="1" /><path clip-path="url(#clip880)" d="M154.283 918.092 Q150.672 918.092 148.843 921.657 Q147.038 925.198 147.038 932.328 Q147.038 939.434 148.843 942.999 Q150.672 946.541 154.283 946.541 Q157.917 946.541 159.723 942.999 Q161.552 939.434 161.552 932.328 Q161.552 925.198 159.723 921.657 Q157.917 918.092 154.283 918.092 M154.283 914.388 Q160.093 914.388 163.149 918.994 Q166.227 923.578 166.227 932.328 Q166.227 941.055 163.149 945.661 Q160.093 950.244 154.283 950.244 Q148.473 950.244 145.394 945.661 Q142.339 941.055 142.339 932.328 Q142.339 923.578 145.394 918.994 Q148.473 914.388 154.283 914.388 Z" fill="#000000" fill-rule="nonzero" fill-opacity="1" /><path clip-path="url(#clip880)" d="M167.412 894.083 L182.327 894.083 L182.327 897.28 L170.892 897.28 L170.892 904.164 Q171.719 903.881 172.547 903.75 Q173.374 903.599 174.202 903.599 Q178.904 903.599 181.65 906.176 Q184.396 908.753 184.396 913.154 Q184.396 917.686 181.575 920.207 Q178.753 922.708 173.619 922.708 Q171.851 922.708 170.008 922.407 Q168.183 922.106 166.227 921.504 L166.227 917.686 Q167.92 918.608 169.726 919.059 Q171.531 919.511 173.544 919.511 Q176.797 919.511 178.697 917.799 Q180.597 916.088 180.597 913.154 Q180.597 910.22 178.697 908.508 Q176.797 906.797 173.544 906.797 Q172.02 906.797 170.497 907.135 Q168.992 907.474 167.412 908.188 L167.412 894.083 Z" fill="#000000" fill-rule="nonzero" fill-opacity="1" /><path clip-path="url(#clip880)" d="M191.881 917.385 L195.85 917.385 L195.85 922.163 L191.881 922.163 L191.881 917.385 Z" fill="#000000" fill-rule="nonzero" fill-opacity="1" /><path clip-path="url(#clip880)" d="M212.25 896.584 Q209.316 896.584 207.83 899.48 Q206.363 902.358 206.363 908.151 Q206.363 913.925 207.83 916.821 Q209.316 919.699 212.25 919.699 Q215.203 919.699 216.67 916.821 Q218.156 913.925 218.156 908.151 Q218.156 902.358 216.67 899.48 Q215.203 896.584 212.25 896.584 M212.25 893.575 Q216.971 893.575 219.453 897.318 Q221.955 901.041 221.955 908.151 Q221.955 915.241 219.453 918.984 Q216.971 922.708 212.25 922.708 Q207.529 922.708 205.028 918.984 Q202.545 915.241 202.545 908.151 Q202.545 901.041 205.028 897.318 Q207.529 893.575 212.25 893.575 Z" fill="#000000" fill-rule="nonzero" fill-opacity="1" /><path clip-path="url(#clip880)" d="M115.928 414.325 L123.567 414.325 L123.567 387.959 L115.257 389.626 L115.257 385.367 L123.521 383.7 L128.197 383.7 L128.197 414.325 L135.836 414.325 L135.836 418.26 L115.928 418.26 L115.928 414.325 Z" fill="#000000" fill-rule="nonzero" fill-opacity="1" /><path clip-path="url(#clip880)" d="M155.28 386.779 Q151.669 386.779 149.84 390.344 Q148.035 393.885 148.035 401.015 Q148.035 408.121 149.84 411.686 Q151.669 415.228 155.28 415.228 Q158.914 415.228 160.72 411.686 Q162.548 408.121 162.548 401.015 Q162.548 393.885 160.72 390.344 Q158.914 386.779 155.28 386.779 M155.28 383.075 Q161.09 383.075 164.146 387.682 Q167.224 392.265 167.224 401.015 Q167.224 409.742 164.146 414.348 Q161.09 418.931 155.28 418.931 Q149.47 418.931 146.391 414.348 Q143.336 409.742 143.336 401.015 Q143.336 392.265 146.391 387.682 Q149.47 383.075 155.28 383.075 Z" fill="#000000" fill-rule="nonzero" fill-opacity="1" /><path clip-path="url(#clip880)" d="M167.224 362.77 L185.28 362.77 L185.28 364.387 L175.086 390.85 L171.117 390.85 L180.709 365.967 L167.224 365.967 L167.224 362.77 Z" fill="#000000" fill-rule="nonzero" fill-opacity="1" /><path clip-path="url(#clip880)" d="M192.69 386.073 L196.658 386.073 L196.658 390.85 L192.69 390.85 L192.69 386.073 Z" fill="#000000" fill-rule="nonzero" fill-opacity="1" /><path clip-path="url(#clip880)" d="M204.971 362.77 L219.886 362.77 L219.886 365.967 L208.451 365.967 L208.451 372.851 Q209.278 372.569 210.106 372.437 Q210.934 372.286 211.761 372.286 Q216.463 372.286 219.209 374.863 Q221.955 377.44 221.955 381.841 Q221.955 386.373 219.134 388.894 Q216.313 391.395 211.178 391.395 Q209.41 391.395 207.567 391.094 Q205.743 390.793 203.787 390.191 L203.787 386.373 Q205.479 387.295 207.285 387.746 Q209.09 388.198 211.103 388.198 Q214.357 388.198 216.256 386.486 Q218.156 384.775 218.156 381.841 Q218.156 378.907 216.256 377.195 Q214.357 375.484 211.103 375.484 Q209.579 375.484 208.056 375.822 Q206.551 376.161 204.971 376.876 L204.971 362.77 Z" fill="#000000" fill-rule="nonzero" fill-opacity="1" /><path clip-path="url(#clip880)" d="M14.5426 825.447 Q21.8632 829.712 29.0246 831.781 Q36.186 833.85 43.5384 833.85 Q50.8908 833.85 58.1159 831.781 Q65.3091 829.68 72.5979 825.447 L72.5979 830.54 Q65.1182 835.314 57.8931 837.701 Q50.668 840.056 43.5384 840.056 Q36.4406 840.056 29.2474 837.701 Q22.0542 835.346 14.5426 830.54 L14.5426 825.447 Z" fill="#000000" fill-rule="nonzero" fill-opacity="1" /><path clip-path="url(#clip880)" d="M14.479 814.084 L14.479 808.228 L64.0042 808.228 L64.0042 814.084 L14.479 814.084 Z" fill="#000000" fill-rule="nonzero" fill-opacity="1" /><path clip-path="url(#clip880)" d="M32.4621 782.16 Q32.4621 786.871 36.1542 789.608 Q39.8145 792.345 46.212 792.345 Q52.6095 792.345 56.3017 789.64 Q59.9619 786.903 59.9619 782.16 Q59.9619 777.482 56.2698 774.744 Q52.5777 772.007 46.212 772.007 Q39.8781 772.007 36.186 774.744 Q32.4621 777.482 32.4621 782.16 M27.4968 782.16 Q27.4968 774.522 32.4621 770.161 Q37.4273 765.8 46.212 765.8 Q54.9649 765.8 59.9619 770.161 Q64.9272 774.522 64.9272 782.16 Q64.9272 789.831 59.9619 794.192 Q54.9649 798.52 46.212 798.52 Q37.4273 798.52 32.4621 794.192 Q27.4968 789.831 27.4968 782.16 Z" fill="#000000" fill-rule="nonzero" fill-opacity="1" /><path clip-path="url(#clip880)" d="M45.7664 732.635 Q39.4007 732.635 35.8996 735.277 Q32.3984 737.887 32.3984 742.629 Q32.3984 747.34 35.8996 749.982 Q39.4007 752.592 45.7664 752.592 Q52.1003 752.592 55.6014 749.982 Q59.1026 747.34 59.1026 742.629 Q59.1026 737.887 55.6014 735.277 Q52.1003 732.635 45.7664 732.635 M59.58 726.779 Q68.683 726.779 73.1071 730.821 Q77.5631 734.863 77.5631 743.202 Q77.5631 746.29 77.0857 749.027 Q76.6401 751.764 75.6852 754.342 L69.9879 754.342 Q71.3884 751.764 72.0568 749.25 Q72.7252 746.735 72.7252 744.125 Q72.7252 738.364 69.7015 735.5 Q66.7096 732.635 60.6303 732.635 L57.7339 732.635 Q60.885 734.449 62.4446 737.282 Q64.0042 740.115 64.0042 744.062 Q64.0042 750.618 59.0071 754.629 Q54.01 758.639 45.7664 758.639 Q37.491 758.639 32.4939 754.629 Q27.4968 750.618 27.4968 744.062 Q27.4968 740.115 29.0564 737.282 Q30.616 734.449 33.7671 732.635 L28.3562 732.635 L28.3562 726.779 L59.58 726.779 Z" fill="#000000" fill-rule="nonzero" fill-opacity="1" /><path clip-path="url(#clip880)" d="M58.5933 712.774 L58.5933 702.271 L22.3406 702.271 L24.6323 713.697 L18.7758 713.697 L16.4842 702.334 L16.4842 695.905 L58.5933 695.905 L58.5933 685.402 L64.0042 685.402 L64.0042 712.774 L58.5933 712.774 Z" fill="#000000" fill-rule="nonzero" fill-opacity="1" /><path clip-path="url(#clip880)" d="M20.7174 658.666 Q20.7174 663.631 25.6189 666.145 Q30.4887 668.628 40.2919 668.628 Q50.0633 668.628 54.9649 666.145 Q59.8346 663.631 59.8346 658.666 Q59.8346 653.669 54.9649 651.186 Q50.0633 648.671 40.2919 648.671 Q30.4887 648.671 25.6189 651.186 Q20.7174 653.669 20.7174 658.666 M15.6248 658.666 Q15.6248 650.677 21.9587 646.475 Q28.2607 642.242 40.2919 642.242 Q52.2913 642.242 58.6251 646.475 Q64.9272 650.677 64.9272 658.666 Q64.9272 666.655 58.6251 670.888 Q52.2913 675.089 40.2919 675.089 Q28.2607 675.089 21.9587 670.888 Q15.6248 666.655 15.6248 658.666 Z" fill="#000000" fill-rule="nonzero" fill-opacity="1" /><path clip-path="url(#clip880)" d="M14.5426 632.694 L14.5426 627.601 Q22.0542 622.827 29.2474 620.471 Q36.4406 618.084 43.5384 618.084 Q50.668 618.084 57.8931 620.471 Q65.1182 622.827 72.5979 627.601 L72.5979 632.694 Q65.3091 628.46 58.1159 626.392 Q50.8908 624.291 43.5384 624.291 Q36.186 624.291 29.0246 626.392 Q21.8632 628.46 14.5426 632.694 Z" fill="#000000" fill-rule="nonzero" fill-opacity="1" /><polyline clip-path="url(#clip882)" style="stroke:#009af9; stroke-linecap:round; stroke-linejoin:round; stroke-width:4; stroke-opacity:1; fill:none" points="317.242,1085.63 564.27,979.887 811.299,859.258 1058.33,730.588 1305.36,601.455 1552.38,472.592 1799.41,343.413 2046.44,213.923 2293.47,85.838 "/>
<circle clip-path="url(#clip882)" cx="317.242" cy="1085.63" r="14.4" fill="#009af9" fill-rule="evenodd" fill-opacity="1" stroke="#000000" stroke-opacity="1" stroke-width="3.2"/>
<circle clip-path="url(#clip882)" cx="564.27" cy="979.887" r="14.4" fill="#009af9" fill-rule="evenodd" fill-opacity="1" stroke="#000000" stroke-opacity="1" stroke-width="3.2"/>
<circle clip-path="url(#clip882)" cx="811.299" cy="859.258" r="14.4" fill="#009af9" fill-rule="evenodd" fill-opacity="1" stroke="#000000" stroke-opacity="1" stroke-width="3.2"/>
<circle clip-path="url(#clip882)" cx="1058.33" cy="730.588" r="14.4" fill="#009af9" fill-rule="evenodd" fill-opacity="1" stroke="#000000" stroke-opacity="1" stroke-width="3.2"/>
<circle clip-path="url(#clip882)" cx="1305.36" cy="601.455" r="14.4" fill="#009af9" fill-rule="evenodd" fill-opacity="1" stroke="#000000" stroke-opacity="1" stroke-width="3.2"/>
<circle clip-path="url(#clip882)" cx="1552.38" cy="472.592" r="14.4" fill="#009af9" fill-rule="evenodd" fill-opacity="1" stroke="#000000" stroke-opacity="1" stroke-width="3.2"/>
<circle clip-path="url(#clip882)" cx="1799.41" cy="343.413" r="14.4" fill="#009af9" fill-rule="evenodd" fill-opacity="1" stroke="#000000" stroke-opacity="1" stroke-width="3.2"/>
<circle clip-path="url(#clip882)" cx="2046.44" cy="213.923" r="14.4" fill="#009af9" fill-rule="evenodd" fill-opacity="1" stroke="#000000" stroke-opacity="1" stroke-width="3.2"/>
<circle clip-path="url(#clip882)" cx="2293.47" cy="85.838" r="14.4" fill="#009af9" fill-rule="evenodd" fill-opacity="1" stroke="#000000" stroke-opacity="1" stroke-width="3.2"/>
<polyline clip-path="url(#clip882)" style="stroke:#e26f46; stroke-linecap:round; stroke-linejoin:round; stroke-width:4; stroke-opacity:1; fill:none" points="317.242,1372.3 564.27,1307 811.299,1204.72 1058.33,1065.45 1305.36,926.927 1552.38,796.51 1799.41,667.952 2046.44,539.848 2293.47,411.857 "/>
<path clip-path="url(#clip882)" d="M301.242 1356.3 L301.242 1388.3 L333.242 1388.3 L333.242 1356.3 L301.242 1356.3 Z" fill="#e26f46" fill-rule="evenodd" fill-opacity="1" stroke="#000000" stroke-opacity="1" stroke-width="3.2"/>
<path clip-path="url(#clip882)" d="M548.27 1291 L548.27 1323 L580.27 1323 L580.27 1291 L548.27 1291 Z" fill="#e26f46" fill-rule="evenodd" fill-opacity="1" stroke="#000000" stroke-opacity="1" stroke-width="3.2"/>
<path clip-path="url(#clip882)" d="M795.299 1188.72 L795.299 1220.72 L827.299 1220.72 L827.299 1188.72 L795.299 1188.72 Z" fill="#e26f46" fill-rule="evenodd" fill-opacity="1" stroke="#000000" stroke-opacity="1" stroke-width="3.2"/>
<path clip-path="url(#clip882)" d="M1042.33 1049.45 L1042.33 1081.45 L1074.33 1081.45 L1074.33 1049.45 L1042.33 1049.45 Z" fill="#e26f46" fill-rule="evenodd" fill-opacity="1" stroke="#000000" stroke-opacity="1" stroke-width="3.2"/>
<path clip-path="url(#clip882)" d="M1289.36 910.927 L1289.36 942.927 L1321.36 942.927 L1321.36 910.927 L1289.36 910.927 Z" fill="#e26f46" fill-rule="evenodd" fill-opacity="1" stroke="#000000" stroke-opacity="1" stroke-width="3.2"/>
<path clip-path="url(#clip882)" d="M1536.38 780.51 L1536.38 812.51 L1568.38 812.51 L1568.38 780.51 L1536.38 780.51 Z" fill="#e26f46" fill-rule="evenodd" fill-opacity="1" stroke="#000000" stroke-opacity="1" stroke-width="3.2"/>
<path clip-path="url(#clip882)" d="M1783.41 651.952 L1783.41 683.952 L1815.41 683.952 L1815.41 651.952 L1783.41 651.952 Z" fill="#e26f46" fill-rule="evenodd" fill-opacity="1" stroke="#000000" stroke-opacity="1" stroke-width="3.2"/>
<path clip-path="url(#clip882)" d="M2030.44 523.848 L2030.44 555.848 L2062.44 555.848 L2062.44 523.848 L2030.44 523.848 Z" fill="#e26f46" fill-rule="evenodd" fill-opacity="1" stroke="#000000" stroke-opacity="1" stroke-width="3.2"/>
<path clip-path="url(#clip882)" d="M2277.47 395.857 L2277.47 427.857 L2309.47 427.857 L2309.47 395.857 L2277.47 395.857 Z" fill="#e26f46" fill-rule="evenodd" fill-opacity="1" stroke="#000000" stroke-opacity="1" stroke-width="3.2"/>
<polyline clip-path="url(#clip882)" style="stroke:#3da44d; stroke-linecap:round; stroke-linejoin:round; stroke-width:4; stroke-opacity:1; fill:none" points="317.242,1079.71 564.27,1006.27 811.299,898.766 1058.33,765.592 1305.36,631.204 1552.38,501.691 1799.41,373.343 2046.44,245.286 2293.47,117.305 "/>
<path clip-path="url(#clip882)" d="M317.242 1063.71 L301.242 1079.71 L317.242 1095.71 L333.242 1079.71 L317.242 1063.71 Z" fill="#3da44d" fill-rule="evenodd" fill-opacity="1" stroke="#000000" stroke-opacity="1" stroke-width="3.2"/>
<path clip-path="url(#clip882)" d="M564.27 990.267 L548.27 1006.27 L564.27 1022.27 L580.27 1006.27 L564.27 990.267 Z" fill="#3da44d" fill-rule="evenodd" fill-opacity="1" stroke="#000000" stroke-opacity="1" stroke-width="3.2"/>
<path clip-path="url(#clip882)" d="M811.299 882.766 L795.299 898.766 L811.299 914.766 L827.299 898.766 L811.299 882.766 Z" fill="#3da44d" fill-rule="evenodd" fill-opacity="1" stroke="#000000" stroke-opacity="1" stroke-width="3.2"/>
<path clip-path="url(#clip882)" d="M1058.33 749.592 L1042.33 765.592 L1058.33 781.592 L1074.33 765.592 L1058.33 749.592 Z" fill="#3da44d" fill-rule="evenodd" fill-opacity="1" stroke="#000000" stroke-opacity="1" stroke-width="3.2"/>
<path clip-path="url(#clip882)" d="M1305.36 615.204 L1289.36 631.204 L1305.36 647.204 L1321.36 631.204 L1305.36 615.204 Z" fill="#3da44d" fill-rule="evenodd" fill-opacity="1" stroke="#000000" stroke-opacity="1" stroke-width="3.2"/>
<path clip-path="url(#clip882)" d="M1552.38 485.691 L1536.38 501.691 L1552.38 517.691 L1568.38 501.691 L1552.38 485.691 Z" fill="#3da44d" fill-rule="evenodd" fill-opacity="1" stroke="#000000" stroke-opacity="1" stroke-width="3.2"/>
<path clip-path="url(#clip882)" d="M1799.41 357.343 L1783.41 373.343 L1799.41 389.343 L1815.41 373.343 L1799.41 357.343 Z" fill="#3da44d" fill-rule="evenodd" fill-opacity="1" stroke="#000000" stroke-opacity="1" stroke-width="3.2"/>
<path clip-path="url(#clip882)" d="M2046.44 229.286 L2030.44 245.286 L2046.44 261.286 L2062.44 245.286 L2046.44 229.286 Z" fill="#3da44d" fill-rule="evenodd" fill-opacity="1" stroke="#000000" stroke-opacity="1" stroke-width="3.2"/>
<path clip-path="url(#clip882)" d="M2293.47 101.305 L2277.47 117.305 L2293.47 133.305 L2309.47 117.305 L2293.47 101.305 Z" fill="#3da44d" fill-rule="evenodd" fill-opacity="1" stroke="#000000" stroke-opacity="1" stroke-width="3.2"/>
<path clip-path="url(#clip880)" d="M327.782 300.059 L982.838 300.059 L982.838 92.6992 L327.782 92.6992  Z" fill="#ffffff" fill-rule="evenodd" fill-opacity="1"/>
<polyline clip-path="url(#clip880)" style="stroke:#000000; stroke-linecap:round; stroke-linejoin:round; stroke-width:4; stroke-opacity:1; fill:none" points="327.782,300.059 982.838,300.059 982.838,92.6992 327.782,92.6992 327.782,300.059 "/>
<polyline clip-path="url(#clip880)" style="stroke:#009af9; stroke-linecap:round; stroke-linejoin:round; stroke-width:4; stroke-opacity:1; fill:none" points="351.057,144.539 490.711,144.539 "/>
<circle clip-path="url(#clip880)" cx="420.884" cy="144.539" r="19.3963" fill="#009af9" fill-rule="evenodd" fill-opacity="1" stroke="#000000" stroke-opacity="1" stroke-width="4.55111"/>
<path clip-path="url(#clip880)" d="M534.333 140.87 Q535.93 138 538.153 136.634 Q540.375 135.268 543.384 135.268 Q547.435 135.268 549.634 138.116 Q551.833 140.94 551.833 146.171 L551.833 161.819 L547.551 161.819 L547.551 146.31 Q547.551 142.583 546.231 140.778 Q544.912 138.972 542.204 138.972 Q538.893 138.972 536.972 141.171 Q535.051 143.37 535.051 147.166 L535.051 161.819 L530.768 161.819 L530.768 146.31 Q530.768 142.56 529.449 140.778 Q528.13 138.972 525.375 138.972 Q522.111 138.972 520.19 141.194 Q518.269 143.393 518.269 147.166 L518.269 161.819 L513.986 161.819 L513.986 135.893 L518.269 135.893 L518.269 139.921 Q519.727 137.537 521.764 136.403 Q523.801 135.268 526.602 135.268 Q529.426 135.268 531.393 136.704 Q533.384 138.139 534.333 140.87 Z" fill="#000000" fill-rule="nonzero" fill-opacity="1" /><path clip-path="url(#clip880)" d="M560.328 135.893 L564.588 135.893 L564.588 161.819 L560.328 161.819 L560.328 135.893 M560.328 125.801 L564.588 125.801 L564.588 131.194 L560.328 131.194 L560.328 125.801 Z" fill="#000000" fill-rule="nonzero" fill-opacity="1" /><path clip-path="url(#clip880)" d="M595.051 146.171 L595.051 161.819 L590.791 161.819 L590.791 146.31 Q590.791 142.629 589.356 140.801 Q587.921 138.972 585.051 138.972 Q581.602 138.972 579.611 141.171 Q577.62 143.37 577.62 147.166 L577.62 161.819 L573.338 161.819 L573.338 135.893 L577.62 135.893 L577.62 139.921 Q579.148 137.583 581.208 136.426 Q583.291 135.268 586 135.268 Q590.467 135.268 592.759 138.046 Q595.051 140.801 595.051 146.171 Z" fill="#000000" fill-rule="nonzero" fill-opacity="1" /><path clip-path="url(#clip880)" d="M603.546 135.893 L607.805 135.893 L607.805 161.819 L603.546 161.819 L603.546 135.893 M603.546 125.801 L607.805 125.801 L607.805 131.194 L603.546 131.194 L603.546 125.801 Z" fill="#000000" fill-rule="nonzero" fill-opacity="1" /><path clip-path="url(#clip880)" d="M636.902 140.87 Q638.499 138 640.722 136.634 Q642.944 135.268 645.953 135.268 Q650.004 135.268 652.203 138.116 Q654.402 140.94 654.402 146.171 L654.402 161.819 L650.12 161.819 L650.12 146.31 Q650.12 142.583 648.8 140.778 Q647.481 138.972 644.772 138.972 Q641.462 138.972 639.541 141.171 Q637.62 143.37 637.62 147.166 L637.62 161.819 L633.337 161.819 L633.337 146.31 Q633.337 142.56 632.018 140.778 Q630.698 138.972 627.944 138.972 Q624.68 138.972 622.759 141.194 Q620.837 143.393 620.837 147.166 L620.837 161.819 L616.555 161.819 L616.555 135.893 L620.837 135.893 L620.837 139.921 Q622.296 137.537 624.333 136.403 Q626.37 135.268 629.171 135.268 Q631.995 135.268 633.962 136.704 Q635.953 138.139 636.902 140.87 Z" fill="#000000" fill-rule="nonzero" fill-opacity="1" /><path clip-path="url(#clip880)" d="M662.458 151.588 L662.458 135.893 L666.717 135.893 L666.717 151.426 Q666.717 155.106 668.152 156.958 Q669.587 158.787 672.458 158.787 Q675.907 158.787 677.897 156.588 Q679.911 154.389 679.911 150.592 L679.911 135.893 L684.17 135.893 L684.17 161.819 L679.911 161.819 L679.911 157.838 Q678.36 160.199 676.3 161.356 Q674.263 162.49 671.555 162.49 Q667.087 162.49 664.772 159.713 Q662.458 156.935 662.458 151.588 M673.175 135.268 L673.175 135.268 Z" fill="#000000" fill-rule="nonzero" fill-opacity="1" /><path clip-path="url(#clip880)" d="M713.129 140.87 Q714.726 138 716.948 136.634 Q719.17 135.268 722.179 135.268 Q726.23 135.268 728.429 138.116 Q730.628 140.94 730.628 146.171 L730.628 161.819 L726.346 161.819 L726.346 146.31 Q726.346 142.583 725.027 140.778 Q723.707 138.972 720.999 138.972 Q717.689 138.972 715.767 141.171 Q713.846 143.37 713.846 147.166 L713.846 161.819 L709.564 161.819 L709.564 146.31 Q709.564 142.56 708.244 140.778 Q706.925 138.972 704.17 138.972 Q700.906 138.972 698.985 141.194 Q697.064 143.393 697.064 147.166 L697.064 161.819 L692.781 161.819 L692.781 135.893 L697.064 135.893 L697.064 139.921 Q698.522 137.537 700.559 136.403 Q702.596 135.268 705.397 135.268 Q708.221 135.268 710.189 136.704 Q712.18 138.139 713.129 140.87 Z" fill="#000000" fill-rule="nonzero" fill-opacity="1" /><path clip-path="url(#clip880)" d="M758.406 128.532 L758.406 135.893 L767.179 135.893 L767.179 139.204 L758.406 139.204 L758.406 153.278 Q758.406 156.449 759.263 157.352 Q760.142 158.254 762.804 158.254 L767.179 158.254 L767.179 161.819 L762.804 161.819 Q757.874 161.819 755.999 159.99 Q754.124 158.139 754.124 153.278 L754.124 139.204 L750.999 139.204 L750.999 135.893 L754.124 135.893 L754.124 128.532 L758.406 128.532 Z" fill="#000000" fill-rule="nonzero" fill-opacity="1" /><path clip-path="url(#clip880)" d="M772.781 135.893 L777.04 135.893 L777.04 161.819 L772.781 161.819 L772.781 135.893 M772.781 125.801 L777.04 125.801 L777.04 131.194 L772.781 131.194 L772.781 125.801 Z" fill="#000000" fill-rule="nonzero" fill-opacity="1" /><path clip-path="url(#clip880)" d="M806.137 140.87 Q807.735 138 809.957 136.634 Q812.179 135.268 815.188 135.268 Q819.239 135.268 821.438 138.116 Q823.637 140.94 823.637 146.171 L823.637 161.819 L819.355 161.819 L819.355 146.31 Q819.355 142.583 818.035 140.778 Q816.716 138.972 814.008 138.972 Q810.698 138.972 808.776 141.171 Q806.855 143.37 806.855 147.166 L806.855 161.819 L802.573 161.819 L802.573 146.31 Q802.573 142.56 801.253 140.778 Q799.934 138.972 797.179 138.972 Q793.915 138.972 791.994 141.194 Q790.073 143.393 790.073 147.166 L790.073 161.819 L785.79 161.819 L785.79 135.893 L790.073 135.893 L790.073 139.921 Q791.531 137.537 793.568 136.403 Q795.605 135.268 798.406 135.268 Q801.23 135.268 803.198 136.704 Q805.188 138.139 806.137 140.87 Z" fill="#000000" fill-rule="nonzero" fill-opacity="1" /><path clip-path="url(#clip880)" d="M854.308 147.791 L854.308 149.875 L834.725 149.875 Q835.003 154.273 837.364 156.588 Q839.748 158.879 843.984 158.879 Q846.438 158.879 848.73 158.278 Q851.045 157.676 853.313 156.472 L853.313 160.5 Q851.021 161.472 848.614 161.981 Q846.207 162.49 843.73 162.49 Q837.526 162.49 833.892 158.879 Q830.281 155.268 830.281 149.111 Q830.281 142.745 833.707 139.018 Q837.156 135.268 842.989 135.268 Q848.22 135.268 851.253 138.648 Q854.308 142.004 854.308 147.791 M850.049 146.541 Q850.003 143.046 848.082 140.963 Q846.183 138.879 843.035 138.879 Q839.47 138.879 837.318 140.893 Q835.188 142.907 834.864 146.565 L850.049 146.541 Z" fill="#000000" fill-rule="nonzero" fill-opacity="1" /><path clip-path="url(#clip880)" d="M886.6 125.847 Q883.498 131.171 881.993 136.38 Q880.489 141.588 880.489 146.935 Q880.489 152.282 881.993 157.537 Q883.521 162.768 886.6 168.069 L882.896 168.069 Q879.424 162.629 877.688 157.375 Q875.975 152.12 875.975 146.935 Q875.975 141.773 877.688 136.542 Q879.401 131.31 882.896 125.847 L886.6 125.847 Z" fill="#000000" fill-rule="nonzero" fill-opacity="1" /><path clip-path="url(#clip880)" d="M916.415 146.171 L916.415 161.819 L912.155 161.819 L912.155 146.31 Q912.155 142.629 910.72 140.801 Q909.285 138.972 906.415 138.972 Q902.966 138.972 900.975 141.171 Q898.984 143.37 898.984 147.166 L898.984 161.819 L894.702 161.819 L894.702 135.893 L898.984 135.893 L898.984 139.921 Q900.512 137.583 902.572 136.426 Q904.655 135.268 907.364 135.268 Q911.831 135.268 914.123 138.046 Q916.415 140.801 916.415 146.171 Z" fill="#000000" fill-rule="nonzero" fill-opacity="1" /><path clip-path="url(#clip880)" d="M941.438 136.657 L941.438 140.685 Q939.632 139.759 937.688 139.296 Q935.743 138.833 933.66 138.833 Q930.489 138.833 928.891 139.805 Q927.317 140.778 927.317 142.722 Q927.317 144.204 928.451 145.06 Q929.586 145.893 933.012 146.657 L934.47 146.981 Q939.007 147.954 940.905 149.736 Q942.826 151.495 942.826 154.666 Q942.826 158.278 939.956 160.384 Q937.109 162.49 932.109 162.49 Q930.026 162.49 927.757 162.074 Q925.512 161.68 923.012 160.87 L923.012 156.472 Q925.373 157.699 927.664 158.324 Q929.956 158.926 932.201 158.926 Q935.211 158.926 936.831 157.907 Q938.451 156.866 938.451 154.991 Q938.451 153.254 937.271 152.328 Q936.113 151.403 932.155 150.546 L930.674 150.199 Q926.715 149.366 924.956 147.653 Q923.197 145.916 923.197 142.907 Q923.197 139.25 925.789 137.259 Q928.382 135.268 933.151 135.268 Q935.512 135.268 937.595 135.616 Q939.678 135.963 941.438 136.657 Z" fill="#000000" fill-rule="nonzero" fill-opacity="1" /><path clip-path="url(#clip880)" d="M948.938 125.847 L952.641 125.847 Q956.113 131.31 957.826 136.542 Q959.562 141.773 959.562 146.935 Q959.562 152.12 957.826 157.375 Q956.113 162.629 952.641 168.069 L948.938 168.069 Q952.016 162.768 953.521 157.537 Q955.049 152.282 955.049 146.935 Q955.049 141.588 953.521 136.38 Q952.016 131.171 948.938 125.847 Z" fill="#000000" fill-rule="nonzero" fill-opacity="1" /><polyline clip-path="url(#clip880)" style="stroke:#e26f46; stroke-linecap:round; stroke-linejoin:round; stroke-width:4; stroke-opacity:1; fill:none" points="351.057,196.379 490.711,196.379 "/>
<path clip-path="url(#clip880)" d="M399.332 174.828 L399.332 217.931 L442.435 217.931 L442.435 174.828 L399.332 174.828 Z" fill="#e26f46" fill-rule="evenodd" fill-opacity="1" stroke="#000000" stroke-opacity="1" stroke-width="4.55111"/>
<path clip-path="url(#clip880)" d="M527.389 200.627 Q522.227 200.627 520.236 201.807 Q518.245 202.988 518.245 205.835 Q518.245 208.104 519.727 209.446 Q521.231 210.766 523.801 210.766 Q527.343 210.766 529.472 208.266 Q531.625 205.743 531.625 201.576 L531.625 200.627 L527.389 200.627 M535.884 198.868 L535.884 213.659 L531.625 213.659 L531.625 209.724 Q530.167 212.085 527.991 213.219 Q525.815 214.33 522.667 214.33 Q518.685 214.33 516.324 212.108 Q513.986 209.863 513.986 206.113 Q513.986 201.738 516.903 199.516 Q519.843 197.294 525.653 197.294 L531.625 197.294 L531.625 196.877 Q531.625 193.937 529.68 192.34 Q527.759 190.719 524.264 190.719 Q522.042 190.719 519.935 191.252 Q517.829 191.784 515.884 192.849 L515.884 188.914 Q518.222 188.011 520.421 187.571 Q522.62 187.108 524.704 187.108 Q530.329 187.108 533.106 190.025 Q535.884 192.942 535.884 198.868 Z" fill="#000000" fill-rule="nonzero" fill-opacity="1" /><path clip-path="url(#clip880)" d="M544.657 177.641 L548.916 177.641 L548.916 213.659 L544.657 213.659 L544.657 177.641 Z" fill="#000000" fill-rule="nonzero" fill-opacity="1" /><path clip-path="url(#clip880)" d="M557.828 177.641 L562.088 177.641 L562.088 213.659 L557.828 213.659 L557.828 177.641 Z" fill="#000000" fill-rule="nonzero" fill-opacity="1" /><path clip-path="url(#clip880)" d="M581.046 190.719 Q577.62 190.719 575.629 193.405 Q573.639 196.067 573.639 200.719 Q573.639 205.372 575.606 208.057 Q577.597 210.719 581.046 210.719 Q584.449 210.719 586.439 208.034 Q588.43 205.349 588.43 200.719 Q588.43 196.113 586.439 193.428 Q584.449 190.719 581.046 190.719 M581.046 187.108 Q586.601 187.108 589.773 190.719 Q592.944 194.331 592.944 200.719 Q592.944 207.085 589.773 210.719 Q586.601 214.33 581.046 214.33 Q575.467 214.33 572.296 210.719 Q569.148 207.085 569.148 200.719 Q569.148 194.331 572.296 190.719 Q575.467 187.108 581.046 187.108 Z" fill="#000000" fill-rule="nonzero" fill-opacity="1" /><path clip-path="url(#clip880)" d="M618.661 188.729 L618.661 192.71 Q616.856 191.715 615.027 191.229 Q613.222 190.719 611.37 190.719 Q607.226 190.719 604.935 193.358 Q602.643 195.974 602.643 200.719 Q602.643 205.465 604.935 208.104 Q607.226 210.719 611.37 210.719 Q613.222 210.719 615.027 210.233 Q616.856 209.724 618.661 208.729 L618.661 212.664 Q616.879 213.497 614.958 213.914 Q613.06 214.33 610.907 214.33 Q605.05 214.33 601.601 210.65 Q598.152 206.969 598.152 200.719 Q598.152 194.377 601.625 190.743 Q605.12 187.108 611.185 187.108 Q613.152 187.108 615.027 187.525 Q616.902 187.919 618.661 188.729 Z" fill="#000000" fill-rule="nonzero" fill-opacity="1" /><path clip-path="url(#clip880)" d="M642.597 188.497 L642.597 192.525 Q640.791 191.599 638.847 191.136 Q636.902 190.673 634.819 190.673 Q631.648 190.673 630.05 191.645 Q628.476 192.618 628.476 194.562 Q628.476 196.044 629.611 196.9 Q630.745 197.733 634.171 198.497 L635.629 198.821 Q640.166 199.794 642.064 201.576 Q643.985 203.335 643.985 206.506 Q643.985 210.118 641.115 212.224 Q638.268 214.33 633.268 214.33 Q631.185 214.33 628.916 213.914 Q626.671 213.52 624.171 212.71 L624.171 208.312 Q626.532 209.539 628.823 210.164 Q631.115 210.766 633.36 210.766 Q636.37 210.766 637.99 209.747 Q639.61 208.706 639.61 206.831 Q639.61 205.094 638.43 204.168 Q637.273 203.243 633.314 202.386 L631.833 202.039 Q627.874 201.206 626.115 199.493 Q624.356 197.756 624.356 194.747 Q624.356 191.09 626.948 189.099 Q629.541 187.108 634.31 187.108 Q636.671 187.108 638.754 187.456 Q640.837 187.803 642.597 188.497 Z" fill="#000000" fill-rule="nonzero" fill-opacity="1" /><polyline clip-path="url(#clip880)" style="stroke:#3da44d; stroke-linecap:round; stroke-linejoin:round; stroke-width:4; stroke-opacity:1; fill:none" points="351.057,248.219 490.711,248.219 "/>
<path clip-path="url(#clip880)" d="M420.884 226.668 L399.332 248.219 L420.884 269.771 L442.435 248.219 L420.884 226.668 Z" fill="#3da44d" fill-rule="evenodd" fill-opacity="1" stroke="#000000" stroke-opacity="1" stroke-width="4.55111"/>
<path clip-path="url(#clip880)" d="M534.333 244.55 Q535.93 241.68 538.153 240.314 Q540.375 238.948 543.384 238.948 Q547.435 238.948 549.634 241.796 Q551.833 244.62 551.833 249.851 L551.833 265.499 L547.551 265.499 L547.551 249.99 Q547.551 246.263 546.231 244.458 Q544.912 242.652 542.204 242.652 Q538.893 242.652 536.972 244.851 Q535.051 247.05 535.051 250.846 L535.051 265.499 L530.768 265.499 L530.768 249.99 Q530.768 246.24 529.449 244.458 Q528.13 242.652 525.375 242.652 Q522.111 242.652 520.19 244.874 Q518.269 247.073 518.269 250.846 L518.269 265.499 L513.986 265.499 L513.986 239.573 L518.269 239.573 L518.269 243.601 Q519.727 241.217 521.764 240.083 Q523.801 238.948 526.602 238.948 Q529.426 238.948 531.393 240.384 Q533.384 241.819 534.333 244.55 Z" fill="#000000" fill-rule="nonzero" fill-opacity="1" /><path clip-path="url(#clip880)" d="M582.504 251.471 L582.504 253.555 L562.921 253.555 Q563.199 257.953 565.56 260.268 Q567.944 262.559 572.18 262.559 Q574.634 262.559 576.926 261.958 Q579.24 261.356 581.509 260.152 L581.509 264.18 Q579.217 265.152 576.81 265.661 Q574.402 266.17 571.926 266.17 Q565.722 266.17 562.088 262.559 Q558.477 258.948 558.477 252.791 Q558.477 246.425 561.903 242.698 Q565.352 238.948 571.185 238.948 Q576.416 238.948 579.449 242.328 Q582.504 245.684 582.504 251.471 M578.245 250.221 Q578.199 246.726 576.277 244.643 Q574.379 242.559 571.231 242.559 Q567.666 242.559 565.514 244.573 Q563.384 246.587 563.06 250.245 L578.245 250.221 Z" fill="#000000" fill-rule="nonzero" fill-opacity="1" /><path clip-path="url(#clip880)" d="M609.68 244.55 Q611.277 241.68 613.499 240.314 Q615.722 238.948 618.731 238.948 Q622.782 238.948 624.981 241.796 Q627.18 244.62 627.18 249.851 L627.18 265.499 L622.898 265.499 L622.898 249.99 Q622.898 246.263 621.578 244.458 Q620.259 242.652 617.55 242.652 Q614.24 242.652 612.319 244.851 Q610.398 247.05 610.398 250.846 L610.398 265.499 L606.115 265.499 L606.115 249.99 Q606.115 246.24 604.796 244.458 Q603.476 242.652 600.722 242.652 Q597.458 242.652 595.537 244.874 Q593.615 247.073 593.615 250.846 L593.615 265.499 L589.333 265.499 L589.333 239.573 L593.615 239.573 L593.615 243.601 Q595.074 241.217 597.111 240.083 Q599.148 238.948 601.949 238.948 Q604.773 238.948 606.74 240.384 Q608.731 241.819 609.68 244.55 Z" fill="#000000" fill-rule="nonzero" fill-opacity="1" /><path clip-path="url(#clip880)" d="M645.722 242.559 Q642.296 242.559 640.305 245.245 Q638.314 247.907 638.314 252.559 Q638.314 257.212 640.282 259.897 Q642.272 262.559 645.722 262.559 Q649.124 262.559 651.115 259.874 Q653.106 257.189 653.106 252.559 Q653.106 247.953 651.115 245.268 Q649.124 242.559 645.722 242.559 M645.722 238.948 Q651.277 238.948 654.448 242.559 Q657.62 246.171 657.62 252.559 Q657.62 258.925 654.448 262.559 Q651.277 266.17 645.722 266.17 Q640.143 266.17 636.972 262.559 Q633.823 258.925 633.823 252.559 Q633.823 246.171 636.972 242.559 Q640.143 238.948 645.722 238.948 Z" fill="#000000" fill-rule="nonzero" fill-opacity="1" /><path clip-path="url(#clip880)" d="M679.703 243.555 Q678.985 243.138 678.129 242.953 Q677.295 242.745 676.277 242.745 Q672.666 242.745 670.721 245.106 Q668.8 247.444 668.8 251.842 L668.8 265.499 L664.518 265.499 L664.518 239.573 L668.8 239.573 L668.8 243.601 Q670.143 241.24 672.295 240.106 Q674.448 238.948 677.527 238.948 Q677.967 238.948 678.499 239.018 Q679.032 239.064 679.68 239.18 L679.703 243.555 Z" fill="#000000" fill-rule="nonzero" fill-opacity="1" /><path clip-path="url(#clip880)" d="M694.957 267.907 Q693.152 272.536 691.439 273.948 Q689.726 275.36 686.856 275.36 L683.453 275.36 L683.453 271.795 L685.953 271.795 Q687.712 271.795 688.684 270.962 Q689.656 270.129 690.837 267.027 L691.601 265.083 L681.115 239.573 L685.629 239.573 L693.731 259.851 L701.832 239.573 L706.346 239.573 L694.957 267.907 Z" fill="#000000" fill-rule="nonzero" fill-opacity="1" /><path clip-path="url(#clip880)" d="M737.527 229.527 Q734.425 234.851 732.92 240.06 Q731.416 245.268 731.416 250.615 Q731.416 255.962 732.92 261.217 Q734.448 266.448 737.527 271.749 L733.823 271.749 Q730.351 266.309 728.615 261.055 Q726.902 255.8 726.902 250.615 Q726.902 245.453 728.615 240.222 Q730.328 234.99 733.823 229.527 L737.527 229.527 Z" fill="#000000" fill-rule="nonzero" fill-opacity="1" /><path clip-path="url(#clip880)" d="M764.401 252.559 Q764.401 247.86 762.457 245.198 Q760.536 242.513 757.156 242.513 Q753.777 242.513 751.832 245.198 Q749.911 247.86 749.911 252.559 Q749.911 257.258 751.832 259.944 Q753.777 262.606 757.156 262.606 Q760.536 262.606 762.457 259.944 Q764.401 257.258 764.401 252.559 M749.911 243.509 Q751.253 241.194 753.29 240.083 Q755.351 238.948 758.198 238.948 Q762.92 238.948 765.86 242.698 Q768.823 246.448 768.823 252.559 Q768.823 258.671 765.86 262.42 Q762.92 266.17 758.198 266.17 Q755.351 266.17 753.29 265.059 Q751.253 263.925 749.911 261.61 L749.911 265.499 L745.628 265.499 L745.628 229.481 L749.911 229.481 L749.911 243.509 Z" fill="#000000" fill-rule="nonzero" fill-opacity="1" /><path clip-path="url(#clip880)" d="M786.67 267.907 Q784.864 272.536 783.151 273.948 Q781.438 275.36 778.568 275.36 L775.165 275.36 L775.165 271.795 L777.665 271.795 Q779.425 271.795 780.397 270.962 Q781.369 270.129 782.55 267.027 L783.313 265.083 L772.827 239.573 L777.341 239.573 L785.443 259.851 L793.545 239.573 L798.059 239.573 L786.67 267.907 Z" fill="#000000" fill-rule="nonzero" fill-opacity="1" /><path clip-path="url(#clip880)" d="M808.151 232.212 L808.151 239.573 L816.924 239.573 L816.924 242.884 L808.151 242.884 L808.151 256.958 Q808.151 260.129 809.008 261.032 Q809.887 261.934 812.549 261.934 L816.924 261.934 L816.924 265.499 L812.549 265.499 Q807.619 265.499 805.744 263.67 Q803.869 261.819 803.869 256.958 L803.869 242.884 L800.744 242.884 L800.744 239.573 L803.869 239.573 L803.869 232.212 L808.151 232.212 Z" fill="#000000" fill-rule="nonzero" fill-opacity="1" /><path clip-path="url(#clip880)" d="M844.702 251.471 L844.702 253.555 L825.119 253.555 Q825.396 257.953 827.758 260.268 Q830.142 262.559 834.378 262.559 Q836.832 262.559 839.123 261.958 Q841.438 261.356 843.707 260.152 L843.707 264.18 Q841.415 265.152 839.008 265.661 Q836.6 266.17 834.123 266.17 Q827.92 266.17 824.285 262.559 Q820.674 258.948 820.674 252.791 Q820.674 246.425 824.1 242.698 Q827.549 238.948 833.383 238.948 Q838.614 238.948 841.646 242.328 Q844.702 245.684 844.702 251.471 M840.443 250.221 Q840.396 246.726 838.475 244.643 Q836.577 242.559 833.429 242.559 Q829.864 242.559 827.711 244.573 Q825.582 246.587 825.258 250.245 L840.443 250.221 Z" fill="#000000" fill-rule="nonzero" fill-opacity="1" /><path clip-path="url(#clip880)" d="M868.22 240.337 L868.22 244.365 Q866.415 243.439 864.47 242.976 Q862.526 242.513 860.443 242.513 Q857.271 242.513 855.674 243.485 Q854.1 244.458 854.1 246.402 Q854.1 247.884 855.234 248.74 Q856.369 249.573 859.794 250.337 L861.253 250.661 Q865.79 251.634 867.688 253.416 Q869.609 255.175 869.609 258.346 Q869.609 261.958 866.739 264.064 Q863.892 266.17 858.892 266.17 Q856.808 266.17 854.54 265.754 Q852.295 265.36 849.795 264.55 L849.795 260.152 Q852.156 261.379 854.447 262.004 Q856.739 262.606 858.984 262.606 Q861.994 262.606 863.614 261.587 Q865.234 260.546 865.234 258.671 Q865.234 256.934 864.054 256.008 Q862.896 255.083 858.938 254.226 L857.457 253.879 Q853.498 253.046 851.739 251.333 Q849.98 249.596 849.98 246.587 Q849.98 242.93 852.572 240.939 Q855.165 238.948 859.933 238.948 Q862.294 238.948 864.378 239.296 Q866.461 239.643 868.22 240.337 Z" fill="#000000" fill-rule="nonzero" fill-opacity="1" /><path clip-path="url(#clip880)" d="M875.72 229.527 L879.424 229.527 Q882.896 234.99 884.609 240.222 Q886.345 245.453 886.345 250.615 Q886.345 255.8 884.609 261.055 Q882.896 266.309 879.424 271.749 L875.72 271.749 Q878.799 266.448 880.304 261.217 Q881.831 255.962 881.831 250.615 Q881.831 245.268 880.304 240.06 Q878.799 234.851 875.72 229.527 Z" fill="#000000" fill-rule="nonzero" fill-opacity="1" /></svg>
